<?xml version="1.0" encoding="utf-8" standalone="no"?>
<!DOCTYPE svg PUBLIC "-//W3C//DTD SVG 1.1//EN"
  "http://www.w3.org/Graphics/SVG/1.1/DTD/svg11.dtd">
<!-- Created with matplotlib (http://matplotlib.org/) -->
<svg height="504pt" version="1.1" viewBox="0 0 504 504" width="504pt" xmlns="http://www.w3.org/2000/svg" xmlns:xlink="http://www.w3.org/1999/xlink">
 <defs>
  <style type="text/css">
*{stroke-linecap:butt;stroke-linejoin:round;}
  </style>
 </defs>
 <g id="figure_1">
  <g id="patch_1">
   <path d="M 0 504 
L 504 504 
L 504 0 
L 0 0 
z
" style="fill:#ffffff;"/>
  </g>
  <g id="patch_2">
   <path d="M 63 441 
L 453.6 441 
L 453.6 60.48 
L 63 60.48 
z
" style="fill:#ffffff;"/>
  </g>
  <g id="pane3d_1">
   <g id="patch_3">
    <path d="M 114.780066 356.91849 
L 226.571829 263.623608 
L 224.710615 85.352401 
L 106.685728 169.175934 
" style="fill:#f2f2f2;opacity:0.5;stroke:#f2f2f2;stroke-linejoin:miter;"/>
   </g>
  </g>
  <g id="pane3d_2">
   <g id="patch_4">
    <path d="M 226.571829 263.623608 
L 407.663976 315.781468 
L 415.240655 132.134565 
L 224.710615 85.352401 
" style="fill:#e6e6e6;opacity:0.5;stroke:#e6e6e6;stroke-linejoin:miter;"/>
   </g>
  </g>
  <g id="pane3d_3">
   <g id="patch_5">
    <path d="M 114.780066 356.91849 
L 305.313474 417.664816 
L 407.663976 315.781468 
L 226.571829 263.623608 
" style="fill:#ececec;opacity:0.5;stroke:#ececec;stroke-linejoin:miter;"/>
   </g>
  </g>
  <g id="axis3d_1">
   <g id="line2d_1">
    <path d="M 114.780066 356.91849 
L 305.313474 417.664816 
" style="fill:none;stroke:#000000;stroke-linecap:square;stroke-width:0.8;"/>
   </g>
   <g id="Line3DCollection_1">
    <path d="M 142.435072 365.735527 
L 252.931929 271.2158 
L 252.392932 92.149433 
" style="fill:none;stroke:#b0b0b0;stroke-width:0.8;"/>
    <path d="M 174.89357 376.084024 
L 283.837847 280.117272 
L 284.871432 100.124104 
" style="fill:none;stroke:#b0b0b0;stroke-width:0.8;"/>
    <path d="M 207.869899 386.597618 
L 315.200661 289.150337 
L 317.854763 108.222731 
" style="fill:none;stroke:#b0b0b0;stroke-width:0.8;"/>
    <path d="M 241.376552 397.280291 
L 347.030578 298.317937 
L 351.354786 116.448224 
" style="fill:none;stroke:#b0b0b0;stroke-width:0.8;"/>
    <path d="M 275.426424 408.136154 
L 379.338112 307.6231 
L 385.38374 124.803589 
" style="fill:none;stroke:#b0b0b0;stroke-width:0.8;"/>
   </g>
   <g id="xtick_1">
    <g id="line2d_2">
     <path d="M 143.387326 364.920962 
L 140.526998 367.367706 
" style="fill:none;stroke:#000000;stroke-linecap:square;stroke-width:0.8;"/>
    </g>
    <g id="text_1">
     <!-- −40 -->
     <defs>
      <path d="M 10.59375 35.5 
L 73.1875 35.5 
L 73.1875 27.203125 
L 10.59375 27.203125 
z
" id="DejaVuSans-2212"/>
      <path d="M 37.796875 64.3125 
L 12.890625 25.390625 
L 37.796875 25.390625 
z
M 35.203125 72.90625 
L 47.609375 72.90625 
L 47.609375 25.390625 
L 58.015625 25.390625 
L 58.015625 17.1875 
L 47.609375 17.1875 
L 47.609375 0 
L 37.796875 0 
L 37.796875 17.1875 
L 4.890625 17.1875 
L 4.890625 26.703125 
z
" id="DejaVuSans-34"/>
      <path d="M 31.78125 66.40625 
Q 24.171875 66.40625 20.328125 58.90625 
Q 16.5 51.421875 16.5 36.375 
Q 16.5 21.390625 20.328125 13.890625 
Q 24.171875 6.390625 31.78125 6.390625 
Q 39.453125 6.390625 43.28125 13.890625 
Q 47.125 21.390625 47.125 36.375 
Q 47.125 51.421875 43.28125 58.90625 
Q 39.453125 66.40625 31.78125 66.40625 
z
M 31.78125 74.21875 
Q 44.046875 74.21875 50.515625 64.515625 
Q 56.984375 54.828125 56.984375 36.375 
Q 56.984375 17.96875 50.515625 8.265625 
Q 44.046875 -1.421875 31.78125 -1.421875 
Q 19.53125 -1.421875 13.0625 8.265625 
Q 6.59375 17.96875 6.59375 36.375 
Q 6.59375 54.828125 13.0625 64.515625 
Q 19.53125 74.21875 31.78125 74.21875 
z
" id="DejaVuSans-30"/>
     </defs>
     <g transform="translate(125.412571 389.432359)scale(0.1 -0.1)">
      <use xlink:href="#DejaVuSans-2212"/>
      <use x="83.789062" xlink:href="#DejaVuSans-34"/>
      <use x="147.412109" xlink:href="#DejaVuSans-30"/>
     </g>
    </g>
   </g>
   <g id="xtick_2">
    <g id="line2d_3">
     <path d="M 175.832977 375.256521 
L 173.011211 377.742155 
" style="fill:none;stroke:#000000;stroke-linecap:square;stroke-width:0.8;"/>
    </g>
    <g id="text_2">
     <!-- −20 -->
     <defs>
      <path d="M 19.1875 8.296875 
L 53.609375 8.296875 
L 53.609375 0 
L 7.328125 0 
L 7.328125 8.296875 
Q 12.9375 14.109375 22.625 23.890625 
Q 32.328125 33.6875 34.8125 36.53125 
Q 39.546875 41.84375 41.421875 45.53125 
Q 43.3125 49.21875 43.3125 52.78125 
Q 43.3125 58.59375 39.234375 62.25 
Q 35.15625 65.921875 28.609375 65.921875 
Q 23.96875 65.921875 18.8125 64.3125 
Q 13.671875 62.703125 7.8125 59.421875 
L 7.8125 69.390625 
Q 13.765625 71.78125 18.9375 73 
Q 24.125 74.21875 28.421875 74.21875 
Q 39.75 74.21875 46.484375 68.546875 
Q 53.21875 62.890625 53.21875 53.421875 
Q 53.21875 48.921875 51.53125 44.890625 
Q 49.859375 40.875 45.40625 35.40625 
Q 44.1875 33.984375 37.640625 27.21875 
Q 31.109375 20.453125 19.1875 8.296875 
z
" id="DejaVuSans-32"/>
     </defs>
     <g transform="translate(157.86852 399.923981)scale(0.1 -0.1)">
      <use xlink:href="#DejaVuSans-2212"/>
      <use x="83.789062" xlink:href="#DejaVuSans-32"/>
      <use x="147.412109" xlink:href="#DejaVuSans-30"/>
     </g>
    </g>
   </g>
   <g id="xtick_3">
    <g id="line2d_4">
     <path d="M 208.795926 385.756864 
L 206.014324 388.282324 
" style="fill:none;stroke:#000000;stroke-linecap:square;stroke-width:0.8;"/>
    </g>
    <g id="text_3">
     <!-- 0 -->
     <g transform="translate(198.214136 410.583237)scale(0.1 -0.1)">
      <use xlink:href="#DejaVuSans-30"/>
     </g>
    </g>
   </g>
   <g id="xtick_4">
    <g id="line2d_5">
     <path d="M 242.288645 396.425966 
L 239.548868 398.992217 
" style="fill:none;stroke:#000000;stroke-linecap:square;stroke-width:0.8;"/>
    </g>
    <g id="text_4">
     <!-- 20 -->
     <g transform="translate(228.538512 421.414176)scale(0.1 -0.1)">
      <use xlink:href="#DejaVuSans-32"/>
      <use x="63.623047" xlink:href="#DejaVuSans-30"/>
     </g>
    </g>
   </g>
   <g id="xtick_5">
    <g id="line2d_6">
     <path d="M 276.324008 407.267927 
L 273.627785 409.875965 
" style="fill:none;stroke:#000000;stroke-linecap:square;stroke-width:0.8;"/>
    </g>
    <g id="text_5">
     <!-- 40 -->
     <g transform="translate(262.588176 432.420979)scale(0.1 -0.1)">
      <use xlink:href="#DejaVuSans-34"/>
      <use x="63.623047" xlink:href="#DejaVuSans-30"/>
     </g>
    </g>
   </g>
  </g>
  <g id="axis3d_2">
   <g id="line2d_7">
    <path d="M 407.663976 315.781468 
L 305.313474 417.664816 
" style="fill:none;stroke:#000000;stroke-linecap:square;stroke-width:0.8;"/>
   </g>
   <g id="Line3DCollection_2">
    <path d="M 125.715754 155.660446 
L 132.746198 341.925005 
L 321.808646 401.244932 
" style="fill:none;stroke:#b0b0b0;stroke-width:0.8;"/>
    <path d="M 147.156989 140.43247 
L 153.015791 325.009186 
L 340.397328 382.741094 
" style="fill:none;stroke:#b0b0b0;stroke-width:0.8;"/>
    <path d="M 168.011416 125.621257 
L 172.758195 308.533327 
L 358.480808 364.740151 
" style="fill:none;stroke:#b0b0b0;stroke-width:0.8;"/>
    <path d="M 188.302799 111.209928 
L 191.993714 292.480486 
L 376.079406 347.221878 
" style="fill:none;stroke:#b0b0b0;stroke-width:0.8;"/>
    <path d="M 208.053638 97.182505 
L 210.741622 276.834576 
L 393.212366 330.167117 
" style="fill:none;stroke:#b0b0b0;stroke-width:0.8;"/>
   </g>
   <g id="xtick_6">
    <g id="line2d_8">
     <path d="M 320.226847 400.748629 
L 324.975755 402.238639 
" style="fill:none;stroke:#000000;stroke-linecap:square;stroke-width:0.8;"/>
    </g>
    <g id="text_6">
     <!-- −40 -->
     <g transform="translate(322.401193 422.801102)scale(0.1 -0.1)">
      <use xlink:href="#DejaVuSans-2212"/>
      <use x="83.789062" xlink:href="#DejaVuSans-34"/>
      <use x="147.412109" xlink:href="#DejaVuSans-30"/>
     </g>
    </g>
   </g>
   <g id="xtick_7">
    <g id="line2d_9">
     <path d="M 338.830538 382.258369 
L 343.534337 383.707601 
" style="fill:none;stroke:#000000;stroke-linecap:square;stroke-width:0.8;"/>
    </g>
    <g id="text_7">
     <!-- −20 -->
     <g transform="translate(340.828901 404.112525)scale(0.1 -0.1)">
      <use xlink:href="#DejaVuSans-2212"/>
      <use x="83.789062" xlink:href="#DejaVuSans-32"/>
      <use x="147.412109" xlink:href="#DejaVuSans-30"/>
     </g>
    </g>
   </g>
   <g id="xtick_8">
    <g id="line2d_10">
     <path d="M 356.928801 364.270454 
L 361.588172 365.68056 
" style="fill:none;stroke:#000000;stroke-linecap:square;stroke-width:0.8;"/>
    </g>
    <g id="text_8">
     <!-- 0 -->
     <g transform="translate(366.127077 385.931661)scale(0.1 -0.1)">
      <use xlink:href="#DejaVuSans-30"/>
     </g>
    </g>
   </g>
   <g id="xtick_9">
    <g id="line2d_11">
     <path d="M 374.541958 346.764688 
L 379.157577 348.137231 
" style="fill:none;stroke:#000000;stroke-linecap:square;stroke-width:0.8;"/>
    </g>
    <g id="text_9">
     <!-- 20 -->
     <g transform="translate(380.392408 368.2381)scale(0.1 -0.1)">
      <use xlink:href="#DejaVuSans-32"/>
      <use x="63.623047" xlink:href="#DejaVuSans-30"/>
     </g>
    </g>
   </g>
   <g id="xtick_10">
    <g id="line2d_12">
     <path d="M 391.689255 329.721942 
L 396.26179 331.058402 
" style="fill:none;stroke:#000000;stroke-linecap:square;stroke-width:0.8;"/>
    </g>
    <g id="text_10">
     <!-- 40 -->
     <g transform="translate(397.377553 351.012508)scale(0.1 -0.1)">
      <use xlink:href="#DejaVuSans-34"/>
      <use x="63.623047" xlink:href="#DejaVuSans-30"/>
     </g>
    </g>
   </g>
  </g>
  <g id="axis3d_3">
   <g id="line2d_13">
    <path d="M 407.663976 315.781468 
L 415.240655 132.134565 
" style="fill:none;stroke:#000000;stroke-linecap:square;stroke-width:0.8;"/>
   </g>
   <g id="Line3DCollection_3">
    <path d="M 408.575415 293.689602 
L 226.347505 242.137284 
L 113.807828 334.368114 
" style="fill:none;stroke:#b0b0b0;stroke-width:0.8;"/>
    <path d="M 410.139215 255.785531 
L 225.962894 205.298416 
L 112.138776 295.655604 
" style="fill:none;stroke:#b0b0b0;stroke-width:0.8;"/>
    <path d="M 411.737114 217.054952 
L 225.570254 167.690479 
L 110.432105 256.070541 
" style="fill:none;stroke:#b0b0b0;stroke-width:0.8;"/>
    <path d="M 413.370239 177.470533 
L 225.16933 129.289139 
L 108.686527 215.583088 
" style="fill:none;stroke:#b0b0b0;stroke-width:0.8;"/>
    <path d="M 415.039769 137.003725 
L 224.759858 90.069019 
L 106.900699 174.162033 
" style="fill:none;stroke:#b0b0b0;stroke-width:0.8;"/>
   </g>
   <g id="xtick_11">
    <g id="line2d_14">
     <path d="M 407.054651 293.259377 
L 411.620125 294.550951 
" style="fill:none;stroke:#000000;stroke-linecap:square;stroke-width:0.8;"/>
    </g>
    <g id="text_11">
     <!-- −10 -->
     <defs>
      <path d="M 12.40625 8.296875 
L 28.515625 8.296875 
L 28.515625 63.921875 
L 10.984375 60.40625 
L 10.984375 69.390625 
L 28.421875 72.90625 
L 38.28125 72.90625 
L 38.28125 8.296875 
L 54.390625 8.296875 
L 54.390625 0 
L 12.40625 0 
z
" id="DejaVuSans-31"/>
     </defs>
     <g transform="translate(414.335836 299.036845)scale(0.1 -0.1)">
      <use xlink:href="#DejaVuSans-2212"/>
      <use x="83.789062" xlink:href="#DejaVuSans-31"/>
      <use x="147.412109" xlink:href="#DejaVuSans-30"/>
     </g>
    </g>
   </g>
   <g id="xtick_12">
    <g id="line2d_15">
     <path d="M 408.601504 255.364008 
L 413.217887 256.629468 
" style="fill:none;stroke:#000000;stroke-linecap:square;stroke-width:0.8;"/>
    </g>
    <g id="text_12">
     <!-- −5 -->
     <defs>
      <path d="M 10.796875 72.90625 
L 49.515625 72.90625 
L 49.515625 64.59375 
L 19.828125 64.59375 
L 19.828125 46.734375 
Q 21.96875 47.46875 24.109375 47.828125 
Q 26.265625 48.1875 28.421875 48.1875 
Q 40.625 48.1875 47.75 41.5 
Q 54.890625 34.8125 54.890625 23.390625 
Q 54.890625 11.625 47.5625 5.09375 
Q 40.234375 -1.421875 26.90625 -1.421875 
Q 22.3125 -1.421875 17.546875 -0.640625 
Q 12.796875 0.140625 7.71875 1.703125 
L 7.71875 11.625 
Q 12.109375 9.234375 16.796875 8.0625 
Q 21.484375 6.890625 26.703125 6.890625 
Q 35.15625 6.890625 40.078125 11.328125 
Q 45.015625 15.765625 45.015625 23.390625 
Q 45.015625 31 40.078125 35.4375 
Q 35.15625 39.890625 26.703125 39.890625 
Q 22.75 39.890625 18.8125 39.015625 
Q 14.890625 38.140625 10.796875 36.28125 
z
" id="DejaVuSans-35"/>
     </defs>
     <g transform="translate(419.253616 261.178341)scale(0.1 -0.1)">
      <use xlink:href="#DejaVuSans-2212"/>
      <use x="83.789062" xlink:href="#DejaVuSans-35"/>
     </g>
    </g>
   </g>
   <g id="xtick_13">
    <g id="line2d_16">
     <path d="M 410.182075 216.642614 
L 414.850513 217.880508 
" style="fill:none;stroke:#000000;stroke-linecap:square;stroke-width:0.8;"/>
    </g>
    <g id="text_13">
     <!-- 0 -->
     <g transform="translate(425.217784 222.495859)scale(0.1 -0.1)">
      <use xlink:href="#DejaVuSans-30"/>
     </g>
    </g>
   </g>
   <g id="xtick_14">
    <g id="line2d_17">
     <path d="M 411.797479 177.06789 
L 416.519158 178.276689 
" style="fill:none;stroke:#000000;stroke-linecap:square;stroke-width:0.8;"/>
    </g>
    <g id="text_14">
     <!-- 5 -->
     <g transform="translate(427.031151 182.962203)scale(0.1 -0.1)">
      <use xlink:href="#DejaVuSans-35"/>
     </g>
    </g>
   </g>
   <g id="xtick_15">
    <g id="line2d_18">
     <path d="M 413.448878 136.611314 
L 418.225026 137.789405 
" style="fill:none;stroke:#000000;stroke-linecap:square;stroke-width:0.8;"/>
    </g>
    <g id="text_15">
     <!-- 10 -->
     <g transform="translate(425.703614 142.548966)scale(0.1 -0.1)">
      <use xlink:href="#DejaVuSans-31"/>
      <use x="63.623047" xlink:href="#DejaVuSans-30"/>
     </g>
    </g>
   </g>
  </g>
  <g id="axes_1">
   <g id="Poly3DCollection_1">
    <path clip-path="url(#pa9d3aae96d)" d="M 225.822142 236.385679 
L 234.016452 242.385198 
L 238.97788 256.750495 
L 230.848569 250.788869 
L 225.822142 236.385679 
z
" style="fill:#7b9ff9;fill-opacity:0.5;"/>
    <path clip-path="url(#pa9d3aae96d)" d="M 234.016452 242.385198 
L 242.223256 247.985149 
L 247.120022 262.317516 
L 238.97788 256.750495 
L 234.016452 242.385198 
z
" style="fill:#7093f3;fill-opacity:0.5;"/>
    <path clip-path="url(#pa9d3aae96d)" d="M 242.223256 247.985149 
L 250.445437 253.186237 
L 255.277831 267.490636 
L 247.120022 262.317516 
L 242.223256 247.985149 
z
" style="fill:#6687ed;fill-opacity:0.5;"/>
    <path clip-path="url(#pa9d3aae96d)" d="M 250.445437 253.186237 
L 258.685899 257.988894 
L 263.454166 272.27029 
L 255.277831 267.490636 
L 250.445437 253.186237 
z
" style="fill:#5d7ce6;fill-opacity:0.5;"/>
    <path clip-path="url(#pa9d3aae96d)" d="M 258.685899 257.988894 
L 266.947572 262.393277 
L 271.651911 276.656647 
L 263.454166 272.27029 
L 258.685899 257.988894 
z
" style="fill:#5572df;fill-opacity:0.5;"/>
    <path clip-path="url(#pa9d3aae96d)" d="M 266.947572 262.393277 
L 275.233419 266.399269 
L 279.87398 280.649601 
L 271.651911 276.656647 
L 266.947572 262.393277 
z
" style="fill:#4f69d9;fill-opacity:0.5;"/>
    <path clip-path="url(#pa9d3aae96d)" d="M 275.233419 266.399269 
L 283.546434 270.006471 
L 288.123323 284.248778 
L 279.87398 280.649601 
L 275.233419 266.399269 
z
" style="fill:#4b64d5;fill-opacity:0.5;"/>
    <path clip-path="url(#pa9d3aae96d)" d="M 220.733876 223.814588 
L 228.989452 229.850834 
L 234.016452 242.385198 
L 225.822142 236.385679 
L 220.733876 223.814588 
z
" style="fill:#b7cff9;fill-opacity:0.5;"/>
    <path clip-path="url(#pa9d3aae96d)" d="M 283.546434 270.006471 
L 291.88965 273.214207 
L 296.402924 287.453527 
L 288.123323 284.248778 
L 283.546434 270.006471 
z
" style="fill:#485fd1;fill-opacity:0.5;"/>
    <path clip-path="url(#pa9d3aae96d)" d="M 228.989452 229.850834 
L 237.25716 235.482907 
L 242.223256 247.985149 
L 234.016452 242.385198 
L 228.989452 229.850834 
z
" style="fill:#abc8fd;fill-opacity:0.5;"/>
    <path clip-path="url(#pa9d3aae96d)" d="M 237.25716 235.482907 
L 245.539924 240.711515 
L 250.445437 253.186237 
L 242.223256 247.985149 
L 237.25716 235.482907 
z
" style="fill:#a1c0ff;fill-opacity:0.5;"/>
    <path clip-path="url(#pa9d3aae96d)" d="M 291.88965 273.214207 
L 300.266142 276.021515 
L 304.71581 290.262919 
L 296.402924 287.453527 
L 291.88965 273.214207 
z
" style="fill:#455cce;fill-opacity:0.5;"/>
    <path clip-path="url(#pa9d3aae96d)" d="M 245.539924 240.711515 
L 253.840692 245.537088 
L 258.685899 257.988894 
L 250.445437 253.186237 
L 245.539924 240.711515 
z
" style="fill:#97b8ff;fill-opacity:0.5;"/>
    <path clip-path="url(#pa9d3aae96d)" d="M 253.840692 245.537088 
L 262.162438 249.959775 
L 266.947572 262.393277 
L 258.685899 257.988894 
L 253.840692 245.537088 
z
" style="fill:#8fb1fe;fill-opacity:0.5;"/>
    <path clip-path="url(#pa9d3aae96d)" d="M 300.266142 276.021515 
L 308.679029 278.427145 
L 313.065051 292.675746 
L 304.71581 290.262919 
L 300.266142 276.021515 
z
" style="fill:#455cce;fill-opacity:0.5;"/>
    <path clip-path="url(#pa9d3aae96d)" d="M 262.162438 249.959775 
L 270.508169 253.979443 
L 275.233419 266.399269 
L 266.947572 262.393277 
L 262.162438 249.959775 
z
" style="fill:#89acfd;fill-opacity:0.5;"/>
    <path clip-path="url(#pa9d3aae96d)" d="M 308.679029 278.427145 
L 317.13148 280.429557 
L 321.453768 294.690512 
L 313.065051 292.675746 
L 308.679029 278.427145 
z
" style="fill:#455cce;fill-opacity:0.5;"/>
    <path clip-path="url(#pa9d3aae96d)" d="M 270.508169 253.979443 
L 278.880923 257.595677 
L 283.546434 270.006471 
L 275.233419 266.399269 
L 270.508169 253.979443 
z
" style="fill:#84a7fc;fill-opacity:0.5;"/>
    <path clip-path="url(#pa9d3aae96d)" d="M 215.591189 213.142163 
L 223.90411 219.213936 
L 228.989452 229.850834 
L 220.733876 223.814588 
L 215.591189 213.142163 
z
" style="fill:#e2dad5;fill-opacity:0.5;"/>
    <path clip-path="url(#pa9d3aae96d)" d="M 223.90411 219.213936 
L 232.228772 224.877317 
L 237.25716 235.482907 
L 228.989452 229.850834 
L 223.90411 219.213936 
z
" style="fill:#d9dce1;fill-opacity:0.5;"/>
    <path clip-path="url(#pa9d3aae96d)" d="M 317.13148 280.429557 
L 325.626719 282.026915 
L 329.885132 296.305432 
L 321.453768 294.690512 
L 317.13148 280.429557 
z
" style="fill:#485fd1;fill-opacity:0.5;"/>
    <path clip-path="url(#pa9d3aae96d)" d="M 278.880923 257.595677 
L 287.283778 260.807772 
L 291.88965 273.214207 
L 283.546434 270.006471 
L 278.880923 257.595677 
z
" style="fill:#80a3fa;fill-opacity:0.5;"/>
    <path clip-path="url(#pa9d3aae96d)" d="M 232.228772 224.877317 
L 240.568139 230.133017 
L 245.539924 240.711515 
L 237.25716 235.482907 
L 232.228772 224.877317 
z
" style="fill:#d1dae9;fill-opacity:0.5;"/>
    <path clip-path="url(#pa9d3aae96d)" d="M 240.568139 230.133017 
L 248.925201 234.981462 
L 253.840692 245.537088 
L 245.539924 240.711515 
L 240.568139 230.133017 
z
" style="fill:#c9d7f0;fill-opacity:0.5;"/>
    <path clip-path="url(#pa9d3aae96d)" d="M 325.626719 282.026915 
L 334.168027 283.217079 
L 338.362374 297.518428 
L 329.885132 296.305432 
L 325.626719 282.026915 
z
" style="fill:#4a63d3;fill-opacity:0.5;"/>
    <path clip-path="url(#pa9d3aae96d)" d="M 287.283778 260.807772 
L 295.719855 263.614738 
L 300.266142 276.021515 
L 291.88965 273.214207 
L 287.283778 260.807772 
z
" style="fill:#7ea1fa;fill-opacity:0.5;"/>
    <path clip-path="url(#pa9d3aae96d)" d="M 248.925201 234.981462 
L 257.302973 239.422797 
L 262.162438 249.959775 
L 253.840692 245.537088 
L 248.925201 234.981462 
z
" style="fill:#c3d5f4;fill-opacity:0.5;"/>
    <path clip-path="url(#pa9d3aae96d)" d="M 295.719855 263.614738 
L 304.192319 266.015288 
L 308.679029 278.427145 
L 300.266142 276.021515 
L 295.719855 263.614738 
z
" style="fill:#7da0f9;fill-opacity:0.5;"/>
    <path clip-path="url(#pa9d3aae96d)" d="M 334.168027 283.217079 
L 342.758748 283.997604 
L 346.888783 298.32712 
L 338.362374 297.518428 
L 334.168027 283.217079 
z
" style="fill:#4f69d9;fill-opacity:0.5;"/>
    <path clip-path="url(#pa9d3aae96d)" d="M 257.302973 239.422797 
L 265.704502 243.456874 
L 270.508169 253.979443 
L 262.162438 249.959775 
L 257.302973 239.422797 
z
" style="fill:#bcd2f7;fill-opacity:0.5;"/>
    <path clip-path="url(#pa9d3aae96d)" d="M 210.401925 204.430358 
L 218.768086 210.536428 
L 223.90411 219.213936 
L 215.591189 213.142163 
L 210.401925 204.430358 
z
" style="fill:#f6bda2;fill-opacity:0.5;"/>
    <path clip-path="url(#pa9d3aae96d)" d="M 304.192319 266.015288 
L 312.704386 268.007838 
L 317.13148 280.429557 
L 308.679029 278.427145 
L 304.192319 266.015288 
z
" style="fill:#7da0f9;fill-opacity:0.5;"/>
    <path clip-path="url(#pa9d3aae96d)" d="M 265.704502 243.456874 
L 274.13287 247.083262 
L 278.880923 257.595677 
L 270.508169 253.979443 
L 265.704502 243.456874 
z
" style="fill:#b7cff9;fill-opacity:0.5;"/>
    <path clip-path="url(#pa9d3aae96d)" d="M 218.768086 210.536428 
L 227.145569 216.230293 
L 232.228772 224.877317 
L 223.90411 219.213936 
L 218.768086 210.536428 
z
" style="fill:#f3c7b1;fill-opacity:0.5;"/>
    <path clip-path="url(#pa9d3aae96d)" d="M 342.758748 283.997604 
L 351.402291 284.36573 
L 355.467718 298.72882 
L 346.888783 298.32712 
L 342.758748 283.997604 
z
" style="fill:#5470de;fill-opacity:0.5;"/>
    <path clip-path="url(#pa9d3aae96d)" d="M 227.145569 216.230293 
L 235.537378 221.51267 
L 240.568139 230.133017 
L 232.228772 224.877317 
L 227.145569 216.230293 
z
" style="fill:#efcebd;fill-opacity:0.5;"/>
    <path clip-path="url(#pa9d3aae96d)" d="M 274.13287 247.083262 
L 282.591196 250.301235 
L 287.283778 260.807772 
L 278.880923 257.595677 
L 274.13287 247.083262 
z
" style="fill:#b3cdfb;fill-opacity:0.5;"/>
    <path clip-path="url(#pa9d3aae96d)" d="M 312.704386 268.007838 
L 321.259328 269.590504 
L 325.626719 282.026915 
L 317.13148 280.429557 
L 312.704386 268.007838 
z
" style="fill:#80a3fa;fill-opacity:0.5;"/>
    <path clip-path="url(#pa9d3aae96d)" d="M 235.537378 221.51267 
L 243.94654 226.383983 
L 248.925201 234.981462 
L 240.568139 230.133017 
L 235.537378 221.51267 
z
" style="fill:#ead4c8;fill-opacity:0.5;"/>
    <path clip-path="url(#pa9d3aae96d)" d="M 351.402291 284.36573 
L 360.102142 284.318375 
L 364.102605 298.720528 
L 355.467718 298.72882 
L 351.402291 284.36573 
z
" style="fill:#5b7ae5;fill-opacity:0.5;"/>
    <path clip-path="url(#pa9d3aae96d)" d="M 282.591196 250.301235 
L 291.082644 253.109771 
L 295.719855 263.614738 
L 287.283778 260.807772 
L 282.591196 250.301235 
z
" style="fill:#b2ccfb;fill-opacity:0.5;"/>
    <path clip-path="url(#pa9d3aae96d)" d="M 321.259328 269.590504 
L 329.860474 270.76109 
L 334.168027 283.217079 
L 325.626719 282.026915 
L 321.259328 269.590504 
z
" style="fill:#82a6fb;fill-opacity:0.5;"/>
    <path clip-path="url(#pa9d3aae96d)" d="M 243.94654 226.383983 
L 252.376109 230.844371 
L 257.302973 239.422797 
L 248.925201 234.981462 
L 243.94654 226.383983 
z
" style="fill:#e6d7cf;fill-opacity:0.5;"/>
    <path clip-path="url(#pa9d3aae96d)" d="M 291.082644 253.109771 
L 299.610422 255.507552 
L 304.192319 266.015288 
L 295.719855 263.614738 
L 291.082644 253.109771 
z
" style="fill:#b1cbfc;fill-opacity:0.5;"/>
    <path clip-path="url(#pa9d3aae96d)" d="M 252.376109 230.844371 
L 260.82917 234.893678 
L 265.704502 243.456874 
L 257.302973 239.422797 
L 252.376109 230.844371 
z
" style="fill:#e1dad6;fill-opacity:0.5;"/>
    <path clip-path="url(#pa9d3aae96d)" d="M 360.102142 284.318375 
L 368.861859 283.85213 
L 372.796948 298.298922 
L 364.102605 298.720528 
L 360.102142 284.318375 
z
" style="fill:#6384eb;fill-opacity:0.5;"/>
    <path clip-path="url(#pa9d3aae96d)" d="M 205.174326 197.735975 
L 213.589447 203.875076 
L 218.768086 210.536428 
L 210.401925 204.430358 
L 205.174326 197.735975 
z
" style="fill:#f39577;fill-opacity:0.5;"/>
    <path clip-path="url(#pa9d3aae96d)" d="M 329.860474 270.76109 
L 338.511218 271.51709 
L 342.758748 283.997604 
L 334.168027 283.217079 
L 329.860474 270.76109 
z
" style="fill:#88abfd;fill-opacity:0.5;"/>
    <path clip-path="url(#pa9d3aae96d)" d="M 213.589447 203.875076 
L 222.015446 209.598592 
L 227.145569 216.230293 
L 218.768086 210.536428 
L 213.589447 203.875076 
z
" style="fill:#f6a385;fill-opacity:0.5;"/>
    <path clip-path="url(#pa9d3aae96d)" d="M 260.82917 234.893678 
L 269.308844 238.531454 
L 274.13287 247.083262 
L 265.704502 243.456874 
L 260.82917 234.893678 
z
" style="fill:#dddcdc;fill-opacity:0.5;"/>
    <path clip-path="url(#pa9d3aae96d)" d="M 299.610422 255.507552 
L 308.17779 257.492955 
L 312.704386 268.007838 
L 304.192319 266.015288 
L 299.610422 255.507552 
z
" style="fill:#b2ccfb;fill-opacity:0.5;"/>
    <path clip-path="url(#pa9d3aae96d)" d="M 222.015446 209.598592 
L 230.455363 214.907241 
L 235.537378 221.51267 
L 227.145569 216.230293 
L 222.015446 209.598592 
z
" style="fill:#f7af91;fill-opacity:0.5;"/>
    <path clip-path="url(#pa9d3aae96d)" d="M 368.861859 283.85213 
L 377.685087 282.963248 
L 381.554332 297.46035 
L 372.796948 298.298922 
L 368.861859 283.85213 
z
" style="fill:#6e90f2;fill-opacity:0.5;"/>
    <path clip-path="url(#pa9d3aae96d)" d="M 269.308844 238.531454 
L 277.81829 241.756954 
L 282.591196 250.301235 
L 274.13287 247.083262 
L 269.308844 238.531454 
z
" style="fill:#dadce0;fill-opacity:0.5;"/>
    <path clip-path="url(#pa9d3aae96d)" d="M 338.511218 271.51709 
L 347.215022 271.855675 
L 351.402291 284.36573 
L 342.758748 283.997604 
L 338.511218 271.51709 
z
" style="fill:#8db0fe;fill-opacity:0.5;"/>
    <path clip-path="url(#pa9d3aae96d)" d="M 230.455363 214.907241 
L 238.912259 219.80145 
L 243.94654 226.383983 
L 235.537378 221.51267 
L 230.455363 214.907241 
z
" style="fill:#f7b89c;fill-opacity:0.5;"/>
    <path clip-path="url(#pa9d3aae96d)" d="M 308.17779 257.492955 
L 316.788065 259.064048 
L 321.259328 269.590504 
L 312.704386 268.007838 
L 308.17779 257.492955 
z
" style="fill:#b3cdfb;fill-opacity:0.5;"/>
    <path clip-path="url(#pa9d3aae96d)" d="M 277.81829 241.756954 
L 286.36071 244.569133 
L 291.082644 253.109771 
L 282.591196 250.301235 
L 277.81829 241.756954 
z
" style="fill:#d9dce1;fill-opacity:0.5;"/>
    <path clip-path="url(#pa9d3aae96d)" d="M 238.912259 219.80145 
L 247.389224 224.281353 
L 252.376109 230.844371 
L 243.94654 226.383983 
L 238.912259 219.80145 
z
" style="fill:#f6bfa6;fill-opacity:0.5;"/>
    <path clip-path="url(#pa9d3aae96d)" d="M 347.215022 271.855675 
L 355.975421 271.773688 
L 360.102142 284.318375 
L 351.402291 284.36573 
L 347.215022 271.855675 
z
" style="fill:#96b7ff;fill-opacity:0.5;"/>
    <path clip-path="url(#pa9d3aae96d)" d="M 377.685087 282.963248 
L 386.575556 281.647632 
L 390.378427 296.200822 
L 381.554332 297.46035 
L 377.685087 282.963248 
z
" style="fill:#7a9df8;fill-opacity:0.5;"/>
    <path clip-path="url(#pa9d3aae96d)" d="M 316.788065 259.064048 
L 325.444621 260.218588 
L 329.860474 270.76109 
L 321.259328 269.590504 
L 316.788065 259.064048 
z
" style="fill:#b7cff9;fill-opacity:0.5;"/>
    <path clip-path="url(#pa9d3aae96d)" d="M 199.91699 193.110139 
L 208.376629 199.280972 
L 213.589447 203.875076 
L 205.174326 197.735975 
L 199.91699 193.110139 
z
" style="fill:#e46e56;fill-opacity:0.5;"/>
    <path clip-path="url(#pa9d3aae96d)" d="M 247.389224 224.281353 
L 255.889379 228.346784 
L 260.82917 234.893678 
L 252.376109 230.844371 
L 247.389224 224.281353 
z
" style="fill:#f5c4ac;fill-opacity:0.5;"/>
    <path clip-path="url(#pa9d3aae96d)" d="M 286.36071 244.569133 
L 294.939354 246.966642 
L 299.610422 255.507552 
L 291.082644 253.109771 
L 286.36071 244.569133 
z
" style="fill:#d8dce2;fill-opacity:0.5;"/>
    <path clip-path="url(#pa9d3aae96d)" d="M 208.376629 199.280972 
L 216.846678 205.033288 
L 222.015446 209.598592 
L 213.589447 203.875076 
L 208.376629 199.280972 
z
" style="fill:#ec7f63;fill-opacity:0.5;"/>
    <path clip-path="url(#pa9d3aae96d)" d="M 255.889379 228.346784 
L 264.41588 231.997284 
L 269.308844 238.531454 
L 260.82917 234.893678 
L 255.889379 228.346784 
z
" style="fill:#f3c8b2;fill-opacity:0.5;"/>
    <path clip-path="url(#pa9d3aae96d)" d="M 325.444621 260.218588 
L 334.150899 260.954009 
L 338.511218 271.51709 
L 329.860474 270.76109 
L 325.444621 260.218588 
z
" style="fill:#bbd1f8;fill-opacity:0.5;"/>
    <path clip-path="url(#pa9d3aae96d)" d="M 216.846678 205.033288 
L 225.330208 210.367812 
L 230.455363 214.907241 
L 222.015446 209.598592 
L 216.846678 205.033288 
z
" style="fill:#f08b6e;fill-opacity:0.5;"/>
    <path clip-path="url(#pa9d3aae96d)" d="M 355.975421 271.773688 
L 364.796029 271.267636 
L 368.861859 283.85213 
L 360.102142 284.318375 
L 355.975421 271.773688 
z
" style="fill:#9fbfff;fill-opacity:0.5;"/>
    <path clip-path="url(#pa9d3aae96d)" d="M 294.939354 246.966642 
L 303.557522 248.94782 
L 308.17779 257.492955 
L 299.610422 255.507552 
L 294.939354 246.966642 
z
" style="fill:#d9dce1;fill-opacity:0.5;"/>
    <path clip-path="url(#pa9d3aae96d)" d="M 264.41588 231.997284 
L 272.971922 235.232087 
L 277.81829 241.756954 
L 269.308844 238.531454 
L 264.41588 231.997284 
z
" style="fill:#f2cbb7;fill-opacity:0.5;"/>
    <path clip-path="url(#pa9d3aae96d)" d="M 225.330208 210.367812 
L 233.830312 215.284971 
L 238.912259 219.80145 
L 230.455363 214.907241 
L 225.330208 210.367812 
z
" style="fill:#f39778;fill-opacity:0.5;"/>
    <path clip-path="url(#pa9d3aae96d)" d="M 334.150899 260.954009 
L 342.910408 261.26742 
L 347.215022 271.855675 
L 338.511218 271.51709 
L 334.150899 260.954009 
z
" style="fill:#c1d4f4;fill-opacity:0.5;"/>
    <path clip-path="url(#pa9d3aae96d)" d="M 303.557522 248.94782 
L 312.218572 250.510699 
L 316.788065 259.064048 
L 308.17779 257.492955 
L 303.557522 248.94782 
z
" style="fill:#dadce0;fill-opacity:0.5;"/>
    <path clip-path="url(#pa9d3aae96d)" d="M 233.830312 215.284971 
L 242.350113 219.784897 
L 247.389224 224.281353 
L 238.912259 219.80145 
L 233.830312 215.284971 
z
" style="fill:#f5a081;fill-opacity:0.5;"/>
    <path clip-path="url(#pa9d3aae96d)" d="M 364.796029 271.267636 
L 373.680545 270.333683 
L 377.685087 282.963248 
L 368.861859 283.85213 
L 364.796029 271.267636 
z
" style="fill:#a9c6fd;fill-opacity:0.5;"/>
    <path clip-path="url(#pa9d3aae96d)" d="M 272.971922 235.232087 
L 281.560744 238.050128 
L 286.36071 244.569133 
L 277.81829 241.756954 
L 272.971922 235.232087 
z
" style="fill:#f1ccb8;fill-opacity:0.5;"/>
    <path clip-path="url(#pa9d3aae96d)" d="M 194.638838 190.597813 
L 203.138404 196.79904 
L 208.376629 199.280972 
L 199.91699 193.110139 
L 194.638838 190.597813 
z
" style="fill:#d1493f;fill-opacity:0.5;"/>
    <path clip-path="url(#pa9d3aae96d)" d="M 242.350113 219.784897 
L 250.892764 223.867418 
L 255.889379 228.346784 
L 247.389224 224.281353 
L 242.350113 219.784897 
z
" style="fill:#f7a889;fill-opacity:0.5;"/>
    <path clip-path="url(#pa9d3aae96d)" d="M 203.138404 196.79904 
L 211.647886 202.579288 
L 216.846678 205.033288 
L 208.376629 199.280972 
L 203.138404 196.79904 
z
" style="fill:#dc5d4a;fill-opacity:0.5;"/>
    <path clip-path="url(#pa9d3aae96d)" d="M 312.218572 250.510699 
L 320.925921 251.652985 
L 325.444621 260.218588 
L 316.788065 259.064048 
L 312.218572 250.510699 
z
" style="fill:#dcdddd;fill-opacity:0.5;"/>
    <path clip-path="url(#pa9d3aae96d)" d="M 281.560744 238.050128 
L 290.185632 240.45003 
L 294.939354 246.966642 
L 286.36071 244.569133 
L 281.560744 238.050128 
z
" style="fill:#f1cdba;fill-opacity:0.5;"/>
    <path clip-path="url(#pa9d3aae96d)" d="M 342.910408 261.26742 
L 351.726734 261.155594 
L 355.975421 271.773688 
L 347.215022 271.855675 
L 342.910408 261.26742 
z
" style="fill:#c7d7f0;fill-opacity:0.5;"/>
    <path clip-path="url(#pa9d3aae96d)" d="M 211.647886 202.579288 
L 220.170386 207.939287 
L 225.330208 210.367812 
L 216.846678 205.033288 
L 211.647886 202.579288 
z
" style="fill:#e36c55;fill-opacity:0.5;"/>
    <path clip-path="url(#pa9d3aae96d)" d="M 250.892764 223.867418 
L 259.461453 227.532063 
L 264.41588 231.997284 
L 255.889379 228.346784 
L 250.892764 223.867418 
z
" style="fill:#f7ac8e;fill-opacity:0.5;"/>
    <path clip-path="url(#pa9d3aae96d)" d="M 373.680545 270.333683 
L 382.632757 268.967635 
L 386.575556 281.647632 
L 377.685087 282.963248 
L 373.680545 270.333683 
z
" style="fill:#b5cdfa;fill-opacity:0.5;"/>
    <path clip-path="url(#pa9d3aae96d)" d="M 220.170386 207.939287 
L 228.709025 212.879469 
L 233.830312 215.284971 
L 225.330208 210.367812 
L 220.170386 207.939287 
z
" style="fill:#e97a5f;fill-opacity:0.5;"/>
    <path clip-path="url(#pa9d3aae96d)" d="M 290.185632 240.45003 
L 298.849925 242.430104 
L 303.557522 248.94782 
L 294.939354 246.966642 
L 290.185632 240.45003 
z
" style="fill:#f1cdba;fill-opacity:0.5;"/>
    <path clip-path="url(#pa9d3aae96d)" d="M 320.925921 251.652985 
L 329.683052 252.372063 
L 334.150899 260.954009 
L 325.444621 260.218588 
L 320.925921 251.652985 
z
" style="fill:#e0dbd8;fill-opacity:0.5;"/>
    <path clip-path="url(#pa9d3aae96d)" d="M 259.461453 227.532063 
L 268.059409 230.778056 
L 272.971922 235.232087 
L 264.41588 231.997284 
L 259.461453 227.532063 
z
" style="fill:#f7b093;fill-opacity:0.5;"/>
    <path clip-path="url(#pa9d3aae96d)" d="M 351.726734 261.155594 
L 360.603539 260.614961 
L 364.796029 271.267636 
L 355.975421 271.773688 
L 351.726734 261.155594 
z
" style="fill:#cfdaea;fill-opacity:0.5;"/>
    <path clip-path="url(#pa9d3aae96d)" d="M 228.709025 212.879469 
L 237.266955 217.399963 
L 242.350113 219.784897 
L 233.830312 215.284971 
L 228.709025 212.879469 
z
" style="fill:#ed8366;fill-opacity:0.5;"/>
    <path clip-path="url(#pa9d3aae96d)" d="M 189.349067 190.237339 
L 197.88383 196.467583 
L 203.138404 196.79904 
L 194.638838 190.597813 
L 189.349067 190.237339 
z
" style="fill:#c12b30;fill-opacity:0.5;"/>
    <path clip-path="url(#pa9d3aae96d)" d="M 268.059409 230.778056 
L 276.689903 233.604309 
L 281.560744 238.050128 
L 272.971922 235.232087 
L 268.059409 230.778056 
z
" style="fill:#f7b396;fill-opacity:0.5;"/>
    <path clip-path="url(#pa9d3aae96d)" d="M 298.849925 242.430104 
L 307.557017 243.988342 
L 312.218572 250.510699 
L 303.557522 248.94782 
L 298.849925 242.430104 
z
" style="fill:#f2cbb7;fill-opacity:0.5;"/>
    <path clip-path="url(#pa9d3aae96d)" d="M 197.88383 196.467583 
L 206.427995 202.27487 
L 211.647886 202.579288 
L 203.138404 196.79904 
L 197.88383 196.467583 
z
" style="fill:#cd423b;fill-opacity:0.5;"/>
    <path clip-path="url(#pa9d3aae96d)" d="M 237.266955 217.399963 
L 245.847358 221.500595 
L 250.892764 223.867418 
L 242.350113 219.784897 
L 237.266955 217.399963 
z
" style="fill:#f08b6e;fill-opacity:0.5;"/>
    <path clip-path="url(#pa9d3aae96d)" d="M 329.683052 252.372063 
L 338.49352 252.664983 
L 342.910408 261.26742 
L 334.150899 260.954009 
L 329.683052 252.372063 
z
" style="fill:#e5d8d1;fill-opacity:0.5;"/>
    <path clip-path="url(#pa9d3aae96d)" d="M 206.427995 202.27487 
L 214.984686 207.65994 
L 220.170386 207.939287 
L 211.647886 202.579288 
L 206.427995 202.27487 
z
" style="fill:#d65244;fill-opacity:0.5;"/>
    <path clip-path="url(#pa9d3aae96d)" d="M 360.603539 260.614961 
L 369.544574 259.641601 
L 373.680545 270.333683 
L 364.796029 271.267636 
L 360.603539 260.614961 
z
" style="fill:#d7dce3;fill-opacity:0.5;"/>
    <path clip-path="url(#pa9d3aae96d)" d="M 276.689903 233.604309 
L 285.356254 236.009425 
L 290.185632 240.45003 
L 281.560744 238.050128 
L 276.689903 233.604309 
z
" style="fill:#f7b396;fill-opacity:0.5;"/>
    <path clip-path="url(#pa9d3aae96d)" d="M 245.847358 221.500595 
L 254.453451 225.180886 
L 259.461453 227.532063 
L 250.892764 223.867418 
L 245.847358 221.500595 
z
" style="fill:#f29274;fill-opacity:0.5;"/>
    <path clip-path="url(#pa9d3aae96d)" d="M 307.557017 243.988342 
L 316.310365 245.122411 
L 320.925921 251.652985 
L 312.218572 250.510699 
L 307.557017 243.988342 
z
" style="fill:#f2c9b4;fill-opacity:0.5;"/>
    <path clip-path="url(#pa9d3aae96d)" d="M 214.984686 207.65994 
L 223.557054 212.623227 
L 228.709025 212.879469 
L 220.170386 207.939287 
L 214.984686 207.65994 
z
" style="fill:#de614d;fill-opacity:0.5;"/>
    <path clip-path="url(#pa9d3aae96d)" d="M 338.49352 252.664983 
L 347.360954 252.528455 
L 351.726734 261.155594 
L 342.910408 261.26742 
L 338.49352 252.664983 
z
" style="fill:#ead5c9;fill-opacity:0.5;"/>
    <path clip-path="url(#pa9d3aae96d)" d="M 184.057101 192.060033 
L 192.62221 198.317873 
L 197.88383 196.467583 
L 189.349067 190.237339 
L 184.057101 192.060033 
z
" style="fill:#b70d28;fill-opacity:0.5;"/>
    <path clip-path="url(#pa9d3aae96d)" d="M 254.453451 225.180886 
L 263.088492 228.440047 
L 268.059409 230.778056 
L 259.461453 227.532063 
L 254.453451 225.180886 
z
" style="fill:#f39778;fill-opacity:0.5;"/>
    <path clip-path="url(#pa9d3aae96d)" d="M 223.557054 212.623227 
L 232.148273 217.164862 
L 237.266955 217.399963 
L 228.709025 212.879469 
L 223.557054 212.623227 
z
" style="fill:#e36c55;fill-opacity:0.5;"/>
    <path clip-path="url(#pa9d3aae96d)" d="M 285.356254 236.009425 
L 294.061835 237.991688 
L 298.849925 242.430104 
L 290.185632 240.45003 
L 285.356254 236.009425 
z
" style="fill:#f7b396;fill-opacity:0.5;"/>
    <path clip-path="url(#pa9d3aae96d)" d="M 192.62221 198.317873 
L 201.196184 204.151281 
L 206.427995 202.27487 
L 197.88383 196.467583 
L 192.62221 198.317873 
z
" style="fill:#c32e31;fill-opacity:0.5;"/>
    <path clip-path="url(#pa9d3aae96d)" d="M 369.544574 259.641601 
L 378.553679 258.23123 
L 382.632757 268.967635 
L 373.680545 270.333683 
L 369.544574 259.641601 
z
" style="fill:#e0dbd8;fill-opacity:0.5;"/>
    <path clip-path="url(#pa9d3aae96d)" d="M 316.310365 245.122411 
L 325.113491 245.82965 
L 329.683052 252.372063 
L 320.925921 251.652985 
L 316.310365 245.122411 
z
" style="fill:#f4c5ad;fill-opacity:0.5;"/>
    <path clip-path="url(#pa9d3aae96d)" d="M 232.148273 217.164862 
L 240.761552 221.284669 
L 245.847358 221.500595 
L 237.266955 217.399963 
L 232.148273 217.164862 
z
" style="fill:#e8765c;fill-opacity:0.5;"/>
    <path clip-path="url(#pa9d3aae96d)" d="M 263.088492 228.440047 
L 271.75578 231.276978 
L 276.689903 233.604309 
L 268.059409 230.778056 
L 263.088492 228.440047 
z
" style="fill:#f4987a;fill-opacity:0.5;"/>
    <path clip-path="url(#pa9d3aae96d)" d="M 201.196184 204.151281 
L 209.782171 209.561002 
L 214.984686 207.65994 
L 206.427995 202.27487 
L 201.196184 204.151281 
z
" style="fill:#cd423b;fill-opacity:0.5;"/>
    <path clip-path="url(#pa9d3aae96d)" d="M 347.360954 252.528455 
L 356.289063 251.95884 
L 360.603539 260.614961 
L 351.726734 261.155594 
L 347.360954 252.528455 
z
" style="fill:#efcfbf;fill-opacity:0.5;"/>
    <path clip-path="url(#pa9d3aae96d)" d="M 294.061835 237.991688 
L 302.810074 239.549059 
L 307.557017 243.988342 
L 298.849925 242.430104 
L 294.061835 237.991688 
z
" style="fill:#f7b093;fill-opacity:0.5;"/>
    <path clip-path="url(#pa9d3aae96d)" d="M 209.782171 209.561002 
L 218.383342 214.547478 
L 223.557054 212.623227 
L 214.984686 207.65994 
L 209.782171 209.561002 
z
" style="fill:#d65244;fill-opacity:0.5;"/>
    <path clip-path="url(#pa9d3aae96d)" d="M 240.761552 221.284669 
L 249.400133 224.982165 
L 254.453451 225.180886 
L 245.847358 221.500595 
L 240.761552 221.284669 
z
" style="fill:#ea7b60;fill-opacity:0.5;"/>
    <path clip-path="url(#pa9d3aae96d)" d="M 178.77254 196.089825 
L 187.363038 202.373797 
L 192.62221 198.317873 
L 184.057101 192.060033 
L 178.77254 196.089825 
z
" style="fill:#b40426;fill-opacity:0.5;"/>
    <path clip-path="url(#pa9d3aae96d)" d="M 325.113491 245.82965 
L 333.969989 246.107058 
L 338.49352 252.664983 
L 329.683052 252.372063 
L 325.113491 245.82965 
z
" style="fill:#f5c0a7;fill-opacity:0.5;"/>
    <path clip-path="url(#pa9d3aae96d)" d="M 271.75578 231.276978 
L 280.458667 233.690263 
L 285.356254 236.009425 
L 276.689903 233.604309 
L 271.75578 231.276978 
z
" style="fill:#f49a7b;fill-opacity:0.5;"/>
    <path clip-path="url(#pa9d3aae96d)" d="M 218.383342 214.547478 
L 227.002894 219.11084 
L 232.148273 217.164862 
L 223.557054 212.623227 
L 218.383342 214.547478 
z
" style="fill:#dd5f4b;fill-opacity:0.5;"/>
    <path clip-path="url(#pa9d3aae96d)" d="M 187.363038 202.373797 
L 195.961844 208.232371 
L 201.196184 204.151281 
L 192.62221 198.317873 
L 187.363038 202.373797 
z
" style="fill:#c0282f;fill-opacity:0.5;"/>
    <path clip-path="url(#pa9d3aae96d)" d="M 302.810074 239.549059 
L 311.604463 240.67917 
L 316.310365 245.122411 
L 307.557017 243.988342 
L 302.810074 239.549059 
z
" style="fill:#f7ad90;fill-opacity:0.5;"/>
    <path clip-path="url(#pa9d3aae96d)" d="M 249.400133 224.982165 
L 258.067299 228.256552 
L 263.088492 228.440047 
L 254.453451 225.180886 
L 249.400133 224.982165 
z
" style="fill:#ec8165;fill-opacity:0.5;"/>
    <path clip-path="url(#pa9d3aae96d)" d="M 356.289063 251.95884 
L 365.281647 250.952139 
L 369.544574 259.641601 
L 360.603539 260.614961 
L 356.289063 251.95884 
z
" style="fill:#f2c9b4;fill-opacity:0.5;"/>
    <path clip-path="url(#pa9d3aae96d)" d="M 195.961844 208.232371 
L 204.572127 213.666304 
L 209.782171 209.561002 
L 201.196184 204.151281 
L 195.961844 208.232371 
z
" style="fill:#cb3e38;fill-opacity:0.5;"/>
    <path clip-path="url(#pa9d3aae96d)" d="M 280.458667 233.690263 
L 289.200553 235.678164 
L 294.061835 237.991688 
L 285.356254 236.009425 
L 280.458667 233.690263 
z
" style="fill:#f4987a;fill-opacity:0.5;"/>
    <path clip-path="url(#pa9d3aae96d)" d="M 227.002894 219.11084 
L 235.644057 223.250916 
L 240.761552 221.284669 
L 232.148273 217.164862 
L 227.002894 219.11084 
z
" style="fill:#e26952;fill-opacity:0.5;"/>
    <path clip-path="url(#pa9d3aae96d)" d="M 333.969989 246.107058 
L 342.883531 245.951286 
L 347.360954 252.528455 
L 338.49352 252.664983 
L 333.969989 246.107058 
z
" style="fill:#f7b99e;fill-opacity:0.5;"/>
    <path clip-path="url(#pa9d3aae96d)" d="M 173.505108 202.34296 
L 182.115945 208.651551 
L 187.363038 202.373797 
L 178.77254 196.089825 
L 173.505108 202.34296 
z
" style="fill:#b8122a;fill-opacity:0.5;"/>
    <path clip-path="url(#pa9d3aae96d)" d="M 258.067299 228.256552 
L 266.766376 231.106722 
L 271.75578 231.276978 
L 263.088492 228.440047 
L 258.067299 228.256552 
z
" style="fill:#ee8468;fill-opacity:0.5;"/>
    <path clip-path="url(#pa9d3aae96d)" d="M 204.572127 213.666304 
L 213.197073 218.67604 
L 218.383342 214.547478 
L 209.782171 209.561002 
L 204.572127 213.666304 
z
" style="fill:#d44e41;fill-opacity:0.5;"/>
    <path clip-path="url(#pa9d3aae96d)" d="M 311.604463 240.67917 
L 320.448561 241.379319 
L 325.113491 245.82965 
L 316.310365 245.122411 
L 311.604463 240.67917 
z
" style="fill:#f7a889;fill-opacity:0.5;"/>
    <path clip-path="url(#pa9d3aae96d)" d="M 235.644057 223.250916 
L 244.310095 226.967219 
L 249.400133 224.982165 
L 240.761552 221.284669 
L 235.644057 223.250916 
z
" style="fill:#e46e56;fill-opacity:0.5;"/>
    <path clip-path="url(#pa9d3aae96d)" d="M 182.115945 208.651551 
L 190.734519 214.534301 
L 195.961844 208.232371 
L 187.363038 202.373797 
L 182.115945 208.651551 
z
" style="fill:#c43032;fill-opacity:0.5;"/>
    <path clip-path="url(#pa9d3aae96d)" d="M 289.200553 235.678164 
L 297.984898 237.238616 
L 302.810074 239.549059 
L 294.061835 237.991688 
L 289.200553 235.678164 
z
" style="fill:#f39778;fill-opacity:0.5;"/>
    <path clip-path="url(#pa9d3aae96d)" d="M 213.197073 218.67604 
L 221.839901 223.261721 
L 227.002894 219.11084 
L 218.383342 214.547478 
L 213.197073 218.67604 
z
" style="fill:#da5a49;fill-opacity:0.5;"/>
    <path clip-path="url(#pa9d3aae96d)" d="M 365.281647 250.952139 
L 374.342593 249.503987 
L 378.553679 258.23123 
L 369.544574 259.641601 
L 365.281647 250.952139 
z
" style="fill:#f6bfa6;fill-opacity:0.5;"/>
    <path clip-path="url(#pa9d3aae96d)" d="M 266.766376 231.106722 
L 275.50074 233.531243 
L 280.458667 233.690263 
L 271.75578 231.276978 
L 266.766376 231.106722 
z
" style="fill:#ee8468;fill-opacity:0.5;"/>
    <path clip-path="url(#pa9d3aae96d)" d="M 190.734519 214.534301 
L 199.364009 219.991974 
L 204.572127 213.666304 
L 195.961844 208.232371 
L 190.734519 214.534301 
z
" style="fill:#cf453c;fill-opacity:0.5;"/>
    <path clip-path="url(#pa9d3aae96d)" d="M 342.883531 245.951286 
L 351.857868 245.358634 
L 356.289063 251.95884 
L 347.360954 252.528455 
L 342.883531 245.951286 
z
" style="fill:#f7b093;fill-opacity:0.5;"/>
    <path clip-path="url(#pa9d3aae96d)" d="M 168.26459 210.827764 
L 176.890646 217.159412 
L 182.115945 208.651551 
L 173.505108 202.34296 
L 168.26459 210.827764 
z
" style="fill:#c43032;fill-opacity:0.5;"/>
    <path clip-path="url(#pa9d3aae96d)" d="M 244.310095 226.967219 
L 253.004312 230.258951 
L 258.067299 228.256552 
L 249.400133 224.982165 
L 244.310095 226.967219 
z
" style="fill:#e7745b;fill-opacity:0.5;"/>
    <path clip-path="url(#pa9d3aae96d)" d="M 221.839901 223.261721 
L 230.503856 227.423173 
L 235.644057 223.250916 
L 227.002894 219.11084 
L 221.839901 223.261721 
z
" style="fill:#e0654f;fill-opacity:0.5;"/>
    <path clip-path="url(#pa9d3aae96d)" d="M 320.448561 241.379319 
L 329.345996 241.64646 
L 333.969989 246.107058 
L 325.113491 245.82965 
L 320.448561 241.379319 
z
" style="fill:#f6a283;fill-opacity:0.5;"/>
    <path clip-path="url(#pa9d3aae96d)" d="M 199.364009 219.991974 
L 208.00762 225.025026 
L 213.197073 218.67604 
L 204.572127 213.666304 
L 199.364009 219.991974 
z
" style="fill:#d75445;fill-opacity:0.5;"/>
    <path clip-path="url(#pa9d3aae96d)" d="M 176.890646 217.159412 
L 185.52385 223.065301 
L 190.734519 214.534301 
L 182.115945 208.651551 
L 176.890646 217.159412 
z
" style="fill:#d0473d;fill-opacity:0.5;"/>
    <path clip-path="url(#pa9d3aae96d)" d="M 133.142797 331.69985 
L 141.729774 338.144408 
L 146.536002 314.476645 
L 137.927918 308.042606 
L 133.142797 331.69985 
z
" style="fill:#6f92f3;fill-opacity:0.5;"/>
    <path clip-path="url(#pa9d3aae96d)" d="M 297.984898 237.238616 
L 306.815224 238.369223 
L 311.604463 240.67917 
L 302.810074 239.549059 
L 297.984898 237.238616 
z
" style="fill:#f29274;fill-opacity:0.5;"/>
    <path clip-path="url(#pa9d3aae96d)" d="M 275.50074 233.531243 
L 284.273818 235.528361 
L 289.200553 235.678164 
L 280.458667 233.690263 
L 275.50074 233.531243 
z
" style="fill:#ee8468;fill-opacity:0.5;"/>
    <path clip-path="url(#pa9d3aae96d)" d="M 253.004312 230.258951 
L 261.730057 233.124992 
L 266.766376 231.106722 
L 258.067299 228.256552 
L 253.004312 230.258951 
z
" style="fill:#e9785d;fill-opacity:0.5;"/>
    <path clip-path="url(#pa9d3aae96d)" d="M 163.060779 221.544472 
L 171.696879 227.89756 
L 176.890646 217.159412 
L 168.26459 210.827764 
L 163.060779 221.544472 
z
" style="fill:#d55042;fill-opacity:0.5;"/>
    <path clip-path="url(#pa9d3aae96d)" d="M 230.503856 227.423173 
L 239.192221 231.159914 
L 244.310095 226.967219 
L 235.644057 223.250916 
L 230.503856 227.423173 
z
" style="fill:#e36b54;fill-opacity:0.5;"/>
    <path clip-path="url(#pa9d3aae96d)" d="M 141.729774 338.144408 
L 150.319519 344.178468 
L 155.147492 320.496482 
L 146.536002 314.476645 
L 141.729774 338.144408 
z
" style="fill:#6384eb;fill-opacity:0.5;"/>
    <path clip-path="url(#pa9d3aae96d)" d="M 185.52385 223.065301 
L 194.167393 228.546207 
L 199.364009 219.991974 
L 190.734519 214.534301 
L 185.52385 223.065301 
z
" style="fill:#d95847;fill-opacity:0.5;"/>
    <path clip-path="url(#pa9d3aae96d)" d="M 208.00762 225.025026 
L 216.668582 229.633602 
L 221.839901 223.261721 
L 213.197073 218.67604 
L 208.00762 225.025026 
z
" style="fill:#de614d;fill-opacity:0.5;"/>
    <path clip-path="url(#pa9d3aae96d)" d="M 137.927918 308.042606 
L 146.536002 314.476645 
L 151.429376 292.870135 
L 142.805294 286.448586 
L 137.927918 308.042606 
z
" style="fill:#abc8fd;fill-opacity:0.5;"/>
    <path clip-path="url(#pa9d3aae96d)" d="M 351.857868 245.358634 
L 360.896841 244.325034 
L 365.281647 250.952139 
L 356.289063 251.95884 
L 351.857868 245.358634 
z
" style="fill:#f7a688;fill-opacity:0.5;"/>
    <path clip-path="url(#pa9d3aae96d)" d="M 171.696879 227.89756 
L 180.339525 233.825504 
L 185.52385 223.065301 
L 176.890646 217.159412 
L 171.696879 227.89756 
z
" style="fill:#df634e;fill-opacity:0.5;"/>
    <path clip-path="url(#pa9d3aae96d)" d="M 150.319519 344.178468 
L 158.915193 349.802903 
L 163.765563 326.102971 
L 155.147492 320.496482 
L 150.319519 344.178468 
z
" style="fill:#5977e3;fill-opacity:0.5;"/>
    <path clip-path="url(#pa9d3aae96d)" d="M 329.345996 241.64646 
L 338.300478 241.477196 
L 342.883531 245.951286 
L 333.969989 246.107058 
L 329.345996 241.64646 
z
" style="fill:#f4987a;fill-opacity:0.5;"/>
    <path clip-path="url(#pa9d3aae96d)" d="M 157.903412 234.485133 
L 166.544345 240.857991 
L 171.696879 227.89756 
L 163.060779 221.544472 
L 157.903412 234.485133 
z
" style="fill:#e8765c;fill-opacity:0.5;"/>
    <path clip-path="url(#pa9d3aae96d)" d="M 194.167393 228.546207 
L 202.824489 233.602594 
L 208.00762 225.025026 
L 199.364009 219.991974 
L 194.167393 228.546207 
z
" style="fill:#e0654f;fill-opacity:0.5;"/>
    <path clip-path="url(#pa9d3aae96d)" d="M 306.815224 238.369223 
L 315.695121 239.067249 
L 320.448561 241.379319 
L 311.604463 240.67917 
L 306.815224 238.369223 
z
" style="fill:#f18d6f;fill-opacity:0.5;"/>
    <path clip-path="url(#pa9d3aae96d)" d="M 216.668582 229.633602 
L 225.350156 233.817537 
L 230.503856 227.423173 
L 221.839901 223.261721 
L 216.668582 229.633602 
z
" style="fill:#e36b54;fill-opacity:0.5;"/>
    <path clip-path="url(#pa9d3aae96d)" d="M 146.536002 314.476645 
L 155.147492 320.496482 
L 160.0575 298.874265 
L 151.429376 292.870135 
L 146.536002 314.476645 
z
" style="fill:#a1c0ff;fill-opacity:0.5;"/>
    <path clip-path="url(#pa9d3aae96d)" d="M 284.273818 235.528361 
L 293.089096 237.095993 
L 297.984898 237.238616 
L 289.200553 235.678164 
L 284.273818 235.528361 
z
" style="fill:#ed8366;fill-opacity:0.5;"/>
    <path clip-path="url(#pa9d3aae96d)" d="M 142.805294 286.448586 
L 151.429376 292.870135 
L 156.401248 273.37267 
L 147.766336 266.965522 
L 142.805294 286.448586 
z
" style="fill:#dbdcde;fill-opacity:0.5;"/>
    <path clip-path="url(#pa9d3aae96d)" d="M 239.192221 231.159914 
L 247.908318 234.471144 
L 253.004312 230.258951 
L 244.310095 226.967219 
L 239.192221 231.159914 
z
" style="fill:#e57058;fill-opacity:0.5;"/>
    <path clip-path="url(#pa9d3aae96d)" d="M 261.730057 233.124992 
L 270.490726 235.563906 
L 275.50074 233.531243 
L 266.766376 231.106722 
L 261.730057 233.124992 
z
" style="fill:#e9785d;fill-opacity:0.5;"/>
    <path clip-path="url(#pa9d3aae96d)" d="M 152.802115 249.633589 
L 161.442651 256.024486 
L 166.544345 240.857991 
L 157.903412 234.485133 
L 152.802115 249.633589 
z
" style="fill:#f59d7e;fill-opacity:0.5;"/>
    <path clip-path="url(#pa9d3aae96d)" d="M 180.339525 233.825504 
L 188.991914 239.329088 
L 194.167393 228.546207 
L 185.52385 223.065301 
L 180.339525 233.825504 
z
" style="fill:#e67259;fill-opacity:0.5;"/>
    <path clip-path="url(#pa9d3aae96d)" d="M 147.766336 266.965522 
L 156.401248 273.37267 
L 161.442651 256.024486 
L 152.802115 249.633589 
L 147.766336 266.965522 
z
" style="fill:#f5c4ac;fill-opacity:0.5;"/>
    <path clip-path="url(#pa9d3aae96d)" d="M 166.544345 240.857991 
L 175.191209 246.806847 
L 180.339525 233.825504 
L 171.696879 227.89756 
L 166.544345 240.857991 
z
" style="fill:#ee8669;fill-opacity:0.5;"/>
    <path clip-path="url(#pa9d3aae96d)" d="M 158.915193 349.802903 
L 167.519975 355.018286 
L 172.393411 331.296667 
L 163.765563 326.102971 
L 158.915193 349.802903 
z
" style="fill:#516ddb;fill-opacity:0.5;"/>
    <path clip-path="url(#pa9d3aae96d)" d="M 202.824489 233.602594 
L 211.498379 238.234619 
L 216.668582 229.633602 
L 208.00762 225.025026 
L 202.824489 233.602594 
z
" style="fill:#e57058;fill-opacity:0.5;"/>
    <path clip-path="url(#pa9d3aae96d)" d="M 151.429376 292.870135 
L 160.0575 298.874265 
L 165.040838 279.359687 
L 156.401248 273.37267 
L 151.429376 292.870135 
z
" style="fill:#d2dbe8;fill-opacity:0.5;"/>
    <path clip-path="url(#pa9d3aae96d)" d="M 155.147492 320.496482 
L 163.765563 326.102971 
L 168.692856 304.461817 
L 160.0575 298.874265 
L 155.147492 320.496482 
z
" style="fill:#96b7ff;fill-opacity:0.5;"/>
    <path clip-path="url(#pa9d3aae96d)" d="M 161.442651 256.024486 
L 170.088495 261.993055 
L 175.191209 246.806847 
L 166.544345 240.857991 
L 161.442651 256.024486 
z
" style="fill:#f7aa8c;fill-opacity:0.5;"/>
    <path clip-path="url(#pa9d3aae96d)" d="M 156.401248 273.37267 
L 165.040838 279.359687 
L 170.088495 261.993055 
L 161.442651 256.024486 
L 156.401248 273.37267 
z
" style="fill:#f1cdba;fill-opacity:0.5;"/>
    <path clip-path="url(#pa9d3aae96d)" d="M 225.350156 233.817537 
L 234.055637 237.576353 
L 239.192221 231.159914 
L 230.503856 227.423173 
L 225.350156 233.817537 
z
" style="fill:#e57058;fill-opacity:0.5;"/>
    <path clip-path="url(#pa9d3aae96d)" d="M 188.991914 239.329088 
L 197.657267 244.408791 
L 202.824489 233.602594 
L 194.167393 228.546207 
L 188.991914 239.329088 
z
" style="fill:#ec7f63;fill-opacity:0.5;"/>
    <path clip-path="url(#pa9d3aae96d)" d="M 175.191209 246.806847 
L 183.847206 252.332502 
L 188.991914 239.329088 
L 180.339525 233.825504 
L 175.191209 246.806847 
z
" style="fill:#f29274;fill-opacity:0.5;"/>
    <path clip-path="url(#pa9d3aae96d)" d="M 247.908318 234.471144 
L 256.655512 237.355743 
L 261.730057 233.124992 
L 253.004312 230.258951 
L 247.908318 234.471144 
z
" style="fill:#e7745b;fill-opacity:0.5;"/>
    <path clip-path="url(#pa9d3aae96d)" d="M 167.519975 355.018286 
L 176.137064 359.824893 
L 181.034255 336.077824 
L 172.393411 331.296667 
L 167.519975 355.018286 
z
" style="fill:#4a63d3;fill-opacity:0.5;"/>
    <path clip-path="url(#pa9d3aae96d)" d="M 360.896841 244.325034 
L 370.004386 242.846047 
L 374.342593 249.503987 
L 365.281647 250.952139 
L 360.896841 244.325034 
z
" style="fill:#f4987a;fill-opacity:0.5;"/>
    <path clip-path="url(#pa9d3aae96d)" d="M 160.0575 298.874265 
L 168.692856 304.461817 
L 173.688302 284.927399 
L 165.040838 279.359687 
L 160.0575 298.874265 
z
" style="fill:#c9d7f0;fill-opacity:0.5;"/>
    <path clip-path="url(#pa9d3aae96d)" d="M 270.490726 235.563906 
L 279.289769 237.573926 
L 284.273818 235.528361 
L 275.50074 233.531243 
L 270.490726 235.563906 
z
" style="fill:#e9785d;fill-opacity:0.5;"/>
    <path clip-path="url(#pa9d3aae96d)" d="M 338.300478 241.477196 
L 347.315795 240.867771 
L 351.857868 245.358634 
L 342.883531 245.951286 
L 338.300478 241.477196 
z
" style="fill:#f18f71;fill-opacity:0.5;"/>
    <path clip-path="url(#pa9d3aae96d)" d="M 293.089096 237.095993 
L 301.950123 238.231717 
L 306.815224 238.369223 
L 297.984898 237.238616 
L 293.089096 237.095993 
z
" style="fill:#eb7d62;fill-opacity:0.5;"/>
    <path clip-path="url(#pa9d3aae96d)" d="M 163.765563 326.102971 
L 172.393411 331.296667 
L 177.33865 309.633327 
L 168.692856 304.461817 
L 163.765563 326.102971 
z
" style="fill:#8caffe;fill-opacity:0.5;"/>
    <path clip-path="url(#pa9d3aae96d)" d="M 315.695121 239.067249 
L 324.62825 239.329609 
L 329.345996 241.64646 
L 320.448561 241.379319 
L 315.695121 239.067249 
z
" style="fill:#ee8468;fill-opacity:0.5;"/>
    <path clip-path="url(#pa9d3aae96d)" d="M 170.088495 261.993055 
L 178.742848 267.540109 
L 183.847206 252.332502 
L 175.191209 246.806847 
L 170.088495 261.993055 
z
" style="fill:#f7b599;fill-opacity:0.5;"/>
    <path clip-path="url(#pa9d3aae96d)" d="M 211.498379 238.234619 
L 220.192334 242.442125 
L 225.350156 233.817537 
L 216.668582 229.633602 
L 211.498379 238.234619 
z
" style="fill:#e97a5f;fill-opacity:0.5;"/>
    <path clip-path="url(#pa9d3aae96d)" d="M 165.040838 279.359687 
L 173.688302 284.927399 
L 178.742848 267.540109 
L 170.088495 261.993055 
L 165.040838 279.359687 
z
" style="fill:#ebd3c6;fill-opacity:0.5;"/>
    <path clip-path="url(#pa9d3aae96d)" d="M 183.847206 252.332502 
L 192.515559 257.435445 
L 197.657267 244.408791 
L 188.991914 239.329088 
L 183.847206 252.332502 
z
" style="fill:#f59d7e;fill-opacity:0.5;"/>
    <path clip-path="url(#pa9d3aae96d)" d="M 197.657267 244.408791 
L 206.338832 249.064778 
L 211.498379 238.234619 
L 202.824489 233.602594 
L 197.657267 244.408791 
z
" style="fill:#f08a6c;fill-opacity:0.5;"/>
    <path clip-path="url(#pa9d3aae96d)" d="M 234.055637 237.576353 
L 242.788363 240.909253 
L 247.908318 234.471144 
L 239.192221 231.159914 
L 234.055637 237.576353 
z
" style="fill:#e8765c;fill-opacity:0.5;"/>
    <path clip-path="url(#pa9d3aae96d)" d="M 168.692856 304.461817 
L 177.33865 309.633327 
L 182.346858 290.076326 
L 173.688302 284.927399 
L 168.692856 304.461817 
z
" style="fill:#c0d4f5;fill-opacity:0.5;"/>
    <path clip-path="url(#pa9d3aae96d)" d="M 176.137064 359.824893 
L 184.769692 364.2227 
L 189.691342 340.446393 
L 181.034255 336.077824 
L 176.137064 359.824893 
z
" style="fill:#445acc;fill-opacity:0.5;"/>
    <path clip-path="url(#pa9d3aae96d)" d="M 178.742848 267.540109 
L 187.408932 272.666152 
L 192.515559 257.435445 
L 183.847206 252.332502 
L 178.742848 267.540109 
z
" style="fill:#f6bea4;fill-opacity:0.5;"/>
    <path clip-path="url(#pa9d3aae96d)" d="M 172.393411 331.296667 
L 181.034255 336.077824 
L 185.998117 314.389027 
L 177.33865 309.633327 
L 172.393411 331.296667 
z
" style="fill:#84a7fc;fill-opacity:0.5;"/>
    <path clip-path="url(#pa9d3aae96d)" d="M 173.688302 284.927399 
L 182.346858 290.076326 
L 187.408932 272.666152 
L 178.742848 267.540109 
L 173.688302 284.927399 
z
" style="fill:#e5d8d1;fill-opacity:0.5;"/>
    <path clip-path="url(#pa9d3aae96d)" d="M 256.655512 237.355743 
L 265.437219 239.812269 
L 270.490726 235.563906 
L 261.730057 233.124992 
L 256.655512 237.355743 
z
" style="fill:#e7745b;fill-opacity:0.5;"/>
    <path clip-path="url(#pa9d3aae96d)" d="M 220.192334 242.442125 
L 228.90966 246.224641 
L 234.055637 237.576353 
L 225.350156 233.817537 
L 220.192334 242.442125 
z
" style="fill:#ec8165;fill-opacity:0.5;"/>
    <path clip-path="url(#pa9d3aae96d)" d="M 192.515559 257.435445 
L 201.199517 262.115856 
L 206.338832 249.064778 
L 197.657267 244.408791 
L 192.515559 257.435445 
z
" style="fill:#f7a688;fill-opacity:0.5;"/>
    <path clip-path="url(#pa9d3aae96d)" d="M 279.289769 237.573926 
L 288.130694 239.152954 
L 293.089096 237.095993 
L 284.273818 235.528361 
L 279.289769 237.573926 
z
" style="fill:#e7745b;fill-opacity:0.5;"/>
    <path clip-path="url(#pa9d3aae96d)" d="M 206.338832 249.064778 
L 215.039885 253.296906 
L 220.192334 242.442125 
L 211.498379 238.234619 
L 206.338832 249.064778 
z
" style="fill:#f29072;fill-opacity:0.5;"/>
    <path clip-path="url(#pa9d3aae96d)" d="M 177.33865 309.633327 
L 185.998117 314.389027 
L 191.019747 294.806681 
L 182.346858 290.076326 
L 177.33865 309.633327 
z
" style="fill:#b9d0f9;fill-opacity:0.5;"/>
    <path clip-path="url(#pa9d3aae96d)" d="M 301.950123 238.231717 
L 310.860515 238.932772 
L 315.695121 239.067249 
L 306.815224 238.369223 
L 301.950123 238.231717 
z
" style="fill:#e9785d;fill-opacity:0.5;"/>
    <path clip-path="url(#pa9d3aae96d)" d="M 187.408932 272.666152 
L 196.089995 277.37138 
L 201.199517 262.115856 
L 192.515559 257.435445 
L 187.408932 272.666152 
z
" style="fill:#f4c5ad;fill-opacity:0.5;"/>
    <path clip-path="url(#pa9d3aae96d)" d="M 242.788363 240.909253 
L 251.551711 243.815121 
L 256.655512 237.355743 
L 247.908318 234.471144 
L 242.788363 240.909253 
z
" style="fill:#e97a5f;fill-opacity:0.5;"/>
    <path clip-path="url(#pa9d3aae96d)" d="M 324.62825 239.329609 
L 333.618352 239.152866 
L 338.300478 241.477196 
L 329.345996 241.64646 
L 324.62825 239.329609 
z
" style="fill:#ea7b60;fill-opacity:0.5;"/>
    <path clip-path="url(#pa9d3aae96d)" d="M 184.769692 364.2227 
L 193.421116 368.211383 
L 198.367949 344.402017 
L 189.691342 340.446393 
L 184.769692 364.2227 
z
" style="fill:#3f53c6;fill-opacity:0.5;"/>
    <path clip-path="url(#pa9d3aae96d)" d="M 181.034255 336.077824 
L 189.691342 340.446393 
L 194.674515 318.728846 
L 185.998117 314.389027 
L 181.034255 336.077824 
z
" style="fill:#7da0f9;fill-opacity:0.5;"/>
    <path clip-path="url(#pa9d3aae96d)" d="M 182.346858 290.076326 
L 191.019747 294.806681 
L 196.089995 277.37138 
L 187.408932 272.666152 
L 182.346858 290.076326 
z
" style="fill:#dfdbd9;fill-opacity:0.5;"/>
    <path clip-path="url(#pa9d3aae96d)" d="M 347.315795 240.867771 
L 356.395829 239.814058 
L 360.896841 244.325034 
L 351.857868 245.358634 
L 347.315795 240.867771 
z
" style="fill:#ec8165;fill-opacity:0.5;"/>
    <path clip-path="url(#pa9d3aae96d)" d="M 201.199517 262.115856 
L 209.902361 266.373605 
L 215.039885 253.296906 
L 206.338832 249.064778 
L 201.199517 262.115856 
z
" style="fill:#f7ad90;fill-opacity:0.5;"/>
    <path clip-path="url(#pa9d3aae96d)" d="M 228.90966 246.224641 
L 237.653701 249.581378 
L 242.788363 240.909253 
L 234.055637 237.576353 
L 228.90966 246.224641 
z
" style="fill:#ee8468;fill-opacity:0.5;"/>
    <path clip-path="url(#pa9d3aae96d)" d="M 265.437219 239.812269 
L 274.256905 241.838951 
L 279.289769 237.573926 
L 270.490726 235.563906 
L 265.437219 239.812269 
z
" style="fill:#e7745b;fill-opacity:0.5;"/>
    <path clip-path="url(#pa9d3aae96d)" d="M 215.039885 253.296906 
L 223.763739 257.104715 
L 228.90966 246.224641 
L 220.192334 242.442125 
L 215.039885 253.296906 
z
" style="fill:#f39778;fill-opacity:0.5;"/>
    <path clip-path="url(#pa9d3aae96d)" d="M 185.998117 314.389027 
L 194.674515 318.728846 
L 199.71024 299.11837 
L 191.019747 294.806681 
L 185.998117 314.389027 
z
" style="fill:#b3cdfb;fill-opacity:0.5;"/>
    <path clip-path="url(#pa9d3aae96d)" d="M 196.089995 277.37138 
L 204.789315 281.655677 
L 209.902361 266.373605 
L 201.199517 262.115856 
L 196.089995 277.37138 
z
" style="fill:#f2c9b4;fill-opacity:0.5;"/>
    <path clip-path="url(#pa9d3aae96d)" d="M 191.019747 294.806681 
L 199.71024 299.11837 
L 204.789315 281.655677 
L 196.089995 277.37138 
L 191.019747 294.806681 
z
" style="fill:#dbdcde;fill-opacity:0.5;"/>
    <path clip-path="url(#pa9d3aae96d)" d="M 288.130694 239.152954 
L 297.017073 240.298554 
L 301.950123 238.231717 
L 293.089096 237.095993 
L 288.130694 239.152954 
z
" style="fill:#e57058;fill-opacity:0.5;"/>
    <path clip-path="url(#pa9d3aae96d)" d="M 189.691342 340.446393 
L 198.367949 344.402017 
L 203.371139 322.652399 
L 194.674515 318.728846 
L 189.691342 340.446393 
z
" style="fill:#799cf8;fill-opacity:0.5;"/>
    <path clip-path="url(#pa9d3aae96d)" d="M 193.421116 368.211383 
L 202.094632 371.79031 
L 207.067392 347.944035 
L 198.367949 344.402017 
L 193.421116 368.211383 
z
" style="fill:#3d50c3;fill-opacity:0.5;"/>
    <path clip-path="url(#pa9d3aae96d)" d="M 251.551711 243.815121 
L 260.34911 246.292516 
L 265.437219 239.812269 
L 256.655512 237.355743 
L 251.551711 243.815121 
z
" style="fill:#e97a5f;fill-opacity:0.5;"/>
    <path clip-path="url(#pa9d3aae96d)" d="M 310.860515 238.932772 
L 319.823963 239.196043 
L 324.62825 239.329609 
L 315.695121 239.067249 
L 310.860515 238.932772 
z
" style="fill:#e46e56;fill-opacity:0.5;"/>
    <path clip-path="url(#pa9d3aae96d)" d="M 209.902361 266.373605 
L 218.627403 270.208246 
L 223.763739 257.104715 
L 215.039885 253.296906 
L 209.902361 266.373605 
z
" style="fill:#f7b396;fill-opacity:0.5;"/>
    <path clip-path="url(#pa9d3aae96d)" d="M 237.653701 249.581378 
L 246.427848 252.511228 
L 251.551711 243.815121 
L 242.788363 240.909253 
L 237.653701 249.581378 
z
" style="fill:#ef886b;fill-opacity:0.5;"/>
    <path clip-path="url(#pa9d3aae96d)" d="M 223.763739 257.104715 
L 232.513743 260.487427 
L 237.653701 249.581378 
L 228.90966 246.224641 
L 223.763739 257.104715 
z
" style="fill:#f59c7d;fill-opacity:0.5;"/>
    <path clip-path="url(#pa9d3aae96d)" d="M 194.674515 318.728846 
L 203.371139 322.652399 
L 208.421642 303.010986 
L 199.71024 299.11837 
L 194.674515 318.728846 
z
" style="fill:#aec9fc;fill-opacity:0.5;"/>
    <path clip-path="url(#pa9d3aae96d)" d="M 333.618352 239.152866 
L 342.669251 238.533216 
L 347.315795 240.867771 
L 338.300478 241.477196 
L 333.618352 239.152866 
z
" style="fill:#e46e56;fill-opacity:0.5;"/>
    <path clip-path="url(#pa9d3aae96d)" d="M 204.789315 281.655677 
L 213.510201 285.518619 
L 218.627403 270.208246 
L 209.902361 266.373605 
L 204.789315 281.655677 
z
" style="fill:#f1cdba;fill-opacity:0.5;"/>
    <path clip-path="url(#pa9d3aae96d)" d="M 274.256905 241.838951 
L 283.118097 243.433682 
L 288.130694 239.152954 
L 279.289769 237.573926 
L 274.256905 241.838951 
z
" style="fill:#e57058;fill-opacity:0.5;"/>
    <path clip-path="url(#pa9d3aae96d)" d="M 356.395829 239.814058 
L 365.544554 238.311551 
L 370.004386 242.846047 
L 360.896841 244.325034 
L 356.395829 239.814058 
z
" style="fill:#e67259;fill-opacity:0.5;"/>
    <path clip-path="url(#pa9d3aae96d)" d="M 199.71024 299.11837 
L 208.421642 303.010986 
L 213.510201 285.518619 
L 204.789315 281.655677 
L 199.71024 299.11837 
z
" style="fill:#d7dce3;fill-opacity:0.5;"/>
    <path clip-path="url(#pa9d3aae96d)" d="M 198.367949 344.402017 
L 207.067392 347.944035 
L 212.091319 326.158995 
L 203.371139 322.652399 
L 198.367949 344.402017 
z
" style="fill:#7597f6;fill-opacity:0.5;"/>
    <path clip-path="url(#pa9d3aae96d)" d="M 202.094632 371.79031 
L 210.793576 374.958544 
L 215.793025 351.07147 
L 207.067392 347.944035 
L 202.094632 371.79031 
z
" style="fill:#3b4cc0;fill-opacity:0.5;"/>
    <path clip-path="url(#pa9d3aae96d)" d="M 218.627403 270.208246 
L 227.377994 273.619018 
L 232.513743 260.487427 
L 223.763739 257.104715 
L 218.627403 270.208246 
z
" style="fill:#f7b599;fill-opacity:0.5;"/>
    <path clip-path="url(#pa9d3aae96d)" d="M 260.34911 246.292516 
L 269.18404 248.339665 
L 274.256905 241.838951 
L 265.437219 239.812269 
L 260.34911 246.292516 
z
" style="fill:#e97a5f;fill-opacity:0.5;"/>
    <path clip-path="url(#pa9d3aae96d)" d="M 297.017073 240.298554 
L 305.952544 241.007943 
L 310.860515 238.932772 
L 301.950123 238.231717 
L 297.017073 240.298554 
z
" style="fill:#e26952;fill-opacity:0.5;"/>
    <path clip-path="url(#pa9d3aae96d)" d="M 203.371139 322.652399 
L 212.091319 326.158995 
L 217.157294 306.48381 
L 208.421642 303.010986 
L 203.371139 322.652399 
z
" style="fill:#aac7fd;fill-opacity:0.5;"/>
    <path clip-path="url(#pa9d3aae96d)" d="M 232.513743 260.487427 
L 241.293292 263.443944 
L 246.427848 252.511228 
L 237.653701 249.581378 
L 232.513743 260.487427 
z
" style="fill:#f59d7e;fill-opacity:0.5;"/>
    <path clip-path="url(#pa9d3aae96d)" d="M 246.427848 252.511228 
L 255.235535 255.012753 
L 260.34911 246.292516 
L 251.551711 243.815121 
L 246.427848 252.511228 
z
" style="fill:#f08a6c;fill-opacity:0.5;"/>
    <path clip-path="url(#pa9d3aae96d)" d="M 213.510201 285.518619 
L 222.256002 288.959461 
L 227.377994 273.619018 
L 218.627403 270.208246 
L 213.510201 285.518619 
z
" style="fill:#efcfbf;fill-opacity:0.5;"/>
    <path clip-path="url(#pa9d3aae96d)" d="M 208.421642 303.010986 
L 217.157294 306.48381 
L 222.256002 288.959461 
L 213.510201 285.518619 
L 208.421642 303.010986 
z
" style="fill:#d4dbe6;fill-opacity:0.5;"/>
    <path clip-path="url(#pa9d3aae96d)" d="M 319.823963 239.196043 
L 328.844233 239.018059 
L 333.618352 239.152866 
L 324.62825 239.329609 
L 319.823963 239.196043 
z
" style="fill:#e0654f;fill-opacity:0.5;"/>
    <path clip-path="url(#pa9d3aae96d)" d="M 207.067392 347.944035 
L 215.793025 351.07147 
L 220.838426 329.247626 
L 212.091319 326.158995 
L 207.067392 347.944035 
z
" style="fill:#7295f4;fill-opacity:0.5;"/>
    <path clip-path="url(#pa9d3aae96d)" d="M 283.118097 243.433682 
L 292.024383 244.594016 
L 297.017073 240.298554 
L 288.130694 239.152954 
L 283.118097 243.433682 
z
" style="fill:#e36c55;fill-opacity:0.5;"/>
    <path clip-path="url(#pa9d3aae96d)" d="M 210.793576 374.958544 
L 219.521326 377.714835 
L 224.548249 353.783033 
L 215.793025 351.07147 
L 210.793576 374.958544 
z
" style="fill:#3b4cc0;fill-opacity:0.5;"/>
    <path clip-path="url(#pa9d3aae96d)" d="M 342.669251 238.533216 
L 351.784861 237.466482 
L 356.395829 239.814058 
L 347.315795 240.867771 
L 342.669251 238.533216 
z
" style="fill:#de614d;fill-opacity:0.5;"/>
    <path clip-path="url(#pa9d3aae96d)" d="M 227.377994 273.619018 
L 236.15753 276.604839 
L 241.293292 263.443944 
L 232.513743 260.487427 
L 227.377994 273.619018 
z
" style="fill:#f7b89c;fill-opacity:0.5;"/>
    <path clip-path="url(#pa9d3aae96d)" d="M 269.18404 248.339665 
L 278.060042 249.954461 
L 283.118097 243.433682 
L 274.256905 241.838951 
L 269.18404 248.339665 
z
" style="fill:#e8765c;fill-opacity:0.5;"/>
    <path clip-path="url(#pa9d3aae96d)" d="M 212.091319 326.158995 
L 220.838426 329.247626 
L 225.920578 309.535804 
L 217.157294 306.48381 
L 212.091319 326.158995 
z
" style="fill:#a9c6fd;fill-opacity:0.5;"/>
    <path clip-path="url(#pa9d3aae96d)" d="M 241.293292 263.443944 
L 250.105827 265.972843 
L 255.235535 255.012753 
L 246.427848 252.511228 
L 241.293292 263.443944 
z
" style="fill:#f59f80;fill-opacity:0.5;"/>
    <path clip-path="url(#pa9d3aae96d)" d="M 255.235535 255.012753 
L 264.080255 257.08419 
L 269.18404 248.339665 
L 260.34911 246.292516 
L 255.235535 255.012753 
z
" style="fill:#ef886b;fill-opacity:0.5;"/>
    <path clip-path="url(#pa9d3aae96d)" d="M 222.256002 288.959461 
L 231.03011 291.977142 
L 236.15753 276.604839 
L 227.377994 273.619018 
L 222.256002 288.959461 
z
" style="fill:#edd1c2;fill-opacity:0.5;"/>
    <path clip-path="url(#pa9d3aae96d)" d="M 305.952544 241.007943 
L 314.940819 241.277985 
L 319.823963 239.196043 
L 310.860515 238.932772 
L 305.952544 241.007943 
z
" style="fill:#de614d;fill-opacity:0.5;"/>
    <path clip-path="url(#pa9d3aae96d)" d="M 217.157294 306.48381 
L 225.920578 309.535804 
L 231.03011 291.977142 
L 222.256002 288.959461 
L 217.157294 306.48381 
z
" style="fill:#d3dbe7;fill-opacity:0.5;"/>
    <path clip-path="url(#pa9d3aae96d)" d="M 215.793025 351.07147 
L 224.548249 353.783033 
L 229.615876 331.916963 
L 220.838426 329.247626 
L 215.793025 351.07147 
z
" style="fill:#7295f4;fill-opacity:0.5;"/>
    <path clip-path="url(#pa9d3aae96d)" d="M 219.521326 377.714835 
L 228.281311 380.057615 
L 233.336515 356.077111 
L 224.548249 353.783033 
L 219.521326 377.714835 
z
" style="fill:#3b4cc0;fill-opacity:0.5;"/>
    <path clip-path="url(#pa9d3aae96d)" d="M 328.844233 239.018059 
L 337.92518 238.394978 
L 342.669251 238.533216 
L 333.618352 239.152866 
L 328.844233 239.018059 
z
" style="fill:#d85646;fill-opacity:0.5;"/>
    <path clip-path="url(#pa9d3aae96d)" d="M 236.15753 276.604839 
L 244.969453 279.164302 
L 250.105827 265.972843 
L 241.293292 263.443944 
L 236.15753 276.604839 
z
" style="fill:#f7b89c;fill-opacity:0.5;"/>
    <path clip-path="url(#pa9d3aae96d)" d="M 292.024383 244.594016 
L 300.97942 245.31716 
L 305.952544 241.007943 
L 297.017073 240.298554 
L 292.024383 244.594016 
z
" style="fill:#e0654f;fill-opacity:0.5;"/>
    <path clip-path="url(#pa9d3aae96d)" d="M 220.838426 329.247626 
L 229.615876 331.916963 
L 234.714926 312.16561 
L 225.920578 309.535804 
L 220.838426 329.247626 
z
" style="fill:#a7c5fe;fill-opacity:0.5;"/>
    <path clip-path="url(#pa9d3aae96d)" d="M 250.105827 265.972843 
L 258.954843 268.07237 
L 264.080255 257.08419 
L 255.235535 255.012753 
L 250.105827 265.972843 
z
" style="fill:#f59d7e;fill-opacity:0.5;"/>
    <path clip-path="url(#pa9d3aae96d)" d="M 278.060042 249.954461 
L 286.980716 251.134456 
L 292.024383 244.594016 
L 283.118097 243.433682 
L 278.060042 249.954461 
z
" style="fill:#e67259;fill-opacity:0.5;"/>
    <path clip-path="url(#pa9d3aae96d)" d="M 231.03011 291.977142 
L 239.835962 294.570277 
L 244.969453 279.164302 
L 236.15753 276.604839 
L 231.03011 291.977142 
z
" style="fill:#edd1c2;fill-opacity:0.5;"/>
    <path clip-path="url(#pa9d3aae96d)" d="M 225.920578 309.535804 
L 234.714926 312.16561 
L 239.835962 294.570277 
L 231.03011 291.977142 
L 225.920578 309.535804 
z
" style="fill:#d2dbe8;fill-opacity:0.5;"/>
    <path clip-path="url(#pa9d3aae96d)" d="M 351.784861 237.466482 
L 360.969192 235.948102 
L 365.544554 238.311551 
L 356.395829 239.814058 
L 351.784861 237.466482 
z
" style="fill:#d44e41;fill-opacity:0.5;"/>
    <path clip-path="url(#pa9d3aae96d)" d="M 264.080255 257.08419 
L 272.965554 258.723435 
L 278.060042 249.954461 
L 269.18404 248.339665 
L 264.080255 257.08419 
z
" style="fill:#ee8669;fill-opacity:0.5;"/>
    <path clip-path="url(#pa9d3aae96d)" d="M 314.940819 241.277985 
L 323.985691 241.105183 
L 328.844233 239.018059 
L 319.823963 239.196043 
L 314.940819 241.277985 
z
" style="fill:#d75445;fill-opacity:0.5;"/>
    <path clip-path="url(#pa9d3aae96d)" d="M 224.548249 353.783033 
L 233.336515 356.077111 
L 238.427139 334.165357 
L 229.615876 331.916963 
L 224.548249 353.783033 
z
" style="fill:#7295f4;fill-opacity:0.5;"/>
    <path clip-path="url(#pa9d3aae96d)" d="M 228.281311 380.057615 
L 237.077012 381.984996 
L 242.161326 357.951768 
L 233.336515 356.077111 
L 228.281311 380.057615 
z
" style="fill:#3c4ec2;fill-opacity:0.5;"/>
    <path clip-path="url(#pa9d3aae96d)" d="M 244.969453 279.164302 
L 253.817257 281.295669 
L 258.954843 268.07237 
L 250.105827 265.972843 
L 244.969453 279.164302 
z
" style="fill:#f7b89c;fill-opacity:0.5;"/>
    <path clip-path="url(#pa9d3aae96d)" d="M 229.615876 331.916963 
L 238.427139 334.165357 
L 243.543818 314.371543 
L 234.714926 312.16561 
L 229.615876 331.916963 
z
" style="fill:#a7c5fe;fill-opacity:0.5;"/>
    <path clip-path="url(#pa9d3aae96d)" d="M 300.97942 245.31716 
L 309.986939 245.599962 
L 314.940819 241.277985 
L 305.952544 241.007943 
L 300.97942 245.31716 
z
" style="fill:#dc5d4a;fill-opacity:0.5;"/>
    <path clip-path="url(#pa9d3aae96d)" d="M 239.835962 294.570277 
L 248.67705 296.737152 
L 253.817257 281.295669 
L 244.969453 279.164302 
L 239.835962 294.570277 
z
" style="fill:#edd1c2;fill-opacity:0.5;"/>
    <path clip-path="url(#pa9d3aae96d)" d="M 337.92518 238.394978 
L 347.070746 237.322583 
L 351.784861 237.466482 
L 342.669251 238.533216 
L 337.92518 238.394978 
z
" style="fill:#cf453c;fill-opacity:0.5;"/>
    <path clip-path="url(#pa9d3aae96d)" d="M 258.954843 268.07237 
L 267.843891 269.740433 
L 272.965554 258.723435 
L 264.080255 257.08419 
L 258.954843 268.07237 
z
" style="fill:#f59c7d;fill-opacity:0.5;"/>
    <path clip-path="url(#pa9d3aae96d)" d="M 234.714926 312.16561 
L 243.543818 314.371543 
L 248.67705 296.737152 
L 239.835962 294.570277 
L 234.714926 312.16561 
z
" style="fill:#d2dbe8;fill-opacity:0.5;"/>
    <path clip-path="url(#pa9d3aae96d)" d="M 286.980716 251.134456 
L 295.949734 251.87685 
L 300.97942 245.31716 
L 292.024383 244.594016 
L 286.980716 251.134456 
z
" style="fill:#e36b54;fill-opacity:0.5;"/>
    <path clip-path="url(#pa9d3aae96d)" d="M 272.965554 258.723435 
L 281.895043 259.928044 
L 286.980716 251.134456 
L 278.060042 249.954461 
L 272.965554 258.723435 
z
" style="fill:#ec8165;fill-opacity:0.5;"/>
    <path clip-path="url(#pa9d3aae96d)" d="M 233.336515 356.077111 
L 242.161326 357.951768 
L 247.275737 335.990826 
L 238.427139 334.165357 
L 233.336515 356.077111 
z
" style="fill:#7597f6;fill-opacity:0.5;"/>
    <path clip-path="url(#pa9d3aae96d)" d="M 253.817257 281.295669 
L 262.704493 282.996868 
L 267.843891 269.740433 
L 258.954843 268.07237 
L 253.817257 281.295669 
z
" style="fill:#f7b79b;fill-opacity:0.5;"/>
    <path clip-path="url(#pa9d3aae96d)" d="M 323.985691 241.105183 
L 333.091035 240.485669 
L 337.92518 238.394978 
L 328.844233 239.018059 
L 323.985691 241.105183 
z
" style="fill:#d0473d;fill-opacity:0.5;"/>
    <path clip-path="url(#pa9d3aae96d)" d="M 237.077012 381.984996 
L 245.911971 383.494761 
L 251.026248 359.404733 
L 242.161326 357.951768 
L 237.077012 381.984996 
z
" style="fill:#3f53c6;fill-opacity:0.5;"/>
    <path clip-path="url(#pa9d3aae96d)" d="M 238.427139 334.165357 
L 247.275737 335.990826 
L 252.410791 316.151586 
L 243.543818 314.371543 
L 238.427139 334.165357 
z
" style="fill:#aac7fd;fill-opacity:0.5;"/>
    <path clip-path="url(#pa9d3aae96d)" d="M 248.67705 296.737152 
L 257.556919 298.475719 
L 262.704493 282.996868 
L 253.817257 281.295669 
L 248.67705 296.737152 
z
" style="fill:#efcfbf;fill-opacity:0.5;"/>
    <path clip-path="url(#pa9d3aae96d)" d="M 243.543818 314.371543 
L 252.410791 316.151586 
L 257.556919 298.475719 
L 248.67705 296.737152 
L 243.543818 314.371543 
z
" style="fill:#d4dbe6;fill-opacity:0.5;"/>
    <path clip-path="url(#pa9d3aae96d)" d="M 267.843891 269.740433 
L 276.776587 270.974599 
L 281.895043 259.928044 
L 272.965554 258.723435 
L 267.843891 269.740433 
z
" style="fill:#f4987a;fill-opacity:0.5;"/>
    <path clip-path="url(#pa9d3aae96d)" d="M 309.986939 245.599962 
L 319.050751 245.438911 
L 323.985691 241.105183 
L 314.940819 241.277985 
L 309.986939 245.599962 
z
" style="fill:#d55042;fill-opacity:0.5;"/>
    <path clip-path="url(#pa9d3aae96d)" d="M 281.895043 259.928044 
L 290.872401 260.695222 
L 295.949734 251.87685 
L 286.980716 251.134456 
L 281.895043 259.928044 
z
" style="fill:#ea7b60;fill-opacity:0.5;"/>
    <path clip-path="url(#pa9d3aae96d)" d="M 295.949734 251.87685 
L 304.970839 252.17849 
L 309.986939 245.599962 
L 300.97942 245.31716 
L 295.949734 251.87685 
z
" style="fill:#df634e;fill-opacity:0.5;"/>
    <path clip-path="url(#pa9d3aae96d)" d="M 347.070746 237.322583 
L 356.284971 235.796264 
L 360.969192 235.948102 
L 351.784861 237.466482 
L 347.070746 237.322583 
z
" style="fill:#c43032;fill-opacity:0.5;"/>
    <path clip-path="url(#pa9d3aae96d)" d="M 242.161326 357.951768 
L 251.026248 359.404733 
L 256.165254 337.391056 
L 247.275737 335.990826 
L 242.161326 357.951768 
z
" style="fill:#779af7;fill-opacity:0.5;"/>
    <path clip-path="url(#pa9d3aae96d)" d="M 262.704493 282.996868 
L 271.634776 284.265484 
L 276.776587 270.974599 
L 267.843891 269.740433 
L 262.704493 282.996868 
z
" style="fill:#f7b396;fill-opacity:0.5;"/>
    <path clip-path="url(#pa9d3aae96d)" d="M 245.911971 383.494761 
L 254.789792 384.584358 
L 259.93491 360.433399 
L 251.026248 359.404733 
L 245.911971 383.494761 
z
" style="fill:#4358cb;fill-opacity:0.5;"/>
    <path clip-path="url(#pa9d3aae96d)" d="M 247.275737 335.990826 
L 256.165254 337.391056 
L 261.319444 317.503383 
L 252.410791 316.151586 
L 247.275737 335.990826 
z
" style="fill:#adc9fd;fill-opacity:0.5;"/>
    <path clip-path="url(#pa9d3aae96d)" d="M 333.091035 240.485669 
L 342.260821 239.415192 
L 347.070746 237.322583 
L 337.92518 238.394978 
L 333.091035 240.485669 
z
" style="fill:#c53334;fill-opacity:0.5;"/>
    <path clip-path="url(#pa9d3aae96d)" d="M 257.556919 298.475719 
L 266.479177 299.783589 
L 271.634776 284.265484 
L 262.704493 282.996868 
L 257.556919 298.475719 
z
" style="fill:#f0cdbb;fill-opacity:0.5;"/>
    <path clip-path="url(#pa9d3aae96d)" d="M 252.410791 316.151586 
L 261.319444 317.503383 
L 266.479177 299.783589 
L 257.556919 298.475719 
L 252.410791 316.151586 
z
" style="fill:#d6dce4;fill-opacity:0.5;"/>
    <path clip-path="url(#pa9d3aae96d)" d="M 276.776587 270.974599 
L 285.756614 271.772086 
L 290.872401 260.695222 
L 281.895043 259.928044 
L 276.776587 270.974599 
z
" style="fill:#f29274;fill-opacity:0.5;"/>
    <path clip-path="url(#pa9d3aae96d)" d="M 319.050751 245.438911 
L 328.17475 244.830118 
L 333.091035 240.485669 
L 323.985691 241.105183 
L 319.050751 245.438911 
z
" style="fill:#cd423b;fill-opacity:0.5;"/>
    <path clip-path="url(#pa9d3aae96d)" d="M 290.872401 260.695222 
L 299.901381 261.021818 
L 304.970839 252.17849 
L 295.949734 251.87685 
L 290.872401 260.695222 
z
" style="fill:#e67259;fill-opacity:0.5;"/>
    <path clip-path="url(#pa9d3aae96d)" d="M 304.970839 252.17849 
L 314.047855 252.035854 
L 319.050751 245.438911 
L 309.986939 245.599962 
L 304.970839 252.17849 
z
" style="fill:#d85646;fill-opacity:0.5;"/>
    <path clip-path="url(#pa9d3aae96d)" d="M 251.026248 359.404733 
L 259.93491 360.433399 
L 265.09934 338.363388 
L 256.165254 337.391056 
L 251.026248 359.404733 
z
" style="fill:#7da0f9;fill-opacity:0.5;"/>
    <path clip-path="url(#pa9d3aae96d)" d="M 271.634776 284.265484 
L 280.611788 285.098755 
L 285.756614 271.772086 
L 276.776587 270.974599 
L 271.634776 284.265484 
z
" style="fill:#f7af91;fill-opacity:0.5;"/>
    <path clip-path="url(#pa9d3aae96d)" d="M 254.789792 384.584358 
L 263.714149 385.250894 
L 268.89101 361.034811 
L 259.93491 360.433399 
L 254.789792 384.584358 
z
" style="fill:#4961d2;fill-opacity:0.5;"/>
    <path clip-path="url(#pa9d3aae96d)" d="M 256.165254 337.391056 
L 265.09934 338.363388 
L 270.273442 318.424233 
L 261.319444 317.503383 
L 256.165254 337.391056 
z
" style="fill:#b2ccfb;fill-opacity:0.5;"/>
    <path clip-path="url(#pa9d3aae96d)" d="M 266.479177 299.783589 
L 275.447502 300.658026 
L 280.611788 285.098755 
L 271.634776 284.265484 
L 266.479177 299.783589 
z
" style="fill:#f2cab5;fill-opacity:0.5;"/>
    <path clip-path="url(#pa9d3aae96d)" d="M 261.319444 317.503383 
L 270.273442 318.424233 
L 275.447502 300.658026 
L 266.479177 299.783589 
L 261.319444 317.503383 
z
" style="fill:#dadce0;fill-opacity:0.5;"/>
    <path clip-path="url(#pa9d3aae96d)" d="M 285.756614 271.772086 
L 294.787726 272.129753 
L 299.901381 261.021818 
L 290.872401 260.695222 
L 285.756614 271.772086 
z
" style="fill:#f08b6e;fill-opacity:0.5;"/>
    <path clip-path="url(#pa9d3aae96d)" d="M 342.260821 239.415192 
L 351.499111 237.889111 
L 356.284971 235.796264 
L 347.070746 237.322583 
L 342.260821 239.415192 
z
" style="fill:#b8122a;fill-opacity:0.5;"/>
    <path clip-path="url(#pa9d3aae96d)" d="M 299.901381 261.021818 
L 308.985814 260.904312 
L 314.047855 252.035854 
L 304.970839 252.17849 
L 299.901381 261.021818 
z
" style="fill:#e26952;fill-opacity:0.5;"/>
    <path clip-path="url(#pa9d3aae96d)" d="M 328.17475 244.830118 
L 337.362923 243.769313 
L 342.260821 239.415192 
L 333.091035 240.485669 
L 328.17475 244.830118 
z
" style="fill:#c32e31;fill-opacity:0.5;"/>
    <path clip-path="url(#pa9d3aae96d)" d="M 259.93491 360.433399 
L 268.89101 361.034811 
L 274.081714 338.904814 
L 265.09934 338.363388 
L 259.93491 360.433399 
z
" style="fill:#82a6fb;fill-opacity:0.5;"/>
    <path clip-path="url(#pa9d3aae96d)" d="M 314.047855 252.035854 
L 323.184691 251.445046 
L 328.17475 244.830118 
L 319.050751 245.438911 
L 314.047855 252.035854 
z
" style="fill:#d1493f;fill-opacity:0.5;"/>
    <path clip-path="url(#pa9d3aae96d)" d="M 280.611788 285.098755 
L 289.639282 285.493561 
L 294.787726 272.129753 
L 285.756614 271.772086 
L 280.611788 285.098755 
z
" style="fill:#f7a889;fill-opacity:0.5;"/>
    <path clip-path="url(#pa9d3aae96d)" d="M 263.714149 385.250894 
L 272.688789 385.491126 
L 277.898324 361.20566 
L 268.89101 361.034811 
L 263.714149 385.250894 
z
" style="fill:#4f69d9;fill-opacity:0.5;"/>
    <path clip-path="url(#pa9d3aae96d)" d="M 265.09934 338.363388 
L 274.081714 338.904814 
L 279.276521 318.911082 
L 270.273442 318.424233 
L 265.09934 338.363388 
z
" style="fill:#b7cff9;fill-opacity:0.5;"/>
    <path clip-path="url(#pa9d3aae96d)" d="M 275.447502 300.658026 
L 284.46564 301.095939 
L 289.639282 285.493561 
L 280.611788 285.098755 
L 275.447502 300.658026 
z
" style="fill:#f4c6af;fill-opacity:0.5;"/>
    <path clip-path="url(#pa9d3aae96d)" d="M 270.273442 318.424233 
L 279.276521 318.911082 
L 284.46564 301.095939 
L 275.447502 300.658026 
L 270.273442 318.424233 
z
" style="fill:#dedcdb;fill-opacity:0.5;"/>
    <path clip-path="url(#pa9d3aae96d)" d="M 294.787726 272.129753 
L 303.873761 272.044093 
L 308.985814 260.904312 
L 299.901381 261.021818 
L 294.787726 272.129753 
z
" style="fill:#ec8165;fill-opacity:0.5;"/>
    <path clip-path="url(#pa9d3aae96d)" d="M 268.89101 361.034811 
L 277.898324 361.20566 
L 283.116173 339.011967 
L 274.081714 338.904814 
L 268.89101 361.034811 
z
" style="fill:#8badfd;fill-opacity:0.5;"/>
    <path clip-path="url(#pa9d3aae96d)" d="M 308.985814 260.904312 
L 318.129619 260.33881 
L 323.184691 251.445046 
L 314.047855 252.035854 
L 308.985814 260.904312 
z
" style="fill:#da5a49;fill-opacity:0.5;"/>
    <path clip-path="url(#pa9d3aae96d)" d="M 337.362923 243.769313 
L 346.619354 242.25183 
L 351.499111 237.889111 
L 342.260821 239.415192 
L 337.362923 243.769313 
z
" style="fill:#b50927;fill-opacity:0.5;"/>
    <path clip-path="url(#pa9d3aae96d)" d="M 323.184691 251.445046 
L 332.385347 250.401785 
L 337.362923 243.769313 
L 328.17475 244.830118 
L 323.184691 251.445046 
z
" style="fill:#c73635;fill-opacity:0.5;"/>
    <path clip-path="url(#pa9d3aae96d)" d="M 289.639282 285.493561 
L 298.721093 285.446414 
L 303.873761 272.044093 
L 294.787726 272.129753 
L 289.639282 285.493561 
z
" style="fill:#f5a081;fill-opacity:0.5;"/>
    <path clip-path="url(#pa9d3aae96d)" d="M 274.081714 338.904814 
L 283.116173 339.011967 
L 288.332496 318.960516 
L 279.276521 318.911082 
L 274.081714 338.904814 
z
" style="fill:#bfd3f6;fill-opacity:0.5;"/>
    <path clip-path="url(#pa9d3aae96d)" d="M 272.688789 385.491126 
L 281.717541 385.301451 
L 286.960709 360.942273 
L 277.898324 361.20566 
L 272.688789 385.491126 
z
" style="fill:#5875e1;fill-opacity:0.5;"/>
    <path clip-path="url(#pa9d3aae96d)" d="M 284.46564 301.095939 
L 293.537419 301.093874 
L 298.721093 285.446414 
L 289.639282 285.493561 
L 284.46564 301.095939 
z
" style="fill:#f6bfa6;fill-opacity:0.5;"/>
    <path clip-path="url(#pa9d3aae96d)" d="M 279.276521 318.911082 
L 288.332496 318.960516 
L 293.537419 301.093874 
L 284.46564 301.095939 
L 279.276521 318.911082 
z
" style="fill:#e4d9d2;fill-opacity:0.5;"/>
    <path clip-path="url(#pa9d3aae96d)" d="M 303.873761 272.044093 
L 313.018637 271.511225 
L 318.129619 260.33881 
L 308.985814 260.904312 
L 303.873761 272.044093 
z
" style="fill:#e7745b;fill-opacity:0.5;"/>
    <path clip-path="url(#pa9d3aae96d)" d="M 277.898324 361.20566 
L 286.960709 360.942273 
L 292.206599 338.681114 
L 283.116173 339.011967 
L 277.898324 361.20566 
z
" style="fill:#93b5fe;fill-opacity:0.5;"/>
    <path clip-path="url(#pa9d3aae96d)" d="M 318.129619 260.33881 
L 327.336803 259.321033 
L 332.385347 250.401785 
L 323.184691 251.445046 
L 318.129619 260.33881 
z
" style="fill:#d1493f;fill-opacity:0.5;"/>
    <path clip-path="url(#pa9d3aae96d)" d="M 298.721093 285.446414 
L 307.861138 284.953456 
L 313.018637 271.511225 
L 303.873761 272.044093 
L 298.721093 285.446414 
z
" style="fill:#f39577;fill-opacity:0.5;"/>
    <path clip-path="url(#pa9d3aae96d)" d="M 332.385347 250.401785 
L 341.653922 248.901394 
L 346.619354 242.25183 
L 337.362923 243.769313 
L 332.385347 250.401785 
z
" style="fill:#ba162b;fill-opacity:0.5;"/>
    <path clip-path="url(#pa9d3aae96d)" d="M 283.116173 339.011967 
L 292.206599 338.681114 
L 297.445265 318.568748 
L 288.332496 318.960516 
L 283.116173 339.011967 
z
" style="fill:#c7d7f0;fill-opacity:0.5;"/>
    <path clip-path="url(#pa9d3aae96d)" d="M 281.717541 385.301451 
L 290.804321 384.677898 
L 296.082108 360.240604 
L 286.960709 360.942273 
L 281.717541 385.301451 
z
" style="fill:#6282ea;fill-opacity:0.5;"/>
    <path clip-path="url(#pa9d3aae96d)" d="M 293.537419 301.093874 
L 302.666748 300.648001 
L 307.861138 284.953456 
L 298.721093 285.446414 
L 293.537419 301.093874 
z
" style="fill:#f7b89c;fill-opacity:0.5;"/>
    <path clip-path="url(#pa9d3aae96d)" d="M 288.332496 318.960516 
L 297.445265 318.568748 
L 302.666748 300.648001 
L 293.537419 301.093874 
L 288.332496 318.960516 
z
" style="fill:#ead4c8;fill-opacity:0.5;"/>
    <path clip-path="url(#pa9d3aae96d)" d="M 313.018637 271.511225 
L 322.226367 270.526878 
L 327.336803 259.321033 
L 318.129619 260.33881 
L 313.018637 271.511225 
z
" style="fill:#e16751;fill-opacity:0.5;"/>
    <path clip-path="url(#pa9d3aae96d)" d="M 286.960709 360.942273 
L 296.082108 360.240604 
L 301.356958 337.908142 
L 292.206599 338.681114 
L 286.960709 360.942273 
z
" style="fill:#9ebeff;fill-opacity:0.5;"/>
    <path clip-path="url(#pa9d3aae96d)" d="M 327.336803 259.321033 
L 336.611474 257.846302 
L 341.653922 248.901394 
L 332.385347 250.401785 
L 327.336803 259.321033 
z
" style="fill:#c73635;fill-opacity:0.5;"/>
    <path clip-path="url(#pa9d3aae96d)" d="M 307.861138 284.953456 
L 317.063427 284.010441 
L 322.226367 270.526878 
L 313.018637 271.511225 
L 307.861138 284.953456 
z
" style="fill:#ef886b;fill-opacity:0.5;"/>
    <path clip-path="url(#pa9d3aae96d)" d="M 292.206599 338.681114 
L 301.356958 337.908142 
L 306.618814 317.73161 
L 297.445265 318.568748 
L 292.206599 338.681114 
z
" style="fill:#cfdaea;fill-opacity:0.5;"/>
    <path clip-path="url(#pa9d3aae96d)" d="M 302.666748 300.648001 
L 311.857629 299.75411 
L 317.063427 284.010441 
L 307.861138 284.953456 
L 302.666748 300.648001 
z
" style="fill:#f7ad90;fill-opacity:0.5;"/>
    <path clip-path="url(#pa9d3aae96d)" d="M 290.804321 384.677898 
L 299.953135 383.616117 
L 305.26656 359.096222 
L 296.082108 360.240604 
L 290.804321 384.677898 
z
" style="fill:#6c8ff1;fill-opacity:0.5;"/>
    <path clip-path="url(#pa9d3aae96d)" d="M 297.445265 318.568748 
L 306.618814 317.73161 
L 311.857629 299.75411 
L 302.666748 300.648001 
L 297.445265 318.568748 
z
" style="fill:#efcebd;fill-opacity:0.5;"/>
    <path clip-path="url(#pa9d3aae96d)" d="M 322.226367 270.526878 
L 331.501059 269.086389 
L 336.611474 257.846302 
L 327.336803 259.321033 
L 322.226367 270.526878 
z
" style="fill:#d75445;fill-opacity:0.5;"/>
    <path clip-path="url(#pa9d3aae96d)" d="M 296.082108 360.240604 
L 305.26656 359.096222 
L 310.571314 336.688551 
L 301.356958 337.908142 
L 296.082108 360.240604 
z
" style="fill:#aac7fd;fill-opacity:0.5;"/>
    <path clip-path="url(#pa9d3aae96d)" d="M 317.063427 284.010441 
L 326.332065 282.612725 
L 331.501059 269.086389 
L 322.226367 270.526878 
L 317.063427 284.010441 
z
" style="fill:#e97a5f;fill-opacity:0.5;"/>
    <path clip-path="url(#pa9d3aae96d)" d="M 301.356958 337.908142 
L 310.571314 336.688551 
L 315.857227 316.444545 
L 306.618814 317.73161 
L 301.356958 337.908142 
z
" style="fill:#d9dce1;fill-opacity:0.5;"/>
    <path clip-path="url(#pa9d3aae96d)" d="M 311.857629 299.75411 
L 321.114159 298.407593 
L 326.332065 282.612725 
L 317.063427 284.010441 
L 311.857629 299.75411 
z
" style="fill:#f5a081;fill-opacity:0.5;"/>
    <path clip-path="url(#pa9d3aae96d)" d="M 306.618814 317.73161 
L 315.857227 316.444545 
L 321.114159 298.407593 
L 311.857629 299.75411 
L 306.618814 317.73161 
z
" style="fill:#f4c6af;fill-opacity:0.5;"/>
   </g>
   <g id="line2d_19">
    <path clip-path="url(#pa9d3aae96d)" d="M 181.8598 213.439585 
L 348.587171 259.958078 
" style="fill:none;stroke:#000000;stroke-linecap:square;stroke-width:1.5;"/>
   </g>
   <g id="line2d_20">
    <path clip-path="url(#pa9d3aae96d)" d="M 213.764411 277.935517 
L 310.099566 197.300294 
" style="fill:none;stroke:#000000;stroke-linecap:square;stroke-width:1.5;"/>
   </g>
   <g id="line2d_21">
    <path clip-path="url(#pa9d3aae96d)" d="M 263.578378 236.239831 
L 266.478777 224.024541 
L 269.395067 212.687557 
L 272.058187 203.15708 
L 274.730953 194.377244 
L 277.41166 186.358471 
L 279.829658 179.800155 
L 282.251414 173.872269 
L 284.406201 169.136846 
L 286.562033 164.907505 
L 288.717997 161.187342 
L 290.603854 158.351996 
L 292.488496 155.910063 
L 294.371308 153.862814 
L 295.983224 152.422938 
L 297.592957 151.27427 
L 299.200122 150.417158 
L 300.537186 149.92577 
L 301.871978 149.637047 
L 303.204276 149.550968 
L 304.533861 149.667446 
L 305.860514 149.986326 
L 307.184017 150.507387 
L 308.767757 151.399126 
L 310.346278 152.580962 
L 311.919212 154.052132 
L 313.486195 155.811736 
L 315.306339 158.227773 
L 317.117326 161.033119 
L 318.918599 164.225659 
L 320.964598 168.345359 
L 322.996388 172.9638 
L 325.013182 178.076691 
L 327.263192 184.413874 
L 329.492181 191.363681 
L 331.942922 199.794669 
L 334.365058 208.960779 
L 336.757269 218.849647 
L 339.352628 230.546473 
L 341.908639 243.083371 
L 344.42378 256.440778 
L 344.42378 256.440778 
" style="fill:none;stroke:#ff7f0e;stroke-linecap:square;stroke-width:1.5;"/>
   </g>
   <g id="line2d_22">
    <path clip-path="url(#pa9d3aae96d)" d="M 263.578378 236.239831 
L 345.123947 225.680603 
" style="fill:none;stroke:#808080;stroke-dasharray:5.55,2.4;stroke-dashoffset:0;stroke-width:1.5;"/>
   </g>
   <g id="line2d_23">
    <path clip-path="url(#pa9d3aae96d)" d="M 263.578378 236.239831 
L 260.973824 230.173086 
L 258.648359 225.287029 
L 256.314147 220.883054 
L 253.97212 216.965855 
L 251.917178 213.941018 
L 249.857617 211.294832 
L 247.794084 209.029717 
L 246.022676 207.393157 
L 244.249245 206.039416 
L 242.474207 204.969604 
L 240.697984 204.184697 
L 239.217195 203.748857 
L 237.73612 203.511872 
L 236.255004 203.474096 
L 234.774092 203.635815 
L 233.293632 203.997249 
L 231.813869 204.558555 
L 230.039422 205.49607 
L 228.26676 206.72155 
L 226.496309 208.234883 
L 224.728494 210.035821 
L 222.963739 212.123977 
L 220.909288 214.922463 
L 218.860243 218.110097 
L 216.817268 221.685557 
L 214.490717 226.244661 
L 212.173928 231.305508 
L 209.867865 236.864935 
L 207.28755 243.710782 
L 204.723349 251.177399 
L 202.176574 259.258441 
L 199.368824 268.949505 
L 196.585897 279.380069 
L 193.829471 290.538808 
L 190.829953 303.639899 
L 188.671062 313.702241 
L 188.671062 313.702241 
" style="fill:none;stroke:#2ca02c;stroke-linecap:square;stroke-width:1.5;"/>
   </g>
   <g id="line2d_24">
    <path clip-path="url(#pa9d3aae96d)" d="M 263.578378 236.239831 
L 187.465805 257.47595 
" style="fill:none;stroke:#808080;stroke-dasharray:5.55,2.4;stroke-dashoffset:0;stroke-width:1.5;"/>
   </g>
  </g>
 </g>
 <defs>
  <clipPath id="pa9d3aae96d">
   <rect height="380.52" width="390.6" x="63" y="60.48"/>
  </clipPath>
 </defs>
</svg>
