<?xml version="1.0" encoding="utf-8" standalone="no"?>
<!DOCTYPE svg PUBLIC "-//W3C//DTD SVG 1.1//EN"
  "http://www.w3.org/Graphics/SVG/1.1/DTD/svg11.dtd">
<!-- Created with matplotlib (http://matplotlib.org/) -->
<svg height="504pt" version="1.1" viewBox="0 0 504 504" width="504pt" xmlns="http://www.w3.org/2000/svg" xmlns:xlink="http://www.w3.org/1999/xlink">
 <defs>
  <style type="text/css">
*{stroke-linecap:butt;stroke-linejoin:round;}
  </style>
 </defs>
 <g id="figure_1">
  <g id="patch_1">
   <path d="M 0 504 
L 504 504 
L 504 0 
L 0 0 
z
" style="fill:#ffffff;"/>
  </g>
  <g id="patch_2">
   <path d="M 63 441 
L 453.6 441 
L 453.6 60.48 
L 63 60.48 
z
" style="fill:#ffffff;"/>
  </g>
  <g id="pane3d_1">
   <g id="patch_3">
    <path d="M 114.780066 356.91849 
L 226.571829 263.623608 
L 224.710615 85.352401 
L 106.685728 169.175934 
" style="fill:#f2f2f2;opacity:0.5;stroke:#f2f2f2;stroke-linejoin:miter;"/>
   </g>
  </g>
  <g id="pane3d_2">
   <g id="patch_4">
    <path d="M 226.571829 263.623608 
L 407.663976 315.781468 
L 415.240655 132.134565 
L 224.710615 85.352401 
" style="fill:#e6e6e6;opacity:0.5;stroke:#e6e6e6;stroke-linejoin:miter;"/>
   </g>
  </g>
  <g id="pane3d_3">
   <g id="patch_5">
    <path d="M 114.780066 356.91849 
L 305.313474 417.664816 
L 407.663976 315.781468 
L 226.571829 263.623608 
" style="fill:#ececec;opacity:0.5;stroke:#ececec;stroke-linejoin:miter;"/>
   </g>
  </g>
  <g id="axis3d_1">
   <g id="line2d_1">
    <path d="M 114.780066 356.91849 
L 305.313474 417.664816 
" style="fill:none;stroke:#000000;stroke-linecap:square;stroke-width:0.8;"/>
   </g>
   <g id="Line3DCollection_1">
    <path d="M 142.435072 365.735527 
L 252.931929 271.2158 
L 252.392932 92.149433 
" style="fill:none;stroke:#b0b0b0;stroke-width:0.8;"/>
    <path d="M 174.89357 376.084024 
L 283.837847 280.117272 
L 284.871432 100.124104 
" style="fill:none;stroke:#b0b0b0;stroke-width:0.8;"/>
    <path d="M 207.869899 386.597618 
L 315.200661 289.150337 
L 317.854763 108.222731 
" style="fill:none;stroke:#b0b0b0;stroke-width:0.8;"/>
    <path d="M 241.376552 397.280291 
L 347.030578 298.317937 
L 351.354786 116.448224 
" style="fill:none;stroke:#b0b0b0;stroke-width:0.8;"/>
    <path d="M 275.426424 408.136154 
L 379.338112 307.6231 
L 385.38374 124.803589 
" style="fill:none;stroke:#b0b0b0;stroke-width:0.8;"/>
   </g>
   <g id="xtick_1">
    <g id="line2d_2">
     <path d="M 143.387326 364.920962 
L 140.526998 367.367706 
" style="fill:none;stroke:#000000;stroke-linecap:square;stroke-width:0.8;"/>
    </g>
    <g id="text_1">
     <!-- −40 -->
     <defs>
      <path d="M 10.59375 35.5 
L 73.1875 35.5 
L 73.1875 27.203125 
L 10.59375 27.203125 
z
" id="DejaVuSans-2212"/>
      <path d="M 37.796875 64.3125 
L 12.890625 25.390625 
L 37.796875 25.390625 
z
M 35.203125 72.90625 
L 47.609375 72.90625 
L 47.609375 25.390625 
L 58.015625 25.390625 
L 58.015625 17.1875 
L 47.609375 17.1875 
L 47.609375 0 
L 37.796875 0 
L 37.796875 17.1875 
L 4.890625 17.1875 
L 4.890625 26.703125 
z
" id="DejaVuSans-34"/>
      <path d="M 31.78125 66.40625 
Q 24.171875 66.40625 20.328125 58.90625 
Q 16.5 51.421875 16.5 36.375 
Q 16.5 21.390625 20.328125 13.890625 
Q 24.171875 6.390625 31.78125 6.390625 
Q 39.453125 6.390625 43.28125 13.890625 
Q 47.125 21.390625 47.125 36.375 
Q 47.125 51.421875 43.28125 58.90625 
Q 39.453125 66.40625 31.78125 66.40625 
z
M 31.78125 74.21875 
Q 44.046875 74.21875 50.515625 64.515625 
Q 56.984375 54.828125 56.984375 36.375 
Q 56.984375 17.96875 50.515625 8.265625 
Q 44.046875 -1.421875 31.78125 -1.421875 
Q 19.53125 -1.421875 13.0625 8.265625 
Q 6.59375 17.96875 6.59375 36.375 
Q 6.59375 54.828125 13.0625 64.515625 
Q 19.53125 74.21875 31.78125 74.21875 
z
" id="DejaVuSans-30"/>
     </defs>
     <g transform="translate(125.412571 389.432359)scale(0.1 -0.1)">
      <use xlink:href="#DejaVuSans-2212"/>
      <use x="83.789062" xlink:href="#DejaVuSans-34"/>
      <use x="147.412109" xlink:href="#DejaVuSans-30"/>
     </g>
    </g>
   </g>
   <g id="xtick_2">
    <g id="line2d_3">
     <path d="M 175.832977 375.256521 
L 173.011211 377.742155 
" style="fill:none;stroke:#000000;stroke-linecap:square;stroke-width:0.8;"/>
    </g>
    <g id="text_2">
     <!-- −20 -->
     <defs>
      <path d="M 19.1875 8.296875 
L 53.609375 8.296875 
L 53.609375 0 
L 7.328125 0 
L 7.328125 8.296875 
Q 12.9375 14.109375 22.625 23.890625 
Q 32.328125 33.6875 34.8125 36.53125 
Q 39.546875 41.84375 41.421875 45.53125 
Q 43.3125 49.21875 43.3125 52.78125 
Q 43.3125 58.59375 39.234375 62.25 
Q 35.15625 65.921875 28.609375 65.921875 
Q 23.96875 65.921875 18.8125 64.3125 
Q 13.671875 62.703125 7.8125 59.421875 
L 7.8125 69.390625 
Q 13.765625 71.78125 18.9375 73 
Q 24.125 74.21875 28.421875 74.21875 
Q 39.75 74.21875 46.484375 68.546875 
Q 53.21875 62.890625 53.21875 53.421875 
Q 53.21875 48.921875 51.53125 44.890625 
Q 49.859375 40.875 45.40625 35.40625 
Q 44.1875 33.984375 37.640625 27.21875 
Q 31.109375 20.453125 19.1875 8.296875 
z
" id="DejaVuSans-32"/>
     </defs>
     <g transform="translate(157.86852 399.923981)scale(0.1 -0.1)">
      <use xlink:href="#DejaVuSans-2212"/>
      <use x="83.789062" xlink:href="#DejaVuSans-32"/>
      <use x="147.412109" xlink:href="#DejaVuSans-30"/>
     </g>
    </g>
   </g>
   <g id="xtick_3">
    <g id="line2d_4">
     <path d="M 208.795926 385.756864 
L 206.014324 388.282324 
" style="fill:none;stroke:#000000;stroke-linecap:square;stroke-width:0.8;"/>
    </g>
    <g id="text_3">
     <!-- 0 -->
     <g transform="translate(198.214136 410.583237)scale(0.1 -0.1)">
      <use xlink:href="#DejaVuSans-30"/>
     </g>
    </g>
   </g>
   <g id="xtick_4">
    <g id="line2d_5">
     <path d="M 242.288645 396.425966 
L 239.548868 398.992217 
" style="fill:none;stroke:#000000;stroke-linecap:square;stroke-width:0.8;"/>
    </g>
    <g id="text_4">
     <!-- 20 -->
     <g transform="translate(228.538512 421.414176)scale(0.1 -0.1)">
      <use xlink:href="#DejaVuSans-32"/>
      <use x="63.623047" xlink:href="#DejaVuSans-30"/>
     </g>
    </g>
   </g>
   <g id="xtick_5">
    <g id="line2d_6">
     <path d="M 276.324008 407.267927 
L 273.627785 409.875965 
" style="fill:none;stroke:#000000;stroke-linecap:square;stroke-width:0.8;"/>
    </g>
    <g id="text_5">
     <!-- 40 -->
     <g transform="translate(262.588176 432.420979)scale(0.1 -0.1)">
      <use xlink:href="#DejaVuSans-34"/>
      <use x="63.623047" xlink:href="#DejaVuSans-30"/>
     </g>
    </g>
   </g>
  </g>
  <g id="axis3d_2">
   <g id="line2d_7">
    <path d="M 407.663976 315.781468 
L 305.313474 417.664816 
" style="fill:none;stroke:#000000;stroke-linecap:square;stroke-width:0.8;"/>
   </g>
   <g id="Line3DCollection_2">
    <path d="M 125.715754 155.660446 
L 132.746198 341.925005 
L 321.808646 401.244932 
" style="fill:none;stroke:#b0b0b0;stroke-width:0.8;"/>
    <path d="M 147.156989 140.43247 
L 153.015791 325.009186 
L 340.397328 382.741094 
" style="fill:none;stroke:#b0b0b0;stroke-width:0.8;"/>
    <path d="M 168.011416 125.621257 
L 172.758195 308.533327 
L 358.480808 364.740151 
" style="fill:none;stroke:#b0b0b0;stroke-width:0.8;"/>
    <path d="M 188.302799 111.209928 
L 191.993714 292.480486 
L 376.079406 347.221878 
" style="fill:none;stroke:#b0b0b0;stroke-width:0.8;"/>
    <path d="M 208.053638 97.182505 
L 210.741622 276.834576 
L 393.212366 330.167117 
" style="fill:none;stroke:#b0b0b0;stroke-width:0.8;"/>
   </g>
   <g id="xtick_6">
    <g id="line2d_8">
     <path d="M 320.226847 400.748629 
L 324.975755 402.238639 
" style="fill:none;stroke:#000000;stroke-linecap:square;stroke-width:0.8;"/>
    </g>
    <g id="text_6">
     <!-- −40 -->
     <g transform="translate(322.401193 422.801102)scale(0.1 -0.1)">
      <use xlink:href="#DejaVuSans-2212"/>
      <use x="83.789062" xlink:href="#DejaVuSans-34"/>
      <use x="147.412109" xlink:href="#DejaVuSans-30"/>
     </g>
    </g>
   </g>
   <g id="xtick_7">
    <g id="line2d_9">
     <path d="M 338.830538 382.258369 
L 343.534337 383.707601 
" style="fill:none;stroke:#000000;stroke-linecap:square;stroke-width:0.8;"/>
    </g>
    <g id="text_7">
     <!-- −20 -->
     <g transform="translate(340.828901 404.112525)scale(0.1 -0.1)">
      <use xlink:href="#DejaVuSans-2212"/>
      <use x="83.789062" xlink:href="#DejaVuSans-32"/>
      <use x="147.412109" xlink:href="#DejaVuSans-30"/>
     </g>
    </g>
   </g>
   <g id="xtick_8">
    <g id="line2d_10">
     <path d="M 356.928801 364.270454 
L 361.588172 365.68056 
" style="fill:none;stroke:#000000;stroke-linecap:square;stroke-width:0.8;"/>
    </g>
    <g id="text_8">
     <!-- 0 -->
     <g transform="translate(366.127077 385.931661)scale(0.1 -0.1)">
      <use xlink:href="#DejaVuSans-30"/>
     </g>
    </g>
   </g>
   <g id="xtick_9">
    <g id="line2d_11">
     <path d="M 374.541958 346.764688 
L 379.157577 348.137231 
" style="fill:none;stroke:#000000;stroke-linecap:square;stroke-width:0.8;"/>
    </g>
    <g id="text_9">
     <!-- 20 -->
     <g transform="translate(380.392408 368.2381)scale(0.1 -0.1)">
      <use xlink:href="#DejaVuSans-32"/>
      <use x="63.623047" xlink:href="#DejaVuSans-30"/>
     </g>
    </g>
   </g>
   <g id="xtick_10">
    <g id="line2d_12">
     <path d="M 391.689255 329.721942 
L 396.26179 331.058402 
" style="fill:none;stroke:#000000;stroke-linecap:square;stroke-width:0.8;"/>
    </g>
    <g id="text_10">
     <!-- 40 -->
     <g transform="translate(397.377553 351.012508)scale(0.1 -0.1)">
      <use xlink:href="#DejaVuSans-34"/>
      <use x="63.623047" xlink:href="#DejaVuSans-30"/>
     </g>
    </g>
   </g>
  </g>
  <g id="axis3d_3">
   <g id="line2d_13">
    <path d="M 407.663976 315.781468 
L 415.240655 132.134565 
" style="fill:none;stroke:#000000;stroke-linecap:square;stroke-width:0.8;"/>
   </g>
   <g id="Line3DCollection_3">
    <path d="M 407.873123 310.712087 
L 226.520344 258.692184 
L 114.557004 351.744721 
" style="fill:none;stroke:#b0b0b0;stroke-width:0.8;"/>
    <path d="M 409.242355 277.524033 
L 226.183431 226.421956 
L 113.096145 317.86112 
" style="fill:none;stroke:#b0b0b0;stroke-width:0.8;"/>
    <path d="M 410.637821 243.700093 
L 225.840336 193.559576 
L 111.606362 283.306619 
" style="fill:none;stroke:#b0b0b0;stroke-width:0.8;"/>
    <path d="M 412.060284 209.221815 
L 225.490887 160.088594 
L 110.086785 248.061093 
" style="fill:none;stroke:#b0b0b0;stroke-width:0.8;"/>
    <path d="M 413.510533 174.070027 
L 225.134906 125.991946 
L 108.536513 212.103604 
" style="fill:none;stroke:#b0b0b0;stroke-width:0.8;"/>
    <path d="M 414.989391 138.224798 
L 224.772208 91.251923 
L 106.954606 175.41236 
" style="fill:none;stroke:#b0b0b0;stroke-width:0.8;"/>
   </g>
   <g id="xtick_11">
    <g id="line2d_14">
     <path d="M 406.359965 310.278047 
L 410.902588 311.58107 
" style="fill:none;stroke:#000000;stroke-linecap:square;stroke-width:0.8;"/>
    </g>
    <g id="text_11">
     <!-- 0 -->
     <g transform="translate(420.927043 316.039351)scale(0.1 -0.1)">
      <use xlink:href="#DejaVuSans-30"/>
     </g>
    </g>
   </g>
   <g id="xtick_12">
    <g id="line2d_15">
     <path d="M 407.714364 277.097484 
L 412.301546 278.378026 
" style="fill:none;stroke:#000000;stroke-linecap:square;stroke-width:0.8;"/>
    </g>
    <g id="text_12">
     <!-- 2 -->
     <g transform="translate(422.447544 282.890528)scale(0.1 -0.1)">
      <use xlink:href="#DejaVuSans-32"/>
     </g>
    </g>
   </g>
   <g id="xtick_13">
    <g id="line2d_16">
     <path d="M 409.094705 243.281404 
L 413.727327 244.538359 
" style="fill:none;stroke:#000000;stroke-linecap:square;stroke-width:0.8;"/>
    </g>
    <g id="text_13">
     <!-- 4 -->
     <g transform="translate(423.997125 249.107745)scale(0.1 -0.1)">
      <use xlink:href="#DejaVuSans-34"/>
     </g>
    </g>
   </g>
   <g id="xtick_14">
    <g id="line2d_17">
     <path d="M 410.501739 208.811371 
L 415.18071 210.043583 
" style="fill:none;stroke:#000000;stroke-linecap:square;stroke-width:0.8;"/>
    </g>
    <g id="text_14">
     <!-- 6 -->
     <defs>
      <path d="M 33.015625 40.375 
Q 26.375 40.375 22.484375 35.828125 
Q 18.609375 31.296875 18.609375 23.390625 
Q 18.609375 15.53125 22.484375 10.953125 
Q 26.375 6.390625 33.015625 6.390625 
Q 39.65625 6.390625 43.53125 10.953125 
Q 47.40625 15.53125 47.40625 23.390625 
Q 47.40625 31.296875 43.53125 35.828125 
Q 39.65625 40.375 33.015625 40.375 
z
M 52.59375 71.296875 
L 52.59375 62.3125 
Q 48.875 64.0625 45.09375 64.984375 
Q 41.3125 65.921875 37.59375 65.921875 
Q 27.828125 65.921875 22.671875 59.328125 
Q 17.53125 52.734375 16.796875 39.40625 
Q 19.671875 43.65625 24.015625 45.921875 
Q 28.375 48.1875 33.59375 48.1875 
Q 44.578125 48.1875 50.953125 41.515625 
Q 57.328125 34.859375 57.328125 23.390625 
Q 57.328125 12.15625 50.6875 5.359375 
Q 44.046875 -1.421875 33.015625 -1.421875 
Q 20.359375 -1.421875 13.671875 8.265625 
Q 6.984375 17.96875 6.984375 36.375 
Q 6.984375 53.65625 15.1875 63.9375 
Q 23.390625 74.21875 37.203125 74.21875 
Q 40.921875 74.21875 44.703125 73.484375 
Q 48.484375 72.75 52.59375 71.296875 
z
" id="DejaVuSans-36"/>
     </defs>
     <g transform="translate(425.576627 214.672639)scale(0.1 -0.1)">
      <use xlink:href="#DejaVuSans-36"/>
     </g>
    </g>
   </g>
   <g id="xtick_15">
    <g id="line2d_18">
     <path d="M 411.936249 173.668231 
L 416.662504 174.874487 
" style="fill:none;stroke:#000000;stroke-linecap:square;stroke-width:0.8;"/>
    </g>
    <g id="text_15">
     <!-- 8 -->
     <defs>
      <path d="M 31.78125 34.625 
Q 24.75 34.625 20.71875 30.859375 
Q 16.703125 27.09375 16.703125 20.515625 
Q 16.703125 13.921875 20.71875 10.15625 
Q 24.75 6.390625 31.78125 6.390625 
Q 38.8125 6.390625 42.859375 10.171875 
Q 46.921875 13.96875 46.921875 20.515625 
Q 46.921875 27.09375 42.890625 30.859375 
Q 38.875 34.625 31.78125 34.625 
z
M 21.921875 38.8125 
Q 15.578125 40.375 12.03125 44.71875 
Q 8.5 49.078125 8.5 55.328125 
Q 8.5 64.0625 14.71875 69.140625 
Q 20.953125 74.21875 31.78125 74.21875 
Q 42.671875 74.21875 48.875 69.140625 
Q 55.078125 64.0625 55.078125 55.328125 
Q 55.078125 49.078125 51.53125 44.71875 
Q 48 40.375 41.703125 38.8125 
Q 48.828125 37.15625 52.796875 32.3125 
Q 56.78125 27.484375 56.78125 20.515625 
Q 56.78125 9.90625 50.3125 4.234375 
Q 43.84375 -1.421875 31.78125 -1.421875 
Q 19.734375 -1.421875 13.25 4.234375 
Q 6.78125 9.90625 6.78125 20.515625 
Q 6.78125 27.484375 10.78125 32.3125 
Q 14.796875 37.15625 21.921875 38.8125 
z
M 18.3125 54.390625 
Q 18.3125 48.734375 21.84375 45.5625 
Q 25.390625 42.390625 31.78125 42.390625 
Q 38.140625 42.390625 41.71875 45.5625 
Q 45.3125 48.734375 45.3125 54.390625 
Q 45.3125 60.0625 41.71875 63.234375 
Q 38.140625 66.40625 31.78125 66.40625 
Q 25.390625 66.40625 21.84375 63.234375 
Q 18.3125 60.0625 18.3125 54.390625 
z
" id="DejaVuSans-38"/>
     </defs>
     <g transform="translate(427.186925 179.566133)scale(0.1 -0.1)">
      <use xlink:href="#DejaVuSans-38"/>
     </g>
    </g>
   </g>
   <g id="xtick_16">
    <g id="line2d_19">
     <path d="M 413.399048 137.832073 
L 418.173551 139.011105 
" style="fill:none;stroke:#000000;stroke-linecap:square;stroke-width:0.8;"/>
    </g>
    <g id="text_16">
     <!-- 10 -->
     <defs>
      <path d="M 12.40625 8.296875 
L 28.515625 8.296875 
L 28.515625 63.921875 
L 10.984375 60.40625 
L 10.984375 69.390625 
L 28.421875 72.90625 
L 38.28125 72.90625 
L 38.28125 8.296875 
L 54.390625 8.296875 
L 54.390625 0 
L 12.40625 0 
z
" id="DejaVuSans-31"/>
     </defs>
     <g transform="translate(425.64768 143.768397)scale(0.1 -0.1)">
      <use xlink:href="#DejaVuSans-31"/>
      <use x="63.623047" xlink:href="#DejaVuSans-30"/>
     </g>
    </g>
   </g>
  </g>
  <g id="axes_1">
   <g id="Poly3DCollection_1">
    <path clip-path="url(#p3f9af1f79e)" d="M 226.192919 271.461799 
L 234.276938 273.805496 
L 239.067939 269.751815 
L 231.001618 267.423708 
L 226.192919 271.461799 
z
" style="fill:#3b4cc0;fill-opacity:0.5;"/>
    <path clip-path="url(#p3f9af1f79e)" d="M 234.276938 273.805496 
L 242.392246 276.158263 
L 247.165377 272.088904 
L 239.067939 269.751815 
L 234.276938 273.805496 
z
" style="fill:#3b4cc0;fill-opacity:0.5;"/>
    <path clip-path="url(#p3f9af1f79e)" d="M 221.352 275.526948 
L 229.453773 277.88639 
L 234.276938 273.805496 
L 226.192919 271.461799 
L 221.352 275.526948 
z
" style="fill:#3b4cc0;fill-opacity:0.5;"/>
    <path clip-path="url(#p3f9af1f79e)" d="M 242.392246 276.158263 
L 250.539026 278.520154 
L 255.294111 274.435026 
L 247.165377 272.088904 
L 242.392246 276.158263 
z
" style="fill:#3b4cc0;fill-opacity:0.5;"/>
    <path clip-path="url(#p3f9af1f79e)" d="M 229.453773 277.88639 
L 237.58701 280.254994 
L 242.392246 276.158263 
L 234.276938 273.805496 
L 229.453773 277.88639 
z
" style="fill:#3b4cc0;fill-opacity:0.5;"/>
    <path clip-path="url(#p3f9af1f79e)" d="M 250.539026 278.520154 
L 258.71746 280.891223 
L 263.454325 276.790233 
L 255.294111 274.435026 
L 250.539026 278.520154 
z
" style="fill:#3b4cc0;fill-opacity:0.5;"/>
    <path clip-path="url(#p3f9af1f79e)" d="M 216.478536 279.619427 
L 224.598119 281.994773 
L 229.453773 277.88639 
L 221.352 275.526948 
L 216.478536 279.619427 
z
" style="fill:#3b4cc0;fill-opacity:0.5;"/>
    <path clip-path="url(#p3f9af1f79e)" d="M 237.58701 280.254994 
L 245.751893 282.632815 
L 250.539026 278.520154 
L 242.392246 276.158263 
L 237.58701 280.254994 
z
" style="fill:#3b4cc0;fill-opacity:0.5;"/>
    <path clip-path="url(#p3f9af1f79e)" d="M 258.71746 280.891223 
L 266.927734 283.271523 
L 271.6462 279.154578 
L 263.454325 276.790233 
L 258.71746 280.891223 
z
" style="fill:#3b4cc0;fill-opacity:0.5;"/>
    <path clip-path="url(#p3f9af1f79e)" d="M 224.598119 281.994773 
L 232.749342 284.379375 
L 237.58701 280.254994 
L 229.453773 277.88639 
L 224.598119 281.994773 
z
" style="fill:#3b4cc0;fill-opacity:0.5;"/>
    <path clip-path="url(#p3f9af1f79e)" d="M 245.751893 282.632815 
L 253.948609 285.019906 
L 258.71746 280.891223 
L 250.539026 278.520154 
L 245.751893 282.632815 
z
" style="fill:#3b4cc0;fill-opacity:0.5;"/>
    <path clip-path="url(#p3f9af1f79e)" d="M 266.927734 283.271523 
L 275.170034 285.661107 
L 279.869922 281.528115 
L 271.6462 279.154578 
L 266.927734 283.271523 
z
" style="fill:#3b4cc0;fill-opacity:0.5;"/>
    <path clip-path="url(#p3f9af1f79e)" d="M 211.572197 283.739512 
L 219.709647 286.130924 
L 224.598119 281.994773 
L 216.478536 279.619427 
L 211.572197 283.739512 
z
" style="fill:#3b4cc0;fill-opacity:0.5;"/>
    <path clip-path="url(#p3f9af1f79e)" d="M 232.749342 284.379375 
L 240.932388 286.773287 
L 245.751893 282.632815 
L 237.58701 280.254994 
L 232.749342 284.379375 
z
" style="fill:#3b4cc0;fill-opacity:0.5;"/>
    <path clip-path="url(#p3f9af1f79e)" d="M 253.948609 285.019906 
L 262.177344 287.416322 
L 266.927734 283.271523 
L 258.71746 280.891223 
L 253.948609 285.019906 
z
" style="fill:#3b4cc0;fill-opacity:0.5;"/>
    <path clip-path="url(#p3f9af1f79e)" d="M 275.170034 285.661107 
L 283.444547 288.060031 
L 288.125676 283.910897 
L 279.869922 281.528115 
L 275.170034 285.661107 
z
" style="fill:#3b4cc0;fill-opacity:0.5;"/>
    <path clip-path="url(#p3f9af1f79e)" d="M 219.709647 286.130924 
L 227.878913 288.531686 
L 232.749342 284.379375 
L 224.598119 281.994773 
L 219.709647 286.130924 
z
" style="fill:#3b4cc0;fill-opacity:0.5;"/>
    <path clip-path="url(#p3f9af1f79e)" d="M 240.932388 286.773287 
L 249.147446 289.176564 
L 253.948609 285.019906 
L 245.751893 282.632815 
L 240.932388 286.773287 
z
" style="fill:#3b4cc0;fill-opacity:0.5;"/>
    <path clip-path="url(#p3f9af1f79e)" d="M 262.177344 287.416322 
L 270.438285 289.822118 
L 275.170034 285.661107 
L 266.927734 283.271523 
L 262.177344 287.416322 
z
" style="fill:#3b4cc0;fill-opacity:0.5;"/>
    <path clip-path="url(#p3f9af1f79e)" d="M 206.632649 287.887484 
L 214.788022 290.295125 
L 219.709647 286.130924 
L 211.572197 283.739512 
L 206.632649 287.887484 
z
" style="fill:#3b4cc0;fill-opacity:0.5;"/>
    <path clip-path="url(#p3f9af1f79e)" d="M 283.444547 288.060031 
L 291.751464 290.468349 
L 296.413651 286.302979 
L 288.125676 283.910897 
L 283.444547 288.060031 
z
" style="fill:#3b4cc0;fill-opacity:0.5;"/>
    <path clip-path="url(#p3f9af1f79e)" d="M 227.878913 288.531686 
L 236.080182 290.941853 
L 240.932388 286.773287 
L 232.749342 284.379375 
L 227.878913 288.531686 
z
" style="fill:#3b4cc0;fill-opacity:0.5;"/>
    <path clip-path="url(#p3f9af1f79e)" d="M 249.147446 289.176564 
L 257.394704 291.58926 
L 262.177344 287.416322 
L 253.948609 285.019906 
L 249.147446 289.176564 
z
" style="fill:#3b4cc0;fill-opacity:0.5;"/>
    <path clip-path="url(#p3f9af1f79e)" d="M 270.438285 289.822118 
L 278.731622 292.237348 
L 283.444547 288.060031 
L 275.170034 285.661107 
L 270.438285 289.822118 
z
" style="fill:#3b4cc0;fill-opacity:0.5;"/>
    <path clip-path="url(#p3f9af1f79e)" d="M 214.788022 290.295125 
L 222.975389 292.712212 
L 227.878913 288.531686 
L 219.709647 286.130924 
L 214.788022 290.295125 
z
" style="fill:#3b4cc0;fill-opacity:0.5;"/>
    <path clip-path="url(#p3f9af1f79e)" d="M 291.751464 290.468349 
L 300.090974 292.886116 
L 304.734034 288.704414 
L 296.413651 286.302979 
L 291.751464 290.468349 
z
" style="fill:#3b4cc0;fill-opacity:0.5;"/>
    <path clip-path="url(#p3f9af1f79e)" d="M 236.080182 290.941853 
L 244.313642 293.36148 
L 249.147446 289.176564 
L 240.932388 286.773287 
L 236.080182 290.941853 
z
" style="fill:#3b4cc0;fill-opacity:0.5;"/>
    <path clip-path="url(#p3f9af1f79e)" d="M 257.394704 291.58926 
L 265.67435 294.011432 
L 270.438285 289.822118 
L 262.177344 287.416322 
L 257.394704 291.58926 
z
" style="fill:#3b4cc0;fill-opacity:0.5;"/>
    <path clip-path="url(#p3f9af1f79e)" d="M 201.659555 292.063626 
L 209.832907 294.487663 
L 214.788022 290.295125 
L 206.632649 287.887484 
L 201.659555 292.063626 
z
" style="fill:#3b4cc0;fill-opacity:0.5;"/>
    <path clip-path="url(#p3f9af1f79e)" d="M 278.731622 292.237348 
L 287.057547 294.662068 
L 291.751464 290.468349 
L 283.444547 288.060031 
L 278.731622 292.237348 
z
" style="fill:#3b4cc0;fill-opacity:0.5;"/>
    <path clip-path="url(#p3f9af1f79e)" d="M 222.975389 292.712212 
L 231.19494 295.1388 
L 236.080182 290.941853 
L 227.878913 288.531686 
L 222.975389 292.712212 
z
" style="fill:#3b4cc0;fill-opacity:0.5;"/>
    <path clip-path="url(#p3f9af1f79e)" d="M 300.090974 292.886116 
L 308.463269 295.313389 
L 313.087018 291.115259 
L 304.734034 288.704414 
L 300.090974 292.886116 
z
" style="fill:#3b4cc0;fill-opacity:0.5;"/>
    <path clip-path="url(#p3f9af1f79e)" d="M 244.313642 293.36148 
L 252.579484 295.790624 
L 257.394704 291.58926 
L 249.147446 289.176564 
L 244.313642 293.36148 
z
" style="fill:#3b4cc0;fill-opacity:0.5;"/>
    <path clip-path="url(#p3f9af1f79e)" d="M 265.67435 294.011432 
L 273.986576 296.443135 
L 278.731622 292.237348 
L 270.438285 289.822118 
L 265.67435 294.011432 
z
" style="fill:#3b4cc0;fill-opacity:0.5;"/>
    <path clip-path="url(#p3f9af1f79e)" d="M 209.832907 294.487663 
L 218.038433 296.921242 
L 222.975389 292.712212 
L 214.788022 290.295125 
L 209.832907 294.487663 
z
" style="fill:#3b4cc0;fill-opacity:0.5;"/>
    <path clip-path="url(#p3f9af1f79e)" d="M 287.057547 294.662068 
L 295.416251 297.096334 
L 300.090974 292.886116 
L 291.751464 290.468349 
L 287.057547 294.662068 
z
" style="fill:#3b4cc0;fill-opacity:0.5;"/>
    <path clip-path="url(#p3f9af1f79e)" d="M 231.19494 295.1388 
L 239.446863 297.574946 
L 244.313642 293.36148 
L 236.080182 290.941853 
L 231.19494 295.1388 
z
" style="fill:#3b4cc0;fill-opacity:0.5;"/>
    <path clip-path="url(#p3f9af1f79e)" d="M 308.463269 295.313389 
L 316.868544 297.750223 
L 321.472793 293.535567 
L 313.087018 291.115259 
L 308.463269 295.313389 
z
" style="fill:#3b4cc0;fill-opacity:0.5;"/>
    <path clip-path="url(#p3f9af1f79e)" d="M 252.579484 295.790624 
L 260.877899 298.22934 
L 265.67435 294.011432 
L 257.394704 291.58926 
L 252.579484 295.790624 
z
" style="fill:#3b4cc0;fill-opacity:0.5;"/>
    <path clip-path="url(#p3f9af1f79e)" d="M 196.652571 296.268228 
L 204.843958 298.708828 
L 209.832907 294.487663 
L 201.659555 292.063626 
L 196.652571 296.268228 
z
" style="fill:#3b4cc0;fill-opacity:0.5;"/>
    <path clip-path="url(#p3f9af1f79e)" d="M 273.986576 296.443135 
L 282.331575 298.884425 
L 287.057547 294.662068 
L 278.731622 292.237348 
L 273.986576 296.443135 
z
" style="fill:#3b4cc0;fill-opacity:0.5;"/>
    <path clip-path="url(#p3f9af1f79e)" d="M 218.038433 296.921242 
L 226.276323 299.36442 
L 231.19494 295.1388 
L 222.975389 292.712212 
L 218.038433 296.921242 
z
" style="fill:#3b4cc0;fill-opacity:0.5;"/>
    <path clip-path="url(#p3f9af1f79e)" d="M 295.416251 297.096334 
L 303.807928 299.540203 
L 308.463269 295.313389 
L 300.090974 292.886116 
L 295.416251 297.096334 
z
" style="fill:#3b4cc0;fill-opacity:0.5;"/>
    <path clip-path="url(#p3f9af1f79e)" d="M 239.446863 297.574946 
L 247.731352 300.020705 
L 252.579484 295.790624 
L 244.313642 293.36148 
L 239.446863 297.574946 
z
" style="fill:#3b4cc0;fill-opacity:0.5;"/>
    <path clip-path="url(#p3f9af1f79e)" d="M 316.868544 297.750223 
L 325.306994 300.196674 
L 329.891552 295.965396 
L 321.472793 293.535567 
L 316.868544 297.750223 
z
" style="fill:#3b4cc0;fill-opacity:0.5;"/>
    <path clip-path="url(#p3f9af1f79e)" d="M 260.877899 298.22934 
L 269.209079 300.677685 
L 273.986576 296.443135 
L 265.67435 294.011432 
L 260.877899 298.22934 
z
" style="fill:#3b4cc0;fill-opacity:0.5;"/>
    <path clip-path="url(#p3f9af1f79e)" d="M 204.843958 298.708828 
L 213.0677 301.159068 
L 218.038433 296.921242 
L 209.832907 294.487663 
L 204.843958 298.708828 
z
" style="fill:#3b4cc0;fill-opacity:0.5;"/>
    <path clip-path="url(#p3f9af1f79e)" d="M 282.331575 298.884425 
L 290.709541 301.33536 
L 295.416251 297.096334 
L 287.057547 294.662068 
L 282.331575 298.884425 
z
" style="fill:#3b4cc0;fill-opacity:0.5;"/>
    <path clip-path="url(#p3f9af1f79e)" d="M 226.276323 299.36442 
L 234.54677 301.817253 
L 239.446863 297.574946 
L 231.19494 295.1388 
L 226.276323 299.36442 
z
" style="fill:#3b4cc0;fill-opacity:0.5;"/>
    <path clip-path="url(#p3f9af1f79e)" d="M 303.807928 299.540203 
L 312.232775 301.993732 
L 316.868544 297.750223 
L 308.463269 295.313389 
L 303.807928 299.540203 
z
" style="fill:#3b4cc0;fill-opacity:0.5;"/>
    <path clip-path="url(#p3f9af1f79e)" d="M 247.731352 300.020705 
L 256.048598 302.476135 
L 260.877899 298.22934 
L 252.579484 295.790624 
L 247.731352 300.020705 
z
" style="fill:#3b4cc0;fill-opacity:0.5;"/>
    <path clip-path="url(#p3f9af1f79e)" d="M 325.306994 300.196674 
L 333.778816 302.652801 
L 338.343492 298.404802 
L 329.891552 295.965396 
L 325.306994 300.196674 
z
" style="fill:#3b4cc0;fill-opacity:0.5;"/>
    <path clip-path="url(#p3f9af1f79e)" d="M 191.61135 300.50158 
L 199.820827 302.958913 
L 204.843958 298.708828 
L 196.652571 296.268228 
L 191.61135 300.50158 
z
" style="fill:#3b4cc0;fill-opacity:0.5;"/>
    <path clip-path="url(#p3f9af1f79e)" d="M 269.209079 300.677685 
L 277.573219 303.135716 
L 282.331575 298.884425 
L 273.986576 296.443135 
L 269.209079 300.677685 
z
" style="fill:#3b4cc0;fill-opacity:0.5;"/>
    <path clip-path="url(#p3f9af1f79e)" d="M 213.0677 301.159068 
L 221.323989 303.619006 
L 226.276323 299.36442 
L 218.038433 296.921242 
L 213.0677 301.159068 
z
" style="fill:#3b4cc0;fill-opacity:0.5;"/>
    <path clip-path="url(#p3f9af1f79e)" d="M 290.709541 301.33536 
L 299.12067 303.795996 
L 303.807928 299.540203 
L 295.416251 297.096334 
L 290.709541 301.33536 
z
" style="fill:#3b4cc0;fill-opacity:0.5;"/>
    <path clip-path="url(#p3f9af1f79e)" d="M 234.54677 301.817253 
L 242.849967 304.279799 
L 247.731352 300.020705 
L 239.446863 297.574946 
L 234.54677 301.817253 
z
" style="fill:#3b4cc0;fill-opacity:0.5;"/>
    <path clip-path="url(#p3f9af1f79e)" d="M 312.232775 301.993732 
L 320.690988 304.456977 
L 325.306994 300.196674 
L 316.868544 297.750223 
L 312.232775 301.993732 
z
" style="fill:#3b4cc0;fill-opacity:0.5;"/>
    <path clip-path="url(#p3f9af1f79e)" d="M 256.048598 302.476135 
L 264.398797 304.941294 
L 269.209079 300.677685 
L 260.877899 298.22934 
L 256.048598 302.476135 
z
" style="fill:#3b4cc0;fill-opacity:0.5;"/>
    <path clip-path="url(#p3f9af1f79e)" d="M 333.778816 302.652801 
L 342.284207 305.11866 
L 346.828809 300.85384 
L 338.343492 298.404802 
L 333.778816 302.652801 
z
" style="fill:#3b4cc0;fill-opacity:0.5;"/>
    <path clip-path="url(#p3f9af1f79e)" d="M 199.820827 302.958913 
L 208.062842 305.425987 
L 213.0677 301.159068 
L 204.843958 298.708828 
L 199.820827 302.958913 
z
" style="fill:#3b4cc0;fill-opacity:0.5;"/>
    <path clip-path="url(#p3f9af1f79e)" d="M 277.573219 303.135716 
L 285.970516 305.603491 
L 290.709541 301.33536 
L 282.331575 298.884425 
L 277.573219 303.135716 
z
" style="fill:#3b4cc0;fill-opacity:0.5;"/>
    <path clip-path="url(#p3f9af1f79e)" d="M 221.323989 303.619006 
L 229.61302 306.088699 
L 234.54677 301.817253 
L 226.276323 299.36442 
L 221.323989 303.619006 
z
" style="fill:#3b4cc0;fill-opacity:0.5;"/>
    <path clip-path="url(#p3f9af1f79e)" d="M 299.12067 303.795996 
L 307.565159 306.266392 
L 312.232775 301.993732 
L 303.807928 299.540203 
L 299.12067 303.795996 
z
" style="fill:#3b4cc0;fill-opacity:0.5;"/>
    <path clip-path="url(#p3f9af1f79e)" d="M 242.849967 304.279799 
L 251.186109 306.752116 
L 256.048598 302.476135 
L 247.731352 300.020705 
L 242.849967 304.279799 
z
" style="fill:#3b4cc0;fill-opacity:0.5;"/>
    <path clip-path="url(#p3f9af1f79e)" d="M 320.690988 304.456977 
L 329.182765 306.929998 
L 333.778816 302.652801 
L 325.306994 300.196674 
L 320.690988 304.456977 
z
" style="fill:#3b4cc0;fill-opacity:0.5;"/>
    <path clip-path="url(#p3f9af1f79e)" d="M 186.535539 304.763978 
L 194.763163 307.238218 
L 199.820827 302.958913 
L 191.61135 300.50158 
L 186.535539 304.763978 
z
" style="fill:#3b4cc0;fill-opacity:0.5;"/>
    <path clip-path="url(#p3f9af1f79e)" d="M 264.398797 304.941294 
L 272.782145 307.416239 
L 277.573219 303.135716 
L 269.209079 300.677685 
L 264.398797 304.941294 
z
" style="fill:#3b4cc0;fill-opacity:0.5;"/>
    <path clip-path="url(#p3f9af1f79e)" d="M 342.284207 305.11866 
L 350.823368 307.59431 
L 355.3477 303.312569 
L 346.828809 300.85384 
L 342.284207 305.11866 
z
" style="fill:#3b4cc0;fill-opacity:0.5;"/>
    <path clip-path="url(#p3f9af1f79e)" d="M 208.062842 305.425987 
L 216.33759 307.902858 
L 221.323989 303.619006 
L 213.0677 301.159068 
L 208.062842 305.425987 
z
" style="fill:#3b4cc0;fill-opacity:0.5;"/>
    <path clip-path="url(#p3f9af1f79e)" d="M 285.970516 305.603491 
L 294.401166 308.081068 
L 299.12067 303.795996 
L 290.709541 301.33536 
L 285.970516 305.603491 
z
" style="fill:#3b4cc0;fill-opacity:0.5;"/>
    <path clip-path="url(#p3f9af1f79e)" d="M 229.61302 306.088699 
L 237.934988 308.568206 
L 242.849967 304.279799 
L 234.54677 301.817253 
L 229.61302 306.088699 
z
" style="fill:#3b4cc0;fill-opacity:0.5;"/>
    <path clip-path="url(#p3f9af1f79e)" d="M 307.565159 306.266392 
L 316.043207 308.746605 
L 320.690988 304.456977 
L 312.232775 301.993732 
L 307.565159 306.266392 
z
" style="fill:#3b4cc0;fill-opacity:0.5;"/>
    <path clip-path="url(#p3f9af1f79e)" d="M 251.186109 306.752116 
L 259.555392 309.234262 
L 264.398797 304.941294 
L 256.048598 302.476135 
L 251.186109 306.752116 
z
" style="fill:#3b4cc0;fill-opacity:0.5;"/>
    <path clip-path="url(#p3f9af1f79e)" d="M 329.182765 306.929998 
L 337.708307 309.412852 
L 342.284207 305.11866 
L 333.778816 302.652801 
L 329.182765 306.929998 
z
" style="fill:#3b4cc0;fill-opacity:0.5;"/>
    <path clip-path="url(#p3f9af1f79e)" d="M 194.763163 307.238218 
L 203.023509 309.722299 
L 208.062842 305.425987 
L 199.820827 302.958913 
L 194.763163 307.238218 
z
" style="fill:#3b4cc0;fill-opacity:0.5;"/>
    <path clip-path="url(#p3f9af1f79e)" d="M 272.782145 307.416239 
L 281.19884 309.901028 
L 285.970516 305.603491 
L 277.573219 303.135716 
L 272.782145 307.416239 
z
" style="fill:#3b4cc0;fill-opacity:0.5;"/>
    <path clip-path="url(#p3f9af1f79e)" d="M 350.823368 307.59431 
L 359.396501 310.079808 
L 363.900366 305.781046 
L 355.3477 303.312569 
L 350.823368 307.59431 
z
" style="fill:#3b4cc0;fill-opacity:0.5;"/>
    <path clip-path="url(#p3f9af1f79e)" d="M 216.33759 307.902858 
L 224.645265 310.389586 
L 229.61302 306.088699 
L 221.323989 303.619006 
L 216.33759 307.902858 
z
" style="fill:#3b4cc0;fill-opacity:0.5;"/>
    <path clip-path="url(#p3f9af1f79e)" d="M 294.401166 308.081068 
L 302.865369 310.568505 
L 307.565159 306.266392 
L 299.12067 303.795996 
L 294.401166 308.081068 
z
" style="fill:#3b4cc0;fill-opacity:0.5;"/>
    <path clip-path="url(#p3f9af1f79e)" d="M 237.934988 308.568206 
L 246.290088 311.057584 
L 251.186109 306.752116 
L 242.849967 304.279799 
L 237.934988 308.568206 
z
" style="fill:#3b4cc0;fill-opacity:0.5;"/>
    <path clip-path="url(#p3f9af1f79e)" d="M 316.043207 308.746605 
L 324.555015 311.236695 
L 329.182765 306.929998 
L 320.690988 304.456977 
L 316.043207 308.746605 
z
" style="fill:#3b4cc0;fill-opacity:0.5;"/>
    <path clip-path="url(#p3f9af1f79e)" d="M 181.424782 309.055723 
L 189.670607 311.547045 
L 194.763163 307.238218 
L 186.535539 304.763978 
L 181.424782 309.055723 
z
" style="fill:#3b4cc0;fill-opacity:0.5;"/>
    <path clip-path="url(#p3f9af1f79e)" d="M 259.555392 309.234262 
L 267.958014 311.726296 
L 272.782145 307.416239 
L 264.398797 304.941294 
L 259.555392 309.234262 
z
" style="fill:#3b4cc0;fill-opacity:0.5;"/>
    <path clip-path="url(#p3f9af1f79e)" d="M 337.708307 309.412852 
L 346.267816 311.905598 
L 350.823368 307.59431 
L 342.284207 305.11866 
L 337.708307 309.412852 
z
" style="fill:#3b4cc0;fill-opacity:0.5;"/>
    <path clip-path="url(#p3f9af1f79e)" d="M 203.023509 309.722299 
L 211.316773 312.216279 
L 216.33759 307.902858 
L 208.062842 305.425987 
L 203.023509 309.722299 
z
" style="fill:#3b4cc0;fill-opacity:0.5;"/>
    <path clip-path="url(#p3f9af1f79e)" d="M 281.19884 309.901028 
L 289.649081 312.395721 
L 294.401166 308.081068 
L 285.970516 305.603491 
L 281.19884 309.901028 
z
" style="fill:#3b4cc0;fill-opacity:0.5;"/>
    <path clip-path="url(#p3f9af1f79e)" d="M 359.396501 310.079808 
L 368.003808 312.575215 
L 372.487007 308.259329 
L 363.900366 305.781046 
L 359.396501 310.079808 
z
" style="fill:#3b4cc0;fill-opacity:0.5;"/>
    <path clip-path="url(#p3f9af1f79e)" d="M 224.645265 310.389586 
L 232.986065 312.886228 
L 237.934988 308.568206 
L 229.61302 306.088699 
L 224.645265 310.389586 
z
" style="fill:#3b4cc0;fill-opacity:0.5;"/>
    <path clip-path="url(#p3f9af1f79e)" d="M 302.865369 310.568505 
L 311.363325 313.065862 
L 316.043207 308.746605 
L 307.565159 306.266392 
L 302.865369 310.568505 
z
" style="fill:#3b4cc0;fill-opacity:0.5;"/>
    <path clip-path="url(#p3f9af1f79e)" d="M 246.290088 311.057584 
L 254.67852 313.556894 
L 259.555392 309.234262 
L 251.186109 306.752116 
L 246.290088 311.057584 
z
" style="fill:#3b4cc0;fill-opacity:0.5;"/>
    <path clip-path="url(#p3f9af1f79e)" d="M 324.555015 311.236695 
L 333.100784 313.73672 
L 337.708307 309.412852 
L 329.182765 306.929998 
L 324.555015 311.236695 
z
" style="fill:#3b4cc0;fill-opacity:0.5;"/>
    <path clip-path="url(#p3f9af1f79e)" d="M 189.670607 311.547045 
L 197.949341 314.048309 
L 203.023509 309.722299 
L 194.763163 307.238218 
L 189.670607 311.547045 
z
" style="fill:#3b4cc0;fill-opacity:0.5;"/>
    <path clip-path="url(#p3f9af1f79e)" d="M 267.958014 311.726296 
L 276.394176 314.228276 
L 281.19884 309.901028 
L 272.782145 307.416239 
L 267.958014 311.726296 
z
" style="fill:#3b4cc0;fill-opacity:0.5;"/>
    <path clip-path="url(#p3f9af1f79e)" d="M 346.267816 311.905598 
L 354.861494 314.408295 
L 359.396501 310.079808 
L 350.823368 307.59431 
L 346.267816 311.905598 
z
" style="fill:#3b4cc0;fill-opacity:0.5;"/>
    <path clip-path="url(#p3f9af1f79e)" d="M 211.316773 312.216279 
L 219.643152 314.720218 
L 224.645265 310.389586 
L 216.33759 307.902858 
L 211.316773 312.216279 
z
" style="fill:#3b4cc0;fill-opacity:0.5;"/>
    <path clip-path="url(#p3f9af1f79e)" d="M 289.649081 312.395721 
L 298.133069 314.900377 
L 302.865369 310.568505 
L 294.401166 308.081068 
L 289.649081 312.395721 
z
" style="fill:#3b4cc0;fill-opacity:0.5;"/>
    <path clip-path="url(#p3f9af1f79e)" d="M 368.003808 312.575215 
L 376.645494 315.080588 
L 381.107826 310.747476 
L 372.487007 308.259329 
L 368.003808 312.575215 
z
" style="fill:#3b4cc0;fill-opacity:0.5;"/>
    <path clip-path="url(#p3f9af1f79e)" d="M 232.986065 312.886228 
L 241.360187 315.392845 
L 246.290088 311.057584 
L 237.934988 308.568206 
L 232.986065 312.886228 
z
" style="fill:#3b4cc0;fill-opacity:0.5;"/>
    <path clip-path="url(#p3f9af1f79e)" d="M 311.363325 313.065862 
L 319.895237 315.573198 
L 324.555015 311.236695 
L 316.043207 308.746605 
L 311.363325 313.065862 
z
" style="fill:#3b4cc0;fill-opacity:0.5;"/>
    <path clip-path="url(#p3f9af1f79e)" d="M 176.278715 313.377119 
L 184.542798 315.8857 
L 189.670607 311.547045 
L 181.424782 309.055723 
L 176.278715 313.377119 
z
" style="fill:#3b4cc0;fill-opacity:0.5;"/>
    <path clip-path="url(#p3f9af1f79e)" d="M 254.67852 313.556894 
L 263.100483 316.066193 
L 267.958014 311.726296 
L 259.555392 309.234262 
L 254.67852 313.556894 
z
" style="fill:#3b4cc0;fill-opacity:0.5;"/>
    <path clip-path="url(#p3f9af1f79e)" d="M 333.100784 313.73672 
L 341.680718 316.246739 
L 346.267816 311.905598 
L 337.708307 309.412852 
L 333.100784 313.73672 
z
" style="fill:#3b4cc0;fill-opacity:0.5;"/>
    <path clip-path="url(#p3f9af1f79e)" d="M 197.949341 314.048309 
L 206.26118 316.559576 
L 211.316773 312.216279 
L 203.023509 309.722299 
L 197.949341 314.048309 
z
" style="fill:#3b4cc0;fill-opacity:0.5;"/>
    <path clip-path="url(#p3f9af1f79e)" d="M 276.394176 314.228276 
L 284.864077 316.740263 
L 289.649081 312.395721 
L 281.19884 309.901028 
L 276.394176 314.228276 
z
" style="fill:#3b4cc0;fill-opacity:0.5;"/>
    <path clip-path="url(#p3f9af1f79e)" d="M 354.861494 314.408295 
L 363.489548 316.921002 
L 368.003808 312.575215 
L 359.396501 310.079808 
L 354.861494 314.408295 
z
" style="fill:#3b4cc0;fill-opacity:0.5;"/>
    <path clip-path="url(#p3f9af1f79e)" d="M 219.643152 314.720218 
L 228.002846 317.234175 
L 232.986065 312.886228 
L 224.645265 310.389586 
L 219.643152 314.720218 
z
" style="fill:#3b4cc0;fill-opacity:0.5;"/>
    <path clip-path="url(#p3f9af1f79e)" d="M 298.133069 314.900377 
L 306.651006 317.415056 
L 311.363325 313.065862 
L 302.865369 310.568505 
L 298.133069 314.900377 
z
" style="fill:#3b4cc0;fill-opacity:0.5;"/>
    <path clip-path="url(#p3f9af1f79e)" d="M 376.645494 315.080588 
L 385.321766 317.595989 
L 389.763029 313.245548 
L 381.107826 310.747476 
L 376.645494 315.080588 
z
" style="fill:#3b4cc0;fill-opacity:0.5;"/>
    <path clip-path="url(#p3f9af1f79e)" d="M 241.360187 315.392845 
L 249.767833 317.909497 
L 254.67852 313.556894 
L 246.290088 311.057584 
L 241.360187 315.392845 
z
" style="fill:#3b4cc0;fill-opacity:0.5;"/>
    <path clip-path="url(#p3f9af1f79e)" d="M 319.895237 315.573198 
L 328.461309 318.090572 
L 333.100784 313.73672 
L 324.555015 311.236695 
L 319.895237 315.573198 
z
" style="fill:#3b4cc0;fill-opacity:0.5;"/>
    <path clip-path="url(#p3f9af1f79e)" d="M 184.542798 315.8857 
L 192.839976 318.404327 
L 197.949341 314.048309 
L 189.670607 311.547045 
L 184.542798 315.8857 
z
" style="fill:#3b4cc0;fill-opacity:0.5;"/>
    <path clip-path="url(#p3f9af1f79e)" d="M 263.100483 316.066193 
L 271.556179 318.585544 
L 276.394176 314.228276 
L 267.958014 311.726296 
L 263.100483 316.066193 
z
" style="fill:#3b4cc0;fill-opacity:0.5;"/>
    <path clip-path="url(#p3f9af1f79e)" d="M 341.680718 316.246739 
L 350.295022 318.766813 
L 354.861494 314.408295 
L 346.267816 311.905598 
L 341.680718 316.246739 
z
" style="fill:#3b4cc0;fill-opacity:0.5;"/>
    <path clip-path="url(#p3f9af1f79e)" d="M 206.26118 316.559576 
L 214.606324 319.080905 
L 219.643152 314.720218 
L 211.316773 312.216279 
L 206.26118 316.559576 
z
" style="fill:#3b4cc0;fill-opacity:0.5;"/>
    <path clip-path="url(#p3f9af1f79e)" d="M 284.864077 316.740263 
L 293.367921 319.262317 
L 298.133069 314.900377 
L 289.649081 312.395721 
L 284.864077 316.740263 
z
" style="fill:#3b4cc0;fill-opacity:0.5;"/>
    <path clip-path="url(#p3f9af1f79e)" d="M 363.489548 316.921002 
L 372.152183 319.443781 
L 376.645494 315.080588 
L 368.003808 312.575215 
L 363.489548 316.921002 
z
" style="fill:#3b4cc0;fill-opacity:0.5;"/>
    <path clip-path="url(#p3f9af1f79e)" d="M 228.002846 317.234175 
L 236.396054 319.75821 
L 241.360187 315.392845 
L 232.986065 312.886228 
L 228.002846 317.234175 
z
" style="fill:#3b4cc0;fill-opacity:0.5;"/>
    <path clip-path="url(#p3f9af1f79e)" d="M 306.651006 317.415056 
L 315.203098 319.939817 
L 319.895237 315.573198 
L 311.363325 313.065862 
L 306.651006 317.415056 
z
" style="fill:#3b4cc0;fill-opacity:0.5;"/>
    <path clip-path="url(#p3f9af1f79e)" d="M 171.096972 317.728474 
L 179.379367 320.254493 
L 184.542798 315.8857 
L 176.278715 313.377119 
L 171.096972 317.728474 
z
" style="fill:#3b4cc0;fill-opacity:0.5;"/>
    <path clip-path="url(#p3f9af1f79e)" d="M 249.767833 317.909497 
L 258.209204 320.436243 
L 263.100483 316.066193 
L 254.67852 313.556894 
L 249.767833 317.909497 
z
" style="fill:#3b4cc0;fill-opacity:0.5;"/>
    <path clip-path="url(#p3f9af1f79e)" d="M 328.461309 318.090572 
L 337.061746 320.618045 
L 341.680718 316.246739 
L 333.100784 313.73672 
L 328.461309 318.090572 
z
" style="fill:#3b4cc0;fill-opacity:0.5;"/>
    <path clip-path="url(#p3f9af1f79e)" d="M 192.839976 318.404327 
L 201.170449 320.93306 
L 206.26118 316.559576 
L 197.949341 314.048309 
L 192.839976 318.404327 
z
" style="fill:#3b4cc0;fill-opacity:0.5;"/>
    <path clip-path="url(#p3f9af1f79e)" d="M 271.556179 318.585544 
L 280.045811 321.115005 
L 284.864077 316.740263 
L 276.394176 314.228276 
L 271.556179 318.585544 
z
" style="fill:#3b4cc0;fill-opacity:0.5;"/>
    <path clip-path="url(#p3f9af1f79e)" d="M 350.295022 318.766813 
L 358.943903 321.297003 
L 363.489548 316.921002 
L 354.861494 314.408295 
L 350.295022 318.766813 
z
" style="fill:#3b4cc0;fill-opacity:0.5;"/>
    <path clip-path="url(#p3f9af1f79e)" d="M 214.606324 319.080905 
L 222.984973 321.612357 
L 228.002846 317.234175 
L 219.643152 314.720218 
L 214.606324 319.080905 
z
" style="fill:#3b4cc0;fill-opacity:0.5;"/>
    <path clip-path="url(#p3f9af1f79e)" d="M 293.367921 319.262317 
L 301.905913 321.794498 
L 306.651006 317.415056 
L 298.133069 314.900377 
L 293.367921 319.262317 
z
" style="fill:#3b4cc0;fill-opacity:0.5;"/>
    <path clip-path="url(#p3f9af1f79e)" d="M 372.152183 319.443781 
L 380.849609 321.976692 
L 385.321766 317.595989 
L 376.645494 315.080588 
L 372.152183 319.443781 
z
" style="fill:#3b4cc0;fill-opacity:0.5;"/>
    <path clip-path="url(#p3f9af1f79e)" d="M 236.396054 319.75821 
L 244.822979 322.292385 
L 249.767833 317.909497 
L 241.360187 315.392845 
L 236.396054 319.75821 
z
" style="fill:#3b4cc0;fill-opacity:0.5;"/>
    <path clip-path="url(#p3f9af1f79e)" d="M 315.203098 319.939817 
L 323.789548 322.474722 
L 328.461309 318.090572 
L 319.895237 315.573198 
L 315.203098 319.939817 
z
" style="fill:#3b4cc0;fill-opacity:0.5;"/>
    <path clip-path="url(#p3f9af1f79e)" d="M 179.379367 320.254493 
L 187.695047 322.790664 
L 192.839976 318.404327 
L 184.542798 315.8857 
L 179.379367 320.254493 
z
" style="fill:#3b4cc0;fill-opacity:0.5;"/>
    <path clip-path="url(#p3f9af1f79e)" d="M 258.209204 320.436243 
L 266.684502 322.973145 
L 271.556179 318.585544 
L 263.100483 316.066193 
L 258.209204 320.436243 
z
" style="fill:#3b4cc0;fill-opacity:0.5;"/>
    <path clip-path="url(#p3f9af1f79e)" d="M 337.061746 320.618045 
L 345.696755 323.155679 
L 350.295022 318.766813 
L 341.680718 316.246739 
L 337.061746 320.618045 
z
" style="fill:#3b4cc0;fill-opacity:0.5;"/>
    <path clip-path="url(#p3f9af1f79e)" d="M 201.170449 320.93306 
L 209.534418 323.471961 
L 214.606324 319.080905 
L 206.26118 316.559576 
L 201.170449 320.93306 
z
" style="fill:#3b4cc0;fill-opacity:0.5;"/>
    <path clip-path="url(#p3f9af1f79e)" d="M 280.045811 321.115005 
L 288.569583 323.654639 
L 293.367921 319.262317 
L 284.864077 316.740263 
L 280.045811 321.115005 
z
" style="fill:#3b4cc0;fill-opacity:0.5;"/>
    <path clip-path="url(#p3f9af1f79e)" d="M 358.943903 321.297003 
L 367.627571 323.83737 
L 372.152183 319.443781 
L 363.489548 316.921002 
L 358.943903 321.297003 
z
" style="fill:#3b4cc0;fill-opacity:0.5;"/>
    <path clip-path="url(#p3f9af1f79e)" d="M 222.984973 321.612357 
L 231.39733 324.153993 
L 236.396054 319.75821 
L 228.002846 317.234175 
L 222.984973 321.612357 
z
" style="fill:#3b4cc0;fill-opacity:0.5;"/>
    <path clip-path="url(#p3f9af1f79e)" d="M 301.905913 321.794498 
L 310.478258 324.336868 
L 315.203098 319.939817 
L 306.651006 317.415056 
L 301.905913 321.794498 
z
" style="fill:#3b4cc0;fill-opacity:0.5;"/>
    <path clip-path="url(#p3f9af1f79e)" d="M 165.879181 322.1101 
L 174.179944 324.653741 
L 179.379367 320.254493 
L 171.096972 317.728474 
L 165.879181 322.1101 
z
" style="fill:#3b4cc0;fill-opacity:0.5;"/>
    <path clip-path="url(#p3f9af1f79e)" d="M 244.822979 322.292385 
L 253.283823 324.83676 
L 258.209204 320.436243 
L 249.767833 317.909497 
L 244.822979 322.292385 
z
" style="fill:#3b4cc0;fill-opacity:0.5;"/>
    <path clip-path="url(#p3f9af1f79e)" d="M 323.789548 322.474722 
L 332.410566 325.019832 
L 337.061746 320.618045 
L 328.461309 318.090572 
L 323.789548 322.474722 
z
" style="fill:#3b4cc0;fill-opacity:0.5;"/>
    <path clip-path="url(#p3f9af1f79e)" d="M 187.695047 322.790664 
L 196.044212 325.337048 
L 201.170449 320.93306 
L 192.839976 318.404327 
L 187.695047 322.790664 
z
" style="fill:#3b4cc0;fill-opacity:0.5;"/>
    <path clip-path="url(#p3f9af1f79e)" d="M 266.684502 322.973145 
L 275.193934 325.520264 
L 280.045811 321.115005 
L 271.556179 318.585544 
L 266.684502 322.973145 
z
" style="fill:#3b4cc0;fill-opacity:0.5;"/>
    <path clip-path="url(#p3f9af1f79e)" d="M 345.696755 323.155679 
L 354.366546 325.703534 
L 358.943903 321.297003 
L 350.295022 318.766813 
L 345.696755 323.155679 
z
" style="fill:#3b4cc0;fill-opacity:0.5;"/>
    <path clip-path="url(#p3f9af1f79e)" d="M 209.534418 323.471961 
L 217.932084 326.021092 
L 222.984973 321.612357 
L 214.606324 319.080905 
L 209.534418 323.471961 
z
" style="fill:#3b4cc0;fill-opacity:0.5;"/>
    <path clip-path="url(#p3f9af1f79e)" d="M 288.569583 323.654639 
L 297.127702 326.204506 
L 301.905913 321.794498 
L 293.367921 319.262317 
L 288.569583 323.654639 
z
" style="fill:#3b4cc0;fill-opacity:0.5;"/>
    <path clip-path="url(#p3f9af1f79e)" d="M 367.627571 323.83737 
L 376.346235 326.387974 
L 380.849609 321.976692 
L 372.152183 319.443781 
L 367.627571 323.83737 
z
" style="fill:#3b4cc0;fill-opacity:0.5;"/>
    <path clip-path="url(#p3f9af1f79e)" d="M 231.39733 324.153993 
L 239.843599 326.705875 
L 244.822979 322.292385 
L 236.396054 319.75821 
L 231.39733 324.153993 
z
" style="fill:#3b4cc0;fill-opacity:0.5;"/>
    <path clip-path="url(#p3f9af1f79e)" d="M 310.478258 324.336868 
L 319.085165 326.889487 
L 323.789548 322.474722 
L 315.203098 319.939817 
L 310.478258 324.336868 
z
" style="fill:#3b4cc0;fill-opacity:0.5;"/>
    <path clip-path="url(#p3f9af1f79e)" d="M 174.179944 324.653741 
L 182.514182 327.20764 
L 187.695047 322.790664 
L 179.379367 320.254493 
L 174.179944 324.653741 
z
" style="fill:#3b4cc0;fill-opacity:0.5;"/>
    <path clip-path="url(#p3f9af1f79e)" d="M 253.283823 324.83676 
L 261.778793 327.391398 
L 266.684502 322.973145 
L 258.209204 320.436243 
L 253.283823 324.83676 
z
" style="fill:#3b4cc0;fill-opacity:0.5;"/>
    <path clip-path="url(#p3f9af1f79e)" d="M 332.410566 325.019832 
L 341.066361 327.575209 
L 345.696755 323.155679 
L 337.061746 320.618045 
L 332.410566 325.019832 
z
" style="fill:#3b4cc0;fill-opacity:0.5;"/>
    <path clip-path="url(#p3f9af1f79e)" d="M 196.044212 325.337048 
L 204.427066 327.893705 
L 209.534418 323.471961 
L 201.170449 320.93306 
L 196.044212 325.337048 
z
" style="fill:#3b4cc0;fill-opacity:0.5;"/>
    <path clip-path="url(#p3f9af1f79e)" d="M 275.193934 325.520264 
L 283.737706 328.077662 
L 288.569583 323.654639 
L 280.045811 321.115005 
L 275.193934 325.520264 
z
" style="fill:#3b4cc0;fill-opacity:0.5;"/>
    <path clip-path="url(#p3f9af1f79e)" d="M 354.366546 325.703534 
L 363.071329 328.261672 
L 367.627571 323.83737 
L 358.943903 321.297003 
L 354.366546 325.703534 
z
" style="fill:#3b4cc0;fill-opacity:0.5;"/>
    <path clip-path="url(#p3f9af1f79e)" d="M 217.932084 326.021092 
L 226.363653 328.580513 
L 231.39733 324.153993 
L 222.984973 321.612357 
L 217.932084 326.021092 
z
" style="fill:#3b4cc0;fill-opacity:0.5;"/>
    <path clip-path="url(#p3f9af1f79e)" d="M 297.127702 326.204506 
L 305.720376 328.764669 
L 310.478258 324.336868 
L 301.905913 321.794498 
L 297.127702 326.204506 
z
" style="fill:#3b4cc0;fill-opacity:0.5;"/>
    <path clip-path="url(#p3f9af1f79e)" d="M 160.624963 326.522315 
L 168.944149 329.083762 
L 174.179944 324.653741 
L 165.879181 322.1101 
L 160.624963 326.522315 
z
" style="fill:#3b4cc0;fill-opacity:0.5;"/>
    <path clip-path="url(#p3f9af1f79e)" d="M 239.843599 326.705875 
L 248.323983 329.268064 
L 253.283823 324.83676 
L 244.822979 322.292385 
L 239.843599 326.705875 
z
" style="fill:#3b4cc0;fill-opacity:0.5;"/>
    <path clip-path="url(#p3f9af1f79e)" d="M 319.085165 326.889487 
L 327.726842 329.452419 
L 332.410566 325.019832 
L 323.789548 322.474722 
L 319.085165 326.889487 
z
" style="fill:#3b4cc0;fill-opacity:0.5;"/>
    <path clip-path="url(#p3f9af1f79e)" d="M 182.514182 327.20764 
L 190.882097 329.771859 
L 196.044212 325.337048 
L 187.695047 322.790664 
L 182.514182 327.20764 
z
" style="fill:#3b4cc0;fill-opacity:0.5;"/>
    <path clip-path="url(#p3f9af1f79e)" d="M 261.778793 327.391398 
L 270.308095 329.95636 
L 275.193934 325.520264 
L 266.684502 322.973145 
L 261.778793 327.391398 
z
" style="fill:#3b4cc0;fill-opacity:0.5;"/>
    <path clip-path="url(#p3f9af1f79e)" d="M 341.066361 327.575209 
L 349.757142 330.140915 
L 354.366546 325.703534 
L 345.696755 323.155679 
L 341.066361 327.575209 
z
" style="fill:#3b4cc0;fill-opacity:0.5;"/>
    <path clip-path="url(#p3f9af1f79e)" d="M 204.427066 327.893705 
L 212.843811 330.4607 
L 217.932084 326.021092 
L 209.534418 323.471961 
L 204.427066 327.893705 
z
" style="fill:#3b4cc0;fill-opacity:0.5;"/>
    <path clip-path="url(#p3f9af1f79e)" d="M 283.737706 328.077662 
L 292.316025 330.645401 
L 297.127702 326.204506 
L 288.569583 323.654639 
L 283.737706 328.077662 
z
" style="fill:#3b4cc0;fill-opacity:0.5;"/>
    <path clip-path="url(#p3f9af1f79e)" d="M 363.071329 328.261672 
L 371.811315 330.830156 
L 376.346235 326.387974 
L 367.627571 323.83737 
L 363.071329 328.261672 
z
" style="fill:#3b4cc0;fill-opacity:0.5;"/>
    <path clip-path="url(#p3f9af1f79e)" d="M 226.363653 328.580513 
L 234.82933 331.150288 
L 239.843599 326.705875 
L 231.39733 324.153993 
L 226.363653 328.580513 
z
" style="fill:#3b4cc0;fill-opacity:0.5;"/>
    <path clip-path="url(#p3f9af1f79e)" d="M 305.720376 328.764669 
L 314.347814 331.33519 
L 319.085165 326.889487 
L 310.478258 324.336868 
L 305.720376 328.764669 
z
" style="fill:#3b4cc0;fill-opacity:0.5;"/>
    <path clip-path="url(#p3f9af1f79e)" d="M 168.944149 329.083762 
L 177.297002 331.655576 
L 182.514182 327.20764 
L 174.179944 324.653741 
L 168.944149 329.083762 
z
" style="fill:#3b4cc0;fill-opacity:0.5;"/>
    <path clip-path="url(#p3f9af1f79e)" d="M 248.323983 329.268064 
L 256.838692 331.840624 
L 261.778793 327.391398 
L 253.283823 324.83676 
L 248.323983 329.268064 
z
" style="fill:#3b4cc0;fill-opacity:0.5;"/>
    <path clip-path="url(#p3f9af1f79e)" d="M 327.726842 329.452419 
L 336.403501 332.025726 
L 341.066361 327.575209 
L 332.410566 325.019832 
L 327.726842 329.452419 
z
" style="fill:#3b4cc0;fill-opacity:0.5;"/>
    <path clip-path="url(#p3f9af1f79e)" d="M 190.882097 329.771859 
L 199.283895 332.34646 
L 204.427066 327.893705 
L 196.044212 325.337048 
L 190.882097 329.771859 
z
" style="fill:#3b4cc0;fill-opacity:0.5;"/>
    <path clip-path="url(#p3f9af1f79e)" d="M 270.308095 329.95636 
L 278.871937 332.531709 
L 283.737706 328.077662 
L 275.193934 325.520264 
L 270.308095 329.95636 
z
" style="fill:#3b4cc0;fill-opacity:0.5;"/>
    <path clip-path="url(#p3f9af1f79e)" d="M 349.757142 330.140915 
L 358.483123 332.717012 
L 363.071329 328.261672 
L 354.366546 325.703534 
L 349.757142 330.140915 
z
" style="fill:#3b4cc0;fill-opacity:0.5;"/>
    <path clip-path="url(#p3f9af1f79e)" d="M 212.843811 330.4607 
L 221.294655 333.038094 
L 226.363653 328.580513 
L 217.932084 326.021092 
L 212.843811 330.4607 
z
" style="fill:#3b4cc0;fill-opacity:0.5;"/>
    <path clip-path="url(#p3f9af1f79e)" d="M 292.316025 330.645401 
L 300.929103 333.223544 
L 305.720376 328.764669 
L 297.127702 326.204506 
L 292.316025 330.645401 
z
" style="fill:#3b4cc0;fill-opacity:0.5;"/>
    <path clip-path="url(#p3f9af1f79e)" d="M 155.333937 330.96544 
L 163.6716 333.544882 
L 168.944149 329.083762 
L 160.624963 326.522315 
L 155.333937 330.96544 
z
" style="fill:#3b4cc0;fill-opacity:0.5;"/>
    <path clip-path="url(#p3f9af1f79e)" d="M 234.82933 331.150288 
L 243.329322 333.730479 
L 248.323983 329.268064 
L 239.843599 326.705875 
L 234.82933 331.150288 
z
" style="fill:#3b4cc0;fill-opacity:0.5;"/>
    <path clip-path="url(#p3f9af1f79e)" d="M 314.347814 331.33519 
L 323.010229 333.916131 
L 327.726842 329.452419 
L 319.085165 326.889487 
L 314.347814 331.33519 
z
" style="fill:#3b4cc0;fill-opacity:0.5;"/>
    <path clip-path="url(#p3f9af1f79e)" d="M 177.297002 331.655576 
L 185.683725 334.237818 
L 190.882097 329.771859 
L 182.514182 327.20764 
L 177.297002 331.655576 
z
" style="fill:#3b4cc0;fill-opacity:0.5;"/>
    <path clip-path="url(#p3f9af1f79e)" d="M 256.838692 331.840624 
L 265.387934 334.423617 
L 270.308095 329.95636 
L 261.778793 327.391398 
L 256.838692 331.840624 
z
" style="fill:#3b4cc0;fill-opacity:0.5;"/>
    <path clip-path="url(#p3f9af1f79e)" d="M 336.403501 332.025726 
L 345.115354 334.609471 
L 349.757142 330.140915 
L 341.066361 327.575209 
L 336.403501 332.025726 
z
" style="fill:#3b4cc0;fill-opacity:0.5;"/>
    <path clip-path="url(#p3f9af1f79e)" d="M 199.283895 332.34646 
L 207.719781 334.931507 
L 212.843811 330.4607 
L 204.427066 327.893705 
L 199.283895 332.34646 
z
" style="fill:#3b4cc0;fill-opacity:0.5;"/>
    <path clip-path="url(#p3f9af1f79e)" d="M 278.871937 332.531709 
L 287.47053 335.117509 
L 292.316025 330.645401 
L 283.737706 328.077662 
L 278.871937 332.531709 
z
" style="fill:#3b4cc0;fill-opacity:0.5;"/>
    <path clip-path="url(#p3f9af1f79e)" d="M 358.483123 332.717012 
L 367.244518 335.303565 
L 371.811315 330.830156 
L 363.071329 328.261672 
L 358.483123 332.717012 
z
" style="fill:#3b4cc0;fill-opacity:0.5;"/>
    <path clip-path="url(#p3f9af1f79e)" d="M 221.294655 333.038094 
L 229.779805 335.625951 
L 234.82933 331.150288 
L 226.363653 328.580513 
L 221.294655 333.038094 
z
" style="fill:#3b4cc0;fill-opacity:0.5;"/>
    <path clip-path="url(#p3f9af1f79e)" d="M 300.929103 333.223544 
L 309.57715 335.812155 
L 314.347814 331.33519 
L 305.720376 328.764669 
L 300.929103 333.223544 
z
" style="fill:#3b4cc0;fill-opacity:0.5;"/>
    <path clip-path="url(#p3f9af1f79e)" d="M 163.6716 333.544882 
L 172.043124 336.134798 
L 177.297002 331.655576 
L 168.944149 329.083762 
L 163.6716 333.544882 
z
" style="fill:#3b4cc0;fill-opacity:0.5;"/>
    <path clip-path="url(#p3f9af1f79e)" d="M 243.329322 333.730479 
L 251.863838 336.321151 
L 256.838692 331.840624 
L 248.323983 329.268064 
L 243.329322 333.730479 
z
" style="fill:#3b4cc0;fill-opacity:0.5;"/>
    <path clip-path="url(#p3f9af1f79e)" d="M 323.010229 333.916131 
L 331.707833 336.507558 
L 336.403501 332.025726 
L 327.726842 329.452419 
L 323.010229 333.916131 
z
" style="fill:#3b4cc0;fill-opacity:0.5;"/>
    <path clip-path="url(#p3f9af1f79e)" d="M 185.683725 334.237818 
L 194.104527 336.830552 
L 199.283895 332.34646 
L 190.882097 329.771859 
L 185.683725 334.237818 
z
" style="fill:#3b4cc0;fill-opacity:0.5;"/>
    <path clip-path="url(#p3f9af1f79e)" d="M 265.387934 334.423617 
L 273.971919 337.017107 
L 278.871937 332.531709 
L 270.308095 329.95636 
L 265.387934 334.423617 
z
" style="fill:#3b4cc0;fill-opacity:0.5;"/>
    <path clip-path="url(#p3f9af1f79e)" d="M 345.115354 334.609471 
L 353.862617 337.203717 
L 358.483123 332.717012 
L 349.757142 330.140915 
L 345.115354 334.609471 
z
" style="fill:#3b4cc0;fill-opacity:0.5;"/>
    <path clip-path="url(#p3f9af1f79e)" d="M 207.719781 334.931507 
L 216.189963 337.527064 
L 221.294655 333.038094 
L 212.843811 330.4607 
L 207.719781 334.931507 
z
" style="fill:#3b4cc0;fill-opacity:0.5;"/>
    <path clip-path="url(#p3f9af1f79e)" d="M 287.47053 335.117509 
L 296.104086 337.713822 
L 300.929103 333.223544 
L 292.316025 330.645401 
L 287.47053 335.117509 
z
" style="fill:#3b4cc0;fill-opacity:0.5;"/>
    <path clip-path="url(#p3f9af1f79e)" d="M 150.005714 335.439801 
L 158.361909 338.037427 
L 163.6716 333.544882 
L 155.333937 330.96544 
L 150.005714 335.439801 
z
" style="fill:#3b4cc0;fill-opacity:0.5;"/>
    <path clip-path="url(#p3f9af1f79e)" d="M 229.779805 335.625951 
L 238.29947 338.224335 
L 243.329322 333.730479 
L 234.82933 331.150288 
L 229.779805 335.625951 
z
" style="fill:#3b4cc0;fill-opacity:0.5;"/>
    <path clip-path="url(#p3f9af1f79e)" d="M 309.57715 335.812155 
L 318.26038 338.411297 
L 323.010229 333.916131 
L 314.347814 331.33519 
L 309.57715 335.812155 
z
" style="fill:#3b4cc0;fill-opacity:0.5;"/>
    <path clip-path="url(#p3f9af1f79e)" d="M 172.043124 336.134798 
L 180.448714 338.735254 
L 185.683725 334.237818 
L 177.297002 331.655576 
L 172.043124 336.134798 
z
" style="fill:#3b4cc0;fill-opacity:0.5;"/>
    <path clip-path="url(#p3f9af1f79e)" d="M 251.863838 336.321151 
L 260.433089 338.922366 
L 265.387934 334.423617 
L 256.838692 331.840624 
L 251.863838 336.321151 
z
" style="fill:#3b4cc0;fill-opacity:0.5;"/>
    <path clip-path="url(#p3f9af1f79e)" d="M 331.707833 336.507558 
L 340.44084 339.109532 
L 345.115354 334.609471 
L 336.403501 332.025726 
L 331.707833 336.507558 
z
" style="fill:#3b4cc0;fill-opacity:0.5;"/>
    <path clip-path="url(#p3f9af1f79e)" d="M 194.104527 336.830552 
L 202.559614 339.433843 
L 207.719781 334.931507 
L 199.283895 332.34646 
L 194.104527 336.830552 
z
" style="fill:#3b4cc0;fill-opacity:0.5;"/>
    <path clip-path="url(#p3f9af1f79e)" d="M 273.971919 337.017107 
L 282.590859 339.621159 
L 287.47053 335.117509 
L 278.871937 332.531709 
L 273.971919 337.017107 
z
" style="fill:#3b4cc0;fill-opacity:0.5;"/>
    <path clip-path="url(#p3f9af1f79e)" d="M 353.862617 337.203717 
L 362.645505 339.808529 
L 367.244518 335.303565 
L 358.483123 332.717012 
L 353.862617 337.203717 
z
" style="fill:#3b4cc0;fill-opacity:0.5;"/>
    <path clip-path="url(#p3f9af1f79e)" d="M 216.189963 337.527064 
L 224.694651 340.133194 
L 229.779805 335.625951 
L 221.294655 333.038094 
L 216.189963 337.527064 
z
" style="fill:#3b4cc0;fill-opacity:0.5;"/>
    <path clip-path="url(#p3f9af1f79e)" d="M 296.104086 337.713822 
L 304.772819 340.320715 
L 309.57715 335.812155 
L 300.929103 333.223544 
L 296.104086 337.713822 
z
" style="fill:#3b4cc0;fill-opacity:0.5;"/>
    <path clip-path="url(#p3f9af1f79e)" d="M 158.361909 338.037427 
L 166.75216 340.645639 
L 172.043124 336.134798 
L 163.6716 333.544882 
L 158.361909 338.037427 
z
" style="fill:#3b4cc0;fill-opacity:0.5;"/>
    <path clip-path="url(#p3f9af1f79e)" d="M 238.29947 338.224335 
L 246.853862 340.833309 
L 251.863838 336.321151 
L 243.329322 333.730479 
L 238.29947 338.224335 
z
" style="fill:#3b4cc0;fill-opacity:0.5;"/>
    <path clip-path="url(#p3f9af1f79e)" d="M 318.26038 338.411297 
L 326.979009 341.021035 
L 331.707833 336.507558 
L 323.010229 333.916131 
L 318.26038 338.411297 
z
" style="fill:#3b4cc0;fill-opacity:0.5;"/>
    <path clip-path="url(#p3f9af1f79e)" d="M 180.448714 338.735254 
L 188.888579 341.346314 
L 194.104527 336.830552 
L 185.683725 334.237818 
L 180.448714 338.735254 
z
" style="fill:#3b4cc0;fill-opacity:0.5;"/>
    <path clip-path="url(#p3f9af1f79e)" d="M 260.433089 338.922366 
L 269.037288 341.53419 
L 273.971919 337.017107 
L 265.387934 334.423617 
L 260.433089 338.922366 
z
" style="fill:#3b4cc0;fill-opacity:0.5;"/>
    <path clip-path="url(#p3f9af1f79e)" d="M 340.44084 339.109532 
L 349.209468 341.72212 
L 353.862617 337.203717 
L 345.115354 334.609471 
L 340.44084 339.109532 
z
" style="fill:#3b4cc0;fill-opacity:0.5;"/>
    <path clip-path="url(#p3f9af1f79e)" d="M 202.559614 339.433843 
L 211.049198 342.047755 
L 216.189963 337.527064 
L 207.719781 334.931507 
L 202.559614 339.433843 
z
" style="fill:#3b4cc0;fill-opacity:0.5;"/>
    <path clip-path="url(#p3f9af1f79e)" d="M 282.590859 339.621159 
L 291.244968 342.235836 
L 296.104086 337.713822 
L 287.47053 335.117509 
L 282.590859 339.621159 
z
" style="fill:#3b4cc0;fill-opacity:0.5;"/>
    <path clip-path="url(#p3f9af1f79e)" d="M 144.639901 339.945729 
L 153.014682 342.561732 
L 158.361909 338.037427 
L 150.005714 335.439801 
L 144.639901 339.945729 
z
" style="fill:#3b4cc0;fill-opacity:0.5;"/>
    <path clip-path="url(#p3f9af1f79e)" d="M 224.694651 340.133194 
L 233.234055 342.749963 
L 238.29947 338.224335 
L 229.779805 335.625951 
L 224.694651 340.133194 
z
" style="fill:#3b4cc0;fill-opacity:0.5;"/>
    <path clip-path="url(#p3f9af1f79e)" d="M 304.772819 340.320715 
L 313.476943 342.93825 
L 318.26038 338.411297 
L 309.57715 335.812155 
L 304.772819 340.320715 
z
" style="fill:#3b4cc0;fill-opacity:0.5;"/>
    <path clip-path="url(#p3f9af1f79e)" d="M 166.75216 340.645639 
L 175.176674 343.264503 
L 180.448714 338.735254 
L 172.043124 336.134798 
L 166.75216 340.645639 
z
" style="fill:#3b4cc0;fill-opacity:0.5;"/>
    <path clip-path="url(#p3f9af1f79e)" d="M 246.853862 340.833309 
L 255.443192 343.45294 
L 260.433089 338.922366 
L 251.863838 336.321151 
L 246.853862 340.833309 
z
" style="fill:#3b4cc0;fill-opacity:0.5;"/>
    <path clip-path="url(#p3f9af1f79e)" d="M 326.979009 341.021035 
L 335.733252 343.641433 
L 340.44084 339.109532 
L 331.707833 336.507558 
L 326.979009 341.021035 
z
" style="fill:#3b4cc0;fill-opacity:0.5;"/>
    <path clip-path="url(#p3f9af1f79e)" d="M 188.888579 341.346314 
L 197.362929 343.968043 
L 202.559614 339.433843 
L 194.104527 336.830552 
L 188.888579 341.346314 
z
" style="fill:#3b4cc0;fill-opacity:0.5;"/>
    <path clip-path="url(#p3f9af1f79e)" d="M 269.037288 341.53419 
L 277.676648 344.156687 
L 282.590859 339.621159 
L 273.971919 337.017107 
L 269.037288 341.53419 
z
" style="fill:#3b4cc0;fill-opacity:0.5;"/>
    <path clip-path="url(#p3f9af1f79e)" d="M 349.209468 341.72212 
L 358.013935 344.345386 
L 362.645505 339.808529 
L 353.862617 337.203717 
L 349.209468 341.72212 
z
" style="fill:#3b4cc0;fill-opacity:0.5;"/>
    <path clip-path="url(#p3f9af1f79e)" d="M 211.049198 342.047755 
L 219.573488 344.672353 
L 224.694651 340.133194 
L 216.189963 337.527064 
L 211.049198 342.047755 
z
" style="fill:#3b4cc0;fill-opacity:0.5;"/>
    <path clip-path="url(#p3f9af1f79e)" d="M 291.244968 342.235836 
L 299.934463 344.861204 
L 304.772819 340.320715 
L 296.104086 337.713822 
L 291.244968 342.235836 
z
" style="fill:#3b4cc0;fill-opacity:0.5;"/>
    <path clip-path="url(#p3f9af1f79e)" d="M 153.014682 342.561732 
L 161.423715 345.188434 
L 166.75216 340.645639 
L 158.361909 338.037427 
L 153.014682 342.561732 
z
" style="fill:#3b4cc0;fill-opacity:0.5;"/>
    <path clip-path="url(#p3f9af1f79e)" d="M 233.234055 342.749963 
L 241.808391 345.377436 
L 246.853862 340.833309 
L 238.29947 338.224335 
L 233.234055 342.749963 
z
" style="fill:#3b4cc0;fill-opacity:0.5;"/>
    <path clip-path="url(#p3f9af1f79e)" d="M 313.476943 342.93825 
L 322.216677 345.566494 
L 326.979009 341.021035 
L 318.26038 338.411297 
L 313.476943 342.93825 
z
" style="fill:#3b4cc0;fill-opacity:0.5;"/>
    <path clip-path="url(#p3f9af1f79e)" d="M 175.176674 343.264503 
L 183.635662 345.894083 
L 188.888579 341.346314 
L 180.448714 338.735254 
L 175.176674 343.264503 
z
" style="fill:#3b4cc0;fill-opacity:0.5;"/>
    <path clip-path="url(#p3f9af1f79e)" d="M 255.443192 343.45294 
L 264.067677 346.083292 
L 269.037288 341.53419 
L 260.433089 338.922366 
L 255.443192 343.45294 
z
" style="fill:#3b4cc0;fill-opacity:0.5;"/>
    <path clip-path="url(#p3f9af1f79e)" d="M 335.733252 343.641433 
L 344.523329 346.272557 
L 349.209468 341.72212 
L 340.44084 339.109532 
L 335.733252 343.641433 
z
" style="fill:#3b4cc0;fill-opacity:0.5;"/>
    <path clip-path="url(#p3f9af1f79e)" d="M 197.362929 343.968043 
L 205.871976 346.600506 
L 211.049198 342.047755 
L 202.559614 339.433843 
L 197.362929 343.968043 
z
" style="fill:#3b4cc0;fill-opacity:0.5;"/>
    <path clip-path="url(#p3f9af1f79e)" d="M 277.676648 344.156687 
L 286.351386 346.789923 
L 291.244968 342.235836 
L 282.590859 339.621159 
L 277.676648 344.156687 
z
" style="fill:#3b4cc0;fill-opacity:0.5;"/>
    <path clip-path="url(#p3f9af1f79e)" d="M 139.236097 344.483558 
L 147.629519 347.118134 
L 153.014682 342.561732 
L 144.639901 339.945729 
L 139.236097 344.483558 
z
" style="fill:#3b4cc0;fill-opacity:0.5;"/>
    <path clip-path="url(#p3f9af1f79e)" d="M 219.573488 344.672353 
L 228.132699 347.307704 
L 233.234055 342.749963 
L 224.694651 340.133194 
L 219.573488 344.672353 
z
" style="fill:#3b4cc0;fill-opacity:0.5;"/>
    <path clip-path="url(#p3f9af1f79e)" d="M 299.934463 344.861204 
L 308.65956 347.497329 
L 313.476943 342.93825 
L 304.772819 340.320715 
L 299.934463 344.861204 
z
" style="fill:#3b4cc0;fill-opacity:0.5;"/>
    <path clip-path="url(#p3f9af1f79e)" d="M 161.423715 345.188434 
L 169.867211 347.825901 
L 175.176674 343.264503 
L 166.75216 340.645639 
L 161.423715 345.188434 
z
" style="fill:#3b4cc0;fill-opacity:0.5;"/>
    <path clip-path="url(#p3f9af1f79e)" d="M 241.808391 345.377436 
L 250.41787 348.015679 
L 255.443192 343.45294 
L 246.853862 340.833309 
L 241.808391 345.377436 
z
" style="fill:#3b4cc0;fill-opacity:0.5;"/>
    <path clip-path="url(#p3f9af1f79e)" d="M 322.216677 345.566494 
L 330.992238 348.205512 
L 335.733252 343.641433 
L 326.979009 341.021035 
L 322.216677 345.566494 
z
" style="fill:#3b4cc0;fill-opacity:0.5;"/>
    <path clip-path="url(#p3f9af1f79e)" d="M 183.635662 345.894083 
L 192.129336 348.534445 
L 197.362929 343.968043 
L 188.888579 341.346314 
L 183.635662 345.894083 
z
" style="fill:#3b4cc0;fill-opacity:0.5;"/>
    <path clip-path="url(#p3f9af1f79e)" d="M 264.067677 346.083292 
L 272.727531 348.724432 
L 277.676648 344.156687 
L 269.037288 341.53419 
L 264.067677 346.083292 
z
" style="fill:#3b4cc0;fill-opacity:0.5;"/>
    <path clip-path="url(#p3f9af1f79e)" d="M 344.523329 346.272557 
L 353.349461 348.914474 
L 358.013935 344.345386 
L 349.209468 341.72212 
L 344.523329 346.272557 
z
" style="fill:#3b4cc0;fill-opacity:0.5;"/>
    <path clip-path="url(#p3f9af1f79e)" d="M 205.871976 346.600506 
L 214.415934 349.243769 
L 219.573488 344.672353 
L 211.049198 342.047755 
L 205.871976 346.600506 
z
" style="fill:#3b4cc0;fill-opacity:0.5;"/>
    <path clip-path="url(#p3f9af1f79e)" d="M 286.351386 346.789923 
L 295.06172 349.433964 
L 299.934463 344.861204 
L 291.244968 342.235836 
L 286.351386 346.789923 
z
" style="fill:#3b4cc0;fill-opacity:0.5;"/>
    <path clip-path="url(#p3f9af1f79e)" d="M 147.629519 347.118134 
L 156.057391 349.763524 
L 161.423715 345.188434 
L 153.014682 342.561732 
L 147.629519 347.118134 
z
" style="fill:#3b4cc0;fill-opacity:0.5;"/>
    <path clip-path="url(#p3f9af1f79e)" d="M 228.132699 347.307704 
L 236.727046 349.953872 
L 241.808391 345.377436 
L 233.234055 342.749963 
L 228.132699 347.307704 
z
" style="fill:#3b4cc0;fill-opacity:0.5;"/>
    <path clip-path="url(#p3f9af1f79e)" d="M 308.65956 347.497329 
L 317.420479 350.144276 
L 322.216677 345.566494 
L 313.476943 342.93825 
L 308.65956 347.497329 
z
" style="fill:#3b4cc0;fill-opacity:0.5;"/>
    <path clip-path="url(#p3f9af1f79e)" d="M 169.867211 347.825901 
L 178.345381 350.474199 
L 183.635662 345.894083 
L 175.176674 343.264503 
L 169.867211 347.825901 
z
" style="fill:#3b4cc0;fill-opacity:0.5;"/>
    <path clip-path="url(#p3f9af1f79e)" d="M 250.41787 348.015679 
L 259.062712 350.664757 
L 264.067677 346.083292 
L 255.443192 343.45294 
L 250.41787 348.015679 
z
" style="fill:#3b4cc0;fill-opacity:0.5;"/>
    <path clip-path="url(#p3f9af1f79e)" d="M 330.992238 348.205512 
L 339.803849 350.855371 
L 344.523329 346.272557 
L 335.733252 343.641433 
L 330.992238 348.205512 
z
" style="fill:#3b4cc0;fill-opacity:0.5;"/>
    <path clip-path="url(#p3f9af1f79e)" d="M 192.129336 348.534445 
L 200.657909 351.185657 
L 205.871976 346.600506 
L 197.362929 343.968043 
L 192.129336 348.534445 
z
" style="fill:#3b4cc0;fill-opacity:0.5;"/>
    <path clip-path="url(#p3f9af1f79e)" d="M 272.727531 348.724432 
L 281.422973 351.376425 
L 286.351386 346.789923 
L 277.676648 344.156687 
L 272.727531 348.724432 
z
" style="fill:#3b4cc0;fill-opacity:0.5;"/>
    <path clip-path="url(#p3f9af1f79e)" d="M 133.793899 349.05363 
L 142.206015 351.706977 
L 147.629519 347.118134 
L 139.236097 344.483558 
L 133.793899 349.05363 
z
" style="fill:#3b4cc0;fill-opacity:0.5;"/>
    <path clip-path="url(#p3f9af1f79e)" d="M 214.415934 349.243769 
L 222.995017 351.897899 
L 228.132699 347.307704 
L 219.573488 344.672353 
L 214.415934 349.243769 
z
" style="fill:#3b4cc0;fill-opacity:0.5;"/>
    <path clip-path="url(#p3f9af1f79e)" d="M 295.06172 349.433964 
L 303.807869 352.088877 
L 308.65956 347.497329 
L 299.934463 344.861204 
L 295.06172 349.433964 
z
" style="fill:#3b4cc0;fill-opacity:0.5;"/>
    <path clip-path="url(#p3f9af1f79e)" d="M 156.057391 349.763524 
L 164.519925 352.419793 
L 169.867211 347.825901 
L 161.423715 345.188434 
L 156.057391 349.763524 
z
" style="fill:#3b4cc0;fill-opacity:0.5;"/>
    <path clip-path="url(#p3f9af1f79e)" d="M 236.727046 349.953872 
L 245.356745 352.610925 
L 250.41787 348.015679 
L 241.808391 345.377436 
L 236.727046 349.953872 
z
" style="fill:#3b4cc0;fill-opacity:0.5;"/>
    <path clip-path="url(#p3f9af1f79e)" d="M 317.420479 350.144276 
L 326.217441 352.802114 
L 330.992238 348.205512 
L 322.216677 345.566494 
L 317.420479 350.144276 
z
" style="fill:#3b4cc0;fill-opacity:0.5;"/>
    <path clip-path="url(#p3f9af1f79e)" d="M 178.345381 350.474199 
L 186.858439 353.133395 
L 192.129336 348.534445 
L 183.635662 345.894083 
L 178.345381 350.474199 
z
" style="fill:#3b4cc0;fill-opacity:0.5;"/>
    <path clip-path="url(#p3f9af1f79e)" d="M 259.062712 350.664757 
L 267.743133 353.324738 
L 272.727531 348.724432 
L 264.067677 346.083292 
L 259.062712 350.664757 
z
" style="fill:#3b4cc0;fill-opacity:0.5;"/>
    <path clip-path="url(#p3f9af1f79e)" d="M 339.803849 350.855371 
L 348.651731 353.516138 
L 353.349461 348.914474 
L 344.523329 346.272557 
L 339.803849 350.855371 
z
" style="fill:#3b4cc0;fill-opacity:0.5;"/>
    <path clip-path="url(#p3f9af1f79e)" d="M 200.657909 351.185657 
L 209.221598 353.847785 
L 214.415934 349.243769 
L 205.871976 346.600506 
L 200.657909 351.185657 
z
" style="fill:#3b4cc0;fill-opacity:0.5;"/>
    <path clip-path="url(#p3f9af1f79e)" d="M 281.422973 351.376425 
L 290.154222 354.039339 
L 295.06172 349.433964 
L 286.351386 346.789923 
L 281.422973 351.376425 
z
" style="fill:#3b4cc0;fill-opacity:0.5;"/>
    <path clip-path="url(#p3f9af1f79e)" d="M 142.206015 351.706977 
L 150.652781 354.371254 
L 156.057391 349.763524 
L 147.629519 347.118134 
L 142.206015 351.706977 
z
" style="fill:#3b4cc0;fill-opacity:0.5;"/>
    <path clip-path="url(#p3f9af1f79e)" d="M 222.995017 351.897899 
L 231.609443 354.562963 
L 236.727046 349.953872 
L 228.132699 347.307704 
L 222.995017 351.897899 
z
" style="fill:#3b4cc0;fill-opacity:0.5;"/>
    <path clip-path="url(#p3f9af1f79e)" d="M 303.807869 352.088877 
L 312.590054 354.754728 
L 317.420479 350.144276 
L 308.65956 347.497329 
L 303.807869 352.088877 
z
" style="fill:#3b4cc0;fill-opacity:0.5;"/>
    <path clip-path="url(#p3f9af1f79e)" d="M 164.519925 352.419793 
L 173.017336 355.08701 
L 178.345381 350.474199 
L 169.867211 347.825901 
L 164.519925 352.419793 
z
" style="fill:#3b4cc0;fill-opacity:0.5;"/>
    <path clip-path="url(#p3f9af1f79e)" d="M 245.356745 352.610925 
L 254.022014 355.278931 
L 259.062712 350.664757 
L 250.41787 348.015679 
L 245.356745 352.610925 
z
" style="fill:#3b4cc0;fill-opacity:0.5;"/>
    <path clip-path="url(#p3f9af1f79e)" d="M 326.217441 352.802114 
L 335.050669 355.470908 
L 339.803849 350.855371 
L 330.992238 348.205512 
L 326.217441 352.802114 
z
" style="fill:#3b4cc0;fill-opacity:0.5;"/>
    <path clip-path="url(#p3f9af1f79e)" d="M 186.858439 353.133395 
L 195.406602 355.803557 
L 200.657909 351.185657 
L 192.129336 348.534445 
L 186.858439 353.133395 
z
" style="fill:#3b4cc0;fill-opacity:0.5;"/>
    <path clip-path="url(#p3f9af1f79e)" d="M 267.743133 353.324738 
L 276.459353 355.99569 
L 281.422973 351.376425 
L 272.727531 348.724432 
L 267.743133 353.324738 
z
" style="fill:#3b4cc0;fill-opacity:0.5;"/>
    <path clip-path="url(#p3f9af1f79e)" d="M 209.221598 353.847785 
L 217.82062 356.520896 
L 222.995017 351.897899 
L 214.415934 349.243769 
L 209.221598 353.847785 
z
" style="fill:#3b4cc0;fill-opacity:0.5;"/>
    <path clip-path="url(#p3f9af1f79e)" d="M 290.154222 354.039339 
L 298.921501 356.713241 
L 303.807869 352.088877 
L 295.06172 349.433964 
L 290.154222 354.039339 
z
" style="fill:#3b4cc0;fill-opacity:0.5;"/>
    <path clip-path="url(#p3f9af1f79e)" d="M 150.652781 354.371254 
L 159.134411 357.046528 
L 164.519925 352.419793 
L 156.057391 349.763524 
L 150.652781 354.371254 
z
" style="fill:#3b4cc0;fill-opacity:0.5;"/>
    <path clip-path="url(#p3f9af1f79e)" d="M 231.609443 354.562963 
L 240.259431 357.239029 
L 245.356745 352.610925 
L 236.727046 349.953872 
L 231.609443 354.562963 
z
" style="fill:#3b4cc0;fill-opacity:0.5;"/>
    <path clip-path="url(#p3f9af1f79e)" d="M 312.590054 354.754728 
L 321.408498 357.431587 
L 326.217441 352.802114 
L 317.420479 350.144276 
L 312.590054 354.754728 
z
" style="fill:#3b4cc0;fill-opacity:0.5;"/>
    <path clip-path="url(#p3f9af1f79e)" d="M 173.017336 355.08701 
L 181.54984 357.765242 
L 186.858439 353.133395 
L 178.345381 350.474199 
L 173.017336 355.08701 
z
" style="fill:#3b4cc0;fill-opacity:0.5;"/>
    <path clip-path="url(#p3f9af1f79e)" d="M 254.022014 355.278931 
L 262.723076 357.957956 
L 267.743133 353.324738 
L 259.062712 350.664757 
L 254.022014 355.278931 
z
" style="fill:#3b4cc0;fill-opacity:0.5;"/>
    <path clip-path="url(#p3f9af1f79e)" d="M 335.050669 355.470908 
L 343.920387 358.150727 
L 348.651731 353.516138 
L 339.803849 350.855371 
L 335.050669 355.470908 
z
" style="fill:#3b4cc0;fill-opacity:0.5;"/>
    <path clip-path="url(#p3f9af1f79e)" d="M 195.406602 355.803557 
L 203.990087 358.484752 
L 209.221598 353.847785 
L 200.657909 351.185657 
L 195.406602 355.803557 
z
" style="fill:#3b4cc0;fill-opacity:0.5;"/>
    <path clip-path="url(#p3f9af1f79e)" d="M 276.459353 355.99569 
L 285.211596 358.677679 
L 290.154222 354.039339 
L 281.422973 351.376425 
L 276.459353 355.99569 
z
" style="fill:#3b4cc0;fill-opacity:0.5;"/>
    <path clip-path="url(#p3f9af1f79e)" d="M 217.82062 356.520896 
L 226.455193 359.205059 
L 231.609443 354.562963 
L 222.995017 351.897899 
L 217.82062 356.520896 
z
" style="fill:#3b4cc0;fill-opacity:0.5;"/>
    <path clip-path="url(#p3f9af1f79e)" d="M 298.921501 356.713241 
L 307.725033 359.3982 
L 312.590054 354.754728 
L 303.807869 352.088877 
L 298.921501 356.713241 
z
" style="fill:#3b4cc0;fill-opacity:0.5;"/>
    <path clip-path="url(#p3f9af1f79e)" d="M 159.134411 357.046528 
L 167.651122 359.732867 
L 173.017336 355.08701 
L 164.519925 352.419793 
L 159.134411 357.046528 
z
" style="fill:#3b4cc0;fill-opacity:0.5;"/>
    <path clip-path="url(#p3f9af1f79e)" d="M 240.259431 357.239029 
L 248.945201 359.926165 
L 254.022014 355.278931 
L 245.356745 352.610925 
L 240.259431 357.239029 
z
" style="fill:#3b4cc0;fill-opacity:0.5;"/>
    <path clip-path="url(#p3f9af1f79e)" d="M 321.408498 357.431587 
L 330.263428 360.11952 
L 335.050669 355.470908 
L 326.217441 352.802114 
L 321.408498 357.431587 
z
" style="fill:#3b4cc0;fill-opacity:0.5;"/>
    <path clip-path="url(#p3f9af1f79e)" d="M 181.54984 357.765242 
L 190.117654 360.454557 
L 195.406602 355.803557 
L 186.858439 353.133395 
L 181.54984 357.765242 
z
" style="fill:#3b4cc0;fill-opacity:0.5;"/>
    <path clip-path="url(#p3f9af1f79e)" d="M 262.723076 357.957956 
L 271.46015 360.64807 
L 276.459353 355.99569 
L 267.743133 353.324738 
L 262.723076 357.957956 
z
" style="fill:#3b4cc0;fill-opacity:0.5;"/>
    <path clip-path="url(#p3f9af1f79e)" d="M 203.990087 358.484752 
L 212.609113 361.177049 
L 217.82062 356.520896 
L 209.221598 353.847785 
L 203.990087 358.484752 
z
" style="fill:#3b4cc0;fill-opacity:0.5;"/>
    <path clip-path="url(#p3f9af1f79e)" d="M 285.211596 358.677679 
L 294.000084 361.370776 
L 298.921501 356.713241 
L 290.154222 354.039339 
L 285.211596 358.677679 
z
" style="fill:#3b4cc0;fill-opacity:0.5;"/>
    <path clip-path="url(#p3f9af1f79e)" d="M 226.455193 359.205059 
L 235.12554 361.900343 
L 240.259431 357.239029 
L 231.609443 354.562963 
L 226.455193 359.205059 
z
" style="fill:#3b4cc0;fill-opacity:0.5;"/>
    <path clip-path="url(#p3f9af1f79e)" d="M 307.725033 359.3982 
L 316.565042 362.094285 
L 321.408498 357.431587 
L 312.590054 354.754728 
L 307.725033 359.3982 
z
" style="fill:#3b4cc0;fill-opacity:0.5;"/>
    <path clip-path="url(#p3f9af1f79e)" d="M 167.651122 359.732867 
L 176.203132 362.430339 
L 181.54984 357.765242 
L 173.017336 355.08701 
L 167.651122 359.732867 
z
" style="fill:#3b4cc0;fill-opacity:0.5;"/>
    <path clip-path="url(#p3f9af1f79e)" d="M 248.945201 359.926165 
L 257.666976 362.624439 
L 262.723076 357.957956 
L 254.022014 355.278931 
L 248.945201 359.926165 
z
" style="fill:#3b4cc0;fill-opacity:0.5;"/>
    <path clip-path="url(#p3f9af1f79e)" d="M 330.263428 360.11952 
L 339.155068 362.818597 
L 343.920387 358.150727 
L 335.050669 355.470908 
L 330.263428 360.11952 
z
" style="fill:#3b4cc0;fill-opacity:0.5;"/>
    <path clip-path="url(#p3f9af1f79e)" d="M 190.117654 360.454557 
L 198.720999 363.155025 
L 203.990087 358.484752 
L 195.406602 355.803557 
L 190.117654 360.454557 
z
" style="fill:#3b4cc0;fill-opacity:0.5;"/>
    <path clip-path="url(#p3f9af1f79e)" d="M 271.46015 360.64807 
L 280.233463 363.349341 
L 285.211596 358.677679 
L 276.459353 355.99569 
L 271.46015 360.64807 
z
" style="fill:#3b4cc0;fill-opacity:0.5;"/>
    <path clip-path="url(#p3f9af1f79e)" d="M 212.609113 361.177049 
L 221.263902 363.880517 
L 226.455193 359.205059 
L 217.82062 356.520896 
L 212.609113 361.177049 
z
" style="fill:#3b4cc0;fill-opacity:0.5;"/>
    <path clip-path="url(#p3f9af1f79e)" d="M 294.000084 361.370776 
L 302.825043 364.075049 
L 307.725033 359.3982 
L 298.921501 356.713241 
L 294.000084 361.370776 
z
" style="fill:#3b4cc0;fill-opacity:0.5;"/>
    <path clip-path="url(#p3f9af1f79e)" d="M 235.12554 361.900343 
L 243.831881 364.606816 
L 248.945201 359.926165 
L 240.259431 357.239029 
L 235.12554 361.900343 
z
" style="fill:#3b4cc0;fill-opacity:0.5;"/>
    <path clip-path="url(#p3f9af1f79e)" d="M 316.565042 362.094285 
L 325.441757 364.801564 
L 330.263428 360.11952 
L 321.408498 357.431587 
L 316.565042 362.094285 
z
" style="fill:#3b4cc0;fill-opacity:0.5;"/>
    <path clip-path="url(#p3f9af1f79e)" d="M 176.203132 362.430339 
L 184.79066 365.139015 
L 190.117654 360.454557 
L 181.54984 357.765242 
L 176.203132 362.430339 
z
" style="fill:#3b4cc0;fill-opacity:0.5;"/>
    <path clip-path="url(#p3f9af1f79e)" d="M 257.666976 362.624439 
L 266.42498 365.333923 
L 271.46015 360.64807 
L 262.723076 357.957956 
L 257.666976 362.624439 
z
" style="fill:#3b4cc0;fill-opacity:0.5;"/>
    <path clip-path="url(#p3f9af1f79e)" d="M 198.720999 363.155025 
L 207.360096 365.866715 
L 212.609113 361.177049 
L 203.990087 358.484752 
L 198.720999 363.155025 
z
" style="fill:#3b4cc0;fill-opacity:0.5;"/>
    <path clip-path="url(#p3f9af1f79e)" d="M 280.233463 363.349341 
L 289.043239 366.061839 
L 294.000084 361.370776 
L 285.211596 358.677679 
L 280.233463 363.349341 
z
" style="fill:#3b4cc0;fill-opacity:0.5;"/>
    <path clip-path="url(#p3f9af1f79e)" d="M 221.263902 363.880517 
L 229.954676 366.595226 
L 235.12554 361.900343 
L 226.455193 359.205059 
L 221.263902 363.880517 
z
" style="fill:#3b4cc0;fill-opacity:0.5;"/>
    <path clip-path="url(#p3f9af1f79e)" d="M 302.825043 364.075049 
L 311.6867 366.790567 
L 316.565042 362.094285 
L 307.725033 359.3982 
L 302.825043 364.075049 
z
" style="fill:#3b4cc0;fill-opacity:0.5;"/>
    <path clip-path="url(#p3f9af1f79e)" d="M 243.831881 364.606816 
L 252.574443 367.324548 
L 257.666976 362.624439 
L 248.945201 359.926165 
L 243.831881 364.606816 
z
" style="fill:#3b4cc0;fill-opacity:0.5;"/>
    <path clip-path="url(#p3f9af1f79e)" d="M 325.441757 364.801564 
L 334.355407 367.520108 
L 339.155068 362.818597 
L 330.263428 360.11952 
L 325.441757 364.801564 
z
" style="fill:#3b4cc0;fill-opacity:0.5;"/>
    <path clip-path="url(#p3f9af1f79e)" d="M 184.79066 365.139015 
L 193.413928 367.858965 
L 198.720999 363.155025 
L 190.117654 360.454557 
L 184.79066 365.139015 
z
" style="fill:#3b4cc0;fill-opacity:0.5;"/>
    <path clip-path="url(#p3f9af1f79e)" d="M 266.42498 365.333923 
L 275.219439 368.054684 
L 280.233463 363.349341 
L 271.46015 360.64807 
L 266.42498 365.333923 
z
" style="fill:#3b4cc0;fill-opacity:0.5;"/>
    <path clip-path="url(#p3f9af1f79e)" d="M 207.360096 365.866715 
L 216.035167 368.589697 
L 221.263902 363.880517 
L 212.609113 361.177049 
L 207.360096 365.866715 
z
" style="fill:#3b4cc0;fill-opacity:0.5;"/>
    <path clip-path="url(#p3f9af1f79e)" d="M 289.043239 366.061839 
L 297.889706 368.785635 
L 302.825043 364.075049 
L 294.000084 361.370776 
L 289.043239 366.061839 
z
" style="fill:#3b4cc0;fill-opacity:0.5;"/>
    <path clip-path="url(#p3f9af1f79e)" d="M 229.954676 366.595226 
L 238.681661 369.321245 
L 243.831881 364.606816 
L 235.12554 361.900343 
L 229.954676 366.595226 
z
" style="fill:#3b4cc0;fill-opacity:0.5;"/>
    <path clip-path="url(#p3f9af1f79e)" d="M 311.6867 366.790567 
L 320.585286 369.517402 
L 325.441757 364.801564 
L 316.565042 362.094285 
L 311.6867 366.790567 
z
" style="fill:#3b4cc0;fill-opacity:0.5;"/>
    <path clip-path="url(#p3f9af1f79e)" d="M 252.574443 367.324548 
L 261.353451 370.05361 
L 266.42498 365.333923 
L 257.666976 362.624439 
L 252.574443 367.324548 
z
" style="fill:#3b4cc0;fill-opacity:0.5;"/>
    <path clip-path="url(#p3f9af1f79e)" d="M 193.413928 367.858965 
L 202.073161 370.590258 
L 207.360096 365.866715 
L 198.720999 363.155025 
L 193.413928 367.858965 
z
" style="fill:#3b4cc0;fill-opacity:0.5;"/>
    <path clip-path="url(#p3f9af1f79e)" d="M 275.219439 368.054684 
L 284.050581 370.786794 
L 289.043239 366.061839 
L 280.233463 363.349341 
L 275.219439 368.054684 
z
" style="fill:#3b4cc0;fill-opacity:0.5;"/>
    <path clip-path="url(#p3f9af1f79e)" d="M 216.035167 368.589697 
L 224.746439 371.324042 
L 229.954676 366.595226 
L 221.263902 363.880517 
L 216.035167 368.589697 
z
" style="fill:#3b4cc0;fill-opacity:0.5;"/>
    <path clip-path="url(#p3f9af1f79e)" d="M 297.889706 368.785635 
L 306.773094 371.520798 
L 311.6867 366.790567 
L 302.825043 364.075049 
L 297.889706 368.785635 
z
" style="fill:#3b4cc0;fill-opacity:0.5;"/>
    <path clip-path="url(#p3f9af1f79e)" d="M 238.681661 369.321245 
L 247.445083 372.058646 
L 252.574443 367.324548 
L 243.831881 364.606816 
L 238.681661 369.321245 
z
" style="fill:#3b4cc0;fill-opacity:0.5;"/>
    <path clip-path="url(#p3f9af1f79e)" d="M 320.585286 369.517402 
L 329.521031 372.255623 
L 334.355407 367.520108 
L 325.441757 364.801564 
L 320.585286 369.517402 
z
" style="fill:#3b4cc0;fill-opacity:0.5;"/>
    <path clip-path="url(#p3f9af1f79e)" d="M 261.353451 370.05361 
L 270.169135 372.794074 
L 275.219439 368.054684 
L 266.42498 365.333923 
L 261.353451 370.05361 
z
" style="fill:#3b4cc0;fill-opacity:0.5;"/>
    <path clip-path="url(#p3f9af1f79e)" d="M 202.073161 370.590258 
L 210.768583 373.332966 
L 216.035167 368.589697 
L 207.360096 365.866715 
L 202.073161 370.590258 
z
" style="fill:#3b4cc0;fill-opacity:0.5;"/>
    <path clip-path="url(#p3f9af1f79e)" d="M 284.050581 370.786794 
L 292.918638 373.530324 
L 297.889706 368.785635 
L 289.043239 366.061839 
L 284.050581 370.786794 
z
" style="fill:#3b4cc0;fill-opacity:0.5;"/>
    <path clip-path="url(#p3f9af1f79e)" d="M 224.746439 371.324042 
L 233.494138 374.06982 
L 238.681661 369.321245 
L 229.954676 366.595226 
L 224.746439 371.324042 
z
" style="fill:#3b4cc0;fill-opacity:0.5;"/>
    <path clip-path="url(#p3f9af1f79e)" d="M 306.773094 371.520798 
L 315.693634 374.2674 
L 320.585286 369.517402 
L 311.6867 366.790567 
L 306.773094 371.520798 
z
" style="fill:#3b4cc0;fill-opacity:0.5;"/>
    <path clip-path="url(#p3f9af1f79e)" d="M 247.445083 372.058646 
L 256.24517 374.807501 
L 261.353451 370.05361 
L 252.574443 367.324548 
L 247.445083 372.058646 
z
" style="fill:#3b4cc0;fill-opacity:0.5;"/>
    <path clip-path="url(#p3f9af1f79e)" d="M 270.169135 372.794074 
L 279.021723 375.546009 
L 284.050581 370.786794 
L 275.219439 368.054684 
L 270.169135 372.794074 
z
" style="fill:#3b4cc0;fill-opacity:0.5;"/>
    <path clip-path="url(#p3f9af1f79e)" d="M 210.768583 373.332966 
L 219.500422 376.08716 
L 224.746439 371.324042 
L 216.035167 368.589697 
L 210.768583 373.332966 
z
" style="fill:#3b4cc0;fill-opacity:0.5;"/>
    <path clip-path="url(#p3f9af1f79e)" d="M 292.918638 373.530324 
L 301.823839 376.285346 
L 306.773094 371.520798 
L 297.889706 368.785635 
L 292.918638 373.530324 
z
" style="fill:#3b4cc0;fill-opacity:0.5;"/>
    <path clip-path="url(#p3f9af1f79e)" d="M 233.494138 374.06982 
L 242.278493 376.827105 
L 247.445083 372.058646 
L 238.681661 369.321245 
L 233.494138 374.06982 
z
" style="fill:#3b4cc0;fill-opacity:0.5;"/>
    <path clip-path="url(#p3f9af1f79e)" d="M 315.693634 374.2674 
L 324.651561 377.025514 
L 329.521031 372.255623 
L 320.585286 369.517402 
L 315.693634 374.2674 
z
" style="fill:#3b4cc0;fill-opacity:0.5;"/>
    <path clip-path="url(#p3f9af1f79e)" d="M 256.24517 374.807501 
L 265.082155 377.567881 
L 270.169135 372.794074 
L 261.353451 370.05361 
L 256.24517 374.807501 
z
" style="fill:#3b4cc0;fill-opacity:0.5;"/>
    <path clip-path="url(#p3f9af1f79e)" d="M 279.021723 375.546009 
L 287.911449 378.30949 
L 292.918638 373.530324 
L 284.050581 370.786794 
L 279.021723 375.546009 
z
" style="fill:#3b4cc0;fill-opacity:0.5;"/>
    <path clip-path="url(#p3f9af1f79e)" d="M 219.500422 376.08716 
L 228.268907 378.852914 
L 233.494138 374.06982 
L 224.746439 371.324042 
L 219.500422 376.08716 
z
" style="fill:#3b4cc0;fill-opacity:0.5;"/>
    <path clip-path="url(#p3f9af1f79e)" d="M 301.823839 376.285346 
L 310.76642 379.051932 
L 315.693634 374.2674 
L 306.773094 371.520798 
L 301.823839 376.285346 
z
" style="fill:#3b4cc0;fill-opacity:0.5;"/>
    <path clip-path="url(#p3f9af1f79e)" d="M 242.278493 376.827105 
L 251.099736 379.595968 
L 256.24517 374.807501 
L 247.445083 372.058646 
L 242.278493 376.827105 
z
" style="fill:#3b4cc0;fill-opacity:0.5;"/>
    <path clip-path="url(#p3f9af1f79e)" d="M 265.082155 377.567881 
L 273.956268 380.339859 
L 279.021723 375.546009 
L 270.169135 372.794074 
L 265.082155 377.567881 
z
" style="fill:#3b4cc0;fill-opacity:0.5;"/>
    <path clip-path="url(#p3f9af1f79e)" d="M 287.911449 378.30949 
L 296.838547 381.084587 
L 301.823839 376.285346 
L 292.918638 373.530324 
L 287.911449 378.30949 
z
" style="fill:#3b4cc0;fill-opacity:0.5;"/>
    <path clip-path="url(#p3f9af1f79e)" d="M 228.268907 378.852914 
L 237.074269 381.630299 
L 242.278493 376.827105 
L 233.494138 374.06982 
L 228.268907 378.852914 
z
" style="fill:#3b4cc0;fill-opacity:0.5;"/>
    <path clip-path="url(#p3f9af1f79e)" d="M 310.76642 379.051932 
L 319.746616 381.830155 
L 324.651561 377.025514 
L 315.693634 374.2674 
L 310.76642 379.051932 
z
" style="fill:#3b4cc0;fill-opacity:0.5;"/>
    <path clip-path="url(#p3f9af1f79e)" d="M 251.099736 379.595968 
L 259.958098 382.376482 
L 265.082155 377.567881 
L 256.24517 374.807501 
L 251.099736 379.595968 
z
" style="fill:#3b4cc0;fill-opacity:0.5;"/>
    <path clip-path="url(#p3f9af1f79e)" d="M 273.956268 380.339859 
L 282.867745 383.123507 
L 287.911449 378.30949 
L 279.021723 375.546009 
L 273.956268 380.339859 
z
" style="fill:#3b4cc0;fill-opacity:0.5;"/>
    <path clip-path="url(#p3f9af1f79e)" d="M 296.838547 381.084587 
L 305.803252 383.871376 
L 310.76642 379.051932 
L 301.823839 376.285346 
L 296.838547 381.084587 
z
" style="fill:#3b4cc0;fill-opacity:0.5;"/>
    <path clip-path="url(#p3f9af1f79e)" d="M 237.074269 381.630299 
L 245.916741 384.419389 
L 251.099736 379.595968 
L 242.278493 376.827105 
L 237.074269 381.630299 
z
" style="fill:#3b4cc0;fill-opacity:0.5;"/>
    <path clip-path="url(#p3f9af1f79e)" d="M 259.958098 382.376482 
L 268.853816 385.168722 
L 273.956268 380.339859 
L 265.082155 377.567881 
L 259.958098 382.376482 
z
" style="fill:#3b4cc0;fill-opacity:0.5;"/>
    <path clip-path="url(#p3f9af1f79e)" d="M 282.867745 383.123507 
L 291.816822 385.918901 
L 296.838547 381.084587 
L 287.911449 378.30949 
L 282.867745 383.123507 
z
" style="fill:#3b4cc0;fill-opacity:0.5;"/>
    <path clip-path="url(#p3f9af1f79e)" d="M 305.803252 383.871376 
L 314.805804 386.66993 
L 319.746616 381.830155 
L 310.76642 379.051932 
L 305.803252 383.871376 
z
" style="fill:#3b4cc0;fill-opacity:0.5;"/>
    <path clip-path="url(#p3f9af1f79e)" d="M 245.916741 384.419389 
L 254.796559 387.220259 
L 259.958098 382.376482 
L 251.099736 379.595968 
L 245.916741 384.419389 
z
" style="fill:#3b4cc0;fill-opacity:0.5;"/>
    <path clip-path="url(#p3f9af1f79e)" d="M 268.853816 385.168722 
L 277.787125 387.972761 
L 282.867745 383.123507 
L 273.956268 380.339859 
L 268.853816 385.168722 
z
" style="fill:#3b4cc0;fill-opacity:0.5;"/>
    <path clip-path="url(#p3f9af1f79e)" d="M 291.816822 385.918901 
L 300.803738 388.726115 
L 305.803252 383.871376 
L 296.838547 381.084587 
L 291.816822 385.918901 
z
" style="fill:#3b4cc0;fill-opacity:0.5;"/>
    <path clip-path="url(#p3f9af1f79e)" d="M 254.796559 387.220259 
L 263.713959 390.032983 
L 268.853816 385.168722 
L 259.958098 382.376482 
L 254.796559 387.220259 
z
" style="fill:#3b4cc0;fill-opacity:0.5;"/>
    <path clip-path="url(#p3f9af1f79e)" d="M 277.787125 387.972761 
L 286.758264 390.788674 
L 291.816822 385.918901 
L 282.867745 383.123507 
L 277.787125 387.972761 
z
" style="fill:#3b4cc0;fill-opacity:0.5;"/>
    <path clip-path="url(#p3f9af1f79e)" d="M 300.803738 388.726115 
L 309.828732 391.545223 
L 314.805804 386.66993 
L 305.803252 383.871376 
L 300.803738 388.726115 
z
" style="fill:#3b4cc0;fill-opacity:0.5;"/>
    <path clip-path="url(#p3f9af1f79e)" d="M 263.713959 390.032983 
L 272.669181 392.857637 
L 277.787125 387.972761 
L 268.853816 385.168722 
L 263.713959 390.032983 
z
" style="fill:#3b4cc0;fill-opacity:0.5;"/>
    <path clip-path="url(#p3f9af1f79e)" d="M 286.758264 390.788674 
L 295.767474 393.616537 
L 300.803738 388.726115 
L 291.816822 385.918901 
L 286.758264 390.788674 
z
" style="fill:#3b4cc0;fill-opacity:0.5;"/>
    <path clip-path="url(#p3f9af1f79e)" d="M 272.669181 392.857637 
L 281.662466 395.694297 
L 286.758264 390.788674 
L 277.787125 387.972761 
L 272.669181 392.857637 
z
" style="fill:#3b4cc0;fill-opacity:0.5;"/>
    <path clip-path="url(#p3f9af1f79e)" d="M 295.767474 393.616537 
L 304.814999 396.456427 
L 309.828732 391.545223 
L 300.803738 388.726115 
L 295.767474 393.616537 
z
" style="fill:#3b4cc0;fill-opacity:0.5;"/>
    <path clip-path="url(#p3f9af1f79e)" d="M 281.662466 395.694297 
L 290.694056 398.543039 
L 295.767474 393.616537 
L 286.758264 390.788674 
L 281.662466 395.694297 
z
" style="fill:#3b4cc0;fill-opacity:0.5;"/>
    <path clip-path="url(#p3f9af1f79e)" d="M 290.694056 398.543039 
L 299.764198 401.403941 
L 304.814999 396.456427 
L 295.767474 393.616537 
L 290.694056 398.543039 
z
" style="fill:#3b4cc0;fill-opacity:0.5;"/>
   </g>
   <g id="line2d_20">
    <path clip-path="url(#p3f9af1f79e)" d="M 183.984551 306.906163 
L 346.290283 355.829295 
" style="fill:none;stroke:#000000;stroke-linecap:square;stroke-width:1.5;"/>
   </g>
   <g id="line2d_21">
    <path clip-path="url(#p3f9af1f79e)" d="M 215.129936 374.708623 
L 308.906439 289.908657 
" style="fill:none;stroke:#000000;stroke-linecap:square;stroke-width:1.5;"/>
   </g>
   <g id="line2d_22">
    <path clip-path="url(#p3f9af1f79e)" d="M 263.578378 330.897795 
L 266.412786 305.573009 
L 269.283057 281.925081 
L 271.919909 261.943593 
L 274.579479 243.460079 
L 276.989616 228.145835 
L 279.412667 214.117146 
L 281.845918 201.404356 
L 284.015126 191.231217 
L 286.188217 182.137216 
L 288.091277 175.077569 
L 289.994412 168.865465 
L 291.624693 164.221579 
L 293.25316 160.210804 
L 294.878945 156.836916 
L 296.231094 154.514121 
L 297.580279 152.637231 
L 298.657159 151.457535 
L 299.731568 150.564365 
L 300.803253 149.95801 
L 301.871962 149.638624 
L 302.937443 149.606225 
L 303.999449 149.860698 
L 305.05773 150.401791 
L 306.112043 151.229118 
L 307.162143 152.34216 
L 308.20779 153.740263 
L 309.508224 155.887552 
L 310.800869 158.477191 
L 312.085272 161.507039 
L 313.615052 165.720455 
L 315.131573 170.559396 
L 316.883113 176.988108 
L 318.614477 184.251065 
L 320.324573 192.337448 
L 322.251577 202.572018 
L 324.147926 213.847169 
L 326.242903 227.749293 
L 328.295366 242.909458 
L 330.523858 261.187379 
L 332.695422 280.925052 
L 334.808023 302.068942 
L 336.657438 322.254404 
L 336.657438 322.254404 
" style="fill:none;stroke:#ff7f0e;stroke-linecap:square;stroke-width:1.5;"/>
   </g>
   <g id="line2d_23">
    <path clip-path="url(#p3f9af1f79e)" d="M 263.578378 330.897795 
L 336.690655 320.669958 
" style="fill:none;stroke:#808080;stroke-dasharray:5.55,2.4;stroke-dashoffset:0;stroke-width:1.5;"/>
   </g>
  </g>
 </g>
 <defs>
  <clipPath id="p3f9af1f79e">
   <rect height="380.52" width="390.6" x="63" y="60.48"/>
  </clipPath>
 </defs>
</svg>
