<?xml version="1.0" encoding="utf-8" standalone="no"?>
<!DOCTYPE svg PUBLIC "-//W3C//DTD SVG 1.1//EN"
  "http://www.w3.org/Graphics/SVG/1.1/DTD/svg11.dtd">
<!-- Created with matplotlib (http://matplotlib.org/) -->
<svg height="504pt" version="1.1" viewBox="0 0 504 504" width="504pt" xmlns="http://www.w3.org/2000/svg" xmlns:xlink="http://www.w3.org/1999/xlink">
 <defs>
  <style type="text/css">
*{stroke-linecap:butt;stroke-linejoin:round;}
  </style>
 </defs>
 <g id="figure_1">
  <g id="patch_1">
   <path d="M 0 504 
L 504 504 
L 504 0 
L 0 0 
z
" style="fill:#ffffff;"/>
  </g>
  <g id="patch_2">
   <path d="M 63 441 
L 453.6 441 
L 453.6 60.48 
L 63 60.48 
z
" style="fill:#ffffff;"/>
  </g>
  <g id="pane3d_1">
   <g id="patch_3">
    <path d="M 114.780066 356.91849 
L 226.571829 263.623608 
L 224.710615 85.352401 
L 106.685728 169.175934 
" style="fill:#f2f2f2;opacity:0.5;stroke:#f2f2f2;stroke-linejoin:miter;"/>
   </g>
  </g>
  <g id="pane3d_2">
   <g id="patch_4">
    <path d="M 226.571829 263.623608 
L 407.663976 315.781468 
L 415.240655 132.134565 
L 224.710615 85.352401 
" style="fill:#e6e6e6;opacity:0.5;stroke:#e6e6e6;stroke-linejoin:miter;"/>
   </g>
  </g>
  <g id="pane3d_3">
   <g id="patch_5">
    <path d="M 114.780066 356.91849 
L 305.313474 417.664816 
L 407.663976 315.781468 
L 226.571829 263.623608 
" style="fill:#ececec;opacity:0.5;stroke:#ececec;stroke-linejoin:miter;"/>
   </g>
  </g>
  <g id="axis3d_1">
   <g id="line2d_1">
    <path d="M 114.780066 356.91849 
L 305.313474 417.664816 
" style="fill:none;stroke:#000000;stroke-linecap:square;stroke-width:0.8;"/>
   </g>
   <g id="Line3DCollection_1">
    <path d="M 126.396213 360.621979 
L 237.647197 266.813517 
L 236.339385 88.207694 
" style="fill:none;stroke:#b0b0b0;stroke-width:0.8;"/>
    <path d="M 158.600357 370.889383 
L 268.328402 275.650267 
L 268.569805 96.121453 
" style="fill:none;stroke:#b0b0b0;stroke-width:0.8;"/>
    <path d="M 191.316234 381.319938 
L 299.461511 284.617173 
L 301.299261 104.157743 
" style="fill:none;stroke:#b0b0b0;stroke-width:0.8;"/>
    <path d="M 224.556139 391.917566 
L 331.056582 293.717133 
L 334.539432 112.319433 
" style="fill:none;stroke:#b0b0b0;stroke-width:0.8;"/>
    <path d="M 258.332763 402.686311 
L 363.123974 302.95313 
L 368.302367 120.609481 
" style="fill:none;stroke:#b0b0b0;stroke-width:0.8;"/>
    <path d="M 292.659212 413.630354 
L 395.674358 312.328238 
L 402.600496 129.030939 
" style="fill:none;stroke:#b0b0b0;stroke-width:0.8;"/>
   </g>
   <g id="xtick_1">
    <g id="line2d_2">
     <path d="M 127.354697 359.813771 
L 124.475669 362.24141 
" style="fill:none;stroke:#000000;stroke-linecap:square;stroke-width:0.8;"/>
    </g>
    <g id="text_1">
     <!-- 0 -->
     <defs>
      <path d="M 31.78125 66.40625 
Q 24.171875 66.40625 20.328125 58.90625 
Q 16.5 51.421875 16.5 36.375 
Q 16.5 21.390625 20.328125 13.890625 
Q 24.171875 6.390625 31.78125 6.390625 
Q 39.453125 6.390625 43.28125 13.890625 
Q 47.125 21.390625 47.125 36.375 
Q 47.125 51.421875 43.28125 58.90625 
Q 39.453125 66.40625 31.78125 66.40625 
z
M 31.78125 74.21875 
Q 44.046875 74.21875 50.515625 64.515625 
Q 56.984375 54.828125 56.984375 36.375 
Q 56.984375 17.96875 50.515625 8.265625 
Q 44.046875 -1.421875 31.78125 -1.421875 
Q 19.53125 -1.421875 13.0625 8.265625 
Q 6.59375 17.96875 6.59375 36.375 
Q 6.59375 54.828125 13.0625 64.515625 
Q 19.53125 74.21875 31.78125 74.21875 
z
" id="DejaVuSans-30"/>
     </defs>
     <g transform="translate(116.746348 384.248179)scale(0.1 -0.1)">
      <use xlink:href="#DejaVuSans-30"/>
     </g>
    </g>
   </g>
   <g id="xtick_2">
    <g id="line2d_3">
     <path d="M 159.546253 370.068387 
L 156.70501 372.534461 
" style="fill:none;stroke:#000000;stroke-linecap:square;stroke-width:0.8;"/>
    </g>
    <g id="text_2">
     <!-- 10 -->
     <defs>
      <path d="M 12.40625 8.296875 
L 28.515625 8.296875 
L 28.515625 63.921875 
L 10.984375 60.40625 
L 10.984375 69.390625 
L 28.421875 72.90625 
L 38.28125 72.90625 
L 38.28125 8.296875 
L 54.390625 8.296875 
L 54.390625 0 
L 12.40625 0 
z
" id="DejaVuSans-31"/>
     </defs>
     <g transform="translate(145.766335 394.657464)scale(0.1 -0.1)">
      <use xlink:href="#DejaVuSans-31"/>
      <use x="63.623047" xlink:href="#DejaVuSans-30"/>
     </g>
    </g>
   </g>
   <g id="xtick_3">
    <g id="line2d_4">
     <path d="M 192.249019 380.485849 
L 189.447131 382.991278 
" style="fill:none;stroke:#000000;stroke-linecap:square;stroke-width:0.8;"/>
    </g>
    <g id="text_3">
     <!-- 20 -->
     <defs>
      <path d="M 19.1875 8.296875 
L 53.609375 8.296875 
L 53.609375 0 
L 7.328125 0 
L 7.328125 8.296875 
Q 12.9375 14.109375 22.625 23.890625 
Q 32.328125 33.6875 34.8125 36.53125 
Q 39.546875 41.84375 41.421875 45.53125 
Q 43.3125 49.21875 43.3125 52.78125 
Q 43.3125 58.59375 39.234375 62.25 
Q 35.15625 65.921875 28.609375 65.921875 
Q 23.96875 65.921875 18.8125 64.3125 
Q 13.671875 62.703125 7.8125 59.421875 
L 7.8125 69.390625 
Q 13.765625 71.78125 18.9375 73 
Q 24.125 74.21875 28.421875 74.21875 
Q 39.75 74.21875 46.484375 68.546875 
Q 53.21875 62.890625 53.21875 53.421875 
Q 53.21875 48.921875 51.53125 44.890625 
Q 49.859375 40.875 45.40625 35.40625 
Q 44.1875 33.984375 37.640625 27.21875 
Q 31.109375 20.453125 19.1875 8.296875 
z
" id="DejaVuSans-32"/>
     </defs>
     <g transform="translate(178.480029 405.232405)scale(0.1 -0.1)">
      <use xlink:href="#DejaVuSans-32"/>
      <use x="63.623047" xlink:href="#DejaVuSans-30"/>
     </g>
    </g>
   </g>
   <g id="xtick_4">
    <g id="line2d_5">
     <path d="M 225.475269 391.070067 
L 222.714368 393.6158 
" style="fill:none;stroke:#000000;stroke-linecap:square;stroke-width:0.8;"/>
    </g>
    <g id="text_4">
     <!-- 30 -->
     <defs>
      <path d="M 40.578125 39.3125 
Q 47.65625 37.796875 51.625 33 
Q 55.609375 28.21875 55.609375 21.1875 
Q 55.609375 10.40625 48.1875 4.484375 
Q 40.765625 -1.421875 27.09375 -1.421875 
Q 22.515625 -1.421875 17.65625 -0.515625 
Q 12.796875 0.390625 7.625 2.203125 
L 7.625 11.71875 
Q 11.71875 9.328125 16.59375 8.109375 
Q 21.484375 6.890625 26.8125 6.890625 
Q 36.078125 6.890625 40.9375 10.546875 
Q 45.796875 14.203125 45.796875 21.1875 
Q 45.796875 27.640625 41.28125 31.265625 
Q 36.765625 34.90625 28.71875 34.90625 
L 20.21875 34.90625 
L 20.21875 43.015625 
L 29.109375 43.015625 
Q 36.375 43.015625 40.234375 45.921875 
Q 44.09375 48.828125 44.09375 54.296875 
Q 44.09375 59.90625 40.109375 62.90625 
Q 36.140625 65.921875 28.71875 65.921875 
Q 24.65625 65.921875 20.015625 65.03125 
Q 15.375 64.15625 9.8125 62.3125 
L 9.8125 71.09375 
Q 15.4375 72.65625 20.34375 73.4375 
Q 25.25 74.21875 29.59375 74.21875 
Q 40.828125 74.21875 47.359375 69.109375 
Q 53.90625 64.015625 53.90625 55.328125 
Q 53.90625 49.265625 50.4375 45.09375 
Q 46.96875 40.921875 40.578125 39.3125 
z
" id="DejaVuSans-33"/>
     </defs>
     <g transform="translate(211.718512 415.976988)scale(0.1 -0.1)">
      <use xlink:href="#DejaVuSans-33"/>
      <use x="63.623047" xlink:href="#DejaVuSans-30"/>
     </g>
    </g>
   </g>
   <g id="xtick_5">
    <g id="line2d_6">
     <path d="M 259.237675 401.825078 
L 256.519455 404.412095 
" style="fill:none;stroke:#000000;stroke-linecap:square;stroke-width:0.8;"/>
    </g>
    <g id="text_5">
     <!-- 40 -->
     <defs>
      <path d="M 37.796875 64.3125 
L 12.890625 25.390625 
L 37.796875 25.390625 
z
M 35.203125 72.90625 
L 47.609375 72.90625 
L 47.609375 25.390625 
L 58.015625 25.390625 
L 58.015625 17.1875 
L 47.609375 17.1875 
L 47.609375 0 
L 37.796875 0 
L 37.796875 17.1875 
L 4.890625 17.1875 
L 4.890625 26.703125 
z
" id="DejaVuSans-34"/>
     </defs>
     <g transform="translate(245.494514 426.895328)scale(0.1 -0.1)">
      <use xlink:href="#DejaVuSans-34"/>
      <use x="63.623047" xlink:href="#DejaVuSans-30"/>
     </g>
    </g>
   </g>
   <g id="xtick_6">
    <g id="line2d_7">
     <path d="M 293.54932 412.755048 
L 290.875543 415.384363 
" style="fill:none;stroke:#000000;stroke-linecap:square;stroke-width:0.8;"/>
    </g>
    <g id="text_6">
     <!-- 50 -->
     <defs>
      <path d="M 10.796875 72.90625 
L 49.515625 72.90625 
L 49.515625 64.59375 
L 19.828125 64.59375 
L 19.828125 46.734375 
Q 21.96875 47.46875 24.109375 47.828125 
Q 26.265625 48.1875 28.421875 48.1875 
Q 40.625 48.1875 47.75 41.5 
Q 54.890625 34.8125 54.890625 23.390625 
Q 54.890625 11.625 47.5625 5.09375 
Q 40.234375 -1.421875 26.90625 -1.421875 
Q 22.3125 -1.421875 17.546875 -0.640625 
Q 12.796875 0.140625 7.71875 1.703125 
L 7.71875 11.625 
Q 12.109375 9.234375 16.796875 8.0625 
Q 21.484375 6.890625 26.703125 6.890625 
Q 35.15625 6.890625 40.078125 11.328125 
Q 45.015625 15.765625 45.015625 23.390625 
Q 45.015625 31 40.078125 35.4375 
Q 35.15625 39.890625 26.703125 39.890625 
Q 22.75 39.890625 18.8125 39.015625 
Q 14.890625 38.140625 10.796875 36.28125 
z
" id="DejaVuSans-35"/>
     </defs>
     <g transform="translate(279.82118 437.991674)scale(0.1 -0.1)">
      <use xlink:href="#DejaVuSans-35"/>
      <use x="63.623047" xlink:href="#DejaVuSans-30"/>
     </g>
    </g>
   </g>
  </g>
  <g id="axis3d_2">
   <g id="line2d_8">
    <path d="M 407.663976 315.781468 
L 305.313474 417.664816 
" style="fill:none;stroke:#000000;stroke-linecap:square;stroke-width:0.8;"/>
   </g>
   <g id="Line3DCollection_2">
    <path d="M 114.767288 163.436256 
L 122.407062 350.553444 
L 312.318192 410.692069 
" style="fill:none;stroke:#b0b0b0;stroke-width:0.8;"/>
    <path d="M 136.511259 147.993271 
L 142.948204 333.411006 
L 331.167451 391.928843 
" style="fill:none;stroke:#b0b0b0;stroke-width:0.8;"/>
    <path d="M 157.656037 132.975845 
L 162.951597 316.717341 
L 349.500922 373.679051 
" style="fill:none;stroke:#b0b0b0;stroke-width:0.8;"/>
    <path d="M 178.226053 118.366626 
L 182.438087 300.455054 
L 367.33949 355.921902 
" style="fill:none;stroke:#b0b0b0;stroke-width:0.8;"/>
    <path d="M 198.244428 104.149194 
L 201.427453 284.607638 
L 384.702928 338.637716 
" style="fill:none;stroke:#b0b0b0;stroke-width:0.8;"/>
    <path d="M 217.733057 90.307996 
L 219.938479 269.159416 
L 401.609969 321.807843 
" style="fill:none;stroke:#b0b0b0;stroke-width:0.8;"/>
   </g>
   <g id="xtick_7">
    <g id="line2d_9">
     <path d="M 310.728803 410.188762 
L 315.500523 411.699809 
" style="fill:none;stroke:#000000;stroke-linecap:square;stroke-width:0.8;"/>
    </g>
    <g id="text_7">
     <!-- −50 -->
     <defs>
      <path d="M 10.59375 35.5 
L 73.1875 35.5 
L 73.1875 27.203125 
L 10.59375 27.203125 
z
" id="DejaVuSans-2212"/>
     </defs>
     <g transform="translate(312.993004 432.342476)scale(0.1 -0.1)">
      <use xlink:href="#DejaVuSans-2212"/>
      <use x="83.789062" xlink:href="#DejaVuSans-35"/>
      <use x="147.412109" xlink:href="#DejaVuSans-30"/>
     </g>
    </g>
   </g>
   <g id="xtick_8">
    <g id="line2d_10">
     <path d="M 329.593185 391.4394 
L 334.319453 392.908808 
" style="fill:none;stroke:#000000;stroke-linecap:square;stroke-width:0.8;"/>
    </g>
    <g id="text_8">
     <!-- −40 -->
     <g transform="translate(331.678927 413.392029)scale(0.1 -0.1)">
      <use xlink:href="#DejaVuSans-2212"/>
      <use x="83.789062" xlink:href="#DejaVuSans-34"/>
      <use x="147.412109" xlink:href="#DejaVuSans-30"/>
     </g>
    </g>
   </g>
   <g id="xtick_9">
    <g id="line2d_11">
     <path d="M 347.941552 373.202907 
L 352.623052 374.632374 
" style="fill:none;stroke:#000000;stroke-linecap:square;stroke-width:0.8;"/>
    </g>
    <g id="text_9">
     <!-- −30 -->
     <g transform="translate(349.853737 394.959931)scale(0.1 -0.1)">
      <use xlink:href="#DejaVuSans-2212"/>
      <use x="83.789062" xlink:href="#DejaVuSans-33"/>
      <use x="147.412109" xlink:href="#DejaVuSans-30"/>
     </g>
    </g>
   </g>
   <g id="xtick_10">
    <g id="line2d_12">
     <path d="M 365.794791 355.458522 
L 370.432202 356.849656 
" style="fill:none;stroke:#000000;stroke-linecap:square;stroke-width:0.8;"/>
    </g>
    <g id="text_10">
     <!-- −20 -->
     <g transform="translate(367.538121 377.025201)scale(0.1 -0.1)">
      <use xlink:href="#DejaVuSans-2212"/>
      <use x="83.789062" xlink:href="#DejaVuSans-32"/>
      <use x="147.412109" xlink:href="#DejaVuSans-30"/>
     </g>
    </g>
   </g>
   <g id="xtick_11">
    <g id="line2d_13">
     <path d="M 383.172676 338.186593 
L 387.76667 339.540914 
" style="fill:none;stroke:#000000;stroke-linecap:square;stroke-width:0.8;"/>
    </g>
    <g id="text_11">
     <!-- −10 -->
     <g transform="translate(384.751665 359.567976)scale(0.1 -0.1)">
      <use xlink:href="#DejaVuSans-2212"/>
      <use x="83.789062" xlink:href="#DejaVuSans-31"/>
      <use x="147.412109" xlink:href="#DejaVuSans-30"/>
     </g>
    </g>
   </g>
   <g id="xtick_12">
    <g id="line2d_14">
     <path d="M 400.093944 321.368498 
L 404.645186 322.687449 
" style="fill:none;stroke:#000000;stroke-linecap:square;stroke-width:0.8;"/>
    </g>
    <g id="text_12">
     <!-- 0 -->
     <g transform="translate(408.88402 342.569436)scale(0.1 -0.1)">
      <use xlink:href="#DejaVuSans-30"/>
     </g>
    </g>
   </g>
  </g>
  <g id="axis3d_3">
   <g id="line2d_15">
    <path d="M 407.663976 315.781468 
L 415.240655 132.134565 
" style="fill:none;stroke:#000000;stroke-linecap:square;stroke-width:0.8;"/>
   </g>
   <g id="Line3DCollection_3">
    <path d="M 407.808084 312.288531 
L 226.536354 260.225663 
L 114.626372 353.35368 
" style="fill:none;stroke:#b0b0b0;stroke-width:0.8;"/>
    <path d="M 408.756228 289.306979 
L 226.303017 237.87613 
L 113.614906 329.893422 
" style="fill:none;stroke:#b0b0b0;stroke-width:0.8;"/>
    <path d="M 409.716921 266.021273 
L 226.066721 215.24324 
L 112.589609 306.11237 
" style="fill:none;stroke:#b0b0b0;stroke-width:0.8;"/>
    <path d="M 410.690414 242.425334 
L 225.827411 192.321572 
L 111.550196 282.003898 
" style="fill:none;stroke:#b0b0b0;stroke-width:0.8;"/>
    <path d="M 411.676962 218.512922 
L 225.585028 169.105563 
L 110.496373 257.561198 
" style="fill:none;stroke:#b0b0b0;stroke-width:0.8;"/>
    <path d="M 412.676833 194.277626 
L 225.339512 145.589507 
L 109.427838 232.77727 
" style="fill:none;stroke:#b0b0b0;stroke-width:0.8;"/>
    <path d="M 413.690295 169.712862 
L 225.090802 121.767549 
L 108.344281 207.644919 
" style="fill:none;stroke:#b0b0b0;stroke-width:0.8;"/>
    <path d="M 414.71763 144.811866 
L 224.838836 97.633681 
L 107.245383 182.156747 
" style="fill:none;stroke:#b0b0b0;stroke-width:0.8;"/>
   </g>
   <g id="xtick_13">
    <g id="line2d_16">
     <path d="M 406.29563 311.854141 
L 410.836137 313.158215 
" style="fill:none;stroke:#000000;stroke-linecap:square;stroke-width:0.8;"/>
    </g>
    <g id="text_13">
     <!-- −5 -->
     <g transform="translate(416.664973 317.61396)scale(0.1 -0.1)">
      <use xlink:href="#DejaVuSans-2212"/>
      <use x="83.789062" xlink:href="#DejaVuSans-35"/>
     </g>
    </g>
   </g>
   <g id="xtick_14">
    <g id="line2d_17">
     <path d="M 407.233505 288.877746 
L 411.804863 290.166344 
" style="fill:none;stroke:#000000;stroke-linecap:square;stroke-width:0.8;"/>
    </g>
    <g id="text_14">
     <!-- −4 -->
     <g transform="translate(417.717874 294.659415)scale(0.1 -0.1)">
      <use xlink:href="#DejaVuSans-2212"/>
      <use x="83.789062" xlink:href="#DejaVuSans-34"/>
     </g>
    </g>
   </g>
   <g id="xtick_15">
    <g id="line2d_18">
     <path d="M 408.183788 265.597372 
L 412.78642 266.869968 
" style="fill:none;stroke:#000000;stroke-linecap:square;stroke-width:0.8;"/>
    </g>
    <g id="text_15">
     <!-- −3 -->
     <g transform="translate(418.784684 271.401631)scale(0.1 -0.1)">
      <use xlink:href="#DejaVuSans-2212"/>
      <use x="83.789062" xlink:href="#DejaVuSans-33"/>
     </g>
    </g>
   </g>
   <g id="xtick_16">
    <g id="line2d_19">
     <path d="M 409.146727 242.006946 
L 413.781062 243.262998 
" style="fill:none;stroke:#000000;stroke-linecap:square;stroke-width:0.8;"/>
    </g>
    <g id="text_16">
     <!-- −2 -->
     <g transform="translate(419.865681 247.83456)scale(0.1 -0.1)">
      <use xlink:href="#DejaVuSans-2212"/>
      <use x="83.789062" xlink:href="#DejaVuSans-32"/>
     </g>
    </g>
   </g>
   <g id="xtick_17">
    <g id="line2d_20">
     <path d="M 410.122577 218.100233 
L 414.789054 219.339181 
" style="fill:none;stroke:#000000;stroke-linecap:square;stroke-width:0.8;"/>
    </g>
    <g id="text_17">
     <!-- −1 -->
     <g transform="translate(420.961149 223.951991)scale(0.1 -0.1)">
      <use xlink:href="#DejaVuSans-2212"/>
      <use x="83.789062" xlink:href="#DejaVuSans-31"/>
     </g>
    </g>
   </g>
   <g id="xtick_18">
    <g id="line2d_21">
     <path d="M 411.111598 193.870829 
L 415.810667 195.092095 
" style="fill:none;stroke:#000000;stroke-linecap:square;stroke-width:0.8;"/>
    </g>
    <g id="text_18">
     <!-- 0 -->
     <g transform="translate(426.261225 199.747544)scale(0.1 -0.1)">
      <use xlink:href="#DejaVuSans-30"/>
     </g>
    </g>
   </g>
   <g id="xtick_19">
    <g id="line2d_22">
     <path d="M 412.11406 169.312155 
L 416.846178 170.515143 
" style="fill:none;stroke:#000000;stroke-linecap:square;stroke-width:0.8;"/>
    </g>
    <g id="text_19">
     <!-- 1 -->
     <g transform="translate(427.386522 175.21467)scale(0.1 -0.1)">
      <use xlink:href="#DejaVuSans-31"/>
     </g>
    </g>
   </g>
   <g id="xtick_20">
    <g id="line2d_23">
     <path d="M 413.130239 144.417455 
L 417.895874 145.601548 
" style="fill:none;stroke:#000000;stroke-linecap:square;stroke-width:0.8;"/>
    </g>
    <g id="text_20">
     <!-- 2 -->
     <g transform="translate(428.527193 150.346638)scale(0.1 -0.1)">
      <use xlink:href="#DejaVuSans-32"/>
     </g>
    </g>
   </g>
  </g>
  <g id="axes_1">
   <g id="Poly3DCollection_1">
    <path clip-path="url(#pc7336bb098)" d="M 224.992067 157.859097 
L 233.333327 159.98559 
L 238.279046 155.863532 
L 229.955787 153.752401 
L 224.992067 157.859097 
z
" style="fill:#e67259;fill-opacity:0.5;"/>
    <path clip-path="url(#pc7336bb098)" d="M 233.333327 159.98559 
L 241.707422 161.988165 
L 246.635135 157.850951 
L 238.279046 155.863532 
L 233.333327 159.98559 
z
" style="fill:#e67259;fill-opacity:0.5;"/>
    <path clip-path="url(#pc7336bb098)" d="M 220.002832 162.655343 
L 228.360642 164.798303 
L 233.333327 159.98559 
L 224.992067 157.859097 
L 220.002832 162.655343 
z
" style="fill:#e8765c;fill-opacity:0.5;"/>
    <path clip-path="url(#pc7336bb098)" d="M 241.707422 161.988165 
L 250.11547 163.866277 
L 255.025168 159.714113 
L 246.635135 157.850951 
L 241.707422 161.988165 
z
" style="fill:#e67259;fill-opacity:0.5;"/>
    <path clip-path="url(#pc7336bb098)" d="M 228.360642 164.798303 
L 236.751279 166.817191 
L 241.707422 161.988165 
L 233.333327 159.98559 
L 228.360642 164.798303 
z
" style="fill:#e8765c;fill-opacity:0.5;"/>
    <path clip-path="url(#pc7336bb098)" d="M 250.11547 163.866277 
L 258.558606 165.619349 
L 263.450273 161.452442 
L 255.025168 159.714113 
L 250.11547 163.866277 
z
" style="fill:#e57058;fill-opacity:0.5;"/>
    <path clip-path="url(#pc7336bb098)" d="M 214.990563 168.145128 
L 223.363455 170.30567 
L 228.360642 164.798303 
L 220.002832 162.655343 
L 214.990563 168.145128 
z
" style="fill:#e97a5f;fill-opacity:0.5;"/>
    <path clip-path="url(#pc7336bb098)" d="M 236.751279 166.817191 
L 245.175866 168.711461 
L 250.11547 163.866277 
L 241.707422 161.988165 
L 236.751279 166.817191 
z
" style="fill:#e7745b;fill-opacity:0.5;"/>
    <path clip-path="url(#pc7336bb098)" d="M 258.558606 165.619349 
L 267.03798 167.24677 
L 271.911594 163.06533 
L 263.450273 161.452442 
L 258.558606 165.619349 
z
" style="fill:#e46e56;fill-opacity:0.5;"/>
    <path clip-path="url(#pc7336bb098)" d="M 223.363455 170.30567 
L 231.769153 172.342038 
L 236.751279 166.817191 
L 228.360642 164.798303 
L 223.363455 170.30567 
z
" style="fill:#e97a5f;fill-opacity:0.5;"/>
    <path clip-path="url(#pc7336bb098)" d="M 209.957796 174.33173 
L 218.344285 176.510976 
L 223.363455 170.30567 
L 214.990563 168.145128 
L 209.957796 174.33173 
z
" style="fill:#ec8165;fill-opacity:0.5;"/>
    <path clip-path="url(#pc7336bb098)" d="M 245.175866 168.711461 
L 253.635542 170.480536 
L 258.558606 165.619349 
L 250.11547 163.866277 
L 245.175866 168.711461 
z
" style="fill:#e67259;fill-opacity:0.5;"/>
    <path clip-path="url(#pc7336bb098)" d="M 231.769153 172.342038 
L 240.208783 174.253686 
L 245.175866 168.711461 
L 236.751279 166.817191 
L 231.769153 172.342038 
z
" style="fill:#e97a5f;fill-opacity:0.5;"/>
    <path clip-path="url(#pc7336bb098)" d="M 267.03798 167.24677 
L 275.554762 168.747897 
L 280.410296 164.552136 
L 271.911594 163.06533 
L 267.03798 167.24677 
z
" style="fill:#e36c55;fill-opacity:0.5;"/>
    <path clip-path="url(#pc7336bb098)" d="M 218.344285 176.510976 
L 226.763545 178.565999 
L 231.769153 172.342038 
L 223.363455 170.30567 
L 218.344285 176.510976 
z
" style="fill:#ec8165;fill-opacity:0.5;"/>
    <path clip-path="url(#pc7336bb098)" d="M 253.635542 170.480536 
L 262.131465 172.123803 
L 267.03798 167.24677 
L 258.558606 165.619349 
L 253.635542 170.480536 
z
" style="fill:#e57058;fill-opacity:0.5;"/>
    <path clip-path="url(#pc7336bb098)" d="M 204.90712 181.217701 
L 213.305707 183.416778 
L 218.344285 176.510976 
L 209.957796 174.33173 
L 204.90712 181.217701 
z
" style="fill:#f08a6c;fill-opacity:0.5;"/>
    <path clip-path="url(#pc7336bb098)" d="M 240.208783 174.253686 
L 248.683491 176.040036 
L 253.635542 170.480536 
L 245.175866 168.711461 
L 240.208783 174.253686 
z
" style="fill:#e9785d;fill-opacity:0.5;"/>
    <path clip-path="url(#pc7336bb098)" d="M 275.554762 168.747897 
L 284.11014 170.122056 
L 288.94756 165.912185 
L 280.410296 164.552136 
L 275.554762 168.747897 
z
" style="fill:#e26952;fill-opacity:0.5;"/>
    <path clip-path="url(#pc7336bb098)" d="M 226.763545 178.565999 
L 235.216708 180.496253 
L 240.208783 174.253686 
L 231.769153 172.342038 
L 226.763545 178.565999 
z
" style="fill:#ec8165;fill-opacity:0.5;"/>
    <path clip-path="url(#pc7336bb098)" d="M 262.131465 172.123803 
L 270.664809 173.640619 
L 275.554762 168.747897 
L 267.03798 167.24677 
L 262.131465 172.123803 
z
" style="fill:#e46e56;fill-opacity:0.5;"/>
    <path clip-path="url(#pc7336bb098)" d="M 213.305707 183.416778 
L 221.737016 185.491637 
L 226.763545 178.565999 
L 218.344285 176.510976 
L 213.305707 183.416778 
z
" style="fill:#f08a6c;fill-opacity:0.5;"/>
    <path clip-path="url(#pc7336bb098)" d="M 199.841174 188.80485 
L 208.250345 191.024887 
L 213.305707 183.416778 
L 204.90712 181.217701 
L 199.841174 188.80485 
z
" style="fill:#f39577;fill-opacity:0.5;"/>
    <path clip-path="url(#pc7336bb098)" d="M 248.683491 176.040036 
L 257.194439 177.700474 
L 262.131465 172.123803 
L 253.635542 170.480536 
L 248.683491 176.040036 
z
" style="fill:#e8765c;fill-opacity:0.5;"/>
    <path clip-path="url(#pc7336bb098)" d="M 284.11014 170.122056 
L 292.705322 171.368534 
L 297.524586 167.144771 
L 288.94756 165.912185 
L 284.11014 170.122056 
z
" style="fill:#e16751;fill-opacity:0.5;"/>
    <path clip-path="url(#pc7336bb098)" d="M 235.216708 180.496253 
L 243.704922 182.301159 
L 248.683491 176.040036 
L 240.208783 174.253686 
L 235.216708 180.496253 
z
" style="fill:#ec7f63;fill-opacity:0.5;"/>
    <path clip-path="url(#pc7336bb098)" d="M 270.664809 173.640619 
L 279.236767 175.030305 
L 284.11014 170.122056 
L 275.554762 168.747897 
L 270.664809 173.640619 
z
" style="fill:#e36c55;fill-opacity:0.5;"/>
    <path clip-path="url(#pc7336bb098)" d="M 221.737016 185.491637 
L 230.202185 187.44173 
L 235.216708 180.496253 
L 226.763545 178.565999 
L 221.737016 185.491637 
z
" style="fill:#f08a6c;fill-opacity:0.5;"/>
    <path clip-path="url(#pc7336bb098)" d="M 208.250345 191.024887 
L 216.692177 193.120763 
L 221.737016 185.491637 
L 213.305707 183.416778 
L 208.250345 191.024887 
z
" style="fill:#f39475;fill-opacity:0.5;"/>
    <path clip-path="url(#pc7336bb098)" d="M 194.762639 197.094231 
L 203.180868 199.336357 
L 208.250345 191.024887 
L 199.841174 188.80485 
L 194.762639 197.094231 
z
" style="fill:#f5a081;fill-opacity:0.5;"/>
    <path clip-path="url(#pc7336bb098)" d="M 257.194439 177.700474 
L 265.742807 179.234357 
L 270.664809 173.640619 
L 262.131465 172.123803 
L 257.194439 177.700474 
z
" style="fill:#e7745b;fill-opacity:0.5;"/>
    <path clip-path="url(#pc7336bb098)" d="M 292.705322 171.368534 
L 301.341533 172.486586 
L 306.142596 168.249149 
L 297.524586 167.144771 
L 292.705322 171.368534 
z
" style="fill:#df634e;fill-opacity:0.5;"/>
    <path clip-path="url(#pc7336bb098)" d="M 243.704922 182.301159 
L 252.229356 183.980105 
L 257.194439 177.700474 
L 248.683491 176.040036 
L 243.704922 182.301159 
z
" style="fill:#eb7d62;fill-opacity:0.5;"/>
    <path clip-path="url(#pc7336bb098)" d="M 230.202185 187.44173 
L 238.702365 189.26648 
L 243.704922 182.301159 
L 235.216708 180.496253 
L 230.202185 187.44173 
z
" style="fill:#ef886b;fill-opacity:0.5;"/>
    <path clip-path="url(#pc7336bb098)" d="M 279.236767 175.030305 
L 287.848554 176.29215 
L 292.705322 171.368534 
L 284.11014 170.122056 
L 279.236767 175.030305 
z
" style="fill:#e26952;fill-opacity:0.5;"/>
    <path clip-path="url(#pc7336bb098)" d="M 216.692177 193.120763 
L 225.167811 195.091932 
L 230.202185 187.44173 
L 221.737016 185.491637 
L 216.692177 193.120763 
z
" style="fill:#f39475;fill-opacity:0.5;"/>
    <path clip-path="url(#pc7336bb098)" d="M 203.180868 199.336357 
L 211.631686 201.454432 
L 216.692177 193.120763 
L 208.250345 191.024887 
L 203.180868 199.336357 
z
" style="fill:#f5a081;fill-opacity:0.5;"/>
    <path clip-path="url(#pc7336bb098)" d="M 189.674235 206.086132 
L 198.099989 208.351471 
L 203.180868 199.336357 
L 194.762639 197.094231 
L 189.674235 206.086132 
z
" style="fill:#f7ad90;fill-opacity:0.5;"/>
    <path clip-path="url(#pc7336bb098)" d="M 265.742807 179.234357 
L 274.329793 180.641006 
L 279.236767 175.030305 
L 270.664809 173.640619 
L 265.742807 179.234357 
z
" style="fill:#e57058;fill-opacity:0.5;"/>
    <path clip-path="url(#pc7336bb098)" d="M 301.341533 172.486586 
L 310.020022 173.475433 
L 314.80283 169.224542 
L 306.142596 168.249149 
L 301.341533 172.486586 
z
" style="fill:#dc5d4a;fill-opacity:0.5;"/>
    <path clip-path="url(#pc7336bb098)" d="M 252.229356 183.980105 
L 260.791193 185.532445 
L 265.742807 179.234357 
L 257.194439 177.700474 
L 252.229356 183.980105 
z
" style="fill:#ea7b60;fill-opacity:0.5;"/>
    <path clip-path="url(#pc7336bb098)" d="M 238.702365 189.26648 
L 247.238729 190.965275 
L 252.229356 183.980105 
L 243.704922 182.301159 
L 238.702365 189.26648 
z
" style="fill:#ee8669;fill-opacity:0.5;"/>
    <path clip-path="url(#pc7336bb098)" d="M 287.848554 176.29215 
L 296.501401 177.425406 
L 301.341533 172.486586 
L 292.705322 171.368534 
L 287.848554 176.29215 
z
" style="fill:#e0654f;fill-opacity:0.5;"/>
    <path clip-path="url(#pc7336bb098)" d="M 225.167811 195.091932 
L 233.678404 196.937816 
L 238.702365 189.26648 
L 230.202185 187.44173 
L 225.167811 195.091932 
z
" style="fill:#f29274;fill-opacity:0.5;"/>
    <path clip-path="url(#pc7336bb098)" d="M 211.631686 201.454432 
L 220.116233 203.447912 
L 225.167811 195.091932 
L 216.692177 193.120763 
L 211.631686 201.454432 
z
" style="fill:#f59f80;fill-opacity:0.5;"/>
    <path clip-path="url(#pc7336bb098)" d="M 184.578721 215.780065 
L 193.010455 218.069733 
L 198.099989 208.351471 
L 189.674235 206.086132 
L 184.578721 215.780065 
z
" style="fill:#f7ba9f;fill-opacity:0.5;"/>
    <path clip-path="url(#pc7336bb098)" d="M 198.099989 208.351471 
L 206.558243 210.492923 
L 211.631686 201.454432 
L 203.180868 199.336357 
L 198.099989 208.351471 
z
" style="fill:#f7ad90;fill-opacity:0.5;"/>
    <path clip-path="url(#pc7336bb098)" d="M 274.329793 180.641006 
L 282.956617 181.919707 
L 287.848554 176.29215 
L 279.236767 175.030305 
L 274.329793 180.641006 
z
" style="fill:#e46e56;fill-opacity:0.5;"/>
    <path clip-path="url(#pc7336bb098)" d="M 310.020022 173.475433 
L 318.742057 174.334257 
L 323.50655 170.070137 
L 314.80283 169.224542 
L 310.020022 173.475433 
z
" style="fill:#d95847;fill-opacity:0.5;"/>
    <path clip-path="url(#pc7336bb098)" d="M 260.791193 185.532445 
L 269.391637 186.957502 
L 274.329793 180.641006 
L 265.742807 179.234357 
L 260.791193 185.532445 
z
" style="fill:#e9785d;fill-opacity:0.5;"/>
    <path clip-path="url(#pc7336bb098)" d="M 247.238729 190.965275 
L 255.812465 192.53747 
L 260.791193 185.532445 
L 252.229356 183.980105 
L 247.238729 190.965275 
z
" style="fill:#ee8468;fill-opacity:0.5;"/>
    <path clip-path="url(#pc7336bb098)" d="M 179.478882 226.174758 
L 187.915047 228.489864 
L 193.010455 218.069733 
L 184.578721 215.780065 
L 179.478882 226.174758 
z
" style="fill:#f3c7b1;fill-opacity:0.5;"/>
    <path clip-path="url(#pc7336bb098)" d="M 233.678404 196.937816 
L 242.22513 198.657807 
L 247.238729 190.965275 
L 238.702365 189.26648 
L 233.678404 196.937816 
z
" style="fill:#f29072;fill-opacity:0.5;"/>
    <path clip-path="url(#pc7336bb098)" d="M 296.501401 177.425406 
L 305.196564 178.429292 
L 310.020022 173.475433 
L 301.341533 172.486586 
L 296.501401 177.425406 
z
" style="fill:#de614d;fill-opacity:0.5;"/>
    <path clip-path="url(#pc7336bb098)" d="M 193.010455 218.069733 
L 201.474589 220.235735 
L 206.558243 210.492923 
L 198.099989 208.351471 
L 193.010455 218.069733 
z
" style="fill:#f7ba9f;fill-opacity:0.5;"/>
    <path clip-path="url(#pc7336bb098)" d="M 220.116233 203.447912 
L 228.635672 205.316223 
L 233.678404 196.937816 
L 225.167811 195.091932 
L 220.116233 203.447912 
z
" style="fill:#f59f80;fill-opacity:0.5;"/>
    <path clip-path="url(#pc7336bb098)" d="M 206.558243 210.492923 
L 215.050143 212.509948 
L 220.116233 203.447912 
L 211.631686 201.454432 
L 206.558243 210.492923 
z
" style="fill:#f7ac8e;fill-opacity:0.5;"/>
    <path clip-path="url(#pc7336bb098)" d="M 282.956617 181.919707 
L 291.624516 183.069713 
L 296.501401 177.425406 
L 287.848554 176.29215 
L 282.956617 181.919707 
z
" style="fill:#e36b54;fill-opacity:0.5;"/>
    <path clip-path="url(#pc7336bb098)" d="M 269.391637 186.957502 
L 278.031912 188.254561 
L 282.956617 181.919707 
L 274.329793 180.641006 
L 269.391637 186.957502 
z
" style="fill:#e7745b;fill-opacity:0.5;"/>
    <path clip-path="url(#pc7336bb098)" d="M 318.742057 174.334257 
L 327.508929 175.062205 
L 332.25504 170.785082 
L 323.50655 170.070137 
L 318.742057 174.334257 
z
" style="fill:#d65244;fill-opacity:0.5;"/>
    <path clip-path="url(#pc7336bb098)" d="M 174.377531 237.268151 
L 182.816571 239.60979 
L 187.915047 228.489864 
L 179.478882 226.174758 
L 174.377531 237.268151 
z
" style="fill:#ecd3c5;fill-opacity:0.5;"/>
    <path clip-path="url(#pc7336bb098)" d="M 255.812465 192.53747 
L 264.424782 193.982389 
L 269.391637 186.957502 
L 260.791193 185.532445 
L 255.812465 192.53747 
z
" style="fill:#ec8165;fill-opacity:0.5;"/>
    <path clip-path="url(#pc7336bb098)" d="M 187.915047 228.489864 
L 196.383498 230.681577 
L 201.474589 220.235735 
L 193.010455 218.069733 
L 187.915047 228.489864 
z
" style="fill:#f3c7b1;fill-opacity:0.5;"/>
    <path clip-path="url(#pc7336bb098)" d="M 242.22513 198.657807 
L 250.809182 200.25126 
L 255.812465 192.53747 
L 247.238729 190.965275 
L 242.22513 198.657807 
z
" style="fill:#f18f71;fill-opacity:0.5;"/>
    <path clip-path="url(#pc7336bb098)" d="M 201.474589 220.235735 
L 209.972272 222.277531 
L 215.050143 212.509948 
L 206.558243 210.492923 
L 201.474589 220.235735 
z
" style="fill:#f7b99e;fill-opacity:0.5;"/>
    <path clip-path="url(#pc7336bb098)" d="M 228.635672 205.316223 
L 237.19118 207.058756 
L 242.22513 198.657807 
L 233.678404 196.937816 
L 228.635672 205.316223 
z
" style="fill:#f59d7e;fill-opacity:0.5;"/>
    <path clip-path="url(#pc7336bb098)" d="M 305.196564 178.429292 
L 313.935315 179.302987 
L 318.742057 174.334257 
L 310.020022 173.475433 
L 305.196564 178.429292 
z
" style="fill:#da5a49;fill-opacity:0.5;"/>
    <path clip-path="url(#pc7336bb098)" d="M 215.050143 212.509948 
L 223.576852 214.401973 
L 228.635672 205.316223 
L 220.116233 203.447912 
L 215.050143 212.509948 
z
" style="fill:#f7ac8e;fill-opacity:0.5;"/>
    <path clip-path="url(#pc7336bb098)" d="M 169.277501 249.057391 
L 177.717859 251.426643 
L 182.816571 239.60979 
L 174.377531 237.268151 
L 169.277501 249.057391 
z
" style="fill:#dfdbd9;fill-opacity:0.5;"/>
    <path clip-path="url(#pc7336bb098)" d="M 291.624516 183.069713 
L 300.33475 184.090239 
L 305.196564 178.429292 
L 296.501401 177.425406 
L 291.624516 183.069713 
z
" style="fill:#e0654f;fill-opacity:0.5;"/>
    <path clip-path="url(#pc7336bb098)" d="M 182.816571 239.60979 
L 191.287772 241.828364 
L 196.383498 230.681577 
L 187.915047 228.489864 
L 182.816571 239.60979 
z
" style="fill:#ecd3c5;fill-opacity:0.5;"/>
    <path clip-path="url(#pc7336bb098)" d="M 278.031912 188.254561 
L 286.713261 189.422874 
L 291.624516 183.069713 
L 282.956617 181.919707 
L 278.031912 188.254561 
z
" style="fill:#e67259;fill-opacity:0.5;"/>
    <path clip-path="url(#pc7336bb098)" d="M 327.508929 175.062205 
L 336.321952 175.658384 
L 341.049606 171.368489 
L 332.25504 170.785082 
L 327.508929 175.062205 
z
" style="fill:#d24b40;fill-opacity:0.5;"/>
    <path clip-path="url(#pc7336bb098)" d="M 196.383498 230.681577 
L 204.885386 232.749362 
L 209.972272 222.277531 
L 201.474589 220.235735 
L 196.383498 230.681577 
z
" style="fill:#f3c7b1;fill-opacity:0.5;"/>
    <path clip-path="url(#pc7336bb098)" d="M 264.424782 193.982389 
L 273.076908 195.299316 
L 278.031912 188.254561 
L 269.391637 186.957502 
L 264.424782 193.982389 
z
" style="fill:#ec7f63;fill-opacity:0.5;"/>
    <path clip-path="url(#pc7336bb098)" d="M 164.181641 261.538834 
L 172.621757 263.93676 
L 177.717859 251.426643 
L 169.277501 249.057391 
L 164.181641 261.538834 
z
" style="fill:#cfdaea;fill-opacity:0.5;"/>
    <path clip-path="url(#pc7336bb098)" d="M 209.972272 222.277531 
L 218.504667 224.194553 
L 223.576852 214.401973 
L 215.050143 212.509948 
L 209.972272 222.277531 
z
" style="fill:#f7b99e;fill-opacity:0.5;"/>
    <path clip-path="url(#pc7336bb098)" d="M 250.809182 200.25126 
L 259.431773 201.717498 
L 264.424782 193.982389 
L 255.812465 192.53747 
L 250.809182 200.25126 
z
" style="fill:#f18d6f;fill-opacity:0.5;"/>
    <path clip-path="url(#pc7336bb098)" d="M 223.576852 214.401973 
L 232.139552 216.168392 
L 237.19118 207.058756 
L 228.635672 205.316223 
L 223.576852 214.401973 
z
" style="fill:#f7aa8c;fill-opacity:0.5;"/>
    <path clip-path="url(#pc7336bb098)" d="M 237.19118 207.058756 
L 245.783953 208.674869 
L 250.809182 200.25126 
L 242.22513 198.657807 
L 237.19118 207.058756 
z
" style="fill:#f59c7d;fill-opacity:0.5;"/>
    <path clip-path="url(#pc7336bb098)" d="M 313.935315 179.302987 
L 322.718954 180.045636 
L 327.508929 175.062205 
L 318.742057 174.334257 
L 313.935315 179.302987 
z
" style="fill:#d85646;fill-opacity:0.5;"/>
    <path clip-path="url(#pc7336bb098)" d="M 177.717859 251.426643 
L 186.190238 253.673212 
L 191.287772 241.828364 
L 182.816571 239.60979 
L 177.717859 251.426643 
z
" style="fill:#e0dbd8;fill-opacity:0.5;"/>
    <path clip-path="url(#pc7336bb098)" d="M 159.092809 274.708043 
L 167.531124 277.135683 
L 172.621757 263.93676 
L 164.181641 261.538834 
L 159.092809 274.708043 
z
" style="fill:#bcd2f7;fill-opacity:0.5;"/>
    <path clip-path="url(#pc7336bb098)" d="M 300.33475 184.090239 
L 309.088601 184.980464 
L 313.935315 179.302987 
L 305.196564 178.429292 
L 300.33475 184.090239 
z
" style="fill:#de614d;fill-opacity:0.5;"/>
    <path clip-path="url(#pc7336bb098)" d="M 191.287772 241.828364 
L 199.792284 243.923342 
L 204.885386 232.749362 
L 196.383498 230.681577 
L 191.287772 241.828364 
z
" style="fill:#edd2c3;fill-opacity:0.5;"/>
    <path clip-path="url(#pc7336bb098)" d="M 286.713261 189.422874 
L 295.43695 190.461656 
L 300.33475 184.090239 
L 291.624516 183.069713 
L 286.713261 189.422874 
z
" style="fill:#e36c55;fill-opacity:0.5;"/>
    <path clip-path="url(#pc7336bb098)" d="M 204.885386 232.749362 
L 213.421877 234.692653 
L 218.504667 224.194553 
L 209.972272 222.277531 
L 204.885386 232.749362 
z
" style="fill:#f4c6af;fill-opacity:0.5;"/>
    <path clip-path="url(#pc7336bb098)" d="M 154.013869 288.559792 
L 162.448827 291.018162 
L 167.531124 277.135683 
L 159.092809 274.708043 
L 154.013869 288.559792 
z
" style="fill:#a6c4fe;fill-opacity:0.5;"/>
    <path clip-path="url(#pc7336bb098)" d="M 172.621757 263.93676 
L 181.093742 266.21244 
L 186.190238 253.673212 
L 177.717859 251.426643 
L 172.621757 263.93676 
z
" style="fill:#d1dae9;fill-opacity:0.5;"/>
    <path clip-path="url(#pc7336bb098)" d="M 273.076908 195.299316 
L 281.77009 196.487504 
L 286.713261 189.422874 
L 278.031912 188.254561 
L 273.076908 195.299316 
z
" style="fill:#ea7b60;fill-opacity:0.5;"/>
    <path clip-path="url(#pc7336bb098)" d="M 336.321952 175.658384 
L 345.182462 176.121866 
L 349.891579 171.819432 
L 341.049606 171.368489 
L 336.321952 175.658384 
z
" style="fill:#cf453c;fill-opacity:0.5;"/>
    <path clip-path="url(#pc7336bb098)" d="M 218.504667 224.194553 
L 227.072959 225.986198 
L 232.139552 216.168392 
L 223.576852 214.401973 
L 218.504667 224.194553 
z
" style="fill:#f7b89c;fill-opacity:0.5;"/>
    <path clip-path="url(#pc7336bb098)" d="M 259.431773 201.717498 
L 268.094134 203.05581 
L 273.076908 195.299316 
L 264.424782 193.982389 
L 259.431773 201.717498 
z
" style="fill:#f08a6c;fill-opacity:0.5;"/>
    <path clip-path="url(#pc7336bb098)" d="M 232.139552 216.168392 
L 240.73944 217.808567 
L 245.783953 208.674869 
L 237.19118 207.058756 
L 232.139552 216.168392 
z
" style="fill:#f7a889;fill-opacity:0.5;"/>
    <path clip-path="url(#pc7336bb098)" d="M 245.783953 208.674869 
L 254.415207 210.163888 
L 259.431773 201.717498 
L 250.809182 200.25126 
L 245.783953 208.674869 
z
" style="fill:#f4987a;fill-opacity:0.5;"/>
    <path clip-path="url(#pc7336bb098)" d="M 148.947685 303.088075 
L 157.377732 305.578164 
L 162.448827 291.018162 
L 154.013869 288.559792 
L 148.947685 303.088075 
z
" style="fill:#8caffe;fill-opacity:0.5;"/>
    <path clip-path="url(#pc7336bb098)" d="M 186.190238 253.673212 
L 194.69579 255.796573 
L 199.792284 243.923342 
L 191.287772 241.828364 
L 186.190238 253.673212 
z
" style="fill:#e0dbd8;fill-opacity:0.5;"/>
    <path clip-path="url(#pc7336bb098)" d="M 322.718954 180.045636 
L 331.548799 180.656345 
L 336.321952 175.658384 
L 327.508929 175.062205 
L 322.718954 180.045636 
z
" style="fill:#d55042;fill-opacity:0.5;"/>
    <path clip-path="url(#pc7336bb098)" d="M 167.531124 277.135683 
L 176.001144 279.441567 
L 181.093742 266.21244 
L 172.621757 263.93676 
L 167.531124 277.135683 
z
" style="fill:#bcd2f7;fill-opacity:0.5;"/>
    <path clip-path="url(#pc7336bb098)" d="M 143.897115 318.286109 
L 152.320703 320.808875 
L 157.377732 305.578164 
L 148.947685 303.088075 
L 143.897115 318.286109 
z
" style="fill:#7093f3;fill-opacity:0.5;"/>
    <path clip-path="url(#pc7336bb098)" d="M 199.792284 243.923342 
L 208.331276 245.894164 
L 213.421877 234.692653 
L 204.885386 232.749362 
L 199.792284 243.923342 
z
" style="fill:#edd1c2;fill-opacity:0.5;"/>
    <path clip-path="url(#pc7336bb098)" d="M 309.088601 184.980464 
L 317.88737 185.739532 
L 322.718954 180.045636 
L 313.935315 179.302987 
L 309.088601 184.980464 
z
" style="fill:#da5a49;fill-opacity:0.5;"/>
    <path clip-path="url(#pc7336bb098)" d="M 138.865006 334.146348 
L 147.280594 336.702718 
L 152.320703 320.808875 
L 143.897115 318.286109 
L 138.865006 334.146348 
z
" style="fill:#5572df;fill-opacity:0.5;"/>
    <path clip-path="url(#pc7336bb098)" d="M 133.854188 350.660493 
L 142.260245 353.251358 
L 147.280594 336.702718 
L 138.865006 334.146348 
L 133.854188 350.660493 
z
" style="fill:#3b4cc0;fill-opacity:0.5;"/>
    <path clip-path="url(#pc7336bb098)" d="M 162.448827 291.018162 
L 170.915311 293.355321 
L 176.001144 279.441567 
L 167.531124 277.135683 
L 162.448827 291.018162 
z
" style="fill:#a6c4fe;fill-opacity:0.5;"/>
    <path clip-path="url(#pc7336bb098)" d="M 213.421877 234.692653 
L 221.994157 236.510853 
L 227.072959 225.986198 
L 218.504667 224.194553 
L 213.421877 234.692653 
z
" style="fill:#f4c5ad;fill-opacity:0.5;"/>
    <path clip-path="url(#pc7336bb098)" d="M 295.43695 190.461656 
L 304.204263 191.370086 
L 309.088601 184.980464 
L 300.33475 184.090239 
L 295.43695 190.461656 
z
" style="fill:#e26952;fill-opacity:0.5;"/>
    <path clip-path="url(#pc7336bb098)" d="M 181.093742 266.21244 
L 189.598749 268.365354 
L 194.69579 255.796573 
L 186.190238 253.673212 
L 181.093742 266.21244 
z
" style="fill:#d1dae9;fill-opacity:0.5;"/>
    <path clip-path="url(#pc7336bb098)" d="M 227.072959 225.986198 
L 235.678349 227.651829 
L 240.73944 217.808567 
L 232.139552 216.168392 
L 227.072959 225.986198 
z
" style="fill:#f7b599;fill-opacity:0.5;"/>
    <path clip-path="url(#pc7336bb098)" d="M 281.77009 196.487504 
L 290.505598 197.546168 
L 295.43695 190.461656 
L 286.713261 189.422874 
L 281.77009 196.487504 
z
" style="fill:#e8765c;fill-opacity:0.5;"/>
    <path clip-path="url(#pc7336bb098)" d="M 345.182462 176.121866 
L 354.09182 176.451681 
L 358.782311 172.136946 
L 349.891579 171.819432 
L 345.182462 176.121866 
z
" style="fill:#cb3e38;fill-opacity:0.5;"/>
    <path clip-path="url(#pc7336bb098)" d="M 240.73944 217.808567 
L 249.377736 219.321824 
L 254.415207 210.163888 
L 245.783953 208.674869 
L 240.73944 217.808567 
z
" style="fill:#f7a688;fill-opacity:0.5;"/>
    <path clip-path="url(#pc7336bb098)" d="M 268.094134 203.05581 
L 276.797517 204.265446 
L 281.77009 196.487504 
L 273.076908 195.299316 
L 268.094134 203.05581 
z
" style="fill:#ee8669;fill-opacity:0.5;"/>
    <path clip-path="url(#pc7336bb098)" d="M 254.415207 210.163888 
L 263.086177 211.525101 
L 268.094134 203.05581 
L 259.431773 201.717498 
L 254.415207 210.163888 
z
" style="fill:#f39577;fill-opacity:0.5;"/>
    <path clip-path="url(#pc7336bb098)" d="M 157.377732 305.578164 
L 165.839115 307.947638 
L 170.915311 293.355321 
L 162.448827 291.018162 
L 157.377732 305.578164 
z
" style="fill:#8caffe;fill-opacity:0.5;"/>
    <path clip-path="url(#pc7336bb098)" d="M 194.69579 255.796573 
L 203.235685 257.79617 
L 208.331276 245.894164 
L 199.792284 243.923342 
L 194.69579 255.796573 
z
" style="fill:#e1dad6;fill-opacity:0.5;"/>
    <path clip-path="url(#pc7336bb098)" d="M 176.001144 279.441567 
L 184.50402 281.625183 
L 189.598749 268.365354 
L 181.093742 266.21244 
L 176.001144 279.441567 
z
" style="fill:#bed2f6;fill-opacity:0.5;"/>
    <path clip-path="url(#pc7336bb098)" d="M 152.320703 320.808875 
L 160.775426 323.211677 
L 165.839115 307.947638 
L 157.377732 305.578164 
L 152.320703 320.808875 
z
" style="fill:#7093f3;fill-opacity:0.5;"/>
    <path clip-path="url(#pc7336bb098)" d="M 331.548799 180.656345 
L 340.426194 181.134181 
L 345.182462 176.121866 
L 336.321952 175.658384 
L 331.548799 180.656345 
z
" style="fill:#d1493f;fill-opacity:0.5;"/>
    <path clip-path="url(#pc7336bb098)" d="M 147.280594 336.702718 
L 155.727105 339.139825 
L 160.775426 323.211677 
L 152.320703 320.808875 
L 147.280594 336.702718 
z
" style="fill:#5572df;fill-opacity:0.5;"/>
    <path clip-path="url(#pc7336bb098)" d="M 208.331276 245.894164 
L 216.905934 247.740235 
L 221.994157 236.510853 
L 213.421877 234.692653 
L 208.331276 245.894164 
z
" style="fill:#eed0c0;fill-opacity:0.5;"/>
    <path clip-path="url(#pc7336bb098)" d="M 142.260245 353.251358 
L 150.697001 355.723712 
L 155.727105 339.139825 
L 147.280594 336.702718 
L 142.260245 353.251358 
z
" style="fill:#3b4cc0;fill-opacity:0.5;"/>
    <path clip-path="url(#pc7336bb098)" d="M 317.88737 185.739532 
L 326.732384 186.366547 
L 331.548799 180.656345 
L 322.718954 180.045636 
L 317.88737 185.739532 
z
" style="fill:#d75445;fill-opacity:0.5;"/>
    <path clip-path="url(#pc7336bb098)" d="M 170.915311 293.355321 
L 179.414474 295.570762 
L 184.50402 281.625183 
L 176.001144 279.441567 
L 170.915311 293.355321 
z
" style="fill:#a6c4fe;fill-opacity:0.5;"/>
    <path clip-path="url(#pc7336bb098)" d="M 221.994157 236.510853 
L 230.603429 238.203327 
L 235.678349 227.651829 
L 227.072959 225.986198 
L 221.994157 236.510853 
z
" style="fill:#f5c4ac;fill-opacity:0.5;"/>
    <path clip-path="url(#pc7336bb098)" d="M 189.598749 268.365354 
L 198.137946 270.394952 
L 203.235685 257.79617 
L 194.69579 255.796573 
L 189.598749 268.365354 
z
" style="fill:#d2dbe8;fill-opacity:0.5;"/>
    <path clip-path="url(#pc7336bb098)" d="M 304.204263 191.370086 
L 313.016509 192.147306 
L 317.88737 185.739532 
L 309.088601 184.980464 
L 304.204263 191.370086 
z
" style="fill:#df634e;fill-opacity:0.5;"/>
    <path clip-path="url(#pc7336bb098)" d="M 235.678349 227.651829 
L 244.322058 229.190778 
L 249.377736 219.321824 
L 240.73944 217.808567 
L 235.678349 227.651829 
z
" style="fill:#f7b497;fill-opacity:0.5;"/>
    <path clip-path="url(#pc7336bb098)" d="M 290.505598 197.546168 
L 299.284722 198.474487 
L 304.204263 191.370086 
L 295.43695 190.461656 
L 290.505598 197.546168 
z
" style="fill:#e67259;fill-opacity:0.5;"/>
    <path clip-path="url(#pc7336bb098)" d="M 165.839115 307.947638 
L 174.332987 310.195999 
L 179.414474 295.570762 
L 170.915311 293.355321 
L 165.839115 307.947638 
z
" style="fill:#8db0fe;fill-opacity:0.5;"/>
    <path clip-path="url(#pc7336bb098)" d="M 249.377736 219.321824 
L 258.055678 220.707455 
L 263.086177 211.525101 
L 254.415207 210.163888 
L 249.377736 219.321824 
z
" style="fill:#f6a385;fill-opacity:0.5;"/>
    <path clip-path="url(#pc7336bb098)" d="M 276.797517 204.265446 
L 285.543196 205.345625 
L 290.505598 197.546168 
L 281.77009 196.487504 
L 276.797517 204.265446 
z
" style="fill:#ed8366;fill-opacity:0.5;"/>
    <path clip-path="url(#pc7336bb098)" d="M 263.086177 211.525101 
L 271.798118 212.757762 
L 276.797517 204.265446 
L 268.094134 203.05581 
L 263.086177 211.525101 
z
" style="fill:#f29274;fill-opacity:0.5;"/>
    <path clip-path="url(#pc7336bb098)" d="M 203.235685 257.79617 
L 211.811108 259.671413 
L 216.905934 247.740235 
L 208.331276 245.894164 
L 203.235685 257.79617 
z
" style="fill:#e2dad5;fill-opacity:0.5;"/>
    <path clip-path="url(#pc7336bb098)" d="M 354.09182 176.451681 
L 363.051414 176.64682 
L 367.723182 172.320025 
L 358.782311 172.136946 
L 354.09182 176.451681 
z
" style="fill:#c53334;fill-opacity:0.5;"/>
    <path clip-path="url(#pc7336bb098)" d="M 184.50402 281.625183 
L 193.040922 283.685985 
L 198.137946 270.394952 
L 189.598749 268.365354 
L 184.50402 281.625183 
z
" style="fill:#bfd3f6;fill-opacity:0.5;"/>
    <path clip-path="url(#pc7336bb098)" d="M 160.775426 323.211677 
L 169.262435 325.494023 
L 174.332987 310.195999 
L 165.839115 307.947638 
L 160.775426 323.211677 
z
" style="fill:#7295f4;fill-opacity:0.5;"/>
    <path clip-path="url(#pc7336bb098)" d="M 155.727105 339.139825 
L 164.205686 341.457185 
L 169.262435 325.494023 
L 160.775426 323.211677 
L 155.727105 339.139825 
z
" style="fill:#5673e0;fill-opacity:0.5;"/>
    <path clip-path="url(#pc7336bb098)" d="M 216.905934 247.740235 
L 225.517463 249.460926 
L 230.603429 238.203327 
L 221.994157 236.510853 
L 216.905934 247.740235 
z
" style="fill:#efcfbf;fill-opacity:0.5;"/>
    <path clip-path="url(#pc7336bb098)" d="M 150.697001 355.723712 
L 159.165599 358.07708 
L 164.205686 341.457185 
L 155.727105 339.139825 
L 150.697001 355.723712 
z
" style="fill:#3b4cc0;fill-opacity:0.5;"/>
    <path clip-path="url(#pc7336bb098)" d="M 340.426194 181.134181 
L 349.352508 181.478172 
L 354.09182 176.451681 
L 345.182462 176.121866 
L 340.426194 181.134181 
z
" style="fill:#cc403a;fill-opacity:0.5;"/>
    <path clip-path="url(#pc7336bb098)" d="M 179.414474 295.570762 
L 187.947485 297.663946 
L 193.040922 283.685985 
L 184.50402 281.625183 
L 179.414474 295.570762 
z
" style="fill:#a7c5fe;fill-opacity:0.5;"/>
    <path clip-path="url(#pc7336bb098)" d="M 198.137946 270.394952 
L 206.712522 272.300649 
L 211.811108 259.671413 
L 203.235685 257.79617 
L 198.137946 270.394952 
z
" style="fill:#d3dbe7;fill-opacity:0.5;"/>
    <path clip-path="url(#pc7336bb098)" d="M 230.603429 238.203327 
L 239.250916 239.769411 
L 244.322058 229.190778 
L 235.678349 227.651829 
L 230.603429 238.203327 
z
" style="fill:#f5c1a9;fill-opacity:0.5;"/>
    <path clip-path="url(#pc7336bb098)" d="M 326.732384 186.366547 
L 335.624992 186.860574 
L 340.426194 181.134181 
L 331.548799 180.656345 
L 326.732384 186.366547 
z
" style="fill:#d44e41;fill-opacity:0.5;"/>
    <path clip-path="url(#pc7336bb098)" d="M 244.322058 229.190778 
L 253.005327 230.602338 
L 258.055678 220.707455 
L 249.377736 219.321824 
L 244.322058 229.190778 
z
" style="fill:#f7b194;fill-opacity:0.5;"/>
    <path clip-path="url(#pc7336bb098)" d="M 313.016509 192.147306 
L 321.87502 192.792419 
L 326.732384 186.366547 
L 317.88737 185.739532 
L 313.016509 192.147306 
z
" style="fill:#dc5d4a;fill-opacity:0.5;"/>
    <path clip-path="url(#pc7336bb098)" d="M 174.332987 310.195999 
L 182.860516 312.322715 
L 187.947485 297.663946 
L 179.414474 295.570762 
L 174.332987 310.195999 
z
" style="fill:#8db0fe;fill-opacity:0.5;"/>
    <path clip-path="url(#pc7336bb098)" d="M 258.055678 220.707455 
L 266.774524 221.964717 
L 271.798118 212.757762 
L 263.086177 211.525101 
L 258.055678 220.707455 
z
" style="fill:#f5a081;fill-opacity:0.5;"/>
    <path clip-path="url(#pc7336bb098)" d="M 299.284722 198.474487 
L 308.108776 199.271603 
L 313.016509 192.147306 
L 304.204263 191.370086 
L 299.284722 198.474487 
z
" style="fill:#e36c55;fill-opacity:0.5;"/>
    <path clip-path="url(#pc7336bb098)" d="M 211.811108 259.671413 
L 220.423267 261.421679 
L 225.517463 249.460926 
L 216.905934 247.740235 
L 211.811108 259.671413 
z
" style="fill:#e3d9d3;fill-opacity:0.5;"/>
    <path clip-path="url(#pc7336bb098)" d="M 271.798118 212.757762 
L 280.552308 213.861091 
L 285.543196 205.345625 
L 276.797517 204.265446 
L 271.798118 212.757762 
z
" style="fill:#f18f71;fill-opacity:0.5;"/>
    <path clip-path="url(#pc7336bb098)" d="M 285.543196 205.345625 
L 294.332466 206.295525 
L 299.284722 198.474487 
L 290.505598 197.546168 
L 285.543196 205.345625 
z
" style="fill:#eb7d62;fill-opacity:0.5;"/>
    <path clip-path="url(#pc7336bb098)" d="M 193.040922 283.685985 
L 201.613037 285.623396 
L 206.712522 272.300649 
L 198.137946 270.394952 
L 193.040922 283.685985 
z
" style="fill:#c0d4f5;fill-opacity:0.5;"/>
    <path clip-path="url(#pc7336bb098)" d="M 169.262435 325.494023 
L 177.782895 327.655388 
L 182.860516 312.322715 
L 174.332987 310.195999 
L 169.262435 325.494023 
z
" style="fill:#7396f5;fill-opacity:0.5;"/>
    <path clip-path="url(#pc7336bb098)" d="M 363.051414 176.64682 
L 372.062655 176.706232 
L 376.715596 172.367624 
L 367.723182 172.320025 
L 363.051414 176.64682 
z
" style="fill:#c0282f;fill-opacity:0.5;"/>
    <path clip-path="url(#pc7336bb098)" d="M 164.205686 341.457185 
L 172.717502 343.654283 
L 177.782895 327.655388 
L 169.262435 325.494023 
L 164.205686 341.457185 
z
" style="fill:#5673e0;fill-opacity:0.5;"/>
    <path clip-path="url(#pc7336bb098)" d="M 159.165599 358.07708 
L 167.667203 360.310956 
L 172.717502 343.654283 
L 164.205686 341.457185 
L 159.165599 358.07708 
z
" style="fill:#3c4ec2;fill-opacity:0.5;"/>
    <path clip-path="url(#pc7336bb098)" d="M 225.517463 249.460926 
L 234.167087 251.055577 
L 239.250916 239.769411 
L 230.603429 238.203327 
L 225.517463 249.460926 
z
" style="fill:#efcebd;fill-opacity:0.5;"/>
    <path clip-path="url(#pc7336bb098)" d="M 187.947485 297.663946 
L 196.515531 299.634303 
L 201.613037 285.623396 
L 193.040922 283.685985 
L 187.947485 297.663946 
z
" style="fill:#a9c6fd;fill-opacity:0.5;"/>
    <path clip-path="url(#pc7336bb098)" d="M 349.352508 181.478172 
L 358.329134 181.687306 
L 363.051414 176.64682 
L 354.09182 176.451681 
L 349.352508 181.478172 
z
" style="fill:#c73635;fill-opacity:0.5;"/>
    <path clip-path="url(#pc7336bb098)" d="M 206.712522 272.300649 
L 215.323682 274.081828 
L 220.423267 261.421679 
L 211.811108 259.671413 
L 206.712522 272.300649 
z
" style="fill:#d4dbe6;fill-opacity:0.5;"/>
    <path clip-path="url(#pc7336bb098)" d="M 239.250916 239.769411 
L 247.937859 241.208403 
L 253.005327 230.602338 
L 244.322058 229.190778 
L 239.250916 239.769411 
z
" style="fill:#f5c0a7;fill-opacity:0.5;"/>
    <path clip-path="url(#pc7336bb098)" d="M 335.624992 186.860574 
L 344.56657 187.220638 
L 349.352508 181.478172 
L 340.426194 181.134181 
L 335.624992 186.860574 
z
" style="fill:#d0473d;fill-opacity:0.5;"/>
    <path clip-path="url(#pc7336bb098)" d="M 182.860516 312.322715 
L 191.422886 314.327223 
L 196.515531 299.634303 
L 187.947485 297.663946 
L 182.860516 312.322715 
z
" style="fill:#8fb1fe;fill-opacity:0.5;"/>
    <path clip-path="url(#pc7336bb098)" d="M 253.005327 230.602338 
L 261.729416 231.88577 
L 266.774524 221.964717 
L 258.055678 220.707455 
L 253.005327 230.602338 
z
" style="fill:#f7af91;fill-opacity:0.5;"/>
    <path clip-path="url(#pc7336bb098)" d="M 321.87502 192.792419 
L 330.781151 193.304489 
L 335.624992 186.860574 
L 326.732384 186.366547 
L 321.87502 192.792419 
z
" style="fill:#d85646;fill-opacity:0.5;"/>
    <path clip-path="url(#pc7336bb098)" d="M 266.774524 221.964717 
L 275.535555 223.09283 
L 280.552308 213.861091 
L 271.798118 212.757762 
L 266.774524 221.964717 
z
" style="fill:#f59d7e;fill-opacity:0.5;"/>
    <path clip-path="url(#pc7336bb098)" d="M 220.423267 261.421679 
L 229.073386 263.046312 
L 234.167087 251.055577 
L 225.517463 249.460926 
L 220.423267 261.421679 
z
" style="fill:#e5d8d1;fill-opacity:0.5;"/>
    <path clip-path="url(#pc7336bb098)" d="M 177.782895 327.655388 
L 186.337992 329.695219 
L 191.422886 314.327223 
L 182.860516 312.322715 
L 177.782895 327.655388 
z
" style="fill:#7396f5;fill-opacity:0.5;"/>
    <path clip-path="url(#pc7336bb098)" d="M 308.108776 199.271603 
L 316.979096 199.936619 
L 321.87502 192.792419 
L 313.016509 192.147306 
L 308.108776 199.271603 
z
" style="fill:#e16751;fill-opacity:0.5;"/>
    <path clip-path="url(#pc7336bb098)" d="M 201.613037 285.623396 
L 210.221572 287.436804 
L 215.323682 274.081828 
L 206.712522 272.300649 
L 201.613037 285.623396 
z
" style="fill:#c1d4f4;fill-opacity:0.5;"/>
    <path clip-path="url(#pc7336bb098)" d="M 280.552308 213.861091 
L 289.350046 214.834268 
L 294.332466 206.295525 
L 285.543196 205.345625 
L 280.552308 213.861091 
z
" style="fill:#f08b6e;fill-opacity:0.5;"/>
    <path clip-path="url(#pc7336bb098)" d="M 294.332466 206.295525 
L 303.166644 207.11429 
L 308.108776 199.271603 
L 299.284722 198.474487 
L 294.332466 206.295525 
z
" style="fill:#e97a5f;fill-opacity:0.5;"/>
    <path clip-path="url(#pc7336bb098)" d="M 172.717502 343.654283 
L 181.263734 345.730573 
L 186.337992 329.695219 
L 177.782895 327.655388 
L 172.717502 343.654283 
z
" style="fill:#5875e1;fill-opacity:0.5;"/>
    <path clip-path="url(#pc7336bb098)" d="M 167.667203 360.310956 
L 176.202991 362.424802 
L 181.263734 345.730573 
L 172.717502 343.654283 
L 167.667203 360.310956 
z
" style="fill:#3d50c3;fill-opacity:0.5;"/>
    <path clip-path="url(#pc7336bb098)" d="M 234.167087 251.055577 
L 242.85605 252.52349 
L 247.937859 241.208403 
L 239.250916 239.769411 
L 234.167087 251.055577 
z
" style="fill:#f1cdba;fill-opacity:0.5;"/>
    <path clip-path="url(#pc7336bb098)" d="M 372.062655 176.706232 
L 381.126983 176.628826 
L 385.760985 172.278653 
L 376.715596 172.367624 
L 372.062655 176.706232 
z
" style="fill:#ba162b;fill-opacity:0.5;"/>
    <path clip-path="url(#pc7336bb098)" d="M 196.515531 299.634303 
L 205.119816 301.481229 
L 210.221572 287.436804 
L 201.613037 285.623396 
L 196.515531 299.634303 
z
" style="fill:#aac7fd;fill-opacity:0.5;"/>
    <path clip-path="url(#pc7336bb098)" d="M 215.323682 274.081828 
L 223.972653 275.737839 
L 229.073386 263.046312 
L 220.423267 261.421679 
L 215.323682 274.081828 
z
" style="fill:#d6dce4;fill-opacity:0.5;"/>
    <path clip-path="url(#pc7336bb098)" d="M 247.937859 241.208403 
L 256.665523 242.519566 
L 261.729416 231.88577 
L 253.005327 230.602338 
L 247.937859 241.208403 
z
" style="fill:#f6bea4;fill-opacity:0.5;"/>
    <path clip-path="url(#pc7336bb098)" d="M 358.329134 181.687306 
L 367.357492 181.760529 
L 372.062655 176.706232 
L 363.051414 176.64682 
L 358.329134 181.687306 
z
" style="fill:#c12b30;fill-opacity:0.5;"/>
    <path clip-path="url(#pc7336bb098)" d="M 191.422886 314.327223 
L 200.021303 316.208927 
L 205.119816 301.481229 
L 196.515531 299.634303 
L 191.422886 314.327223 
z
" style="fill:#92b4fe;fill-opacity:0.5;"/>
    <path clip-path="url(#pc7336bb098)" d="M 261.729416 231.88577 
L 270.495608 233.040297 
L 275.535555 223.09283 
L 266.774524 221.964717 
L 261.729416 231.88577 
z
" style="fill:#f7ac8e;fill-opacity:0.5;"/>
    <path clip-path="url(#pc7336bb098)" d="M 344.56657 187.220638 
L 353.558517 187.445726 
L 358.329134 181.687306 
L 349.352508 181.478172 
L 344.56657 187.220638 
z
" style="fill:#cb3e38;fill-opacity:0.5;"/>
    <path clip-path="url(#pc7336bb098)" d="M 229.073386 263.046312 
L 237.762709 264.54462 
L 242.85605 252.52349 
L 234.167087 251.055577 
L 229.073386 263.046312 
z
" style="fill:#e6d7cf;fill-opacity:0.5;"/>
    <path clip-path="url(#pc7336bb098)" d="M 186.337992 329.695219 
L 194.928928 331.612926 
L 200.021303 316.208927 
L 191.422886 314.327223 
L 186.337992 329.695219 
z
" style="fill:#7699f6;fill-opacity:0.5;"/>
    <path clip-path="url(#pc7336bb098)" d="M 210.221572 287.436804 
L 218.867752 289.125565 
L 223.972653 275.737839 
L 215.323682 274.081828 
L 210.221572 287.436804 
z
" style="fill:#c3d5f4;fill-opacity:0.5;"/>
    <path clip-path="url(#pc7336bb098)" d="M 275.535555 223.09283 
L 284.340071 224.090978 
L 289.350046 214.834268 
L 280.552308 213.861091 
L 275.535555 223.09283 
z
" style="fill:#f49a7b;fill-opacity:0.5;"/>
    <path clip-path="url(#pc7336bb098)" d="M 330.781151 193.304489 
L 339.736283 193.682541 
L 344.56657 187.220638 
L 335.624992 186.860574 
L 330.781151 193.304489 
z
" style="fill:#d55042;fill-opacity:0.5;"/>
    <path clip-path="url(#pc7336bb098)" d="M 289.350046 214.834268 
L 298.192652 215.676436 
L 303.166644 207.11429 
L 294.332466 206.295525 
L 289.350046 214.834268 
z
" style="fill:#ee8669;fill-opacity:0.5;"/>
    <path clip-path="url(#pc7336bb098)" d="M 316.979096 199.936619 
L 325.897043 200.468599 
L 330.781151 193.304489 
L 321.87502 192.792419 
L 316.979096 199.936619 
z
" style="fill:#de614d;fill-opacity:0.5;"/>
    <path clip-path="url(#pc7336bb098)" d="M 181.263734 345.730573 
L 189.845584 347.685475 
L 194.928928 331.612926 
L 186.337992 329.695219 
L 181.263734 345.730573 
z
" style="fill:#5a78e4;fill-opacity:0.5;"/>
    <path clip-path="url(#pc7336bb098)" d="M 303.166644 207.11429 
L 312.047071 207.801022 
L 316.979096 199.936619 
L 308.108776 199.271603 
L 303.166644 207.11429 
z
" style="fill:#e7745b;fill-opacity:0.5;"/>
    <path clip-path="url(#pc7336bb098)" d="M 176.202991 362.424802 
L 184.774162 364.418049 
L 189.845584 347.685475 
L 181.263734 345.730573 
L 176.202991 362.424802 
z
" style="fill:#3e51c5;fill-opacity:0.5;"/>
    <path clip-path="url(#pc7336bb098)" d="M 242.85605 252.52349 
L 251.585617 253.863934 
L 256.665523 242.519566 
L 247.937859 241.208403 
L 242.85605 252.52349 
z
" style="fill:#f2cbb7;fill-opacity:0.5;"/>
    <path clip-path="url(#pc7336bb098)" d="M 205.119816 301.481229 
L 213.761566 303.204087 
L 218.867752 289.125565 
L 210.221572 287.436804 
L 205.119816 301.481229 
z
" style="fill:#adc9fd;fill-opacity:0.5;"/>
    <path clip-path="url(#pc7336bb098)" d="M 223.972653 275.737839 
L 232.660678 277.267996 
L 237.762709 264.54462 
L 229.073386 263.046312 
L 223.972653 275.737839 
z
" style="fill:#d7dce3;fill-opacity:0.5;"/>
    <path clip-path="url(#pc7336bb098)" d="M 381.126983 176.628826 
L 390.245864 176.413465 
L 394.860806 172.051983 
L 385.760985 172.278653 
L 381.126983 176.628826 
z
" style="fill:#b40426;fill-opacity:0.5;"/>
    <path clip-path="url(#pc7336bb098)" d="M 256.665523 242.519566 
L 265.435192 243.702128 
L 270.495608 233.040297 
L 261.729416 231.88577 
L 256.665523 242.519566 
z
" style="fill:#f7ba9f;fill-opacity:0.5;"/>
    <path clip-path="url(#pc7336bb098)" d="M 200.021303 316.208927 
L 208.65699 317.967197 
L 213.761566 303.204087 
L 205.119816 301.481229 
L 200.021303 316.208927 
z
" style="fill:#93b5fe;fill-opacity:0.5;"/>
    <path clip-path="url(#pc7336bb098)" d="M 367.357492 181.760529 
L 376.439027 181.696746 
L 381.126983 176.628826 
L 372.062655 176.706232 
L 367.357492 181.760529 
z
" style="fill:#bb1b2c;fill-opacity:0.5;"/>
    <path clip-path="url(#pc7336bb098)" d="M 270.495608 233.040297 
L 279.305209 234.065106 
L 284.340071 224.090978 
L 275.535555 223.09283 
L 270.495608 233.040297 
z
" style="fill:#f7a98b;fill-opacity:0.5;"/>
    <path clip-path="url(#pc7336bb098)" d="M 194.928928 331.612926 
L 203.556923 333.40789 
L 208.65699 317.967197 
L 200.021303 316.208927 
L 194.928928 331.612926 
z
" style="fill:#779af7;fill-opacity:0.5;"/>
    <path clip-path="url(#pc7336bb098)" d="M 237.762709 264.54462 
L 246.492504 265.915877 
L 251.585617 253.863934 
L 242.85605 252.52349 
L 237.762709 264.54462 
z
" style="fill:#e8d6cc;fill-opacity:0.5;"/>
    <path clip-path="url(#pc7336bb098)" d="M 353.558517 187.445726 
L 362.60226 187.53478 
L 367.357492 181.760529 
L 358.329134 181.687306 
L 353.558517 187.445726 
z
" style="fill:#c53334;fill-opacity:0.5;"/>
    <path clip-path="url(#pc7336bb098)" d="M 218.867752 289.125565 
L 227.552822 290.689001 
L 232.660678 277.267996 
L 223.972653 275.737839 
L 218.867752 289.125565 
z
" style="fill:#c5d6f2;fill-opacity:0.5;"/>
    <path clip-path="url(#pc7336bb098)" d="M 284.340071 224.090978 
L 293.189399 224.958306 
L 298.192652 215.676436 
L 289.350046 214.834268 
L 284.340071 224.090978 
z
" style="fill:#f39577;fill-opacity:0.5;"/>
    <path clip-path="url(#pc7336bb098)" d="M 189.845584 347.685475 
L 198.464271 349.518377 
L 203.556923 333.40789 
L 194.928928 331.612926 
L 189.845584 347.685475 
z
" style="fill:#5b7ae5;fill-opacity:0.5;"/>
    <path clip-path="url(#pc7336bb098)" d="M 339.736283 193.682541 
L 348.741821 193.925559 
L 353.558517 187.445726 
L 344.56657 187.220638 
L 339.736283 193.682541 
z
" style="fill:#d0473d;fill-opacity:0.5;"/>
    <path clip-path="url(#pc7336bb098)" d="M 298.192652 215.676436 
L 307.081471 216.386702 
L 312.047071 207.801022 
L 303.166644 207.11429 
L 298.192652 215.676436 
z
" style="fill:#ec8165;fill-opacity:0.5;"/>
    <path clip-path="url(#pc7336bb098)" d="M 184.774162 364.418049 
L 193.381932 366.290094 
L 198.464271 349.518377 
L 189.845584 347.685475 
L 184.774162 364.418049 
z
" style="fill:#4055c8;fill-opacity:0.5;"/>
    <path clip-path="url(#pc7336bb098)" d="M 325.897043 200.468599 
L 334.864003 200.866567 
L 339.736283 193.682541 
L 330.781151 193.304489 
L 325.897043 200.468599 
z
" style="fill:#da5a49;fill-opacity:0.5;"/>
    <path clip-path="url(#pc7336bb098)" d="M 312.047071 207.801022 
L 320.975112 208.354786 
L 325.897043 200.468599 
L 316.979096 199.936619 
L 312.047071 207.801022 
z
" style="fill:#e36c55;fill-opacity:0.5;"/>
    <path clip-path="url(#pc7336bb098)" d="M 251.585617 253.863934 
L 260.357073 255.07614 
L 265.435192 243.702128 
L 256.665523 242.519566 
L 251.585617 253.863934 
z
" style="fill:#f2c9b4;fill-opacity:0.5;"/>
    <path clip-path="url(#pc7336bb098)" d="M 213.761566 303.204087 
L 222.442025 304.802205 
L 227.552822 290.689001 
L 218.867752 289.125565 
L 213.761566 303.204087 
z
" style="fill:#afcafc;fill-opacity:0.5;"/>
    <path clip-path="url(#pc7336bb098)" d="M 232.660678 277.267996 
L 241.389025 278.671579 
L 246.492504 265.915877 
L 237.762709 264.54462 
L 232.660678 277.267996 
z
" style="fill:#d9dce1;fill-opacity:0.5;"/>
    <path clip-path="url(#pc7336bb098)" d="M 265.435192 243.702128 
L 274.248173 244.755281 
L 279.305209 234.065106 
L 270.495608 233.040297 
L 265.435192 243.702128 
z
" style="fill:#f7b89c;fill-opacity:0.5;"/>
    <path clip-path="url(#pc7336bb098)" d="M 208.65699 317.967197 
L 217.331189 319.601369 
L 222.442025 304.802205 
L 213.761566 303.204087 
L 208.65699 317.967197 
z
" style="fill:#96b7ff;fill-opacity:0.5;"/>
    <path clip-path="url(#pc7336bb098)" d="M 279.305209 234.065106 
L 288.159543 234.959346 
L 293.189399 224.958306 
L 284.340071 224.090978 
L 279.305209 234.065106 
z
" style="fill:#f6a586;fill-opacity:0.5;"/>
    <path clip-path="url(#pc7336bb098)" d="M 203.556923 333.40789 
L 212.223221 335.079455 
L 217.331189 319.601369 
L 208.65699 317.967197 
L 203.556923 333.40789 
z
" style="fill:#7a9df8;fill-opacity:0.5;"/>
    <path clip-path="url(#pc7336bb098)" d="M 376.439027 181.696746 
L 385.575215 181.494816 
L 390.245864 176.413465 
L 381.126983 176.628826 
L 376.439027 181.696746 
z
" style="fill:#b50927;fill-opacity:0.5;"/>
    <path clip-path="url(#pc7336bb098)" d="M 246.492504 265.915877 
L 255.264056 267.15932 
L 260.357073 255.07614 
L 251.585617 253.863934 
L 246.492504 265.915877 
z
" style="fill:#ead5c9;fill-opacity:0.5;"/>
    <path clip-path="url(#pc7336bb098)" d="M 227.552822 290.689001 
L 236.278047 292.126398 
L 241.389025 278.671579 
L 232.660678 277.267996 
L 227.552822 290.689001 
z
" style="fill:#c7d7f0;fill-opacity:0.5;"/>
    <path clip-path="url(#pc7336bb098)" d="M 198.464271 349.518377 
L 207.121034 351.228634 
L 212.223221 335.079455 
L 203.556923 333.40789 
L 198.464271 349.518377 
z
" style="fill:#5e7de7;fill-opacity:0.5;"/>
    <path clip-path="url(#pc7336bb098)" d="M 293.189399 224.958306 
L 302.084886 225.693923 
L 307.081471 216.386702 
L 298.192652 215.676436 
L 293.189399 224.958306 
z
" style="fill:#f29072;fill-opacity:0.5;"/>
    <path clip-path="url(#pc7336bb098)" d="M 362.60226 187.53478 
L 371.699251 187.486703 
L 376.439027 181.696746 
L 367.357492 181.760529 
L 362.60226 187.53478 
z
" style="fill:#c0282f;fill-opacity:0.5;"/>
    <path clip-path="url(#pc7336bb098)" d="M 193.381932 366.290094 
L 202.027537 368.040303 
L 207.121034 351.228634 
L 198.464271 349.518377 
L 193.381932 366.290094 
z
" style="fill:#4257c9;fill-opacity:0.5;"/>
    <path clip-path="url(#pc7336bb098)" d="M 307.081471 216.386702 
L 316.017873 216.964131 
L 320.975112 208.354786 
L 312.047071 207.801022 
L 307.081471 216.386702 
z
" style="fill:#ea7b60;fill-opacity:0.5;"/>
    <path clip-path="url(#pc7336bb098)" d="M 348.741821 193.925559 
L 357.799198 194.032485 
L 362.60226 187.53478 
L 353.558517 187.445726 
L 348.741821 193.925559 
z
" style="fill:#cb3e38;fill-opacity:0.5;"/>
    <path clip-path="url(#pc7336bb098)" d="M 320.975112 208.354786 
L 329.952158 208.774608 
L 334.864003 200.866567 
L 325.897043 200.468599 
L 320.975112 208.354786 
z
" style="fill:#e16751;fill-opacity:0.5;"/>
    <path clip-path="url(#pc7336bb098)" d="M 334.864003 200.866567 
L 343.881385 201.129506 
L 348.741821 193.925559 
L 339.736283 193.682541 
L 334.864003 200.866567 
z
" style="fill:#d65244;fill-opacity:0.5;"/>
    <path clip-path="url(#pc7336bb098)" d="M 260.357073 255.07614 
L 269.171727 256.159305 
L 274.248173 244.755281 
L 265.435192 243.702128 
L 260.357073 255.07614 
z
" style="fill:#f4c6af;fill-opacity:0.5;"/>
    <path clip-path="url(#pc7336bb098)" d="M 222.442025 304.802205 
L 231.162459 306.274878 
L 236.278047 292.126398 
L 227.552822 290.689001 
L 222.442025 304.802205 
z
" style="fill:#b1cbfc;fill-opacity:0.5;"/>
    <path clip-path="url(#pc7336bb098)" d="M 241.389025 278.671579 
L 250.15898 279.947831 
L 255.264056 267.15932 
L 246.492504 265.915877 
L 241.389025 278.671579 
z
" style="fill:#dbdcde;fill-opacity:0.5;"/>
    <path clip-path="url(#pc7336bb098)" d="M 217.331189 319.601369 
L 226.045165 321.110747 
L 231.162459 306.274878 
L 222.442025 304.802205 
L 217.331189 319.601369 
z
" style="fill:#98b9ff;fill-opacity:0.5;"/>
    <path clip-path="url(#pc7336bb098)" d="M 274.248173 244.755281 
L 283.105794 245.678176 
L 288.159543 234.959346 
L 279.305209 234.065106 
L 274.248173 244.755281 
z
" style="fill:#f7b497;fill-opacity:0.5;"/>
    <path clip-path="url(#pc7336bb098)" d="M 212.223221 335.079455 
L 220.929083 336.626932 
L 226.045165 321.110747 
L 217.331189 319.601369 
L 212.223221 335.079455 
z
" style="fill:#7da0f9;fill-opacity:0.5;"/>
    <path clip-path="url(#pc7336bb098)" d="M 288.159543 234.959346 
L 297.059964 235.722128 
L 302.084886 225.693923 
L 293.189399 224.958306 
L 288.159543 234.959346 
z
" style="fill:#f5a081;fill-opacity:0.5;"/>
    <path clip-path="url(#pc7336bb098)" d="M 236.278047 292.126398 
L 245.044714 293.437007 
L 250.15898 279.947831 
L 241.389025 278.671579 
L 236.278047 292.126398 
z
" style="fill:#cad8ef;fill-opacity:0.5;"/>
    <path clip-path="url(#pc7336bb098)" d="M 255.264056 267.15932 
L 264.078673 268.274151 
L 269.171727 256.159305 
L 260.357073 255.07614 
L 255.264056 267.15932 
z
" style="fill:#ecd3c5;fill-opacity:0.5;"/>
    <path clip-path="url(#pc7336bb098)" d="M 207.121034 351.228634 
L 215.817132 352.815567 
L 220.929083 336.626932 
L 212.223221 335.079455 
L 207.121034 351.228634 
z
" style="fill:#6180e9;fill-opacity:0.5;"/>
    <path clip-path="url(#pc7336bb098)" d="M 202.027537 368.040303 
L 210.712235 369.668005 
L 215.817132 352.815567 
L 207.121034 351.228634 
L 202.027537 368.040303 
z
" style="fill:#445acc;fill-opacity:0.5;"/>
    <path clip-path="url(#pc7336bb098)" d="M 302.084886 225.693923 
L 311.027903 226.296897 
L 316.017873 216.964131 
L 307.081471 216.386702 
L 302.084886 225.693923 
z
" style="fill:#f08b6e;fill-opacity:0.5;"/>
    <path clip-path="url(#pc7336bb098)" d="M 371.699251 187.486703 
L 380.850972 187.300353 
L 385.575215 181.494816 
L 376.439027 181.696746 
L 371.699251 187.486703 
z
" style="fill:#b8122a;fill-opacity:0.5;"/>
    <path clip-path="url(#pc7336bb098)" d="M 316.017873 216.964131 
L 325.003251 217.407749 
L 329.952158 208.774608 
L 320.975112 208.354786 
L 316.017873 216.964131 
z
" style="fill:#e8765c;fill-opacity:0.5;"/>
    <path clip-path="url(#pc7336bb098)" d="M 231.162459 306.274878 
L 239.924152 307.621363 
L 245.044714 293.437007 
L 236.278047 292.126398 
L 231.162459 306.274878 
z
" style="fill:#b5cdfa;fill-opacity:0.5;"/>
    <path clip-path="url(#pc7336bb098)" d="M 357.799198 194.032485 
L 366.909873 194.002219 
L 371.699251 187.486703 
L 362.60226 187.53478 
L 357.799198 194.032485 
z
" style="fill:#c53334;fill-opacity:0.5;"/>
    <path clip-path="url(#pc7336bb098)" d="M 329.952158 208.774608 
L 338.979624 209.05947 
L 343.881385 201.129506 
L 334.864003 200.866567 
L 329.952158 208.774608 
z
" style="fill:#dd5f4b;fill-opacity:0.5;"/>
    <path clip-path="url(#pc7336bb098)" d="M 269.171727 256.159305 
L 278.030909 257.112587 
L 283.105794 245.678176 
L 274.248173 244.755281 
L 269.171727 256.159305 
z
" style="fill:#f5c4ac;fill-opacity:0.5;"/>
    <path clip-path="url(#pc7336bb098)" d="M 343.881385 201.129506 
L 352.950629 201.256359 
L 357.799198 194.032485 
L 348.741821 193.925559 
L 343.881385 201.129506 
z
" style="fill:#d1493f;fill-opacity:0.5;"/>
    <path clip-path="url(#pc7336bb098)" d="M 250.15898 279.947831 
L 258.971852 281.09596 
L 264.078673 268.274151 
L 255.264056 267.15932 
L 250.15898 279.947831 
z
" style="fill:#dedcdb;fill-opacity:0.5;"/>
    <path clip-path="url(#pc7336bb098)" d="M 226.045165 321.110747 
L 234.800203 322.494596 
L 239.924152 307.621363 
L 231.162459 306.274878 
L 226.045165 321.110747 
z
" style="fill:#9bbcff;fill-opacity:0.5;"/>
    <path clip-path="url(#pc7336bb098)" d="M 283.105794 245.678176 
L 292.009408 246.46993 
L 297.059964 235.722128 
L 288.159543 234.959346 
L 283.105794 245.678176 
z
" style="fill:#f7b093;fill-opacity:0.5;"/>
    <path clip-path="url(#pc7336bb098)" d="M 220.929083 336.626932 
L 229.675791 338.049598 
L 234.800203 322.494596 
L 226.045165 321.110747 
L 220.929083 336.626932 
z
" style="fill:#80a3fa;fill-opacity:0.5;"/>
    <path clip-path="url(#pc7336bb098)" d="M 245.044714 293.437007 
L 253.854133 294.620042 
L 258.971852 281.09596 
L 250.15898 279.947831 
L 245.044714 293.437007 
z
" style="fill:#cdd9ec;fill-opacity:0.5;"/>
    <path clip-path="url(#pc7336bb098)" d="M 264.078673 268.274151 
L 272.937689 269.259533 
L 278.030909 257.112587 
L 269.171727 256.159305 
L 264.078673 268.274151 
z
" style="fill:#eed0c0;fill-opacity:0.5;"/>
    <path clip-path="url(#pc7336bb098)" d="M 297.059964 235.722128 
L 306.007845 236.352525 
L 311.027903 226.296897 
L 302.084886 225.693923 
L 297.059964 235.722128 
z
" style="fill:#f59c7d;fill-opacity:0.5;"/>
    <path clip-path="url(#pc7336bb098)" d="M 215.817132 352.815567 
L 224.553847 354.278462 
L 229.675791 338.049598 
L 220.929083 336.626932 
L 215.817132 352.815567 
z
" style="fill:#6384eb;fill-opacity:0.5;"/>
    <path clip-path="url(#pc7336bb098)" d="M 210.712235 369.668005 
L 219.437304 371.172499 
L 224.553847 354.278462 
L 215.817132 352.815567 
L 210.712235 369.668005 
z
" style="fill:#465ecf;fill-opacity:0.5;"/>
    <path clip-path="url(#pc7336bb098)" d="M 311.027903 226.296897 
L 320.01985 226.766257 
L 325.003251 217.407749 
L 316.017873 216.964131 
L 311.027903 226.296897 
z
" style="fill:#ee8468;fill-opacity:0.5;"/>
    <path clip-path="url(#pc7336bb098)" d="M 239.924152 307.621363 
L 248.728414 308.840883 
L 253.854133 294.620042 
L 245.044714 293.437007 
L 239.924152 307.621363 
z
" style="fill:#b7cff9;fill-opacity:0.5;"/>
    <path clip-path="url(#pc7336bb098)" d="M 325.003251 217.407749 
L 334.039025 217.716543 
L 338.979624 209.05947 
L 329.952158 208.774608 
L 325.003251 217.407749 
z
" style="fill:#e46e56;fill-opacity:0.5;"/>
    <path clip-path="url(#pc7336bb098)" d="M 278.030909 257.112587 
L 286.935974 257.935105 
L 292.009408 246.46993 
L 283.105794 245.678176 
L 278.030909 257.112587 
z
" style="fill:#f5c0a7;fill-opacity:0.5;"/>
    <path clip-path="url(#pc7336bb098)" d="M 338.979624 209.05947 
L 348.058952 209.208316 
L 352.950629 201.256359 
L 343.881385 201.129506 
L 338.979624 209.05947 
z
" style="fill:#d85646;fill-opacity:0.5;"/>
    <path clip-path="url(#pc7336bb098)" d="M 366.909873 194.002219 
L 376.075334 193.833617 
L 380.850972 187.300353 
L 371.699251 187.486703 
L 366.909873 194.002219 
z
" style="fill:#be242e;fill-opacity:0.5;"/>
    <path clip-path="url(#pc7336bb098)" d="M 352.950629 201.256359 
L 362.073199 201.246024 
L 366.909873 194.002219 
L 357.799198 194.032485 
L 352.950629 201.256359 
z
" style="fill:#cc403a;fill-opacity:0.5;"/>
    <path clip-path="url(#pc7336bb098)" d="M 258.971852 281.09596 
L 267.828974 282.115136 
L 272.937689 269.259533 
L 264.078673 268.274151 
L 258.971852 281.09596 
z
" style="fill:#e1dad6;fill-opacity:0.5;"/>
    <path clip-path="url(#pc7336bb098)" d="M 234.800203 322.494596 
L 243.597609 323.752149 
L 248.728414 308.840883 
L 239.924152 307.621363 
L 234.800203 322.494596 
z
" style="fill:#9ebeff;fill-opacity:0.5;"/>
    <path clip-path="url(#pc7336bb098)" d="M 292.009408 246.46993 
L 300.960394 247.129617 
L 306.007845 236.352525 
L 297.059964 235.722128 
L 292.009408 246.46993 
z
" style="fill:#f7ac8e;fill-opacity:0.5;"/>
    <path clip-path="url(#pc7336bb098)" d="M 229.675791 338.049598 
L 238.464651 339.346693 
L 243.597609 323.752149 
L 234.800203 322.494596 
L 229.675791 338.049598 
z
" style="fill:#82a6fb;fill-opacity:0.5;"/>
    <path clip-path="url(#pc7336bb098)" d="M 253.854133 294.620042 
L 262.707636 295.674681 
L 267.828974 282.115136 
L 258.971852 281.09596 
L 253.854133 294.620042 
z
" style="fill:#cfdaea;fill-opacity:0.5;"/>
    <path clip-path="url(#pc7336bb098)" d="M 272.937689 269.259533 
L 281.842458 270.114592 
L 286.935974 257.935105 
L 278.030909 257.112587 
L 272.937689 269.259533 
z
" style="fill:#efcebd;fill-opacity:0.5;"/>
    <path clip-path="url(#pc7336bb098)" d="M 224.553847 354.278462 
L 233.33248 355.616569 
L 238.464651 339.346693 
L 229.675791 338.049598 
L 224.553847 354.278462 
z
" style="fill:#6687ed;fill-opacity:0.5;"/>
    <path clip-path="url(#pc7336bb098)" d="M 306.007845 236.352525 
L 315.004587 236.849567 
L 320.01985 226.766257 
L 311.027903 226.296897 
L 306.007845 236.352525 
z
" style="fill:#f39577;fill-opacity:0.5;"/>
    <path clip-path="url(#pc7336bb098)" d="M 219.437304 371.172499 
L 228.204041 372.553044 
L 233.33248 355.616569 
L 224.553847 354.278462 
L 219.437304 371.172499 
z
" style="fill:#4a63d3;fill-opacity:0.5;"/>
    <path clip-path="url(#pc7336bb098)" d="M 320.01985 226.766257 
L 329.062149 227.10099 
L 334.039025 217.716543 
L 325.003251 217.407749 
L 320.01985 226.766257 
z
" style="fill:#ec7f63;fill-opacity:0.5;"/>
    <path clip-path="url(#pc7336bb098)" d="M 248.728414 308.840883 
L 257.576575 309.932624 
L 262.707636 295.674681 
L 253.854133 294.620042 
L 248.728414 308.840883 
z
" style="fill:#bbd1f8;fill-opacity:0.5;"/>
    <path clip-path="url(#pc7336bb098)" d="M 286.935974 257.935105 
L 295.8883 258.625939 
L 300.960394 247.129617 
L 292.009408 246.46993 
L 286.935974 257.935105 
z
" style="fill:#f6bda2;fill-opacity:0.5;"/>
    <path clip-path="url(#pc7336bb098)" d="M 334.039025 217.716543 
L 343.126643 217.889454 
L 348.058952 209.208316 
L 338.979624 209.05947 
L 334.039025 217.716543 
z
" style="fill:#e16751;fill-opacity:0.5;"/>
    <path clip-path="url(#pc7336bb098)" d="M 267.828974 282.115136 
L 276.731701 283.004491 
L 281.842458 270.114592 
L 272.937689 269.259533 
L 267.828974 282.115136 
z
" style="fill:#e3d9d3;fill-opacity:0.5;"/>
    <path clip-path="url(#pc7336bb098)" d="M 348.058952 209.208316 
L 357.191613 209.220044 
L 362.073199 201.246024 
L 352.950629 201.256359 
L 348.058952 209.208316 
z
" style="fill:#d44e41;fill-opacity:0.5;"/>
    <path clip-path="url(#pc7336bb098)" d="M 362.073199 201.246024 
L 371.250589 201.097357 
L 376.075334 193.833617 
L 366.909873 194.002219 
L 362.073199 201.246024 
z
" style="fill:#c53334;fill-opacity:0.5;"/>
    <path clip-path="url(#pc7336bb098)" d="M 243.597609 323.752149 
L 252.438713 324.882598 
L 257.576575 309.932624 
L 248.728414 308.840883 
L 243.597609 323.752149 
z
" style="fill:#a2c1ff;fill-opacity:0.5;"/>
    <path clip-path="url(#pc7336bb098)" d="M 300.960394 247.129617 
L 309.960152 247.656274 
L 315.004587 236.849567 
L 306.007845 236.352525 
L 300.960394 247.129617 
z
" style="fill:#f7a889;fill-opacity:0.5;"/>
    <path clip-path="url(#pc7336bb098)" d="M 238.464651 339.346693 
L 247.296991 340.51742 
L 252.438713 324.882598 
L 243.597609 323.752149 
L 238.464651 339.346693 
z
" style="fill:#86a9fc;fill-opacity:0.5;"/>
    <path clip-path="url(#pc7336bb098)" d="M 262.707636 295.674681 
L 271.606577 296.600062 
L 276.731701 283.004491 
L 267.828974 282.115136 
L 262.707636 295.674681 
z
" style="fill:#d3dbe7;fill-opacity:0.5;"/>
    <path clip-path="url(#pc7336bb098)" d="M 233.33248 355.616569 
L 242.154358 356.829102 
L 247.296991 340.51742 
L 238.464651 339.346693 
L 233.33248 355.616569 
z
" style="fill:#6a8bef;fill-opacity:0.5;"/>
    <path clip-path="url(#pc7336bb098)" d="M 281.842458 270.114592 
L 290.79436 270.838414 
L 295.8883 258.625939 
L 286.935974 257.935105 
L 281.842458 270.114592 
z
" style="fill:#f2cbb7;fill-opacity:0.5;"/>
    <path clip-path="url(#pc7336bb098)" d="M 228.204041 372.553044 
L 237.013771 373.808866 
L 242.154358 356.829102 
L 233.33248 355.616569 
L 228.204041 372.553044 
z
" style="fill:#4e68d8;fill-opacity:0.5;"/>
    <path clip-path="url(#pc7336bb098)" d="M 315.004587 236.849567 
L 324.051616 237.212245 
L 329.062149 227.10099 
L 320.01985 226.766257 
L 315.004587 236.849567 
z
" style="fill:#f29072;fill-opacity:0.5;"/>
    <path clip-path="url(#pc7336bb098)" d="M 329.062149 227.10099 
L 338.15625 227.300041 
L 343.126643 217.889454 
L 334.039025 217.716543 
L 329.062149 227.10099 
z
" style="fill:#e9785d;fill-opacity:0.5;"/>
    <path clip-path="url(#pc7336bb098)" d="M 257.576575 309.932624 
L 266.46999 310.895733 
L 271.606577 296.600062 
L 262.707636 295.674681 
L 257.576575 309.932624 
z
" style="fill:#bfd3f6;fill-opacity:0.5;"/>
    <path clip-path="url(#pc7336bb098)" d="M 295.8883 258.625939 
L 304.889292 259.184132 
L 309.960152 247.656274 
L 300.960394 247.129617 
L 295.8883 258.625939 
z
" style="fill:#f7b89c;fill-opacity:0.5;"/>
    <path clip-path="url(#pc7336bb098)" d="M 343.126643 217.889454 
L 352.267579 217.925384 
L 357.191613 209.220044 
L 348.058952 209.208316 
L 343.126643 217.889454 
z
" style="fill:#dd5f4b;fill-opacity:0.5;"/>
    <path clip-path="url(#pc7336bb098)" d="M 276.731701 283.004491 
L 285.681413 283.763118 
L 290.79436 270.838414 
L 281.842458 270.114592 
L 276.731701 283.004491 
z
" style="fill:#e7d7ce;fill-opacity:0.5;"/>
    <path clip-path="url(#pc7336bb098)" d="M 252.438713 324.882598 
L 261.324868 325.885101 
L 266.46999 310.895733 
L 257.576575 309.932624 
L 252.438713 324.882598 
z
" style="fill:#a6c4fe;fill-opacity:0.5;"/>
    <path clip-path="url(#pc7336bb098)" d="M 357.191613 209.220044 
L 366.379106 209.09351 
L 371.250589 201.097357 
L 362.073199 201.246024 
L 357.191613 209.220044 
z
" style="fill:#cf453c;fill-opacity:0.5;"/>
    <path clip-path="url(#pc7336bb098)" d="M 309.960152 247.656274 
L 319.010113 248.048895 
L 324.051616 237.212245 
L 315.004587 236.849567 
L 309.960152 247.656274 
z
" style="fill:#f6a283;fill-opacity:0.5;"/>
    <path clip-path="url(#pc7336bb098)" d="M 247.296991 340.51742 
L 256.174161 341.560946 
L 261.324868 325.885101 
L 252.438713 324.882598 
L 247.296991 340.51742 
z
" style="fill:#8badfd;fill-opacity:0.5;"/>
    <path clip-path="url(#pc7336bb098)" d="M 271.606577 296.600062 
L 280.552337 297.395288 
L 285.681413 283.763118 
L 276.731701 283.004491 
L 271.606577 296.600062 
z
" style="fill:#d6dce4;fill-opacity:0.5;"/>
    <path clip-path="url(#pc7336bb098)" d="M 242.154358 356.829102 
L 251.020827 357.915239 
L 256.174161 341.560946 
L 247.296991 340.51742 
L 242.154358 356.829102 
z
" style="fill:#6e90f2;fill-opacity:0.5;"/>
    <path clip-path="url(#pc7336bb098)" d="M 290.79436 270.838414 
L 299.7948 271.430046 
L 304.889292 259.184132 
L 295.8883 258.625939 
L 290.79436 270.838414 
z
" style="fill:#f3c8b2;fill-opacity:0.5;"/>
    <path clip-path="url(#pc7336bb098)" d="M 237.013771 373.808866 
L 245.867837 374.939154 
L 251.020827 357.915239 
L 242.154358 356.829102 
L 237.013771 373.808866 
z
" style="fill:#516ddb;fill-opacity:0.5;"/>
    <path clip-path="url(#pc7336bb098)" d="M 324.051616 237.212245 
L 333.150386 237.439508 
L 338.15625 227.300041 
L 329.062149 227.10099 
L 324.051616 237.212245 
z
" style="fill:#f08a6c;fill-opacity:0.5;"/>
    <path clip-path="url(#pc7336bb098)" d="M 266.46999 310.895733 
L 275.410038 311.72932 
L 280.552337 297.395288 
L 271.606577 296.600062 
L 266.46999 310.895733 
z
" style="fill:#c3d5f4;fill-opacity:0.5;"/>
    <path clip-path="url(#pc7336bb098)" d="M 338.15625 227.300041 
L 347.303632 227.362314 
L 352.267579 217.925384 
L 343.126643 217.889454 
L 338.15625 227.300041 
z
" style="fill:#e46e56;fill-opacity:0.5;"/>
    <path clip-path="url(#pc7336bb098)" d="M 304.889292 259.184132 
L 313.94038 259.608682 
L 319.010113 248.048895 
L 309.960152 247.656274 
L 304.889292 259.184132 
z
" style="fill:#f7b396;fill-opacity:0.5;"/>
    <path clip-path="url(#pc7336bb098)" d="M 285.681413 283.763118 
L 294.679517 284.390072 
L 299.7948 271.430046 
L 290.79436 270.838414 
L 285.681413 283.763118 
z
" style="fill:#ead5c9;fill-opacity:0.5;"/>
    <path clip-path="url(#pc7336bb098)" d="M 352.267579 217.925384 
L 361.463335 217.823188 
L 366.379106 209.09351 
L 357.191613 209.220044 
L 352.267579 217.925384 
z
" style="fill:#d75445;fill-opacity:0.5;"/>
    <path clip-path="url(#pc7336bb098)" d="M 261.324868 325.885101 
L 270.257453 326.758777 
L 275.410038 311.72932 
L 266.46999 310.895733 
L 261.324868 325.885101 
z
" style="fill:#aac7fd;fill-opacity:0.5;"/>
    <path clip-path="url(#pc7336bb098)" d="M 256.174161 341.560946 
L 265.097537 342.476401 
L 270.257453 326.758777 
L 261.324868 325.885101 
L 256.174161 341.560946 
z
" style="fill:#8fb1fe;fill-opacity:0.5;"/>
    <path clip-path="url(#pc7336bb098)" d="M 319.010113 248.048895 
L 328.111731 248.306434 
L 333.150386 237.439508 
L 324.051616 237.212245 
L 319.010113 248.048895 
z
" style="fill:#f59c7d;fill-opacity:0.5;"/>
    <path clip-path="url(#pc7336bb098)" d="M 280.552337 297.395288 
L 289.54632 298.059419 
L 294.679517 284.390072 
L 285.681413 283.763118 
L 280.552337 297.395288 
z
" style="fill:#dadce0;fill-opacity:0.5;"/>
    <path clip-path="url(#pc7336bb098)" d="M 251.020827 357.915239 
L 259.933262 358.874119 
L 265.097537 342.476401 
L 256.174161 341.560946 
L 251.020827 357.915239 
z
" style="fill:#7295f4;fill-opacity:0.5;"/>
    <path clip-path="url(#pc7336bb098)" d="M 245.867837 374.939154 
L 254.76761 375.943059 
L 259.933262 358.874119 
L 251.020827 357.915239 
L 245.867837 374.939154 
z
" style="fill:#5572df;fill-opacity:0.5;"/>
    <path clip-path="url(#pc7336bb098)" d="M 299.7948 271.430046 
L 308.84521 271.888494 
L 313.94038 259.608682 
L 304.889292 259.184132 
L 299.7948 271.430046 
z
" style="fill:#f5c4ac;fill-opacity:0.5;"/>
    <path clip-path="url(#pc7336bb098)" d="M 333.150386 237.439508 
L 342.302379 237.530261 
L 347.303632 227.362314 
L 338.15625 227.300041 
L 333.150386 237.439508 
z
" style="fill:#ed8366;fill-opacity:0.5;"/>
    <path clip-path="url(#pc7336bb098)" d="M 275.410038 311.72932 
L 284.398123 312.432454 
L 289.54632 298.059419 
L 280.552337 297.395288 
L 275.410038 311.72932 
z
" style="fill:#c6d6f1;fill-opacity:0.5;"/>
    <path clip-path="url(#pc7336bb098)" d="M 347.303632 227.362314 
L 356.505802 227.286666 
L 361.463335 217.823188 
L 352.267579 217.925384 
L 347.303632 227.362314 
z
" style="fill:#e16751;fill-opacity:0.5;"/>
    <path clip-path="url(#pc7336bb098)" d="M 313.94038 259.608682 
L 323.043021 259.898549 
L 328.111731 248.306434 
L 319.010113 248.048895 
L 313.94038 259.608682 
z
" style="fill:#f7ad90;fill-opacity:0.5;"/>
    <path clip-path="url(#pc7336bb098)" d="M 294.679517 284.390072 
L 303.727442 284.884364 
L 308.84521 271.888494 
L 299.7948 271.430046 
L 294.679517 284.390072 
z
" style="fill:#edd2c3;fill-opacity:0.5;"/>
    <path clip-path="url(#pc7336bb098)" d="M 270.257453 326.758777 
L 279.237868 327.502705 
L 284.398123 312.432454 
L 275.410038 311.72932 
L 270.257453 326.758777 
z
" style="fill:#afcafc;fill-opacity:0.5;"/>
    <path clip-path="url(#pc7336bb098)" d="M 265.097537 342.476401 
L 274.068519 343.262874 
L 279.237868 327.502705 
L 270.257453 326.758777 
L 265.097537 342.476401 
z
" style="fill:#94b6ff;fill-opacity:0.5;"/>
    <path clip-path="url(#pc7336bb098)" d="M 328.111731 248.306434 
L 337.266491 248.4278 
L 342.302379 237.530261 
L 333.150386 237.439508 
L 328.111731 248.306434 
z
" style="fill:#f39577;fill-opacity:0.5;"/>
    <path clip-path="url(#pc7336bb098)" d="M 259.933262 358.874119 
L 268.89306 359.704843 
L 274.068519 343.262874 
L 265.097537 342.476401 
L 259.933262 358.874119 
z
" style="fill:#779af7;fill-opacity:0.5;"/>
    <path clip-path="url(#pc7336bb098)" d="M 289.54632 298.059419 
L 298.589959 298.591477 
L 303.727442 284.884364 
L 294.679517 284.390072 
L 289.54632 298.059419 
z
" style="fill:#dedcdb;fill-opacity:0.5;"/>
    <path clip-path="url(#pc7336bb098)" d="M 254.76761 375.943059 
L 263.714483 376.819695 
L 268.89306 359.704843 
L 259.933262 358.874119 
L 254.76761 375.943059 
z
" style="fill:#5977e3;fill-opacity:0.5;"/>
    <path clip-path="url(#pc7336bb098)" d="M 308.84521 271.888494 
L 317.947047 272.212722 
L 323.043021 259.898549 
L 313.94038 259.608682 
L 308.84521 271.888494 
z
" style="fill:#f6bfa6;fill-opacity:0.5;"/>
    <path clip-path="url(#pc7336bb098)" d="M 342.302379 237.530261 
L 351.509103 237.483368 
L 356.505802 227.286666 
L 347.303632 227.362314 
L 342.302379 237.530261 
z
" style="fill:#e97a5f;fill-opacity:0.5;"/>
    <path clip-path="url(#pc7336bb098)" d="M 284.398123 312.432454 
L 293.435676 313.004166 
L 298.589959 298.591477 
L 289.54632 298.059419 
L 284.398123 312.432454 
z
" style="fill:#cbd8ee;fill-opacity:0.5;"/>
    <path clip-path="url(#pc7336bb098)" d="M 323.043021 259.898549 
L 332.198701 260.052646 
L 337.266491 248.4278 
L 328.111731 248.306434 
L 323.043021 259.898549 
z
" style="fill:#f7a889;fill-opacity:0.5;"/>
    <path clip-path="url(#pc7336bb098)" d="M 303.727442 284.884364 
L 312.826649 285.244967 
L 317.947047 272.212722 
L 308.84521 271.888494 
L 303.727442 284.884364 
z
" style="fill:#efcebd;fill-opacity:0.5;"/>
    <path clip-path="url(#pc7336bb098)" d="M 279.237868 327.502705 
L 288.267544 328.115925 
L 293.435676 313.004166 
L 284.398123 312.432454 
L 279.237868 327.502705 
z
" style="fill:#b3cdfb;fill-opacity:0.5;"/>
    <path clip-path="url(#pc7336bb098)" d="M 274.068519 343.262874 
L 283.088535 343.919414 
L 288.267544 328.115925 
L 279.237868 327.502705 
L 274.068519 343.262874 
z
" style="fill:#98b9ff;fill-opacity:0.5;"/>
    <path clip-path="url(#pc7336bb098)" d="M 337.266491 248.4278 
L 346.475904 248.411861 
L 351.509103 237.483368 
L 342.302379 237.530261 
L 337.266491 248.4278 
z
" style="fill:#f18d6f;fill-opacity:0.5;"/>
    <path clip-path="url(#pc7336bb098)" d="M 268.89306 359.704843 
L 277.901644 360.406474 
L 283.088535 343.919414 
L 274.068519 343.262874 
L 268.89306 359.704843 
z
" style="fill:#7b9ff9;fill-opacity:0.5;"/>
    <path clip-path="url(#pc7336bb098)" d="M 298.589959 298.591477 
L 307.684711 298.99044 
L 312.826649 285.244967 
L 303.727442 284.884364 
L 298.589959 298.591477 
z
" style="fill:#e2dad5;fill-opacity:0.5;"/>
    <path clip-path="url(#pc7336bb098)" d="M 263.714483 376.819695 
L 272.709878 377.568135 
L 277.901644 360.406474 
L 268.89306 359.704843 
L 263.714483 376.819695 
z
" style="fill:#5e7de7;fill-opacity:0.5;"/>
    <path clip-path="url(#pc7336bb098)" d="M 317.947047 272.212722 
L 327.101799 272.401652 
L 332.198701 260.052646 
L 323.043021 259.898549 
L 317.947047 272.212722 
z
" style="fill:#f7ba9f;fill-opacity:0.5;"/>
    <path clip-path="url(#pc7336bb098)" d="M 293.435676 313.004166 
L 302.524155 313.443443 
L 307.684711 298.99044 
L 298.589959 298.591477 
L 293.435676 313.004166 
z
" style="fill:#cfdaea;fill-opacity:0.5;"/>
    <path clip-path="url(#pc7336bb098)" d="M 332.198701 260.052646 
L 341.408934 260.069847 
L 346.475904 248.411861 
L 337.266491 248.4278 
L 332.198701 260.052646 
z
" style="fill:#f6a283;fill-opacity:0.5;"/>
    <path clip-path="url(#pc7336bb098)" d="M 312.826649 285.244967 
L 321.978624 285.470809 
L 327.101799 272.401652 
L 317.947047 272.212722 
L 312.826649 285.244967 
z
" style="fill:#f2cbb7;fill-opacity:0.5;"/>
    <path clip-path="url(#pc7336bb098)" d="M 288.267544 328.115925 
L 297.347936 328.597434 
L 302.524155 313.443443 
L 293.435676 313.004166 
L 288.267544 328.115925 
z
" style="fill:#b9d0f9;fill-opacity:0.5;"/>
    <path clip-path="url(#pc7336bb098)" d="M 283.088535 343.919414 
L 292.159038 344.445032 
L 297.347936 328.597434 
L 288.267544 328.115925 
L 283.088535 343.919414 
z
" style="fill:#9ebeff;fill-opacity:0.5;"/>
    <path clip-path="url(#pc7336bb098)" d="M 277.901644 360.406474 
L 286.960466 360.978032 
L 292.159038 344.445032 
L 283.088535 343.919414 
L 277.901644 360.406474 
z
" style="fill:#81a4fb;fill-opacity:0.5;"/>
    <path clip-path="url(#pc7336bb098)" d="M 307.684711 298.99044 
L 316.832063 299.255246 
L 321.978624 285.470809 
L 312.826649 285.244967 
L 307.684711 298.99044 
z
" style="fill:#e6d7cf;fill-opacity:0.5;"/>
    <path clip-path="url(#pc7336bb098)" d="M 272.709878 377.568135 
L 281.755241 378.187414 
L 286.960466 360.978032 
L 277.901644 360.406474 
L 272.709878 377.568135 
z
" style="fill:#6384eb;fill-opacity:0.5;"/>
    <path clip-path="url(#pc7336bb098)" d="M 327.101799 272.401652 
L 336.31098 272.454163 
L 341.408934 260.069847 
L 332.198701 260.052646 
L 327.101799 272.401652 
z
" style="fill:#f7b599;fill-opacity:0.5;"/>
    <path clip-path="url(#pc7336bb098)" d="M 302.524155 313.443443 
L 311.665043 313.749233 
L 316.832063 299.255246 
L 307.684711 298.99044 
L 302.524155 313.443443 
z
" style="fill:#d4dbe6;fill-opacity:0.5;"/>
    <path clip-path="url(#pc7336bb098)" d="M 321.978624 285.470809 
L 331.184882 285.560777 
L 336.31098 272.454163 
L 327.101799 272.401652 
L 321.978624 285.470809 
z
" style="fill:#f3c7b1;fill-opacity:0.5;"/>
    <path clip-path="url(#pc7336bb098)" d="M 297.347936 328.597434 
L 306.480528 328.94619 
L 311.665043 313.749233 
L 302.524155 313.443443 
L 297.347936 328.597434 
z
" style="fill:#bfd3f6;fill-opacity:0.5;"/>
    <path clip-path="url(#pc7336bb098)" d="M 292.159038 344.445032 
L 301.28151 344.838696 
L 306.480528 328.94619 
L 297.347936 328.597434 
L 292.159038 344.445032 
z
" style="fill:#a5c3fe;fill-opacity:0.5;"/>
    <path clip-path="url(#pc7336bb098)" d="M 286.960466 360.978032 
L 296.071004 361.418497 
L 301.28151 344.838696 
L 292.159038 344.445032 
L 286.960466 360.978032 
z
" style="fill:#86a9fc;fill-opacity:0.5;"/>
    <path clip-path="url(#pc7336bb098)" d="M 316.832063 299.255246 
L 326.03353 299.384789 
L 331.184882 285.560777 
L 321.978624 285.470809 
L 316.832063 299.255246 
z
" style="fill:#ead5c9;fill-opacity:0.5;"/>
    <path clip-path="url(#pc7336bb098)" d="M 281.755241 378.187414 
L 290.852047 378.676525 
L 296.071004 361.418497 
L 286.960466 360.978032 
L 281.755241 378.187414 
z
" style="fill:#688aef;fill-opacity:0.5;"/>
    <path clip-path="url(#pc7336bb098)" d="M 311.665043 313.749233 
L 320.859857 313.920439 
L 326.03353 299.384789 
L 316.832063 299.255246 
L 311.665043 313.749233 
z
" style="fill:#d9dce1;fill-opacity:0.5;"/>
    <path clip-path="url(#pc7336bb098)" d="M 306.480528 328.94619 
L 315.666833 329.161108 
L 320.859857 313.920439 
L 311.665043 313.749233 
L 306.480528 328.94619 
z
" style="fill:#c4d5f3;fill-opacity:0.5;"/>
    <path clip-path="url(#pc7336bb098)" d="M 301.28151 344.838696 
L 310.457459 345.099331 
L 315.666833 329.161108 
L 306.480528 328.94619 
L 301.28151 344.838696 
z
" style="fill:#aac7fd;fill-opacity:0.5;"/>
    <path clip-path="url(#pc7336bb098)" d="M 296.071004 361.418497 
L 305.234765 361.726809 
L 310.457459 345.099331 
L 301.28151 344.838696 
L 296.071004 361.418497 
z
" style="fill:#8db0fe;fill-opacity:0.5;"/>
    <path clip-path="url(#pc7336bb098)" d="M 290.852047 378.676525 
L 300.0018 379.034419 
L 305.234765 361.726809 
L 296.071004 361.418497 
L 290.852047 378.676525 
z
" style="fill:#6e90f2;fill-opacity:0.5;"/>
   </g>
   <g id="line2d_24">
    <path clip-path="url(#pc7336bb098)" d="M 229.955787 153.752401 
L 393.972616 196.652261 
" style="fill:none;stroke:#000000;stroke-linecap:square;stroke-width:1.5;"/>
   </g>
   <g id="line2d_25">
    <path clip-path="url(#pc7336bb098)" d="M 129.336459 230.249727 
L 229.955787 153.752401 
" style="fill:none;stroke:#000000;stroke-linecap:square;stroke-width:1.5;"/>
   </g>
   <g id="line2d_26">
    <path clip-path="url(#pc7336bb098)" d="M 229.955787 153.752401 
L 232.858746 146.720898 
L 235.782745 140.238255 
L 238.726544 134.31205 
L 241.094984 129.976522 
L 243.474615 126.005105 
L 245.864759 122.401026 
L 248.264725 119.167305 
L 250.673814 116.306749 
L 253.091315 113.821954 
L 255.516509 111.715293 
L 257.340014 110.38475 
L 259.167126 109.268945 
L 260.997532 108.368629 
L 262.830917 107.684479 
L 264.666964 107.217097 
L 266.505355 106.967013 
L 268.345768 106.934678 
L 270.187882 107.120469 
L 272.031374 107.524686 
L 273.875918 108.147554 
L 275.72119 108.989218 
L 277.566865 110.049748 
L 279.412614 111.329135 
L 281.258111 112.827295 
L 283.717817 115.164859 
L 286.175719 117.89045 
L 288.631043 121.003223 
L 291.083016 124.502086 
L 293.530869 128.385708 
L 295.973834 132.652516 
L 298.411151 137.300699 
L 301.448698 143.644092 
L 304.47477 150.575652 
L 307.487915 158.090305 
L 310.486702 166.182428 
L 311.68188 169.579607 
L 311.68188 169.579607 
" style="fill:none;stroke:#ff7f0e;stroke-linecap:square;stroke-width:1.5;"/>
   </g>
   <g id="line2d_27">
    <path clip-path="url(#pc7336bb098)" d="M 229.955787 153.752401 
L 227.740432 146.059303 
L 225.51599 139.154444 
L 223.65639 134.012548 
L 221.792339 129.435216 
L 219.924706 125.429522 
L 218.054375 122.002062 
L 216.556767 119.680538 
L 215.058468 117.735884 
L 213.559944 116.17077 
L 212.061665 114.987651 
L 210.938401 114.352343 
L 209.815742 113.93402 
L 208.693889 113.733463 
L 207.573044 113.751382 
L 206.45341 113.98841 
L 205.335188 114.445103 
L 204.218583 115.121945 
L 203.103796 116.019339 
L 201.620593 117.5595 
L 200.141466 119.492885 
L 198.666892 121.819807 
L 197.197352 124.540327 
L 195.73332 127.654257 
L 193.911747 132.09921 
L 192.10044 137.156754 
L 190.300307 142.824868 
L 188.156163 150.428815 
L 186.030934 158.902474 
L 183.926122 168.238916 
L 181.843197 178.429987 
L 179.442692 191.387187 
L 177.076141 205.478 
L 174.745676 220.683463 
L 172.453346 236.982592 
L 171.483082 244.297115 
L 171.483082 244.297115 
" style="fill:none;stroke:#2ca02c;stroke-linecap:square;stroke-width:1.5;"/>
   </g>
  </g>
 </g>
 <defs>
  <clipPath id="pc7336bb098">
   <rect height="380.52" width="390.6" x="63" y="60.48"/>
  </clipPath>
 </defs>
</svg>
