<?xml version="1.0" encoding="utf-8" standalone="no"?>
<!DOCTYPE svg PUBLIC "-//W3C//DTD SVG 1.1//EN"
  "http://www.w3.org/Graphics/SVG/1.1/DTD/svg11.dtd">
<!-- Created with matplotlib (http://matplotlib.org/) -->
<svg height="504pt" version="1.1" viewBox="0 0 504 504" width="504pt" xmlns="http://www.w3.org/2000/svg" xmlns:xlink="http://www.w3.org/1999/xlink">
 <defs>
  <style type="text/css">
*{stroke-linecap:butt;stroke-linejoin:round;}
  </style>
 </defs>
 <g id="figure_1">
  <g id="patch_1">
   <path d="M 0 504 
L 504 504 
L 504 0 
L 0 0 
z
" style="fill:#ffffff;"/>
  </g>
  <g id="patch_2">
   <path d="M 63 441 
L 453.6 441 
L 453.6 60.48 
L 63 60.48 
z
" style="fill:#ffffff;"/>
  </g>
  <g id="pane3d_1">
   <g id="patch_3">
    <path d="M 114.780066 356.91849 
L 226.571829 263.623608 
L 224.710615 85.352401 
L 106.685728 169.175934 
" style="fill:#f2f2f2;opacity:0.5;stroke:#f2f2f2;stroke-linejoin:miter;"/>
   </g>
  </g>
  <g id="pane3d_2">
   <g id="patch_4">
    <path d="M 226.571829 263.623608 
L 407.663976 315.781468 
L 415.240655 132.134565 
L 224.710615 85.352401 
" style="fill:#e6e6e6;opacity:0.5;stroke:#e6e6e6;stroke-linejoin:miter;"/>
   </g>
  </g>
  <g id="pane3d_3">
   <g id="patch_5">
    <path d="M 114.780066 356.91849 
L 305.313474 417.664816 
L 407.663976 315.781468 
L 226.571829 263.623608 
" style="fill:#ececec;opacity:0.5;stroke:#ececec;stroke-linejoin:miter;"/>
   </g>
  </g>
  <g id="axis3d_1">
   <g id="line2d_1">
    <path d="M 114.780066 356.91849 
L 305.313474 417.664816 
" style="fill:none;stroke:#000000;stroke-linecap:square;stroke-width:0.8;"/>
   </g>
   <g id="Line3DCollection_1">
    <path d="M 119.147216 358.310836 
L 230.736203 264.823024 
L 229.082706 86.425911 
" style="fill:none;stroke:#b0b0b0;stroke-width:0.8;"/>
    <path d="M 148.298651 367.604968 
L 258.517653 272.824592 
L 258.261087 93.590282 
" style="fill:none;stroke:#b0b0b0;stroke-width:0.8;"/>
    <path d="M 177.869835 377.032925 
L 286.66998 280.932978 
L 287.84888 100.855178 
" style="fill:none;stroke:#b0b0b0;stroke-width:0.8;"/>
    <path d="M 207.869899 386.597618 
L 315.200661 289.150337 
L 317.854763 108.222731 
" style="fill:none;stroke:#b0b0b0;stroke-width:0.8;"/>
    <path d="M 238.308242 396.302045 
L 344.117373 297.478881 
L 348.28766 115.695131 
" style="fill:none;stroke:#b0b0b0;stroke-width:0.8;"/>
    <path d="M 269.194539 406.149289 
L 373.428006 305.920881 
L 379.156752 123.274634 
" style="fill:none;stroke:#b0b0b0;stroke-width:0.8;"/>
    <path d="M 300.538751 416.142527 
L 403.140664 314.478671 
L 410.471485 130.963557 
" style="fill:none;stroke:#b0b0b0;stroke-width:0.8;"/>
   </g>
   <g id="xtick_1">
    <g id="line2d_2">
     <path d="M 120.108491 357.505492 
L 117.221087 359.924521 
" style="fill:none;stroke:#000000;stroke-linecap:square;stroke-width:0.8;"/>
    </g>
    <g id="text_1">
     <!-- −60 -->
     <defs>
      <path d="M 10.59375 35.5 
L 73.1875 35.5 
L 73.1875 27.203125 
L 10.59375 27.203125 
z
" id="DejaVuSans-2212"/>
      <path d="M 33.015625 40.375 
Q 26.375 40.375 22.484375 35.828125 
Q 18.609375 31.296875 18.609375 23.390625 
Q 18.609375 15.53125 22.484375 10.953125 
Q 26.375 6.390625 33.015625 6.390625 
Q 39.65625 6.390625 43.53125 10.953125 
Q 47.40625 15.53125 47.40625 23.390625 
Q 47.40625 31.296875 43.53125 35.828125 
Q 39.65625 40.375 33.015625 40.375 
z
M 52.59375 71.296875 
L 52.59375 62.3125 
Q 48.875 64.0625 45.09375 64.984375 
Q 41.3125 65.921875 37.59375 65.921875 
Q 27.828125 65.921875 22.671875 59.328125 
Q 17.53125 52.734375 16.796875 39.40625 
Q 19.671875 43.65625 24.015625 45.921875 
Q 28.375 48.1875 33.59375 48.1875 
Q 44.578125 48.1875 50.953125 41.515625 
Q 57.328125 34.859375 57.328125 23.390625 
Q 57.328125 12.15625 50.6875 5.359375 
Q 44.046875 -1.421875 33.015625 -1.421875 
Q 20.359375 -1.421875 13.671875 8.265625 
Q 6.984375 17.96875 6.984375 36.375 
Q 6.984375 53.65625 15.1875 63.9375 
Q 23.390625 74.21875 37.203125 74.21875 
Q 40.921875 74.21875 44.703125 73.484375 
Q 48.484375 72.75 52.59375 71.296875 
z
" id="DejaVuSans-36"/>
      <path d="M 31.78125 66.40625 
Q 24.171875 66.40625 20.328125 58.90625 
Q 16.5 51.421875 16.5 36.375 
Q 16.5 21.390625 20.328125 13.890625 
Q 24.171875 6.390625 31.78125 6.390625 
Q 39.453125 6.390625 43.28125 13.890625 
Q 47.125 21.390625 47.125 36.375 
Q 47.125 51.421875 43.28125 58.90625 
Q 39.453125 66.40625 31.78125 66.40625 
z
M 31.78125 74.21875 
Q 44.046875 74.21875 50.515625 64.515625 
Q 56.984375 54.828125 56.984375 36.375 
Q 56.984375 17.96875 50.515625 8.265625 
Q 44.046875 -1.421875 31.78125 -1.421875 
Q 19.53125 -1.421875 13.0625 8.265625 
Q 6.59375 17.96875 6.59375 36.375 
Q 6.59375 54.828125 13.0625 64.515625 
Q 19.53125 74.21875 31.78125 74.21875 
z
" id="DejaVuSans-30"/>
     </defs>
     <g transform="translate(102.127016 381.905132)scale(0.1 -0.1)">
      <use xlink:href="#DejaVuSans-2212"/>
      <use x="83.789062" xlink:href="#DejaVuSans-36"/>
      <use x="147.412109" xlink:href="#DejaVuSans-30"/>
     </g>
    </g>
   </g>
   <g id="xtick_2">
    <g id="line2d_3">
     <path d="M 149.248608 366.788073 
L 146.395175 369.241819 
" style="fill:none;stroke:#000000;stroke-linecap:square;stroke-width:0.8;"/>
    </g>
    <g id="text_2">
     <!-- −40 -->
     <defs>
      <path d="M 37.796875 64.3125 
L 12.890625 25.390625 
L 37.796875 25.390625 
z
M 35.203125 72.90625 
L 47.609375 72.90625 
L 47.609375 25.390625 
L 58.015625 25.390625 
L 58.015625 17.1875 
L 47.609375 17.1875 
L 47.609375 0 
L 37.796875 0 
L 37.796875 17.1875 
L 4.890625 17.1875 
L 4.890625 26.703125 
z
" id="DejaVuSans-34"/>
     </defs>
     <g transform="translate(131.275633 391.327636)scale(0.1 -0.1)">
      <use xlink:href="#DejaVuSans-2212"/>
      <use x="83.789062" xlink:href="#DejaVuSans-34"/>
      <use x="147.412109" xlink:href="#DejaVuSans-30"/>
     </g>
    </g>
   </g>
   <g id="xtick_3">
    <g id="line2d_4">
     <path d="M 178.808048 376.204229 
L 175.989867 378.693445 
" style="fill:none;stroke:#000000;stroke-linecap:square;stroke-width:0.8;"/>
    </g>
    <g id="text_3">
     <!-- −20 -->
     <defs>
      <path d="M 19.1875 8.296875 
L 53.609375 8.296875 
L 53.609375 0 
L 7.328125 0 
L 7.328125 8.296875 
Q 12.9375 14.109375 22.625 23.890625 
Q 32.328125 33.6875 34.8125 36.53125 
Q 39.546875 41.84375 41.421875 45.53125 
Q 43.3125 49.21875 43.3125 52.78125 
Q 43.3125 58.59375 39.234375 62.25 
Q 35.15625 65.921875 28.609375 65.921875 
Q 23.96875 65.921875 18.8125 64.3125 
Q 13.671875 62.703125 7.8125 59.421875 
L 7.8125 69.390625 
Q 13.765625 71.78125 18.9375 73 
Q 24.125 74.21875 28.421875 74.21875 
Q 39.75 74.21875 46.484375 68.546875 
Q 53.21875 62.890625 53.21875 53.421875 
Q 53.21875 48.921875 51.53125 44.890625 
Q 49.859375 40.875 45.40625 35.40625 
Q 44.1875 33.984375 37.640625 27.21875 
Q 31.109375 20.453125 19.1875 8.296875 
z
" id="DejaVuSans-32"/>
     </defs>
     <g transform="translate(160.844589 400.886018)scale(0.1 -0.1)">
      <use xlink:href="#DejaVuSans-2212"/>
      <use x="83.789062" xlink:href="#DejaVuSans-32"/>
      <use x="147.412109" xlink:href="#DejaVuSans-30"/>
     </g>
    </g>
   </g>
   <g id="xtick_4">
    <g id="line2d_5">
     <path d="M 208.795926 385.756864 
L 206.014324 388.282324 
" style="fill:none;stroke:#000000;stroke-linecap:square;stroke-width:0.8;"/>
    </g>
    <g id="text_4">
     <!-- 0 -->
     <g transform="translate(198.214136 410.583237)scale(0.1 -0.1)">
      <use xlink:href="#DejaVuSans-30"/>
     </g>
    </g>
   </g>
   <g id="xtick_5">
    <g id="line2d_6">
     <path d="M 239.221625 395.448967 
L 236.477976 398.011469 
" style="fill:none;stroke:#000000;stroke-linecap:square;stroke-width:0.8;"/>
    </g>
    <g id="text_5">
     <!-- 20 -->
     <g transform="translate(225.470262 420.422342)scale(0.1 -0.1)">
      <use xlink:href="#DejaVuSans-32"/>
      <use x="63.623047" xlink:href="#DejaVuSans-30"/>
     </g>
    </g>
   </g>
   <g id="xtick_6">
    <g id="line2d_7">
     <path d="M 270.094805 405.283615 
L 267.390531 407.88398 
" style="fill:none;stroke:#000000;stroke-linecap:square;stroke-width:0.8;"/>
    </g>
    <g id="text_6">
     <!-- 40 -->
     <g transform="translate(256.356266 430.406468)scale(0.1 -0.1)">
      <use xlink:href="#DejaVuSans-34"/>
      <use x="63.623047" xlink:href="#DejaVuSans-30"/>
     </g>
    </g>
   </g>
   <g id="xtick_7">
    <g id="line2d_8">
     <path d="M 301.425409 415.263975 
L 298.761986 417.903048 
" style="fill:none;stroke:#000000;stroke-linecap:square;stroke-width:0.8;"/>
    </g>
    <g id="text_7">
     <!-- 60 -->
     <g transform="translate(287.700889 440.538847)scale(0.1 -0.1)">
      <use xlink:href="#DejaVuSans-36"/>
      <use x="63.623047" xlink:href="#DejaVuSans-30"/>
     </g>
    </g>
   </g>
  </g>
  <g id="axis3d_2">
   <g id="line2d_9">
    <path d="M 407.663976 315.781468 
L 305.313474 417.664816 
" style="fill:none;stroke:#000000;stroke-linecap:square;stroke-width:0.8;"/>
   </g>
   <g id="Line3DCollection_2">
    <path d="M 109.739265 167.007253 
L 117.661373 354.51392 
L 307.960076 415.030294 
" style="fill:none;stroke:#b0b0b0;stroke-width:0.8;"/>
    <path d="M 129.65892 152.859933 
L 136.47174 338.815885 
L 325.226935 397.842245 
" style="fill:none;stroke:#b0b0b0;stroke-width:0.8;"/>
    <path d="M 149.076728 139.069035 
L 154.832027 323.493461 
L 342.061843 381.084176 
" style="fill:none;stroke:#b0b0b0;stroke-width:0.8;"/>
    <path d="M 168.011416 125.621257 
L 172.758195 308.533327 
L 358.480808 364.740151 
" style="fill:none;stroke:#b0b0b0;stroke-width:0.8;"/>
    <path d="M 186.480794 112.503951 
L 190.265462 293.922784 
L 374.499057 348.795014 
" style="fill:none;stroke:#b0b0b0;stroke-width:0.8;"/>
    <path d="M 204.501806 99.705084 
L 207.368342 279.649718 
L 390.131082 333.234338 
" style="fill:none;stroke:#b0b0b0;stroke-width:0.8;"/>
    <path d="M 222.090583 87.213198 
L 224.080685 265.702572 
L 405.390686 318.044382 
" style="fill:none;stroke:#b0b0b0;stroke-width:0.8;"/>
   </g>
   <g id="xtick_8">
    <g id="line2d_10">
     <path d="M 306.367218 414.523754 
L 311.149363 416.044511 
" style="fill:none;stroke:#000000;stroke-linecap:square;stroke-width:0.8;"/>
    </g>
    <g id="text_8">
     <!-- −60 -->
     <g transform="translate(308.672682 436.723958)scale(0.1 -0.1)">
      <use xlink:href="#DejaVuSans-2212"/>
      <use x="83.789062" xlink:href="#DejaVuSans-36"/>
      <use x="147.412109" xlink:href="#DejaVuSans-30"/>
     </g>
    </g>
   </g>
   <g id="xtick_9">
    <g id="line2d_11">
     <path d="M 323.647882 397.348453 
L 328.388537 398.830922 
" style="fill:none;stroke:#000000;stroke-linecap:square;stroke-width:0.8;"/>
    </g>
    <g id="text_9">
     <!-- −40 -->
     <g transform="translate(325.789865 419.364459)scale(0.1 -0.1)">
      <use xlink:href="#DejaVuSans-2212"/>
      <use x="83.789062" xlink:href="#DejaVuSans-34"/>
      <use x="147.412109" xlink:href="#DejaVuSans-30"/>
     </g>
    </g>
   </g>
   <g id="xtick_10">
    <g id="line2d_12">
     <path d="M 340.496407 380.602657 
L 345.196139 382.048265 
" style="fill:none;stroke:#000000;stroke-linecap:square;stroke-width:0.8;"/>
    </g>
    <g id="text_10">
     <!-- −20 -->
     <g transform="translate(342.479013 402.439054)scale(0.1 -0.1)">
      <use xlink:href="#DejaVuSans-2212"/>
      <use x="83.789062" xlink:href="#DejaVuSans-32"/>
      <use x="147.412109" xlink:href="#DejaVuSans-30"/>
     </g>
    </g>
   </g>
   <g id="xtick_11">
    <g id="line2d_13">
     <path d="M 356.928801 364.270454 
L 361.588172 365.68056 
" style="fill:none;stroke:#000000;stroke-linecap:square;stroke-width:0.8;"/>
    </g>
    <g id="text_11">
     <!-- 0 -->
     <g transform="translate(366.127077 385.931661)scale(0.1 -0.1)">
      <use xlink:href="#DejaVuSans-30"/>
     </g>
    </g>
   </g>
   <g id="xtick_12">
    <g id="line2d_14">
     <path d="M 372.960294 348.336708 
L 377.579863 349.712603 
" style="fill:none;stroke:#000000;stroke-linecap:square;stroke-width:0.8;"/>
    </g>
    <g id="text_12">
     <!-- 20 -->
     <g transform="translate(378.825702 369.826985)scale(0.1 -0.1)">
      <use xlink:href="#DejaVuSans-32"/>
      <use x="63.623047" xlink:href="#DejaVuSans-30"/>
     </g>
    </g>
   </g>
   <g id="xtick_13">
    <g id="line2d_15">
     <path d="M 388.60538 332.787014 
L 393.185699 334.129928 
" style="fill:none;stroke:#000000;stroke-linecap:square;stroke-width:0.8;"/>
    </g>
    <g id="text_13">
     <!-- 40 -->
     <g transform="translate(394.32284 354.110465)scale(0.1 -0.1)">
      <use xlink:href="#DejaVuSans-34"/>
      <use x="63.623047" xlink:href="#DejaVuSans-30"/>
     </g>
    </g>
   </g>
   <g id="xtick_14">
    <g id="line2d_16">
     <path d="M 403.877863 317.60765 
L 408.419481 318.918755 
" style="fill:none;stroke:#000000;stroke-linecap:square;stroke-width:0.8;"/>
    </g>
    <g id="text_14">
     <!-- 60 -->
     <g transform="translate(409.450911 338.768235)scale(0.1 -0.1)">
      <use xlink:href="#DejaVuSans-36"/>
      <use x="63.623047" xlink:href="#DejaVuSans-30"/>
     </g>
    </g>
   </g>
  </g>
  <g id="axis3d_3">
   <g id="line2d_17">
    <path d="M 407.663976 315.781468 
L 415.240655 132.134565 
" style="fill:none;stroke:#000000;stroke-linecap:square;stroke-width:0.8;"/>
   </g>
   <g id="Line3DCollection_3">
    <path d="M 407.84376 311.42378 
L 226.527571 259.384473 
L 114.588321 352.471099 
" style="fill:none;stroke:#b0b0b0;stroke-width:0.8;"/>
    <path d="M 409.390151 273.941664 
L 226.14708 222.940179 
L 112.938404 314.202412 
" style="fill:none;stroke:#b0b0b0;stroke-width:0.8;"/>
    <path d="M 410.970054 235.647295 
L 225.758693 185.739592 
L 111.251535 275.076659 
" style="fill:none;stroke:#b0b0b0;stroke-width:0.8;"/>
    <path d="M 412.584568 196.513979 
L 225.362161 147.758925 
L 109.526459 235.064721 
" style="fill:none;stroke:#b0b0b0;stroke-width:0.8;"/>
    <path d="M 414.234844 156.513844 
L 224.957226 108.97338 
L 107.761863 194.136145 
" style="fill:none;stroke:#b0b0b0;stroke-width:0.8;"/>
   </g>
   <g id="xtick_15">
    <g id="line2d_18">
     <path d="M 406.33092 310.989582 
L 410.872588 312.293079 
" style="fill:none;stroke:#000000;stroke-linecap:square;stroke-width:0.8;"/>
    </g>
    <g id="text_15">
     <!-- −15 -->
     <defs>
      <path d="M 12.40625 8.296875 
L 28.515625 8.296875 
L 28.515625 63.921875 
L 10.984375 60.40625 
L 10.984375 69.390625 
L 28.421875 72.90625 
L 38.28125 72.90625 
L 38.28125 8.296875 
L 54.390625 8.296875 
L 54.390625 0 
L 12.40625 0 
z
" id="DejaVuSans-31"/>
      <path d="M 10.796875 72.90625 
L 49.515625 72.90625 
L 49.515625 64.59375 
L 19.828125 64.59375 
L 19.828125 46.734375 
Q 21.96875 47.46875 24.109375 47.828125 
Q 26.265625 48.1875 28.421875 48.1875 
Q 40.625 48.1875 47.75 41.5 
Q 54.890625 34.8125 54.890625 23.390625 
Q 54.890625 11.625 47.5625 5.09375 
Q 40.234375 -1.421875 26.90625 -1.421875 
Q 22.3125 -1.421875 17.546875 -0.640625 
Q 12.796875 0.140625 7.71875 1.703125 
L 7.71875 11.625 
Q 12.109375 9.234375 16.796875 8.0625 
Q 21.484375 6.890625 26.703125 6.890625 
Q 35.15625 6.890625 40.078125 11.328125 
Q 45.015625 15.765625 45.015625 23.390625 
Q 45.015625 31 40.078125 35.4375 
Q 35.15625 39.890625 26.703125 39.890625 
Q 22.75 39.890625 18.8125 39.015625 
Q 14.890625 38.140625 10.796875 36.28125 
z
" id="DejaVuSans-35"/>
     </defs>
     <g transform="translate(413.523342 316.750215)scale(0.1 -0.1)">
      <use xlink:href="#DejaVuSans-2212"/>
      <use x="83.789062" xlink:href="#DejaVuSans-31"/>
      <use x="147.412109" xlink:href="#DejaVuSans-35"/>
     </g>
    </g>
   </g>
   <g id="xtick_16">
    <g id="line2d_19">
     <path d="M 407.860559 273.515937 
L 412.452552 274.794013 
" style="fill:none;stroke:#000000;stroke-linecap:square;stroke-width:0.8;"/>
    </g>
    <g id="text_16">
     <!-- −10 -->
     <g transform="translate(415.240573 279.312462)scale(0.1 -0.1)">
      <use xlink:href="#DejaVuSans-2212"/>
      <use x="83.789062" xlink:href="#DejaVuSans-31"/>
      <use x="147.412109" xlink:href="#DejaVuSans-30"/>
     </g>
    </g>
   </g>
   <g id="xtick_17">
    <g id="line2d_20">
     <path d="M 409.423335 235.23051 
L 414.066779 236.481749 
" style="fill:none;stroke:#000000;stroke-linecap:square;stroke-width:0.8;"/>
    </g>
    <g id="text_17">
     <!-- −5 -->
     <g transform="translate(420.176197 241.064919)scale(0.1 -0.1)">
      <use xlink:href="#DejaVuSans-2212"/>
      <use x="83.789062" xlink:href="#DejaVuSans-35"/>
     </g>
    </g>
   </g>
   <g id="xtick_18">
    <g id="line2d_21">
     <path d="M 411.020335 196.106634 
L 415.716396 197.329547 
" style="fill:none;stroke:#000000;stroke-linecap:square;stroke-width:0.8;"/>
    </g>
    <g id="text_18">
     <!-- 0 -->
     <g transform="translate(426.158778 201.981026)scale(0.1 -0.1)">
      <use xlink:href="#DejaVuSans-30"/>
     </g>
    </g>
   </g>
   <g id="xtick_19">
    <g id="line2d_22">
     <path d="M 412.652696 156.116459 
L 417.402578 157.309477 
" style="fill:none;stroke:#000000;stroke-linecap:square;stroke-width:0.8;"/>
    </g>
    <g id="text_19">
     <!-- 5 -->
     <g transform="translate(427.99115 162.033045)scale(0.1 -0.1)">
      <use xlink:href="#DejaVuSans-35"/>
     </g>
    </g>
   </g>
  </g>
  <g id="axes_1">
   <g id="Poly3DCollection_1">
    <path clip-path="url(#p456e36d855)" d="M 225.740311 228.644281 
L 233.958747 235.424797 
L 238.956742 253.698925 
L 230.81344 246.970639 
L 225.740311 228.644281 
z
" style="fill:#7b9ff9;fill-opacity:0.5;"/>
    <path clip-path="url(#p456e36d855)" d="M 233.958747 235.424797 
L 242.185657 241.716804 
L 247.109014 259.945829 
L 238.956742 253.698925 
L 233.958747 235.424797 
z
" style="fill:#7093f3;fill-opacity:0.5;"/>
    <path clip-path="url(#p456e36d855)" d="M 242.185657 241.716804 
L 250.424511 247.521713 
L 255.273663 265.712746 
L 247.109014 259.945829 
L 242.185657 241.716804 
z
" style="fill:#6687ed;fill-opacity:0.5;"/>
    <path clip-path="url(#p456e36d855)" d="M 250.424511 247.521713 
L 258.678804 252.840531 
L 263.454121 271.000678 
L 255.273663 265.712746 
L 250.424511 247.521713 
z
" style="fill:#5d7ce6;fill-opacity:0.5;"/>
    <path clip-path="url(#p456e36d855)" d="M 258.678804 252.840531 
L 266.952057 257.67386 
L 271.653846 275.810234 
L 263.454121 271.000678 
L 258.678804 252.840531 
z
" style="fill:#5572df;fill-opacity:0.5;"/>
    <path clip-path="url(#p456e36d855)" d="M 266.952057 257.67386 
L 275.247824 262.021896 
L 279.876327 280.141623 
L 271.653846 275.810234 
L 266.952057 257.67386 
z
" style="fill:#4f69d9;fill-opacity:0.5;"/>
    <path clip-path="url(#p456e36d855)" d="M 275.247824 262.021896 
L 283.569697 265.884429 
L 288.125093 283.99466 
L 279.876327 280.141623 
L 275.247824 262.021896 
z
" style="fill:#4b64d5;fill-opacity:0.5;"/>
    <path clip-path="url(#p456e36d855)" d="M 283.569697 265.884429 
L 291.921312 269.260835 
L 296.403714 287.368756 
L 288.125093 283.99466 
L 283.569697 265.884429 
z
" style="fill:#485fd1;fill-opacity:0.5;"/>
    <path clip-path="url(#p456e36d855)" d="M 220.598533 212.491799 
L 228.887681 219.322281 
L 233.958747 235.424797 
L 225.740311 228.644281 
L 220.598533 212.491799 
z
" style="fill:#b7cff9;fill-opacity:0.5;"/>
    <path clip-path="url(#p456e36d855)" d="M 291.921312 269.260835 
L 300.306354 272.150075 
L 304.71581 290.262919 
L 296.403714 287.368756 
L 291.921312 269.260835 
z
" style="fill:#455cce;fill-opacity:0.5;"/>
    <path clip-path="url(#p456e36d855)" d="M 228.887681 219.322281 
L 237.184775 225.657642 
L 242.185657 241.716804 
L 233.958747 235.424797 
L 228.887681 219.322281 
z
" style="fill:#abc8fd;fill-opacity:0.5;"/>
    <path clip-path="url(#p456e36d855)" d="M 237.184775 225.657642 
L 245.493344 231.499305 
L 250.424511 247.521713 
L 242.185657 241.716804 
L 237.184775 225.657642 
z
" style="fill:#a1c0ff;fill-opacity:0.5;"/>
    <path clip-path="url(#p456e36d855)" d="M 300.306354 272.150075 
L 308.728559 274.550693 
L 313.065051 292.675746 
L 304.71581 290.262919 
L 300.306354 272.150075 
z
" style="fill:#455cce;fill-opacity:0.5;"/>
    <path clip-path="url(#p456e36d855)" d="M 245.493344 231.499305 
L 253.816943 236.848283 
L 258.678804 252.840531 
L 250.424511 247.521713 
L 245.493344 231.499305 
z
" style="fill:#97b8ff;fill-opacity:0.5;"/>
    <path clip-path="url(#p456e36d855)" d="M 253.816943 236.848283 
L 262.159154 241.705174 
L 266.952057 257.67386 
L 258.678804 252.840531 
L 253.816943 236.848283 
z
" style="fill:#8fb1fe;fill-opacity:0.5;"/>
    <path clip-path="url(#p456e36d855)" d="M 308.728559 274.550693 
L 317.191728 276.460801 
L 321.45517 294.605418 
L 313.065051 292.675746 
L 308.728559 274.550693 
z
" style="fill:#455cce;fill-opacity:0.5;"/>
    <path clip-path="url(#p456e36d855)" d="M 262.159154 241.705174 
L 270.52359 246.070161 
L 275.247824 262.021896 
L 266.952057 257.67386 
L 262.159154 241.705174 
z
" style="fill:#89acfd;fill-opacity:0.5;"/>
    <path clip-path="url(#p456e36d855)" d="M 270.52359 246.070161 
L 278.913905 249.94301 
L 283.569697 265.884429 
L 275.247824 262.021896 
L 270.52359 246.070161 
z
" style="fill:#84a7fc;fill-opacity:0.5;"/>
    <path clip-path="url(#p456e36d855)" d="M 317.191728 276.460801 
L 325.699724 277.878084 
L 329.889961 296.049693 
L 321.45517 294.605418 
L 317.191728 276.460801 
z
" style="fill:#485fd1;fill-opacity:0.5;"/>
    <path clip-path="url(#p456e36d855)" d="M 278.913905 249.94301 
L 287.333795 253.323066 
L 291.921312 269.260835 
L 283.569697 265.884429 
L 278.913905 249.94301 
z
" style="fill:#80a3fa;fill-opacity:0.5;"/>
    <path clip-path="url(#p456e36d855)" d="M 215.397172 198.607002 
L 223.752345 205.485086 
L 228.887681 219.322281 
L 220.598533 212.491799 
L 215.397172 198.607002 
z
" style="fill:#e2dad5;fill-opacity:0.5;"/>
    <path clip-path="url(#p456e36d855)" d="M 325.699724 277.878084 
L 334.256486 278.799781 
L 338.373292 297.005903 
L 329.889961 296.049693 
L 325.699724 277.878084 
z
" style="fill:#4a63d3;fill-opacity:0.5;"/>
    <path clip-path="url(#p456e36d855)" d="M 223.752345 205.485086 
L 232.114904 211.861988 
L 237.184775 225.657642 
L 228.887681 219.322281 
L 223.752345 205.485086 
z
" style="fill:#d9dce1;fill-opacity:0.5;"/>
    <path clip-path="url(#p456e36d855)" d="M 287.333795 253.323066 
L 295.787006 256.209248 
L 300.306354 272.150075 
L 291.921312 269.260835 
L 287.333795 253.323066 
z
" style="fill:#7ea1fa;fill-opacity:0.5;"/>
    <path clip-path="url(#p456e36d855)" d="M 232.114904 211.861988 
L 240.488435 217.739148 
L 245.493344 231.499305 
L 237.184775 225.657642 
L 232.114904 211.861988 
z
" style="fill:#d1dae9;fill-opacity:0.5;"/>
    <path clip-path="url(#p456e36d855)" d="M 240.488435 217.739148 
L 248.876549 223.117583 
L 253.816943 236.848283 
L 245.493344 231.499305 
L 240.488435 217.739148 
z
" style="fill:#c9d7f0;fill-opacity:0.5;"/>
    <path clip-path="url(#p456e36d855)" d="M 334.256486 278.799781 
L 342.866029 279.222682 
L 346.909106 297.470937 
L 338.373292 297.005903 
L 334.256486 278.799781 
z
" style="fill:#4f69d9;fill-opacity:0.5;"/>
    <path clip-path="url(#p456e36d855)" d="M 295.787006 256.209248 
L 304.277341 258.600046 
L 308.728559 274.550693 
L 300.306354 272.150075 
L 295.787006 256.209248 
z
" style="fill:#7da0f9;fill-opacity:0.5;"/>
    <path clip-path="url(#p456e36d855)" d="M 248.876549 223.117583 
L 257.282883 227.997889 
L 262.159154 241.705174 
L 253.816943 236.848283 
L 248.876549 223.117583 
z
" style="fill:#c3d5f4;fill-opacity:0.5;"/>
    <path clip-path="url(#p456e36d855)" d="M 257.282883 227.997889 
L 265.711109 232.380236 
L 270.52359 246.070161 
L 262.159154 241.705174 
L 257.282883 227.997889 
z
" style="fill:#bcd2f7;fill-opacity:0.5;"/>
    <path clip-path="url(#p456e36d855)" d="M 304.277341 258.600046 
L 312.80866 260.493513 
L 317.191728 276.460801 
L 308.728559 274.550693 
L 304.277341 258.600046 
z
" style="fill:#7da0f9;fill-opacity:0.5;"/>
    <path clip-path="url(#p456e36d855)" d="M 342.866029 279.222682 
L 351.532454 279.14312 
L 355.501431 297.441239 
L 346.909106 297.470937 
L 342.866029 279.222682 
z
" style="fill:#5470de;fill-opacity:0.5;"/>
    <path clip-path="url(#p456e36d855)" d="M 265.711109 232.380236 
L 274.164935 236.264371 
L 278.913905 249.94301 
L 270.52359 246.070161 
L 265.711109 232.380236 
z
" style="fill:#b7cff9;fill-opacity:0.5;"/>
    <path clip-path="url(#p456e36d855)" d="M 312.80866 260.493513 
L 321.384895 261.887259 
L 325.699724 277.878084 
L 317.191728 276.460801 
L 312.80866 260.493513 
z
" style="fill:#80a3fa;fill-opacity:0.5;"/>
    <path clip-path="url(#p456e36d855)" d="M 210.145867 187.077286 
L 218.562124 194.000506 
L 223.752345 205.485086 
L 215.397172 198.607002 
L 210.145867 187.077286 
z
" style="fill:#f6bda2;fill-opacity:0.5;"/>
    <path clip-path="url(#p456e36d855)" d="M 351.532454 279.14312 
L 360.259955 278.556953 
L 364.154385 296.912792 
L 355.501431 297.441239 
L 351.532454 279.14312 
z
" style="fill:#5b7ae5;fill-opacity:0.5;"/>
    <path clip-path="url(#p456e36d855)" d="M 274.164935 236.264371 
L 282.648117 239.649608 
L 287.333795 253.323066 
L 278.913905 249.94301 
L 274.164935 236.264371 
z
" style="fill:#b3cdfb;fill-opacity:0.5;"/>
    <path clip-path="url(#p456e36d855)" d="M 218.562124 194.000506 
L 226.985178 200.417078 
L 232.114904 211.861988 
L 223.752345 205.485086 
L 218.562124 194.000506 
z
" style="fill:#f3c7b1;fill-opacity:0.5;"/>
    <path clip-path="url(#p456e36d855)" d="M 226.985178 200.417078 
L 235.418666 206.328457 
L 240.488435 217.739148 
L 232.114904 211.861988 
L 226.985178 200.417078 
z
" style="fill:#efcebd;fill-opacity:0.5;"/>
    <path clip-path="url(#p456e36d855)" d="M 321.384895 261.887259 
L 330.010048 262.77844 
L 334.256486 278.799781 
L 325.699724 277.878084 
L 321.384895 261.887259 
z
" style="fill:#82a6fb;fill-opacity:0.5;"/>
    <path clip-path="url(#p456e36d855)" d="M 282.648117 239.649608 
L 291.164458 242.534829 
L 295.787006 256.209248 
L 287.333795 253.323066 
L 282.648117 239.649608 
z
" style="fill:#b2ccfb;fill-opacity:0.5;"/>
    <path clip-path="url(#p456e36d855)" d="M 235.418666 206.328457 
L 243.866252 211.735665 
L 248.876549 223.117583 
L 240.488435 217.739148 
L 235.418666 206.328457 
z
" style="fill:#ead4c8;fill-opacity:0.5;"/>
    <path clip-path="url(#p456e36d855)" d="M 360.259955 278.556953 
L 369.052826 277.459556 
L 372.872184 295.881109 
L 364.154385 296.912792 
L 360.259955 278.556953 
z
" style="fill:#6384eb;fill-opacity:0.5;"/>
    <path clip-path="url(#p456e36d855)" d="M 243.866252 211.735665 
L 252.331626 216.639296 
L 257.282883 227.997889 
L 248.876549 223.117583 
L 243.866252 211.735665 
z
" style="fill:#e6d7cf;fill-opacity:0.5;"/>
    <path clip-path="url(#p456e36d855)" d="M 291.164458 242.534829 
L 299.717818 244.918476 
L 304.277341 258.600046 
L 295.787006 256.209248 
L 291.164458 242.534829 
z
" style="fill:#b1cbfc;fill-opacity:0.5;"/>
    <path clip-path="url(#p456e36d855)" d="M 330.010048 262.77844 
L 338.688203 263.163755 
L 342.866029 279.222682 
L 334.256486 278.799781 
L 330.010048 262.77844 
z
" style="fill:#88abfd;fill-opacity:0.5;"/>
    <path clip-path="url(#p456e36d855)" d="M 252.331626 216.639296 
L 260.818511 221.039511 
L 265.711109 232.380236 
L 257.282883 227.997889 
L 252.331626 216.639296 
z
" style="fill:#e1dad6;fill-opacity:0.5;"/>
    <path clip-path="url(#p456e36d855)" d="M 299.717818 244.918476 
L 308.31212 246.798543 
L 312.80866 260.493513 
L 304.277341 258.600046 
L 299.717818 244.918476 
z
" style="fill:#b2ccfb;fill-opacity:0.5;"/>
    <path clip-path="url(#p456e36d855)" d="M 369.052826 277.459556 
L 377.915469 275.845809 
L 381.659148 294.341219 
L 372.872184 295.881109 
L 369.052826 277.459556 
z
" style="fill:#6e90f2;fill-opacity:0.5;"/>
    <path clip-path="url(#p456e36d855)" d="M 260.818511 221.039511 
L 269.330669 224.93604 
L 274.164935 236.264371 
L 265.711109 232.380236 
L 260.818511 221.039511 
z
" style="fill:#dddcdc;fill-opacity:0.5;"/>
    <path clip-path="url(#p456e36d855)" d="M 338.688203 263.163755 
L 347.423532 263.039427 
L 351.532454 279.14312 
L 342.866029 279.222682 
L 338.688203 263.163755 
z
" style="fill:#8db0fe;fill-opacity:0.5;"/>
    <path clip-path="url(#p456e36d855)" d="M 204.85479 177.982726 
L 213.326951 184.94852 
L 218.562124 194.000506 
L 210.145867 187.077286 
L 204.85479 177.982726 
z
" style="fill:#f39577;fill-opacity:0.5;"/>
    <path clip-path="url(#p456e36d855)" d="M 213.326951 184.94852 
L 221.805289 191.402831 
L 226.985178 200.417078 
L 218.562124 194.000506 
L 213.326951 184.94852 
z
" style="fill:#f6a385;fill-opacity:0.5;"/>
    <path clip-path="url(#p456e36d855)" d="M 308.31212 246.798543 
L 316.951353 248.172575 
L 321.384895 261.887259 
L 312.80866 260.493513 
L 308.31212 246.798543 
z
" style="fill:#b3cdfb;fill-opacity:0.5;"/>
    <path clip-path="url(#p456e36d855)" d="M 269.330669 224.93604 
L 277.871908 228.328169 
L 282.648117 239.649608 
L 274.164935 236.264371 
L 269.330669 224.93604 
z
" style="fill:#dadce0;fill-opacity:0.5;"/>
    <path clip-path="url(#p456e36d855)" d="M 221.805289 191.402831 
L 230.293493 197.347126 
L 235.418666 206.328457 
L 226.985178 200.417078 
L 221.805289 191.402831 
z
" style="fill:#f7af91;fill-opacity:0.5;"/>
    <path clip-path="url(#p456e36d855)" d="M 377.915469 275.845809 
L 386.852398 273.710076 
L 390.519711 292.287653 
L 381.659148 294.341219 
L 377.915469 275.845809 
z
" style="fill:#7a9df8;fill-opacity:0.5;"/>
    <path clip-path="url(#p456e36d855)" d="M 347.423532 263.039427 
L 356.220299 262.4012 
L 360.259955 278.556953 
L 351.532454 279.14312 
L 347.423532 263.039427 
z
" style="fill:#96b7ff;fill-opacity:0.5;"/>
    <path clip-path="url(#p456e36d855)" d="M 230.293493 197.347126 
L 238.795272 202.782436 
L 243.866252 211.735665 
L 235.418666 206.328457 
L 230.293493 197.347126 
z
" style="fill:#f7b89c;fill-opacity:0.5;"/>
    <path clip-path="url(#p456e36d855)" d="M 277.871908 228.328169 
L 286.446085 231.214747 
L 291.164458 242.534829 
L 282.648117 239.649608 
L 277.871908 228.328169 
z
" style="fill:#d9dce1;fill-opacity:0.5;"/>
    <path clip-path="url(#p456e36d855)" d="M 316.951353 248.172575 
L 325.639584 249.037652 
L 330.010048 262.77844 
L 321.384895 261.887259 
L 316.951353 248.172575 
z
" style="fill:#b7cff9;fill-opacity:0.5;"/>
    <path clip-path="url(#p456e36d855)" d="M 238.795272 202.782436 
L 247.314365 207.709355 
L 252.331626 216.639296 
L 243.866252 211.735665 
L 238.795272 202.782436 
z
" style="fill:#f6bfa6;fill-opacity:0.5;"/>
    <path clip-path="url(#p456e36d855)" d="M 286.446085 231.214747 
L 295.057115 233.594172 
L 299.717818 244.918476 
L 291.164458 242.534829 
L 286.446085 231.214747 
z
" style="fill:#d8dce2;fill-opacity:0.5;"/>
    <path clip-path="url(#p456e36d855)" d="M 247.314365 207.709355 
L 255.854543 212.128036 
L 260.818511 221.039511 
L 252.331626 216.639296 
L 247.314365 207.709355 
z
" style="fill:#f5c4ac;fill-opacity:0.5;"/>
    <path clip-path="url(#p456e36d855)" d="M 356.220299 262.4012 
L 365.082871 261.24432 
L 369.052826 277.459556 
L 360.259955 278.556953 
L 356.220299 262.4012 
z
" style="fill:#9fbfff;fill-opacity:0.5;"/>
    <path clip-path="url(#p456e36d855)" d="M 325.639584 249.037652 
L 334.380958 249.390384 
L 338.688203 263.163755 
L 330.010048 262.77844 
L 325.639584 249.037652 
z
" style="fill:#bbd1f8;fill-opacity:0.5;"/>
    <path clip-path="url(#p456e36d855)" d="M 199.534591 171.395216 
L 208.057249 178.400926 
L 213.326951 184.94852 
L 204.85479 177.982726 
L 199.534591 171.395216 
z
" style="fill:#e46e56;fill-opacity:0.5;"/>
    <path clip-path="url(#p456e36d855)" d="M 255.854543 212.128036 
L 264.419617 216.038192 
L 269.330669 224.93604 
L 260.818511 221.039511 
L 255.854543 212.128036 
z
" style="fill:#f3c8b2;fill-opacity:0.5;"/>
    <path clip-path="url(#p456e36d855)" d="M 295.057115 233.594172 
L 303.708974 235.464388 
L 308.31212 246.798543 
L 299.717818 244.918476 
L 295.057115 233.594172 
z
" style="fill:#d9dce1;fill-opacity:0.5;"/>
    <path clip-path="url(#p456e36d855)" d="M 208.057249 178.400926 
L 216.58544 184.890982 
L 221.805289 191.402831 
L 213.326951 184.94852 
L 208.057249 178.400926 
z
" style="fill:#ec7f63;fill-opacity:0.5;"/>
    <path clip-path="url(#p456e36d855)" d="M 216.58544 184.890982 
L 225.122895 190.866865 
L 230.293493 197.347126 
L 221.805289 191.402831 
L 216.58544 184.890982 
z
" style="fill:#f08b6e;fill-opacity:0.5;"/>
    <path clip-path="url(#p456e36d855)" d="M 264.419617 216.038192 
L 273.013443 219.43909 
L 277.871908 228.328169 
L 269.330669 224.93604 
L 264.419617 216.038192 
z
" style="fill:#f2cbb7;fill-opacity:0.5;"/>
    <path clip-path="url(#p456e36d855)" d="M 365.082871 261.24432 
L 374.015725 259.563522 
L 377.915469 275.845809 
L 369.052826 277.459556 
L 365.082871 261.24432 
z
" style="fill:#a9c6fd;fill-opacity:0.5;"/>
    <path clip-path="url(#p456e36d855)" d="M 334.380958 249.390384 
L 343.179712 249.226897 
L 347.423532 263.039427 
L 338.688203 263.163755 
L 334.380958 249.390384 
z
" style="fill:#c1d4f4;fill-opacity:0.5;"/>
    <path clip-path="url(#p456e36d855)" d="M 303.708974 235.464388 
L 312.40571 236.822878 
L 316.951353 248.172575 
L 308.31212 246.798543 
L 303.708974 235.464388 
z
" style="fill:#dadce0;fill-opacity:0.5;"/>
    <path clip-path="url(#p456e36d855)" d="M 225.122895 190.866865 
L 233.673368 196.329615 
L 238.795272 202.782436 
L 230.293493 197.347126 
L 225.122895 190.866865 
z
" style="fill:#f39778;fill-opacity:0.5;"/>
    <path clip-path="url(#p456e36d855)" d="M 273.013443 219.43909 
L 281.639927 222.329547 
L 286.446085 231.214747 
L 277.871908 228.328169 
L 273.013443 219.43909 
z
" style="fill:#f1ccb8;fill-opacity:0.5;"/>
    <path clip-path="url(#p456e36d855)" d="M 233.673368 196.329615 
L 242.240641 201.279825 
L 247.314365 207.709355 
L 238.795272 202.782436 
L 233.673368 196.329615 
z
" style="fill:#f5a081;fill-opacity:0.5;"/>
    <path clip-path="url(#p456e36d855)" d="M 343.179712 249.226897 
L 352.040177 248.542826 
L 356.220299 262.4012 
L 347.423532 263.039427 
L 343.179712 249.226897 
z
" style="fill:#c7d7f0;fill-opacity:0.5;"/>
    <path clip-path="url(#p456e36d855)" d="M 312.40571 236.822878 
L 321.151444 237.666652 
L 325.639584 249.037652 
L 316.951353 248.172575 
L 312.40571 236.822878 
z
" style="fill:#dcdddd;fill-opacity:0.5;"/>
    <path clip-path="url(#p456e36d855)" d="M 374.015725 259.563522 
L 383.023455 257.353018 
L 386.852398 273.710076 
L 377.915469 275.845809 
L 374.015725 259.563522 
z
" style="fill:#b5cdfa;fill-opacity:0.5;"/>
    <path clip-path="url(#p456e36d855)" d="M 242.240641 201.279825 
L 250.828529 205.717646 
L 255.854543 212.128036 
L 247.314365 207.709355 
L 242.240641 201.279825 
z
" style="fill:#f7a889;fill-opacity:0.5;"/>
    <path clip-path="url(#p456e36d855)" d="M 281.639927 222.329547 
L 290.303033 224.707924 
L 295.057115 233.594172 
L 286.446085 231.214747 
L 281.639927 222.329547 
z
" style="fill:#f1cdba;fill-opacity:0.5;"/>
    <path clip-path="url(#p456e36d855)" d="M 194.196338 167.377646 
L 202.763879 174.42052 
L 208.057249 178.400926 
L 199.534591 171.395216 
L 194.196338 167.377646 
z
" style="fill:#d1493f;fill-opacity:0.5;"/>
    <path clip-path="url(#p456e36d855)" d="M 202.763879 174.42052 
L 211.336284 180.944266 
L 216.58544 184.890982 
L 208.057249 178.400926 
L 202.763879 174.42052 
z
" style="fill:#dc5d4a;fill-opacity:0.5;"/>
    <path clip-path="url(#p456e36d855)" d="M 250.828529 205.717646 
L 259.440885 209.642777 
L 264.419617 216.038192 
L 255.854543 212.128036 
L 250.828529 205.717646 
z
" style="fill:#f7ac8e;fill-opacity:0.5;"/>
    <path clip-path="url(#p456e36d855)" d="M 321.151444 237.666652 
L 329.950381 237.992241 
L 334.380958 249.390384 
L 325.639584 249.037652 
L 321.151444 237.666652 
z
" style="fill:#e0dbd8;fill-opacity:0.5;"/>
    <path clip-path="url(#p456e36d855)" d="M 352.040177 248.542826 
L 360.966788 247.333297 
L 365.082871 261.24432 
L 356.220299 262.4012 
L 352.040177 248.542826 
z
" style="fill:#cfdaea;fill-opacity:0.5;"/>
    <path clip-path="url(#p456e36d855)" d="M 290.303033 224.707924 
L 299.006788 226.572119 
L 303.708974 235.464388 
L 295.057115 233.594172 
L 290.303033 224.707924 
z
" style="fill:#f1cdba;fill-opacity:0.5;"/>
    <path clip-path="url(#p456e36d855)" d="M 211.336284 180.944266 
L 219.917324 186.950378 
L 225.122895 190.866865 
L 216.58544 184.890982 
L 211.336284 180.944266 
z
" style="fill:#e36c55;fill-opacity:0.5;"/>
    <path clip-path="url(#p456e36d855)" d="M 259.440885 209.642777 
L 268.08161 213.054467 
L 273.013443 219.43909 
L 264.419617 216.038192 
L 259.440885 209.642777 
z
" style="fill:#f7b093;fill-opacity:0.5;"/>
    <path clip-path="url(#p456e36d855)" d="M 219.917324 186.950378 
L 228.510791 192.439905 
L 233.673368 196.329615 
L 225.122895 190.866865 
L 219.917324 186.950378 
z
" style="fill:#e97a5f;fill-opacity:0.5;"/>
    <path clip-path="url(#p456e36d855)" d="M 299.006788 226.572119 
L 307.755289 227.919562 
L 312.40571 236.822878 
L 303.708974 235.464388 
L 299.006788 226.572119 
z
" style="fill:#f2cbb7;fill-opacity:0.5;"/>
    <path clip-path="url(#p456e36d855)" d="M 228.510791 192.439905 
L 237.120504 197.413444 
L 242.240641 201.279825 
L 233.673368 196.329615 
L 228.510791 192.439905 
z
" style="fill:#ed8366;fill-opacity:0.5;"/>
    <path clip-path="url(#p456e36d855)" d="M 329.950381 237.992241 
L 338.806817 237.795684 
L 343.179712 249.226897 
L 334.380958 249.390384 
L 329.950381 237.992241 
z
" style="fill:#e5d8d1;fill-opacity:0.5;"/>
    <path clip-path="url(#p456e36d855)" d="M 268.08161 213.054467 
L 276.754653 215.951509 
L 281.639927 222.329547 
L 273.013443 219.43909 
L 268.08161 213.054467 
z
" style="fill:#f7b396;fill-opacity:0.5;"/>
    <path clip-path="url(#p456e36d855)" d="M 360.966788 247.333297 
L 369.964093 245.592914 
L 374.015725 259.563522 
L 365.082871 261.24432 
L 360.966788 247.333297 
z
" style="fill:#d7dce3;fill-opacity:0.5;"/>
    <path clip-path="url(#p456e36d855)" d="M 188.851446 165.983151 
L 197.45807 173.060349 
L 202.763879 174.42052 
L 194.196338 167.377646 
L 188.851446 165.983151 
z
" style="fill:#c12b30;fill-opacity:0.5;"/>
    <path clip-path="url(#p456e36d855)" d="M 237.120504 197.413444 
L 245.750318 201.87114 
L 250.828529 205.717646 
L 242.240641 201.279825 
L 237.120504 197.413444 
z
" style="fill:#f08b6e;fill-opacity:0.5;"/>
    <path clip-path="url(#p456e36d855)" d="M 197.45807 173.060349 
L 206.068868 179.615666 
L 211.336284 180.944266 
L 202.763879 174.42052 
L 197.45807 173.060349 
z
" style="fill:#cd423b;fill-opacity:0.5;"/>
    <path clip-path="url(#p456e36d855)" d="M 307.755289 227.919562 
L 316.552711 228.747201 
L 321.151444 237.666652 
L 312.40571 236.822878 
L 307.755289 227.919562 
z
" style="fill:#f2c9b4;fill-opacity:0.5;"/>
    <path clip-path="url(#p456e36d855)" d="M 276.754653 215.951509 
L 285.464023 218.332231 
L 290.303033 224.707924 
L 281.639927 222.329547 
L 276.754653 215.951509 
z
" style="fill:#f7b396;fill-opacity:0.5;"/>
    <path clip-path="url(#p456e36d855)" d="M 338.806817 237.795684 
L 347.725144 237.072515 
L 352.040177 248.542826 
L 343.179712 249.226897 
L 338.806817 237.795684 
z
" style="fill:#ead5c9;fill-opacity:0.5;"/>
    <path clip-path="url(#p456e36d855)" d="M 245.750318 201.87114 
L 254.404126 205.812688 
L 259.440885 209.642777 
L 250.828529 205.717646 
L 245.750318 201.87114 
z
" style="fill:#f29274;fill-opacity:0.5;"/>
    <path clip-path="url(#p456e36d855)" d="M 206.068868 179.615666 
L 214.687643 185.650613 
L 219.917324 186.950378 
L 211.336284 180.944266 
L 206.068868 179.615666 
z
" style="fill:#d65244;fill-opacity:0.5;"/>
    <path clip-path="url(#p456e36d855)" d="M 369.964093 245.592914 
L 379.036759 243.315744 
L 383.023455 257.353018 
L 374.015725 259.563522 
L 369.964093 245.592914 
z
" style="fill:#e0dbd8;fill-opacity:0.5;"/>
    <path clip-path="url(#p456e36d855)" d="M 214.687643 185.650613 
L 223.318222 191.166246 
L 228.510791 192.439905 
L 219.917324 186.950378 
L 214.687643 185.650613 
z
" style="fill:#de614d;fill-opacity:0.5;"/>
    <path clip-path="url(#p456e36d855)" d="M 285.464023 218.332231 
L 294.213792 220.194493 
L 299.006788 226.572119 
L 290.303033 224.707924 
L 285.464023 218.332231 
z
" style="fill:#f7b396;fill-opacity:0.5;"/>
    <path clip-path="url(#p456e36d855)" d="M 254.404126 205.812688 
L 263.085864 209.237321 
L 268.08161 213.054467 
L 259.440885 209.642777 
L 254.404126 205.812688 
z
" style="fill:#f39778;fill-opacity:0.5;"/>
    <path clip-path="url(#p456e36d855)" d="M 316.552711 228.747201 
L 325.403311 229.051496 
L 329.950381 237.992241 
L 321.151444 237.666652 
L 316.552711 228.747201 
z
" style="fill:#f4c5ad;fill-opacity:0.5;"/>
    <path clip-path="url(#p456e36d855)" d="M 223.318222 191.166246 
L 231.964458 196.163167 
L 237.120504 197.413444 
L 228.510791 192.439905 
L 223.318222 191.166246 
z
" style="fill:#e36c55;fill-opacity:0.5;"/>
    <path clip-path="url(#p456e36d855)" d="M 183.511608 167.254441 
L 192.15135 174.363033 
L 197.45807 173.060349 
L 188.851446 165.983151 
L 183.511608 167.254441 
z
" style="fill:#b70d28;fill-opacity:0.5;"/>
    <path clip-path="url(#p456e36d855)" d="M 347.725144 237.072515 
L 356.70986 235.817749 
L 360.966788 247.333297 
L 352.040177 248.542826 
L 347.725144 237.072515 
z
" style="fill:#efcfbf;fill-opacity:0.5;"/>
    <path clip-path="url(#p456e36d855)" d="M 263.085864 209.237321 
L 271.799522 212.143812 
L 276.754653 215.951509 
L 268.08161 213.054467 
L 263.085864 209.237321 
z
" style="fill:#f4987a;fill-opacity:0.5;"/>
    <path clip-path="url(#p456e36d855)" d="M 192.15135 174.363033 
L 200.794555 180.94774 
L 206.068868 179.615666 
L 197.45807 173.060349 
L 192.15135 174.363033 
z
" style="fill:#c32e31;fill-opacity:0.5;"/>
    <path clip-path="url(#p456e36d855)" d="M 294.213792 220.194493 
L 303.008103 221.535678 
L 307.755289 227.919562 
L 299.006788 226.572119 
L 294.213792 220.194493 
z
" style="fill:#f7b093;fill-opacity:0.5;"/>
    <path clip-path="url(#p456e36d855)" d="M 231.964458 196.163167 
L 240.630238 200.641524 
L 245.750318 201.87114 
L 237.120504 197.413444 
L 231.964458 196.163167 
z
" style="fill:#e8765c;fill-opacity:0.5;"/>
    <path clip-path="url(#p456e36d855)" d="M 325.403311 229.051496 
L 334.311439 228.828407 
L 338.806817 237.795684 
L 329.950381 237.992241 
L 325.403311 229.051496 
z
" style="fill:#f5c0a7;fill-opacity:0.5;"/>
    <path clip-path="url(#p456e36d855)" d="M 200.794555 180.94774 
L 209.445056 187.010084 
L 214.687643 185.650613 
L 206.068868 179.615666 
L 200.794555 180.94774 
z
" style="fill:#cd423b;fill-opacity:0.5;"/>
    <path clip-path="url(#p456e36d855)" d="M 240.630238 200.641524 
L 249.319488 204.601004 
L 254.404126 205.812688 
L 245.750318 201.87114 
L 240.630238 200.641524 
z
" style="fill:#ea7b60;fill-opacity:0.5;"/>
    <path clip-path="url(#p456e36d855)" d="M 271.799522 212.143812 
L 280.549147 214.530465 
L 285.464023 218.332231 
L 276.754653 215.951509 
L 271.799522 212.143812 
z
" style="fill:#f49a7b;fill-opacity:0.5;"/>
    <path clip-path="url(#p456e36d855)" d="M 209.445056 187.010084 
L 218.106708 192.551135 
L 223.318222 191.166246 
L 214.687643 185.650613 
L 209.445056 187.010084 
z
" style="fill:#d65244;fill-opacity:0.5;"/>
    <path clip-path="url(#p456e36d855)" d="M 356.70986 235.817749 
L 365.765577 234.025872 
L 369.964093 245.592914 
L 360.966788 247.333297 
L 356.70986 235.817749 
z
" style="fill:#f2c9b4;fill-opacity:0.5;"/>
    <path clip-path="url(#p456e36d855)" d="M 303.008103 221.535678 
L 311.851176 222.352682 
L 316.552711 228.747201 
L 307.755289 227.919562 
L 303.008103 221.535678 
z
" style="fill:#f7ad90;fill-opacity:0.5;"/>
    <path clip-path="url(#p456e36d855)" d="M 178.188716 171.223218 
L 186.855468 178.360192 
L 192.15135 174.363033 
L 183.511608 167.254441 
L 178.188716 171.223218 
z
" style="fill:#b40426;fill-opacity:0.5;"/>
    <path clip-path="url(#p456e36d855)" d="M 249.319488 204.601004 
L 258.036178 208.040834 
L 263.085864 209.237321 
L 254.404126 205.812688 
L 249.319488 204.601004 
z
" style="fill:#ec8165;fill-opacity:0.5;"/>
    <path clip-path="url(#p456e36d855)" d="M 218.106708 192.551135 
L 226.783392 197.5715 
L 231.964458 196.163167 
L 223.318222 191.166246 
L 218.106708 192.551135 
z
" style="fill:#dd5f4b;fill-opacity:0.5;"/>
    <path clip-path="url(#p456e36d855)" d="M 334.311439 228.828407 
L 343.281541 228.073379 
L 347.725144 237.072515 
L 338.806817 237.795684 
L 334.311439 228.828407 
z
" style="fill:#f7b99e;fill-opacity:0.5;"/>
    <path clip-path="url(#p456e36d855)" d="M 280.549147 214.530465 
L 289.338851 216.395107 
L 294.213792 220.194493 
L 285.464023 218.332231 
L 280.549147 214.530465 
z
" style="fill:#f4987a;fill-opacity:0.5;"/>
    <path clip-path="url(#p456e36d855)" d="M 186.855468 178.360192 
L 195.524955 184.97204 
L 200.794555 180.94774 
L 192.15135 174.363033 
L 186.855468 178.360192 
z
" style="fill:#c0282f;fill-opacity:0.5;"/>
    <path clip-path="url(#p456e36d855)" d="M 226.783392 197.5715 
L 235.479023 202.07133 
L 240.630238 200.641524 
L 231.964458 196.163167 
L 226.783392 197.5715 
z
" style="fill:#e26952;fill-opacity:0.5;"/>
    <path clip-path="url(#p456e36d855)" d="M 132.99329 327.715046 
L 141.61796 334.960129 
L 146.293601 307.24098 
L 137.638989 299.994122 
L 132.99329 327.715046 
z
" style="fill:#6f92f3;fill-opacity:0.5;"/>
    <path clip-path="url(#p456e36d855)" d="M 195.524955 184.97204 
L 204.201036 191.0603 
L 209.445056 187.010084 
L 200.794555 180.94774 
L 195.524955 184.97204 
z
" style="fill:#cb3e38;fill-opacity:0.5;"/>
    <path clip-path="url(#p456e36d855)" d="M 311.851176 222.352682 
L 320.747315 222.641904 
L 325.403311 229.051496 
L 316.552711 228.747201 
L 311.851176 222.352682 
z
" style="fill:#f7a889;fill-opacity:0.5;"/>
    <path clip-path="url(#p456e36d855)" d="M 258.036178 208.040834 
L 266.784332 210.959771 
L 271.799522 212.143812 
L 263.085864 209.237321 
L 258.036178 208.040834 
z
" style="fill:#ee8468;fill-opacity:0.5;"/>
    <path clip-path="url(#p456e36d855)" d="M 141.61796 334.960129 
L 150.238612 341.703925 
L 154.944925 313.980905 
L 146.293601 307.24098 
L 141.61796 334.960129 
z
" style="fill:#6384eb;fill-opacity:0.5;"/>
    <path clip-path="url(#p456e36d855)" d="M 365.765577 234.025872 
L 374.897028 231.690816 
L 379.036759 243.315744 
L 369.964093 245.592914 
L 365.765577 234.025872 
z
" style="fill:#f6bfa6;fill-opacity:0.5;"/>
    <path clip-path="url(#p456e36d855)" d="M 204.201036 191.0603 
L 212.887587 196.626051 
L 218.106708 192.551135 
L 209.445056 187.010084 
L 204.201036 191.0603 
z
" style="fill:#d44e41;fill-opacity:0.5;"/>
    <path clip-path="url(#p456e36d855)" d="M 289.338851 216.395107 
L 298.172816 217.735084 
L 303.008103 221.535678 
L 294.213792 220.194493 
L 289.338851 216.395107 
z
" style="fill:#f39778;fill-opacity:0.5;"/>
    <path clip-path="url(#p456e36d855)" d="M 235.479023 202.07133 
L 244.197554 206.050312 
L 249.319488 204.601004 
L 240.630238 200.641524 
L 235.479023 202.07133 
z
" style="fill:#e46e56;fill-opacity:0.5;"/>
    <path clip-path="url(#p456e36d855)" d="M 172.894771 177.909707 
L 181.582307 185.07197 
L 186.855468 178.360192 
L 178.188716 171.223218 
L 172.894771 177.909707 
z
" style="fill:#b8122a;fill-opacity:0.5;"/>
    <path clip-path="url(#p456e36d855)" d="M 150.238612 341.703925 
L 158.85906 347.948092 
L 163.596802 320.215544 
L 154.944925 313.980905 
L 150.238612 341.703925 
z
" style="fill:#5977e3;fill-opacity:0.5;"/>
    <path clip-path="url(#p456e36d855)" d="M 343.281541 228.073379 
L 352.318174 226.78133 
L 356.70986 235.817749 
L 347.725144 237.072515 
L 343.281541 228.073379 
z
" style="fill:#f7b093;fill-opacity:0.5;"/>
    <path clip-path="url(#p456e36d855)" d="M 181.582307 185.07197 
L 190.27184 191.708645 
L 195.524955 184.97204 
L 186.855468 178.360192 
L 181.582307 185.07197 
z
" style="fill:#c43032;fill-opacity:0.5;"/>
    <path clip-path="url(#p456e36d855)" d="M 266.784332 210.959771 
L 275.568029 213.3561 
L 280.549147 214.530465 
L 271.799522 212.143812 
L 266.784332 210.959771 
z
" style="fill:#ee8468;fill-opacity:0.5;"/>
    <path clip-path="url(#p456e36d855)" d="M 212.887587 196.626051 
L 221.588513 201.669911 
L 226.783392 197.5715 
L 218.106708 192.551135 
L 212.887587 196.626051 
z
" style="fill:#da5a49;fill-opacity:0.5;"/>
    <path clip-path="url(#p456e36d855)" d="M 137.638989 299.994122 
L 146.293601 307.24098 
L 151.081598 281.969019 
L 142.403214 274.723937 
L 137.638989 299.994122 
z
" style="fill:#abc8fd;fill-opacity:0.5;"/>
    <path clip-path="url(#p456e36d855)" d="M 158.85906 347.948092 
L 167.483132 353.693854 
L 172.253087 325.9461 
L 163.596802 320.215544 
L 158.85906 347.948092 
z
" style="fill:#516ddb;fill-opacity:0.5;"/>
    <path clip-path="url(#p456e36d855)" d="M 320.747315 222.641904 
L 329.700918 222.399232 
L 334.311439 228.828407 
L 325.403311 229.051496 
L 320.747315 222.641904 
z
" style="fill:#f6a283;fill-opacity:0.5;"/>
    <path clip-path="url(#p456e36d855)" d="M 244.197554 206.050312 
L 252.942985 209.507668 
L 258.036178 208.040834 
L 249.319488 204.601004 
L 244.197554 206.050312 
z
" style="fill:#e7745b;fill-opacity:0.5;"/>
    <path clip-path="url(#p456e36d855)" d="M 190.27184 191.708645 
L 198.967243 197.821284 
L 204.201036 191.0603 
L 195.524955 184.97204 
L 190.27184 191.708645 
z
" style="fill:#cf453c;fill-opacity:0.5;"/>
    <path clip-path="url(#p456e36d855)" d="M 146.293601 307.24098 
L 154.944925 313.980905 
L 159.757437 288.702225 
L 151.081598 281.969019 
L 146.293601 307.24098 
z
" style="fill:#a1c0ff;fill-opacity:0.5;"/>
    <path clip-path="url(#p456e36d855)" d="M 221.588513 201.669911 
L 230.30775 206.192036 
L 235.479023 202.07133 
L 226.783392 197.5715 
L 221.588513 201.669911 
z
" style="fill:#e0654f;fill-opacity:0.5;"/>
    <path clip-path="url(#p456e36d855)" d="M 298.172816 217.735084 
L 307.055303 218.547246 
L 311.851176 222.352682 
L 303.008103 221.535678 
L 298.172816 217.735084 
z
" style="fill:#f29274;fill-opacity:0.5;"/>
    <path clip-path="url(#p456e36d855)" d="M 167.641802 187.322298 
L 176.343808 194.506679 
L 181.582307 185.07197 
L 172.894771 177.909707 
L 167.641802 187.322298 
z
" style="fill:#c43032;fill-opacity:0.5;"/>
    <path clip-path="url(#p456e36d855)" d="M 167.483132 353.693854 
L 176.114676 358.941991 
L 180.917659 331.173332 
L 172.253087 325.9461 
L 167.483132 353.693854 
z
" style="fill:#4a63d3;fill-opacity:0.5;"/>
    <path clip-path="url(#p456e36d855)" d="M 198.967243 197.821284 
L 207.672411 203.41098 
L 212.887587 196.626051 
L 204.201036 191.0603 
L 198.967243 197.821284 
z
" style="fill:#d75445;fill-opacity:0.5;"/>
    <path clip-path="url(#p456e36d855)" d="M 275.568029 213.3561 
L 284.391414 215.227624 
L 289.338851 216.395107 
L 280.549147 214.530465 
L 275.568029 213.3561 
z
" style="fill:#ee8468;fill-opacity:0.5;"/>
    <path clip-path="url(#p456e36d855)" d="M 154.944925 313.980905 
L 163.596802 320.215544 
L 168.434592 294.925191 
L 159.757437 288.702225 
L 154.944925 313.980905 
z
" style="fill:#96b7ff;fill-opacity:0.5;"/>
    <path clip-path="url(#p456e36d855)" d="M 176.343808 194.506679 
L 185.04706 201.165799 
L 190.27184 191.708645 
L 181.582307 185.07197 
L 176.343808 194.506679 
z
" style="fill:#d0473d;fill-opacity:0.5;"/>
    <path clip-path="url(#p456e36d855)" d="M 142.403214 274.723937 
L 151.081598 281.969019 
L 155.972067 259.217783 
L 147.276185 251.977993 
L 142.403214 274.723937 
z
" style="fill:#dbdcde;fill-opacity:0.5;"/>
    <path clip-path="url(#p456e36d855)" d="M 252.942985 209.507668 
L 261.719364 212.442147 
L 266.784332 210.959771 
L 258.036178 208.040834 
L 252.942985 209.507668 
z
" style="fill:#e9785d;fill-opacity:0.5;"/>
    <path clip-path="url(#p456e36d855)" d="M 352.318174 226.78133 
L 361.426007 224.946635 
L 365.765577 234.025872 
L 356.70986 235.817749 
L 352.318174 226.78133 
z
" style="fill:#f7a688;fill-opacity:0.5;"/>
    <path clip-path="url(#p456e36d855)" d="M 230.30775 206.192036 
L 239.049274 210.192117 
L 244.197554 206.050312 
L 235.479023 202.07133 
L 230.30775 206.192036 
z
" style="fill:#e36b54;fill-opacity:0.5;"/>
    <path clip-path="url(#p456e36d855)" d="M 176.114676 358.941991 
L 184.757567 363.69285 
L 189.59442 335.897553 
L 180.917659 331.173332 
L 176.114676 358.941991 
z
" style="fill:#445acc;fill-opacity:0.5;"/>
    <path clip-path="url(#p456e36d855)" d="M 162.441775 199.457315 
L 171.151872 206.660572 
L 176.343808 194.506679 
L 167.641802 187.322298 
L 162.441775 199.457315 
z
" style="fill:#d55042;fill-opacity:0.5;"/>
    <path clip-path="url(#p456e36d855)" d="M 207.672411 203.41098 
L 216.391267 208.478361 
L 221.588513 201.669911 
L 212.887587 196.626051 
L 207.672411 203.41098 
z
" style="fill:#de614d;fill-opacity:0.5;"/>
    <path clip-path="url(#p456e36d855)" d="M 151.081598 281.969019 
L 159.757437 288.702225 
L 164.666154 265.941484 
L 155.972067 259.217783 
L 151.081598 281.969019 
z
" style="fill:#d2dbe8;fill-opacity:0.5;"/>
    <path clip-path="url(#p456e36d855)" d="M 163.596802 320.215544 
L 172.253087 325.9461 
L 177.116942 300.6391 
L 168.434592 294.925191 
L 163.596802 320.215544 
z
" style="fill:#8caffe;fill-opacity:0.5;"/>
    <path clip-path="url(#p456e36d855)" d="M 185.04706 201.165799 
L 193.755443 207.301224 
L 198.967243 197.821284 
L 190.27184 191.708645 
L 185.04706 201.165799 
z
" style="fill:#d95847;fill-opacity:0.5;"/>
    <path clip-path="url(#p456e36d855)" d="M 329.700918 222.399232 
L 338.716482 221.620037 
L 343.281541 228.073379 
L 334.311439 228.828407 
L 329.700918 222.399232 
z
" style="fill:#f4987a;fill-opacity:0.5;"/>
    <path clip-path="url(#p456e36d855)" d="M 147.276185 251.977993 
L 155.972067 259.217783 
L 160.954587 239.05014 
L 152.247559 231.819119 
L 147.276185 251.977993 
z
" style="fill:#f5c4ac;fill-opacity:0.5;"/>
    <path clip-path="url(#p456e36d855)" d="M 171.151872 206.660572 
L 179.862457 213.339686 
L 185.04706 201.165799 
L 176.343808 194.506679 
L 171.151872 206.660572 
z
" style="fill:#df634e;fill-opacity:0.5;"/>
    <path clip-path="url(#p456e36d855)" d="M 307.055303 218.547246 
L 315.990657 218.827942 
L 320.747315 222.641904 
L 311.851176 222.352682 
L 307.055303 218.547246 
z
" style="fill:#f18d6f;fill-opacity:0.5;"/>
    <path clip-path="url(#p456e36d855)" d="M 157.306503 214.298914 
L 166.018277 221.517738 
L 171.151872 206.660572 
L 162.441775 199.457315 
L 157.306503 214.298914 
z
" style="fill:#e8765c;fill-opacity:0.5;"/>
    <path clip-path="url(#p456e36d855)" d="M 159.757437 288.702225 
L 168.434592 294.925191 
L 173.362327 272.150718 
L 164.666154 265.941484 
L 159.757437 288.702225 
z
" style="fill:#c9d7f0;fill-opacity:0.5;"/>
    <path clip-path="url(#p456e36d855)" d="M 152.247559 231.819119 
L 160.954587 239.05014 
L 166.018277 221.517738 
L 157.306503 214.298914 
L 152.247559 231.819119 
z
" style="fill:#f59d7e;fill-opacity:0.5;"/>
    <path clip-path="url(#p456e36d855)" d="M 193.755443 207.301224 
L 202.472866 212.914058 
L 207.672411 203.41098 
L 198.967243 197.821284 
L 193.755443 207.301224 
z
" style="fill:#e0654f;fill-opacity:0.5;"/>
    <path clip-path="url(#p456e36d855)" d="M 284.391414 215.227624 
L 293.258704 216.571661 
L 298.172816 217.735084 
L 289.338851 216.395107 
L 284.391414 215.227624 
z
" style="fill:#ed8366;fill-opacity:0.5;"/>
    <path clip-path="url(#p456e36d855)" d="M 172.253087 325.9461 
L 180.917659 331.173332 
L 185.808389 305.844689 
L 177.116942 300.6391 
L 172.253087 325.9461 
z
" style="fill:#84a7fc;fill-opacity:0.5;"/>
    <path clip-path="url(#p456e36d855)" d="M 155.972067 259.217783 
L 164.666154 265.941484 
L 169.660579 245.761612 
L 160.954587 239.05014 
L 155.972067 259.217783 
z
" style="fill:#f1cdba;fill-opacity:0.5;"/>
    <path clip-path="url(#p456e36d855)" d="M 216.391267 208.478361 
L 225.127763 213.023592 
L 230.30775 206.192036 
L 221.588513 201.669911 
L 216.391267 208.478361 
z
" style="fill:#e36b54;fill-opacity:0.5;"/>
    <path clip-path="url(#p456e36d855)" d="M 261.719364 212.442147 
L 270.530799 214.852023 
L 275.568029 213.3561 
L 266.784332 210.959771 
L 261.719364 212.442147 
z
" style="fill:#e9785d;fill-opacity:0.5;"/>
    <path clip-path="url(#p456e36d855)" d="M 184.757567 363.69285 
L 193.41571 367.946332 
L 198.287308 340.118627 
L 189.59442 335.897553 
L 184.757567 363.69285 
z
" style="fill:#3f53c6;fill-opacity:0.5;"/>
    <path clip-path="url(#p456e36d855)" d="M 239.049274 210.192117 
L 247.817106 213.669377 
L 252.942985 209.507668 
L 244.197554 206.050312 
L 239.049274 210.192117 
z
" style="fill:#e57058;fill-opacity:0.5;"/>
    <path clip-path="url(#p456e36d855)" d="M 166.018277 221.517738 
L 174.729776 228.214326 
L 179.862457 213.339686 
L 171.151872 206.660572 
L 166.018277 221.517738 
z
" style="fill:#ee8669;fill-opacity:0.5;"/>
    <path clip-path="url(#p456e36d855)" d="M 179.862457 213.339686 
L 188.577422 219.496236 
L 193.755443 207.301224 
L 185.04706 201.165799 
L 179.862457 213.339686 
z
" style="fill:#e67259;fill-opacity:0.5;"/>
    <path clip-path="url(#p456e36d855)" d="M 160.954587 239.05014 
L 169.660579 245.761612 
L 174.729776 228.214326 
L 166.018277 221.517738 
L 160.954587 239.05014 
z
" style="fill:#f7aa8c;fill-opacity:0.5;"/>
    <path clip-path="url(#p456e36d855)" d="M 168.434592 294.925191 
L 177.116942 300.6391 
L 182.064481 277.846654 
L 173.362327 272.150718 
L 168.434592 294.925191 
z
" style="fill:#c0d4f5;fill-opacity:0.5;"/>
    <path clip-path="url(#p456e36d855)" d="M 164.666154 265.941484 
L 173.362327 272.150718 
L 178.369426 251.955145 
L 169.660579 245.761612 
L 164.666154 265.941484 
z
" style="fill:#ebd3c6;fill-opacity:0.5;"/>
    <path clip-path="url(#p456e36d855)" d="M 202.472866 212.914058 
L 211.203261 218.004944 
L 216.391267 208.478361 
L 207.672411 203.41098 
L 202.472866 212.914058 
z
" style="fill:#e57058;fill-opacity:0.5;"/>
    <path clip-path="url(#p456e36d855)" d="M 174.729776 228.214326 
L 183.444896 234.39027 
L 188.577422 219.496236 
L 179.862457 213.339686 
L 174.729776 228.214326 
z
" style="fill:#f29274;fill-opacity:0.5;"/>
    <path clip-path="url(#p456e36d855)" d="M 180.917659 331.173332 
L 189.59442 335.897553 
L 194.51286 310.542241 
L 185.808389 305.844689 
L 180.917659 331.173332 
z
" style="fill:#7da0f9;fill-opacity:0.5;"/>
    <path clip-path="url(#p456e36d855)" d="M 188.577422 219.496236 
L 197.300682 225.131341 
L 202.472866 212.914058 
L 193.755443 207.301224 
L 188.577422 219.496236 
z
" style="fill:#ec7f63;fill-opacity:0.5;"/>
    <path clip-path="url(#p456e36d855)" d="M 169.660579 245.761612 
L 178.369426 251.955145 
L 183.444896 234.39027 
L 174.729776 228.214326 
L 169.660579 245.761612 
z
" style="fill:#f7b599;fill-opacity:0.5;"/>
    <path clip-path="url(#p456e36d855)" d="M 225.127763 213.023592 
L 233.88589 217.046373 
L 239.049274 210.192117 
L 230.30775 206.192036 
L 225.127763 213.023592 
z
" style="fill:#e57058;fill-opacity:0.5;"/>
    <path clip-path="url(#p456e36d855)" d="M 361.426007 224.946635 
L 370.609834 222.56311 
L 374.897028 231.690816 
L 365.765577 234.025872 
L 361.426007 224.946635 
z
" style="fill:#f4987a;fill-opacity:0.5;"/>
    <path clip-path="url(#p456e36d855)" d="M 193.41571 367.946332 
L 202.09305 371.701894 
L 207.000301 343.835968 
L 198.287308 340.118627 
L 193.41571 367.946332 
z
" style="fill:#3d50c3;fill-opacity:0.5;"/>
    <path clip-path="url(#p456e36d855)" d="M 247.817106 213.669377 
L 256.615316 216.622562 
L 261.719364 212.442147 
L 252.942985 209.507668 
L 247.817106 213.669377 
z
" style="fill:#e7745b;fill-opacity:0.5;"/>
    <path clip-path="url(#p456e36d855)" d="M 177.116942 300.6391 
L 185.808389 305.844689 
L 190.776534 283.030004 
L 182.064481 277.846654 
L 177.116942 300.6391 
z
" style="fill:#b9d0f9;fill-opacity:0.5;"/>
    <path clip-path="url(#p456e36d855)" d="M 338.716482 221.620037 
L 347.798612 220.29915 
L 352.318174 226.78133 
L 343.281541 228.073379 
L 338.716482 221.620037 
z
" style="fill:#f18f71;fill-opacity:0.5;"/>
    <path clip-path="url(#p456e36d855)" d="M 173.362327 272.150718 
L 182.064481 277.846654 
L 187.085034 257.631889 
L 178.369426 251.955145 
L 173.362327 272.150718 
z
" style="fill:#e5d8d1;fill-opacity:0.5;"/>
    <path clip-path="url(#p456e36d855)" d="M 270.530799 214.852023 
L 279.381464 216.735082 
L 284.391414 215.227624 
L 275.568029 213.3561 
L 270.530799 214.852023 
z
" style="fill:#e9785d;fill-opacity:0.5;"/>
    <path clip-path="url(#p456e36d855)" d="M 315.990657 218.827942 
L 324.983318 218.573004 
L 329.700918 222.399232 
L 320.747315 222.641904 
L 315.990657 218.827942 
z
" style="fill:#ee8468;fill-opacity:0.5;"/>
    <path clip-path="url(#p456e36d855)" d="M 293.258704 216.571661 
L 302.174194 217.385025 
L 307.055303 218.547246 
L 298.172816 217.735084 
L 293.258704 216.571661 
z
" style="fill:#eb7d62;fill-opacity:0.5;"/>
    <path clip-path="url(#p456e36d855)" d="M 183.444896 234.39027 
L 192.16755 240.046707 
L 197.300682 225.131341 
L 188.577422 219.496236 
L 183.444896 234.39027 
z
" style="fill:#f59d7e;fill-opacity:0.5;"/>
    <path clip-path="url(#p456e36d855)" d="M 211.203261 218.004944 
L 219.950591 222.574061 
L 225.127763 213.023592 
L 216.391267 208.478361 
L 211.203261 218.004944 
z
" style="fill:#e97a5f;fill-opacity:0.5;"/>
    <path clip-path="url(#p456e36d855)" d="M 178.369426 251.955145 
L 187.085034 257.631889 
L 192.16755 240.046707 
L 183.444896 234.39027 
L 178.369426 251.955145 
z
" style="fill:#f6bea4;fill-opacity:0.5;"/>
    <path clip-path="url(#p456e36d855)" d="M 197.300682 225.131341 
L 206.036174 230.24566 
L 211.203261 218.004944 
L 202.472866 212.914058 
L 197.300682 225.131341 
z
" style="fill:#f08a6c;fill-opacity:0.5;"/>
    <path clip-path="url(#p456e36d855)" d="M 189.59442 335.897553 
L 198.287308 340.118627 
L 203.23432 314.731586 
L 194.51286 310.542241 
L 189.59442 335.897553 
z
" style="fill:#799cf8;fill-opacity:0.5;"/>
    <path clip-path="url(#p456e36d855)" d="M 182.064481 277.846654 
L 190.776534 283.030004 
L 195.811334 262.792538 
L 187.085034 257.631889 
L 182.064481 277.846654 
z
" style="fill:#dfdbd9;fill-opacity:0.5;"/>
    <path clip-path="url(#p456e36d855)" d="M 233.88589 217.046373 
L 242.669686 220.545931 
L 247.817106 213.669377 
L 239.049274 210.192117 
L 233.88589 217.046373 
z
" style="fill:#e8765c;fill-opacity:0.5;"/>
    <path clip-path="url(#p456e36d855)" d="M 185.808389 305.844689 
L 194.51286 310.542241 
L 199.502435 287.701026 
L 190.776534 283.030004 
L 185.808389 305.844689 
z
" style="fill:#b3cdfb;fill-opacity:0.5;"/>
    <path clip-path="url(#p456e36d855)" d="M 202.09305 371.701894 
L 210.793576 374.958544 
L 215.737419 347.04853 
L 207.000301 343.835968 
L 202.09305 371.701894 
z
" style="fill:#3b4cc0;fill-opacity:0.5;"/>
    <path clip-path="url(#p456e36d855)" d="M 192.16755 240.046707 
L 200.901675 245.184309 
L 206.036174 230.24566 
L 197.300682 225.131341 
L 192.16755 240.046707 
z
" style="fill:#f7a688;fill-opacity:0.5;"/>
    <path clip-path="url(#p456e36d855)" d="M 187.085034 257.631889 
L 195.811334 262.792538 
L 200.901675 245.184309 
L 192.16755 240.046707 
L 187.085034 257.631889 
z
" style="fill:#f4c5ad;fill-opacity:0.5;"/>
    <path clip-path="url(#p456e36d855)" d="M 256.615316 216.622562 
L 265.448034 219.049942 
L 270.530799 214.852023 
L 261.719364 212.442147 
L 256.615316 216.622562 
z
" style="fill:#e7745b;fill-opacity:0.5;"/>
    <path clip-path="url(#p456e36d855)" d="M 219.950591 222.574061 
L 228.718858 226.621117 
L 233.88589 217.046373 
L 225.127763 213.023592 
L 219.950591 222.574061 
z
" style="fill:#ec8165;fill-opacity:0.5;"/>
    <path clip-path="url(#p456e36d855)" d="M 206.036174 230.24566 
L 214.787866 234.839384 
L 219.950591 222.574061 
L 211.203261 218.004944 
L 206.036174 230.24566 
z
" style="fill:#f29072;fill-opacity:0.5;"/>
    <path clip-path="url(#p456e36d855)" d="M 279.381464 216.735082 
L 288.275601 218.088622 
L 293.258704 216.571661 
L 284.391414 215.227624 
L 279.381464 216.735082 
z
" style="fill:#e7745b;fill-opacity:0.5;"/>
    <path clip-path="url(#p456e36d855)" d="M 198.287308 340.118627 
L 207.000301 343.835968 
L 211.976769 318.412096 
L 203.23432 314.731586 
L 198.287308 340.118627 
z
" style="fill:#7597f6;fill-opacity:0.5;"/>
    <path clip-path="url(#p456e36d855)" d="M 190.776534 283.030004 
L 199.502435 287.701026 
L 204.552288 267.437323 
L 195.811334 262.792538 
L 190.776534 283.030004 
z
" style="fill:#dbdcde;fill-opacity:0.5;"/>
    <path clip-path="url(#p456e36d855)" d="M 302.174194 217.385025 
L 311.142263 217.664026 
L 315.990657 218.827942 
L 307.055303 218.547246 
L 302.174194 217.385025 
z
" style="fill:#e9785d;fill-opacity:0.5;"/>
    <path clip-path="url(#p456e36d855)" d="M 194.51286 310.542241 
L 203.23432 314.731586 
L 208.246165 291.859518 
L 199.502435 287.701026 
L 194.51286 310.542241 
z
" style="fill:#aec9fc;fill-opacity:0.5;"/>
    <path clip-path="url(#p456e36d855)" d="M 200.901675 245.184309 
L 209.651239 249.80329 
L 214.787866 234.839384 
L 206.036174 230.24566 
L 200.901675 245.184309 
z
" style="fill:#f7ad90;fill-opacity:0.5;"/>
    <path clip-path="url(#p456e36d855)" d="M 324.983318 218.573004 
L 334.037825 217.777736 
L 338.716482 221.620037 
L 329.700918 222.399232 
L 324.983318 218.573004 
z
" style="fill:#ea7b60;fill-opacity:0.5;"/>
    <path clip-path="url(#p456e36d855)" d="M 242.669686 220.545931 
L 251.483236 223.521018 
L 256.615316 216.622562 
L 247.817106 213.669377 
L 242.669686 220.545931 
z
" style="fill:#e97a5f;fill-opacity:0.5;"/>
    <path clip-path="url(#p456e36d855)" d="M 347.798612 220.29915 
L 356.95203 218.430852 
L 361.426007 224.946635 
L 352.318174 226.78133 
L 347.798612 220.29915 
z
" style="fill:#ec8165;fill-opacity:0.5;"/>
    <path clip-path="url(#p456e36d855)" d="M 195.811334 262.792538 
L 204.552288 267.437323 
L 209.651239 249.80329 
L 200.901675 245.184309 
L 195.811334 262.792538 
z
" style="fill:#f2c9b4;fill-opacity:0.5;"/>
    <path clip-path="url(#p456e36d855)" d="M 210.793576 374.958544 
L 219.521326 377.714835 
L 224.502736 349.754808 
L 215.737419 347.04853 
L 210.793576 374.958544 
z
" style="fill:#3b4cc0;fill-opacity:0.5;"/>
    <path clip-path="url(#p456e36d855)" d="M 214.787866 234.839384 
L 223.559766 238.912241 
L 228.718858 226.621117 
L 219.950591 222.574061 
L 214.787866 234.839384 
z
" style="fill:#f39778;fill-opacity:0.5;"/>
    <path clip-path="url(#p456e36d855)" d="M 228.718858 226.621117 
L 237.512109 230.145352 
L 242.669686 220.545931 
L 233.88589 217.046373 
L 228.718858 226.621117 
z
" style="fill:#ee8468;fill-opacity:0.5;"/>
    <path clip-path="url(#p456e36d855)" d="M 265.448034 219.049942 
L 274.319454 220.949296 
L 279.381464 216.735082 
L 270.530799 214.852023 
L 265.448034 219.049942 
z
" style="fill:#e7745b;fill-opacity:0.5;"/>
    <path clip-path="url(#p456e36d855)" d="M 199.502435 287.701026 
L 208.246165 291.859518 
L 213.311891 271.566017 
L 204.552288 267.437323 
L 199.502435 287.701026 
z
" style="fill:#d7dce3;fill-opacity:0.5;"/>
    <path clip-path="url(#p456e36d855)" d="M 207.000301 343.835968 
L 215.737419 347.04853 
L 220.744259 321.58268 
L 211.976769 318.412096 
L 207.000301 343.835968 
z
" style="fill:#7295f4;fill-opacity:0.5;"/>
    <path clip-path="url(#p456e36d855)" d="M 209.651239 249.80329 
L 218.420246 253.903394 
L 223.559766 238.912241 
L 214.787866 234.839384 
L 209.651239 249.80329 
z
" style="fill:#f7b396;fill-opacity:0.5;"/>
    <path clip-path="url(#p456e36d855)" d="M 203.23432 314.731586 
L 211.976769 318.412096 
L 217.011748 295.504816 
L 208.246165 291.859518 
L 203.23432 314.731586 
z
" style="fill:#aac7fd;fill-opacity:0.5;"/>
    <path clip-path="url(#p456e36d855)" d="M 204.552288 267.437323 
L 213.311891 271.566017 
L 218.420246 253.903394 
L 209.651239 249.80329 
L 204.552288 267.437323 
z
" style="fill:#f1cdba;fill-opacity:0.5;"/>
    <path clip-path="url(#p456e36d855)" d="M 288.275601 218.088622 
L 297.217534 218.909433 
L 302.174194 217.385025 
L 293.258704 216.571661 
L 288.275601 218.088622 
z
" style="fill:#e57058;fill-opacity:0.5;"/>
    <path clip-path="url(#p456e36d855)" d="M 251.483236 223.521018 
L 260.330685 225.969904 
L 265.448034 219.049942 
L 256.615316 216.622562 
L 251.483236 223.521018 
z
" style="fill:#e97a5f;fill-opacity:0.5;"/>
    <path clip-path="url(#p456e36d855)" d="M 223.559766 238.912241 
L 232.355921 242.463486 
L 237.512109 230.145352 
L 228.718858 226.621117 
L 223.559766 238.912241 
z
" style="fill:#f59c7d;fill-opacity:0.5;"/>
    <path clip-path="url(#p456e36d855)" d="M 237.512109 230.145352 
L 246.334439 233.14553 
L 251.483236 223.521018 
L 242.669686 220.545931 
L 237.512109 230.145352 
z
" style="fill:#ef886b;fill-opacity:0.5;"/>
    <path clip-path="url(#p456e36d855)" d="M 311.142263 217.664026 
L 320.167387 217.404449 
L 324.983318 218.573004 
L 315.990657 218.827942 
L 311.142263 217.664026 
z
" style="fill:#e46e56;fill-opacity:0.5;"/>
    <path clip-path="url(#p456e36d855)" d="M 219.521326 377.714835 
L 228.280397 379.968857 
L 233.300385 351.952827 
L 224.502736 349.754808 
L 219.521326 377.714835 
z
" style="fill:#3b4cc0;fill-opacity:0.5;"/>
    <path clip-path="url(#p456e36d855)" d="M 208.246165 291.859518 
L 217.011748 295.504816 
L 222.094181 275.177922 
L 213.311891 271.566017 
L 208.246165 291.859518 
z
" style="fill:#d4dbe6;fill-opacity:0.5;"/>
    <path clip-path="url(#p456e36d855)" d="M 334.037825 217.777736 
L 343.158827 216.436897 
L 347.798612 220.29915 
L 338.716482 221.620037 
L 334.037825 217.777736 
z
" style="fill:#e46e56;fill-opacity:0.5;"/>
    <path clip-path="url(#p456e36d855)" d="M 218.420246 253.903394 
L 227.212742 257.4839 
L 232.355921 242.463486 
L 223.559766 238.912241 
L 218.420246 253.903394 
z
" style="fill:#f7b599;fill-opacity:0.5;"/>
    <path clip-path="url(#p456e36d855)" d="M 274.319454 220.949296 
L 283.23384 222.317908 
L 288.275601 218.088622 
L 279.381464 216.735082 
L 274.319454 220.949296 
z
" style="fill:#e57058;fill-opacity:0.5;"/>
    <path clip-path="url(#p456e36d855)" d="M 215.737419 347.04853 
L 224.502736 349.754808 
L 229.540891 324.24178 
L 220.744259 321.58268 
L 215.737419 347.04853 
z
" style="fill:#7295f4;fill-opacity:0.5;"/>
    <path clip-path="url(#p456e36d855)" d="M 211.976769 318.412096 
L 220.744259 321.58268 
L 225.803256 298.635787 
L 217.011748 295.504816 
L 211.976769 318.412096 
z
" style="fill:#a9c6fd;fill-opacity:0.5;"/>
    <path clip-path="url(#p456e36d855)" d="M 213.311891 271.566017 
L 222.094181 275.177922 
L 227.212742 257.4839 
L 218.420246 253.903394 
L 213.311891 271.566017 
z
" style="fill:#efcfbf;fill-opacity:0.5;"/>
    <path clip-path="url(#p456e36d855)" d="M 356.95203 218.430852 
L 366.181584 216.008855 
L 370.609834 222.56311 
L 361.426007 224.946635 
L 356.95203 218.430852 
z
" style="fill:#e67259;fill-opacity:0.5;"/>
    <path clip-path="url(#p456e36d855)" d="M 232.355921 242.463486 
L 241.180431 245.491899 
L 246.334439 233.14553 
L 237.512109 230.145352 
L 232.355921 242.463486 
z
" style="fill:#f59d7e;fill-opacity:0.5;"/>
    <path clip-path="url(#p456e36d855)" d="M 260.330685 225.969904 
L 269.216242 227.890372 
L 274.319454 220.949296 
L 265.448034 219.049942 
L 260.330685 225.969904 
z
" style="fill:#e97a5f;fill-opacity:0.5;"/>
    <path clip-path="url(#p456e36d855)" d="M 297.217534 218.909433 
L 306.211671 219.193795 
L 311.142263 217.664026 
L 302.174194 217.385025 
L 297.217534 218.909433 
z
" style="fill:#e26952;fill-opacity:0.5;"/>
    <path clip-path="url(#p456e36d855)" d="M 246.334439 233.14553 
L 255.190001 235.61993 
L 260.330685 225.969904 
L 251.483236 223.521018 
L 246.334439 233.14553 
z
" style="fill:#f08a6c;fill-opacity:0.5;"/>
    <path clip-path="url(#p456e36d855)" d="M 217.011748 295.504816 
L 225.803256 298.635787 
L 230.903245 278.271871 
L 222.094181 275.177922 
L 217.011748 295.504816 
z
" style="fill:#d3dbe7;fill-opacity:0.5;"/>
    <path clip-path="url(#p456e36d855)" d="M 228.280397 379.968857 
L 237.074949 381.718231 
L 242.134562 353.640135 
L 233.300385 351.952827 
L 228.280397 379.968857 
z
" style="fill:#3c4ec2;fill-opacity:0.5;"/>
    <path clip-path="url(#p456e36d855)" d="M 227.212742 257.4839 
L 236.032824 260.54361 
L 241.180431 245.491899 
L 232.355921 242.463486 
L 227.212742 257.4839 
z
" style="fill:#f7b89c;fill-opacity:0.5;"/>
    <path clip-path="url(#p456e36d855)" d="M 222.094181 275.177922 
L 230.903245 278.271871 
L 236.032824 260.54361 
L 227.212742 257.4839 
L 222.094181 275.177922 
z
" style="fill:#edd1c2;fill-opacity:0.5;"/>
    <path clip-path="url(#p456e36d855)" d="M 220.744259 321.58268 
L 229.540891 324.24178 
L 234.624813 301.250827 
L 225.803256 298.635787 
L 220.744259 321.58268 
z
" style="fill:#a7c5fe;fill-opacity:0.5;"/>
    <path clip-path="url(#p456e36d855)" d="M 320.167387 217.404449 
L 329.254141 216.601547 
L 334.037825 217.777736 
L 324.983318 218.573004 
L 320.167387 217.404449 
z
" style="fill:#e0654f;fill-opacity:0.5;"/>
    <path clip-path="url(#p456e36d855)" d="M 224.502736 349.754808 
L 233.300385 351.952827 
L 238.370828 326.387361 
L 229.540891 324.24178 
L 224.502736 349.754808 
z
" style="fill:#7295f4;fill-opacity:0.5;"/>
    <path clip-path="url(#p456e36d855)" d="M 283.23384 222.317908 
L 292.195537 223.152559 
L 297.217534 218.909433 
L 288.275601 218.088622 
L 283.23384 222.317908 
z
" style="fill:#e36c55;fill-opacity:0.5;"/>
    <path clip-path="url(#p456e36d855)" d="M 241.180431 245.491899 
L 250.037453 247.995778 
L 255.190001 235.61993 
L 246.334439 233.14553 
L 241.180431 245.491899 
z
" style="fill:#f59f80;fill-opacity:0.5;"/>
    <path clip-path="url(#p456e36d855)" d="M 343.158827 216.436897 
L 352.351091 214.54469 
L 356.95203 218.430852 
L 347.798612 220.29915 
L 343.158827 216.436897 
z
" style="fill:#de614d;fill-opacity:0.5;"/>
    <path clip-path="url(#p456e36d855)" d="M 269.216242 227.890372 
L 278.144186 229.279703 
L 283.23384 222.317908 
L 274.319454 220.949296 
L 269.216242 227.890372 
z
" style="fill:#e8765c;fill-opacity:0.5;"/>
    <path clip-path="url(#p456e36d855)" d="M 255.190001 235.61993 
L 264.083013 237.566343 
L 269.216242 227.890372 
L 260.330685 225.969904 
L 255.190001 235.61993 
z
" style="fill:#ef886b;fill-opacity:0.5;"/>
    <path clip-path="url(#p456e36d855)" d="M 225.803256 298.635787 
L 234.624813 301.250827 
L 239.743226 280.84622 
L 230.903245 278.271871 
L 225.803256 298.635787 
z
" style="fill:#d2dbe8;fill-opacity:0.5;"/>
    <path clip-path="url(#p456e36d855)" d="M 236.032824 260.54361 
L 244.884643 263.080848 
L 250.037453 247.995778 
L 241.180431 245.491899 
L 236.032824 260.54361 
z
" style="fill:#f7b89c;fill-opacity:0.5;"/>
    <path clip-path="url(#p456e36d855)" d="M 306.211671 219.193795 
L 315.262515 218.937462 
L 320.167387 217.404449 
L 311.142263 217.664026 
L 306.211671 219.193795 
z
" style="fill:#de614d;fill-opacity:0.5;"/>
    <path clip-path="url(#p456e36d855)" d="M 230.903245 278.271871 
L 239.743226 280.84622 
L 244.884643 263.080848 
L 236.032824 260.54361 
L 230.903245 278.271871 
z
" style="fill:#edd1c2;fill-opacity:0.5;"/>
    <path clip-path="url(#p456e36d855)" d="M 237.074949 381.718231 
L 245.909213 382.9601 
L 251.009539 354.813792 
L 242.134562 353.640135 
L 237.074949 381.718231 
z
" style="fill:#3f53c6;fill-opacity:0.5;"/>
    <path clip-path="url(#p456e36d855)" d="M 229.540891 324.24178 
L 238.370828 326.387361 
L 243.480605 303.34785 
L 234.624813 301.250827 
L 229.540891 324.24178 
z
" style="fill:#a7c5fe;fill-opacity:0.5;"/>
    <path clip-path="url(#p456e36d855)" d="M 233.300385 351.952827 
L 242.134562 353.640135 
L 247.238298 328.016907 
L 238.370828 326.387361 
L 233.300385 351.952827 
z
" style="fill:#7597f6;fill-opacity:0.5;"/>
    <path clip-path="url(#p456e36d855)" d="M 250.037453 247.995778 
L 258.931204 249.972931 
L 264.083013 237.566343 
L 255.190001 235.61993 
L 250.037453 247.995778 
z
" style="fill:#f59d7e;fill-opacity:0.5;"/>
    <path clip-path="url(#p456e36d855)" d="M 292.195537 223.152559 
L 301.208974 223.449508 
L 306.211671 219.193795 
L 297.217534 218.909433 
L 292.195537 223.152559 
z
" style="fill:#e0654f;fill-opacity:0.5;"/>
    <path clip-path="url(#p456e36d855)" d="M 329.254141 216.601547 
L 338.407211 215.250022 
L 343.158827 216.436897 
L 334.037825 217.777736 
L 329.254141 216.601547 
z
" style="fill:#d85646;fill-opacity:0.5;"/>
    <path clip-path="url(#p456e36d855)" d="M 234.624813 301.250827 
L 243.480605 303.34785 
L 248.618325 282.898839 
L 239.743226 280.84622 
L 234.624813 301.250827 
z
" style="fill:#d2dbe8;fill-opacity:0.5;"/>
    <path clip-path="url(#p456e36d855)" d="M 264.083013 237.566343 
L 273.017763 238.982061 
L 278.144186 229.279703 
L 269.216242 227.890372 
L 264.083013 237.566343 
z
" style="fill:#ee8669;fill-opacity:0.5;"/>
    <path clip-path="url(#p456e36d855)" d="M 278.144186 229.279703 
L 287.118876 230.134675 
L 292.195537 223.152559 
L 283.23384 222.317908 
L 278.144186 229.279703 
z
" style="fill:#e67259;fill-opacity:0.5;"/>
    <path clip-path="url(#p456e36d855)" d="M 244.884643 263.080848 
L 253.772415 265.093449 
L 258.931204 249.972931 
L 250.037453 247.995778 
L 244.884643 263.080848 
z
" style="fill:#f7b89c;fill-opacity:0.5;"/>
    <path clip-path="url(#p456e36d855)" d="M 239.743226 280.84622 
L 248.618325 282.898839 
L 253.772415 265.093449 
L 244.884643 263.080848 
L 239.743226 280.84622 
z
" style="fill:#edd1c2;fill-opacity:0.5;"/>
    <path clip-path="url(#p456e36d855)" d="M 352.351091 214.54469 
L 361.619511 212.094737 
L 366.181584 216.008855 
L 356.95203 218.430852 
L 352.351091 214.54469 
z
" style="fill:#d44e41;fill-opacity:0.5;"/>
    <path clip-path="url(#p456e36d855)" d="M 238.370828 326.387361 
L 247.238298 328.016907 
L 252.374886 304.924282 
L 243.480605 303.34785 
L 238.370828 326.387361 
z
" style="fill:#aac7fd;fill-opacity:0.5;"/>
    <path clip-path="url(#p456e36d855)" d="M 245.909213 382.9601 
L 254.787499 383.691119 
L 259.929665 355.470365 
L 251.009539 354.813792 
L 245.909213 382.9601 
z
" style="fill:#4358cb;fill-opacity:0.5;"/>
    <path clip-path="url(#p456e36d855)" d="M 315.262515 218.937462 
L 324.374671 218.135647 
L 329.254141 216.601547 
L 320.167387 217.404449 
L 315.262515 218.937462 
z
" style="fill:#d75445;fill-opacity:0.5;"/>
    <path clip-path="url(#p456e36d855)" d="M 242.134562 353.640135 
L 251.009539 354.813792 
L 256.147604 329.127405 
L 247.238298 328.016907 
L 242.134562 353.640135 
z
" style="fill:#779af7;fill-opacity:0.5;"/>
    <path clip-path="url(#p456e36d855)" d="M 258.931204 249.972931 
L 267.865975 251.42067 
L 273.017763 238.982061 
L 264.083013 237.566343 
L 258.931204 249.972931 
z
" style="fill:#f59c7d;fill-opacity:0.5;"/>
    <path clip-path="url(#p456e36d855)" d="M 301.208974 223.449508 
L 310.278677 223.204491 
L 315.262515 218.937462 
L 306.211671 219.193795 
L 301.208974 223.449508 
z
" style="fill:#dc5d4a;fill-opacity:0.5;"/>
    <path clip-path="url(#p456e36d855)" d="M 243.480605 303.34785 
L 252.374886 304.924282 
L 257.532816 284.427107 
L 248.618325 282.898839 
L 243.480605 303.34785 
z
" style="fill:#d4dbe6;fill-opacity:0.5;"/>
    <path clip-path="url(#p456e36d855)" d="M 273.017763 238.982061 
L 281.998617 239.863869 
L 287.118876 230.134675 
L 278.144186 229.279703 
L 273.017763 238.982061 
z
" style="fill:#ec8165;fill-opacity:0.5;"/>
    <path clip-path="url(#p456e36d855)" d="M 253.772415 265.093449 
L 262.700423 266.578753 
L 267.865975 251.42067 
L 258.931204 249.972931 
L 253.772415 265.093449 
z
" style="fill:#f7b79b;fill-opacity:0.5;"/>
    <path clip-path="url(#p456e36d855)" d="M 287.118876 230.134675 
L 296.144757 230.451545 
L 301.208974 223.449508 
L 292.195537 223.152559 
L 287.118876 230.134675 
z
" style="fill:#e36b54;fill-opacity:0.5;"/>
    <path clip-path="url(#p456e36d855)" d="M 338.407211 215.250022 
L 347.631401 213.344011 
L 352.351091 214.54469 
L 343.158827 216.436897 
L 338.407211 215.250022 
z
" style="fill:#cf453c;fill-opacity:0.5;"/>
    <path clip-path="url(#p456e36d855)" d="M 248.618325 282.898839 
L 257.532816 284.427107 
L 262.700423 266.578753 
L 253.772415 265.093449 
L 248.618325 282.898839 
z
" style="fill:#efcfbf;fill-opacity:0.5;"/>
    <path clip-path="url(#p456e36d855)" d="M 247.238298 328.016907 
L 256.147604 329.127405 
L 261.311985 305.977051 
L 252.374886 304.924282 
L 247.238298 328.016907 
z
" style="fill:#adc9fd;fill-opacity:0.5;"/>
    <path clip-path="url(#p456e36d855)" d="M 254.787499 383.691119 
L 263.714202 383.907442 
L 268.899377 355.605911 
L 259.929665 355.470365 
L 254.787499 383.691119 
z
" style="fill:#4961d2;fill-opacity:0.5;"/>
    <path clip-path="url(#p456e36d855)" d="M 251.009539 354.813792 
L 259.929665 355.470365 
L 265.10313 329.715344 
L 256.147604 329.127405 
L 251.009539 354.813792 
z
" style="fill:#7da0f9;fill-opacity:0.5;"/>
    <path clip-path="url(#p456e36d855)" d="M 267.865975 251.42067 
L 276.846133 252.335798 
L 281.998617 239.863869 
L 273.017763 238.982061 
L 267.865975 251.42067 
z
" style="fill:#f4987a;fill-opacity:0.5;"/>
    <path clip-path="url(#p456e36d855)" d="M 324.374671 218.135647 
L 333.552854 216.783011 
L 338.407211 215.250022 
L 329.254141 216.601547 
L 324.374671 218.135647 
z
" style="fill:#d0473d;fill-opacity:0.5;"/>
    <path clip-path="url(#p456e36d855)" d="M 252.374886 304.924282 
L 261.311985 305.977051 
L 266.491047 285.427899 
L 257.532816 284.427107 
L 252.374886 304.924282 
z
" style="fill:#d6dce4;fill-opacity:0.5;"/>
    <path clip-path="url(#p456e36d855)" d="M 281.998617 239.863869 
L 291.030027 240.208031 
L 296.144757 230.451545 
L 287.118876 230.134675 
L 281.998617 239.863869 
z
" style="fill:#ea7b60;fill-opacity:0.5;"/>
    <path clip-path="url(#p456e36d855)" d="M 262.700423 266.578753 
L 271.673029 267.533594 
L 276.846133 252.335798 
L 267.865975 251.42067 
L 262.700423 266.578753 
z
" style="fill:#f7b396;fill-opacity:0.5;"/>
    <path clip-path="url(#p456e36d855)" d="M 310.278677 223.204491 
L 319.409271 222.412698 
L 324.374671 218.135647 
L 315.262515 218.937462 
L 310.278677 223.204491 
z
" style="fill:#d55042;fill-opacity:0.5;"/>
    <path clip-path="url(#p456e36d855)" d="M 257.532816 284.427107 
L 266.491047 285.427899 
L 271.673029 267.533594 
L 262.700423 266.578753 
L 257.532816 284.427107 
z
" style="fill:#f0cdbb;fill-opacity:0.5;"/>
    <path clip-path="url(#p456e36d855)" d="M 296.144757 230.451545 
L 305.226368 230.226039 
L 310.278677 223.204491 
L 301.208974 223.449508 
L 296.144757 230.451545 
z
" style="fill:#df634e;fill-opacity:0.5;"/>
    <path clip-path="url(#p456e36d855)" d="M 256.147604 329.127405 
L 265.10313 329.715344 
L 270.296314 306.502574 
L 261.311985 305.977051 
L 256.147604 329.127405 
z
" style="fill:#b2ccfb;fill-opacity:0.5;"/>
    <path clip-path="url(#p456e36d855)" d="M 347.631401 213.344011 
L 356.931644 210.877067 
L 361.619511 212.094737 
L 352.351091 214.54469 
L 347.631401 213.344011 
z
" style="fill:#c43032;fill-opacity:0.5;"/>
    <path clip-path="url(#p456e36d855)" d="M 259.929665 355.470365 
L 268.899377 355.605911 
L 274.109349 329.776695 
L 265.10313 329.715344 
L 259.929665 355.470365 
z
" style="fill:#82a6fb;fill-opacity:0.5;"/>
    <path clip-path="url(#p456e36d855)" d="M 276.846133 252.335798 
L 285.876131 252.7146 
L 291.030027 240.208031 
L 281.998617 239.863869 
L 276.846133 252.335798 
z
" style="fill:#f29274;fill-opacity:0.5;"/>
    <path clip-path="url(#p456e36d855)" d="M 263.714202 383.907442 
L 272.69381 383.604712 
L 277.923207 355.215966 
L 268.899377 355.605911 
L 263.714202 383.907442 
z
" style="fill:#4f69d9;fill-opacity:0.5;"/>
    <path clip-path="url(#p456e36d855)" d="M 261.311985 305.977051 
L 270.296314 306.502574 
L 275.49745 285.897577 
L 266.491047 285.427899 
L 261.311985 305.977051 
z
" style="fill:#dadce0;fill-opacity:0.5;"/>
    <path clip-path="url(#p456e36d855)" d="M 333.552854 216.783011 
L 342.801899 214.873643 
L 347.631401 213.344011 
L 338.407211 215.250022 
L 333.552854 216.783011 
z
" style="fill:#c53334;fill-opacity:0.5;"/>
    <path clip-path="url(#p456e36d855)" d="M 271.673029 267.533594 
L 280.694678 267.954289 
L 285.876131 252.7146 
L 276.846133 252.335798 
L 271.673029 267.533594 
z
" style="fill:#f7af91;fill-opacity:0.5;"/>
    <path clip-path="url(#p456e36d855)" d="M 291.030027 240.208031 
L 300.116539 240.010282 
L 305.226368 230.226039 
L 296.144757 230.451545 
L 291.030027 240.208031 
z
" style="fill:#e67259;fill-opacity:0.5;"/>
    <path clip-path="url(#p456e36d855)" d="M 266.491047 285.427899 
L 275.49745 285.897577 
L 280.694678 267.954289 
L 271.673029 267.533594 
L 266.491047 285.427899 
z
" style="fill:#f2cab5;fill-opacity:0.5;"/>
    <path clip-path="url(#p456e36d855)" d="M 319.409271 222.412698 
L 328.605494 221.068761 
L 333.552854 216.783011 
L 324.374671 218.135647 
L 319.409271 222.412698 
z
" style="fill:#cd423b;fill-opacity:0.5;"/>
    <path clip-path="url(#p456e36d855)" d="M 305.226368 230.226039 
L 314.368349 229.453339 
L 319.409271 222.412698 
L 310.278677 223.204491 
L 305.226368 230.226039 
z
" style="fill:#d85646;fill-opacity:0.5;"/>
    <path clip-path="url(#p456e36d855)" d="M 265.10313 329.715344 
L 274.109349 329.776695 
L 279.332373 306.49675 
L 270.296314 306.502574 
L 265.10313 329.715344 
z
" style="fill:#b7cff9;fill-opacity:0.5;"/>
    <path clip-path="url(#p456e36d855)" d="M 285.876131 252.7146 
L 294.960513 252.552832 
L 300.116539 240.010282 
L 291.030027 240.208031 
L 285.876131 252.7146 
z
" style="fill:#f08b6e;fill-opacity:0.5;"/>
    <path clip-path="url(#p456e36d855)" d="M 268.899377 355.605911 
L 277.923207 355.215966 
L 283.170831 329.3069 
L 274.109349 329.776695 
L 268.899377 355.605911 
z
" style="fill:#8badfd;fill-opacity:0.5;"/>
    <path clip-path="url(#p456e36d855)" d="M 272.69381 383.604712 
L 281.730914 382.778043 
L 287.005793 354.295532 
L 277.923207 355.215966 
L 272.69381 383.604712 
z
" style="fill:#5875e1;fill-opacity:0.5;"/>
    <path clip-path="url(#p456e36d855)" d="M 270.296314 306.502574 
L 279.332373 306.49675 
L 284.556548 285.831977 
L 275.49745 285.897577 
L 270.296314 306.502574 
z
" style="fill:#dedcdb;fill-opacity:0.5;"/>
    <path clip-path="url(#p456e36d855)" d="M 280.694678 267.954289 
L 289.769908 267.836627 
L 294.960513 252.552832 
L 285.876131 252.7146 
L 280.694678 267.954289 
z
" style="fill:#f7a889;fill-opacity:0.5;"/>
    <path clip-path="url(#p456e36d855)" d="M 275.49745 285.897577 
L 284.556548 285.831977 
L 289.769908 267.836627 
L 280.694678 267.954289 
L 275.49745 285.897577 
z
" style="fill:#f4c6af;fill-opacity:0.5;"/>
    <path clip-path="url(#p456e36d855)" d="M 300.116539 240.010282 
L 309.2628 239.265809 
L 314.368349 229.453339 
L 305.226368 230.226039 
L 300.116539 240.010282 
z
" style="fill:#e26952;fill-opacity:0.5;"/>
    <path clip-path="url(#p456e36d855)" d="M 342.801899 214.873643 
L 352.12677 212.401041 
L 356.931644 210.877067 
L 347.631401 213.344011 
L 342.801899 214.873643 
z
" style="fill:#b8122a;fill-opacity:0.5;"/>
    <path clip-path="url(#p456e36d855)" d="M 314.368349 229.453339 
L 323.575452 228.128067 
L 328.605494 221.068761 
L 319.409271 222.412698 
L 314.368349 229.453339 
z
" style="fill:#d1493f;fill-opacity:0.5;"/>
    <path clip-path="url(#p456e36d855)" d="M 328.605494 221.068761 
L 337.872203 219.166739 
L 342.801899 214.873643 
L 333.552854 216.783011 
L 328.605494 221.068761 
z
" style="fill:#c32e31;fill-opacity:0.5;"/>
    <path clip-path="url(#p456e36d855)" d="M 274.109349 329.776695 
L 283.170831 329.3069 
L 288.424764 305.954942 
L 279.332373 306.49675 
L 274.109349 329.776695 
z
" style="fill:#bfd3f6;fill-opacity:0.5;"/>
    <path clip-path="url(#p456e36d855)" d="M 294.960513 252.552832 
L 304.103927 251.845701 
L 309.2628 239.265809 
L 300.116539 240.010282 
L 294.960513 252.552832 
z
" style="fill:#ec8165;fill-opacity:0.5;"/>
    <path clip-path="url(#p456e36d855)" d="M 277.923207 355.215966 
L 287.005793 354.295532 
L 292.29225 328.30086 
L 283.170831 329.3069 
L 277.923207 355.215966 
z
" style="fill:#93b5fe;fill-opacity:0.5;"/>
    <path clip-path="url(#p456e36d855)" d="M 279.332373 306.49675 
L 288.424764 305.954942 
L 293.672965 285.226399 
L 284.556548 285.831977 
L 279.332373 306.49675 
z
" style="fill:#e4d9d2;fill-opacity:0.5;"/>
    <path clip-path="url(#p456e36d855)" d="M 281.730914 382.778043 
L 290.830214 381.422009 
L 296.151882 352.839057 
L 287.005793 354.295532 
L 281.730914 382.778043 
z
" style="fill:#6282ea;fill-opacity:0.5;"/>
    <path clip-path="url(#p456e36d855)" d="M 289.769908 267.836627 
L 298.903359 267.175854 
L 304.103927 251.845701 
L 294.960513 252.552832 
L 289.769908 267.836627 
z
" style="fill:#f5a081;fill-opacity:0.5;"/>
    <path clip-path="url(#p456e36d855)" d="M 284.556548 285.831977 
L 293.672965 285.226399 
L 298.903359 267.175854 
L 289.769908 267.836627 
L 284.556548 285.831977 
z
" style="fill:#f6bfa6;fill-opacity:0.5;"/>
    <path clip-path="url(#p456e36d855)" d="M 309.2628 239.265809 
L 318.47357 237.969241 
L 323.575452 228.128067 
L 314.368349 229.453339 
L 309.2628 239.265809 
z
" style="fill:#da5a49;fill-opacity:0.5;"/>
    <path clip-path="url(#p456e36d855)" d="M 323.575452 228.128067 
L 332.852549 226.244269 
L 337.872203 219.166739 
L 328.605494 221.068761 
L 323.575452 228.128067 
z
" style="fill:#c73635;fill-opacity:0.5;"/>
    <path clip-path="url(#p456e36d855)" d="M 283.170831 329.3069 
L 292.29225 328.30086 
L 297.578192 304.871964 
L 288.424764 305.954942 
L 283.170831 329.3069 
z
" style="fill:#c7d7f0;fill-opacity:0.5;"/>
    <path clip-path="url(#p456e36d855)" d="M 337.872203 219.166739 
L 347.214384 216.700096 
L 352.12677 212.401041 
L 342.801899 214.873643 
L 337.872203 219.166739 
z
" style="fill:#b50927;fill-opacity:0.5;"/>
    <path clip-path="url(#p456e36d855)" d="M 304.103927 251.845701 
L 313.311131 250.587858 
L 318.47357 237.969241 
L 309.2628 239.265809 
L 304.103927 251.845701 
z
" style="fill:#e7745b;fill-opacity:0.5;"/>
    <path clip-path="url(#p456e36d855)" d="M 287.005793 354.295532 
L 296.151882 352.839057 
L 301.478397 326.752917 
L 292.29225 328.30086 
L 287.005793 354.295532 
z
" style="fill:#9ebeff;fill-opacity:0.5;"/>
    <path clip-path="url(#p456e36d855)" d="M 288.424764 305.954942 
L 297.578192 304.871964 
L 302.851432 284.075583 
L 293.672965 285.226399 
L 288.424764 305.954942 
z
" style="fill:#ead4c8;fill-opacity:0.5;"/>
    <path clip-path="url(#p456e36d855)" d="M 298.903359 267.175854 
L 308.099779 265.966659 
L 313.311131 250.587858 
L 304.103927 251.845701 
L 298.903359 267.175854 
z
" style="fill:#f39577;fill-opacity:0.5;"/>
    <path clip-path="url(#p456e36d855)" d="M 290.830214 381.422009 
L 299.99653 379.530625 
L 305.366346 350.840423 
L 296.151882 352.839057 
L 290.830214 381.422009 
z
" style="fill:#6c8ff1;fill-opacity:0.5;"/>
    <path clip-path="url(#p456e36d855)" d="M 293.672965 285.226399 
L 302.851432 284.075583 
L 308.099779 265.966659 
L 298.903359 267.175854 
L 293.672965 285.226399 
z
" style="fill:#f7b89c;fill-opacity:0.5;"/>
    <path clip-path="url(#p456e36d855)" d="M 318.47357 237.969241 
L 327.753725 236.114626 
L 332.852549 226.244269 
L 323.575452 228.128067 
L 318.47357 237.969241 
z
" style="fill:#d1493f;fill-opacity:0.5;"/>
    <path clip-path="url(#p456e36d855)" d="M 332.852549 226.244269 
L 342.20464 223.795393 
L 347.214384 216.700096 
L 337.872203 219.166739 
L 332.852549 226.244269 
z
" style="fill:#ba162b;fill-opacity:0.5;"/>
    <path clip-path="url(#p456e36d855)" d="M 292.29225 328.30086 
L 301.478397 326.752917 
L 306.797482 303.242065 
L 297.578192 304.871964 
L 292.29225 328.30086 
z
" style="fill:#cfdaea;fill-opacity:0.5;"/>
    <path clip-path="url(#p456e36d855)" d="M 313.311131 250.587858 
L 322.587 248.773377 
L 327.753725 236.114626 
L 318.47357 237.969241 
L 313.311131 250.587858 
z
" style="fill:#e16751;fill-opacity:0.5;"/>
    <path clip-path="url(#p456e36d855)" d="M 296.151882 352.839057 
L 305.366346 350.840423 
L 310.734185 324.656834 
L 301.478397 326.752917 
L 296.151882 352.839057 
z
" style="fill:#aac7fd;fill-opacity:0.5;"/>
    <path clip-path="url(#p456e36d855)" d="M 297.578192 304.871964 
L 306.797482 303.242065 
L 312.096799 282.373704 
L 302.851432 284.075583 
L 297.578192 304.871964 
z
" style="fill:#efcebd;fill-opacity:0.5;"/>
    <path clip-path="url(#p456e36d855)" d="M 308.099779 265.966659 
L 317.364034 264.203155 
L 322.587 248.773377 
L 313.311131 250.587858 
L 308.099779 265.966659 
z
" style="fill:#ef886b;fill-opacity:0.5;"/>
    <path clip-path="url(#p456e36d855)" d="M 302.851432 284.075583 
L 312.096799 282.373704 
L 317.364034 264.203155 
L 308.099779 265.966659 
L 302.851432 284.075583 
z
" style="fill:#f7ad90;fill-opacity:0.5;"/>
    <path clip-path="url(#p456e36d855)" d="M 327.753725 236.114626 
L 337.108274 233.695418 
L 342.20464 223.795393 
L 332.852549 226.244269 
L 327.753725 236.114626 
z
" style="fill:#c73635;fill-opacity:0.5;"/>
    <path clip-path="url(#p456e36d855)" d="M 301.478397 326.752917 
L 310.734185 324.656834 
L 316.087582 301.058908 
L 306.797482 303.242065 
L 301.478397 326.752917 
z
" style="fill:#d9dce1;fill-opacity:0.5;"/>
    <path clip-path="url(#p456e36d855)" d="M 322.587 248.773377 
L 331.936539 246.395733 
L 337.108274 233.695418 
L 327.753725 236.114626 
L 322.587 248.773377 
z
" style="fill:#d75445;fill-opacity:0.5;"/>
    <path clip-path="url(#p456e36d855)" d="M 306.797482 303.242065 
L 316.087582 301.058908 
L 321.414039 280.114343 
L 312.096799 282.373704 
L 306.797482 303.242065 
z
" style="fill:#f4c6af;fill-opacity:0.5;"/>
    <path clip-path="url(#p456e36d855)" d="M 317.364034 264.203155 
L 326.701119 261.878863 
L 331.936539 246.395733 
L 322.587 248.773377 
L 317.364034 264.203155 
z
" style="fill:#e97a5f;fill-opacity:0.5;"/>
    <path clip-path="url(#p456e36d855)" d="M 312.096799 282.373704 
L 321.414039 280.114343 
L 326.701119 261.878863 
L 317.364034 264.203155 
L 312.096799 282.373704 
z
" style="fill:#f5a081;fill-opacity:0.5;"/>
   </g>
   <g id="line2d_23">
    <path clip-path="url(#p456e36d855)" d="M 181.393844 192.942439 
L 349.09152 238.906754 
" style="fill:none;stroke:#000000;stroke-linecap:square;stroke-width:1.5;"/>
   </g>
   <g id="line2d_24">
    <path clip-path="url(#p456e36d855)" d="M 213.464423 256.675682 
L 310.361102 177.000348 
" style="fill:none;stroke:#000000;stroke-linecap:square;stroke-width:1.5;"/>
   </g>
   <g id="line2d_25">
    <path clip-path="url(#p456e36d855)" d="M 263.578378 215.468427 
L 265.675046 200.013704 
L 267.638969 187.137463 
L 269.466454 176.541384 
L 271.154851 167.938018 
L 272.843032 160.476428 
L 274.388971 154.64718 
L 275.792002 150.191179 
L 277.052012 146.869878 
L 278.169295 144.466765 
L 279.283524 142.580964 
L 280.255605 141.355248 
L 281.086439 140.619665 
L 281.914873 140.174542 
L 282.603264 140.025157 
L 283.289747 140.076823 
L 283.974212 140.329135 
L 284.792754 140.896097 
L 285.608051 141.750378 
L 286.554885 143.10875 
L 287.496768 144.854826 
L 288.566782 147.322307 
L 289.761868 150.695664 
L 291.078292 155.179034 
L 292.381927 160.427867 
L 293.800274 167.074213 
L 295.327783 175.351389 
L 296.957972 185.504798 
L 298.68335 197.788565 
L 300.375782 211.435661 
L 302.150788 227.525631 
L 303.998523 246.305423 
L 305.908064 268.015746 
L 307.221585 284.386561 
L 307.221585 284.386561 
" style="fill:none;stroke:#ff7f0e;stroke-linecap:square;stroke-width:1.5;"/>
   </g>
   <g id="line2d_26">
    <path clip-path="url(#p456e36d855)" d="M 263.578378 215.468427 
L 261.757079 204.936146 
L 260.061968 196.321242 
L 258.355003 188.790821 
L 256.781157 182.857047 
L 255.343842 178.278806 
L 254.04571 174.830753 
L 252.888763 172.305604 
L 251.729448 170.292424 
L 250.713486 168.953508 
L 249.841764 168.121397 
L 248.969433 167.581712 
L 248.242178 167.356052 
L 247.514768 167.334617 
L 246.787326 167.517822 
L 246.059974 167.906013 
L 245.187445 168.642811 
L 244.315435 169.675537 
L 243.299032 171.254673 
L 242.283965 173.236956 
L 241.125958 175.995821 
L 239.82644 179.727753 
L 238.531041 184.123195 
L 237.097402 189.782242 
L 235.528435 196.944591 
L 233.827885 205.869619 
L 232.140442 215.943151 
L 230.329013 228.136092 
L 228.399796 242.732685 
L 226.49526 258.820781 
L 224.484687 277.675834 
L 222.377262 299.583157 
L 220.183587 324.824821 
L 217.915727 353.673338 
L 217.049832 365.46103 
L 217.049832 365.46103 
" style="fill:none;stroke:#2ca02c;stroke-linecap:square;stroke-width:1.5;"/>
   </g>
  </g>
 </g>
 <defs>
  <clipPath id="p456e36d855">
   <rect height="380.52" width="390.6" x="63" y="60.48"/>
  </clipPath>
 </defs>
</svg>
