<?xml version="1.0" encoding="utf-8" standalone="no"?>
<!DOCTYPE svg PUBLIC "-//W3C//DTD SVG 1.1//EN"
  "http://www.w3.org/Graphics/SVG/1.1/DTD/svg11.dtd">
<!-- Created with matplotlib (https://matplotlib.org/) -->
<svg height="288pt" version="1.1" viewBox="0 0 432 288" width="432pt" xmlns="http://www.w3.org/2000/svg" xmlns:xlink="http://www.w3.org/1999/xlink">
 <defs>
  <style type="text/css">
*{stroke-linecap:butt;stroke-linejoin:round;}
  </style>
 </defs>
 <g id="figure_1">
  <g id="patch_1">
   <path d="M 0 288 
L 432 288 
L 432 0 
L 0 0 
z
" style="fill:#ffffff;"/>
  </g>
  <g id="axes_1">
   <g id="patch_2">
    <path d="M 54 252 
L 388.8 252 
L 388.8 34.56 
L 54 34.56 
z
" style="fill:#ffffff;"/>
   </g>
   <g id="matplotlib.axis_1">
    <g id="xtick_1">
     <g id="line2d_1">
      <defs>
       <path d="M 0 0 
L 0 3.5 
" id="m855ad73b4d" style="stroke:#000000;stroke-width:0.8;"/>
      </defs>
      <g>
       <use style="stroke:#000000;stroke-width:0.8;" x="69.218182" xlink:href="#m855ad73b4d" y="252"/>
      </g>
     </g>
     <g id="text_1">
      <!-- −10.0 -->
      <defs>
       <path d="M 10.59375 35.5 
L 73.1875 35.5 
L 73.1875 27.203125 
L 10.59375 27.203125 
z
" id="DejaVuSans-8722"/>
       <path d="M 12.40625 8.296875 
L 28.515625 8.296875 
L 28.515625 63.921875 
L 10.984375 60.40625 
L 10.984375 69.390625 
L 28.421875 72.90625 
L 38.28125 72.90625 
L 38.28125 8.296875 
L 54.390625 8.296875 
L 54.390625 0 
L 12.40625 0 
z
" id="DejaVuSans-49"/>
       <path d="M 31.78125 66.40625 
Q 24.171875 66.40625 20.328125 58.90625 
Q 16.5 51.421875 16.5 36.375 
Q 16.5 21.390625 20.328125 13.890625 
Q 24.171875 6.390625 31.78125 6.390625 
Q 39.453125 6.390625 43.28125 13.890625 
Q 47.125 21.390625 47.125 36.375 
Q 47.125 51.421875 43.28125 58.90625 
Q 39.453125 66.40625 31.78125 66.40625 
z
M 31.78125 74.21875 
Q 44.046875 74.21875 50.515625 64.515625 
Q 56.984375 54.828125 56.984375 36.375 
Q 56.984375 17.96875 50.515625 8.265625 
Q 44.046875 -1.421875 31.78125 -1.421875 
Q 19.53125 -1.421875 13.0625 8.265625 
Q 6.59375 17.96875 6.59375 36.375 
Q 6.59375 54.828125 13.0625 64.515625 
Q 19.53125 74.21875 31.78125 74.21875 
z
" id="DejaVuSans-48"/>
       <path d="M 10.6875 12.40625 
L 21 12.40625 
L 21 0 
L 10.6875 0 
z
" id="DejaVuSans-46"/>
      </defs>
      <g transform="translate(53.895526 266.598437)scale(0.1 -0.1)">
       <use xlink:href="#DejaVuSans-8722"/>
       <use x="83.789062" xlink:href="#DejaVuSans-49"/>
       <use x="147.412109" xlink:href="#DejaVuSans-48"/>
       <use x="211.035156" xlink:href="#DejaVuSans-46"/>
       <use x="242.822266" xlink:href="#DejaVuSans-48"/>
      </g>
     </g>
    </g>
    <g id="xtick_2">
     <g id="line2d_2">
      <g>
       <use style="stroke:#000000;stroke-width:0.8;" x="107.263636" xlink:href="#m855ad73b4d" y="252"/>
      </g>
     </g>
     <g id="text_2">
      <!-- −7.5 -->
      <defs>
       <path d="M 8.203125 72.90625 
L 55.078125 72.90625 
L 55.078125 68.703125 
L 28.609375 0 
L 18.3125 0 
L 43.21875 64.59375 
L 8.203125 64.59375 
z
" id="DejaVuSans-55"/>
       <path d="M 10.796875 72.90625 
L 49.515625 72.90625 
L 49.515625 64.59375 
L 19.828125 64.59375 
L 19.828125 46.734375 
Q 21.96875 47.46875 24.109375 47.828125 
Q 26.265625 48.1875 28.421875 48.1875 
Q 40.625 48.1875 47.75 41.5 
Q 54.890625 34.8125 54.890625 23.390625 
Q 54.890625 11.625 47.5625 5.09375 
Q 40.234375 -1.421875 26.90625 -1.421875 
Q 22.3125 -1.421875 17.546875 -0.640625 
Q 12.796875 0.140625 7.71875 1.703125 
L 7.71875 11.625 
Q 12.109375 9.234375 16.796875 8.0625 
Q 21.484375 6.890625 26.703125 6.890625 
Q 35.15625 6.890625 40.078125 11.328125 
Q 45.015625 15.765625 45.015625 23.390625 
Q 45.015625 31 40.078125 35.4375 
Q 35.15625 39.890625 26.703125 39.890625 
Q 22.75 39.890625 18.8125 39.015625 
Q 14.890625 38.140625 10.796875 36.28125 
z
" id="DejaVuSans-53"/>
      </defs>
      <g transform="translate(95.12223 266.598437)scale(0.1 -0.1)">
       <use xlink:href="#DejaVuSans-8722"/>
       <use x="83.789062" xlink:href="#DejaVuSans-55"/>
       <use x="147.412109" xlink:href="#DejaVuSans-46"/>
       <use x="179.199219" xlink:href="#DejaVuSans-53"/>
      </g>
     </g>
    </g>
    <g id="xtick_3">
     <g id="line2d_3">
      <g>
       <use style="stroke:#000000;stroke-width:0.8;" x="145.309091" xlink:href="#m855ad73b4d" y="252"/>
      </g>
     </g>
     <g id="text_3">
      <!-- −5.0 -->
      <g transform="translate(133.167685 266.598437)scale(0.1 -0.1)">
       <use xlink:href="#DejaVuSans-8722"/>
       <use x="83.789062" xlink:href="#DejaVuSans-53"/>
       <use x="147.412109" xlink:href="#DejaVuSans-46"/>
       <use x="179.199219" xlink:href="#DejaVuSans-48"/>
      </g>
     </g>
    </g>
    <g id="xtick_4">
     <g id="line2d_4">
      <g>
       <use style="stroke:#000000;stroke-width:0.8;" x="183.354545" xlink:href="#m855ad73b4d" y="252"/>
      </g>
     </g>
     <g id="text_4">
      <!-- −2.5 -->
      <defs>
       <path d="M 19.1875 8.296875 
L 53.609375 8.296875 
L 53.609375 0 
L 7.328125 0 
L 7.328125 8.296875 
Q 12.9375 14.109375 22.625 23.890625 
Q 32.328125 33.6875 34.8125 36.53125 
Q 39.546875 41.84375 41.421875 45.53125 
Q 43.3125 49.21875 43.3125 52.78125 
Q 43.3125 58.59375 39.234375 62.25 
Q 35.15625 65.921875 28.609375 65.921875 
Q 23.96875 65.921875 18.8125 64.3125 
Q 13.671875 62.703125 7.8125 59.421875 
L 7.8125 69.390625 
Q 13.765625 71.78125 18.9375 73 
Q 24.125 74.21875 28.421875 74.21875 
Q 39.75 74.21875 46.484375 68.546875 
Q 53.21875 62.890625 53.21875 53.421875 
Q 53.21875 48.921875 51.53125 44.890625 
Q 49.859375 40.875 45.40625 35.40625 
Q 44.1875 33.984375 37.640625 27.21875 
Q 31.109375 20.453125 19.1875 8.296875 
z
" id="DejaVuSans-50"/>
      </defs>
      <g transform="translate(171.213139 266.598437)scale(0.1 -0.1)">
       <use xlink:href="#DejaVuSans-8722"/>
       <use x="83.789062" xlink:href="#DejaVuSans-50"/>
       <use x="147.412109" xlink:href="#DejaVuSans-46"/>
       <use x="179.199219" xlink:href="#DejaVuSans-53"/>
      </g>
     </g>
    </g>
    <g id="xtick_5">
     <g id="line2d_5">
      <g>
       <use style="stroke:#000000;stroke-width:0.8;" x="221.4" xlink:href="#m855ad73b4d" y="252"/>
      </g>
     </g>
     <g id="text_5">
      <!-- 0.0 -->
      <g transform="translate(213.448438 266.598437)scale(0.1 -0.1)">
       <use xlink:href="#DejaVuSans-48"/>
       <use x="63.623047" xlink:href="#DejaVuSans-46"/>
       <use x="95.410156" xlink:href="#DejaVuSans-48"/>
      </g>
     </g>
    </g>
    <g id="xtick_6">
     <g id="line2d_6">
      <g>
       <use style="stroke:#000000;stroke-width:0.8;" x="259.445455" xlink:href="#m855ad73b4d" y="252"/>
      </g>
     </g>
     <g id="text_6">
      <!-- 2.5 -->
      <g transform="translate(251.493892 266.598437)scale(0.1 -0.1)">
       <use xlink:href="#DejaVuSans-50"/>
       <use x="63.623047" xlink:href="#DejaVuSans-46"/>
       <use x="95.410156" xlink:href="#DejaVuSans-53"/>
      </g>
     </g>
    </g>
    <g id="xtick_7">
     <g id="line2d_7">
      <g>
       <use style="stroke:#000000;stroke-width:0.8;" x="297.490909" xlink:href="#m855ad73b4d" y="252"/>
      </g>
     </g>
     <g id="text_7">
      <!-- 5.0 -->
      <g transform="translate(289.539347 266.598437)scale(0.1 -0.1)">
       <use xlink:href="#DejaVuSans-53"/>
       <use x="63.623047" xlink:href="#DejaVuSans-46"/>
       <use x="95.410156" xlink:href="#DejaVuSans-48"/>
      </g>
     </g>
    </g>
    <g id="xtick_8">
     <g id="line2d_8">
      <g>
       <use style="stroke:#000000;stroke-width:0.8;" x="335.536364" xlink:href="#m855ad73b4d" y="252"/>
      </g>
     </g>
     <g id="text_8">
      <!-- 7.5 -->
      <g transform="translate(327.584801 266.598437)scale(0.1 -0.1)">
       <use xlink:href="#DejaVuSans-55"/>
       <use x="63.623047" xlink:href="#DejaVuSans-46"/>
       <use x="95.410156" xlink:href="#DejaVuSans-53"/>
      </g>
     </g>
    </g>
    <g id="xtick_9">
     <g id="line2d_9">
      <g>
       <use style="stroke:#000000;stroke-width:0.8;" x="373.581818" xlink:href="#m855ad73b4d" y="252"/>
      </g>
     </g>
     <g id="text_9">
      <!-- 10.0 -->
      <g transform="translate(362.449006 266.598437)scale(0.1 -0.1)">
       <use xlink:href="#DejaVuSans-49"/>
       <use x="63.623047" xlink:href="#DejaVuSans-48"/>
       <use x="127.246094" xlink:href="#DejaVuSans-46"/>
       <use x="159.033203" xlink:href="#DejaVuSans-48"/>
      </g>
     </g>
    </g>
   </g>
   <g id="matplotlib.axis_2">
    <g id="ytick_1">
     <g id="line2d_10">
      <defs>
       <path d="M 0 0 
L -3.5 0 
" id="m4060726db1" style="stroke:#000000;stroke-width:0.8;"/>
      </defs>
      <g>
       <use style="stroke:#000000;stroke-width:0.8;" x="54" xlink:href="#m4060726db1" y="241.044886"/>
      </g>
     </g>
     <g id="text_10">
      <!-- −2 -->
      <g transform="translate(32.257812 244.844105)scale(0.1 -0.1)">
       <use xlink:href="#DejaVuSans-8722"/>
       <use x="83.789062" xlink:href="#DejaVuSans-50"/>
      </g>
     </g>
    </g>
    <g id="ytick_2">
     <g id="line2d_11">
      <g>
       <use style="stroke:#000000;stroke-width:0.8;" x="54" xlink:href="#m4060726db1" y="201.938932"/>
      </g>
     </g>
     <g id="text_11">
      <!-- 0 -->
      <g transform="translate(40.6375 205.738151)scale(0.1 -0.1)">
       <use xlink:href="#DejaVuSans-48"/>
      </g>
     </g>
    </g>
    <g id="ytick_3">
     <g id="line2d_12">
      <g>
       <use style="stroke:#000000;stroke-width:0.8;" x="54" xlink:href="#m4060726db1" y="162.832977"/>
      </g>
     </g>
     <g id="text_12">
      <!-- 2 -->
      <g transform="translate(40.6375 166.632196)scale(0.1 -0.1)">
       <use xlink:href="#DejaVuSans-50"/>
      </g>
     </g>
    </g>
    <g id="ytick_4">
     <g id="line2d_13">
      <g>
       <use style="stroke:#000000;stroke-width:0.8;" x="54" xlink:href="#m4060726db1" y="123.727023"/>
      </g>
     </g>
     <g id="text_13">
      <!-- 4 -->
      <defs>
       <path d="M 37.796875 64.3125 
L 12.890625 25.390625 
L 37.796875 25.390625 
z
M 35.203125 72.90625 
L 47.609375 72.90625 
L 47.609375 25.390625 
L 58.015625 25.390625 
L 58.015625 17.1875 
L 47.609375 17.1875 
L 47.609375 0 
L 37.796875 0 
L 37.796875 17.1875 
L 4.890625 17.1875 
L 4.890625 26.703125 
z
" id="DejaVuSans-52"/>
      </defs>
      <g transform="translate(40.6375 127.526241)scale(0.1 -0.1)">
       <use xlink:href="#DejaVuSans-52"/>
      </g>
     </g>
    </g>
    <g id="ytick_5">
     <g id="line2d_14">
      <g>
       <use style="stroke:#000000;stroke-width:0.8;" x="54" xlink:href="#m4060726db1" y="84.621068"/>
      </g>
     </g>
     <g id="text_14">
      <!-- 6 -->
      <defs>
       <path d="M 33.015625 40.375 
Q 26.375 40.375 22.484375 35.828125 
Q 18.609375 31.296875 18.609375 23.390625 
Q 18.609375 15.53125 22.484375 10.953125 
Q 26.375 6.390625 33.015625 6.390625 
Q 39.65625 6.390625 43.53125 10.953125 
Q 47.40625 15.53125 47.40625 23.390625 
Q 47.40625 31.296875 43.53125 35.828125 
Q 39.65625 40.375 33.015625 40.375 
z
M 52.59375 71.296875 
L 52.59375 62.3125 
Q 48.875 64.0625 45.09375 64.984375 
Q 41.3125 65.921875 37.59375 65.921875 
Q 27.828125 65.921875 22.671875 59.328125 
Q 17.53125 52.734375 16.796875 39.40625 
Q 19.671875 43.65625 24.015625 45.921875 
Q 28.375 48.1875 33.59375 48.1875 
Q 44.578125 48.1875 50.953125 41.515625 
Q 57.328125 34.859375 57.328125 23.390625 
Q 57.328125 12.15625 50.6875 5.359375 
Q 44.046875 -1.421875 33.015625 -1.421875 
Q 20.359375 -1.421875 13.671875 8.265625 
Q 6.984375 17.96875 6.984375 36.375 
Q 6.984375 53.65625 15.1875 63.9375 
Q 23.390625 74.21875 37.203125 74.21875 
Q 40.921875 74.21875 44.703125 73.484375 
Q 48.484375 72.75 52.59375 71.296875 
z
" id="DejaVuSans-54"/>
      </defs>
      <g transform="translate(40.6375 88.420287)scale(0.1 -0.1)">
       <use xlink:href="#DejaVuSans-54"/>
      </g>
     </g>
    </g>
    <g id="ytick_6">
     <g id="line2d_15">
      <g>
       <use style="stroke:#000000;stroke-width:0.8;" x="54" xlink:href="#m4060726db1" y="45.515114"/>
      </g>
     </g>
     <g id="text_15">
      <!-- 8 -->
      <defs>
       <path d="M 31.78125 34.625 
Q 24.75 34.625 20.71875 30.859375 
Q 16.703125 27.09375 16.703125 20.515625 
Q 16.703125 13.921875 20.71875 10.15625 
Q 24.75 6.390625 31.78125 6.390625 
Q 38.8125 6.390625 42.859375 10.171875 
Q 46.921875 13.96875 46.921875 20.515625 
Q 46.921875 27.09375 42.890625 30.859375 
Q 38.875 34.625 31.78125 34.625 
z
M 21.921875 38.8125 
Q 15.578125 40.375 12.03125 44.71875 
Q 8.5 49.078125 8.5 55.328125 
Q 8.5 64.0625 14.71875 69.140625 
Q 20.953125 74.21875 31.78125 74.21875 
Q 42.671875 74.21875 48.875 69.140625 
Q 55.078125 64.0625 55.078125 55.328125 
Q 55.078125 49.078125 51.53125 44.71875 
Q 48 40.375 41.703125 38.8125 
Q 48.828125 37.15625 52.796875 32.3125 
Q 56.78125 27.484375 56.78125 20.515625 
Q 56.78125 9.90625 50.3125 4.234375 
Q 43.84375 -1.421875 31.78125 -1.421875 
Q 19.734375 -1.421875 13.25 4.234375 
Q 6.78125 9.90625 6.78125 20.515625 
Q 6.78125 27.484375 10.78125 32.3125 
Q 14.796875 37.15625 21.921875 38.8125 
z
M 18.3125 54.390625 
Q 18.3125 48.734375 21.84375 45.5625 
Q 25.390625 42.390625 31.78125 42.390625 
Q 38.140625 42.390625 41.71875 45.5625 
Q 45.3125 48.734375 45.3125 54.390625 
Q 45.3125 60.0625 41.71875 63.234375 
Q 38.140625 66.40625 31.78125 66.40625 
Q 25.390625 66.40625 21.84375 63.234375 
Q 18.3125 60.0625 18.3125 54.390625 
z
" id="DejaVuSans-56"/>
      </defs>
      <g transform="translate(40.6375 49.314332)scale(0.1 -0.1)">
       <use xlink:href="#DejaVuSans-56"/>
      </g>
     </g>
    </g>
   </g>
   <g id="line2d_16">
    <path clip-path="url(#p352201f91e)" d="M 54 201.938932 
L 388.8 201.938932 
" style="fill:none;stroke:#000000;stroke-linecap:square;stroke-width:1.5;"/>
   </g>
   <g id="line2d_17">
    <path clip-path="url(#p352201f91e)" d="M 221.4 252 
L 221.4 34.56 
" style="fill:none;stroke:#000000;stroke-linecap:square;stroke-width:1.5;"/>
   </g>
   <g id="line2d_18">
    <path clip-path="url(#p352201f91e)" d="M 69.218182 241.044886 
L 72.292562 239.069838 
L 75.366942 237.09479 
L 78.441322 235.119742 
L 81.515702 233.144694 
L 84.590083 231.169645 
L 87.664463 229.194597 
L 90.738843 227.219549 
L 93.813223 225.244501 
L 96.887603 223.269453 
L 99.961983 221.294404 
L 103.036364 219.319356 
L 106.110744 217.344308 
L 109.185124 215.36926 
L 112.259504 213.394212 
L 115.333884 211.419163 
L 118.408264 209.444115 
L 121.482645 207.469067 
L 124.557025 205.494019 
L 127.631405 203.51897 
L 130.705785 201.543922 
L 133.780165 199.568874 
L 136.854545 197.593826 
L 139.928926 195.618778 
L 143.003306 193.643729 
L 146.077686 191.668681 
L 149.152066 189.693633 
L 152.226446 187.718585 
L 155.300826 185.743537 
L 158.375207 183.768488 
L 161.449587 181.79344 
L 164.523967 179.818392 
L 167.598347 177.843344 
L 170.672727 175.868295 
L 173.747107 173.893247 
L 176.821488 171.918199 
L 179.895868 169.943151 
L 182.970248 167.968103 
L 186.044628 165.993054 
L 189.119008 164.018006 
L 192.193388 162.042958 
L 195.267769 160.06791 
L 198.342149 158.092862 
L 201.416529 156.117813 
L 204.490909 154.142765 
L 207.565289 152.167717 
L 210.639669 150.192669 
L 213.71405 148.217621 
L 216.78843 146.242572 
L 219.86281 144.267524 
L 222.93719 142.292476 
L 226.01157 140.317428 
L 229.08595 138.342379 
L 232.160331 136.367331 
L 235.234711 134.392283 
L 238.309091 132.417235 
L 241.383471 130.442187 
L 244.457851 128.467138 
L 247.532231 126.49209 
L 250.606612 124.517042 
L 253.680992 122.541994 
L 256.755372 120.566946 
L 259.829752 118.591897 
L 262.904132 116.616849 
L 265.978512 114.641801 
L 269.052893 112.666753 
L 272.127273 110.691705 
L 275.201653 108.716656 
L 278.276033 106.741608 
L 281.350413 104.76656 
L 284.424793 102.791512 
L 287.499174 100.816463 
L 290.573554 98.841415 
L 293.647934 96.866367 
L 296.722314 94.891319 
L 299.796694 92.916271 
L 302.871074 90.941222 
L 305.945455 88.966174 
L 309.019835 86.991126 
L 312.094215 85.016078 
L 315.168595 83.04103 
L 318.242975 81.065981 
L 321.317355 79.090933 
L 324.391736 77.115885 
L 327.466116 75.140837 
L 330.540496 73.165788 
L 333.614876 71.19074 
L 336.689256 69.215692 
L 339.763636 67.240644 
L 342.838017 65.265596 
L 345.912397 63.290547 
L 348.986777 61.315499 
L 352.061157 59.340451 
L 355.135537 57.365403 
L 358.209917 55.390355 
L 361.284298 53.415306 
L 364.358678 51.440258 
L 367.433058 49.46521 
L 370.507438 47.490162 
L 373.581818 45.515114 
" style="fill:none;stroke:#1f77b4;stroke-linecap:square;stroke-width:1.5;"/>
   </g>
   <g id="line2d_19">
    <path clip-path="url(#p352201f91e)" d="M 69.218182 191.301699 
L 72.292562 194.809941 
L 75.366942 198.608144 
L 78.441322 202.541822 
L 81.515702 206.450978 
L 84.590083 210.176614 
L 87.664463 213.567193 
L 90.738843 216.48481 
L 93.813223 218.810795 
L 96.887603 220.450541 
L 99.961983 221.337354 
L 103.036364 221.435164 
L 106.110744 220.739994 
L 109.185124 219.280117 
L 112.259504 217.114914 
L 115.333884 214.332449 
L 118.408264 211.045895 
L 121.482645 207.38893 
L 124.557025 203.510293 
L 127.631405 199.567744 
L 130.705785 195.721639 
L 133.780165 192.128414 
L 136.854545 188.934217 
L 139.928926 186.268968 
L 143.003306 184.241072 
L 146.077686 182.933011 
L 149.152066 182.397988 
L 152.226446 182.657765 
L 155.300826 183.701775 
L 158.375207 185.487555 
L 161.449587 187.942471 
L 164.523967 190.966672 
L 167.598347 194.437155 
L 170.672727 198.212761 
L 173.747107 202.139924 
L 176.821488 206.058911 
L 179.895868 209.810325 
L 182.970248 213.241581 
L 186.044628 216.213118 
L 189.119008 218.604074 
L 192.193388 220.317199 
L 195.267769 221.282814 
L 198.342149 221.461646 
L 201.416529 220.846419 
L 204.490909 219.462158 
L 207.565289 217.365165 
L 210.639669 214.640732 
L 213.71405 211.399672 
L 216.78843 207.77381 
L 219.86281 203.910623 
L 222.93719 199.967241 
L 226.01157 196.104054 
L 229.08595 192.478192 
L 232.160331 189.237132 
L 235.234711 186.512699 
L 238.309091 184.415706 
L 241.383471 183.031445 
L 244.457851 182.416218 
L 247.532231 182.595049 
L 250.606612 183.560665 
L 253.680992 185.27379 
L 256.755372 187.664746 
L 259.829752 190.636283 
L 262.904132 194.067539 
L 265.978512 197.818952 
L 269.052893 201.73794 
L 272.127273 205.665103 
L 275.201653 209.440709 
L 278.276033 212.911191 
L 281.350413 215.935393 
L 284.424793 218.390309 
L 287.499174 220.176089 
L 290.573554 221.220099 
L 293.647934 221.479875 
L 296.722314 220.944853 
L 299.796694 219.636791 
L 302.871074 217.608896 
L 305.945455 214.943647 
L 309.019835 211.74945 
L 312.094215 208.156225 
L 315.168595 204.31012 
L 318.242975 200.367571 
L 321.317355 196.488934 
L 324.391736 192.831968 
L 327.466116 189.545415 
L 330.540496 186.76295 
L 333.614876 184.597746 
L 336.689256 183.13787 
L 339.763636 182.442699 
L 342.838017 182.54051 
L 345.912397 183.427323 
L 348.986777 185.067069 
L 352.061157 187.393053 
L 355.135537 190.31067 
L 358.209917 193.70125 
L 361.284298 197.426885 
L 364.358678 201.336042 
L 367.433058 205.26972 
L 370.507438 209.067923 
L 373.581818 212.576164 
" style="fill:none;stroke:#ff7f0e;stroke-linecap:square;stroke-width:1.5;"/>
   </g>
   <g id="line2d_20">
    <path clip-path="url(#p352201f91e)" d="M 69.218182 230.407654 
L 72.292562 231.940847 
L 75.366942 233.764002 
L 78.441322 235.722632 
L 81.515702 237.65674 
L 84.590083 239.407327 
L 87.664463 240.822859 
L 90.738843 241.765427 
L 93.813223 242.116364 
L 96.887603 241.781061 
L 99.961983 240.692826 
L 103.036364 238.815589 
L 106.110744 236.14537 
L 109.185124 232.710445 
L 112.259504 228.570193 
L 115.333884 223.81268 
L 118.408264 218.551079 
L 121.482645 212.919065 
L 124.557025 207.06538 
L 127.631405 201.147782 
L 130.705785 195.32663 
L 133.780165 189.758356 
L 136.854545 184.589111 
L 139.928926 179.948814 
L 143.003306 175.94587 
L 146.077686 172.662761 
L 149.152066 170.152689 
L 152.226446 168.437418 
L 155.300826 167.50638 
L 158.375207 167.317111 
L 161.449587 167.796979 
L 164.523967 168.846132 
L 167.598347 170.341566 
L 170.672727 172.142124 
L 173.747107 174.094239 
L 176.821488 176.038179 
L 179.895868 177.814544 
L 182.970248 179.270752 
L 186.044628 180.267241 
L 189.119008 180.683148 
L 192.193388 180.421225 
L 195.267769 179.411792 
L 198.342149 177.615575 
L 201.416529 175.0253 
L 204.490909 171.665991 
L 207.565289 167.59395 
L 210.639669 162.894469 
L 213.71405 157.678361 
L 216.78843 152.077451 
L 219.86281 146.239215 
L 222.93719 140.320785 
L 226.01157 134.482549 
L 229.08595 128.881639 
L 232.160331 123.665531 
L 235.234711 118.96605 
L 238.309091 114.894009 
L 241.383471 111.5347 
L 244.457851 108.944425 
L 247.532231 107.148208 
L 250.606612 106.138775 
L 253.680992 105.876852 
L 256.755372 106.292759 
L 259.829752 107.289248 
L 262.904132 108.745456 
L 265.978512 110.521821 
L 269.052893 112.465761 
L 272.127273 114.417876 
L 275.201653 116.218434 
L 278.276033 117.713868 
L 281.350413 118.763021 
L 284.424793 119.242889 
L 287.499174 119.05362 
L 290.573554 118.122582 
L 293.647934 116.407311 
L 296.722314 113.897239 
L 299.796694 110.61413 
L 302.871074 106.611186 
L 305.945455 101.970889 
L 309.019835 96.801644 
L 312.094215 91.23337 
L 315.168595 85.412218 
L 318.242975 79.49462 
L 321.317355 73.640935 
L 324.391736 68.008921 
L 327.466116 62.74732 
L 330.540496 57.989807 
L 333.614876 53.849555 
L 336.689256 50.41463 
L 339.763636 47.744411 
L 342.838017 45.867174 
L 345.912397 44.778939 
L 348.986777 44.443636 
L 352.061157 44.794573 
L 355.135537 45.737141 
L 358.209917 47.152673 
L 361.284298 48.90326 
L 364.358678 50.837368 
L 367.433058 52.795998 
L 370.507438 54.619153 
L 373.581818 56.152346 
" style="fill:none;stroke:#2ca02c;stroke-linecap:square;stroke-width:1.5;"/>
   </g>
   <g id="patch_3">
    <path d="M 54 252 
L 54 34.56 
" style="fill:none;stroke:#000000;stroke-linecap:square;stroke-linejoin:miter;stroke-width:0.8;"/>
   </g>
   <g id="patch_4">
    <path d="M 388.8 252 
L 388.8 34.56 
" style="fill:none;stroke:#000000;stroke-linecap:square;stroke-linejoin:miter;stroke-width:0.8;"/>
   </g>
   <g id="patch_5">
    <path d="M 54 252 
L 388.8 252 
" style="fill:none;stroke:#000000;stroke-linecap:square;stroke-linejoin:miter;stroke-width:0.8;"/>
   </g>
   <g id="patch_6">
    <path d="M 54 34.56 
L 388.8 34.56 
" style="fill:none;stroke:#000000;stroke-linecap:square;stroke-linejoin:miter;stroke-width:0.8;"/>
   </g>
  </g>
 </g>
 <defs>
  <clipPath id="p352201f91e">
   <rect height="217.44" width="334.8" x="54" y="34.56"/>
  </clipPath>
 </defs>
</svg>
