<?xml version="1.0" encoding="utf-8" standalone="no"?>
<!DOCTYPE svg PUBLIC "-//W3C//DTD SVG 1.1//EN"
  "http://www.w3.org/Graphics/SVG/1.1/DTD/svg11.dtd">
<!-- Created with matplotlib (http://matplotlib.org/) -->
<svg height="288pt" version="1.1" viewBox="0 0 432 288" width="432pt" xmlns="http://www.w3.org/2000/svg" xmlns:xlink="http://www.w3.org/1999/xlink">
 <defs>
  <style type="text/css">
*{stroke-linecap:butt;stroke-linejoin:round;}
  </style>
 </defs>
 <g id="figure_1">
  <g id="patch_1">
   <path d="M 0 288 
L 432 288 
L 432 0 
L 0 0 
z
" style="fill:#ffffff;"/>
  </g>
  <g id="axes_1">
   <g id="patch_2">
    <path d="M 54 252 
L 388.8 252 
L 388.8 34.56 
L 54 34.56 
z
" style="fill:#ffffff;"/>
   </g>
   <g id="matplotlib.axis_1">
    <g id="xtick_1">
     <g id="line2d_1">
      <defs>
       <path d="M 0 0 
L 0 3.5 
" id="meed05f82c9" style="stroke:#000000;stroke-width:0.8;"/>
      </defs>
      <g>
       <use style="stroke:#000000;stroke-width:0.8;" x="69.218182" xlink:href="#meed05f82c9" y="252"/>
      </g>
     </g>
     <g id="text_1">
      <!-- −10.0 -->
      <defs>
       <path d="M 10.59375 35.5 
L 73.1875 35.5 
L 73.1875 27.203125 
L 10.59375 27.203125 
z
" id="DejaVuSans-2212"/>
       <path d="M 12.40625 8.296875 
L 28.515625 8.296875 
L 28.515625 63.921875 
L 10.984375 60.40625 
L 10.984375 69.390625 
L 28.421875 72.90625 
L 38.28125 72.90625 
L 38.28125 8.296875 
L 54.390625 8.296875 
L 54.390625 0 
L 12.40625 0 
z
" id="DejaVuSans-31"/>
       <path d="M 31.78125 66.40625 
Q 24.171875 66.40625 20.328125 58.90625 
Q 16.5 51.421875 16.5 36.375 
Q 16.5 21.390625 20.328125 13.890625 
Q 24.171875 6.390625 31.78125 6.390625 
Q 39.453125 6.390625 43.28125 13.890625 
Q 47.125 21.390625 47.125 36.375 
Q 47.125 51.421875 43.28125 58.90625 
Q 39.453125 66.40625 31.78125 66.40625 
z
M 31.78125 74.21875 
Q 44.046875 74.21875 50.515625 64.515625 
Q 56.984375 54.828125 56.984375 36.375 
Q 56.984375 17.96875 50.515625 8.265625 
Q 44.046875 -1.421875 31.78125 -1.421875 
Q 19.53125 -1.421875 13.0625 8.265625 
Q 6.59375 17.96875 6.59375 36.375 
Q 6.59375 54.828125 13.0625 64.515625 
Q 19.53125 74.21875 31.78125 74.21875 
z
" id="DejaVuSans-30"/>
       <path d="M 10.6875 12.40625 
L 21 12.40625 
L 21 0 
L 10.6875 0 
z
" id="DejaVuSans-2e"/>
      </defs>
      <g transform="translate(53.895526 266.598437)scale(0.1 -0.1)">
       <use xlink:href="#DejaVuSans-2212"/>
       <use x="83.789062" xlink:href="#DejaVuSans-31"/>
       <use x="147.412109" xlink:href="#DejaVuSans-30"/>
       <use x="211.035156" xlink:href="#DejaVuSans-2e"/>
       <use x="242.822266" xlink:href="#DejaVuSans-30"/>
      </g>
     </g>
    </g>
    <g id="xtick_2">
     <g id="line2d_2">
      <g>
       <use style="stroke:#000000;stroke-width:0.8;" x="107.263636" xlink:href="#meed05f82c9" y="252"/>
      </g>
     </g>
     <g id="text_2">
      <!-- −7.5 -->
      <defs>
       <path d="M 8.203125 72.90625 
L 55.078125 72.90625 
L 55.078125 68.703125 
L 28.609375 0 
L 18.3125 0 
L 43.21875 64.59375 
L 8.203125 64.59375 
z
" id="DejaVuSans-37"/>
       <path d="M 10.796875 72.90625 
L 49.515625 72.90625 
L 49.515625 64.59375 
L 19.828125 64.59375 
L 19.828125 46.734375 
Q 21.96875 47.46875 24.109375 47.828125 
Q 26.265625 48.1875 28.421875 48.1875 
Q 40.625 48.1875 47.75 41.5 
Q 54.890625 34.8125 54.890625 23.390625 
Q 54.890625 11.625 47.5625 5.09375 
Q 40.234375 -1.421875 26.90625 -1.421875 
Q 22.3125 -1.421875 17.546875 -0.640625 
Q 12.796875 0.140625 7.71875 1.703125 
L 7.71875 11.625 
Q 12.109375 9.234375 16.796875 8.0625 
Q 21.484375 6.890625 26.703125 6.890625 
Q 35.15625 6.890625 40.078125 11.328125 
Q 45.015625 15.765625 45.015625 23.390625 
Q 45.015625 31 40.078125 35.4375 
Q 35.15625 39.890625 26.703125 39.890625 
Q 22.75 39.890625 18.8125 39.015625 
Q 14.890625 38.140625 10.796875 36.28125 
z
" id="DejaVuSans-35"/>
      </defs>
      <g transform="translate(95.12223 266.598437)scale(0.1 -0.1)">
       <use xlink:href="#DejaVuSans-2212"/>
       <use x="83.789062" xlink:href="#DejaVuSans-37"/>
       <use x="147.412109" xlink:href="#DejaVuSans-2e"/>
       <use x="179.199219" xlink:href="#DejaVuSans-35"/>
      </g>
     </g>
    </g>
    <g id="xtick_3">
     <g id="line2d_3">
      <g>
       <use style="stroke:#000000;stroke-width:0.8;" x="145.309091" xlink:href="#meed05f82c9" y="252"/>
      </g>
     </g>
     <g id="text_3">
      <!-- −5.0 -->
      <g transform="translate(133.167685 266.598437)scale(0.1 -0.1)">
       <use xlink:href="#DejaVuSans-2212"/>
       <use x="83.789062" xlink:href="#DejaVuSans-35"/>
       <use x="147.412109" xlink:href="#DejaVuSans-2e"/>
       <use x="179.199219" xlink:href="#DejaVuSans-30"/>
      </g>
     </g>
    </g>
    <g id="xtick_4">
     <g id="line2d_4">
      <g>
       <use style="stroke:#000000;stroke-width:0.8;" x="183.354545" xlink:href="#meed05f82c9" y="252"/>
      </g>
     </g>
     <g id="text_4">
      <!-- −2.5 -->
      <defs>
       <path d="M 19.1875 8.296875 
L 53.609375 8.296875 
L 53.609375 0 
L 7.328125 0 
L 7.328125 8.296875 
Q 12.9375 14.109375 22.625 23.890625 
Q 32.328125 33.6875 34.8125 36.53125 
Q 39.546875 41.84375 41.421875 45.53125 
Q 43.3125 49.21875 43.3125 52.78125 
Q 43.3125 58.59375 39.234375 62.25 
Q 35.15625 65.921875 28.609375 65.921875 
Q 23.96875 65.921875 18.8125 64.3125 
Q 13.671875 62.703125 7.8125 59.421875 
L 7.8125 69.390625 
Q 13.765625 71.78125 18.9375 73 
Q 24.125 74.21875 28.421875 74.21875 
Q 39.75 74.21875 46.484375 68.546875 
Q 53.21875 62.890625 53.21875 53.421875 
Q 53.21875 48.921875 51.53125 44.890625 
Q 49.859375 40.875 45.40625 35.40625 
Q 44.1875 33.984375 37.640625 27.21875 
Q 31.109375 20.453125 19.1875 8.296875 
z
" id="DejaVuSans-32"/>
      </defs>
      <g transform="translate(171.213139 266.598437)scale(0.1 -0.1)">
       <use xlink:href="#DejaVuSans-2212"/>
       <use x="83.789062" xlink:href="#DejaVuSans-32"/>
       <use x="147.412109" xlink:href="#DejaVuSans-2e"/>
       <use x="179.199219" xlink:href="#DejaVuSans-35"/>
      </g>
     </g>
    </g>
    <g id="xtick_5">
     <g id="line2d_5">
      <g>
       <use style="stroke:#000000;stroke-width:0.8;" x="221.4" xlink:href="#meed05f82c9" y="252"/>
      </g>
     </g>
     <g id="text_5">
      <!-- 0.0 -->
      <g transform="translate(213.448438 266.598437)scale(0.1 -0.1)">
       <use xlink:href="#DejaVuSans-30"/>
       <use x="63.623047" xlink:href="#DejaVuSans-2e"/>
       <use x="95.410156" xlink:href="#DejaVuSans-30"/>
      </g>
     </g>
    </g>
    <g id="xtick_6">
     <g id="line2d_6">
      <g>
       <use style="stroke:#000000;stroke-width:0.8;" x="259.445455" xlink:href="#meed05f82c9" y="252"/>
      </g>
     </g>
     <g id="text_6">
      <!-- 2.5 -->
      <g transform="translate(251.493892 266.598437)scale(0.1 -0.1)">
       <use xlink:href="#DejaVuSans-32"/>
       <use x="63.623047" xlink:href="#DejaVuSans-2e"/>
       <use x="95.410156" xlink:href="#DejaVuSans-35"/>
      </g>
     </g>
    </g>
    <g id="xtick_7">
     <g id="line2d_7">
      <g>
       <use style="stroke:#000000;stroke-width:0.8;" x="297.490909" xlink:href="#meed05f82c9" y="252"/>
      </g>
     </g>
     <g id="text_7">
      <!-- 5.0 -->
      <g transform="translate(289.539347 266.598437)scale(0.1 -0.1)">
       <use xlink:href="#DejaVuSans-35"/>
       <use x="63.623047" xlink:href="#DejaVuSans-2e"/>
       <use x="95.410156" xlink:href="#DejaVuSans-30"/>
      </g>
     </g>
    </g>
    <g id="xtick_8">
     <g id="line2d_8">
      <g>
       <use style="stroke:#000000;stroke-width:0.8;" x="335.536364" xlink:href="#meed05f82c9" y="252"/>
      </g>
     </g>
     <g id="text_8">
      <!-- 7.5 -->
      <g transform="translate(327.584801 266.598437)scale(0.1 -0.1)">
       <use xlink:href="#DejaVuSans-37"/>
       <use x="63.623047" xlink:href="#DejaVuSans-2e"/>
       <use x="95.410156" xlink:href="#DejaVuSans-35"/>
      </g>
     </g>
    </g>
    <g id="xtick_9">
     <g id="line2d_9">
      <g>
       <use style="stroke:#000000;stroke-width:0.8;" x="373.581818" xlink:href="#meed05f82c9" y="252"/>
      </g>
     </g>
     <g id="text_9">
      <!-- 10.0 -->
      <g transform="translate(362.449006 266.598437)scale(0.1 -0.1)">
       <use xlink:href="#DejaVuSans-31"/>
       <use x="63.623047" xlink:href="#DejaVuSans-30"/>
       <use x="127.246094" xlink:href="#DejaVuSans-2e"/>
       <use x="159.033203" xlink:href="#DejaVuSans-30"/>
      </g>
     </g>
    </g>
   </g>
   <g id="matplotlib.axis_2">
    <g id="ytick_1">
     <g id="line2d_10">
      <defs>
       <path d="M 0 0 
L -3.5 0 
" id="ma26d58ad38" style="stroke:#000000;stroke-width:0.8;"/>
      </defs>
      <g>
       <use style="stroke:#000000;stroke-width:0.8;" x="54" xlink:href="#ma26d58ad38" y="242.177229"/>
      </g>
     </g>
     <g id="text_10">
      <!-- −3 -->
      <defs>
       <path d="M 40.578125 39.3125 
Q 47.65625 37.796875 51.625 33 
Q 55.609375 28.21875 55.609375 21.1875 
Q 55.609375 10.40625 48.1875 4.484375 
Q 40.765625 -1.421875 27.09375 -1.421875 
Q 22.515625 -1.421875 17.65625 -0.515625 
Q 12.796875 0.390625 7.625 2.203125 
L 7.625 11.71875 
Q 11.71875 9.328125 16.59375 8.109375 
Q 21.484375 6.890625 26.8125 6.890625 
Q 36.078125 6.890625 40.9375 10.546875 
Q 45.796875 14.203125 45.796875 21.1875 
Q 45.796875 27.640625 41.28125 31.265625 
Q 36.765625 34.90625 28.71875 34.90625 
L 20.21875 34.90625 
L 20.21875 43.015625 
L 29.109375 43.015625 
Q 36.375 43.015625 40.234375 45.921875 
Q 44.09375 48.828125 44.09375 54.296875 
Q 44.09375 59.90625 40.109375 62.90625 
Q 36.140625 65.921875 28.71875 65.921875 
Q 24.65625 65.921875 20.015625 65.03125 
Q 15.375 64.15625 9.8125 62.3125 
L 9.8125 71.09375 
Q 15.4375 72.65625 20.34375 73.4375 
Q 25.25 74.21875 29.59375 74.21875 
Q 40.828125 74.21875 47.359375 69.109375 
Q 53.90625 64.015625 53.90625 55.328125 
Q 53.90625 49.265625 50.4375 45.09375 
Q 46.96875 40.921875 40.578125 39.3125 
z
" id="DejaVuSans-33"/>
      </defs>
      <g transform="translate(32.257812 245.976448)scale(0.1 -0.1)">
       <use xlink:href="#DejaVuSans-2212"/>
       <use x="83.789062" xlink:href="#DejaVuSans-33"/>
      </g>
     </g>
    </g>
    <g id="ytick_2">
     <g id="line2d_11">
      <g>
       <use style="stroke:#000000;stroke-width:0.8;" x="54" xlink:href="#ma26d58ad38" y="209.211486"/>
      </g>
     </g>
     <g id="text_11">
      <!-- −2 -->
      <g transform="translate(32.257812 213.010705)scale(0.1 -0.1)">
       <use xlink:href="#DejaVuSans-2212"/>
       <use x="83.789062" xlink:href="#DejaVuSans-32"/>
      </g>
     </g>
    </g>
    <g id="ytick_3">
     <g id="line2d_12">
      <g>
       <use style="stroke:#000000;stroke-width:0.8;" x="54" xlink:href="#ma26d58ad38" y="176.245743"/>
      </g>
     </g>
     <g id="text_12">
      <!-- −1 -->
      <g transform="translate(32.257812 180.044962)scale(0.1 -0.1)">
       <use xlink:href="#DejaVuSans-2212"/>
       <use x="83.789062" xlink:href="#DejaVuSans-31"/>
      </g>
     </g>
    </g>
    <g id="ytick_4">
     <g id="line2d_13">
      <g>
       <use style="stroke:#000000;stroke-width:0.8;" x="54" xlink:href="#ma26d58ad38" y="143.28"/>
      </g>
     </g>
     <g id="text_13">
      <!-- 0 -->
      <g transform="translate(40.6375 147.079219)scale(0.1 -0.1)">
       <use xlink:href="#DejaVuSans-30"/>
      </g>
     </g>
    </g>
    <g id="ytick_5">
     <g id="line2d_14">
      <g>
       <use style="stroke:#000000;stroke-width:0.8;" x="54" xlink:href="#ma26d58ad38" y="110.314257"/>
      </g>
     </g>
     <g id="text_14">
      <!-- 1 -->
      <g transform="translate(40.6375 114.113476)scale(0.1 -0.1)">
       <use xlink:href="#DejaVuSans-31"/>
      </g>
     </g>
    </g>
    <g id="ytick_6">
     <g id="line2d_15">
      <g>
       <use style="stroke:#000000;stroke-width:0.8;" x="54" xlink:href="#ma26d58ad38" y="77.348514"/>
      </g>
     </g>
     <g id="text_15">
      <!-- 2 -->
      <g transform="translate(40.6375 81.147733)scale(0.1 -0.1)">
       <use xlink:href="#DejaVuSans-32"/>
      </g>
     </g>
    </g>
    <g id="ytick_7">
     <g id="line2d_16">
      <g>
       <use style="stroke:#000000;stroke-width:0.8;" x="54" xlink:href="#ma26d58ad38" y="44.382771"/>
      </g>
     </g>
     <g id="text_16">
      <!-- 3 -->
      <g transform="translate(40.6375 48.18199)scale(0.1 -0.1)">
       <use xlink:href="#DejaVuSans-33"/>
      </g>
     </g>
    </g>
   </g>
   <g id="line2d_17">
    <path clip-path="url(#p1c513ec4f7)" d="M 54 143.28 
L 388.8 143.28 
" style="fill:none;stroke:#000000;stroke-linecap:square;stroke-width:1.5;"/>
   </g>
   <g id="line2d_18">
    <path clip-path="url(#p1c513ec4f7)" d="M 221.4 252 
L 221.4 34.56 
" style="fill:none;stroke:#000000;stroke-linecap:square;stroke-width:1.5;"/>
   </g>
   <g id="line2d_19">
    <path clip-path="url(#p1c513ec4f7)" d="M 69.218182 125.34594 
L 72.292562 131.260732 
L 75.366942 137.66439 
L 78.441322 144.296455 
L 81.515702 150.887177 
L 84.590083 157.168489 
L 87.664463 162.884906 
L 90.738843 167.803922 
L 93.813223 171.725463 
L 96.887603 174.490027 
L 99.961983 175.985167 
L 103.036364 176.150073 
L 106.110744 174.978036 
L 109.185124 172.516728 
L 112.259504 168.866258 
L 115.333884 164.175104 
L 118.408264 158.634072 
L 121.482645 152.468536 
L 124.557025 145.929269 
L 127.631405 139.282247 
L 130.705785 132.797828 
L 133.780165 126.739756 
L 136.854545 121.354434 
L 139.928926 116.860903 
L 143.003306 113.441931 
L 146.077686 111.236578 
L 149.152066 110.334545 
L 152.226446 110.772521 
L 155.300826 112.532691 
L 158.375207 115.543464 
L 161.449587 119.682379 
L 164.523967 124.781094 
L 167.598347 130.632225 
L 170.672727 136.997786 
L 173.747107 143.618866 
L 176.821488 150.226164 
L 179.895868 156.550936 
L 182.970248 162.335933 
L 186.044628 167.345857 
L 189.119008 171.376937 
L 192.193388 174.265216 
L 195.267769 175.893215 
L 198.342149 176.19472 
L 201.416529 175.157466 
L 204.490909 172.823642 
L 207.565289 169.288173 
L 210.639669 164.69486 
L 213.71405 159.230529 
L 216.78843 153.117433 
L 219.86281 146.604213 
L 222.93719 139.955787 
L 226.01157 133.442567 
L 229.08595 127.329471 
L 232.160331 121.86514 
L 235.234711 117.271827 
L 238.309091 113.736358 
L 241.383471 111.402534 
L 244.457851 110.36528 
L 247.532231 110.666785 
L 250.606612 112.294784 
L 253.680992 115.183063 
L 256.755372 119.214143 
L 259.829752 124.224067 
L 262.904132 130.009064 
L 265.978512 136.333836 
L 269.052893 142.941134 
L 272.127273 149.562214 
L 275.201653 155.927775 
L 278.276033 161.778906 
L 281.350413 166.877621 
L 284.424793 171.016536 
L 287.499174 174.027309 
L 290.573554 175.787479 
L 293.647934 176.225455 
L 296.722314 175.323422 
L 299.796694 173.118069 
L 302.871074 169.699097 
L 305.945455 165.205566 
L 309.019835 159.820244 
L 312.094215 153.762172 
L 315.168595 147.277753 
L 318.242975 140.630731 
L 321.317355 134.091464 
L 324.391736 127.925928 
L 327.466116 122.384896 
L 330.540496 117.693742 
L 333.614876 114.043272 
L 336.689256 111.581964 
L 339.763636 110.409927 
L 342.838017 110.574833 
L 345.912397 112.069973 
L 348.986777 114.834537 
L 352.061157 118.756078 
L 355.135537 123.675094 
L 358.209917 129.391511 
L 361.284298 135.672823 
L 364.358678 142.263545 
L 367.433058 148.89561 
L 370.507438 155.299268 
L 373.581818 161.21406 
" style="fill:none;stroke:#1f77b4;stroke-linecap:square;stroke-width:1.5;"/>
   </g>
   <g id="line2d_20">
    <path clip-path="url(#p1c513ec4f7)" d="M 69.218182 89.47782 
L 72.292562 107.222195 
L 75.366942 126.43317 
L 78.441322 146.329365 
L 81.515702 166.101532 
L 84.590083 184.945466 
L 87.664463 202.094718 
L 90.738843 216.851766 
L 93.813223 228.61639 
L 96.887603 236.91008 
L 99.961983 241.395502 
L 103.036364 241.890219 
L 106.110744 238.374108 
L 109.185124 230.990183 
L 112.259504 220.038773 
L 115.333884 205.965311 
L 118.408264 189.342216 
L 121.482645 170.845607 
L 124.557025 151.227807 
L 127.631405 131.286741 
L 130.705785 111.833484 
L 133.780165 93.659268 
L 136.854545 77.503303 
L 139.928926 64.02271 
L 143.003306 53.765792 
L 146.077686 47.149735 
L 149.152066 44.443636 
L 152.226446 45.757564 
L 155.300826 51.038074 
L 158.375207 60.070391 
L 161.449587 72.487138 
L 164.523967 87.783282 
L 167.598347 105.336674 
L 170.672727 124.433357 
L 173.747107 144.296598 
L 176.821488 164.118492 
L 179.895868 183.092809 
L 182.970248 200.447799 
L 186.044628 215.477571 
L 189.119008 227.570812 
L 192.193388 236.235647 
L 195.267769 241.119646 
L 198.342149 242.024159 
L 201.416529 238.912397 
L 204.490909 231.910925 
L 207.565289 221.30452 
L 210.639669 207.524581 
L 213.71405 191.131587 
L 216.78843 172.792298 
L 219.86281 153.25264 
L 222.93719 133.30736 
L 226.01157 113.767702 
L 229.08595 95.428413 
L 232.160331 79.035419 
L 235.234711 65.25548 
L 238.309091 54.649075 
L 241.383471 47.647603 
L 244.457851 44.535841 
L 247.532231 45.440354 
L 250.606612 50.324353 
L 253.680992 58.989188 
L 256.755372 71.082429 
L 259.829752 86.112201 
L 262.904132 103.467191 
L 265.978512 122.441508 
L 269.052893 142.263402 
L 272.127273 162.126643 
L 275.201653 181.223326 
L 278.276033 198.776718 
L 281.350413 214.072862 
L 284.424793 226.489609 
L 287.499174 235.521926 
L 290.573554 240.802436 
L 293.647934 242.116364 
L 296.722314 239.410265 
L 299.796694 232.794208 
L 302.871074 222.53729 
L 305.945455 209.056697 
L 309.019835 192.900732 
L 312.094215 174.726516 
L 315.168595 155.273259 
L 318.242975 135.332193 
L 321.317355 115.714393 
L 324.391736 97.217784 
L 327.466116 80.594689 
L 330.540496 66.521227 
L 333.614876 55.569817 
L 336.689256 48.185892 
L 339.763636 44.669781 
L 342.838017 45.164498 
L 345.912397 49.64992 
L 348.986777 57.94361 
L 352.061157 69.708234 
L 355.135537 84.465282 
L 358.209917 101.614534 
L 361.284298 120.458468 
L 364.358678 140.230635 
L 367.433058 160.12683 
L 370.507438 179.337805 
L 373.581818 197.08218 
" style="fill:none;stroke:#ff7f0e;stroke-linecap:square;stroke-width:1.5;"/>
   </g>
   <g id="patch_3">
    <path d="M 54 252 
L 54 34.56 
" style="fill:none;stroke:#000000;stroke-linecap:square;stroke-linejoin:miter;stroke-width:0.8;"/>
   </g>
   <g id="patch_4">
    <path d="M 388.8 252 
L 388.8 34.56 
" style="fill:none;stroke:#000000;stroke-linecap:square;stroke-linejoin:miter;stroke-width:0.8;"/>
   </g>
   <g id="patch_5">
    <path d="M 54 252 
L 388.8 252 
" style="fill:none;stroke:#000000;stroke-linecap:square;stroke-linejoin:miter;stroke-width:0.8;"/>
   </g>
   <g id="patch_6">
    <path d="M 54 34.56 
L 388.8 34.56 
" style="fill:none;stroke:#000000;stroke-linecap:square;stroke-linejoin:miter;stroke-width:0.8;"/>
   </g>
  </g>
 </g>
 <defs>
  <clipPath id="p1c513ec4f7">
   <rect height="217.44" width="334.8" x="54" y="34.56"/>
  </clipPath>
 </defs>
</svg>
