<?xml version="1.0" encoding="utf-8" standalone="no"?>
<!DOCTYPE svg PUBLIC "-//W3C//DTD SVG 1.1//EN"
  "http://www.w3.org/Graphics/SVG/1.1/DTD/svg11.dtd">
<!-- Created with matplotlib (http://matplotlib.org/) -->
<svg height="288pt" version="1.1" viewBox="0 0 432 288" width="432pt" xmlns="http://www.w3.org/2000/svg" xmlns:xlink="http://www.w3.org/1999/xlink">
 <defs>
  <style type="text/css">
*{stroke-linecap:butt;stroke-linejoin:round;}
  </style>
 </defs>
 <g id="figure_1">
  <g id="patch_1">
   <path d="M 0 288 
L 432 288 
L 432 0 
L 0 0 
z
" style="fill:#ffffff;"/>
  </g>
  <g id="axes_1">
   <g id="patch_2">
    <path d="M 54 252 
L 388.8 252 
L 388.8 34.56 
L 54 34.56 
z
" style="fill:#ffffff;"/>
   </g>
   <g id="matplotlib.axis_1">
    <g id="xtick_1">
     <g id="line2d_1">
      <defs>
       <path d="M 0 0 
L 0 3.5 
" id="mfb3765616a" style="stroke:#000000;stroke-width:0.8;"/>
      </defs>
      <g>
       <use style="stroke:#000000;stroke-width:0.8;" x="69.218182" xlink:href="#mfb3765616a" y="252"/>
      </g>
     </g>
     <g id="text_1">
      <!-- −10.0 -->
      <defs>
       <path d="M 10.59375 35.5 
L 73.1875 35.5 
L 73.1875 27.203125 
L 10.59375 27.203125 
z
" id="DejaVuSans-2212"/>
       <path d="M 12.40625 8.296875 
L 28.515625 8.296875 
L 28.515625 63.921875 
L 10.984375 60.40625 
L 10.984375 69.390625 
L 28.421875 72.90625 
L 38.28125 72.90625 
L 38.28125 8.296875 
L 54.390625 8.296875 
L 54.390625 0 
L 12.40625 0 
z
" id="DejaVuSans-31"/>
       <path d="M 31.78125 66.40625 
Q 24.171875 66.40625 20.328125 58.90625 
Q 16.5 51.421875 16.5 36.375 
Q 16.5 21.390625 20.328125 13.890625 
Q 24.171875 6.390625 31.78125 6.390625 
Q 39.453125 6.390625 43.28125 13.890625 
Q 47.125 21.390625 47.125 36.375 
Q 47.125 51.421875 43.28125 58.90625 
Q 39.453125 66.40625 31.78125 66.40625 
z
M 31.78125 74.21875 
Q 44.046875 74.21875 50.515625 64.515625 
Q 56.984375 54.828125 56.984375 36.375 
Q 56.984375 17.96875 50.515625 8.265625 
Q 44.046875 -1.421875 31.78125 -1.421875 
Q 19.53125 -1.421875 13.0625 8.265625 
Q 6.59375 17.96875 6.59375 36.375 
Q 6.59375 54.828125 13.0625 64.515625 
Q 19.53125 74.21875 31.78125 74.21875 
z
" id="DejaVuSans-30"/>
       <path d="M 10.6875 12.40625 
L 21 12.40625 
L 21 0 
L 10.6875 0 
z
" id="DejaVuSans-2e"/>
      </defs>
      <g transform="translate(53.895526 266.598437)scale(0.1 -0.1)">
       <use xlink:href="#DejaVuSans-2212"/>
       <use x="83.789062" xlink:href="#DejaVuSans-31"/>
       <use x="147.412109" xlink:href="#DejaVuSans-30"/>
       <use x="211.035156" xlink:href="#DejaVuSans-2e"/>
       <use x="242.822266" xlink:href="#DejaVuSans-30"/>
      </g>
     </g>
    </g>
    <g id="xtick_2">
     <g id="line2d_2">
      <g>
       <use style="stroke:#000000;stroke-width:0.8;" x="107.263636" xlink:href="#mfb3765616a" y="252"/>
      </g>
     </g>
     <g id="text_2">
      <!-- −7.5 -->
      <defs>
       <path d="M 8.203125 72.90625 
L 55.078125 72.90625 
L 55.078125 68.703125 
L 28.609375 0 
L 18.3125 0 
L 43.21875 64.59375 
L 8.203125 64.59375 
z
" id="DejaVuSans-37"/>
       <path d="M 10.796875 72.90625 
L 49.515625 72.90625 
L 49.515625 64.59375 
L 19.828125 64.59375 
L 19.828125 46.734375 
Q 21.96875 47.46875 24.109375 47.828125 
Q 26.265625 48.1875 28.421875 48.1875 
Q 40.625 48.1875 47.75 41.5 
Q 54.890625 34.8125 54.890625 23.390625 
Q 54.890625 11.625 47.5625 5.09375 
Q 40.234375 -1.421875 26.90625 -1.421875 
Q 22.3125 -1.421875 17.546875 -0.640625 
Q 12.796875 0.140625 7.71875 1.703125 
L 7.71875 11.625 
Q 12.109375 9.234375 16.796875 8.0625 
Q 21.484375 6.890625 26.703125 6.890625 
Q 35.15625 6.890625 40.078125 11.328125 
Q 45.015625 15.765625 45.015625 23.390625 
Q 45.015625 31 40.078125 35.4375 
Q 35.15625 39.890625 26.703125 39.890625 
Q 22.75 39.890625 18.8125 39.015625 
Q 14.890625 38.140625 10.796875 36.28125 
z
" id="DejaVuSans-35"/>
      </defs>
      <g transform="translate(95.12223 266.598437)scale(0.1 -0.1)">
       <use xlink:href="#DejaVuSans-2212"/>
       <use x="83.789062" xlink:href="#DejaVuSans-37"/>
       <use x="147.412109" xlink:href="#DejaVuSans-2e"/>
       <use x="179.199219" xlink:href="#DejaVuSans-35"/>
      </g>
     </g>
    </g>
    <g id="xtick_3">
     <g id="line2d_3">
      <g>
       <use style="stroke:#000000;stroke-width:0.8;" x="145.309091" xlink:href="#mfb3765616a" y="252"/>
      </g>
     </g>
     <g id="text_3">
      <!-- −5.0 -->
      <g transform="translate(133.167685 266.598437)scale(0.1 -0.1)">
       <use xlink:href="#DejaVuSans-2212"/>
       <use x="83.789062" xlink:href="#DejaVuSans-35"/>
       <use x="147.412109" xlink:href="#DejaVuSans-2e"/>
       <use x="179.199219" xlink:href="#DejaVuSans-30"/>
      </g>
     </g>
    </g>
    <g id="xtick_4">
     <g id="line2d_4">
      <g>
       <use style="stroke:#000000;stroke-width:0.8;" x="183.354545" xlink:href="#mfb3765616a" y="252"/>
      </g>
     </g>
     <g id="text_4">
      <!-- −2.5 -->
      <defs>
       <path d="M 19.1875 8.296875 
L 53.609375 8.296875 
L 53.609375 0 
L 7.328125 0 
L 7.328125 8.296875 
Q 12.9375 14.109375 22.625 23.890625 
Q 32.328125 33.6875 34.8125 36.53125 
Q 39.546875 41.84375 41.421875 45.53125 
Q 43.3125 49.21875 43.3125 52.78125 
Q 43.3125 58.59375 39.234375 62.25 
Q 35.15625 65.921875 28.609375 65.921875 
Q 23.96875 65.921875 18.8125 64.3125 
Q 13.671875 62.703125 7.8125 59.421875 
L 7.8125 69.390625 
Q 13.765625 71.78125 18.9375 73 
Q 24.125 74.21875 28.421875 74.21875 
Q 39.75 74.21875 46.484375 68.546875 
Q 53.21875 62.890625 53.21875 53.421875 
Q 53.21875 48.921875 51.53125 44.890625 
Q 49.859375 40.875 45.40625 35.40625 
Q 44.1875 33.984375 37.640625 27.21875 
Q 31.109375 20.453125 19.1875 8.296875 
z
" id="DejaVuSans-32"/>
      </defs>
      <g transform="translate(171.213139 266.598437)scale(0.1 -0.1)">
       <use xlink:href="#DejaVuSans-2212"/>
       <use x="83.789062" xlink:href="#DejaVuSans-32"/>
       <use x="147.412109" xlink:href="#DejaVuSans-2e"/>
       <use x="179.199219" xlink:href="#DejaVuSans-35"/>
      </g>
     </g>
    </g>
    <g id="xtick_5">
     <g id="line2d_5">
      <g>
       <use style="stroke:#000000;stroke-width:0.8;" x="221.4" xlink:href="#mfb3765616a" y="252"/>
      </g>
     </g>
     <g id="text_5">
      <!-- 0.0 -->
      <g transform="translate(213.448438 266.598437)scale(0.1 -0.1)">
       <use xlink:href="#DejaVuSans-30"/>
       <use x="63.623047" xlink:href="#DejaVuSans-2e"/>
       <use x="95.410156" xlink:href="#DejaVuSans-30"/>
      </g>
     </g>
    </g>
    <g id="xtick_6">
     <g id="line2d_6">
      <g>
       <use style="stroke:#000000;stroke-width:0.8;" x="259.445455" xlink:href="#mfb3765616a" y="252"/>
      </g>
     </g>
     <g id="text_6">
      <!-- 2.5 -->
      <g transform="translate(251.493892 266.598437)scale(0.1 -0.1)">
       <use xlink:href="#DejaVuSans-32"/>
       <use x="63.623047" xlink:href="#DejaVuSans-2e"/>
       <use x="95.410156" xlink:href="#DejaVuSans-35"/>
      </g>
     </g>
    </g>
    <g id="xtick_7">
     <g id="line2d_7">
      <g>
       <use style="stroke:#000000;stroke-width:0.8;" x="297.490909" xlink:href="#mfb3765616a" y="252"/>
      </g>
     </g>
     <g id="text_7">
      <!-- 5.0 -->
      <g transform="translate(289.539347 266.598437)scale(0.1 -0.1)">
       <use xlink:href="#DejaVuSans-35"/>
       <use x="63.623047" xlink:href="#DejaVuSans-2e"/>
       <use x="95.410156" xlink:href="#DejaVuSans-30"/>
      </g>
     </g>
    </g>
    <g id="xtick_8">
     <g id="line2d_8">
      <g>
       <use style="stroke:#000000;stroke-width:0.8;" x="335.536364" xlink:href="#mfb3765616a" y="252"/>
      </g>
     </g>
     <g id="text_8">
      <!-- 7.5 -->
      <g transform="translate(327.584801 266.598437)scale(0.1 -0.1)">
       <use xlink:href="#DejaVuSans-37"/>
       <use x="63.623047" xlink:href="#DejaVuSans-2e"/>
       <use x="95.410156" xlink:href="#DejaVuSans-35"/>
      </g>
     </g>
    </g>
    <g id="xtick_9">
     <g id="line2d_9">
      <g>
       <use style="stroke:#000000;stroke-width:0.8;" x="373.581818" xlink:href="#mfb3765616a" y="252"/>
      </g>
     </g>
     <g id="text_9">
      <!-- 10.0 -->
      <g transform="translate(362.449006 266.598437)scale(0.1 -0.1)">
       <use xlink:href="#DejaVuSans-31"/>
       <use x="63.623047" xlink:href="#DejaVuSans-30"/>
       <use x="127.246094" xlink:href="#DejaVuSans-2e"/>
       <use x="159.033203" xlink:href="#DejaVuSans-30"/>
      </g>
     </g>
    </g>
   </g>
   <g id="matplotlib.axis_2">
    <g id="ytick_1">
     <g id="line2d_10">
      <defs>
       <path d="M 0 0 
L -3.5 0 
" id="m735d7d4767" style="stroke:#000000;stroke-width:0.8;"/>
      </defs>
      <g>
       <use style="stroke:#000000;stroke-width:0.8;" x="54" xlink:href="#m735d7d4767" y="224.265227"/>
      </g>
     </g>
     <g id="text_10">
      <!-- −2 -->
      <g transform="translate(32.257812 228.064446)scale(0.1 -0.1)">
       <use xlink:href="#DejaVuSans-2212"/>
       <use x="83.789062" xlink:href="#DejaVuSans-32"/>
      </g>
     </g>
    </g>
    <g id="ytick_2">
     <g id="line2d_11">
      <g>
       <use style="stroke:#000000;stroke-width:0.8;" x="54" xlink:href="#m735d7d4767" y="188.496915"/>
      </g>
     </g>
     <g id="text_11">
      <!-- 0 -->
      <g transform="translate(40.6375 192.296133)scale(0.1 -0.1)">
       <use xlink:href="#DejaVuSans-30"/>
      </g>
     </g>
    </g>
    <g id="ytick_3">
     <g id="line2d_12">
      <g>
       <use style="stroke:#000000;stroke-width:0.8;" x="54" xlink:href="#m735d7d4767" y="152.728602"/>
      </g>
     </g>
     <g id="text_12">
      <!-- 2 -->
      <g transform="translate(40.6375 156.527821)scale(0.1 -0.1)">
       <use xlink:href="#DejaVuSans-32"/>
      </g>
     </g>
    </g>
    <g id="ytick_4">
     <g id="line2d_13">
      <g>
       <use style="stroke:#000000;stroke-width:0.8;" x="54" xlink:href="#m735d7d4767" y="116.96029"/>
      </g>
     </g>
     <g id="text_13">
      <!-- 4 -->
      <defs>
       <path d="M 37.796875 64.3125 
L 12.890625 25.390625 
L 37.796875 25.390625 
z
M 35.203125 72.90625 
L 47.609375 72.90625 
L 47.609375 25.390625 
L 58.015625 25.390625 
L 58.015625 17.1875 
L 47.609375 17.1875 
L 47.609375 0 
L 37.796875 0 
L 37.796875 17.1875 
L 4.890625 17.1875 
L 4.890625 26.703125 
z
" id="DejaVuSans-34"/>
      </defs>
      <g transform="translate(40.6375 120.759508)scale(0.1 -0.1)">
       <use xlink:href="#DejaVuSans-34"/>
      </g>
     </g>
    </g>
    <g id="ytick_5">
     <g id="line2d_14">
      <g>
       <use style="stroke:#000000;stroke-width:0.8;" x="54" xlink:href="#m735d7d4767" y="81.191977"/>
      </g>
     </g>
     <g id="text_14">
      <!-- 6 -->
      <defs>
       <path d="M 33.015625 40.375 
Q 26.375 40.375 22.484375 35.828125 
Q 18.609375 31.296875 18.609375 23.390625 
Q 18.609375 15.53125 22.484375 10.953125 
Q 26.375 6.390625 33.015625 6.390625 
Q 39.65625 6.390625 43.53125 10.953125 
Q 47.40625 15.53125 47.40625 23.390625 
Q 47.40625 31.296875 43.53125 35.828125 
Q 39.65625 40.375 33.015625 40.375 
z
M 52.59375 71.296875 
L 52.59375 62.3125 
Q 48.875 64.0625 45.09375 64.984375 
Q 41.3125 65.921875 37.59375 65.921875 
Q 27.828125 65.921875 22.671875 59.328125 
Q 17.53125 52.734375 16.796875 39.40625 
Q 19.671875 43.65625 24.015625 45.921875 
Q 28.375 48.1875 33.59375 48.1875 
Q 44.578125 48.1875 50.953125 41.515625 
Q 57.328125 34.859375 57.328125 23.390625 
Q 57.328125 12.15625 50.6875 5.359375 
Q 44.046875 -1.421875 33.015625 -1.421875 
Q 20.359375 -1.421875 13.671875 8.265625 
Q 6.984375 17.96875 6.984375 36.375 
Q 6.984375 53.65625 15.1875 63.9375 
Q 23.390625 74.21875 37.203125 74.21875 
Q 40.921875 74.21875 44.703125 73.484375 
Q 48.484375 72.75 52.59375 71.296875 
z
" id="DejaVuSans-36"/>
      </defs>
      <g transform="translate(40.6375 84.991196)scale(0.1 -0.1)">
       <use xlink:href="#DejaVuSans-36"/>
      </g>
     </g>
    </g>
    <g id="ytick_6">
     <g id="line2d_15">
      <g>
       <use style="stroke:#000000;stroke-width:0.8;" x="54" xlink:href="#m735d7d4767" y="45.423664"/>
      </g>
     </g>
     <g id="text_15">
      <!-- 8 -->
      <defs>
       <path d="M 31.78125 34.625 
Q 24.75 34.625 20.71875 30.859375 
Q 16.703125 27.09375 16.703125 20.515625 
Q 16.703125 13.921875 20.71875 10.15625 
Q 24.75 6.390625 31.78125 6.390625 
Q 38.8125 6.390625 42.859375 10.171875 
Q 46.921875 13.96875 46.921875 20.515625 
Q 46.921875 27.09375 42.890625 30.859375 
Q 38.875 34.625 31.78125 34.625 
z
M 21.921875 38.8125 
Q 15.578125 40.375 12.03125 44.71875 
Q 8.5 49.078125 8.5 55.328125 
Q 8.5 64.0625 14.71875 69.140625 
Q 20.953125 74.21875 31.78125 74.21875 
Q 42.671875 74.21875 48.875 69.140625 
Q 55.078125 64.0625 55.078125 55.328125 
Q 55.078125 49.078125 51.53125 44.71875 
Q 48 40.375 41.703125 38.8125 
Q 48.828125 37.15625 52.796875 32.3125 
Q 56.78125 27.484375 56.78125 20.515625 
Q 56.78125 9.90625 50.3125 4.234375 
Q 43.84375 -1.421875 31.78125 -1.421875 
Q 19.734375 -1.421875 13.25 4.234375 
Q 6.78125 9.90625 6.78125 20.515625 
Q 6.78125 27.484375 10.78125 32.3125 
Q 14.796875 37.15625 21.921875 38.8125 
z
M 18.3125 54.390625 
Q 18.3125 48.734375 21.84375 45.5625 
Q 25.390625 42.390625 31.78125 42.390625 
Q 38.140625 42.390625 41.71875 45.5625 
Q 45.3125 48.734375 45.3125 54.390625 
Q 45.3125 60.0625 41.71875 63.234375 
Q 38.140625 66.40625 31.78125 66.40625 
Q 25.390625 66.40625 21.84375 63.234375 
Q 18.3125 60.0625 18.3125 54.390625 
z
" id="DejaVuSans-38"/>
      </defs>
      <g transform="translate(40.6375 49.222883)scale(0.1 -0.1)">
       <use xlink:href="#DejaVuSans-38"/>
      </g>
     </g>
    </g>
   </g>
   <g id="line2d_16">
    <path clip-path="url(#p7a7d7ff6f1)" d="M 54 188.496915 
L 388.8 188.496915 
" style="fill:none;stroke:#000000;stroke-linecap:square;stroke-width:1.5;"/>
   </g>
   <g id="line2d_17">
    <path clip-path="url(#p7a7d7ff6f1)" d="M 221.4 252 
L 221.4 34.56 
" style="fill:none;stroke:#000000;stroke-linecap:square;stroke-width:1.5;"/>
   </g>
   <g id="line2d_18">
    <path clip-path="url(#p7a7d7ff6f1)" d="M 69.218182 224.265227 
L 72.292562 222.458747 
L 75.366942 220.652266 
L 78.441322 218.845786 
L 81.515702 217.039306 
L 84.590083 215.232825 
L 87.664463 213.426345 
L 90.738843 211.619864 
L 93.813223 209.813384 
L 96.887603 208.006903 
L 99.961983 206.200423 
L 103.036364 204.393943 
L 106.110744 202.587462 
L 109.185124 200.780982 
L 112.259504 198.974501 
L 115.333884 197.168021 
L 118.408264 195.36154 
L 121.482645 193.55506 
L 124.557025 191.74858 
L 127.631405 189.942099 
L 130.705785 188.135619 
L 133.780165 186.329138 
L 136.854545 184.522658 
L 139.928926 182.716177 
L 143.003306 180.909697 
L 146.077686 179.103216 
L 149.152066 177.296736 
L 152.226446 175.490256 
L 155.300826 173.683775 
L 158.375207 171.877295 
L 161.449587 170.070814 
L 164.523967 168.264334 
L 167.598347 166.457853 
L 170.672727 164.651373 
L 173.747107 162.844893 
L 176.821488 161.038412 
L 179.895868 159.231932 
L 182.970248 157.425451 
L 186.044628 155.618971 
L 189.119008 153.81249 
L 192.193388 152.00601 
L 195.267769 150.19953 
L 198.342149 148.393049 
L 201.416529 146.586569 
L 204.490909 144.780088 
L 207.565289 142.973608 
L 210.639669 141.167127 
L 213.71405 139.360647 
L 216.78843 137.554167 
L 219.86281 135.747686 
L 222.93719 133.941206 
L 226.01157 132.134725 
L 229.08595 130.328245 
L 232.160331 128.521764 
L 235.234711 126.715284 
L 238.309091 124.908803 
L 241.383471 123.102323 
L 244.457851 121.295843 
L 247.532231 119.489362 
L 250.606612 117.682882 
L 253.680992 115.876401 
L 256.755372 114.069921 
L 259.829752 112.26344 
L 262.904132 110.45696 
L 265.978512 108.65048 
L 269.052893 106.843999 
L 272.127273 105.037519 
L 275.201653 103.231038 
L 278.276033 101.424558 
L 281.350413 99.618077 
L 284.424793 97.811597 
L 287.499174 96.005117 
L 290.573554 94.198636 
L 293.647934 92.392156 
L 296.722314 90.585675 
L 299.796694 88.779195 
L 302.871074 86.972714 
L 305.945455 85.166234 
L 309.019835 83.359753 
L 312.094215 81.553273 
L 315.168595 79.746793 
L 318.242975 77.940312 
L 321.317355 76.133832 
L 324.391736 74.327351 
L 327.466116 72.520871 
L 330.540496 70.71439 
L 333.614876 68.90791 
L 336.689256 67.10143 
L 339.763636 65.294949 
L 342.838017 63.488469 
L 345.912397 61.681988 
L 348.986777 59.875508 
L 352.061157 58.069027 
L 355.135537 56.262547 
L 358.209917 54.456067 
L 361.284298 52.649586 
L 364.358678 50.843106 
L 367.433058 49.036625 
L 370.507438 47.230145 
L 373.581818 45.423664 
" style="fill:none;stroke:#1f77b4;stroke-linecap:square;stroke-width:1.5;"/>
   </g>
   <g id="line2d_19">
    <path clip-path="url(#p7a7d7ff6f1)" d="M 69.218182 178.767556 
L 72.292562 181.976374 
L 75.366942 185.450405 
L 78.441322 189.048349 
L 81.515702 192.623864 
L 84.590083 196.031521 
L 87.664463 199.132719 
L 90.738843 201.801321 
L 93.813223 203.928786 
L 96.887603 205.428582 
L 99.961983 206.239707 
L 103.036364 206.329169 
L 106.110744 205.693331 
L 109.185124 204.358053 
L 112.259504 202.377646 
L 115.333884 199.832661 
L 118.408264 196.826611 
L 121.482645 193.481762 
L 124.557025 189.934162 
L 127.631405 186.328105 
L 130.705785 182.81026 
L 133.780165 179.523712 
L 136.854545 176.602135 
L 139.928926 174.164362 
L 143.003306 172.309544 
L 146.077686 171.113125 
L 149.152066 170.623765 
L 152.226446 170.86137 
L 155.300826 171.816275 
L 158.375207 173.449641 
L 161.449587 175.695033 
L 164.523967 178.461123 
L 167.598347 181.635404 
L 170.672727 185.088768 
L 173.747107 188.680752 
L 176.821488 192.265259 
L 179.895868 195.696495 
L 182.970248 198.834898 
L 186.044628 201.552818 
L 189.119008 203.739708 
L 192.193388 205.30662 
L 195.267769 206.189822 
L 198.342149 206.35339 
L 201.416529 205.790673 
L 204.490909 204.524556 
L 207.565289 202.606539 
L 210.639669 200.114633 
L 213.71405 197.150193 
L 216.78843 193.833794 
L 219.86281 190.300325 
L 222.93719 186.693505 
L 226.01157 183.160036 
L 229.08595 179.843636 
L 232.160331 176.879197 
L 235.234711 174.387291 
L 238.309091 172.469273 
L 241.383471 171.203157 
L 244.457851 170.640439 
L 247.532231 170.804007 
L 250.606612 171.687209 
L 253.680992 173.254121 
L 256.755372 175.441012 
L 259.829752 178.158932 
L 262.904132 181.297335 
L 265.978512 184.72857 
L 269.052893 188.313077 
L 272.127273 191.905062 
L 275.201653 195.358425 
L 278.276033 198.532706 
L 281.350413 201.298796 
L 284.424793 203.544188 
L 287.499174 205.177554 
L 290.573554 206.132459 
L 293.647934 206.370064 
L 296.722314 205.880705 
L 299.796694 204.684285 
L 302.871074 202.829468 
L 305.945455 200.391694 
L 309.019835 197.470118 
L 312.094215 194.18357 
L 315.168595 190.665725 
L 318.242975 187.059667 
L 321.317355 183.512067 
L 324.391736 180.167219 
L 327.466116 177.161168 
L 330.540496 174.616183 
L 333.614876 172.635777 
L 336.689256 171.300499 
L 339.763636 170.66466 
L 342.838017 170.754123 
L 345.912397 171.565248 
L 348.986777 173.065043 
L 352.061157 175.192508 
L 355.135537 177.86111 
L 358.209917 180.962308 
L 361.284298 184.369965 
L 364.358678 187.94548 
L 367.433058 191.543424 
L 370.507438 195.017455 
L 373.581818 198.226273 
" style="fill:none;stroke:#ff7f0e;stroke-linecap:square;stroke-width:1.5;"/>
   </g>
   <g id="line2d_20">
    <path clip-path="url(#p7a7d7ff6f1)" d="M 69.218182 214.535869 
L 72.292562 215.938206 
L 75.366942 217.605757 
L 78.441322 219.39722 
L 81.515702 221.166255 
L 84.590083 222.767432 
L 87.664463 224.062149 
L 90.738843 224.924271 
L 93.813223 225.245255 
L 96.887603 224.938571 
L 99.961983 223.943215 
L 103.036364 222.226197 
L 106.110744 219.783878 
L 109.185124 216.64212 
L 112.259504 212.855233 
L 115.333884 208.503767 
L 118.408264 203.691237 
L 121.482645 198.539908 
L 124.557025 193.185827 
L 127.631405 187.773289 
L 130.705785 182.448964 
L 133.780165 177.355935 
L 136.854545 172.627878 
L 139.928926 168.383625 
L 143.003306 164.722326 
L 146.077686 161.719426 
L 149.152066 159.423586 
L 152.226446 157.854711 
L 155.300826 157.003136 
L 158.375207 156.830021 
L 161.449587 157.268933 
L 164.523967 158.228542 
L 167.598347 159.596343 
L 170.672727 161.243226 
L 173.747107 163.02873 
L 176.821488 164.806757 
L 179.895868 166.431512 
L 182.970248 167.763434 
L 186.044628 168.674874 
L 189.119008 169.055284 
L 192.193388 168.815716 
L 195.267769 167.892437 
L 198.342149 166.249525 
L 201.416529 163.880326 
L 204.490909 160.80773 
L 207.565289 157.083232 
L 210.639669 152.784845 
L 213.71405 148.013925 
L 216.78843 142.891046 
L 219.86281 137.551096 
L 222.93719 132.137796 
L 226.01157 126.797846 
L 229.08595 121.674966 
L 232.160331 116.904046 
L 235.234711 112.60566 
L 238.309091 108.881162 
L 241.383471 105.808565 
L 244.457851 103.439367 
L 247.532231 101.796455 
L 250.606612 100.873176 
L 253.680992 100.633608 
L 256.755372 101.014018 
L 259.829752 101.925458 
L 262.904132 103.25738 
L 265.978512 104.882135 
L 269.052893 106.660162 
L 272.127273 108.445666 
L 275.201653 110.092549 
L 278.276033 111.460349 
L 281.350413 112.419959 
L 284.424793 112.85887 
L 287.499174 112.685756 
L 290.573554 111.834181 
L 293.647934 110.265305 
L 296.722314 107.969465 
L 299.796694 104.966565 
L 302.871074 101.305267 
L 305.945455 97.061013 
L 309.019835 92.332957 
L 312.094215 87.239928 
L 315.168595 81.915603 
L 318.242975 76.503064 
L 321.317355 71.148984 
L 324.391736 65.997655 
L 327.466116 61.185125 
L 330.540496 56.833659 
L 333.614876 53.046772 
L 336.689256 49.905014 
L 339.763636 47.462695 
L 342.838017 45.745677 
L 345.912397 44.750321 
L 348.986777 44.443636 
L 352.061157 44.764621 
L 355.135537 45.626742 
L 358.209917 46.92146 
L 361.284298 48.522637 
L 364.358678 50.291671 
L 367.433058 52.083135 
L 370.507438 53.750686 
L 373.581818 55.153023 
" style="fill:none;stroke:#2ca02c;stroke-linecap:square;stroke-width:1.5;"/>
   </g>
   <g id="line2d_21">
    <path clip-path="url(#p7a7d7ff6f1)" d="M 69.218182 159.308839 
L 72.292562 168.935293 
L 75.366942 179.357387 
L 78.441322 190.151218 
L 81.515702 200.877763 
L 84.590083 211.100734 
L 87.664463 220.404328 
L 90.738843 228.410135 
L 93.813223 234.792529 
L 96.887603 239.291916 
L 99.961983 241.725291 
L 103.036364 241.993678 
L 106.110744 240.086163 
L 109.185124 236.080329 
L 112.259504 230.139109 
L 115.333884 222.504154 
L 118.408264 213.486003 
L 121.482645 203.451458 
L 124.557025 192.808658 
L 127.631405 181.990484 
L 130.705785 171.43695 
L 133.780165 161.577305 
L 136.854545 152.812576 
L 139.928926 145.499256 
L 143.003306 139.934803 
L 146.077686 136.345544 
L 149.152066 134.877466 
L 152.226446 135.590281 
L 155.300826 138.454996 
L 158.375207 143.355094 
L 161.449587 150.09127 
L 164.523967 158.38954 
L 167.598347 167.912384 
L 170.672727 178.272473 
L 173.747107 189.048427 
L 176.821488 199.801949 
L 179.895868 210.095655 
L 182.970248 219.510863 
L 186.044628 227.664624 
L 189.119008 234.225296 
L 192.193388 238.926032 
L 195.267769 241.575637 
L 198.342149 242.066342 
L 201.416529 240.378188 
L 204.490909 236.579839 
L 207.565289 230.825787 
L 210.639669 223.350069 
L 213.71405 214.45675 
L 216.78843 204.507552 
L 219.86281 193.907145 
L 222.93719 183.086685 
L 226.01157 172.486277 
L 229.08595 162.53708 
L 232.160331 153.643761 
L 235.234711 146.168043 
L 238.309091 140.413991 
L 241.383471 136.615641 
L 244.457851 134.927488 
L 247.532231 135.418193 
L 250.606612 138.067798 
L 253.680992 142.768534 
L 256.755372 149.329205 
L 259.829752 157.482966 
L 262.904132 166.898175 
L 265.978512 177.191881 
L 269.052893 187.945403 
L 272.127273 198.721356 
L 275.201653 209.081446 
L 278.276033 218.604289 
L 281.350413 226.902559 
L 284.424793 233.638735 
L 287.499174 238.538833 
L 290.573554 241.403549 
L 293.647934 242.116364 
L 296.722314 240.648285 
L 299.796694 237.059026 
L 302.871074 231.494573 
L 305.945455 224.181253 
L 309.019835 215.416524 
L 312.094215 205.556879 
L 315.168595 195.003345 
L 318.242975 184.185172 
L 321.317355 173.542372 
L 324.391736 163.507826 
L 327.466116 154.489676 
L 330.540496 146.85472 
L 333.614876 140.9135 
L 336.689256 136.907667 
L 339.763636 135.000151 
L 342.838017 135.268539 
L 345.912397 137.701913 
L 348.986777 142.2013 
L 352.061157 148.583695 
L 355.135537 156.589501 
L 358.209917 165.893095 
L 361.284298 176.116067 
L 364.358678 186.842612 
L 367.433058 197.636443 
L 370.507438 208.058537 
L 373.581818 217.68499 
" style="fill:none;stroke:#d62728;stroke-linecap:square;stroke-width:1.5;"/>
   </g>
   <g id="patch_3">
    <path d="M 54 252 
L 54 34.56 
" style="fill:none;stroke:#000000;stroke-linecap:square;stroke-linejoin:miter;stroke-width:0.8;"/>
   </g>
   <g id="patch_4">
    <path d="M 388.8 252 
L 388.8 34.56 
" style="fill:none;stroke:#000000;stroke-linecap:square;stroke-linejoin:miter;stroke-width:0.8;"/>
   </g>
   <g id="patch_5">
    <path d="M 54 252 
L 388.8 252 
" style="fill:none;stroke:#000000;stroke-linecap:square;stroke-linejoin:miter;stroke-width:0.8;"/>
   </g>
   <g id="patch_6">
    <path d="M 54 34.56 
L 388.8 34.56 
" style="fill:none;stroke:#000000;stroke-linecap:square;stroke-linejoin:miter;stroke-width:0.8;"/>
   </g>
  </g>
 </g>
 <defs>
  <clipPath id="p7a7d7ff6f1">
   <rect height="217.44" width="334.8" x="54" y="34.56"/>
  </clipPath>
 </defs>
</svg>
