<?xml version="1.0" encoding="utf-8" standalone="no"?>
<!DOCTYPE svg PUBLIC "-//W3C//DTD SVG 1.1//EN"
  "http://www.w3.org/Graphics/SVG/1.1/DTD/svg11.dtd">
<!-- Created with matplotlib (http://matplotlib.org/) -->
<svg height="288pt" version="1.1" viewBox="0 0 432 288" width="432pt" xmlns="http://www.w3.org/2000/svg" xmlns:xlink="http://www.w3.org/1999/xlink">
 <defs>
  <style type="text/css">
*{stroke-linecap:butt;stroke-linejoin:round;}
  </style>
 </defs>
 <g id="figure_1">
  <g id="patch_1">
   <path d="M 0 288 
L 432 288 
L 432 0 
L 0 0 
z
" style="fill:#ffffff;"/>
  </g>
  <g id="patch_2">
   <path d="M 54 252 
L 388.8 252 
L 388.8 34.56 
L 54 34.56 
z
" style="fill:#ffffff;"/>
  </g>
  <g id="pane3d_1">
   <g id="patch_3">
    <path d="M 98.382914 203.953423 
L 194.204425 150.642062 
L 192.609099 48.772801 
L 91.44491 96.671962 
" style="fill:#f2f2f2;opacity:0.5;stroke:#f2f2f2;stroke-linejoin:miter;"/>
   </g>
  </g>
  <g id="pane3d_2">
   <g id="patch_4">
    <path d="M 194.204425 150.642062 
L 349.426265 180.446553 
L 355.920561 75.505466 
L 192.609099 48.772801 
" style="fill:#e6e6e6;opacity:0.5;stroke:#e6e6e6;stroke-linejoin:miter;"/>
   </g>
  </g>
  <g id="pane3d_3">
   <g id="patch_5">
    <path d="M 98.382914 203.953423 
L 261.697263 238.665609 
L 349.426265 180.446553 
L 194.204425 150.642062 
" style="fill:#ececec;opacity:0.5;stroke:#ececec;stroke-linejoin:miter;"/>
   </g>
  </g>
  <g id="axis3d_1">
   <g id="line2d_1">
    <path d="M 98.382914 203.953423 
L 261.697263 238.665609 
" style="fill:none;stroke:#000000;stroke-linecap:square;stroke-width:0.8;"/>
   </g>
   <g id="Line3DCollection_1">
    <path d="M 108.339611 206.069702 
L 203.697598 152.464867 
L 202.576615 50.404396 
" style="fill:none;stroke:#b0b0b0;stroke-width:0.8;"/>
    <path d="M 131.312391 210.952527 
L 225.586074 156.667722 
L 225.568906 54.168034 
" style="fill:none;stroke:#b0b0b0;stroke-width:0.8;"/>
    <path d="M 154.58857 215.899839 
L 247.742556 160.922038 
L 248.857097 57.980108 
" style="fill:none;stroke:#b0b0b0;stroke-width:0.8;"/>
    <path d="M 178.1742 220.912925 
L 270.171995 165.228764 
L 272.446939 61.84156 
" style="fill:none;stroke:#b0b0b0;stroke-width:0.8;"/>
    <path d="M 202.075491 225.993103 
L 292.879467 169.588876 
L 296.344331 65.753355 
" style="fill:none;stroke:#b0b0b0;stroke-width:0.8;"/>
    <path d="M 226.298825 231.141732 
L 315.870175 174.003373 
L 320.555327 69.716485 
" style="fill:none;stroke:#b0b0b0;stroke-width:0.8;"/>
    <path d="M 250.850753 236.360202 
L 339.14945 178.473279 
L 345.086139 73.731965 
" style="fill:none;stroke:#b0b0b0;stroke-width:0.8;"/>
   </g>
   <g id="xtick_1">
    <g id="line2d_2">
     <path d="M 109.161169 205.607869 
L 106.693431 206.995091 
" style="fill:none;stroke:#000000;stroke-linecap:square;stroke-width:0.8;"/>
    </g>
    <g id="text_1">
     <!-- −6 -->
     <defs>
      <path d="M 10.59375 35.5 
L 73.1875 35.5 
L 73.1875 27.203125 
L 10.59375 27.203125 
z
" id="DejaVuSans-2212"/>
      <path d="M 33.015625 40.375 
Q 26.375 40.375 22.484375 35.828125 
Q 18.609375 31.296875 18.609375 23.390625 
Q 18.609375 15.53125 22.484375 10.953125 
Q 26.375 6.390625 33.015625 6.390625 
Q 39.65625 6.390625 43.53125 10.953125 
Q 47.40625 15.53125 47.40625 23.390625 
Q 47.40625 31.296875 43.53125 35.828125 
Q 39.65625 40.375 33.015625 40.375 
z
M 52.59375 71.296875 
L 52.59375 62.3125 
Q 48.875 64.0625 45.09375 64.984375 
Q 41.3125 65.921875 37.59375 65.921875 
Q 27.828125 65.921875 22.671875 59.328125 
Q 17.53125 52.734375 16.796875 39.40625 
Q 19.671875 43.65625 24.015625 45.921875 
Q 28.375 48.1875 33.59375 48.1875 
Q 44.578125 48.1875 50.953125 41.515625 
Q 57.328125 34.859375 57.328125 23.390625 
Q 57.328125 12.15625 50.6875 5.359375 
Q 44.046875 -1.421875 33.015625 -1.421875 
Q 20.359375 -1.421875 13.671875 8.265625 
Q 6.984375 17.96875 6.984375 36.375 
Q 6.984375 53.65625 15.1875 63.9375 
Q 23.390625 74.21875 37.203125 74.21875 
Q 40.921875 74.21875 44.703125 73.484375 
Q 48.484375 72.75 52.59375 71.296875 
z
" id="DejaVuSans-36"/>
     </defs>
     <g transform="translate(93.221865 226.46444)scale(0.1 -0.1)">
      <use xlink:href="#DejaVuSans-2212"/>
      <use x="83.789062" xlink:href="#DejaVuSans-36"/>
     </g>
    </g>
   </g>
   <g id="xtick_2">
    <g id="line2d_3">
     <path d="M 132.124988 210.484617 
L 129.684147 211.890105 
" style="fill:none;stroke:#000000;stroke-linecap:square;stroke-width:0.8;"/>
    </g>
    <g id="text_2">
     <!-- −4 -->
     <defs>
      <path d="M 37.796875 64.3125 
L 12.890625 25.390625 
L 37.796875 25.390625 
z
M 35.203125 72.90625 
L 47.609375 72.90625 
L 47.609375 25.390625 
L 58.015625 25.390625 
L 58.015625 17.1875 
L 47.609375 17.1875 
L 47.609375 0 
L 37.796875 0 
L 37.796875 17.1875 
L 4.890625 17.1875 
L 4.890625 26.703125 
z
" id="DejaVuSans-34"/>
     </defs>
     <g transform="translate(116.191654 231.441574)scale(0.1 -0.1)">
      <use xlink:href="#DejaVuSans-2212"/>
      <use x="83.789062" xlink:href="#DejaVuSans-34"/>
     </g>
    </g>
   </g>
   <g id="xtick_3">
    <g id="line2d_4">
     <path d="M 155.391897 215.425731 
L 152.978882 216.849849 
" style="fill:none;stroke:#000000;stroke-linecap:square;stroke-width:0.8;"/>
    </g>
    <g id="text_3">
     <!-- −2 -->
     <defs>
      <path d="M 19.1875 8.296875 
L 53.609375 8.296875 
L 53.609375 0 
L 7.328125 0 
L 7.328125 8.296875 
Q 12.9375 14.109375 22.625 23.890625 
Q 32.328125 33.6875 34.8125 36.53125 
Q 39.546875 41.84375 41.421875 45.53125 
Q 43.3125 49.21875 43.3125 52.78125 
Q 43.3125 58.59375 39.234375 62.25 
Q 35.15625 65.921875 28.609375 65.921875 
Q 23.96875 65.921875 18.8125 64.3125 
Q 13.671875 62.703125 7.8125 59.421875 
L 7.8125 69.390625 
Q 13.765625 71.78125 18.9375 73 
Q 24.125 74.21875 28.421875 74.21875 
Q 39.75 74.21875 46.484375 68.546875 
Q 53.21875 62.890625 53.21875 53.421875 
Q 53.21875 48.921875 51.53125 44.890625 
Q 49.859375 40.875 45.40625 35.40625 
Q 44.1875 33.984375 37.640625 27.21875 
Q 31.109375 20.453125 19.1875 8.296875 
z
" id="DejaVuSans-32"/>
     </defs>
     <g transform="translate(139.46544 236.484579)scale(0.1 -0.1)">
      <use xlink:href="#DejaVuSans-2212"/>
      <use x="83.789062" xlink:href="#DejaVuSans-32"/>
     </g>
    </g>
   </g>
   <g id="xtick_4">
    <g id="line2d_5">
     <path d="M 178.967936 220.432494 
L 176.583706 221.875614 
" style="fill:none;stroke:#000000;stroke-linecap:square;stroke-width:0.8;"/>
    </g>
    <g id="text_4">
     <!-- 0 -->
     <defs>
      <path d="M 31.78125 66.40625 
Q 24.171875 66.40625 20.328125 58.90625 
Q 16.5 51.421875 16.5 36.375 
Q 16.5 21.390625 20.328125 13.890625 
Q 24.171875 6.390625 31.78125 6.390625 
Q 39.453125 6.390625 43.28125 13.890625 
Q 47.125 21.390625 47.125 36.375 
Q 47.125 51.421875 43.28125 58.90625 
Q 39.453125 66.40625 31.78125 66.40625 
z
M 31.78125 74.21875 
Q 44.046875 74.21875 50.515625 64.515625 
Q 56.984375 54.828125 56.984375 36.375 
Q 56.984375 17.96875 50.515625 8.265625 
Q 44.046875 -1.421875 31.78125 -1.421875 
Q 19.53125 -1.421875 13.0625 8.265625 
Q 6.59375 17.96875 6.59375 36.375 
Q 6.59375 54.828125 13.0625 64.515625 
Q 19.53125 74.21875 31.78125 74.21875 
z
" id="DejaVuSans-30"/>
     </defs>
     <g transform="translate(167.239142 241.59477)scale(0.1 -0.1)">
      <use xlink:href="#DejaVuSans-30"/>
     </g>
    </g>
   </g>
   <g id="xtick_5">
    <g id="line2d_6">
     <path d="M 202.859309 225.506223 
L 200.504853 226.968728 
" style="fill:none;stroke:#000000;stroke-linecap:square;stroke-width:0.8;"/>
    </g>
    <g id="text_5">
     <!-- 2 -->
     <g transform="translate(191.139311 246.773501)scale(0.1 -0.1)">
      <use xlink:href="#DejaVuSans-32"/>
     </g>
    </g>
   </g>
   <g id="xtick_6">
    <g id="line2d_7">
     <path d="M 227.072384 230.648271 
L 224.748724 232.130555 
" style="fill:none;stroke:#000000;stroke-linecap:square;stroke-width:0.8;"/>
    </g>
    <g id="text_6">
     <!-- 4 -->
     <g transform="translate(215.362197 252.022158)scale(0.1 -0.1)">
      <use xlink:href="#DejaVuSans-34"/>
     </g>
    </g>
   </g>
   <g id="xtick_7">
    <g id="line2d_8">
     <path d="M 251.613702 235.860027 
L 249.321894 237.362493 
" style="fill:none;stroke:#000000;stroke-linecap:square;stroke-width:0.8;"/>
    </g>
    <g id="text_7">
     <!-- 6 -->
     <g transform="translate(239.91438 257.342168)scale(0.1 -0.1)">
      <use xlink:href="#DejaVuSans-36"/>
     </g>
    </g>
   </g>
  </g>
  <g id="axis3d_2">
   <g id="line2d_9">
    <path d="M 349.426265 180.446553 
L 261.697263 238.665609 
" style="fill:none;stroke:#000000;stroke-linecap:square;stroke-width:0.8;"/>
   </g>
   <g id="Line3DCollection_2">
    <path d="M 98.371961 93.392146 
L 104.920339 200.316254 
L 267.701308 234.681182 
" style="fill:none;stroke:#b0b0b0;stroke-width:0.8;"/>
    <path d="M 113.939618 86.021181 
L 119.625088 192.135104 
L 281.196264 225.725608 
" style="fill:none;stroke:#b0b0b0;stroke-width:0.8;"/>
    <path d="M 129.148131 78.820263 
L 134.007634 184.133214 
L 294.382082 216.975185 
" style="fill:none;stroke:#b0b0b0;stroke-width:0.8;"/>
    <path d="M 144.009785 71.783576 
L 148.078453 176.304758 
L 307.269264 208.422944 
" style="fill:none;stroke:#b0b0b0;stroke-width:0.8;"/>
    <path d="M 158.536314 64.905563 
L 161.847569 168.644158 
L 319.867842 200.062227 
" style="fill:none;stroke:#b0b0b0;stroke-width:0.8;"/>
    <path d="M 172.738925 58.180919 
L 175.324585 161.146071 
L 332.187404 191.886672 
" style="fill:none;stroke:#b0b0b0;stroke-width:0.8;"/>
    <path d="M 186.628335 51.604569 
L 188.518696 153.805381 
L 344.237117 183.890196 
" style="fill:none;stroke:#b0b0b0;stroke-width:0.8;"/>
   </g>
   <g id="xtick_8">
    <g id="line2d_10">
     <path d="M 266.338974 234.393578 
L 270.42902 235.257033 
" style="fill:none;stroke:#000000;stroke-linecap:square;stroke-width:0.8;"/>
    </g>
    <g id="text_8">
     <!-- −6 -->
     <g transform="translate(273.765475 253.490052)scale(0.1 -0.1)">
      <use xlink:href="#DejaVuSans-2212"/>
      <use x="83.789062" xlink:href="#DejaVuSans-36"/>
     </g>
    </g>
   </g>
   <g id="xtick_9">
    <g id="line2d_11">
     <path d="M 279.844746 225.444629 
L 283.902285 226.288187 
" style="fill:none;stroke:#000000;stroke-linecap:square;stroke-width:0.8;"/>
    </g>
    <g id="text_9">
     <!-- −4 -->
     <g transform="translate(287.097178 244.409753)scale(0.1 -0.1)">
      <use xlink:href="#DejaVuSans-2212"/>
      <use x="83.789062" xlink:href="#DejaVuSans-34"/>
     </g>
    </g>
   </g>
   <g id="xtick_10">
    <g id="line2d_12">
     <path d="M 293.041244 216.700604 
L 297.066685 217.524946 
" style="fill:none;stroke:#000000;stroke-linecap:square;stroke-width:0.8;"/>
    </g>
    <g id="text_10">
     <!-- −2 -->
     <g transform="translate(300.123655 235.537346)scale(0.1 -0.1)">
      <use xlink:href="#DejaVuSans-2212"/>
      <use x="83.789062" xlink:href="#DejaVuSans-32"/>
     </g>
    </g>
   </g>
   <g id="xtick_11">
    <g id="line2d_13">
     <path d="M 305.938973 208.154545 
L 309.932719 208.96032 
" style="fill:none;stroke:#000000;stroke-linecap:square;stroke-width:0.8;"/>
    </g>
    <g id="text_11">
     <!-- 0 -->
     <g transform="translate(317.045112 226.865772)scale(0.1 -0.1)">
      <use xlink:href="#DejaVuSans-30"/>
     </g>
    </g>
   </g>
   <g id="xtick_12">
    <g id="line2d_14">
     <path d="M 318.547963 199.799805 
L 322.510418 200.587632 
" style="fill:none;stroke:#000000;stroke-linecap:square;stroke-width:0.8;"/>
    </g>
    <g id="text_12">
     <!-- 2 -->
     <g transform="translate(329.491762 218.388289)scale(0.1 -0.1)">
      <use xlink:href="#DejaVuSans-32"/>
     </g>
    </g>
   </g>
   <g id="xtick_13">
    <g id="line2d_15">
     <path d="M 330.877805 191.630028 
L 334.809367 192.400502 
" style="fill:none;stroke:#000000;stroke-linecap:square;stroke-width:0.8;"/>
    </g>
    <g id="text_13">
     <!-- 4 -->
     <g transform="translate(341.66291 210.098451)scale(0.1 -0.1)">
      <use xlink:href="#DejaVuSans-34"/>
     </g>
    </g>
   </g>
   <g id="xtick_14">
    <g id="line2d_16">
     <path d="M 342.937666 183.639142 
L 346.838731 184.392828 
" style="fill:none;stroke:#000000;stroke-linecap:square;stroke-width:0.8;"/>
    </g>
    <g id="text_14">
     <!-- 6 -->
     <g transform="translate(353.567603 201.990097)scale(0.1 -0.1)">
      <use xlink:href="#DejaVuSans-36"/>
     </g>
    </g>
   </g>
  </g>
  <g id="axis3d_3">
   <g id="line2d_17">
    <path d="M 349.426265 180.446553 
L 355.920561 75.505466 
" style="fill:none;stroke:#000000;stroke-linecap:square;stroke-width:0.8;"/>
   </g>
   <g id="Line3DCollection_3">
    <path d="M 349.549786 178.450589 
L 194.174017 148.700379 
L 98.251176 201.916388 
" style="fill:none;stroke:#b0b0b0;stroke-width:0.8;"/>
    <path d="M 350.618756 161.177135 
L 193.910968 131.903409 
L 97.110738 184.281931 
" style="fill:none;stroke:#b0b0b0;stroke-width:0.8;"/>
    <path d="M 351.706374 143.602354 
L 193.643523 114.82579 
L 95.949741 166.329595 
" style="fill:none;stroke:#b0b0b0;stroke-width:0.8;"/>
    <path d="M 352.813133 125.718291 
L 193.371573 97.46043 
L 94.767627 148.050708 
" style="fill:none;stroke:#b0b0b0;stroke-width:0.8;"/>
    <path d="M 353.93954 107.51671 
L 193.095001 79.799993 
L 93.563812 129.436276 
" style="fill:none;stroke:#b0b0b0;stroke-width:0.8;"/>
    <path d="M 355.086126 88.989079 
L 192.813689 61.836894 
L 92.337694 110.476977 
" style="fill:none;stroke:#b0b0b0;stroke-width:0.8;"/>
   </g>
   <g id="xtick_15">
    <g id="line2d_18">
     <path d="M 348.253397 178.202366 
L 352.14526 178.947551 
" style="fill:none;stroke:#000000;stroke-linecap:square;stroke-width:0.8;"/>
    </g>
    <g id="text_15">
     <!-- −15 -->
     <defs>
      <path d="M 12.40625 8.296875 
L 28.515625 8.296875 
L 28.515625 63.921875 
L 10.984375 60.40625 
L 10.984375 69.390625 
L 28.421875 72.90625 
L 38.28125 72.90625 
L 38.28125 8.296875 
L 54.390625 8.296875 
L 54.390625 0 
L 12.40625 0 
z
" id="DejaVuSans-31"/>
      <path d="M 10.796875 72.90625 
L 49.515625 72.90625 
L 49.515625 64.59375 
L 19.828125 64.59375 
L 19.828125 46.734375 
Q 21.96875 47.46875 24.109375 47.828125 
Q 26.265625 48.1875 28.421875 48.1875 
Q 40.625 48.1875 47.75 41.5 
Q 54.890625 34.8125 54.890625 23.390625 
Q 54.890625 11.625 47.5625 5.09375 
Q 40.234375 -1.421875 26.90625 -1.421875 
Q 22.3125 -1.421875 17.546875 -0.640625 
Q 12.796875 0.140625 7.71875 1.703125 
L 7.71875 11.625 
Q 12.109375 9.234375 16.796875 8.0625 
Q 21.484375 6.890625 26.703125 6.890625 
Q 35.15625 6.890625 40.078125 11.328125 
Q 45.015625 15.765625 45.015625 23.390625 
Q 45.015625 31 40.078125 35.4375 
Q 35.15625 39.890625 26.703125 39.890625 
Q 22.75 39.890625 18.8125 39.015625 
Q 14.890625 38.140625 10.796875 36.28125 
z
" id="DejaVuSans-35"/>
     </defs>
     <g transform="translate(358.406302 184.236663)scale(0.1 -0.1)">
      <use xlink:href="#DejaVuSans-2212"/>
      <use x="83.789062" xlink:href="#DejaVuSans-31"/>
      <use x="147.412109" xlink:href="#DejaVuSans-35"/>
     </g>
    </g>
   </g>
   <g id="xtick_16">
    <g id="line2d_19">
     <path d="M 349.310788 160.932801 
L 353.237437 161.666316 
" style="fill:none;stroke:#000000;stroke-linecap:square;stroke-width:0.8;"/>
    </g>
    <g id="text_16">
     <!-- −10 -->
     <g transform="translate(359.639944 166.991635)scale(0.1 -0.1)">
      <use xlink:href="#DejaVuSans-2212"/>
      <use x="83.789062" xlink:href="#DejaVuSans-31"/>
      <use x="147.412109" xlink:href="#DejaVuSans-30"/>
     </g>
    </g>
   </g>
   <g id="xtick_17">
    <g id="line2d_20">
     <path d="M 350.386619 143.362082 
L 354.348679 144.083405 
" style="fill:none;stroke:#000000;stroke-linecap:square;stroke-width:0.8;"/>
    </g>
    <g id="text_17">
     <!-- −5 -->
     <g transform="translate(364.0763 149.446549)scale(0.1 -0.1)">
      <use xlink:href="#DejaVuSans-2212"/>
      <use x="83.789062" xlink:href="#DejaVuSans-35"/>
     </g>
    </g>
   </g>
   <g id="xtick_18">
    <g id="line2d_21">
     <path d="M 351.481375 125.482263 
L 355.479491 126.19085 
" style="fill:none;stroke:#000000;stroke-linecap:square;stroke-width:0.8;"/>
    </g>
    <g id="text_18">
     <!-- 0 -->
     <g transform="translate(369.54328 131.593506)scale(0.1 -0.1)">
      <use xlink:href="#DejaVuSans-30"/>
     </g>
    </g>
   </g>
   <g id="xtick_19">
    <g id="line2d_22">
     <path d="M 352.595561 107.285115 
L 356.630394 107.980397 
" style="fill:none;stroke:#000000;stroke-linecap:square;stroke-width:0.8;"/>
    </g>
    <g id="text_19">
     <!-- 5 -->
     <g transform="translate(370.843031 113.424326)scale(0.1 -0.1)">
      <use xlink:href="#DejaVuSans-35"/>
     </g>
    </g>
   </g>
   <g id="xtick_20">
    <g id="line2d_23">
     <path d="M 353.729698 88.762115 
L 357.801929 89.4435 
" style="fill:none;stroke:#000000;stroke-linecap:square;stroke-width:0.8;"/>
    </g>
    <g id="text_20">
     <!-- 10 -->
     <g transform="translate(368.984754 94.930536)scale(0.1 -0.1)">
      <use xlink:href="#DejaVuSans-31"/>
      <use x="63.623047" xlink:href="#DejaVuSans-30"/>
     </g>
    </g>
   </g>
  </g>
  <g id="axes_1">
   <g id="Poly3DCollection_1">
    <path clip-path="url(#p0b89e29bde)" d="M 114.732161 200.377425 
L 119.450734 201.370866 
L 124.182018 202.366983 
L 128.926062 203.365787 
L 133.68292 204.367288 
L 138.452643 205.371498 
L 143.235283 206.378428 
L 148.030893 207.388089 
L 152.839526 208.400491 
L 157.661234 209.415646 
L 162.496072 210.433565 
L 167.344092 211.45426 
L 172.20535 212.477742 
L 177.079898 213.504022 
L 181.967793 214.533111 
L 186.869088 215.565023 
L 191.783839 216.599767 
L 196.712101 217.637355 
L 201.65393 218.677801 
L 206.609382 219.721114 
L 211.578514 220.767307 
L 216.561383 221.816393 
L 221.558045 222.868382 
L 226.568557 223.923288 
L 231.592978 224.981122 
L 236.631365 226.041896 
L 241.683777 227.105623 
L 246.750272 228.172315 
L 251.83091 229.241985 
L 256.925749 230.314645 
L 259.815879 225.497728 
L 262.70082 220.689458 
L 265.580587 215.889811 
L 268.455195 211.098765 
L 271.324656 206.316295 
L 274.188985 201.54238 
L 277.048195 196.776995 
L 279.9023 192.020119 
L 282.751314 187.271729 
L 285.59525 182.531801 
L 288.434123 177.800313 
L 291.267944 173.077243 
L 294.096729 168.362568 
L 296.92049 163.656266 
L 299.73924 158.958315 
L 302.552994 154.268692 
L 305.361764 149.587375 
L 308.165563 144.914343 
L 310.964405 140.249573 
L 313.758303 135.593043 
L 316.54727 130.944732 
L 319.331319 126.304617 
L 322.110462 121.672677 
L 324.884714 117.048892 
L 327.654087 112.433238 
L 330.418593 107.825694 
L 333.178245 103.22624 
L 335.933057 98.634854 
L 338.683041 94.051515 
L 333.606287 93.191429 
L 328.543325 92.33368 
L 323.4941 91.478258 
L 318.458556 90.625153 
L 313.436636 89.774357 
L 308.428287 88.92586 
L 303.433452 88.079653 
L 298.452077 87.235726 
L 293.484109 86.39407 
L 288.529492 85.554676 
L 283.588174 84.717536 
L 278.6601 83.882639 
L 273.745218 83.049977 
L 268.843474 82.21954 
L 263.954817 81.391321 
L 259.079193 80.56531 
L 254.216551 79.741498 
L 249.366838 78.919877 
L 244.530004 78.100437 
L 239.705997 77.283171 
L 234.894766 76.468069 
L 230.096261 75.655123 
L 225.31043 74.844325 
L 220.537225 74.035665 
L 215.776594 73.229136 
L 211.028489 72.424728 
L 206.29286 71.622435 
L 201.569658 70.822246 
L 196.858834 70.024155 
L 194.09378 74.412909 
L 191.324057 78.809074 
L 188.549653 83.212671 
L 185.770555 87.623716 
L 182.986751 92.04223 
L 180.198231 96.468232 
L 177.404981 100.90174 
L 174.60699 105.342773 
L 171.804245 109.791351 
L 168.996735 114.247493 
L 166.184447 118.711219 
L 163.367369 123.182547 
L 160.54549 127.661497 
L 157.718795 132.148089 
L 154.887274 136.642341 
L 152.050914 141.144275 
L 149.209702 145.653909 
L 146.363626 150.171264 
L 143.512674 154.696358 
L 140.656833 159.229213 
L 137.796089 163.769847 
L 134.930432 168.318282 
L 132.059848 172.874537 
L 129.184324 177.438632 
L 126.303847 182.010588 
L 123.418406 186.590424 
L 120.527986 191.178162 
L 117.632575 195.773822 
L 114.732161 200.377425 
z
" style="fill:#606000;fill-opacity:0.3;"/>
   </g>
   <g id="Poly3DCollection_2">
    <path clip-path="url(#p0b89e29bde)" d="M 110.021767 116.680183 
L 115.018553 119.16831 
L 120.021722 121.659615 
L 125.031287 124.154104 
L 130.047259 126.651785 
L 135.069652 129.152662 
L 140.098478 131.656743 
L 145.133748 134.164032 
L 150.175475 136.674537 
L 155.223673 139.188264 
L 160.278352 141.705218 
L 165.339526 144.225407 
L 170.407208 146.748836 
L 175.481409 149.275511 
L 180.562142 151.805439 
L 185.649421 154.338625 
L 190.743257 156.875078 
L 195.843664 159.414802 
L 200.950653 161.957804 
L 206.064238 164.50409 
L 211.184432 167.053667 
L 216.311247 169.606541 
L 221.444697 172.162719 
L 226.584794 174.722206 
L 231.73155 177.28501 
L 236.88498 179.851137 
L 242.045096 182.420592 
L 247.211911 184.993384 
L 252.385437 187.569518 
L 257.565689 190.149001 
L 260.461249 188.353772 
L 263.34257 186.56737 
L 266.209758 184.789731 
L 269.062917 183.02079 
L 271.902149 181.260483 
L 274.727556 179.508748 
L 277.539239 177.765522 
L 280.337298 176.030743 
L 283.12183 174.304349 
L 285.892935 172.586281 
L 288.650709 170.876478 
L 291.395248 169.174881 
L 294.126648 167.48143 
L 296.845001 165.796067 
L 299.550402 164.118736 
L 302.242942 162.449377 
L 304.922714 160.787935 
L 307.589808 159.134353 
L 310.244313 157.488576 
L 312.886319 155.850548 
L 315.515914 154.220215 
L 318.133185 152.597524 
L 320.738218 150.982419 
L 323.331098 149.374849 
L 325.911912 147.77476 
L 328.480743 146.182101 
L 331.037673 144.596819 
L 333.582787 143.018865 
L 336.116164 141.448186 
L 331.234443 139.070583 
L 326.358637 136.695861 
L 321.488734 134.324014 
L 316.624723 131.955037 
L 311.766596 129.588924 
L 306.914339 127.225672 
L 302.067944 124.865274 
L 297.227399 122.507725 
L 292.392694 120.153021 
L 287.563818 117.801156 
L 282.74076 115.452124 
L 277.923511 113.105922 
L 273.112059 110.762543 
L 268.306394 108.421983 
L 263.506507 106.084236 
L 258.712385 103.749297 
L 253.92402 101.417162 
L 249.1414 99.087826 
L 244.364515 96.761282 
L 239.593355 94.437527 
L 234.82791 92.116556 
L 230.068169 89.798362 
L 225.314123 87.482942 
L 220.56576 85.17029 
L 215.823071 82.860401 
L 211.086046 80.553271 
L 206.354674 78.248895 
L 201.628946 75.947267 
L 196.908851 73.648382 
L 194.103246 75.037889 
L 191.28487 76.433722 
L 188.453635 77.835922 
L 185.609454 79.244535 
L 182.752238 80.659603 
L 179.881895 82.081172 
L 176.998337 83.509287 
L 174.101471 84.943992 
L 171.191205 86.385334 
L 168.267446 87.833358 
L 165.3301 89.288112 
L 162.379072 90.749642 
L 159.414265 92.217995 
L 156.435584 93.693221 
L 153.442931 95.175366 
L 150.436206 96.66448 
L 147.415312 98.160611 
L 144.380147 99.663811 
L 141.330609 101.174129 
L 138.266597 102.691615 
L 135.188008 104.216321 
L 132.094736 105.748298 
L 128.986677 107.287599 
L 125.863725 108.834276 
L 122.725772 110.388383 
L 119.572709 111.949972 
L 116.404428 113.519099 
L 113.220818 115.095817 
L 110.021767 116.680183 
z
" style="fill:#600060;fill-opacity:0.3;"/>
   </g>
   <g id="Poly3DCollection_3">
    <path clip-path="url(#p0b89e29bde)" d="M 113.940661 186.313551 
L 118.612667 185.82744 
L 123.304276 185.339289 
L 128.015611 184.849086 
L 132.746797 184.356817 
L 137.49796 183.86247 
L 142.269226 183.366031 
L 147.060724 182.867487 
L 151.872582 182.366825 
L 156.70493 181.86403 
L 161.5579 181.35909 
L 166.431623 180.851991 
L 171.326234 180.342719 
L 176.241866 179.831259 
L 181.178656 179.317597 
L 186.136741 178.801721 
L 191.116257 178.283614 
L 196.117346 177.763262 
L 201.140147 177.240652 
L 206.184801 176.715768 
L 211.251453 176.188594 
L 216.340245 175.659118 
L 221.451324 175.127322 
L 226.584836 174.593192 
L 231.74093 174.056713 
L 236.919754 173.517869 
L 242.121459 172.976644 
L 247.346197 172.433022 
L 252.594122 171.886988 
L 257.865388 171.338525 
L 260.81484 168.002961 
L 263.754239 164.678768 
L 266.683634 161.365887 
L 269.603078 158.06426 
L 272.51262 154.773831 
L 275.412312 151.494543 
L 278.302202 148.226339 
L 281.182341 144.969162 
L 284.052777 141.722959 
L 286.91356 138.487672 
L 289.764739 135.263247 
L 292.606361 132.049629 
L 295.438475 128.846765 
L 298.261128 125.6546 
L 301.074368 122.47308 
L 303.878241 119.302154 
L 306.672795 116.141767 
L 309.458075 112.991867 
L 312.234128 109.852402 
L 315.000999 106.723321 
L 317.758735 103.604572 
L 320.507379 100.496103 
L 323.246978 97.397865 
L 325.977576 94.309807 
L 328.699216 91.231878 
L 331.411943 88.164029 
L 334.115801 85.10621 
L 336.810833 82.058373 
L 339.497083 79.020468 
L 334.301784 79.738255 
L 329.128408 80.453014 
L 323.976816 81.164762 
L 318.846871 81.87352 
L 313.738436 82.579306 
L 308.651376 83.282139 
L 303.585558 83.982037 
L 298.540849 84.679019 
L 293.517116 85.373102 
L 288.514231 86.064306 
L 283.532062 86.752647 
L 278.570482 87.438143 
L 273.629363 88.120813 
L 268.708579 88.800673 
L 263.808005 89.477741 
L 258.927516 90.152033 
L 254.066989 90.823568 
L 249.226302 91.492362 
L 244.405334 92.158431 
L 239.603965 92.821793 
L 234.822074 93.482463 
L 230.059545 94.140459 
L 225.316259 94.795795 
L 220.592101 95.44849 
L 215.886954 96.098557 
L 211.200704 96.746014 
L 206.533238 97.390875 
L 201.884443 98.033157 
L 197.254206 98.672874 
L 194.505001 101.564868 
L 191.747329 104.465767 
L 188.981151 107.375615 
L 186.206428 110.294451 
L 183.42312 113.222319 
L 180.631187 116.159259 
L 177.830589 119.105314 
L 175.021286 122.060526 
L 172.203236 125.024939 
L 169.3764 127.998596 
L 166.540736 130.981538 
L 163.696202 133.973812 
L 160.842756 136.975459 
L 157.980358 139.986524 
L 155.108964 143.007052 
L 152.228533 146.037087 
L 149.339021 149.076674 
L 146.440385 152.125859 
L 143.532583 155.184686 
L 140.61557 158.253203 
L 137.689303 161.331454 
L 134.753737 164.419487 
L 131.808829 167.517347 
L 128.854533 170.625083 
L 125.890805 173.742741 
L 122.9176 176.870368 
L 119.934871 180.008014 
L 116.942573 183.155725 
L 113.940661 186.313551 
z
" style="fill:#000080;fill-opacity:0.3;"/>
   </g>
  </g>
 </g>
 <defs>
  <clipPath id="p0b89e29bde">
   <rect height="217.44" width="334.8" x="54" y="34.56"/>
  </clipPath>
 </defs>
</svg>
