<?xml version="1.0" encoding="utf-8" standalone="no"?>
<!DOCTYPE svg PUBLIC "-//W3C//DTD SVG 1.1//EN"
  "http://www.w3.org/Graphics/SVG/1.1/DTD/svg11.dtd">
<!-- Created with matplotlib (http://matplotlib.org/) -->
<svg height="288pt" version="1.1" viewBox="0 0 432 288" width="432pt" xmlns="http://www.w3.org/2000/svg" xmlns:xlink="http://www.w3.org/1999/xlink">
 <defs>
  <style type="text/css">
*{stroke-linecap:butt;stroke-linejoin:round;}
  </style>
 </defs>
 <g id="figure_1">
  <g id="patch_1">
   <path d="M 0 288 
L 432 288 
L 432 0 
L 0 0 
z
" style="fill:#ffffff;"/>
  </g>
  <g id="patch_2">
   <path d="M 54 252 
L 388.8 252 
L 388.8 34.56 
L 54 34.56 
z
" style="fill:#ffffff;"/>
  </g>
  <g id="pane3d_1">
   <g id="patch_3">
    <path d="M 98.382914 203.953423 
L 194.204425 150.642062 
L 192.609099 48.772801 
L 91.44491 96.671962 
" style="fill:#f2f2f2;opacity:0.5;stroke:#f2f2f2;stroke-linejoin:miter;"/>
   </g>
  </g>
  <g id="pane3d_2">
   <g id="patch_4">
    <path d="M 194.204425 150.642062 
L 349.426265 180.446553 
L 355.920561 75.505466 
L 192.609099 48.772801 
" style="fill:#e6e6e6;opacity:0.5;stroke:#e6e6e6;stroke-linejoin:miter;"/>
   </g>
  </g>
  <g id="pane3d_3">
   <g id="patch_5">
    <path d="M 98.382914 203.953423 
L 261.697263 238.665609 
L 349.426265 180.446553 
L 194.204425 150.642062 
" style="fill:#ececec;opacity:0.5;stroke:#ececec;stroke-linejoin:miter;"/>
   </g>
  </g>
  <g id="axis3d_1">
   <g id="line2d_1">
    <path d="M 98.382914 203.953423 
L 261.697263 238.665609 
" style="fill:none;stroke:#000000;stroke-linecap:square;stroke-width:0.8;"/>
   </g>
   <g id="Line3DCollection_1">
    <path d="M 108.339611 206.069702 
L 203.697598 152.464867 
L 202.576615 50.404396 
" style="fill:none;stroke:#b0b0b0;stroke-width:0.8;"/>
    <path d="M 131.312391 210.952527 
L 225.586074 156.667722 
L 225.568906 54.168034 
" style="fill:none;stroke:#b0b0b0;stroke-width:0.8;"/>
    <path d="M 154.58857 215.899839 
L 247.742556 160.922038 
L 248.857097 57.980108 
" style="fill:none;stroke:#b0b0b0;stroke-width:0.8;"/>
    <path d="M 178.1742 220.912925 
L 270.171995 165.228764 
L 272.446939 61.84156 
" style="fill:none;stroke:#b0b0b0;stroke-width:0.8;"/>
    <path d="M 202.075491 225.993103 
L 292.879467 169.588876 
L 296.344331 65.753355 
" style="fill:none;stroke:#b0b0b0;stroke-width:0.8;"/>
    <path d="M 226.298825 231.141732 
L 315.870175 174.003373 
L 320.555327 69.716485 
" style="fill:none;stroke:#b0b0b0;stroke-width:0.8;"/>
    <path d="M 250.850753 236.360202 
L 339.14945 178.473279 
L 345.086139 73.731965 
" style="fill:none;stroke:#b0b0b0;stroke-width:0.8;"/>
   </g>
   <g id="xtick_1">
    <g id="line2d_2">
     <path d="M 109.161169 205.607869 
L 106.693431 206.995091 
" style="fill:none;stroke:#000000;stroke-linecap:square;stroke-width:0.8;"/>
    </g>
    <g id="text_1">
     <!-- −6 -->
     <defs>
      <path d="M 10.59375 35.5 
L 73.1875 35.5 
L 73.1875 27.203125 
L 10.59375 27.203125 
z
" id="DejaVuSans-2212"/>
      <path d="M 33.015625 40.375 
Q 26.375 40.375 22.484375 35.828125 
Q 18.609375 31.296875 18.609375 23.390625 
Q 18.609375 15.53125 22.484375 10.953125 
Q 26.375 6.390625 33.015625 6.390625 
Q 39.65625 6.390625 43.53125 10.953125 
Q 47.40625 15.53125 47.40625 23.390625 
Q 47.40625 31.296875 43.53125 35.828125 
Q 39.65625 40.375 33.015625 40.375 
z
M 52.59375 71.296875 
L 52.59375 62.3125 
Q 48.875 64.0625 45.09375 64.984375 
Q 41.3125 65.921875 37.59375 65.921875 
Q 27.828125 65.921875 22.671875 59.328125 
Q 17.53125 52.734375 16.796875 39.40625 
Q 19.671875 43.65625 24.015625 45.921875 
Q 28.375 48.1875 33.59375 48.1875 
Q 44.578125 48.1875 50.953125 41.515625 
Q 57.328125 34.859375 57.328125 23.390625 
Q 57.328125 12.15625 50.6875 5.359375 
Q 44.046875 -1.421875 33.015625 -1.421875 
Q 20.359375 -1.421875 13.671875 8.265625 
Q 6.984375 17.96875 6.984375 36.375 
Q 6.984375 53.65625 15.1875 63.9375 
Q 23.390625 74.21875 37.203125 74.21875 
Q 40.921875 74.21875 44.703125 73.484375 
Q 48.484375 72.75 52.59375 71.296875 
z
" id="DejaVuSans-36"/>
     </defs>
     <g transform="translate(93.221865 226.46444)scale(0.1 -0.1)">
      <use xlink:href="#DejaVuSans-2212"/>
      <use x="83.789062" xlink:href="#DejaVuSans-36"/>
     </g>
    </g>
   </g>
   <g id="xtick_2">
    <g id="line2d_3">
     <path d="M 132.124988 210.484617 
L 129.684147 211.890105 
" style="fill:none;stroke:#000000;stroke-linecap:square;stroke-width:0.8;"/>
    </g>
    <g id="text_2">
     <!-- −4 -->
     <defs>
      <path d="M 37.796875 64.3125 
L 12.890625 25.390625 
L 37.796875 25.390625 
z
M 35.203125 72.90625 
L 47.609375 72.90625 
L 47.609375 25.390625 
L 58.015625 25.390625 
L 58.015625 17.1875 
L 47.609375 17.1875 
L 47.609375 0 
L 37.796875 0 
L 37.796875 17.1875 
L 4.890625 17.1875 
L 4.890625 26.703125 
z
" id="DejaVuSans-34"/>
     </defs>
     <g transform="translate(116.191654 231.441574)scale(0.1 -0.1)">
      <use xlink:href="#DejaVuSans-2212"/>
      <use x="83.789062" xlink:href="#DejaVuSans-34"/>
     </g>
    </g>
   </g>
   <g id="xtick_3">
    <g id="line2d_4">
     <path d="M 155.391897 215.425731 
L 152.978882 216.849849 
" style="fill:none;stroke:#000000;stroke-linecap:square;stroke-width:0.8;"/>
    </g>
    <g id="text_3">
     <!-- −2 -->
     <defs>
      <path d="M 19.1875 8.296875 
L 53.609375 8.296875 
L 53.609375 0 
L 7.328125 0 
L 7.328125 8.296875 
Q 12.9375 14.109375 22.625 23.890625 
Q 32.328125 33.6875 34.8125 36.53125 
Q 39.546875 41.84375 41.421875 45.53125 
Q 43.3125 49.21875 43.3125 52.78125 
Q 43.3125 58.59375 39.234375 62.25 
Q 35.15625 65.921875 28.609375 65.921875 
Q 23.96875 65.921875 18.8125 64.3125 
Q 13.671875 62.703125 7.8125 59.421875 
L 7.8125 69.390625 
Q 13.765625 71.78125 18.9375 73 
Q 24.125 74.21875 28.421875 74.21875 
Q 39.75 74.21875 46.484375 68.546875 
Q 53.21875 62.890625 53.21875 53.421875 
Q 53.21875 48.921875 51.53125 44.890625 
Q 49.859375 40.875 45.40625 35.40625 
Q 44.1875 33.984375 37.640625 27.21875 
Q 31.109375 20.453125 19.1875 8.296875 
z
" id="DejaVuSans-32"/>
     </defs>
     <g transform="translate(139.46544 236.484579)scale(0.1 -0.1)">
      <use xlink:href="#DejaVuSans-2212"/>
      <use x="83.789062" xlink:href="#DejaVuSans-32"/>
     </g>
    </g>
   </g>
   <g id="xtick_4">
    <g id="line2d_5">
     <path d="M 178.967936 220.432494 
L 176.583706 221.875614 
" style="fill:none;stroke:#000000;stroke-linecap:square;stroke-width:0.8;"/>
    </g>
    <g id="text_4">
     <!-- 0 -->
     <defs>
      <path d="M 31.78125 66.40625 
Q 24.171875 66.40625 20.328125 58.90625 
Q 16.5 51.421875 16.5 36.375 
Q 16.5 21.390625 20.328125 13.890625 
Q 24.171875 6.390625 31.78125 6.390625 
Q 39.453125 6.390625 43.28125 13.890625 
Q 47.125 21.390625 47.125 36.375 
Q 47.125 51.421875 43.28125 58.90625 
Q 39.453125 66.40625 31.78125 66.40625 
z
M 31.78125 74.21875 
Q 44.046875 74.21875 50.515625 64.515625 
Q 56.984375 54.828125 56.984375 36.375 
Q 56.984375 17.96875 50.515625 8.265625 
Q 44.046875 -1.421875 31.78125 -1.421875 
Q 19.53125 -1.421875 13.0625 8.265625 
Q 6.59375 17.96875 6.59375 36.375 
Q 6.59375 54.828125 13.0625 64.515625 
Q 19.53125 74.21875 31.78125 74.21875 
z
" id="DejaVuSans-30"/>
     </defs>
     <g transform="translate(167.239142 241.59477)scale(0.1 -0.1)">
      <use xlink:href="#DejaVuSans-30"/>
     </g>
    </g>
   </g>
   <g id="xtick_5">
    <g id="line2d_6">
     <path d="M 202.859309 225.506223 
L 200.504853 226.968728 
" style="fill:none;stroke:#000000;stroke-linecap:square;stroke-width:0.8;"/>
    </g>
    <g id="text_5">
     <!-- 2 -->
     <g transform="translate(191.139311 246.773501)scale(0.1 -0.1)">
      <use xlink:href="#DejaVuSans-32"/>
     </g>
    </g>
   </g>
   <g id="xtick_6">
    <g id="line2d_7">
     <path d="M 227.072384 230.648271 
L 224.748724 232.130555 
" style="fill:none;stroke:#000000;stroke-linecap:square;stroke-width:0.8;"/>
    </g>
    <g id="text_6">
     <!-- 4 -->
     <g transform="translate(215.362197 252.022158)scale(0.1 -0.1)">
      <use xlink:href="#DejaVuSans-34"/>
     </g>
    </g>
   </g>
   <g id="xtick_7">
    <g id="line2d_8">
     <path d="M 251.613702 235.860027 
L 249.321894 237.362493 
" style="fill:none;stroke:#000000;stroke-linecap:square;stroke-width:0.8;"/>
    </g>
    <g id="text_7">
     <!-- 6 -->
     <g transform="translate(239.91438 257.342168)scale(0.1 -0.1)">
      <use xlink:href="#DejaVuSans-36"/>
     </g>
    </g>
   </g>
  </g>
  <g id="axis3d_2">
   <g id="line2d_9">
    <path d="M 349.426265 180.446553 
L 261.697263 238.665609 
" style="fill:none;stroke:#000000;stroke-linecap:square;stroke-width:0.8;"/>
   </g>
   <g id="Line3DCollection_2">
    <path d="M 98.371961 93.392146 
L 104.920339 200.316254 
L 267.701308 234.681182 
" style="fill:none;stroke:#b0b0b0;stroke-width:0.8;"/>
    <path d="M 113.939618 86.021181 
L 119.625088 192.135104 
L 281.196264 225.725608 
" style="fill:none;stroke:#b0b0b0;stroke-width:0.8;"/>
    <path d="M 129.148131 78.820263 
L 134.007634 184.133214 
L 294.382082 216.975185 
" style="fill:none;stroke:#b0b0b0;stroke-width:0.8;"/>
    <path d="M 144.009785 71.783576 
L 148.078453 176.304758 
L 307.269264 208.422944 
" style="fill:none;stroke:#b0b0b0;stroke-width:0.8;"/>
    <path d="M 158.536314 64.905563 
L 161.847569 168.644158 
L 319.867842 200.062227 
" style="fill:none;stroke:#b0b0b0;stroke-width:0.8;"/>
    <path d="M 172.738925 58.180919 
L 175.324585 161.146071 
L 332.187404 191.886672 
" style="fill:none;stroke:#b0b0b0;stroke-width:0.8;"/>
    <path d="M 186.628335 51.604569 
L 188.518696 153.805381 
L 344.237117 183.890196 
" style="fill:none;stroke:#b0b0b0;stroke-width:0.8;"/>
   </g>
   <g id="xtick_8">
    <g id="line2d_10">
     <path d="M 266.338974 234.393578 
L 270.42902 235.257033 
" style="fill:none;stroke:#000000;stroke-linecap:square;stroke-width:0.8;"/>
    </g>
    <g id="text_8">
     <!-- −6 -->
     <g transform="translate(273.765475 253.490052)scale(0.1 -0.1)">
      <use xlink:href="#DejaVuSans-2212"/>
      <use x="83.789062" xlink:href="#DejaVuSans-36"/>
     </g>
    </g>
   </g>
   <g id="xtick_9">
    <g id="line2d_11">
     <path d="M 279.844746 225.444629 
L 283.902285 226.288187 
" style="fill:none;stroke:#000000;stroke-linecap:square;stroke-width:0.8;"/>
    </g>
    <g id="text_9">
     <!-- −4 -->
     <g transform="translate(287.097178 244.409753)scale(0.1 -0.1)">
      <use xlink:href="#DejaVuSans-2212"/>
      <use x="83.789062" xlink:href="#DejaVuSans-34"/>
     </g>
    </g>
   </g>
   <g id="xtick_10">
    <g id="line2d_12">
     <path d="M 293.041244 216.700604 
L 297.066685 217.524946 
" style="fill:none;stroke:#000000;stroke-linecap:square;stroke-width:0.8;"/>
    </g>
    <g id="text_10">
     <!-- −2 -->
     <g transform="translate(300.123655 235.537346)scale(0.1 -0.1)">
      <use xlink:href="#DejaVuSans-2212"/>
      <use x="83.789062" xlink:href="#DejaVuSans-32"/>
     </g>
    </g>
   </g>
   <g id="xtick_11">
    <g id="line2d_13">
     <path d="M 305.938973 208.154545 
L 309.932719 208.96032 
" style="fill:none;stroke:#000000;stroke-linecap:square;stroke-width:0.8;"/>
    </g>
    <g id="text_11">
     <!-- 0 -->
     <g transform="translate(317.045112 226.865772)scale(0.1 -0.1)">
      <use xlink:href="#DejaVuSans-30"/>
     </g>
    </g>
   </g>
   <g id="xtick_12">
    <g id="line2d_14">
     <path d="M 318.547963 199.799805 
L 322.510418 200.587632 
" style="fill:none;stroke:#000000;stroke-linecap:square;stroke-width:0.8;"/>
    </g>
    <g id="text_12">
     <!-- 2 -->
     <g transform="translate(329.491762 218.388289)scale(0.1 -0.1)">
      <use xlink:href="#DejaVuSans-32"/>
     </g>
    </g>
   </g>
   <g id="xtick_13">
    <g id="line2d_15">
     <path d="M 330.877805 191.630028 
L 334.809367 192.400502 
" style="fill:none;stroke:#000000;stroke-linecap:square;stroke-width:0.8;"/>
    </g>
    <g id="text_13">
     <!-- 4 -->
     <g transform="translate(341.66291 210.098451)scale(0.1 -0.1)">
      <use xlink:href="#DejaVuSans-34"/>
     </g>
    </g>
   </g>
   <g id="xtick_14">
    <g id="line2d_16">
     <path d="M 342.937666 183.639142 
L 346.838731 184.392828 
" style="fill:none;stroke:#000000;stroke-linecap:square;stroke-width:0.8;"/>
    </g>
    <g id="text_14">
     <!-- 6 -->
     <g transform="translate(353.567603 201.990097)scale(0.1 -0.1)">
      <use xlink:href="#DejaVuSans-36"/>
     </g>
    </g>
   </g>
  </g>
  <g id="axis3d_3">
   <g id="line2d_17">
    <path d="M 349.426265 180.446553 
L 355.920561 75.505466 
" style="fill:none;stroke:#000000;stroke-linecap:square;stroke-width:0.8;"/>
   </g>
   <g id="Line3DCollection_3">
    <path d="M 349.549786 178.450589 
L 194.174017 148.700379 
L 98.251176 201.916388 
" style="fill:none;stroke:#b0b0b0;stroke-width:0.8;"/>
    <path d="M 350.546917 162.337987 
L 193.92864 133.031861 
L 97.1874 185.467357 
" style="fill:none;stroke:#b0b0b0;stroke-width:0.8;"/>
    <path d="M 351.560264 145.963351 
L 193.679441 117.119274 
L 96.105749 168.741915 
" style="fill:none;stroke:#b0b0b0;stroke-width:0.8;"/>
    <path d="M 352.590226 129.320237 
L 193.426329 100.95687 
L 95.005767 151.733036 
" style="fill:none;stroke:#b0b0b0;stroke-width:0.8;"/>
    <path d="M 353.637214 112.401987 
L 193.169212 84.538718 
L 93.886985 134.433454 
" style="fill:none;stroke:#b0b0b0;stroke-width:0.8;"/>
    <path d="M 354.701655 95.201723 
L 192.907994 67.858702 
L 92.748917 116.835652 
" style="fill:none;stroke:#b0b0b0;stroke-width:0.8;"/>
    <path d="M 355.783989 77.712332 
L 192.642576 50.910504 
L 91.591059 98.931851 
" style="fill:none;stroke:#b0b0b0;stroke-width:0.8;"/>
   </g>
   <g id="xtick_15">
    <g id="line2d_18">
     <path d="M 348.253397 178.202366 
L 352.14526 178.947551 
" style="fill:none;stroke:#000000;stroke-linecap:square;stroke-width:0.8;"/>
    </g>
    <g id="text_15">
     <!-- −6 -->
     <g transform="translate(361.587552 184.236663)scale(0.1 -0.1)">
      <use xlink:href="#DejaVuSans-2212"/>
      <use x="83.789062" xlink:href="#DejaVuSans-36"/>
     </g>
    </g>
   </g>
   <g id="xtick_16">
    <g id="line2d_19">
     <path d="M 349.239727 162.093388 
L 353.164037 162.827698 
" style="fill:none;stroke:#000000;stroke-linecap:square;stroke-width:0.8;"/>
    </g>
    <g id="text_16">
     <!-- −4 -->
     <g transform="translate(362.738289 168.150553)scale(0.1 -0.1)">
      <use xlink:href="#DejaVuSans-2212"/>
      <use x="83.789062" xlink:href="#DejaVuSans-34"/>
     </g>
    </g>
   </g>
   <g id="xtick_17">
    <g id="line2d_20">
     <path d="M 350.242092 145.722527 
L 354.199394 146.445507 
" style="fill:none;stroke:#000000;stroke-linecap:square;stroke-width:0.8;"/>
    </g>
    <g id="text_17">
     <!-- −2 -->
     <g transform="translate(363.907692 151.803512)scale(0.1 -0.1)">
      <use xlink:href="#DejaVuSans-2212"/>
      <use x="83.789062" xlink:href="#DejaVuSans-32"/>
     </g>
    </g>
   </g>
   <g id="xtick_18">
    <g id="line2d_21">
     <path d="M 351.260886 129.083345 
L 355.251738 129.794525 
" style="fill:none;stroke:#000000;stroke-linecap:square;stroke-width:0.8;"/>
    </g>
    <g id="text_18">
     <!-- 0 -->
     <g transform="translate(369.286062 135.18914)scale(0.1 -0.1)">
      <use xlink:href="#DejaVuSans-30"/>
     </g>
    </g>
   </g>
   <g id="xtick_19">
    <g id="line2d_22">
     <path d="M 352.296516 112.169192 
L 356.321492 112.868079 
" style="fill:none;stroke:#000000;stroke-linecap:square;stroke-width:0.8;"/>
    </g>
    <g id="text_19">
     <!-- 2 -->
     <g transform="translate(370.494186 118.300825)scale(0.1 -0.1)">
      <use xlink:href="#DejaVuSans-32"/>
     </g>
    </g>
   </g>
   <g id="xtick_20">
    <g id="line2d_23">
     <path d="M 353.349403 94.973193 
L 357.409091 95.659277 
" style="fill:none;stroke:#000000;stroke-linecap:square;stroke-width:0.8;"/>
    </g>
    <g id="text_20">
     <!-- 4 -->
     <g transform="translate(371.722395 101.131735)scale(0.1 -0.1)">
      <use xlink:href="#DejaVuSans-34"/>
     </g>
    </g>
   </g>
   <g id="xtick_21">
    <g id="line2d_24">
     <path d="M 354.419981 77.488245 
L 358.514985 78.160996 
" style="fill:none;stroke:#000000;stroke-linecap:square;stroke-width:0.8;"/>
    </g>
    <g id="text_21">
     <!-- 6 -->
     <g transform="translate(372.971195 83.67481)scale(0.1 -0.1)">
      <use xlink:href="#DejaVuSans-36"/>
     </g>
    </g>
   </g>
  </g>
  <g id="axes_1">
   <g id="Poly3DCollection_1">
    <path clip-path="url(#p19b9ea959d)" d="M 114.732161 200.377425 
L 119.450734 201.370866 
L 124.182018 202.366983 
L 128.926062 203.365787 
L 133.68292 204.367288 
L 138.452643 205.371498 
L 143.235283 206.378428 
L 148.030893 207.388089 
L 152.839526 208.400491 
L 157.661234 209.415646 
L 162.496072 210.433565 
L 167.344092 211.45426 
L 172.20535 212.477742 
L 177.079898 213.504022 
L 181.967793 214.533111 
L 186.869088 215.565023 
L 191.783839 216.599767 
L 196.712101 217.637355 
L 201.65393 218.677801 
L 206.609382 219.721114 
L 211.578514 220.767307 
L 216.561383 221.816393 
L 221.558045 222.868382 
L 226.568557 223.923288 
L 231.592978 224.981122 
L 236.631365 226.041896 
L 241.683777 227.105623 
L 246.750272 228.172315 
L 251.83091 229.241985 
L 256.925749 230.314645 
L 259.824468 225.003367 
L 262.719449 219.698938 
L 265.6107 214.401344 
L 268.498227 209.110573 
L 271.382039 203.826609 
L 274.262141 198.549442 
L 277.138542 193.279057 
L 280.011249 188.015441 
L 282.880268 182.758582 
L 285.745607 177.508466 
L 288.607272 172.265081 
L 291.465271 167.028413 
L 294.319611 161.79845 
L 297.170299 156.575179 
L 300.017342 151.358586 
L 302.860747 146.14866 
L 305.70052 140.945387 
L 308.536669 135.748754 
L 311.369201 130.55875 
L 314.198123 125.375361 
L 317.023441 120.198574 
L 319.845162 115.028377 
L 322.663294 109.864758 
L 325.477843 104.707704 
L 328.288816 99.557202 
L 331.096219 94.41324 
L 333.900061 89.275805 
L 336.700346 84.144885 
L 339.497083 79.020468 
L 334.382613 78.174775 
L 329.282138 77.331396 
L 324.1956 76.490321 
L 319.122944 75.651542 
L 314.064111 74.815049 
L 309.019046 73.980832 
L 303.987692 73.148882 
L 298.969994 72.31919 
L 293.965896 71.491748 
L 288.975342 70.666544 
L 283.998279 69.843572 
L 279.03465 69.022821 
L 274.084403 68.204282 
L 269.147482 67.387947 
L 264.223835 66.573807 
L 259.313407 65.761853 
L 254.416146 64.952076 
L 249.531999 64.144467 
L 244.660912 63.339018 
L 239.802834 62.53572 
L 234.957713 61.734565 
L 230.125497 60.935543 
L 225.306134 60.138646 
L 220.499573 59.343867 
L 215.705764 58.551196 
L 210.924655 57.760625 
L 206.156197 56.972146 
L 201.400338 56.18575 
L 196.65703 55.40143 
L 193.880269 60.315245 
L 191.10012 65.235056 
L 188.316575 70.160875 
L 185.52963 75.092713 
L 182.739278 80.030579 
L 179.945512 84.974487 
L 177.148327 89.924446 
L 174.347715 94.880468 
L 171.543671 99.842564 
L 168.736188 104.810746 
L 165.925261 109.785023 
L 163.110882 114.765408 
L 160.293045 119.751912 
L 157.471744 124.744546 
L 154.646973 129.743321 
L 151.818725 134.748249 
L 148.986994 139.759342 
L 146.151773 144.776609 
L 143.313055 149.800064 
L 140.470835 154.829717 
L 137.625106 159.86558 
L 134.775862 164.907664 
L 131.923095 169.955981 
L 129.066799 175.010543 
L 126.206968 180.07136 
L 123.343596 185.138446 
L 120.476675 190.21181 
L 117.606198 195.291466 
L 114.732161 200.377425 
z
" style="fill:#606000;fill-opacity:0.3;"/>
   </g>
   <g id="Poly3DCollection_2">
    <path clip-path="url(#p19b9ea959d)" d="M 110.447151 124.238677 
L 115.341833 125.164098 
L 120.250208 126.092109 
L 125.172334 127.022719 
L 130.10827 127.95594 
L 135.058073 128.891783 
L 140.021802 129.830259 
L 144.999516 130.77138 
L 149.991274 131.715155 
L 154.997135 132.661597 
L 160.01716 133.610716 
L 165.051408 134.562525 
L 170.09994 135.517035 
L 175.162817 136.474256 
L 180.240101 137.434202 
L 185.331852 138.396882 
L 190.438133 139.36231 
L 195.559005 140.330497 
L 200.694533 141.301454 
L 205.844778 142.275194 
L 211.009804 143.251729 
L 216.189675 144.23107 
L 221.384454 145.21323 
L 226.594207 146.198221 
L 231.818997 147.186055 
L 237.058891 148.176745 
L 242.313954 149.170302 
L 247.584252 150.16674 
L 252.869851 151.166071 
L 258.170818 152.168308 
L 261.120094 150.434226 
L 264.054593 148.708833 
L 266.974424 146.992064 
L 269.879698 145.283855 
L 272.770523 143.584141 
L 275.647007 141.892859 
L 278.509256 140.209947 
L 281.357375 138.535342 
L 284.191469 136.868984 
L 287.011642 135.210812 
L 289.817995 133.560765 
L 292.61063 131.918784 
L 295.389647 130.284809 
L 298.155145 128.658783 
L 300.907224 127.040648 
L 303.64598 125.430345 
L 306.37151 123.82782 
L 309.083909 122.233014 
L 311.783273 120.645874 
L 314.469694 119.066343 
L 317.143267 117.494366 
L 319.804082 115.929891 
L 322.45223 114.372863 
L 325.087803 112.823229 
L 327.71089 111.280937 
L 330.321578 109.745935 
L 332.919956 108.21817 
L 335.50611 106.697593 
L 338.080127 105.184152 
L 333.031297 104.313596 
L 327.996111 103.445393 
L 322.974513 102.579533 
L 317.966448 101.716007 
L 312.971862 100.854804 
L 307.9907 99.995917 
L 303.022909 99.139334 
L 298.068434 98.285048 
L 293.127223 97.433049 
L 288.199221 96.583327 
L 283.284376 95.735874 
L 278.382636 94.890681 
L 273.493948 94.047738 
L 268.61826 93.207037 
L 263.75552 92.368569 
L 258.905677 91.532324 
L 254.06868 90.698294 
L 249.244477 89.86647 
L 244.433017 89.036844 
L 239.634251 88.209406 
L 234.848129 87.384148 
L 230.074599 86.561062 
L 225.313614 85.740139 
L 220.565122 84.921369 
L 215.829076 84.104746 
L 211.105426 83.290261 
L 206.394124 82.477904 
L 201.695121 81.667668 
L 197.00837 80.859545 
L 194.212635 82.260594 
L 191.404217 83.667999 
L 188.583031 85.081804 
L 185.748989 86.50205 
L 182.902003 87.928784 
L 180.041984 89.362049 
L 177.168842 90.80189 
L 174.282486 92.248353 
L 171.382827 93.701483 
L 168.46977 95.161327 
L 165.543223 96.627931 
L 162.603093 98.101343 
L 159.649284 99.581609 
L 156.681701 101.068778 
L 153.700247 102.562899 
L 150.704825 104.064019 
L 147.695336 105.572189 
L 144.671681 107.087458 
L 141.63376 108.609877 
L 138.581471 110.139495 
L 135.514712 111.676365 
L 132.433381 113.220538 
L 129.337373 114.772066 
L 126.226583 116.331001 
L 123.100904 117.897398 
L 119.960231 119.47131 
L 116.804454 121.05279 
L 113.633464 122.641894 
L 110.447151 124.238677 
z
" style="fill:#600060;fill-opacity:0.3;"/>
   </g>
   <g id="Poly3DCollection_3">
    <path clip-path="url(#p19b9ea959d)" d="M 108.944468 97.538055 
L 113.900807 98.437752 
L 118.871193 99.339999 
L 123.855686 100.244806 
L 128.854346 101.152186 
L 133.867233 102.062148 
L 138.89441 102.974703 
L 143.935936 103.889864 
L 148.991873 104.80764 
L 154.062283 105.728044 
L 159.147229 106.651086 
L 164.246772 107.576778 
L 169.360977 108.505132 
L 174.489906 109.436158 
L 179.633622 110.369868 
L 184.792191 111.306275 
L 189.965675 112.245389 
L 195.154141 113.187223 
L 200.357654 114.131788 
L 205.576278 115.079096 
L 210.810079 116.029159 
L 216.059125 116.981989 
L 221.323482 117.937599 
L 226.603217 118.896 
L 231.898397 119.857205 
L 237.20909 120.821226 
L 242.535364 121.788075 
L 247.877289 122.757766 
L 253.234933 123.730309 
L 258.608366 124.705719 
L 261.529976 126.843654 
L 264.425965 128.96284 
L 267.296667 131.063522 
L 270.142412 133.145942 
L 272.963525 135.210336 
L 275.760324 137.256939 
L 278.533121 139.285977 
L 281.282225 141.297678 
L 284.007937 143.292262 
L 286.710556 145.269946 
L 289.390373 147.230945 
L 292.047676 149.175469 
L 294.682747 151.103725 
L 297.295864 153.015915 
L 299.887301 154.91224 
L 302.457325 156.792897 
L 305.006202 158.658078 
L 307.534191 160.507975 
L 310.041548 162.342773 
L 312.528525 164.162658 
L 314.995369 165.96781 
L 317.442323 167.758408 
L 319.869627 169.534627 
L 322.277517 171.296639 
L 324.666225 173.044614 
L 327.035979 174.778719 
L 329.387003 176.499119 
L 331.71952 178.205976 
L 334.033747 179.899448 
L 329.172109 178.962813 
L 324.323137 178.028618 
L 319.48678 177.096854 
L 314.662989 176.16751 
L 309.851716 175.240578 
L 305.052911 174.316048 
L 300.266527 173.393912 
L 295.492516 172.474158 
L 290.730828 171.55678 
L 285.981417 170.641766 
L 281.244236 169.729108 
L 276.519236 168.818798 
L 271.806372 167.910825 
L 267.105596 167.005181 
L 262.416862 166.101858 
L 257.740123 165.200845 
L 253.075335 164.302135 
L 248.42245 163.405718 
L 243.781425 162.511585 
L 239.152212 161.619729 
L 234.534768 160.73014 
L 229.929047 159.842809 
L 225.335004 158.957728 
L 220.752597 158.074889 
L 216.181779 157.194283 
L 211.622508 156.315902 
L 207.07474 155.439736 
L 202.538431 154.565778 
L 198.013538 153.69402 
L 195.268292 151.963207 
L 192.502148 150.219217 
L 189.714864 148.461901 
L 186.906199 146.691103 
L 184.075905 144.906669 
L 181.223732 143.10844 
L 178.349424 141.296256 
L 175.452723 139.469954 
L 172.533366 137.629368 
L 169.591086 135.774329 
L 166.625613 133.904668 
L 163.636671 132.02021 
L 160.623981 130.120779 
L 157.587257 128.206196 
L 154.526212 126.276278 
L 151.440552 124.330842 
L 148.329979 122.369698 
L 145.19419 120.392657 
L 142.032877 118.399523 
L 138.845727 116.390099 
L 135.632422 114.364186 
L 132.39264 112.321579 
L 129.126051 110.262071 
L 125.83232 108.185451 
L 122.51111 106.091505 
L 119.162074 103.980016 
L 115.78486 101.850762 
L 112.379113 99.703518 
L 108.944468 97.538055 
z
" style="fill:#000080;fill-opacity:0.3;"/>
   </g>
   <g id="line2d_25">
    <path clip-path="url(#p19b9ea959d)" d="M 176.448495 91.162883 
L 319.140069 116.320309 
" style="fill:none;stroke:#000000;stroke-linecap:square;stroke-width:1.5;"/>
   </g>
   <g id="line2d_26">
    <path clip-path="url(#p19b9ea959d)" d="M 133.205086 112.833807 
L 279.222606 139.790519 
" style="fill:none;stroke:#000000;stroke-linecap:square;stroke-width:1.5;"/>
   </g>
   <g id="line2d_27">
    <path clip-path="url(#p19b9ea959d)" d="M 156.059793 127.243165 
L 298.594276 153.966048 
" style="fill:none;stroke:#000000;stroke-linecap:square;stroke-width:1.5;"/>
   </g>
  </g>
 </g>
 <defs>
  <clipPath id="p19b9ea959d">
   <rect height="217.44" width="334.8" x="54" y="34.56"/>
  </clipPath>
 </defs>
</svg>
