<?xml version="1.0" encoding="utf-8" standalone="no"?>
<!DOCTYPE svg PUBLIC "-//W3C//DTD SVG 1.1//EN"
  "http://www.w3.org/Graphics/SVG/1.1/DTD/svg11.dtd">
<!-- Created with matplotlib (http://matplotlib.org/) -->
<svg height="288pt" version="1.1" viewBox="0 0 432 288" width="432pt" xmlns="http://www.w3.org/2000/svg" xmlns:xlink="http://www.w3.org/1999/xlink">
 <defs>
  <style type="text/css">
*{stroke-linecap:butt;stroke-linejoin:round;}
  </style>
 </defs>
 <g id="figure_1">
  <g id="patch_1">
   <path d="M 0 288 
L 432 288 
L 432 0 
L 0 0 
z
" style="fill:#ffffff;"/>
  </g>
  <g id="patch_2">
   <path d="M 54 252 
L 388.8 252 
L 388.8 34.56 
L 54 34.56 
z
" style="fill:#ffffff;"/>
  </g>
  <g id="pane3d_1">
   <g id="patch_3">
    <path d="M 98.382914 203.953423 
L 194.204425 150.642062 
L 192.609099 48.772801 
L 91.44491 96.671962 
" style="fill:#f2f2f2;opacity:0.5;stroke:#f2f2f2;stroke-linejoin:miter;"/>
   </g>
  </g>
  <g id="pane3d_2">
   <g id="patch_4">
    <path d="M 194.204425 150.642062 
L 349.426265 180.446553 
L 355.920561 75.505466 
L 192.609099 48.772801 
" style="fill:#e6e6e6;opacity:0.5;stroke:#e6e6e6;stroke-linejoin:miter;"/>
   </g>
  </g>
  <g id="pane3d_3">
   <g id="patch_5">
    <path d="M 98.382914 203.953423 
L 261.697263 238.665609 
L 349.426265 180.446553 
L 194.204425 150.642062 
" style="fill:#ececec;opacity:0.5;stroke:#ececec;stroke-linejoin:miter;"/>
   </g>
  </g>
  <g id="axis3d_1">
   <g id="line2d_1">
    <path d="M 98.382914 203.953423 
L 261.697263 238.665609 
" style="fill:none;stroke:#000000;stroke-linecap:square;stroke-width:0.8;"/>
   </g>
   <g id="Line3DCollection_1">
    <path d="M 108.339611 206.069702 
L 203.697598 152.464867 
L 202.576615 50.404396 
" style="fill:none;stroke:#b0b0b0;stroke-width:0.8;"/>
    <path d="M 131.312391 210.952527 
L 225.586074 156.667722 
L 225.568906 54.168034 
" style="fill:none;stroke:#b0b0b0;stroke-width:0.8;"/>
    <path d="M 154.58857 215.899839 
L 247.742556 160.922038 
L 248.857097 57.980108 
" style="fill:none;stroke:#b0b0b0;stroke-width:0.8;"/>
    <path d="M 178.1742 220.912925 
L 270.171995 165.228764 
L 272.446939 61.84156 
" style="fill:none;stroke:#b0b0b0;stroke-width:0.8;"/>
    <path d="M 202.075491 225.993103 
L 292.879467 169.588876 
L 296.344331 65.753355 
" style="fill:none;stroke:#b0b0b0;stroke-width:0.8;"/>
    <path d="M 226.298825 231.141732 
L 315.870175 174.003373 
L 320.555327 69.716485 
" style="fill:none;stroke:#b0b0b0;stroke-width:0.8;"/>
    <path d="M 250.850753 236.360202 
L 339.14945 178.473279 
L 345.086139 73.731965 
" style="fill:none;stroke:#b0b0b0;stroke-width:0.8;"/>
   </g>
   <g id="xtick_1">
    <g id="line2d_2">
     <path d="M 109.161169 205.607869 
L 106.693431 206.995091 
" style="fill:none;stroke:#000000;stroke-linecap:square;stroke-width:0.8;"/>
    </g>
    <g id="text_1">
     <!-- −6 -->
     <defs>
      <path d="M 10.59375 35.5 
L 73.1875 35.5 
L 73.1875 27.203125 
L 10.59375 27.203125 
z
" id="DejaVuSans-2212"/>
      <path d="M 33.015625 40.375 
Q 26.375 40.375 22.484375 35.828125 
Q 18.609375 31.296875 18.609375 23.390625 
Q 18.609375 15.53125 22.484375 10.953125 
Q 26.375 6.390625 33.015625 6.390625 
Q 39.65625 6.390625 43.53125 10.953125 
Q 47.40625 15.53125 47.40625 23.390625 
Q 47.40625 31.296875 43.53125 35.828125 
Q 39.65625 40.375 33.015625 40.375 
z
M 52.59375 71.296875 
L 52.59375 62.3125 
Q 48.875 64.0625 45.09375 64.984375 
Q 41.3125 65.921875 37.59375 65.921875 
Q 27.828125 65.921875 22.671875 59.328125 
Q 17.53125 52.734375 16.796875 39.40625 
Q 19.671875 43.65625 24.015625 45.921875 
Q 28.375 48.1875 33.59375 48.1875 
Q 44.578125 48.1875 50.953125 41.515625 
Q 57.328125 34.859375 57.328125 23.390625 
Q 57.328125 12.15625 50.6875 5.359375 
Q 44.046875 -1.421875 33.015625 -1.421875 
Q 20.359375 -1.421875 13.671875 8.265625 
Q 6.984375 17.96875 6.984375 36.375 
Q 6.984375 53.65625 15.1875 63.9375 
Q 23.390625 74.21875 37.203125 74.21875 
Q 40.921875 74.21875 44.703125 73.484375 
Q 48.484375 72.75 52.59375 71.296875 
z
" id="DejaVuSans-36"/>
     </defs>
     <g transform="translate(93.221865 226.46444)scale(0.1 -0.1)">
      <use xlink:href="#DejaVuSans-2212"/>
      <use x="83.789062" xlink:href="#DejaVuSans-36"/>
     </g>
    </g>
   </g>
   <g id="xtick_2">
    <g id="line2d_3">
     <path d="M 132.124988 210.484617 
L 129.684147 211.890105 
" style="fill:none;stroke:#000000;stroke-linecap:square;stroke-width:0.8;"/>
    </g>
    <g id="text_2">
     <!-- −4 -->
     <defs>
      <path d="M 37.796875 64.3125 
L 12.890625 25.390625 
L 37.796875 25.390625 
z
M 35.203125 72.90625 
L 47.609375 72.90625 
L 47.609375 25.390625 
L 58.015625 25.390625 
L 58.015625 17.1875 
L 47.609375 17.1875 
L 47.609375 0 
L 37.796875 0 
L 37.796875 17.1875 
L 4.890625 17.1875 
L 4.890625 26.703125 
z
" id="DejaVuSans-34"/>
     </defs>
     <g transform="translate(116.191654 231.441574)scale(0.1 -0.1)">
      <use xlink:href="#DejaVuSans-2212"/>
      <use x="83.789062" xlink:href="#DejaVuSans-34"/>
     </g>
    </g>
   </g>
   <g id="xtick_3">
    <g id="line2d_4">
     <path d="M 155.391897 215.425731 
L 152.978882 216.849849 
" style="fill:none;stroke:#000000;stroke-linecap:square;stroke-width:0.8;"/>
    </g>
    <g id="text_3">
     <!-- −2 -->
     <defs>
      <path d="M 19.1875 8.296875 
L 53.609375 8.296875 
L 53.609375 0 
L 7.328125 0 
L 7.328125 8.296875 
Q 12.9375 14.109375 22.625 23.890625 
Q 32.328125 33.6875 34.8125 36.53125 
Q 39.546875 41.84375 41.421875 45.53125 
Q 43.3125 49.21875 43.3125 52.78125 
Q 43.3125 58.59375 39.234375 62.25 
Q 35.15625 65.921875 28.609375 65.921875 
Q 23.96875 65.921875 18.8125 64.3125 
Q 13.671875 62.703125 7.8125 59.421875 
L 7.8125 69.390625 
Q 13.765625 71.78125 18.9375 73 
Q 24.125 74.21875 28.421875 74.21875 
Q 39.75 74.21875 46.484375 68.546875 
Q 53.21875 62.890625 53.21875 53.421875 
Q 53.21875 48.921875 51.53125 44.890625 
Q 49.859375 40.875 45.40625 35.40625 
Q 44.1875 33.984375 37.640625 27.21875 
Q 31.109375 20.453125 19.1875 8.296875 
z
" id="DejaVuSans-32"/>
     </defs>
     <g transform="translate(139.46544 236.484579)scale(0.1 -0.1)">
      <use xlink:href="#DejaVuSans-2212"/>
      <use x="83.789062" xlink:href="#DejaVuSans-32"/>
     </g>
    </g>
   </g>
   <g id="xtick_4">
    <g id="line2d_5">
     <path d="M 178.967936 220.432494 
L 176.583706 221.875614 
" style="fill:none;stroke:#000000;stroke-linecap:square;stroke-width:0.8;"/>
    </g>
    <g id="text_4">
     <!-- 0 -->
     <defs>
      <path d="M 31.78125 66.40625 
Q 24.171875 66.40625 20.328125 58.90625 
Q 16.5 51.421875 16.5 36.375 
Q 16.5 21.390625 20.328125 13.890625 
Q 24.171875 6.390625 31.78125 6.390625 
Q 39.453125 6.390625 43.28125 13.890625 
Q 47.125 21.390625 47.125 36.375 
Q 47.125 51.421875 43.28125 58.90625 
Q 39.453125 66.40625 31.78125 66.40625 
z
M 31.78125 74.21875 
Q 44.046875 74.21875 50.515625 64.515625 
Q 56.984375 54.828125 56.984375 36.375 
Q 56.984375 17.96875 50.515625 8.265625 
Q 44.046875 -1.421875 31.78125 -1.421875 
Q 19.53125 -1.421875 13.0625 8.265625 
Q 6.59375 17.96875 6.59375 36.375 
Q 6.59375 54.828125 13.0625 64.515625 
Q 19.53125 74.21875 31.78125 74.21875 
z
" id="DejaVuSans-30"/>
     </defs>
     <g transform="translate(167.239142 241.59477)scale(0.1 -0.1)">
      <use xlink:href="#DejaVuSans-30"/>
     </g>
    </g>
   </g>
   <g id="xtick_5">
    <g id="line2d_6">
     <path d="M 202.859309 225.506223 
L 200.504853 226.968728 
" style="fill:none;stroke:#000000;stroke-linecap:square;stroke-width:0.8;"/>
    </g>
    <g id="text_5">
     <!-- 2 -->
     <g transform="translate(191.139311 246.773501)scale(0.1 -0.1)">
      <use xlink:href="#DejaVuSans-32"/>
     </g>
    </g>
   </g>
   <g id="xtick_6">
    <g id="line2d_7">
     <path d="M 227.072384 230.648271 
L 224.748724 232.130555 
" style="fill:none;stroke:#000000;stroke-linecap:square;stroke-width:0.8;"/>
    </g>
    <g id="text_6">
     <!-- 4 -->
     <g transform="translate(215.362197 252.022158)scale(0.1 -0.1)">
      <use xlink:href="#DejaVuSans-34"/>
     </g>
    </g>
   </g>
   <g id="xtick_7">
    <g id="line2d_8">
     <path d="M 251.613702 235.860027 
L 249.321894 237.362493 
" style="fill:none;stroke:#000000;stroke-linecap:square;stroke-width:0.8;"/>
    </g>
    <g id="text_7">
     <!-- 6 -->
     <g transform="translate(239.91438 257.342168)scale(0.1 -0.1)">
      <use xlink:href="#DejaVuSans-36"/>
     </g>
    </g>
   </g>
  </g>
  <g id="axis3d_2">
   <g id="line2d_9">
    <path d="M 349.426265 180.446553 
L 261.697263 238.665609 
" style="fill:none;stroke:#000000;stroke-linecap:square;stroke-width:0.8;"/>
   </g>
   <g id="Line3DCollection_2">
    <path d="M 98.371961 93.392146 
L 104.920339 200.316254 
L 267.701308 234.681182 
" style="fill:none;stroke:#b0b0b0;stroke-width:0.8;"/>
    <path d="M 113.939618 86.021181 
L 119.625088 192.135104 
L 281.196264 225.725608 
" style="fill:none;stroke:#b0b0b0;stroke-width:0.8;"/>
    <path d="M 129.148131 78.820263 
L 134.007634 184.133214 
L 294.382082 216.975185 
" style="fill:none;stroke:#b0b0b0;stroke-width:0.8;"/>
    <path d="M 144.009785 71.783576 
L 148.078453 176.304758 
L 307.269264 208.422944 
" style="fill:none;stroke:#b0b0b0;stroke-width:0.8;"/>
    <path d="M 158.536314 64.905563 
L 161.847569 168.644158 
L 319.867842 200.062227 
" style="fill:none;stroke:#b0b0b0;stroke-width:0.8;"/>
    <path d="M 172.738925 58.180919 
L 175.324585 161.146071 
L 332.187404 191.886672 
" style="fill:none;stroke:#b0b0b0;stroke-width:0.8;"/>
    <path d="M 186.628335 51.604569 
L 188.518696 153.805381 
L 344.237117 183.890196 
" style="fill:none;stroke:#b0b0b0;stroke-width:0.8;"/>
   </g>
   <g id="xtick_8">
    <g id="line2d_10">
     <path d="M 266.338974 234.393578 
L 270.42902 235.257033 
" style="fill:none;stroke:#000000;stroke-linecap:square;stroke-width:0.8;"/>
    </g>
    <g id="text_8">
     <!-- −6 -->
     <g transform="translate(273.765475 253.490052)scale(0.1 -0.1)">
      <use xlink:href="#DejaVuSans-2212"/>
      <use x="83.789062" xlink:href="#DejaVuSans-36"/>
     </g>
    </g>
   </g>
   <g id="xtick_9">
    <g id="line2d_11">
     <path d="M 279.844746 225.444629 
L 283.902285 226.288187 
" style="fill:none;stroke:#000000;stroke-linecap:square;stroke-width:0.8;"/>
    </g>
    <g id="text_9">
     <!-- −4 -->
     <g transform="translate(287.097178 244.409753)scale(0.1 -0.1)">
      <use xlink:href="#DejaVuSans-2212"/>
      <use x="83.789062" xlink:href="#DejaVuSans-34"/>
     </g>
    </g>
   </g>
   <g id="xtick_10">
    <g id="line2d_12">
     <path d="M 293.041244 216.700604 
L 297.066685 217.524946 
" style="fill:none;stroke:#000000;stroke-linecap:square;stroke-width:0.8;"/>
    </g>
    <g id="text_10">
     <!-- −2 -->
     <g transform="translate(300.123655 235.537346)scale(0.1 -0.1)">
      <use xlink:href="#DejaVuSans-2212"/>
      <use x="83.789062" xlink:href="#DejaVuSans-32"/>
     </g>
    </g>
   </g>
   <g id="xtick_11">
    <g id="line2d_13">
     <path d="M 305.938973 208.154545 
L 309.932719 208.96032 
" style="fill:none;stroke:#000000;stroke-linecap:square;stroke-width:0.8;"/>
    </g>
    <g id="text_11">
     <!-- 0 -->
     <g transform="translate(317.045112 226.865772)scale(0.1 -0.1)">
      <use xlink:href="#DejaVuSans-30"/>
     </g>
    </g>
   </g>
   <g id="xtick_12">
    <g id="line2d_14">
     <path d="M 318.547963 199.799805 
L 322.510418 200.587632 
" style="fill:none;stroke:#000000;stroke-linecap:square;stroke-width:0.8;"/>
    </g>
    <g id="text_12">
     <!-- 2 -->
     <g transform="translate(329.491762 218.388289)scale(0.1 -0.1)">
      <use xlink:href="#DejaVuSans-32"/>
     </g>
    </g>
   </g>
   <g id="xtick_13">
    <g id="line2d_15">
     <path d="M 330.877805 191.630028 
L 334.809367 192.400502 
" style="fill:none;stroke:#000000;stroke-linecap:square;stroke-width:0.8;"/>
    </g>
    <g id="text_13">
     <!-- 4 -->
     <g transform="translate(341.66291 210.098451)scale(0.1 -0.1)">
      <use xlink:href="#DejaVuSans-34"/>
     </g>
    </g>
   </g>
   <g id="xtick_14">
    <g id="line2d_16">
     <path d="M 342.937666 183.639142 
L 346.838731 184.392828 
" style="fill:none;stroke:#000000;stroke-linecap:square;stroke-width:0.8;"/>
    </g>
    <g id="text_14">
     <!-- 6 -->
     <g transform="translate(353.567603 201.990097)scale(0.1 -0.1)">
      <use xlink:href="#DejaVuSans-36"/>
     </g>
    </g>
   </g>
  </g>
  <g id="axis3d_3">
   <g id="line2d_17">
    <path d="M 349.426265 180.446553 
L 355.920561 75.505466 
" style="fill:none;stroke:#000000;stroke-linecap:square;stroke-width:0.8;"/>
   </g>
   <g id="Line3DCollection_3">
    <path d="M 349.820145 174.08187 
L 194.10747 144.451031 
L 97.962803 197.457309 
" style="fill:none;stroke:#b0b0b0;stroke-width:0.8;"/>
    <path d="M 350.729944 159.380456 
L 193.883618 130.156984 
L 96.992079 182.44713 
" style="fill:none;stroke:#b0b0b0;stroke-width:0.8;"/>
    <path d="M 351.653204 144.461533 
L 193.656594 115.660375 
L 96.006515 167.207473 
" style="fill:none;stroke:#b0b0b0;stroke-width:0.8;"/>
    <path d="M 352.590226 129.320237 
L 193.426329 100.95687 
L 95.005767 151.733036 
" style="fill:none;stroke:#b0b0b0;stroke-width:0.8;"/>
    <path d="M 353.541319 113.951558 
L 193.192754 86.042005 
L 93.989482 136.018352 
" style="fill:none;stroke:#b0b0b0;stroke-width:0.8;"/>
    <path d="M 354.506803 98.350337 
L 192.955798 70.911192 
L 92.957295 120.057781 
" style="fill:none;stroke:#b0b0b0;stroke-width:0.8;"/>
    <path d="M 355.487007 82.511255 
L 192.715385 55.559705 
L 91.90883 103.845507 
" style="fill:none;stroke:#b0b0b0;stroke-width:0.8;"/>
   </g>
   <g id="xtick_15">
    <g id="line2d_18">
     <path d="M 348.520828 173.834621 
L 352.421487 174.576884 
" style="fill:none;stroke:#000000;stroke-linecap:square;stroke-width:0.8;"/>
    </g>
    <g id="text_15">
     <!-- −6 -->
     <g transform="translate(361.899564 179.875062)scale(0.1 -0.1)">
      <use xlink:href="#DejaVuSans-2212"/>
      <use x="83.789062" xlink:href="#DejaVuSans-36"/>
     </g>
    </g>
   </g>
   <g id="xtick_16">
    <g id="line2d_19">
     <path d="M 349.420771 159.136532 
L 353.351039 159.868817 
" style="fill:none;stroke:#000000;stroke-linecap:square;stroke-width:0.8;"/>
    </g>
    <g id="text_16">
     <!-- −4 -->
     <g transform="translate(362.949506 165.197956)scale(0.1 -0.1)">
      <use xlink:href="#DejaVuSans-2212"/>
      <use x="83.789062" xlink:href="#DejaVuSans-34"/>
     </g>
    </g>
   </g>
   <g id="xtick_17">
    <g id="line2d_20">
     <path d="M 350.334025 144.22106 
L 354.294354 144.942988 
" style="fill:none;stroke:#000000;stroke-linecap:square;stroke-width:0.8;"/>
    </g>
    <g id="text_17">
     <!-- −2 -->
     <g transform="translate(364.014943 150.304259)scale(0.1 -0.1)">
      <use xlink:href="#DejaVuSans-2212"/>
      <use x="83.789062" xlink:href="#DejaVuSans-32"/>
     </g>
    </g>
   </g>
   <g id="xtick_18">
    <g id="line2d_21">
     <path d="M 351.260886 129.083345 
L 355.251738 129.794525 
" style="fill:none;stroke:#000000;stroke-linecap:square;stroke-width:0.8;"/>
    </g>
    <g id="text_18">
     <!-- 0 -->
     <g transform="translate(369.286062 135.18914)scale(0.1 -0.1)">
      <use xlink:href="#DejaVuSans-30"/>
     </g>
    </g>
   </g>
   <g id="xtick_19">
    <g id="line2d_22">
     <path d="M 352.201661 113.718384 
L 356.223511 114.418409 
" style="fill:none;stroke:#000000;stroke-linecap:square;stroke-width:0.8;"/>
    </g>
    <g id="text_19">
     <!-- 2 -->
     <g transform="translate(370.383534 119.847624)scale(0.1 -0.1)">
      <use xlink:href="#DejaVuSans-32"/>
     </g>
    </g>
   </g>
   <g id="xtick_20">
    <g id="line2d_23">
     <path d="M 353.156666 98.121019 
L 357.209998 98.80947 
" style="fill:none;stroke:#000000;stroke-linecap:square;stroke-width:0.8;"/>
    </g>
    <g id="text_20">
     <!-- 4 -->
     <g transform="translate(371.497568 104.274587)scale(0.1 -0.1)">
      <use xlink:href="#DejaVuSans-34"/>
     </g>
    </g>
   </g>
   <g id="xtick_21">
    <g id="line2d_24">
     <path d="M 354.126225 82.285938 
L 358.211537 82.962379 
" style="fill:none;stroke:#000000;stroke-linecap:square;stroke-width:0.8;"/>
    </g>
    <g id="text_21">
     <!-- 6 -->
     <g transform="translate(372.628541 88.464748)scale(0.1 -0.1)">
      <use xlink:href="#DejaVuSans-36"/>
     </g>
    </g>
   </g>
  </g>
  <g id="axes_1">
   <g id="Path3DCollection_1">
    <defs>
     <path d="M 0 3.535534 
C 0.937635 3.535534 1.836992 3.163008 2.5 2.5 
C 3.163008 1.836992 3.535534 0.937635 3.535534 0 
C 3.535534 -0.937635 3.163008 -1.836992 2.5 -2.5 
C 1.836992 -3.163008 0.937635 -3.535534 0 -3.535534 
C -0.937635 -3.535534 -1.836992 -3.163008 -2.5 -2.5 
C -3.163008 -1.836992 -3.535534 -0.937635 -3.535534 0 
C -3.535534 0.937635 -3.163008 1.836992 -2.5 2.5 
C -1.836992 3.163008 -0.937635 3.535534 0 3.535534 
z
" id="m09ff8c561e" style="stroke:#000000;"/>
    </defs>
    <g clip-path="url(#peaaed4a895)">
     <use style="stroke:#000000;" x="225.924324" xlink:href="#m09ff8c561e" y="140.341622"/>
    </g>
   </g>
   <g id="Poly3DCollection_1">
    <path clip-path="url(#peaaed4a895)" d="M 114.481536 195.924169 
L 119.210422 196.913849 
L 123.952074 197.906202 
L 128.706544 198.901236 
L 133.473885 199.898965 
L 138.254148 200.899398 
L 143.047386 201.902546 
L 147.853653 202.908421 
L 152.673001 203.917034 
L 157.505484 204.928395 
L 162.351155 205.942517 
L 167.210069 206.95941 
L 172.08228 207.979087 
L 176.967843 209.001557 
L 181.866813 210.026833 
L 186.779244 211.054927 
L 191.705193 212.085849 
L 196.644715 213.119613 
L 201.597866 214.156228 
L 206.564704 215.195708 
L 211.545285 216.238064 
L 216.539665 217.283308 
L 221.547903 218.331453 
L 226.570055 219.382509 
L 231.606181 220.43649 
L 236.656339 221.493408 
L 241.720587 222.553274 
L 246.798984 223.616102 
L 251.89159 224.681903 
L 256.998465 225.75069 
L 259.898439 220.746013 
L 262.79373 215.749418 
L 265.684348 210.760887 
L 268.570306 205.780399 
L 271.451614 200.807935 
L 274.328284 195.843475 
L 277.200326 190.887001 
L 280.067753 185.938494 
L 282.930575 180.997933 
L 285.788803 176.0653 
L 288.642448 171.140576 
L 291.491521 166.223741 
L 294.336034 161.314777 
L 297.175997 156.413666 
L 300.011421 151.520387 
L 302.842317 146.634923 
L 305.668696 141.757254 
L 308.490568 136.887362 
L 311.307945 132.025229 
L 314.120837 127.170835 
L 316.929254 122.324163 
L 319.733208 117.485194 
L 322.53271 112.65391 
L 325.327769 107.830292 
L 328.118396 103.014322 
L 330.904602 98.205982 
L 333.686397 93.405254 
L 336.463792 88.61212 
L 339.236797 83.826561 
L 334.134388 82.976234 
L 329.04591 82.128228 
L 323.971304 81.282534 
L 318.910515 80.439143 
L 313.863486 79.598045 
L 308.830162 78.759231 
L 303.810485 77.922691 
L 298.804402 77.088417 
L 293.811856 76.256398 
L 288.832794 75.426627 
L 283.86716 74.599094 
L 278.9149 73.773789 
L 273.97596 72.950704 
L 269.050286 72.12983 
L 264.137826 71.311158 
L 259.238526 70.49468 
L 254.352334 69.680385 
L 249.479196 68.868267 
L 244.61906 68.058315 
L 239.771875 67.250521 
L 234.937589 66.444877 
L 230.11615 65.641374 
L 225.307508 64.840003 
L 220.51161 64.040757 
L 215.728408 63.243626 
L 210.95785 62.448603 
L 206.199886 61.655678 
L 201.454467 60.864844 
L 196.721543 60.076092 
L 193.946082 64.660735 
L 191.166395 69.252358 
L 188.382473 73.850977 
L 185.594305 78.456609 
L 182.801883 83.069269 
L 180.005197 87.688973 
L 177.204236 92.315737 
L 174.398991 96.949578 
L 171.589452 101.590512 
L 168.77561 106.238555 
L 165.957454 110.893724 
L 163.134974 115.556035 
L 160.30816 120.225504 
L 157.477003 124.902148 
L 154.641493 129.585983 
L 151.801619 134.277026 
L 148.957371 138.975294 
L 146.108739 143.680804 
L 143.255714 148.393572 
L 140.398284 153.113614 
L 137.53644 157.840948 
L 134.670171 162.575592 
L 131.799468 167.31756 
L 128.924319 172.066872 
L 126.044715 176.823543 
L 123.160645 181.587591 
L 120.272099 186.359033 
L 117.379066 191.137887 
L 114.481536 195.924169 
z
" style="fill:#606000;fill-opacity:0.3;"/>
   </g>
   <g id="Poly3DCollection_2">
    <path clip-path="url(#peaaed4a895)" d="M 109.220585 102.444278 
L 114.347485 106.722183 
L 119.47215 110.998222 
L 124.59458 115.272397 
L 129.714779 119.544709 
L 134.832746 123.81516 
L 139.948484 128.083751 
L 145.061994 132.350483 
L 150.173277 136.615357 
L 155.282336 140.878374 
L 160.38917 145.139536 
L 165.493783 149.398844 
L 170.596175 153.656298 
L 175.696347 157.911901 
L 180.794302 162.165654 
L 185.890041 166.417557 
L 190.983564 170.667612 
L 196.074874 174.91582 
L 201.163972 179.162182 
L 206.250859 183.4067 
L 211.335537 187.649374 
L 216.418008 191.890206 
L 221.498272 196.129197 
L 226.576331 200.366349 
L 231.652187 204.601662 
L 236.725841 208.835137 
L 241.797294 213.066777 
L 246.866548 217.296581 
L 251.933604 221.524552 
L 256.998465 225.75069 
L 259.843615 223.90139 
L 262.675024 222.061021 
L 265.492793 220.229518 
L 268.297019 218.406818 
L 271.087799 216.592857 
L 273.86523 214.787573 
L 276.629408 212.990903 
L 279.380428 211.202786 
L 282.118382 209.423162 
L 284.843364 207.651968 
L 287.555466 205.889147 
L 290.254779 204.134639 
L 292.941393 202.388384 
L 295.615398 200.650325 
L 298.276882 198.920405 
L 300.925933 197.198566 
L 303.562637 195.484752 
L 306.187082 193.778907 
L 308.799352 192.080975 
L 311.399531 190.390901 
L 313.987704 188.708632 
L 316.563953 187.034113 
L 319.128362 185.36729 
L 321.68101 183.708111 
L 324.221979 182.056523 
L 326.751349 180.412475 
L 329.269199 178.775914 
L 331.775607 177.14679 
L 334.270652 175.525053 
L 329.554474 171.566628 
L 324.836386 167.606599 
L 320.116386 163.644966 
L 315.394473 159.681728 
L 310.670646 155.716883 
L 305.944904 151.75043 
L 301.217246 147.782369 
L 296.48767 143.812698 
L 291.756175 139.841418 
L 287.02276 135.868525 
L 282.287424 131.89402 
L 277.550166 127.917902 
L 272.810985 123.94017 
L 268.069879 119.960822 
L 263.326847 115.979858 
L 258.581889 111.997276 
L 253.835002 108.013076 
L 249.086186 104.027257 
L 244.33544 100.039818 
L 239.582762 96.050757 
L 234.828151 92.060075 
L 230.071607 88.067768 
L 225.313127 84.073838 
L 220.552711 80.078283 
L 215.790357 76.081101 
L 211.026064 72.082292 
L 206.259832 68.081855 
L 201.491659 64.079788 
L 196.721543 60.076092 
L 193.897357 61.44357 
L 191.060233 62.817313 
L 188.21008 64.197364 
L 185.346809 65.583767 
L 182.470329 66.976566 
L 179.580549 68.375805 
L 176.677376 69.781529 
L 173.760716 71.193783 
L 170.830476 72.612612 
L 167.886561 74.038064 
L 164.928874 75.470183 
L 161.957319 76.909018 
L 158.971798 78.354615 
L 155.972212 79.807022 
L 152.958461 81.266288 
L 149.930446 82.73246 
L 146.888064 84.20559 
L 143.831213 85.685725 
L 140.759789 87.172916 
L 137.673689 88.667213 
L 134.572806 90.168669 
L 131.457035 91.677333 
L 128.326267 93.193259 
L 125.180394 94.716498 
L 122.019307 96.247105 
L 118.842895 97.785132 
L 115.651046 99.330633 
L 112.443647 100.883664 
L 109.220585 102.444278 
z
" style="fill:#600060;fill-opacity:0.3;"/>
   </g>
   <g id="line2d_25">
    <path clip-path="url(#peaaed4a895)" d="M 156.059793 127.243165 
L 298.594276 153.966048 
" style="fill:none;stroke:#000000;stroke-linecap:square;stroke-width:1.5;"/>
   </g>
   <g id="line2d_26">
    <path clip-path="url(#peaaed4a895)" d="M 196.721543 60.076092 
L 256.998465 225.75069 
" style="fill:none;stroke:#000000;stroke-linecap:square;stroke-width:1.5;"/>
   </g>
   <g id="line2d_27">
    <path clip-path="url(#peaaed4a895)" d="M 109.220585 102.444278 
L 334.270652 175.525053 
" style="fill:none;stroke:#000000;stroke-linecap:square;stroke-width:1.5;"/>
   </g>
   <g id="Poly3DCollection_3">
    <path clip-path="url(#peaaed4a895)" d="M 109.220585 102.444278 
L 114.165598 103.348775 
L 119.124593 104.255829 
L 124.09763 105.165451 
L 129.084767 106.077653 
L 134.086066 106.992445 
L 139.101586 107.909838 
L 144.131388 108.829844 
L 149.175534 109.752473 
L 154.234085 110.677737 
L 159.307102 111.605647 
L 164.394648 112.536214 
L 169.496786 113.46945 
L 174.613577 114.405367 
L 179.745086 115.343976 
L 184.891376 116.285288 
L 190.05251 117.229316 
L 195.228554 118.17607 
L 200.419572 119.125564 
L 205.625629 120.077808 
L 210.84679 121.032815 
L 216.083121 121.990597 
L 221.334689 122.951166 
L 226.60156 123.914534 
L 231.883802 124.880713 
L 237.18148 125.849716 
L 242.494664 126.821555 
L 247.823421 127.796243 
L 253.16782 128.773792 
L 258.527931 129.754214 
L 261.448739 131.51924 
L 264.344969 133.269413 
L 267.21693 135.004921 
L 270.064926 136.725946 
L 272.889256 138.43267 
L 275.690213 140.12527 
L 278.468085 141.803921 
L 281.223159 143.468794 
L 283.955712 145.120058 
L 286.66602 146.75788 
L 289.354354 148.382423 
L 292.020979 149.993847 
L 294.666157 151.592312 
L 297.290147 153.177972 
L 299.893202 154.750981 
L 302.475571 156.31149 
L 305.0375 157.859647 
L 307.57923 159.395599 
L 310.101 160.919488 
L 312.603044 162.431457 
L 315.085593 163.931645 
L 317.548872 165.420189 
L 319.993107 166.897224 
L 322.418516 168.362883 
L 324.825316 169.817297 
L 327.213722 171.260595 
L 329.583942 172.692904 
L 331.936184 174.114349 
L 334.270652 175.525053 
L 329.398065 174.592086 
L 324.5382 173.661554 
L 319.691006 172.733449 
L 314.856434 171.807761 
L 310.034434 170.88448 
L 305.224959 169.963597 
L 300.427958 169.045103 
L 295.643384 168.128987 
L 290.871189 167.215243 
L 286.111323 166.303858 
L 281.36374 165.394826 
L 276.628393 164.488137 
L 271.905233 163.583781 
L 267.194214 162.68175 
L 262.49529 161.782034 
L 257.808413 160.884625 
L 253.133537 159.989514 
L 248.470617 159.096693 
L 243.819606 158.206151 
L 239.180459 157.317882 
L 234.553131 156.431875 
L 229.937577 155.548122 
L 225.333751 154.666616 
L 220.741609 153.787346 
L 216.161106 152.910305 
L 211.592199 152.035484 
L 207.034844 151.162875 
L 202.488996 150.29247 
L 197.954612 149.424259 
L 195.207814 147.969975 
L 192.440873 146.505026 
L 189.653565 145.029294 
L 186.845667 143.54266 
L 184.016947 142.045002 
L 181.167175 140.536198 
L 178.296113 139.016122 
L 175.403523 137.484649 
L 172.489162 135.941648 
L 169.552782 134.386991 
L 166.594134 132.820543 
L 163.612963 131.24217 
L 160.609011 129.651736 
L 157.582015 128.049101 
L 154.53171 126.434126 
L 151.457825 124.806666 
L 148.360086 123.166577 
L 145.238215 121.513711 
L 142.091927 119.847918 
L 138.920935 118.169045 
L 135.724948 116.476939 
L 132.503669 114.771441 
L 129.256795 113.052393 
L 125.984022 111.319633 
L 122.685037 109.572994 
L 119.359525 107.812311 
L 116.007164 106.037413 
L 112.627628 104.248128 
L 109.220585 102.444278 
z
" style="fill:#000080;fill-opacity:0.3;"/>
   </g>
  </g>
 </g>
 <defs>
  <clipPath id="peaaed4a895">
   <rect height="217.44" width="334.8" x="54" y="34.56"/>
  </clipPath>
 </defs>
</svg>
