<?xml version="1.0" encoding="utf-8" standalone="no"?>
<!DOCTYPE svg PUBLIC "-//W3C//DTD SVG 1.1//EN"
  "http://www.w3.org/Graphics/SVG/1.1/DTD/svg11.dtd">
<!-- Created with matplotlib (http://matplotlib.org/) -->
<svg height="288pt" version="1.1" viewBox="0 0 432 288" width="432pt" xmlns="http://www.w3.org/2000/svg" xmlns:xlink="http://www.w3.org/1999/xlink">
 <defs>
  <style type="text/css">
*{stroke-linecap:butt;stroke-linejoin:round;}
  </style>
 </defs>
 <g id="figure_1">
  <g id="patch_1">
   <path d="M 0 288 
L 432 288 
L 432 0 
L 0 0 
z
" style="fill:#ffffff;"/>
  </g>
  <g id="patch_2">
   <path d="M 54 252 
L 388.8 252 
L 388.8 34.56 
L 54 34.56 
z
" style="fill:#ffffff;"/>
  </g>
  <g id="pane3d_1">
   <g id="patch_3">
    <path d="M 98.382914 203.953423 
L 194.204425 150.642062 
L 192.609099 48.772801 
L 91.44491 96.671962 
" style="fill:#f2f2f2;opacity:0.5;stroke:#f2f2f2;stroke-linejoin:miter;"/>
   </g>
  </g>
  <g id="pane3d_2">
   <g id="patch_4">
    <path d="M 194.204425 150.642062 
L 349.426265 180.446553 
L 355.920561 75.505466 
L 192.609099 48.772801 
" style="fill:#e6e6e6;opacity:0.5;stroke:#e6e6e6;stroke-linejoin:miter;"/>
   </g>
  </g>
  <g id="pane3d_3">
   <g id="patch_5">
    <path d="M 98.382914 203.953423 
L 261.697263 238.665609 
L 349.426265 180.446553 
L 194.204425 150.642062 
" style="fill:#ececec;opacity:0.5;stroke:#ececec;stroke-linejoin:miter;"/>
   </g>
  </g>
  <g id="axis3d_1">
   <g id="line2d_1">
    <path d="M 98.382914 203.953423 
L 261.697263 238.665609 
" style="fill:none;stroke:#000000;stroke-linecap:square;stroke-width:0.8;"/>
   </g>
   <g id="Line3DCollection_1">
    <path d="M 108.339611 206.069702 
L 203.697598 152.464867 
L 202.576615 50.404396 
" style="fill:none;stroke:#b0b0b0;stroke-width:0.8;"/>
    <path d="M 131.312391 210.952527 
L 225.586074 156.667722 
L 225.568906 54.168034 
" style="fill:none;stroke:#b0b0b0;stroke-width:0.8;"/>
    <path d="M 154.58857 215.899839 
L 247.742556 160.922038 
L 248.857097 57.980108 
" style="fill:none;stroke:#b0b0b0;stroke-width:0.8;"/>
    <path d="M 178.1742 220.912925 
L 270.171995 165.228764 
L 272.446939 61.84156 
" style="fill:none;stroke:#b0b0b0;stroke-width:0.8;"/>
    <path d="M 202.075491 225.993103 
L 292.879467 169.588876 
L 296.344331 65.753355 
" style="fill:none;stroke:#b0b0b0;stroke-width:0.8;"/>
    <path d="M 226.298825 231.141732 
L 315.870175 174.003373 
L 320.555327 69.716485 
" style="fill:none;stroke:#b0b0b0;stroke-width:0.8;"/>
    <path d="M 250.850753 236.360202 
L 339.14945 178.473279 
L 345.086139 73.731965 
" style="fill:none;stroke:#b0b0b0;stroke-width:0.8;"/>
   </g>
   <g id="xtick_1">
    <g id="line2d_2">
     <path d="M 109.161169 205.607869 
L 106.693431 206.995091 
" style="fill:none;stroke:#000000;stroke-linecap:square;stroke-width:0.8;"/>
    </g>
    <g id="text_1">
     <!-- −6 -->
     <defs>
      <path d="M 10.59375 35.5 
L 73.1875 35.5 
L 73.1875 27.203125 
L 10.59375 27.203125 
z
" id="DejaVuSans-2212"/>
      <path d="M 33.015625 40.375 
Q 26.375 40.375 22.484375 35.828125 
Q 18.609375 31.296875 18.609375 23.390625 
Q 18.609375 15.53125 22.484375 10.953125 
Q 26.375 6.390625 33.015625 6.390625 
Q 39.65625 6.390625 43.53125 10.953125 
Q 47.40625 15.53125 47.40625 23.390625 
Q 47.40625 31.296875 43.53125 35.828125 
Q 39.65625 40.375 33.015625 40.375 
z
M 52.59375 71.296875 
L 52.59375 62.3125 
Q 48.875 64.0625 45.09375 64.984375 
Q 41.3125 65.921875 37.59375 65.921875 
Q 27.828125 65.921875 22.671875 59.328125 
Q 17.53125 52.734375 16.796875 39.40625 
Q 19.671875 43.65625 24.015625 45.921875 
Q 28.375 48.1875 33.59375 48.1875 
Q 44.578125 48.1875 50.953125 41.515625 
Q 57.328125 34.859375 57.328125 23.390625 
Q 57.328125 12.15625 50.6875 5.359375 
Q 44.046875 -1.421875 33.015625 -1.421875 
Q 20.359375 -1.421875 13.671875 8.265625 
Q 6.984375 17.96875 6.984375 36.375 
Q 6.984375 53.65625 15.1875 63.9375 
Q 23.390625 74.21875 37.203125 74.21875 
Q 40.921875 74.21875 44.703125 73.484375 
Q 48.484375 72.75 52.59375 71.296875 
z
" id="DejaVuSans-36"/>
     </defs>
     <g transform="translate(93.221865 226.46444)scale(0.1 -0.1)">
      <use xlink:href="#DejaVuSans-2212"/>
      <use x="83.789062" xlink:href="#DejaVuSans-36"/>
     </g>
    </g>
   </g>
   <g id="xtick_2">
    <g id="line2d_3">
     <path d="M 132.124988 210.484617 
L 129.684147 211.890105 
" style="fill:none;stroke:#000000;stroke-linecap:square;stroke-width:0.8;"/>
    </g>
    <g id="text_2">
     <!-- −4 -->
     <defs>
      <path d="M 37.796875 64.3125 
L 12.890625 25.390625 
L 37.796875 25.390625 
z
M 35.203125 72.90625 
L 47.609375 72.90625 
L 47.609375 25.390625 
L 58.015625 25.390625 
L 58.015625 17.1875 
L 47.609375 17.1875 
L 47.609375 0 
L 37.796875 0 
L 37.796875 17.1875 
L 4.890625 17.1875 
L 4.890625 26.703125 
z
" id="DejaVuSans-34"/>
     </defs>
     <g transform="translate(116.191654 231.441574)scale(0.1 -0.1)">
      <use xlink:href="#DejaVuSans-2212"/>
      <use x="83.789062" xlink:href="#DejaVuSans-34"/>
     </g>
    </g>
   </g>
   <g id="xtick_3">
    <g id="line2d_4">
     <path d="M 155.391897 215.425731 
L 152.978882 216.849849 
" style="fill:none;stroke:#000000;stroke-linecap:square;stroke-width:0.8;"/>
    </g>
    <g id="text_3">
     <!-- −2 -->
     <defs>
      <path d="M 19.1875 8.296875 
L 53.609375 8.296875 
L 53.609375 0 
L 7.328125 0 
L 7.328125 8.296875 
Q 12.9375 14.109375 22.625 23.890625 
Q 32.328125 33.6875 34.8125 36.53125 
Q 39.546875 41.84375 41.421875 45.53125 
Q 43.3125 49.21875 43.3125 52.78125 
Q 43.3125 58.59375 39.234375 62.25 
Q 35.15625 65.921875 28.609375 65.921875 
Q 23.96875 65.921875 18.8125 64.3125 
Q 13.671875 62.703125 7.8125 59.421875 
L 7.8125 69.390625 
Q 13.765625 71.78125 18.9375 73 
Q 24.125 74.21875 28.421875 74.21875 
Q 39.75 74.21875 46.484375 68.546875 
Q 53.21875 62.890625 53.21875 53.421875 
Q 53.21875 48.921875 51.53125 44.890625 
Q 49.859375 40.875 45.40625 35.40625 
Q 44.1875 33.984375 37.640625 27.21875 
Q 31.109375 20.453125 19.1875 8.296875 
z
" id="DejaVuSans-32"/>
     </defs>
     <g transform="translate(139.46544 236.484579)scale(0.1 -0.1)">
      <use xlink:href="#DejaVuSans-2212"/>
      <use x="83.789062" xlink:href="#DejaVuSans-32"/>
     </g>
    </g>
   </g>
   <g id="xtick_4">
    <g id="line2d_5">
     <path d="M 178.967936 220.432494 
L 176.583706 221.875614 
" style="fill:none;stroke:#000000;stroke-linecap:square;stroke-width:0.8;"/>
    </g>
    <g id="text_4">
     <!-- 0 -->
     <defs>
      <path d="M 31.78125 66.40625 
Q 24.171875 66.40625 20.328125 58.90625 
Q 16.5 51.421875 16.5 36.375 
Q 16.5 21.390625 20.328125 13.890625 
Q 24.171875 6.390625 31.78125 6.390625 
Q 39.453125 6.390625 43.28125 13.890625 
Q 47.125 21.390625 47.125 36.375 
Q 47.125 51.421875 43.28125 58.90625 
Q 39.453125 66.40625 31.78125 66.40625 
z
M 31.78125 74.21875 
Q 44.046875 74.21875 50.515625 64.515625 
Q 56.984375 54.828125 56.984375 36.375 
Q 56.984375 17.96875 50.515625 8.265625 
Q 44.046875 -1.421875 31.78125 -1.421875 
Q 19.53125 -1.421875 13.0625 8.265625 
Q 6.59375 17.96875 6.59375 36.375 
Q 6.59375 54.828125 13.0625 64.515625 
Q 19.53125 74.21875 31.78125 74.21875 
z
" id="DejaVuSans-30"/>
     </defs>
     <g transform="translate(167.239142 241.59477)scale(0.1 -0.1)">
      <use xlink:href="#DejaVuSans-30"/>
     </g>
    </g>
   </g>
   <g id="xtick_5">
    <g id="line2d_6">
     <path d="M 202.859309 225.506223 
L 200.504853 226.968728 
" style="fill:none;stroke:#000000;stroke-linecap:square;stroke-width:0.8;"/>
    </g>
    <g id="text_5">
     <!-- 2 -->
     <g transform="translate(191.139311 246.773501)scale(0.1 -0.1)">
      <use xlink:href="#DejaVuSans-32"/>
     </g>
    </g>
   </g>
   <g id="xtick_6">
    <g id="line2d_7">
     <path d="M 227.072384 230.648271 
L 224.748724 232.130555 
" style="fill:none;stroke:#000000;stroke-linecap:square;stroke-width:0.8;"/>
    </g>
    <g id="text_6">
     <!-- 4 -->
     <g transform="translate(215.362197 252.022158)scale(0.1 -0.1)">
      <use xlink:href="#DejaVuSans-34"/>
     </g>
    </g>
   </g>
   <g id="xtick_7">
    <g id="line2d_8">
     <path d="M 251.613702 235.860027 
L 249.321894 237.362493 
" style="fill:none;stroke:#000000;stroke-linecap:square;stroke-width:0.8;"/>
    </g>
    <g id="text_7">
     <!-- 6 -->
     <g transform="translate(239.91438 257.342168)scale(0.1 -0.1)">
      <use xlink:href="#DejaVuSans-36"/>
     </g>
    </g>
   </g>
  </g>
  <g id="axis3d_2">
   <g id="line2d_9">
    <path d="M 349.426265 180.446553 
L 261.697263 238.665609 
" style="fill:none;stroke:#000000;stroke-linecap:square;stroke-width:0.8;"/>
   </g>
   <g id="Line3DCollection_2">
    <path d="M 98.371961 93.392146 
L 104.920339 200.316254 
L 267.701308 234.681182 
" style="fill:none;stroke:#b0b0b0;stroke-width:0.8;"/>
    <path d="M 113.939618 86.021181 
L 119.625088 192.135104 
L 281.196264 225.725608 
" style="fill:none;stroke:#b0b0b0;stroke-width:0.8;"/>
    <path d="M 129.148131 78.820263 
L 134.007634 184.133214 
L 294.382082 216.975185 
" style="fill:none;stroke:#b0b0b0;stroke-width:0.8;"/>
    <path d="M 144.009785 71.783576 
L 148.078453 176.304758 
L 307.269264 208.422944 
" style="fill:none;stroke:#b0b0b0;stroke-width:0.8;"/>
    <path d="M 158.536314 64.905563 
L 161.847569 168.644158 
L 319.867842 200.062227 
" style="fill:none;stroke:#b0b0b0;stroke-width:0.8;"/>
    <path d="M 172.738925 58.180919 
L 175.324585 161.146071 
L 332.187404 191.886672 
" style="fill:none;stroke:#b0b0b0;stroke-width:0.8;"/>
    <path d="M 186.628335 51.604569 
L 188.518696 153.805381 
L 344.237117 183.890196 
" style="fill:none;stroke:#b0b0b0;stroke-width:0.8;"/>
   </g>
   <g id="xtick_8">
    <g id="line2d_10">
     <path d="M 266.338974 234.393578 
L 270.42902 235.257033 
" style="fill:none;stroke:#000000;stroke-linecap:square;stroke-width:0.8;"/>
    </g>
    <g id="text_8">
     <!-- −6 -->
     <g transform="translate(273.765475 253.490052)scale(0.1 -0.1)">
      <use xlink:href="#DejaVuSans-2212"/>
      <use x="83.789062" xlink:href="#DejaVuSans-36"/>
     </g>
    </g>
   </g>
   <g id="xtick_9">
    <g id="line2d_11">
     <path d="M 279.844746 225.444629 
L 283.902285 226.288187 
" style="fill:none;stroke:#000000;stroke-linecap:square;stroke-width:0.8;"/>
    </g>
    <g id="text_9">
     <!-- −4 -->
     <g transform="translate(287.097178 244.409753)scale(0.1 -0.1)">
      <use xlink:href="#DejaVuSans-2212"/>
      <use x="83.789062" xlink:href="#DejaVuSans-34"/>
     </g>
    </g>
   </g>
   <g id="xtick_10">
    <g id="line2d_12">
     <path d="M 293.041244 216.700604 
L 297.066685 217.524946 
" style="fill:none;stroke:#000000;stroke-linecap:square;stroke-width:0.8;"/>
    </g>
    <g id="text_10">
     <!-- −2 -->
     <g transform="translate(300.123655 235.537346)scale(0.1 -0.1)">
      <use xlink:href="#DejaVuSans-2212"/>
      <use x="83.789062" xlink:href="#DejaVuSans-32"/>
     </g>
    </g>
   </g>
   <g id="xtick_11">
    <g id="line2d_13">
     <path d="M 305.938973 208.154545 
L 309.932719 208.96032 
" style="fill:none;stroke:#000000;stroke-linecap:square;stroke-width:0.8;"/>
    </g>
    <g id="text_11">
     <!-- 0 -->
     <g transform="translate(317.045112 226.865772)scale(0.1 -0.1)">
      <use xlink:href="#DejaVuSans-30"/>
     </g>
    </g>
   </g>
   <g id="xtick_12">
    <g id="line2d_14">
     <path d="M 318.547963 199.799805 
L 322.510418 200.587632 
" style="fill:none;stroke:#000000;stroke-linecap:square;stroke-width:0.8;"/>
    </g>
    <g id="text_12">
     <!-- 2 -->
     <g transform="translate(329.491762 218.388289)scale(0.1 -0.1)">
      <use xlink:href="#DejaVuSans-32"/>
     </g>
    </g>
   </g>
   <g id="xtick_13">
    <g id="line2d_15">
     <path d="M 330.877805 191.630028 
L 334.809367 192.400502 
" style="fill:none;stroke:#000000;stroke-linecap:square;stroke-width:0.8;"/>
    </g>
    <g id="text_13">
     <!-- 4 -->
     <g transform="translate(341.66291 210.098451)scale(0.1 -0.1)">
      <use xlink:href="#DejaVuSans-34"/>
     </g>
    </g>
   </g>
   <g id="xtick_14">
    <g id="line2d_16">
     <path d="M 342.937666 183.639142 
L 346.838731 184.392828 
" style="fill:none;stroke:#000000;stroke-linecap:square;stroke-width:0.8;"/>
    </g>
    <g id="text_14">
     <!-- 6 -->
     <g transform="translate(353.567603 201.990097)scale(0.1 -0.1)">
      <use xlink:href="#DejaVuSans-36"/>
     </g>
    </g>
   </g>
  </g>
  <g id="axis3d_3">
   <g id="line2d_17">
    <path d="M 349.426265 180.446553 
L 355.920561 75.505466 
" style="fill:none;stroke:#000000;stroke-linecap:square;stroke-width:0.8;"/>
   </g>
   <g id="Line3DCollection_3">
    <path d="M 349.549786 178.450589 
L 194.174017 148.700379 
L 98.251176 201.916388 
" style="fill:none;stroke:#b0b0b0;stroke-width:0.8;"/>
    <path d="M 350.546917 162.337987 
L 193.92864 133.031861 
L 97.1874 185.467357 
" style="fill:none;stroke:#b0b0b0;stroke-width:0.8;"/>
    <path d="M 351.560264 145.963351 
L 193.679441 117.119274 
L 96.105749 168.741915 
" style="fill:none;stroke:#b0b0b0;stroke-width:0.8;"/>
    <path d="M 352.590226 129.320237 
L 193.426329 100.95687 
L 95.005767 151.733036 
" style="fill:none;stroke:#b0b0b0;stroke-width:0.8;"/>
    <path d="M 353.637214 112.401987 
L 193.169212 84.538718 
L 93.886985 134.433454 
" style="fill:none;stroke:#b0b0b0;stroke-width:0.8;"/>
    <path d="M 354.701655 95.201723 
L 192.907994 67.858702 
L 92.748917 116.835652 
" style="fill:none;stroke:#b0b0b0;stroke-width:0.8;"/>
    <path d="M 355.783989 77.712332 
L 192.642576 50.910504 
L 91.591059 98.931851 
" style="fill:none;stroke:#b0b0b0;stroke-width:0.8;"/>
   </g>
   <g id="xtick_15">
    <g id="line2d_18">
     <path d="M 348.253397 178.202366 
L 352.14526 178.947551 
" style="fill:none;stroke:#000000;stroke-linecap:square;stroke-width:0.8;"/>
    </g>
    <g id="text_15">
     <!-- −6 -->
     <g transform="translate(361.587552 184.236663)scale(0.1 -0.1)">
      <use xlink:href="#DejaVuSans-2212"/>
      <use x="83.789062" xlink:href="#DejaVuSans-36"/>
     </g>
    </g>
   </g>
   <g id="xtick_16">
    <g id="line2d_19">
     <path d="M 349.239727 162.093388 
L 353.164037 162.827698 
" style="fill:none;stroke:#000000;stroke-linecap:square;stroke-width:0.8;"/>
    </g>
    <g id="text_16">
     <!-- −4 -->
     <g transform="translate(362.738289 168.150553)scale(0.1 -0.1)">
      <use xlink:href="#DejaVuSans-2212"/>
      <use x="83.789062" xlink:href="#DejaVuSans-34"/>
     </g>
    </g>
   </g>
   <g id="xtick_17">
    <g id="line2d_20">
     <path d="M 350.242092 145.722527 
L 354.199394 146.445507 
" style="fill:none;stroke:#000000;stroke-linecap:square;stroke-width:0.8;"/>
    </g>
    <g id="text_17">
     <!-- −2 -->
     <g transform="translate(363.907692 151.803512)scale(0.1 -0.1)">
      <use xlink:href="#DejaVuSans-2212"/>
      <use x="83.789062" xlink:href="#DejaVuSans-32"/>
     </g>
    </g>
   </g>
   <g id="xtick_18">
    <g id="line2d_21">
     <path d="M 351.260886 129.083345 
L 355.251738 129.794525 
" style="fill:none;stroke:#000000;stroke-linecap:square;stroke-width:0.8;"/>
    </g>
    <g id="text_18">
     <!-- 0 -->
     <g transform="translate(369.286062 135.18914)scale(0.1 -0.1)">
      <use xlink:href="#DejaVuSans-30"/>
     </g>
    </g>
   </g>
   <g id="xtick_19">
    <g id="line2d_22">
     <path d="M 352.296516 112.169192 
L 356.321492 112.868079 
" style="fill:none;stroke:#000000;stroke-linecap:square;stroke-width:0.8;"/>
    </g>
    <g id="text_19">
     <!-- 2 -->
     <g transform="translate(370.494186 118.300825)scale(0.1 -0.1)">
      <use xlink:href="#DejaVuSans-32"/>
     </g>
    </g>
   </g>
   <g id="xtick_20">
    <g id="line2d_23">
     <path d="M 353.349403 94.973193 
L 357.409091 95.659277 
" style="fill:none;stroke:#000000;stroke-linecap:square;stroke-width:0.8;"/>
    </g>
    <g id="text_20">
     <!-- 4 -->
     <g transform="translate(371.722395 101.131735)scale(0.1 -0.1)">
      <use xlink:href="#DejaVuSans-34"/>
     </g>
    </g>
   </g>
   <g id="xtick_21">
    <g id="line2d_24">
     <path d="M 354.419981 77.488245 
L 358.514985 78.160996 
" style="fill:none;stroke:#000000;stroke-linecap:square;stroke-width:0.8;"/>
    </g>
    <g id="text_21">
     <!-- 6 -->
     <g transform="translate(372.971195 83.67481)scale(0.1 -0.1)">
      <use xlink:href="#DejaVuSans-36"/>
     </g>
    </g>
   </g>
  </g>
  <g id="axes_1">
   <g id="Poly3DCollection_1">
    <path clip-path="url(#p7306abe6c8)" d="M 114.732161 200.377425 
L 119.450734 201.370866 
L 124.182018 202.366983 
L 128.926062 203.365787 
L 133.68292 204.367288 
L 138.452643 205.371498 
L 143.235283 206.378428 
L 148.030893 207.388089 
L 152.839526 208.400491 
L 157.661234 209.415646 
L 162.496072 210.433565 
L 167.344092 211.45426 
L 172.20535 212.477742 
L 177.079898 213.504022 
L 181.967793 214.533111 
L 186.869088 215.565023 
L 191.783839 216.599767 
L 196.712101 217.637355 
L 201.65393 218.677801 
L 206.609382 219.721114 
L 211.578514 220.767307 
L 216.561383 221.816393 
L 221.558045 222.868382 
L 226.568557 223.923288 
L 231.592978 224.981122 
L 236.631365 226.041896 
L 241.683777 227.105623 
L 246.750272 228.172315 
L 251.83091 229.241985 
L 256.925749 230.314645 
L 259.824468 225.003367 
L 262.719449 219.698938 
L 265.6107 214.401344 
L 268.498227 209.110573 
L 271.382039 203.826609 
L 274.262141 198.549442 
L 277.138542 193.279057 
L 280.011249 188.015441 
L 282.880268 182.758582 
L 285.745607 177.508466 
L 288.607272 172.265081 
L 291.465271 167.028413 
L 294.319611 161.79845 
L 297.170299 156.575179 
L 300.017342 151.358586 
L 302.860747 146.14866 
L 305.70052 140.945387 
L 308.536669 135.748754 
L 311.369201 130.55875 
L 314.198123 125.375361 
L 317.023441 120.198574 
L 319.845162 115.028377 
L 322.663294 109.864758 
L 325.477843 104.707704 
L 328.288816 99.557202 
L 331.096219 94.41324 
L 333.900061 89.275805 
L 336.700346 84.144885 
L 339.497083 79.020468 
L 334.382613 78.174775 
L 329.282138 77.331396 
L 324.1956 76.490321 
L 319.122944 75.651542 
L 314.064111 74.815049 
L 309.019046 73.980832 
L 303.987692 73.148882 
L 298.969994 72.31919 
L 293.965896 71.491748 
L 288.975342 70.666544 
L 283.998279 69.843572 
L 279.03465 69.022821 
L 274.084403 68.204282 
L 269.147482 67.387947 
L 264.223835 66.573807 
L 259.313407 65.761853 
L 254.416146 64.952076 
L 249.531999 64.144467 
L 244.660912 63.339018 
L 239.802834 62.53572 
L 234.957713 61.734565 
L 230.125497 60.935543 
L 225.306134 60.138646 
L 220.499573 59.343867 
L 215.705764 58.551196 
L 210.924655 57.760625 
L 206.156197 56.972146 
L 201.400338 56.18575 
L 196.65703 55.40143 
L 193.880269 60.315245 
L 191.10012 65.235056 
L 188.316575 70.160875 
L 185.52963 75.092713 
L 182.739278 80.030579 
L 179.945512 84.974487 
L 177.148327 89.924446 
L 174.347715 94.880468 
L 171.543671 99.842564 
L 168.736188 104.810746 
L 165.925261 109.785023 
L 163.110882 114.765408 
L 160.293045 119.751912 
L 157.471744 124.744546 
L 154.646973 129.743321 
L 151.818725 134.748249 
L 148.986994 139.759342 
L 146.151773 144.776609 
L 143.313055 149.800064 
L 140.470835 154.829717 
L 137.625106 159.86558 
L 134.775862 164.907664 
L 131.923095 169.955981 
L 129.066799 175.010543 
L 126.206968 180.07136 
L 123.343596 185.138446 
L 120.476675 190.21181 
L 117.606198 195.291466 
L 114.732161 200.377425 
z
" style="fill:#000080;fill-opacity:0.3;"/>
   </g>
   <g id="Poly3DCollection_2">
    <path clip-path="url(#p7306abe6c8)" d="M 114.732161 200.377425 
L 119.450734 201.370866 
L 124.182018 202.366983 
L 128.926062 203.365787 
L 133.68292 204.367288 
L 138.452643 205.371498 
L 143.235283 206.378428 
L 148.030893 207.388089 
L 152.839526 208.400491 
L 157.661234 209.415646 
L 162.496072 210.433565 
L 167.344092 211.45426 
L 172.20535 212.477742 
L 177.079898 213.504022 
L 181.967793 214.533111 
L 186.869088 215.565023 
L 191.783839 216.599767 
L 196.712101 217.637355 
L 201.65393 218.677801 
L 206.609382 219.721114 
L 211.578514 220.767307 
L 216.561383 221.816393 
L 221.558045 222.868382 
L 226.568557 223.923288 
L 231.592978 224.981122 
L 236.631365 226.041896 
L 241.683777 227.105623 
L 246.750272 228.172315 
L 251.83091 229.241985 
L 256.925749 230.314645 
L 259.824468 225.003367 
L 262.719449 219.698938 
L 265.6107 214.401344 
L 268.498227 209.110573 
L 271.382039 203.826609 
L 274.262141 198.549442 
L 277.138542 193.279057 
L 280.011249 188.015441 
L 282.880268 182.758582 
L 285.745607 177.508466 
L 288.607272 172.265081 
L 291.465271 167.028413 
L 294.319611 161.79845 
L 297.170299 156.575179 
L 300.017342 151.358586 
L 302.860747 146.14866 
L 305.70052 140.945387 
L 308.536669 135.748754 
L 311.369201 130.55875 
L 314.198123 125.375361 
L 317.023441 120.198574 
L 319.845162 115.028377 
L 322.663294 109.864758 
L 325.477843 104.707704 
L 328.288816 99.557202 
L 331.096219 94.41324 
L 333.900061 89.275805 
L 336.700346 84.144885 
L 339.497083 79.020468 
L 334.382613 78.174775 
L 329.282138 77.331396 
L 324.1956 76.490321 
L 319.122944 75.651542 
L 314.064111 74.815049 
L 309.019046 73.980832 
L 303.987692 73.148882 
L 298.969994 72.31919 
L 293.965896 71.491748 
L 288.975342 70.666544 
L 283.998279 69.843572 
L 279.03465 69.022821 
L 274.084403 68.204282 
L 269.147482 67.387947 
L 264.223835 66.573807 
L 259.313407 65.761853 
L 254.416146 64.952076 
L 249.531999 64.144467 
L 244.660912 63.339018 
L 239.802834 62.53572 
L 234.957713 61.734565 
L 230.125497 60.935543 
L 225.306134 60.138646 
L 220.499573 59.343867 
L 215.705764 58.551196 
L 210.924655 57.760625 
L 206.156197 56.972146 
L 201.400338 56.18575 
L 196.65703 55.40143 
L 193.880269 60.315245 
L 191.10012 65.235056 
L 188.316575 70.160875 
L 185.52963 75.092713 
L 182.739278 80.030579 
L 179.945512 84.974487 
L 177.148327 89.924446 
L 174.347715 94.880468 
L 171.543671 99.842564 
L 168.736188 104.810746 
L 165.925261 109.785023 
L 163.110882 114.765408 
L 160.293045 119.751912 
L 157.471744 124.744546 
L 154.646973 129.743321 
L 151.818725 134.748249 
L 148.986994 139.759342 
L 146.151773 144.776609 
L 143.313055 149.800064 
L 140.470835 154.829717 
L 137.625106 159.86558 
L 134.775862 164.907664 
L 131.923095 169.955981 
L 129.066799 175.010543 
L 126.206968 180.07136 
L 123.343596 185.138446 
L 120.476675 190.21181 
L 117.606198 195.291466 
L 114.732161 200.377425 
z
" style="fill:#606000;fill-opacity:0.3;"/>
   </g>
   <g id="Poly3DCollection_3">
    <path clip-path="url(#p7306abe6c8)" d="M 114.732161 200.377425 
L 119.450734 201.370866 
L 124.182018 202.366983 
L 128.926062 203.365787 
L 133.68292 204.367288 
L 138.452643 205.371498 
L 143.235283 206.378428 
L 148.030893 207.388089 
L 152.839526 208.400491 
L 157.661234 209.415646 
L 162.496072 210.433565 
L 167.344092 211.45426 
L 172.20535 212.477742 
L 177.079898 213.504022 
L 181.967793 214.533111 
L 186.869088 215.565023 
L 191.783839 216.599767 
L 196.712101 217.637355 
L 201.65393 218.677801 
L 206.609382 219.721114 
L 211.578514 220.767307 
L 216.561383 221.816393 
L 221.558045 222.868382 
L 226.568557 223.923288 
L 231.592978 224.981122 
L 236.631365 226.041896 
L 241.683777 227.105623 
L 246.750272 228.172315 
L 251.83091 229.241985 
L 256.925749 230.314645 
L 259.824468 225.003367 
L 262.719449 219.698938 
L 265.6107 214.401344 
L 268.498227 209.110573 
L 271.382039 203.826609 
L 274.262141 198.549442 
L 277.138542 193.279057 
L 280.011249 188.015441 
L 282.880268 182.758582 
L 285.745607 177.508466 
L 288.607272 172.265081 
L 291.465271 167.028413 
L 294.319611 161.79845 
L 297.170299 156.575179 
L 300.017342 151.358586 
L 302.860747 146.14866 
L 305.70052 140.945387 
L 308.536669 135.748754 
L 311.369201 130.55875 
L 314.198123 125.375361 
L 317.023441 120.198574 
L 319.845162 115.028377 
L 322.663294 109.864758 
L 325.477843 104.707704 
L 328.288816 99.557202 
L 331.096219 94.41324 
L 333.900061 89.275805 
L 336.700346 84.144885 
L 339.497083 79.020468 
L 334.382613 78.174775 
L 329.282138 77.331396 
L 324.1956 76.490321 
L 319.122944 75.651542 
L 314.064111 74.815049 
L 309.019046 73.980832 
L 303.987692 73.148882 
L 298.969994 72.31919 
L 293.965896 71.491748 
L 288.975342 70.666544 
L 283.998279 69.843572 
L 279.03465 69.022821 
L 274.084403 68.204282 
L 269.147482 67.387947 
L 264.223835 66.573807 
L 259.313407 65.761853 
L 254.416146 64.952076 
L 249.531999 64.144467 
L 244.660912 63.339018 
L 239.802834 62.53572 
L 234.957713 61.734565 
L 230.125497 60.935543 
L 225.306134 60.138646 
L 220.499573 59.343867 
L 215.705764 58.551196 
L 210.924655 57.760625 
L 206.156197 56.972146 
L 201.400338 56.18575 
L 196.65703 55.40143 
L 193.880269 60.315245 
L 191.10012 65.235056 
L 188.316575 70.160875 
L 185.52963 75.092713 
L 182.739278 80.030579 
L 179.945512 84.974487 
L 177.148327 89.924446 
L 174.347715 94.880468 
L 171.543671 99.842564 
L 168.736188 104.810746 
L 165.925261 109.785023 
L 163.110882 114.765408 
L 160.293045 119.751912 
L 157.471744 124.744546 
L 154.646973 129.743321 
L 151.818725 134.748249 
L 148.986994 139.759342 
L 146.151773 144.776609 
L 143.313055 149.800064 
L 140.470835 154.829717 
L 137.625106 159.86558 
L 134.775862 164.907664 
L 131.923095 169.955981 
L 129.066799 175.010543 
L 126.206968 180.07136 
L 123.343596 185.138446 
L 120.476675 190.21181 
L 117.606198 195.291466 
L 114.732161 200.377425 
z
" style="fill:#600060;fill-opacity:0.3;"/>
   </g>
  </g>
 </g>
 <defs>
  <clipPath id="p7306abe6c8">
   <rect height="217.44" width="334.8" x="54" y="34.56"/>
  </clipPath>
 </defs>
</svg>
