<?xml version="1.0" encoding="utf-8" standalone="no"?>
<!DOCTYPE svg PUBLIC "-//W3C//DTD SVG 1.1//EN"
  "http://www.w3.org/Graphics/SVG/1.1/DTD/svg11.dtd">
<!-- Created with matplotlib (http://matplotlib.org/) -->
<svg height="288pt" version="1.1" viewBox="0 0 1152 288" width="1152pt" xmlns="http://www.w3.org/2000/svg" xmlns:xlink="http://www.w3.org/1999/xlink">
 <defs>
  <style type="text/css">
*{stroke-linecap:butt;stroke-linejoin:round;}
  </style>
 </defs>
 <g id="figure_1">
  <g id="patch_1">
   <path d="M 0 288 
L 1152 288 
L 1152 0 
L 0 0 
z
" style="fill:#ffffff;"/>
  </g>
  <g id="axes_1">
   <g id="patch_2">
    <path d="M 144 252 
L 1036.8 252 
L 1036.8 34.56 
L 144 34.56 
z
" style="fill:#ffffff;"/>
   </g>
   <g id="matplotlib.axis_1">
    <g id="xtick_1">
     <g id="line2d_1">
      <defs>
       <path d="M 0 0 
L 0 3.5 
" id="m3fa0f083e8" style="stroke:#000000;stroke-width:0.8;"/>
      </defs>
      <g>
       <use style="stroke:#000000;stroke-width:0.8;" x="184.581818" xlink:href="#m3fa0f083e8" y="252"/>
      </g>
     </g>
     <g id="text_1">
      <!-- 0.0 -->
      <defs>
       <path d="M 31.78125 66.40625 
Q 24.171875 66.40625 20.328125 58.90625 
Q 16.5 51.421875 16.5 36.375 
Q 16.5 21.390625 20.328125 13.890625 
Q 24.171875 6.390625 31.78125 6.390625 
Q 39.453125 6.390625 43.28125 13.890625 
Q 47.125 21.390625 47.125 36.375 
Q 47.125 51.421875 43.28125 58.90625 
Q 39.453125 66.40625 31.78125 66.40625 
z
M 31.78125 74.21875 
Q 44.046875 74.21875 50.515625 64.515625 
Q 56.984375 54.828125 56.984375 36.375 
Q 56.984375 17.96875 50.515625 8.265625 
Q 44.046875 -1.421875 31.78125 -1.421875 
Q 19.53125 -1.421875 13.0625 8.265625 
Q 6.59375 17.96875 6.59375 36.375 
Q 6.59375 54.828125 13.0625 64.515625 
Q 19.53125 74.21875 31.78125 74.21875 
z
" id="DejaVuSans-30"/>
       <path d="M 10.6875 12.40625 
L 21 12.40625 
L 21 0 
L 10.6875 0 
z
" id="DejaVuSans-2e"/>
      </defs>
      <g transform="translate(176.630256 266.598437)scale(0.1 -0.1)">
       <use xlink:href="#DejaVuSans-30"/>
       <use x="63.623047" xlink:href="#DejaVuSans-2e"/>
       <use x="95.410156" xlink:href="#DejaVuSans-30"/>
      </g>
     </g>
    </g>
    <g id="xtick_2">
     <g id="line2d_2">
      <g>
       <use style="stroke:#000000;stroke-width:0.8;" x="319.854545" xlink:href="#m3fa0f083e8" y="252"/>
      </g>
     </g>
     <g id="text_2">
      <!-- 0.5 -->
      <defs>
       <path d="M 10.796875 72.90625 
L 49.515625 72.90625 
L 49.515625 64.59375 
L 19.828125 64.59375 
L 19.828125 46.734375 
Q 21.96875 47.46875 24.109375 47.828125 
Q 26.265625 48.1875 28.421875 48.1875 
Q 40.625 48.1875 47.75 41.5 
Q 54.890625 34.8125 54.890625 23.390625 
Q 54.890625 11.625 47.5625 5.09375 
Q 40.234375 -1.421875 26.90625 -1.421875 
Q 22.3125 -1.421875 17.546875 -0.640625 
Q 12.796875 0.140625 7.71875 1.703125 
L 7.71875 11.625 
Q 12.109375 9.234375 16.796875 8.0625 
Q 21.484375 6.890625 26.703125 6.890625 
Q 35.15625 6.890625 40.078125 11.328125 
Q 45.015625 15.765625 45.015625 23.390625 
Q 45.015625 31 40.078125 35.4375 
Q 35.15625 39.890625 26.703125 39.890625 
Q 22.75 39.890625 18.8125 39.015625 
Q 14.890625 38.140625 10.796875 36.28125 
z
" id="DejaVuSans-35"/>
      </defs>
      <g transform="translate(311.902983 266.598437)scale(0.1 -0.1)">
       <use xlink:href="#DejaVuSans-30"/>
       <use x="63.623047" xlink:href="#DejaVuSans-2e"/>
       <use x="95.410156" xlink:href="#DejaVuSans-35"/>
      </g>
     </g>
    </g>
    <g id="xtick_3">
     <g id="line2d_3">
      <g>
       <use style="stroke:#000000;stroke-width:0.8;" x="455.127273" xlink:href="#m3fa0f083e8" y="252"/>
      </g>
     </g>
     <g id="text_3">
      <!-- 1.0 -->
      <defs>
       <path d="M 12.40625 8.296875 
L 28.515625 8.296875 
L 28.515625 63.921875 
L 10.984375 60.40625 
L 10.984375 69.390625 
L 28.421875 72.90625 
L 38.28125 72.90625 
L 38.28125 8.296875 
L 54.390625 8.296875 
L 54.390625 0 
L 12.40625 0 
z
" id="DejaVuSans-31"/>
      </defs>
      <g transform="translate(447.17571 266.598437)scale(0.1 -0.1)">
       <use xlink:href="#DejaVuSans-31"/>
       <use x="63.623047" xlink:href="#DejaVuSans-2e"/>
       <use x="95.410156" xlink:href="#DejaVuSans-30"/>
      </g>
     </g>
    </g>
    <g id="xtick_4">
     <g id="line2d_4">
      <g>
       <use style="stroke:#000000;stroke-width:0.8;" x="590.4" xlink:href="#m3fa0f083e8" y="252"/>
      </g>
     </g>
     <g id="text_4">
      <!-- 1.5 -->
      <g transform="translate(582.448438 266.598437)scale(0.1 -0.1)">
       <use xlink:href="#DejaVuSans-31"/>
       <use x="63.623047" xlink:href="#DejaVuSans-2e"/>
       <use x="95.410156" xlink:href="#DejaVuSans-35"/>
      </g>
     </g>
    </g>
    <g id="xtick_5">
     <g id="line2d_5">
      <g>
       <use style="stroke:#000000;stroke-width:0.8;" x="725.672727" xlink:href="#m3fa0f083e8" y="252"/>
      </g>
     </g>
     <g id="text_5">
      <!-- 2.0 -->
      <defs>
       <path d="M 19.1875 8.296875 
L 53.609375 8.296875 
L 53.609375 0 
L 7.328125 0 
L 7.328125 8.296875 
Q 12.9375 14.109375 22.625 23.890625 
Q 32.328125 33.6875 34.8125 36.53125 
Q 39.546875 41.84375 41.421875 45.53125 
Q 43.3125 49.21875 43.3125 52.78125 
Q 43.3125 58.59375 39.234375 62.25 
Q 35.15625 65.921875 28.609375 65.921875 
Q 23.96875 65.921875 18.8125 64.3125 
Q 13.671875 62.703125 7.8125 59.421875 
L 7.8125 69.390625 
Q 13.765625 71.78125 18.9375 73 
Q 24.125 74.21875 28.421875 74.21875 
Q 39.75 74.21875 46.484375 68.546875 
Q 53.21875 62.890625 53.21875 53.421875 
Q 53.21875 48.921875 51.53125 44.890625 
Q 49.859375 40.875 45.40625 35.40625 
Q 44.1875 33.984375 37.640625 27.21875 
Q 31.109375 20.453125 19.1875 8.296875 
z
" id="DejaVuSans-32"/>
      </defs>
      <g transform="translate(717.721165 266.598437)scale(0.1 -0.1)">
       <use xlink:href="#DejaVuSans-32"/>
       <use x="63.623047" xlink:href="#DejaVuSans-2e"/>
       <use x="95.410156" xlink:href="#DejaVuSans-30"/>
      </g>
     </g>
    </g>
    <g id="xtick_6">
     <g id="line2d_6">
      <g>
       <use style="stroke:#000000;stroke-width:0.8;" x="860.945455" xlink:href="#m3fa0f083e8" y="252"/>
      </g>
     </g>
     <g id="text_6">
      <!-- 2.5 -->
      <g transform="translate(852.993892 266.598437)scale(0.1 -0.1)">
       <use xlink:href="#DejaVuSans-32"/>
       <use x="63.623047" xlink:href="#DejaVuSans-2e"/>
       <use x="95.410156" xlink:href="#DejaVuSans-35"/>
      </g>
     </g>
    </g>
    <g id="xtick_7">
     <g id="line2d_7">
      <g>
       <use style="stroke:#000000;stroke-width:0.8;" x="996.218182" xlink:href="#m3fa0f083e8" y="252"/>
      </g>
     </g>
     <g id="text_7">
      <!-- 3.0 -->
      <defs>
       <path d="M 40.578125 39.3125 
Q 47.65625 37.796875 51.625 33 
Q 55.609375 28.21875 55.609375 21.1875 
Q 55.609375 10.40625 48.1875 4.484375 
Q 40.765625 -1.421875 27.09375 -1.421875 
Q 22.515625 -1.421875 17.65625 -0.515625 
Q 12.796875 0.390625 7.625 2.203125 
L 7.625 11.71875 
Q 11.71875 9.328125 16.59375 8.109375 
Q 21.484375 6.890625 26.8125 6.890625 
Q 36.078125 6.890625 40.9375 10.546875 
Q 45.796875 14.203125 45.796875 21.1875 
Q 45.796875 27.640625 41.28125 31.265625 
Q 36.765625 34.90625 28.71875 34.90625 
L 20.21875 34.90625 
L 20.21875 43.015625 
L 29.109375 43.015625 
Q 36.375 43.015625 40.234375 45.921875 
Q 44.09375 48.828125 44.09375 54.296875 
Q 44.09375 59.90625 40.109375 62.90625 
Q 36.140625 65.921875 28.71875 65.921875 
Q 24.65625 65.921875 20.015625 65.03125 
Q 15.375 64.15625 9.8125 62.3125 
L 9.8125 71.09375 
Q 15.4375 72.65625 20.34375 73.4375 
Q 25.25 74.21875 29.59375 74.21875 
Q 40.828125 74.21875 47.359375 69.109375 
Q 53.90625 64.015625 53.90625 55.328125 
Q 53.90625 49.265625 50.4375 45.09375 
Q 46.96875 40.921875 40.578125 39.3125 
z
" id="DejaVuSans-33"/>
      </defs>
      <g transform="translate(988.266619 266.598437)scale(0.1 -0.1)">
       <use xlink:href="#DejaVuSans-33"/>
       <use x="63.623047" xlink:href="#DejaVuSans-2e"/>
       <use x="95.410156" xlink:href="#DejaVuSans-30"/>
      </g>
     </g>
    </g>
    <g id="text_8">
     <!-- t -->
     <defs>
      <path d="M 18.3125 70.21875 
L 18.3125 54.6875 
L 36.8125 54.6875 
L 36.8125 47.703125 
L 18.3125 47.703125 
L 18.3125 18.015625 
Q 18.3125 11.328125 20.140625 9.421875 
Q 21.96875 7.515625 27.59375 7.515625 
L 36.8125 7.515625 
L 36.8125 0 
L 27.59375 0 
Q 17.1875 0 13.234375 3.875 
Q 9.28125 7.765625 9.28125 18.015625 
L 9.28125 47.703125 
L 2.6875 47.703125 
L 2.6875 54.6875 
L 9.28125 54.6875 
L 9.28125 70.21875 
z
" id="DejaVuSans-74"/>
     </defs>
     <g transform="translate(587.26375 284.835625)scale(0.16 -0.16)">
      <use xlink:href="#DejaVuSans-74"/>
     </g>
    </g>
   </g>
   <g id="matplotlib.axis_2">
    <g id="ytick_1">
     <g id="line2d_8">
      <defs>
       <path d="M 0 0 
L -3.5 0 
" id="m9c77682bf7" style="stroke:#000000;stroke-width:0.8;"/>
      </defs>
      <g>
       <use style="stroke:#000000;stroke-width:0.8;" x="144" xlink:href="#m9c77682bf7" y="242.116364"/>
      </g>
     </g>
     <g id="text_9">
      <!-- −1.00 -->
      <defs>
       <path d="M 10.59375 35.5 
L 73.1875 35.5 
L 73.1875 27.203125 
L 10.59375 27.203125 
z
" id="DejaVuSans-2212"/>
      </defs>
      <g transform="translate(106.354687 245.915582)scale(0.1 -0.1)">
       <use xlink:href="#DejaVuSans-2212"/>
       <use x="83.789062" xlink:href="#DejaVuSans-31"/>
       <use x="147.412109" xlink:href="#DejaVuSans-2e"/>
       <use x="179.199219" xlink:href="#DejaVuSans-30"/>
       <use x="242.822266" xlink:href="#DejaVuSans-30"/>
      </g>
     </g>
    </g>
    <g id="ytick_2">
     <g id="line2d_9">
      <g>
       <use style="stroke:#000000;stroke-width:0.8;" x="144" xlink:href="#m9c77682bf7" y="217.407273"/>
      </g>
     </g>
     <g id="text_10">
      <!-- −0.75 -->
      <defs>
       <path d="M 8.203125 72.90625 
L 55.078125 72.90625 
L 55.078125 68.703125 
L 28.609375 0 
L 18.3125 0 
L 43.21875 64.59375 
L 8.203125 64.59375 
z
" id="DejaVuSans-37"/>
      </defs>
      <g transform="translate(106.354687 221.206491)scale(0.1 -0.1)">
       <use xlink:href="#DejaVuSans-2212"/>
       <use x="83.789062" xlink:href="#DejaVuSans-30"/>
       <use x="147.412109" xlink:href="#DejaVuSans-2e"/>
       <use x="179.199219" xlink:href="#DejaVuSans-37"/>
       <use x="242.822266" xlink:href="#DejaVuSans-35"/>
      </g>
     </g>
    </g>
    <g id="ytick_3">
     <g id="line2d_10">
      <g>
       <use style="stroke:#000000;stroke-width:0.8;" x="144" xlink:href="#m9c77682bf7" y="192.698182"/>
      </g>
     </g>
     <g id="text_11">
      <!-- −0.50 -->
      <g transform="translate(106.354687 196.497401)scale(0.1 -0.1)">
       <use xlink:href="#DejaVuSans-2212"/>
       <use x="83.789062" xlink:href="#DejaVuSans-30"/>
       <use x="147.412109" xlink:href="#DejaVuSans-2e"/>
       <use x="179.199219" xlink:href="#DejaVuSans-35"/>
       <use x="242.822266" xlink:href="#DejaVuSans-30"/>
      </g>
     </g>
    </g>
    <g id="ytick_4">
     <g id="line2d_11">
      <g>
       <use style="stroke:#000000;stroke-width:0.8;" x="144" xlink:href="#m9c77682bf7" y="167.989091"/>
      </g>
     </g>
     <g id="text_12">
      <!-- −0.25 -->
      <g transform="translate(106.354687 171.78831)scale(0.1 -0.1)">
       <use xlink:href="#DejaVuSans-2212"/>
       <use x="83.789062" xlink:href="#DejaVuSans-30"/>
       <use x="147.412109" xlink:href="#DejaVuSans-2e"/>
       <use x="179.199219" xlink:href="#DejaVuSans-32"/>
       <use x="242.822266" xlink:href="#DejaVuSans-35"/>
      </g>
     </g>
    </g>
    <g id="ytick_5">
     <g id="line2d_12">
      <g>
       <use style="stroke:#000000;stroke-width:0.8;" x="144" xlink:href="#m9c77682bf7" y="143.28"/>
      </g>
     </g>
     <g id="text_13">
      <!-- 0.00 -->
      <g transform="translate(114.734375 147.079219)scale(0.1 -0.1)">
       <use xlink:href="#DejaVuSans-30"/>
       <use x="63.623047" xlink:href="#DejaVuSans-2e"/>
       <use x="95.410156" xlink:href="#DejaVuSans-30"/>
       <use x="159.033203" xlink:href="#DejaVuSans-30"/>
      </g>
     </g>
    </g>
    <g id="ytick_6">
     <g id="line2d_13">
      <g>
       <use style="stroke:#000000;stroke-width:0.8;" x="144" xlink:href="#m9c77682bf7" y="118.570909"/>
      </g>
     </g>
     <g id="text_14">
      <!-- 0.25 -->
      <g transform="translate(114.734375 122.370128)scale(0.1 -0.1)">
       <use xlink:href="#DejaVuSans-30"/>
       <use x="63.623047" xlink:href="#DejaVuSans-2e"/>
       <use x="95.410156" xlink:href="#DejaVuSans-32"/>
       <use x="159.033203" xlink:href="#DejaVuSans-35"/>
      </g>
     </g>
    </g>
    <g id="ytick_7">
     <g id="line2d_14">
      <g>
       <use style="stroke:#000000;stroke-width:0.8;" x="144" xlink:href="#m9c77682bf7" y="93.861818"/>
      </g>
     </g>
     <g id="text_15">
      <!-- 0.50 -->
      <g transform="translate(114.734375 97.661037)scale(0.1 -0.1)">
       <use xlink:href="#DejaVuSans-30"/>
       <use x="63.623047" xlink:href="#DejaVuSans-2e"/>
       <use x="95.410156" xlink:href="#DejaVuSans-35"/>
       <use x="159.033203" xlink:href="#DejaVuSans-30"/>
      </g>
     </g>
    </g>
    <g id="ytick_8">
     <g id="line2d_15">
      <g>
       <use style="stroke:#000000;stroke-width:0.8;" x="144" xlink:href="#m9c77682bf7" y="69.152727"/>
      </g>
     </g>
     <g id="text_16">
      <!-- 0.75 -->
      <g transform="translate(114.734375 72.951946)scale(0.1 -0.1)">
       <use xlink:href="#DejaVuSans-30"/>
       <use x="63.623047" xlink:href="#DejaVuSans-2e"/>
       <use x="95.410156" xlink:href="#DejaVuSans-37"/>
       <use x="159.033203" xlink:href="#DejaVuSans-35"/>
      </g>
     </g>
    </g>
    <g id="ytick_9">
     <g id="line2d_16">
      <g>
       <use style="stroke:#000000;stroke-width:0.8;" x="144" xlink:href="#m9c77682bf7" y="44.443636"/>
      </g>
     </g>
     <g id="text_17">
      <!-- 1.00 -->
      <g transform="translate(114.734375 48.242855)scale(0.1 -0.1)">
       <use xlink:href="#DejaVuSans-31"/>
       <use x="63.623047" xlink:href="#DejaVuSans-2e"/>
       <use x="95.410156" xlink:href="#DejaVuSans-30"/>
       <use x="159.033203" xlink:href="#DejaVuSans-30"/>
      </g>
     </g>
    </g>
    <g id="text_18">
     <!-- $sin(4\pi t)$ -->
     <defs>
      <path d="M 50 53.078125 
L 48.296875 44.578125 
Q 44.734375 46.53125 40.765625 47.5 
Q 36.8125 48.484375 32.625 48.484375 
Q 25.53125 48.484375 21.453125 46.0625 
Q 17.390625 43.65625 17.390625 39.5 
Q 17.390625 34.671875 26.859375 32.078125 
Q 27.59375 31.890625 27.9375 31.78125 
L 30.8125 30.90625 
Q 39.796875 28.421875 42.796875 25.6875 
Q 45.796875 22.953125 45.796875 18.21875 
Q 45.796875 9.515625 38.890625 4.046875 
Q 31.984375 -1.421875 20.796875 -1.421875 
Q 16.453125 -1.421875 11.671875 -0.578125 
Q 6.890625 0.25 1.125 2 
L 2.875 11.28125 
Q 7.8125 8.734375 12.59375 7.421875 
Q 17.390625 6.109375 21.78125 6.109375 
Q 28.375 6.109375 32.5 8.9375 
Q 36.625 11.765625 36.625 16.109375 
Q 36.625 20.796875 25.78125 23.6875 
L 24.859375 23.921875 
L 21.78125 24.703125 
Q 14.9375 26.515625 11.765625 29.46875 
Q 8.59375 32.421875 8.59375 37.015625 
Q 8.59375 45.75 15.15625 50.875 
Q 21.734375 56 33.015625 56 
Q 37.453125 56 41.671875 55.265625 
Q 45.90625 54.546875 50 53.078125 
z
" id="DejaVuSans-Oblique-73"/>
      <path d="M 18.3125 75.984375 
L 27.296875 75.984375 
L 25.09375 64.59375 
L 16.109375 64.59375 
z
M 14.203125 54.6875 
L 23.1875 54.6875 
L 12.5 0 
L 3.515625 0 
z
" id="DejaVuSans-Oblique-69"/>
      <path d="M 55.71875 33.015625 
L 49.3125 0 
L 40.28125 0 
L 46.6875 32.671875 
Q 47.125 34.96875 47.359375 36.71875 
Q 47.609375 38.484375 47.609375 39.5 
Q 47.609375 43.609375 45.015625 45.890625 
Q 42.4375 48.1875 37.796875 48.1875 
Q 30.5625 48.1875 25.34375 43.375 
Q 20.125 38.578125 18.5 30.328125 
L 12.5 0 
L 3.515625 0 
L 14.109375 54.6875 
L 23.09375 54.6875 
L 21.296875 46.09375 
Q 25.046875 50.828125 30.3125 53.40625 
Q 35.59375 56 41.40625 56 
Q 48.640625 56 52.609375 52.09375 
Q 56.59375 48.1875 56.59375 41.109375 
Q 56.59375 39.359375 56.375 37.359375 
Q 56.15625 35.359375 55.71875 33.015625 
z
" id="DejaVuSans-Oblique-6e"/>
      <path d="M 31 75.875 
Q 24.46875 64.65625 21.28125 53.65625 
Q 18.109375 42.671875 18.109375 31.390625 
Q 18.109375 20.125 21.3125 9.0625 
Q 24.515625 -2 31 -13.1875 
L 23.1875 -13.1875 
Q 15.875 -1.703125 12.234375 9.375 
Q 8.59375 20.453125 8.59375 31.390625 
Q 8.59375 42.28125 12.203125 53.3125 
Q 15.828125 64.359375 23.1875 75.875 
z
" id="DejaVuSans-28"/>
      <path d="M 37.796875 64.3125 
L 12.890625 25.390625 
L 37.796875 25.390625 
z
M 35.203125 72.90625 
L 47.609375 72.90625 
L 47.609375 25.390625 
L 58.015625 25.390625 
L 58.015625 17.1875 
L 47.609375 17.1875 
L 47.609375 0 
L 37.796875 0 
L 37.796875 17.1875 
L 4.890625 17.1875 
L 4.890625 26.703125 
z
" id="DejaVuSans-34"/>
      <path d="M 9.125 54.6875 
L 61.53125 54.6875 
L 59.765625 45.703125 
L 52.875 45.703125 
L 46.34375 12.109375 
Q 45.65625 8.59375 46.578125 7.03125 
Q 47.46875 5.515625 50.140625 5.515625 
Q 50.875 5.515625 51.953125 5.671875 
Q 53.078125 5.765625 53.421875 5.8125 
L 52.15625 -0.6875 
Q 50.34375 -1.3125 48.484375 -1.609375 
Q 46.578125 -1.90625 44.78125 -1.90625 
Q 38.921875 -1.90625 37.3125 1.265625 
Q 35.6875 4.5 37.359375 13.09375 
L 43.703125 45.703125 
L 23.53125 45.703125 
L 14.65625 0 
L 5.46875 0 
L 14.359375 45.703125 
L 7.375 45.703125 
z
" id="DejaVuSans-Oblique-3c0"/>
      <path d="M 42.28125 54.6875 
L 40.921875 47.703125 
L 23 47.703125 
L 17.1875 18.015625 
Q 16.890625 16.359375 16.75 15.234375 
Q 16.609375 14.109375 16.609375 13.484375 
Q 16.609375 10.359375 18.484375 8.9375 
Q 20.359375 7.515625 24.515625 7.515625 
L 33.59375 7.515625 
L 32.078125 0 
L 23.484375 0 
Q 15.484375 0 11.546875 3.125 
Q 7.625 6.25 7.625 12.59375 
Q 7.625 13.71875 7.765625 15.0625 
Q 7.90625 16.40625 8.203125 18.015625 
L 14.015625 47.703125 
L 6.390625 47.703125 
L 7.8125 54.6875 
L 15.28125 54.6875 
L 18.3125 70.21875 
L 27.296875 70.21875 
L 24.3125 54.6875 
z
" id="DejaVuSans-Oblique-74"/>
      <path d="M 8.015625 75.875 
L 15.828125 75.875 
Q 23.140625 64.359375 26.78125 53.3125 
Q 30.421875 42.28125 30.421875 31.390625 
Q 30.421875 20.453125 26.78125 9.375 
Q 23.140625 -1.703125 15.828125 -13.1875 
L 8.015625 -13.1875 
Q 14.5 -2 17.703125 9.0625 
Q 20.90625 20.125 20.90625 31.390625 
Q 20.90625 42.671875 17.703125 53.65625 
Q 14.5 64.65625 8.015625 75.875 
z
" id="DejaVuSans-29"/>
     </defs>
     <g transform="translate(99.027187 174.08)rotate(-90)scale(0.16 -0.16)">
      <use transform="translate(0 0.015625)" xlink:href="#DejaVuSans-Oblique-73"/>
      <use transform="translate(52.099609 0.015625)" xlink:href="#DejaVuSans-Oblique-69"/>
      <use transform="translate(79.882812 0.015625)" xlink:href="#DejaVuSans-Oblique-6e"/>
      <use transform="translate(143.261719 0.015625)" xlink:href="#DejaVuSans-28"/>
      <use transform="translate(182.275391 0.015625)" xlink:href="#DejaVuSans-34"/>
      <use transform="translate(245.898438 0.015625)" xlink:href="#DejaVuSans-Oblique-3c0"/>
      <use transform="translate(306.103516 0.015625)" xlink:href="#DejaVuSans-Oblique-74"/>
      <use transform="translate(345.3125 0.015625)" xlink:href="#DejaVuSans-29"/>
     </g>
    </g>
   </g>
   <g id="line2d_17">
    <path clip-path="url(#peb141d32ab)" d="M 184.581818 143.28 
L 191.081409 113.893 
L 194.331204 100.036817 
L 197.580999 87.164065 
L 200.018346 78.332018 
L 202.455692 70.331496 
L 204.893038 63.26493 
L 206.517936 59.117956 
L 208.142834 55.450166 
L 209.767731 52.282441 
L 211.392629 49.632818 
L 213.017527 47.516381 
L 214.642424 45.945183 
L 215.454873 45.366966 
L 216.267322 44.928167 
L 217.079771 44.629412 
L 217.892219 44.471125 
L 218.704668 44.453533 
L 219.517117 44.576659 
L 220.329566 44.840329 
L 221.142015 45.244168 
L 221.954464 45.7876 
L 223.579361 47.28995 
L 225.204259 49.338828 
L 226.829156 51.922566 
L 228.454054 55.026455 
L 230.078952 58.632822 
L 231.703849 62.721135 
L 233.328747 67.268115 
L 235.766093 74.891278 
L 238.20344 83.390019 
L 240.640786 92.655527 
L 243.890581 105.996031 
L 247.952826 123.826539 
L 260.952007 182.284338 
L 264.201802 195.497049 
L 266.639148 204.642754 
L 269.076495 213.002834 
L 271.513841 220.470258 
L 273.138739 224.904899 
L 274.763636 228.874802 
L 276.388534 232.357364 
L 278.013432 235.332758 
L 279.638329 237.784043 
L 281.263227 239.697262 
L 282.888124 241.061522 
L 283.700573 241.535241 
L 284.513022 241.869055 
L 285.325471 242.062488 
L 286.13792 242.115264 
L 286.950369 242.027309 
L 287.762817 241.798747 
L 288.575266 241.429904 
L 289.387715 240.921306 
L 291.012613 239.487937 
L 292.63751 237.506801 
L 294.262408 234.989177 
L 295.887305 231.949401 
L 297.512203 228.404778 
L 299.137101 224.375491 
L 300.761998 219.884481 
L 303.199345 212.338851 
L 305.636691 203.909065 
L 308.074038 194.703049 
L 311.323833 181.425851 
L 315.386077 163.646786 
L 329.197707 101.721334 
L 332.447502 88.709118 
L 334.884848 79.74921 
L 337.322195 71.602683 
L 339.759541 64.373837 
L 341.384439 60.110653 
L 343.009337 56.321 
L 344.634234 53.026455 
L 346.259132 50.245775 
L 347.884029 47.994793 
L 349.508927 46.286324 
L 351.133825 45.130096 
L 351.946274 44.761253 
L 352.758722 44.532691 
L 353.571171 44.444736 
L 354.38362 44.497512 
L 355.196069 44.690945 
L 356.008518 45.024759 
L 356.820966 45.498478 
L 358.445864 46.862738 
L 360.070762 48.775957 
L 361.695659 51.227242 
L 363.320557 54.202636 
L 364.945455 57.685198 
L 366.570352 61.655101 
L 368.19525 66.089742 
L 370.632596 73.557166 
L 373.069943 81.917246 
L 375.507289 91.062951 
L 378.757084 104.275662 
L 382.819328 122.001703 
L 397.443407 187.359706 
L 400.693202 200.161005 
L 403.130549 208.927939 
L 405.567895 216.854387 
L 408.005242 223.838865 
L 409.630139 227.927178 
L 411.255037 231.533545 
L 412.879934 234.637434 
L 414.504832 237.221172 
L 416.12973 239.27005 
L 417.754627 240.7724 
L 418.567076 241.315832 
L 419.379525 241.719671 
L 420.191974 241.983341 
L 421.004423 242.106467 
L 421.816871 242.088875 
L 422.62932 241.930588 
L 423.441769 241.631833 
L 424.254218 241.193034 
L 425.066667 240.614817 
L 426.691564 239.043619 
L 428.316462 236.927182 
L 429.94136 234.277559 
L 431.566257 231.109834 
L 433.191155 227.442044 
L 434.816052 223.29507 
L 436.44095 218.692524 
L 438.878296 210.992505 
L 441.315643 202.425566 
L 443.752989 193.10139 
L 447.002785 179.698768 
L 451.065029 161.818406 
L 464.06421 103.420646 
L 467.314005 90.273599 
L 469.751351 81.18902 
L 472.188698 72.899388 
L 474.626044 65.510835 
L 476.250942 61.132959 
L 477.875839 57.222793 
L 479.500737 53.8026 
L 481.125635 50.891853 
L 482.750532 48.507126 
L 484.37543 46.661995 
L 486.000328 45.366966 
L 486.812776 44.928167 
L 487.625225 44.629412 
L 488.437674 44.471125 
L 489.250123 44.453533 
L 490.062572 44.576659 
L 490.87502 44.840329 
L 491.687469 45.244168 
L 492.499918 45.7876 
L 494.124816 47.28995 
L 495.749713 49.338828 
L 497.374611 51.922566 
L 498.999509 55.026455 
L 500.624406 58.632822 
L 502.249304 62.721135 
L 503.874201 67.268115 
L 506.311548 74.891278 
L 508.748894 83.390019 
L 511.186241 92.655527 
L 514.436036 105.996031 
L 518.49828 123.826539 
L 531.497461 182.284338 
L 534.747256 195.497049 
L 537.184603 204.642754 
L 539.621949 213.002834 
L 542.059296 220.470258 
L 543.684193 224.904899 
L 545.309091 228.874802 
L 546.933989 232.357364 
L 548.558886 235.332758 
L 550.183784 237.784043 
L 551.808681 239.697262 
L 553.433579 241.061522 
L 554.246028 241.535241 
L 555.058477 241.869055 
L 555.870925 242.062488 
L 556.683374 242.115264 
L 557.495823 242.027309 
L 558.308272 241.798747 
L 559.120721 241.429904 
L 559.93317 240.921306 
L 561.558067 239.487937 
L 563.182965 237.506801 
L 564.807862 234.989177 
L 566.43276 231.949401 
L 568.057658 228.404778 
L 569.682555 224.375491 
L 571.307453 219.884481 
L 573.744799 212.338851 
L 576.182146 203.909065 
L 578.619492 194.703049 
L 581.869287 181.425851 
L 585.931532 163.646786 
L 599.743161 101.721334 
L 602.992957 88.709118 
L 605.430303 79.74921 
L 607.867649 71.602683 
L 610.304996 64.373837 
L 611.929894 60.110653 
L 613.554791 56.321 
L 615.179689 53.026455 
L 616.804586 50.245775 
L 618.429484 47.994793 
L 620.054382 46.286324 
L 621.679279 45.130096 
L 622.491728 44.761253 
L 623.304177 44.532691 
L 624.116626 44.444736 
L 624.929075 44.497512 
L 625.741523 44.690945 
L 626.553972 45.024759 
L 627.366421 45.498478 
L 628.991319 46.862738 
L 630.616216 48.775957 
L 632.241114 51.227242 
L 633.866011 54.202636 
L 635.490909 57.685198 
L 637.115807 61.655101 
L 638.740704 66.089742 
L 641.178051 73.557166 
L 643.615397 81.917246 
L 646.052744 91.062951 
L 649.302539 104.275662 
L 653.364783 122.001703 
L 667.988862 187.359706 
L 671.238657 200.161005 
L 673.676003 208.927939 
L 676.11335 216.854387 
L 678.550696 223.838865 
L 680.175594 227.927178 
L 681.800491 231.533545 
L 683.425389 234.637434 
L 685.050287 237.221172 
L 686.675184 239.27005 
L 688.300082 240.7724 
L 689.112531 241.315832 
L 689.92498 241.719671 
L 690.737428 241.983341 
L 691.549877 242.106467 
L 692.362326 242.088875 
L 693.174775 241.930588 
L 693.987224 241.631833 
L 694.799672 241.193034 
L 695.612121 240.614817 
L 697.237019 239.043619 
L 698.861916 236.927182 
L 700.486814 234.277559 
L 702.111712 231.109834 
L 703.736609 227.442044 
L 705.361507 223.29507 
L 706.986405 218.692524 
L 709.423751 210.992505 
L 711.861097 202.425566 
L 714.298444 193.10139 
L 717.548239 179.698768 
L 721.610483 161.818406 
L 734.609664 103.420646 
L 737.859459 90.273599 
L 740.296806 81.18902 
L 742.734152 72.899388 
L 745.171499 65.510835 
L 746.796396 61.132959 
L 748.421294 57.222793 
L 750.046192 53.8026 
L 751.671089 50.891853 
L 753.295987 48.507126 
L 754.920885 46.661995 
L 756.545782 45.366966 
L 757.358231 44.928167 
L 758.17068 44.629412 
L 758.983129 44.471125 
L 759.795577 44.453533 
L 760.608026 44.576659 
L 761.420475 44.840329 
L 762.232924 45.244168 
L 763.045373 45.7876 
L 764.67027 47.28995 
L 766.295168 49.338828 
L 767.920066 51.922566 
L 769.544963 55.026455 
L 771.169861 58.632822 
L 772.794758 62.721135 
L 774.419656 67.268115 
L 776.857002 74.891278 
L 779.294349 83.390019 
L 781.731695 92.655527 
L 784.981491 105.996031 
L 789.043735 123.826539 
L 802.042916 182.284338 
L 805.292711 195.497049 
L 807.730057 204.642754 
L 810.167404 213.002834 
L 812.60475 220.470258 
L 814.229648 224.904899 
L 815.854545 228.874802 
L 817.479443 232.357364 
L 819.104341 235.332758 
L 820.729238 237.784043 
L 822.354136 239.697262 
L 823.979034 241.061522 
L 824.791482 241.535241 
L 825.603931 241.869055 
L 826.41638 242.062488 
L 827.228829 242.115264 
L 828.041278 242.027309 
L 828.853726 241.798747 
L 829.666175 241.429904 
L 830.478624 240.921306 
L 832.103522 239.487937 
L 833.728419 237.506801 
L 835.353317 234.989177 
L 836.978215 231.949401 
L 838.603112 228.404778 
L 840.22801 224.375491 
L 841.852907 219.884481 
L 844.290254 212.338851 
L 846.7276 203.909065 
L 849.164947 194.703049 
L 852.414742 181.425851 
L 856.476986 163.646786 
L 870.288616 101.721334 
L 873.538411 88.709118 
L 875.975758 79.74921 
L 878.413104 71.602683 
L 880.85045 64.373837 
L 882.475348 60.110653 
L 884.100246 56.321 
L 885.725143 53.026455 
L 887.350041 50.245775 
L 888.974939 47.994793 
L 890.599836 46.286324 
L 892.224734 45.130096 
L 893.037183 44.761253 
L 893.849631 44.532691 
L 894.66208 44.444736 
L 895.474529 44.497512 
L 896.286978 44.690945 
L 897.099427 45.024759 
L 897.911876 45.498478 
L 899.536773 46.862738 
L 901.161671 48.775957 
L 902.786568 51.227242 
L 904.411466 54.202636 
L 906.036364 57.685198 
L 907.661261 61.655101 
L 909.286159 66.089742 
L 911.723505 73.557166 
L 914.160852 81.917246 
L 916.598198 91.062951 
L 919.847993 104.275662 
L 923.910238 122.001703 
L 938.534316 187.359706 
L 941.784111 200.161005 
L 944.221458 208.927939 
L 946.658804 216.854387 
L 949.096151 223.838865 
L 950.721048 227.927178 
L 952.345946 231.533545 
L 953.970844 234.637434 
L 955.595741 237.221172 
L 957.220639 239.27005 
L 958.845536 240.7724 
L 959.657985 241.315832 
L 960.470434 241.719671 
L 961.282883 241.983341 
L 962.095332 242.106467 
L 962.907781 242.088875 
L 963.720229 241.930588 
L 964.532678 241.631833 
L 965.345127 241.193034 
L 966.157576 240.614817 
L 967.782473 239.043619 
L 969.407371 236.927182 
L 971.032269 234.277559 
L 972.657166 231.109834 
L 974.282064 227.442044 
L 975.906962 223.29507 
L 977.531859 218.692524 
L 979.969206 210.992505 
L 982.406552 202.425566 
L 984.843898 193.10139 
L 988.093694 179.698768 
L 992.155938 161.818406 
L 996.218182 143.28 
L 996.218182 143.28 
" style="fill:none;stroke:#1f77b4;stroke-linecap:square;stroke-width:1.5;"/>
   </g>
   <g id="line2d_18">
    <path clip-path="url(#peb141d32ab)" d="M 184.581818 242.116364 
L 184.581818 44.443636 
" style="fill:none;stroke:#000000;stroke-dasharray:5.55,2.4;stroke-dashoffset:0;stroke-width:1.5;"/>
   </g>
   <g id="line2d_19">
    <path clip-path="url(#peb141d32ab)" d="M 455.127273 242.116364 
L 455.127273 44.443636 
" style="fill:none;stroke:#000000;stroke-dasharray:5.55,2.4;stroke-dashoffset:0;stroke-width:1.5;"/>
   </g>
   <g id="patch_3">
    <path d="M 144 252 
L 144 34.56 
" style="fill:none;stroke:#000000;stroke-linecap:square;stroke-linejoin:miter;stroke-width:0.8;"/>
   </g>
   <g id="patch_4">
    <path d="M 1036.8 252 
L 1036.8 34.56 
" style="fill:none;stroke:#000000;stroke-linecap:square;stroke-linejoin:miter;stroke-width:0.8;"/>
   </g>
   <g id="patch_5">
    <path d="M 144 252 
L 1036.8 252 
" style="fill:none;stroke:#000000;stroke-linecap:square;stroke-linejoin:miter;stroke-width:0.8;"/>
   </g>
   <g id="patch_6">
    <path d="M 144 34.56 
L 1036.8 34.56 
" style="fill:none;stroke:#000000;stroke-linecap:square;stroke-linejoin:miter;stroke-width:0.8;"/>
   </g>
  </g>
 </g>
 <defs>
  <clipPath id="peb141d32ab">
   <rect height="217.44" width="892.8" x="144" y="34.56"/>
  </clipPath>
 </defs>
</svg>
