<?xml version="1.0" encoding="utf-8" standalone="no"?>
<!DOCTYPE svg PUBLIC "-//W3C//DTD SVG 1.1//EN"
  "http://www.w3.org/Graphics/SVG/1.1/DTD/svg11.dtd">
<!-- Created with matplotlib (http://matplotlib.org/) -->
<svg height="288pt" version="1.1" viewBox="0 0 432 288" width="432pt" xmlns="http://www.w3.org/2000/svg" xmlns:xlink="http://www.w3.org/1999/xlink">
 <defs>
  <style type="text/css">
*{stroke-linecap:butt;stroke-linejoin:round;}
  </style>
 </defs>
 <g id="figure_1">
  <g id="patch_1">
   <path d="M 0 288 
L 432 288 
L 432 0 
L 0 0 
z
" style="fill:#ffffff;"/>
  </g>
  <g id="axes_1">
   <g id="patch_2">
    <path d="M 54 252 
L 388.8 252 
L 388.8 34.56 
L 54 34.56 
z
" style="fill:#ffffff;"/>
   </g>
   <g id="matplotlib.axis_1">
    <g id="xtick_1">
     <g id="line2d_1">
      <defs>
       <path d="M 0 0 
L 0 3.5 
" id="m272a4a67e5" style="stroke:#000000;stroke-width:0.8;"/>
      </defs>
      <g>
       <use style="stroke:#000000;stroke-width:0.8;" x="54" xlink:href="#m272a4a67e5" y="252"/>
      </g>
     </g>
     <g id="text_1">
      <!-- 0.0 -->
      <defs>
       <path d="M 31.78125 66.40625 
Q 24.171875 66.40625 20.328125 58.90625 
Q 16.5 51.421875 16.5 36.375 
Q 16.5 21.390625 20.328125 13.890625 
Q 24.171875 6.390625 31.78125 6.390625 
Q 39.453125 6.390625 43.28125 13.890625 
Q 47.125 21.390625 47.125 36.375 
Q 47.125 51.421875 43.28125 58.90625 
Q 39.453125 66.40625 31.78125 66.40625 
z
M 31.78125 74.21875 
Q 44.046875 74.21875 50.515625 64.515625 
Q 56.984375 54.828125 56.984375 36.375 
Q 56.984375 17.96875 50.515625 8.265625 
Q 44.046875 -1.421875 31.78125 -1.421875 
Q 19.53125 -1.421875 13.0625 8.265625 
Q 6.59375 17.96875 6.59375 36.375 
Q 6.59375 54.828125 13.0625 64.515625 
Q 19.53125 74.21875 31.78125 74.21875 
z
" id="DejaVuSans-30"/>
       <path d="M 10.6875 12.40625 
L 21 12.40625 
L 21 0 
L 10.6875 0 
z
" id="DejaVuSans-2e"/>
      </defs>
      <g transform="translate(46.048437 266.598437)scale(0.1 -0.1)">
       <use xlink:href="#DejaVuSans-30"/>
       <use x="63.623047" xlink:href="#DejaVuSans-2e"/>
       <use x="95.410156" xlink:href="#DejaVuSans-30"/>
      </g>
     </g>
    </g>
    <g id="xtick_2">
     <g id="line2d_2">
      <g>
       <use style="stroke:#000000;stroke-width:0.8;" x="109.8" xlink:href="#m272a4a67e5" y="252"/>
      </g>
     </g>
     <g id="text_2">
      <!-- 0.5 -->
      <defs>
       <path d="M 10.796875 72.90625 
L 49.515625 72.90625 
L 49.515625 64.59375 
L 19.828125 64.59375 
L 19.828125 46.734375 
Q 21.96875 47.46875 24.109375 47.828125 
Q 26.265625 48.1875 28.421875 48.1875 
Q 40.625 48.1875 47.75 41.5 
Q 54.890625 34.8125 54.890625 23.390625 
Q 54.890625 11.625 47.5625 5.09375 
Q 40.234375 -1.421875 26.90625 -1.421875 
Q 22.3125 -1.421875 17.546875 -0.640625 
Q 12.796875 0.140625 7.71875 1.703125 
L 7.71875 11.625 
Q 12.109375 9.234375 16.796875 8.0625 
Q 21.484375 6.890625 26.703125 6.890625 
Q 35.15625 6.890625 40.078125 11.328125 
Q 45.015625 15.765625 45.015625 23.390625 
Q 45.015625 31 40.078125 35.4375 
Q 35.15625 39.890625 26.703125 39.890625 
Q 22.75 39.890625 18.8125 39.015625 
Q 14.890625 38.140625 10.796875 36.28125 
z
" id="DejaVuSans-35"/>
      </defs>
      <g transform="translate(101.848438 266.598437)scale(0.1 -0.1)">
       <use xlink:href="#DejaVuSans-30"/>
       <use x="63.623047" xlink:href="#DejaVuSans-2e"/>
       <use x="95.410156" xlink:href="#DejaVuSans-35"/>
      </g>
     </g>
    </g>
    <g id="xtick_3">
     <g id="line2d_3">
      <g>
       <use style="stroke:#000000;stroke-width:0.8;" x="165.6" xlink:href="#m272a4a67e5" y="252"/>
      </g>
     </g>
     <g id="text_3">
      <!-- 1.0 -->
      <defs>
       <path d="M 12.40625 8.296875 
L 28.515625 8.296875 
L 28.515625 63.921875 
L 10.984375 60.40625 
L 10.984375 69.390625 
L 28.421875 72.90625 
L 38.28125 72.90625 
L 38.28125 8.296875 
L 54.390625 8.296875 
L 54.390625 0 
L 12.40625 0 
z
" id="DejaVuSans-31"/>
      </defs>
      <g transform="translate(157.648438 266.598437)scale(0.1 -0.1)">
       <use xlink:href="#DejaVuSans-31"/>
       <use x="63.623047" xlink:href="#DejaVuSans-2e"/>
       <use x="95.410156" xlink:href="#DejaVuSans-30"/>
      </g>
     </g>
    </g>
    <g id="xtick_4">
     <g id="line2d_4">
      <g>
       <use style="stroke:#000000;stroke-width:0.8;" x="221.4" xlink:href="#m272a4a67e5" y="252"/>
      </g>
     </g>
     <g id="text_4">
      <!-- 1.5 -->
      <g transform="translate(213.448437 266.598437)scale(0.1 -0.1)">
       <use xlink:href="#DejaVuSans-31"/>
       <use x="63.623047" xlink:href="#DejaVuSans-2e"/>
       <use x="95.410156" xlink:href="#DejaVuSans-35"/>
      </g>
     </g>
    </g>
    <g id="xtick_5">
     <g id="line2d_5">
      <g>
       <use style="stroke:#000000;stroke-width:0.8;" x="277.2" xlink:href="#m272a4a67e5" y="252"/>
      </g>
     </g>
     <g id="text_5">
      <!-- 2.0 -->
      <defs>
       <path d="M 19.1875 8.296875 
L 53.609375 8.296875 
L 53.609375 0 
L 7.328125 0 
L 7.328125 8.296875 
Q 12.9375 14.109375 22.625 23.890625 
Q 32.328125 33.6875 34.8125 36.53125 
Q 39.546875 41.84375 41.421875 45.53125 
Q 43.3125 49.21875 43.3125 52.78125 
Q 43.3125 58.59375 39.234375 62.25 
Q 35.15625 65.921875 28.609375 65.921875 
Q 23.96875 65.921875 18.8125 64.3125 
Q 13.671875 62.703125 7.8125 59.421875 
L 7.8125 69.390625 
Q 13.765625 71.78125 18.9375 73 
Q 24.125 74.21875 28.421875 74.21875 
Q 39.75 74.21875 46.484375 68.546875 
Q 53.21875 62.890625 53.21875 53.421875 
Q 53.21875 48.921875 51.53125 44.890625 
Q 49.859375 40.875 45.40625 35.40625 
Q 44.1875 33.984375 37.640625 27.21875 
Q 31.109375 20.453125 19.1875 8.296875 
z
" id="DejaVuSans-32"/>
      </defs>
      <g transform="translate(269.248437 266.598437)scale(0.1 -0.1)">
       <use xlink:href="#DejaVuSans-32"/>
       <use x="63.623047" xlink:href="#DejaVuSans-2e"/>
       <use x="95.410156" xlink:href="#DejaVuSans-30"/>
      </g>
     </g>
    </g>
    <g id="xtick_6">
     <g id="line2d_6">
      <g>
       <use style="stroke:#000000;stroke-width:0.8;" x="333" xlink:href="#m272a4a67e5" y="252"/>
      </g>
     </g>
     <g id="text_6">
      <!-- 2.5 -->
      <g transform="translate(325.048437 266.598437)scale(0.1 -0.1)">
       <use xlink:href="#DejaVuSans-32"/>
       <use x="63.623047" xlink:href="#DejaVuSans-2e"/>
       <use x="95.410156" xlink:href="#DejaVuSans-35"/>
      </g>
     </g>
    </g>
    <g id="xtick_7">
     <g id="line2d_7">
      <g>
       <use style="stroke:#000000;stroke-width:0.8;" x="388.8" xlink:href="#m272a4a67e5" y="252"/>
      </g>
     </g>
     <g id="text_7">
      <!-- 3.0 -->
      <defs>
       <path d="M 40.578125 39.3125 
Q 47.65625 37.796875 51.625 33 
Q 55.609375 28.21875 55.609375 21.1875 
Q 55.609375 10.40625 48.1875 4.484375 
Q 40.765625 -1.421875 27.09375 -1.421875 
Q 22.515625 -1.421875 17.65625 -0.515625 
Q 12.796875 0.390625 7.625 2.203125 
L 7.625 11.71875 
Q 11.71875 9.328125 16.59375 8.109375 
Q 21.484375 6.890625 26.8125 6.890625 
Q 36.078125 6.890625 40.9375 10.546875 
Q 45.796875 14.203125 45.796875 21.1875 
Q 45.796875 27.640625 41.28125 31.265625 
Q 36.765625 34.90625 28.71875 34.90625 
L 20.21875 34.90625 
L 20.21875 43.015625 
L 29.109375 43.015625 
Q 36.375 43.015625 40.234375 45.921875 
Q 44.09375 48.828125 44.09375 54.296875 
Q 44.09375 59.90625 40.109375 62.90625 
Q 36.140625 65.921875 28.71875 65.921875 
Q 24.65625 65.921875 20.015625 65.03125 
Q 15.375 64.15625 9.8125 62.3125 
L 9.8125 71.09375 
Q 15.4375 72.65625 20.34375 73.4375 
Q 25.25 74.21875 29.59375 74.21875 
Q 40.828125 74.21875 47.359375 69.109375 
Q 53.90625 64.015625 53.90625 55.328125 
Q 53.90625 49.265625 50.4375 45.09375 
Q 46.96875 40.921875 40.578125 39.3125 
z
" id="DejaVuSans-33"/>
      </defs>
      <g transform="translate(380.848437 266.598437)scale(0.1 -0.1)">
       <use xlink:href="#DejaVuSans-33"/>
       <use x="63.623047" xlink:href="#DejaVuSans-2e"/>
       <use x="95.410156" xlink:href="#DejaVuSans-30"/>
      </g>
     </g>
    </g>
   </g>
   <g id="matplotlib.axis_2">
    <g id="ytick_1">
     <g id="line2d_8">
      <defs>
       <path d="M 0 0 
L -3.5 0 
" id="m6f88e2bb5b" style="stroke:#000000;stroke-width:0.8;"/>
      </defs>
      <g>
       <use style="stroke:#000000;stroke-width:0.8;" x="54" xlink:href="#m6f88e2bb5b" y="242.126261"/>
      </g>
     </g>
     <g id="text_8">
      <!-- −1.00 -->
      <defs>
       <path d="M 10.59375 35.5 
L 73.1875 35.5 
L 73.1875 27.203125 
L 10.59375 27.203125 
z
" id="DejaVuSans-2212"/>
      </defs>
      <g transform="translate(16.354687 245.92548)scale(0.1 -0.1)">
       <use xlink:href="#DejaVuSans-2212"/>
       <use x="83.789062" xlink:href="#DejaVuSans-31"/>
       <use x="147.412109" xlink:href="#DejaVuSans-2e"/>
       <use x="179.199219" xlink:href="#DejaVuSans-30"/>
       <use x="242.822266" xlink:href="#DejaVuSans-30"/>
      </g>
     </g>
    </g>
    <g id="ytick_2">
     <g id="line2d_9">
      <g>
       <use style="stroke:#000000;stroke-width:0.8;" x="54" xlink:href="#m6f88e2bb5b" y="217.414696"/>
      </g>
     </g>
     <g id="text_9">
      <!-- −0.75 -->
      <defs>
       <path d="M 8.203125 72.90625 
L 55.078125 72.90625 
L 55.078125 68.703125 
L 28.609375 0 
L 18.3125 0 
L 43.21875 64.59375 
L 8.203125 64.59375 
z
" id="DejaVuSans-37"/>
      </defs>
      <g transform="translate(16.354687 221.213914)scale(0.1 -0.1)">
       <use xlink:href="#DejaVuSans-2212"/>
       <use x="83.789062" xlink:href="#DejaVuSans-30"/>
       <use x="147.412109" xlink:href="#DejaVuSans-2e"/>
       <use x="179.199219" xlink:href="#DejaVuSans-37"/>
       <use x="242.822266" xlink:href="#DejaVuSans-35"/>
      </g>
     </g>
    </g>
    <g id="ytick_3">
     <g id="line2d_10">
      <g>
       <use style="stroke:#000000;stroke-width:0.8;" x="54" xlink:href="#m6f88e2bb5b" y="192.70313"/>
      </g>
     </g>
     <g id="text_10">
      <!-- −0.50 -->
      <g transform="translate(16.354687 196.502349)scale(0.1 -0.1)">
       <use xlink:href="#DejaVuSans-2212"/>
       <use x="83.789062" xlink:href="#DejaVuSans-30"/>
       <use x="147.412109" xlink:href="#DejaVuSans-2e"/>
       <use x="179.199219" xlink:href="#DejaVuSans-35"/>
       <use x="242.822266" xlink:href="#DejaVuSans-30"/>
      </g>
     </g>
    </g>
    <g id="ytick_4">
     <g id="line2d_11">
      <g>
       <use style="stroke:#000000;stroke-width:0.8;" x="54" xlink:href="#m6f88e2bb5b" y="167.991565"/>
      </g>
     </g>
     <g id="text_11">
      <!-- −0.25 -->
      <g transform="translate(16.354687 171.790784)scale(0.1 -0.1)">
       <use xlink:href="#DejaVuSans-2212"/>
       <use x="83.789062" xlink:href="#DejaVuSans-30"/>
       <use x="147.412109" xlink:href="#DejaVuSans-2e"/>
       <use x="179.199219" xlink:href="#DejaVuSans-32"/>
       <use x="242.822266" xlink:href="#DejaVuSans-35"/>
      </g>
     </g>
    </g>
    <g id="ytick_5">
     <g id="line2d_12">
      <g>
       <use style="stroke:#000000;stroke-width:0.8;" x="54" xlink:href="#m6f88e2bb5b" y="143.28"/>
      </g>
     </g>
     <g id="text_12">
      <!-- 0.00 -->
      <g transform="translate(24.734375 147.079219)scale(0.1 -0.1)">
       <use xlink:href="#DejaVuSans-30"/>
       <use x="63.623047" xlink:href="#DejaVuSans-2e"/>
       <use x="95.410156" xlink:href="#DejaVuSans-30"/>
       <use x="159.033203" xlink:href="#DejaVuSans-30"/>
      </g>
     </g>
    </g>
    <g id="ytick_6">
     <g id="line2d_13">
      <g>
       <use style="stroke:#000000;stroke-width:0.8;" x="54" xlink:href="#m6f88e2bb5b" y="118.568435"/>
      </g>
     </g>
     <g id="text_13">
      <!-- 0.25 -->
      <g transform="translate(24.734375 122.367654)scale(0.1 -0.1)">
       <use xlink:href="#DejaVuSans-30"/>
       <use x="63.623047" xlink:href="#DejaVuSans-2e"/>
       <use x="95.410156" xlink:href="#DejaVuSans-32"/>
       <use x="159.033203" xlink:href="#DejaVuSans-35"/>
      </g>
     </g>
    </g>
    <g id="ytick_7">
     <g id="line2d_14">
      <g>
       <use style="stroke:#000000;stroke-width:0.8;" x="54" xlink:href="#m6f88e2bb5b" y="93.85687"/>
      </g>
     </g>
     <g id="text_14">
      <!-- 0.50 -->
      <g transform="translate(24.734375 97.656088)scale(0.1 -0.1)">
       <use xlink:href="#DejaVuSans-30"/>
       <use x="63.623047" xlink:href="#DejaVuSans-2e"/>
       <use x="95.410156" xlink:href="#DejaVuSans-35"/>
       <use x="159.033203" xlink:href="#DejaVuSans-30"/>
      </g>
     </g>
    </g>
    <g id="ytick_8">
     <g id="line2d_15">
      <g>
       <use style="stroke:#000000;stroke-width:0.8;" x="54" xlink:href="#m6f88e2bb5b" y="69.145304"/>
      </g>
     </g>
     <g id="text_15">
      <!-- 0.75 -->
      <g transform="translate(24.734375 72.944523)scale(0.1 -0.1)">
       <use xlink:href="#DejaVuSans-30"/>
       <use x="63.623047" xlink:href="#DejaVuSans-2e"/>
       <use x="95.410156" xlink:href="#DejaVuSans-37"/>
       <use x="159.033203" xlink:href="#DejaVuSans-35"/>
      </g>
     </g>
    </g>
    <g id="ytick_9">
     <g id="line2d_16">
      <g>
       <use style="stroke:#000000;stroke-width:0.8;" x="54" xlink:href="#m6f88e2bb5b" y="44.433739"/>
      </g>
     </g>
     <g id="text_16">
      <!-- 1.00 -->
      <g transform="translate(24.734375 48.232958)scale(0.1 -0.1)">
       <use xlink:href="#DejaVuSans-31"/>
       <use x="63.623047" xlink:href="#DejaVuSans-2e"/>
       <use x="95.410156" xlink:href="#DejaVuSans-30"/>
       <use x="159.033203" xlink:href="#DejaVuSans-30"/>
      </g>
     </g>
    </g>
   </g>
   <g id="line2d_17">
    <path clip-path="url(#p6ac10997a5)" d="M 54 143.28 
L 56.681081 100.032486 
L 58.021622 81.182802 
L 59.362162 65.503047 
L 60.367568 56.312292 
L 61.037838 51.561639 
L 61.708108 47.985251 
L 62.378378 45.628916 
L 62.713514 44.918318 
L 63.048649 44.522803 
L 63.383784 44.443636 
L 63.718919 44.681073 
L 64.054054 45.234351 
L 64.389189 46.101699 
L 65.059459 48.766493 
L 65.72973 52.641339 
L 66.4 57.676627 
L 67.405405 67.260503 
L 68.410811 79.031322 
L 69.751351 97.534512 
L 71.762162 129.338592 
L 75.448649 189.025488 
L 76.789189 207.528678 
L 78.12973 222.75211 
L 79.135135 231.542382 
L 79.805405 236.004596 
L 80.475676 239.279662 
L 81.145946 241.325649 
L 81.481081 241.878927 
L 81.816216 242.116364 
L 82.151351 242.037197 
L 82.486486 241.641682 
L 82.821622 240.931084 
L 83.491892 238.574749 
L 84.162162 234.998361 
L 84.832432 230.247708 
L 85.837838 221.056953 
L 86.843243 209.628696 
L 88.183784 191.486822 
L 89.859459 165.470136 
L 94.551351 90.268291 
L 95.891892 72.89234 
L 96.897297 62.176388 
L 97.902703 53.79364 
L 98.572973 49.62344 
L 99.243243 46.65232 
L 99.913514 44.918318 
L 100.248649 44.522803 
L 100.583784 44.443636 
L 100.918919 44.681073 
L 101.254054 45.234351 
L 101.589189 46.101699 
L 102.259459 48.766493 
L 102.92973 52.641339 
L 103.6 57.676627 
L 104.605405 67.260503 
L 105.610811 79.031322 
L 106.951351 97.534512 
L 108.962162 129.338592 
L 112.648649 189.025488 
L 113.989189 207.528678 
L 115.32973 222.75211 
L 116.335135 231.542382 
L 117.005405 236.004596 
L 117.675676 239.279662 
L 118.345946 241.325649 
L 118.681081 241.878927 
L 119.016216 242.116364 
L 119.351351 242.037197 
L 119.686486 241.641682 
L 120.021622 240.931084 
L 120.691892 238.574749 
L 121.362162 234.998361 
L 122.032432 230.247708 
L 123.037838 221.056953 
L 124.043243 209.628696 
L 125.383784 191.486822 
L 127.059459 165.470136 
L 131.751351 90.268291 
L 133.091892 72.89234 
L 134.097297 62.176388 
L 135.102703 53.79364 
L 135.772973 49.62344 
L 136.443243 46.65232 
L 137.113514 44.918318 
L 137.448649 44.522803 
L 137.783784 44.443636 
L 138.118919 44.681073 
L 138.454054 45.234351 
L 138.789189 46.101699 
L 139.459459 48.766493 
L 140.12973 52.641339 
L 140.8 57.676627 
L 141.805405 67.260503 
L 142.810811 79.031322 
L 144.151351 97.534512 
L 146.162162 129.338592 
L 149.848649 189.025488 
L 151.189189 207.528678 
L 152.52973 222.75211 
L 153.535135 231.542382 
L 154.205405 236.004596 
L 154.875676 239.279662 
L 155.545946 241.325649 
L 155.881081 241.878927 
L 156.216216 242.116364 
L 156.551351 242.037197 
L 156.886486 241.641682 
L 157.221622 240.931084 
L 157.891892 238.574749 
L 158.562162 234.998361 
L 159.232432 230.247708 
L 160.237838 221.056953 
L 161.243243 209.628696 
L 162.583784 191.486822 
L 164.259459 165.470136 
L 168.951351 90.268291 
L 170.291892 72.89234 
L 171.297297 62.176388 
L 172.302703 53.79364 
L 172.972973 49.62344 
L 173.643243 46.65232 
L 174.313514 44.918318 
L 174.648649 44.522803 
L 174.983784 44.443636 
L 175.318919 44.681073 
L 175.654054 45.234351 
L 175.989189 46.101699 
L 176.659459 48.766493 
L 177.32973 52.641339 
L 178 57.676627 
L 179.005405 67.260503 
L 180.010811 79.031322 
L 181.351351 97.534512 
L 183.362162 129.338592 
L 187.048649 189.025488 
L 188.389189 207.528678 
L 189.72973 222.75211 
L 190.735135 231.542382 
L 191.405405 236.004596 
L 192.075676 239.279662 
L 192.745946 241.325649 
L 193.081081 241.878927 
L 193.416216 242.116364 
L 193.751351 242.037197 
L 194.086486 241.641682 
L 194.421622 240.931084 
L 195.091892 238.574749 
L 195.762162 234.998361 
L 196.432432 230.247708 
L 197.437838 221.056953 
L 198.443243 209.628696 
L 199.783784 191.486822 
L 201.459459 165.470136 
L 206.151351 90.268291 
L 207.491892 72.89234 
L 208.497297 62.176388 
L 209.502703 53.79364 
L 210.172973 49.62344 
L 210.843243 46.65232 
L 211.513514 44.918318 
L 211.848649 44.522803 
L 212.183784 44.443636 
L 212.518919 44.681073 
L 212.854054 45.234351 
L 213.189189 46.101699 
L 213.859459 48.766493 
L 214.52973 52.641339 
L 215.2 57.676627 
L 216.205405 67.260503 
L 217.210811 79.031322 
L 218.551351 97.534512 
L 220.562162 129.338592 
L 224.248649 189.025488 
L 225.589189 207.528678 
L 226.92973 222.75211 
L 227.935135 231.542382 
L 228.605405 236.004596 
L 229.275676 239.279662 
L 229.945946 241.325649 
L 230.281081 241.878927 
L 230.616216 242.116364 
L 230.951351 242.037197 
L 231.286486 241.641682 
L 231.621622 240.931084 
L 232.291892 238.574749 
L 232.962162 234.998361 
L 233.632432 230.247708 
L 234.637838 221.056953 
L 235.643243 209.628696 
L 236.983784 191.486822 
L 238.659459 165.470136 
L 243.351351 90.268291 
L 244.691892 72.89234 
L 245.697297 62.176388 
L 246.702703 53.79364 
L 247.372973 49.62344 
L 248.043243 46.65232 
L 248.713514 44.918318 
L 249.048649 44.522803 
L 249.383784 44.443636 
L 249.718919 44.681073 
L 250.054054 45.234351 
L 250.389189 46.101699 
L 251.059459 48.766493 
L 251.72973 52.641339 
L 252.4 57.676627 
L 253.405405 67.260503 
L 254.410811 79.031322 
L 255.751351 97.534512 
L 257.762162 129.338592 
L 261.448649 189.025488 
L 262.789189 207.528678 
L 264.12973 222.75211 
L 265.135135 231.542382 
L 265.805405 236.004596 
L 266.475676 239.279662 
L 267.145946 241.325649 
L 267.481081 241.878927 
L 267.816216 242.116364 
L 268.151351 242.037197 
L 268.486486 241.641682 
L 268.821622 240.931084 
L 269.491892 238.574749 
L 270.162162 234.998361 
L 270.832432 230.247708 
L 271.837838 221.056953 
L 272.843243 209.628696 
L 274.183784 191.486822 
L 275.859459 165.470136 
L 280.551351 90.268291 
L 281.891892 72.89234 
L 282.897297 62.176388 
L 283.902703 53.79364 
L 284.572973 49.62344 
L 285.243243 46.65232 
L 285.913514 44.918318 
L 286.248649 44.522803 
L 286.583784 44.443636 
L 286.918919 44.681073 
L 287.254054 45.234351 
L 287.589189 46.101699 
L 288.259459 48.766493 
L 288.92973 52.641339 
L 289.6 57.676627 
L 290.605405 67.260503 
L 291.610811 79.031322 
L 292.951351 97.534512 
L 294.962162 129.338592 
L 298.648649 189.025488 
L 299.989189 207.528678 
L 301.32973 222.75211 
L 302.335135 231.542382 
L 303.005405 236.004596 
L 303.675676 239.279662 
L 304.345946 241.325649 
L 304.681081 241.878927 
L 305.016216 242.116364 
L 305.351351 242.037197 
L 305.686486 241.641682 
L 306.021622 240.931084 
L 306.691892 238.574749 
L 307.362162 234.998361 
L 308.032432 230.247708 
L 309.037838 221.056953 
L 310.043243 209.628696 
L 311.383784 191.486822 
L 313.059459 165.470136 
L 317.751351 90.268291 
L 319.091892 72.89234 
L 320.097297 62.176388 
L 321.102703 53.79364 
L 321.772973 49.62344 
L 322.443243 46.65232 
L 323.113514 44.918318 
L 323.448649 44.522803 
L 323.783784 44.443636 
L 324.118919 44.681073 
L 324.454054 45.234351 
L 324.789189 46.101699 
L 325.459459 48.766493 
L 326.12973 52.641339 
L 326.8 57.676627 
L 327.805405 67.260503 
L 328.810811 79.031322 
L 330.151351 97.534512 
L 332.162162 129.338592 
L 335.848649 189.025488 
L 337.189189 207.528678 
L 338.52973 222.75211 
L 339.535135 231.542382 
L 340.205405 236.004596 
L 340.875676 239.279662 
L 341.545946 241.325649 
L 341.881081 241.878927 
L 342.216216 242.116364 
L 342.551351 242.037197 
L 342.886486 241.641682 
L 343.221622 240.931084 
L 343.891892 238.574749 
L 344.562162 234.998361 
L 345.232432 230.247708 
L 346.237838 221.056953 
L 347.243243 209.628696 
L 348.583784 191.486822 
L 350.259459 165.470136 
L 354.951351 90.268291 
L 356.291892 72.89234 
L 357.297297 62.176388 
L 358.302703 53.79364 
L 358.972973 49.62344 
L 359.643243 46.65232 
L 360.313514 44.918318 
L 360.648649 44.522803 
L 360.983784 44.443636 
L 361.318919 44.681073 
L 361.654054 45.234351 
L 361.989189 46.101699 
L 362.659459 48.766493 
L 363.32973 52.641339 
L 364 57.676627 
L 365.005405 67.260503 
L 366.010811 79.031322 
L 367.351351 97.534512 
L 369.362162 129.338592 
L 373.048649 189.025488 
L 374.389189 207.528678 
L 375.72973 222.75211 
L 376.735135 231.542382 
L 377.405405 236.004596 
L 378.075676 239.279662 
L 378.745946 241.325649 
L 379.081081 241.878927 
L 379.416216 242.116364 
L 379.751351 242.037197 
L 380.086486 241.641682 
L 380.421622 240.931084 
L 381.091892 238.574749 
L 381.762162 234.998361 
L 382.432432 230.247708 
L 383.437838 221.056953 
L 384.443243 209.628696 
L 385.783784 191.486822 
L 387.459459 165.470136 
L 388.8 143.28 
L 388.8 143.28 
" style="fill:none;stroke:#1f77b4;stroke-linecap:square;stroke-width:1.5;"/>
   </g>
   <g id="patch_3">
    <path d="M 54 252 
L 54 34.56 
" style="fill:none;stroke:#000000;stroke-linecap:square;stroke-linejoin:miter;stroke-width:0.8;"/>
   </g>
   <g id="patch_4">
    <path d="M 388.8 252 
L 388.8 34.56 
" style="fill:none;stroke:#000000;stroke-linecap:square;stroke-linejoin:miter;stroke-width:0.8;"/>
   </g>
   <g id="patch_5">
    <path d="M 54 252 
L 388.8 252 
" style="fill:none;stroke:#000000;stroke-linecap:square;stroke-linejoin:miter;stroke-width:0.8;"/>
   </g>
   <g id="patch_6">
    <path d="M 54 34.56 
L 388.8 34.56 
" style="fill:none;stroke:#000000;stroke-linecap:square;stroke-linejoin:miter;stroke-width:0.8;"/>
   </g>
  </g>
 </g>
 <defs>
  <clipPath id="p6ac10997a5">
   <rect height="217.44" width="334.8" x="54" y="34.56"/>
  </clipPath>
 </defs>
</svg>
