<?xml version="1.0" encoding="utf-8" standalone="no"?>
<!DOCTYPE svg PUBLIC "-//W3C//DTD SVG 1.1//EN"
  "http://www.w3.org/Graphics/SVG/1.1/DTD/svg11.dtd">
<!-- Created with matplotlib (http://matplotlib.org/) -->
<svg height="288pt" version="1.1" viewBox="0 0 432 288" width="432pt" xmlns="http://www.w3.org/2000/svg" xmlns:xlink="http://www.w3.org/1999/xlink">
 <defs>
  <style type="text/css">
*{stroke-linecap:butt;stroke-linejoin:round;}
  </style>
 </defs>
 <g id="figure_1">
  <g id="patch_1">
   <path d="M 0 288 
L 432 288 
L 432 0 
L 0 0 
z
" style="fill:#ffffff;"/>
  </g>
  <g id="axes_1">
   <g id="patch_2">
    <path d="M 54 252 
L 388.8 252 
L 388.8 34.56 
L 54 34.56 
z
" style="fill:#ffffff;"/>
   </g>
   <g id="matplotlib.axis_1">
    <g id="xtick_1">
     <g id="line2d_1">
      <defs>
       <path d="M 0 0 
L 0 3.5 
" id="m27d25f34e5" style="stroke:#000000;stroke-width:0.8;"/>
      </defs>
      <g>
       <use style="stroke:#000000;stroke-width:0.8;" x="69.218182" xlink:href="#m27d25f34e5" y="252"/>
      </g>
     </g>
     <g id="text_1">
      <!-- 0 -->
      <defs>
       <path d="M 31.78125 66.40625 
Q 24.171875 66.40625 20.328125 58.90625 
Q 16.5 51.421875 16.5 36.375 
Q 16.5 21.390625 20.328125 13.890625 
Q 24.171875 6.390625 31.78125 6.390625 
Q 39.453125 6.390625 43.28125 13.890625 
Q 47.125 21.390625 47.125 36.375 
Q 47.125 51.421875 43.28125 58.90625 
Q 39.453125 66.40625 31.78125 66.40625 
z
M 31.78125 74.21875 
Q 44.046875 74.21875 50.515625 64.515625 
Q 56.984375 54.828125 56.984375 36.375 
Q 56.984375 17.96875 50.515625 8.265625 
Q 44.046875 -1.421875 31.78125 -1.421875 
Q 19.53125 -1.421875 13.0625 8.265625 
Q 6.59375 17.96875 6.59375 36.375 
Q 6.59375 54.828125 13.0625 64.515625 
Q 19.53125 74.21875 31.78125 74.21875 
z
" id="DejaVuSans-30"/>
      </defs>
      <g transform="translate(66.036932 266.598437)scale(0.1 -0.1)">
       <use xlink:href="#DejaVuSans-30"/>
      </g>
     </g>
    </g>
    <g id="xtick_2">
     <g id="line2d_2">
      <g>
       <use style="stroke:#000000;stroke-width:0.8;" x="130.090909" xlink:href="#m27d25f34e5" y="252"/>
      </g>
     </g>
     <g id="text_2">
      <!-- 1 -->
      <defs>
       <path d="M 12.40625 8.296875 
L 28.515625 8.296875 
L 28.515625 63.921875 
L 10.984375 60.40625 
L 10.984375 69.390625 
L 28.421875 72.90625 
L 38.28125 72.90625 
L 38.28125 8.296875 
L 54.390625 8.296875 
L 54.390625 0 
L 12.40625 0 
z
" id="DejaVuSans-31"/>
      </defs>
      <g transform="translate(126.909659 266.598437)scale(0.1 -0.1)">
       <use xlink:href="#DejaVuSans-31"/>
      </g>
     </g>
    </g>
    <g id="xtick_3">
     <g id="line2d_3">
      <g>
       <use style="stroke:#000000;stroke-width:0.8;" x="190.963636" xlink:href="#m27d25f34e5" y="252"/>
      </g>
     </g>
     <g id="text_3">
      <!-- 2 -->
      <defs>
       <path d="M 19.1875 8.296875 
L 53.609375 8.296875 
L 53.609375 0 
L 7.328125 0 
L 7.328125 8.296875 
Q 12.9375 14.109375 22.625 23.890625 
Q 32.328125 33.6875 34.8125 36.53125 
Q 39.546875 41.84375 41.421875 45.53125 
Q 43.3125 49.21875 43.3125 52.78125 
Q 43.3125 58.59375 39.234375 62.25 
Q 35.15625 65.921875 28.609375 65.921875 
Q 23.96875 65.921875 18.8125 64.3125 
Q 13.671875 62.703125 7.8125 59.421875 
L 7.8125 69.390625 
Q 13.765625 71.78125 18.9375 73 
Q 24.125 74.21875 28.421875 74.21875 
Q 39.75 74.21875 46.484375 68.546875 
Q 53.21875 62.890625 53.21875 53.421875 
Q 53.21875 48.921875 51.53125 44.890625 
Q 49.859375 40.875 45.40625 35.40625 
Q 44.1875 33.984375 37.640625 27.21875 
Q 31.109375 20.453125 19.1875 8.296875 
z
" id="DejaVuSans-32"/>
      </defs>
      <g transform="translate(187.782386 266.598437)scale(0.1 -0.1)">
       <use xlink:href="#DejaVuSans-32"/>
      </g>
     </g>
    </g>
    <g id="xtick_4">
     <g id="line2d_4">
      <g>
       <use style="stroke:#000000;stroke-width:0.8;" x="251.836364" xlink:href="#m27d25f34e5" y="252"/>
      </g>
     </g>
     <g id="text_4">
      <!-- 3 -->
      <defs>
       <path d="M 40.578125 39.3125 
Q 47.65625 37.796875 51.625 33 
Q 55.609375 28.21875 55.609375 21.1875 
Q 55.609375 10.40625 48.1875 4.484375 
Q 40.765625 -1.421875 27.09375 -1.421875 
Q 22.515625 -1.421875 17.65625 -0.515625 
Q 12.796875 0.390625 7.625 2.203125 
L 7.625 11.71875 
Q 11.71875 9.328125 16.59375 8.109375 
Q 21.484375 6.890625 26.8125 6.890625 
Q 36.078125 6.890625 40.9375 10.546875 
Q 45.796875 14.203125 45.796875 21.1875 
Q 45.796875 27.640625 41.28125 31.265625 
Q 36.765625 34.90625 28.71875 34.90625 
L 20.21875 34.90625 
L 20.21875 43.015625 
L 29.109375 43.015625 
Q 36.375 43.015625 40.234375 45.921875 
Q 44.09375 48.828125 44.09375 54.296875 
Q 44.09375 59.90625 40.109375 62.90625 
Q 36.140625 65.921875 28.71875 65.921875 
Q 24.65625 65.921875 20.015625 65.03125 
Q 15.375 64.15625 9.8125 62.3125 
L 9.8125 71.09375 
Q 15.4375 72.65625 20.34375 73.4375 
Q 25.25 74.21875 29.59375 74.21875 
Q 40.828125 74.21875 47.359375 69.109375 
Q 53.90625 64.015625 53.90625 55.328125 
Q 53.90625 49.265625 50.4375 45.09375 
Q 46.96875 40.921875 40.578125 39.3125 
z
" id="DejaVuSans-33"/>
      </defs>
      <g transform="translate(248.655114 266.598437)scale(0.1 -0.1)">
       <use xlink:href="#DejaVuSans-33"/>
      </g>
     </g>
    </g>
    <g id="xtick_5">
     <g id="line2d_5">
      <g>
       <use style="stroke:#000000;stroke-width:0.8;" x="312.709091" xlink:href="#m27d25f34e5" y="252"/>
      </g>
     </g>
     <g id="text_5">
      <!-- 4 -->
      <defs>
       <path d="M 37.796875 64.3125 
L 12.890625 25.390625 
L 37.796875 25.390625 
z
M 35.203125 72.90625 
L 47.609375 72.90625 
L 47.609375 25.390625 
L 58.015625 25.390625 
L 58.015625 17.1875 
L 47.609375 17.1875 
L 47.609375 0 
L 37.796875 0 
L 37.796875 17.1875 
L 4.890625 17.1875 
L 4.890625 26.703125 
z
" id="DejaVuSans-34"/>
      </defs>
      <g transform="translate(309.527841 266.598437)scale(0.1 -0.1)">
       <use xlink:href="#DejaVuSans-34"/>
      </g>
     </g>
    </g>
    <g id="xtick_6">
     <g id="line2d_6">
      <g>
       <use style="stroke:#000000;stroke-width:0.8;" x="373.581818" xlink:href="#m27d25f34e5" y="252"/>
      </g>
     </g>
     <g id="text_6">
      <!-- 5 -->
      <defs>
       <path d="M 10.796875 72.90625 
L 49.515625 72.90625 
L 49.515625 64.59375 
L 19.828125 64.59375 
L 19.828125 46.734375 
Q 21.96875 47.46875 24.109375 47.828125 
Q 26.265625 48.1875 28.421875 48.1875 
Q 40.625 48.1875 47.75 41.5 
Q 54.890625 34.8125 54.890625 23.390625 
Q 54.890625 11.625 47.5625 5.09375 
Q 40.234375 -1.421875 26.90625 -1.421875 
Q 22.3125 -1.421875 17.546875 -0.640625 
Q 12.796875 0.140625 7.71875 1.703125 
L 7.71875 11.625 
Q 12.109375 9.234375 16.796875 8.0625 
Q 21.484375 6.890625 26.703125 6.890625 
Q 35.15625 6.890625 40.078125 11.328125 
Q 45.015625 15.765625 45.015625 23.390625 
Q 45.015625 31 40.078125 35.4375 
Q 35.15625 39.890625 26.703125 39.890625 
Q 22.75 39.890625 18.8125 39.015625 
Q 14.890625 38.140625 10.796875 36.28125 
z
" id="DejaVuSans-35"/>
      </defs>
      <g transform="translate(370.400568 266.598437)scale(0.1 -0.1)">
       <use xlink:href="#DejaVuSans-35"/>
      </g>
     </g>
    </g>
    <g id="text_7">
     <!-- Time (milliseconds) -->
     <defs>
      <path d="M -0.296875 72.90625 
L 61.375 72.90625 
L 61.375 64.59375 
L 35.5 64.59375 
L 35.5 0 
L 25.59375 0 
L 25.59375 64.59375 
L -0.296875 64.59375 
z
" id="DejaVuSans-54"/>
      <path d="M 9.421875 54.6875 
L 18.40625 54.6875 
L 18.40625 0 
L 9.421875 0 
z
M 9.421875 75.984375 
L 18.40625 75.984375 
L 18.40625 64.59375 
L 9.421875 64.59375 
z
" id="DejaVuSans-69"/>
      <path d="M 52 44.1875 
Q 55.375 50.25 60.0625 53.125 
Q 64.75 56 71.09375 56 
Q 79.640625 56 84.28125 50.015625 
Q 88.921875 44.046875 88.921875 33.015625 
L 88.921875 0 
L 79.890625 0 
L 79.890625 32.71875 
Q 79.890625 40.578125 77.09375 44.375 
Q 74.3125 48.1875 68.609375 48.1875 
Q 61.625 48.1875 57.5625 43.546875 
Q 53.515625 38.921875 53.515625 30.90625 
L 53.515625 0 
L 44.484375 0 
L 44.484375 32.71875 
Q 44.484375 40.625 41.703125 44.40625 
Q 38.921875 48.1875 33.109375 48.1875 
Q 26.21875 48.1875 22.15625 43.53125 
Q 18.109375 38.875 18.109375 30.90625 
L 18.109375 0 
L 9.078125 0 
L 9.078125 54.6875 
L 18.109375 54.6875 
L 18.109375 46.1875 
Q 21.1875 51.21875 25.484375 53.609375 
Q 29.78125 56 35.6875 56 
Q 41.65625 56 45.828125 52.96875 
Q 50 49.953125 52 44.1875 
z
" id="DejaVuSans-6d"/>
      <path d="M 56.203125 29.59375 
L 56.203125 25.203125 
L 14.890625 25.203125 
Q 15.484375 15.921875 20.484375 11.0625 
Q 25.484375 6.203125 34.421875 6.203125 
Q 39.59375 6.203125 44.453125 7.46875 
Q 49.3125 8.734375 54.109375 11.28125 
L 54.109375 2.78125 
Q 49.265625 0.734375 44.1875 -0.34375 
Q 39.109375 -1.421875 33.890625 -1.421875 
Q 20.796875 -1.421875 13.15625 6.1875 
Q 5.515625 13.8125 5.515625 26.8125 
Q 5.515625 40.234375 12.765625 48.109375 
Q 20.015625 56 32.328125 56 
Q 43.359375 56 49.78125 48.890625 
Q 56.203125 41.796875 56.203125 29.59375 
z
M 47.21875 32.234375 
Q 47.125 39.59375 43.09375 43.984375 
Q 39.0625 48.390625 32.421875 48.390625 
Q 24.90625 48.390625 20.390625 44.140625 
Q 15.875 39.890625 15.1875 32.171875 
z
" id="DejaVuSans-65"/>
      <path id="DejaVuSans-20"/>
      <path d="M 31 75.875 
Q 24.46875 64.65625 21.28125 53.65625 
Q 18.109375 42.671875 18.109375 31.390625 
Q 18.109375 20.125 21.3125 9.0625 
Q 24.515625 -2 31 -13.1875 
L 23.1875 -13.1875 
Q 15.875 -1.703125 12.234375 9.375 
Q 8.59375 20.453125 8.59375 31.390625 
Q 8.59375 42.28125 12.203125 53.3125 
Q 15.828125 64.359375 23.1875 75.875 
z
" id="DejaVuSans-28"/>
      <path d="M 9.421875 75.984375 
L 18.40625 75.984375 
L 18.40625 0 
L 9.421875 0 
z
" id="DejaVuSans-6c"/>
      <path d="M 44.28125 53.078125 
L 44.28125 44.578125 
Q 40.484375 46.53125 36.375 47.5 
Q 32.28125 48.484375 27.875 48.484375 
Q 21.1875 48.484375 17.84375 46.4375 
Q 14.5 44.390625 14.5 40.28125 
Q 14.5 37.15625 16.890625 35.375 
Q 19.28125 33.59375 26.515625 31.984375 
L 29.59375 31.296875 
Q 39.15625 29.25 43.1875 25.515625 
Q 47.21875 21.78125 47.21875 15.09375 
Q 47.21875 7.46875 41.1875 3.015625 
Q 35.15625 -1.421875 24.609375 -1.421875 
Q 20.21875 -1.421875 15.453125 -0.5625 
Q 10.6875 0.296875 5.421875 2 
L 5.421875 11.28125 
Q 10.40625 8.6875 15.234375 7.390625 
Q 20.0625 6.109375 24.8125 6.109375 
Q 31.15625 6.109375 34.5625 8.28125 
Q 37.984375 10.453125 37.984375 14.40625 
Q 37.984375 18.0625 35.515625 20.015625 
Q 33.0625 21.96875 24.703125 23.78125 
L 21.578125 24.515625 
Q 13.234375 26.265625 9.515625 29.90625 
Q 5.8125 33.546875 5.8125 39.890625 
Q 5.8125 47.609375 11.28125 51.796875 
Q 16.75 56 26.8125 56 
Q 31.78125 56 36.171875 55.265625 
Q 40.578125 54.546875 44.28125 53.078125 
z
" id="DejaVuSans-73"/>
      <path d="M 48.78125 52.59375 
L 48.78125 44.1875 
Q 44.96875 46.296875 41.140625 47.34375 
Q 37.3125 48.390625 33.40625 48.390625 
Q 24.65625 48.390625 19.8125 42.84375 
Q 14.984375 37.3125 14.984375 27.296875 
Q 14.984375 17.28125 19.8125 11.734375 
Q 24.65625 6.203125 33.40625 6.203125 
Q 37.3125 6.203125 41.140625 7.25 
Q 44.96875 8.296875 48.78125 10.40625 
L 48.78125 2.09375 
Q 45.015625 0.34375 40.984375 -0.53125 
Q 36.96875 -1.421875 32.421875 -1.421875 
Q 20.0625 -1.421875 12.78125 6.34375 
Q 5.515625 14.109375 5.515625 27.296875 
Q 5.515625 40.671875 12.859375 48.328125 
Q 20.21875 56 33.015625 56 
Q 37.15625 56 41.109375 55.140625 
Q 45.0625 54.296875 48.78125 52.59375 
z
" id="DejaVuSans-63"/>
      <path d="M 30.609375 48.390625 
Q 23.390625 48.390625 19.1875 42.75 
Q 14.984375 37.109375 14.984375 27.296875 
Q 14.984375 17.484375 19.15625 11.84375 
Q 23.34375 6.203125 30.609375 6.203125 
Q 37.796875 6.203125 41.984375 11.859375 
Q 46.1875 17.53125 46.1875 27.296875 
Q 46.1875 37.015625 41.984375 42.703125 
Q 37.796875 48.390625 30.609375 48.390625 
z
M 30.609375 56 
Q 42.328125 56 49.015625 48.375 
Q 55.71875 40.765625 55.71875 27.296875 
Q 55.71875 13.875 49.015625 6.21875 
Q 42.328125 -1.421875 30.609375 -1.421875 
Q 18.84375 -1.421875 12.171875 6.21875 
Q 5.515625 13.875 5.515625 27.296875 
Q 5.515625 40.765625 12.171875 48.375 
Q 18.84375 56 30.609375 56 
z
" id="DejaVuSans-6f"/>
      <path d="M 54.890625 33.015625 
L 54.890625 0 
L 45.90625 0 
L 45.90625 32.71875 
Q 45.90625 40.484375 42.875 44.328125 
Q 39.84375 48.1875 33.796875 48.1875 
Q 26.515625 48.1875 22.3125 43.546875 
Q 18.109375 38.921875 18.109375 30.90625 
L 18.109375 0 
L 9.078125 0 
L 9.078125 54.6875 
L 18.109375 54.6875 
L 18.109375 46.1875 
Q 21.34375 51.125 25.703125 53.5625 
Q 30.078125 56 35.796875 56 
Q 45.21875 56 50.046875 50.171875 
Q 54.890625 44.34375 54.890625 33.015625 
z
" id="DejaVuSans-6e"/>
      <path d="M 45.40625 46.390625 
L 45.40625 75.984375 
L 54.390625 75.984375 
L 54.390625 0 
L 45.40625 0 
L 45.40625 8.203125 
Q 42.578125 3.328125 38.25 0.953125 
Q 33.9375 -1.421875 27.875 -1.421875 
Q 17.96875 -1.421875 11.734375 6.484375 
Q 5.515625 14.40625 5.515625 27.296875 
Q 5.515625 40.1875 11.734375 48.09375 
Q 17.96875 56 27.875 56 
Q 33.9375 56 38.25 53.625 
Q 42.578125 51.265625 45.40625 46.390625 
z
M 14.796875 27.296875 
Q 14.796875 17.390625 18.875 11.75 
Q 22.953125 6.109375 30.078125 6.109375 
Q 37.203125 6.109375 41.296875 11.75 
Q 45.40625 17.390625 45.40625 27.296875 
Q 45.40625 37.203125 41.296875 42.84375 
Q 37.203125 48.484375 30.078125 48.484375 
Q 22.953125 48.484375 18.875 42.84375 
Q 14.796875 37.203125 14.796875 27.296875 
z
" id="DejaVuSans-64"/>
      <path d="M 8.015625 75.875 
L 15.828125 75.875 
Q 23.140625 64.359375 26.78125 53.3125 
Q 30.421875 42.28125 30.421875 31.390625 
Q 30.421875 20.453125 26.78125 9.375 
Q 23.140625 -1.703125 15.828125 -13.1875 
L 8.015625 -13.1875 
Q 14.5 -2 17.703125 9.0625 
Q 20.90625 20.125 20.90625 31.390625 
Q 20.90625 42.671875 17.703125 53.65625 
Q 14.5 64.65625 8.015625 75.875 
z
" id="DejaVuSans-29"/>
     </defs>
     <g transform="translate(143.4125 284.835625)scale(0.16 -0.16)">
      <use xlink:href="#DejaVuSans-54"/>
      <use x="61.037109" xlink:href="#DejaVuSans-69"/>
      <use x="88.820312" xlink:href="#DejaVuSans-6d"/>
      <use x="186.232422" xlink:href="#DejaVuSans-65"/>
      <use x="247.755859" xlink:href="#DejaVuSans-20"/>
      <use x="279.542969" xlink:href="#DejaVuSans-28"/>
      <use x="318.556641" xlink:href="#DejaVuSans-6d"/>
      <use x="415.96875" xlink:href="#DejaVuSans-69"/>
      <use x="443.751953" xlink:href="#DejaVuSans-6c"/>
      <use x="471.535156" xlink:href="#DejaVuSans-6c"/>
      <use x="499.318359" xlink:href="#DejaVuSans-69"/>
      <use x="527.101562" xlink:href="#DejaVuSans-73"/>
      <use x="579.201172" xlink:href="#DejaVuSans-65"/>
      <use x="640.724609" xlink:href="#DejaVuSans-63"/>
      <use x="695.705078" xlink:href="#DejaVuSans-6f"/>
      <use x="756.886719" xlink:href="#DejaVuSans-6e"/>
      <use x="820.265625" xlink:href="#DejaVuSans-64"/>
      <use x="883.742188" xlink:href="#DejaVuSans-73"/>
      <use x="935.841797" xlink:href="#DejaVuSans-29"/>
     </g>
    </g>
   </g>
   <g id="matplotlib.axis_2">
    <g id="ytick_1">
     <g id="line2d_7">
      <defs>
       <path d="M 0 0 
L -3.5 0 
" id="ma3c9de22f3" style="stroke:#000000;stroke-width:0.8;"/>
      </defs>
      <g>
       <use style="stroke:#000000;stroke-width:0.8;" x="54" xlink:href="#ma3c9de22f3" y="250.791066"/>
      </g>
     </g>
     <g id="text_8">
      <!-- −6 -->
      <defs>
       <path d="M 10.59375 35.5 
L 73.1875 35.5 
L 73.1875 27.203125 
L 10.59375 27.203125 
z
" id="DejaVuSans-2212"/>
       <path d="M 33.015625 40.375 
Q 26.375 40.375 22.484375 35.828125 
Q 18.609375 31.296875 18.609375 23.390625 
Q 18.609375 15.53125 22.484375 10.953125 
Q 26.375 6.390625 33.015625 6.390625 
Q 39.65625 6.390625 43.53125 10.953125 
Q 47.40625 15.53125 47.40625 23.390625 
Q 47.40625 31.296875 43.53125 35.828125 
Q 39.65625 40.375 33.015625 40.375 
z
M 52.59375 71.296875 
L 52.59375 62.3125 
Q 48.875 64.0625 45.09375 64.984375 
Q 41.3125 65.921875 37.59375 65.921875 
Q 27.828125 65.921875 22.671875 59.328125 
Q 17.53125 52.734375 16.796875 39.40625 
Q 19.671875 43.65625 24.015625 45.921875 
Q 28.375 48.1875 33.59375 48.1875 
Q 44.578125 48.1875 50.953125 41.515625 
Q 57.328125 34.859375 57.328125 23.390625 
Q 57.328125 12.15625 50.6875 5.359375 
Q 44.046875 -1.421875 33.015625 -1.421875 
Q 20.359375 -1.421875 13.671875 8.265625 
Q 6.984375 17.96875 6.984375 36.375 
Q 6.984375 53.65625 15.1875 63.9375 
Q 23.390625 74.21875 37.203125 74.21875 
Q 40.921875 74.21875 44.703125 73.484375 
Q 48.484375 72.75 52.59375 71.296875 
z
" id="DejaVuSans-36"/>
      </defs>
      <g transform="translate(32.257812 254.590284)scale(0.1 -0.1)">
       <use xlink:href="#DejaVuSans-2212"/>
       <use x="83.789062" xlink:href="#DejaVuSans-36"/>
      </g>
     </g>
    </g>
    <g id="ytick_2">
     <g id="line2d_8">
      <g>
       <use style="stroke:#000000;stroke-width:0.8;" x="54" xlink:href="#ma3c9de22f3" y="207.565038"/>
      </g>
     </g>
     <g id="text_9">
      <!-- −4 -->
      <g transform="translate(32.257812 211.364257)scale(0.1 -0.1)">
       <use xlink:href="#DejaVuSans-2212"/>
       <use x="83.789062" xlink:href="#DejaVuSans-34"/>
      </g>
     </g>
    </g>
    <g id="ytick_3">
     <g id="line2d_9">
      <g>
       <use style="stroke:#000000;stroke-width:0.8;" x="54" xlink:href="#ma3c9de22f3" y="164.33901"/>
      </g>
     </g>
     <g id="text_10">
      <!-- −2 -->
      <g transform="translate(32.257812 168.138229)scale(0.1 -0.1)">
       <use xlink:href="#DejaVuSans-2212"/>
       <use x="83.789062" xlink:href="#DejaVuSans-32"/>
      </g>
     </g>
    </g>
    <g id="ytick_4">
     <g id="line2d_10">
      <g>
       <use style="stroke:#000000;stroke-width:0.8;" x="54" xlink:href="#ma3c9de22f3" y="121.112982"/>
      </g>
     </g>
     <g id="text_11">
      <!-- 0 -->
      <g transform="translate(40.6375 124.912201)scale(0.1 -0.1)">
       <use xlink:href="#DejaVuSans-30"/>
      </g>
     </g>
    </g>
    <g id="ytick_5">
     <g id="line2d_11">
      <g>
       <use style="stroke:#000000;stroke-width:0.8;" x="54" xlink:href="#ma3c9de22f3" y="77.886954"/>
      </g>
     </g>
     <g id="text_12">
      <!-- 2 -->
      <g transform="translate(40.6375 81.686173)scale(0.1 -0.1)">
       <use xlink:href="#DejaVuSans-32"/>
      </g>
     </g>
    </g>
    <g id="ytick_6">
     <g id="line2d_12">
      <g>
       <use style="stroke:#000000;stroke-width:0.8;" x="54" xlink:href="#ma3c9de22f3" y="34.660926"/>
      </g>
     </g>
     <g id="text_13">
      <!-- 4 -->
      <g transform="translate(40.6375 38.460145)scale(0.1 -0.1)">
       <use xlink:href="#DejaVuSans-34"/>
      </g>
     </g>
    </g>
    <g id="text_14">
     <!-- "Pressure" -->
     <defs>
      <path d="M 17.921875 72.90625 
L 17.921875 45.796875 
L 9.625 45.796875 
L 9.625 72.90625 
z
M 36.375 72.90625 
L 36.375 45.796875 
L 28.078125 45.796875 
L 28.078125 72.90625 
z
" id="DejaVuSans-22"/>
      <path d="M 19.671875 64.796875 
L 19.671875 37.40625 
L 32.078125 37.40625 
Q 38.96875 37.40625 42.71875 40.96875 
Q 46.484375 44.53125 46.484375 51.125 
Q 46.484375 57.671875 42.71875 61.234375 
Q 38.96875 64.796875 32.078125 64.796875 
z
M 9.8125 72.90625 
L 32.078125 72.90625 
Q 44.34375 72.90625 50.609375 67.359375 
Q 56.890625 61.8125 56.890625 51.125 
Q 56.890625 40.328125 50.609375 34.8125 
Q 44.34375 29.296875 32.078125 29.296875 
L 19.671875 29.296875 
L 19.671875 0 
L 9.8125 0 
z
" id="DejaVuSans-50"/>
      <path d="M 41.109375 46.296875 
Q 39.59375 47.171875 37.8125 47.578125 
Q 36.03125 48 33.890625 48 
Q 26.265625 48 22.1875 43.046875 
Q 18.109375 38.09375 18.109375 28.8125 
L 18.109375 0 
L 9.078125 0 
L 9.078125 54.6875 
L 18.109375 54.6875 
L 18.109375 46.1875 
Q 20.953125 51.171875 25.484375 53.578125 
Q 30.03125 56 36.53125 56 
Q 37.453125 56 38.578125 55.875 
Q 39.703125 55.765625 41.0625 55.515625 
z
" id="DejaVuSans-72"/>
      <path d="M 8.5 21.578125 
L 8.5 54.6875 
L 17.484375 54.6875 
L 17.484375 21.921875 
Q 17.484375 14.15625 20.5 10.265625 
Q 23.53125 6.390625 29.59375 6.390625 
Q 36.859375 6.390625 41.078125 11.03125 
Q 45.3125 15.671875 45.3125 23.6875 
L 45.3125 54.6875 
L 54.296875 54.6875 
L 54.296875 0 
L 45.3125 0 
L 45.3125 8.40625 
Q 42.046875 3.421875 37.71875 1 
Q 33.40625 -1.421875 27.6875 -1.421875 
Q 18.265625 -1.421875 13.375 4.4375 
Q 8.5 10.296875 8.5 21.578125 
z
M 31.109375 56 
z
" id="DejaVuSans-75"/>
     </defs>
     <g transform="translate(24.930312 185.285)rotate(-90)scale(0.16 -0.16)">
      <use xlink:href="#DejaVuSans-22"/>
      <use x="45.996094" xlink:href="#DejaVuSans-50"/>
      <use x="106.283203" xlink:href="#DejaVuSans-72"/>
      <use x="147.365234" xlink:href="#DejaVuSans-65"/>
      <use x="208.888672" xlink:href="#DejaVuSans-73"/>
      <use x="260.988281" xlink:href="#DejaVuSans-73"/>
      <use x="313.087891" xlink:href="#DejaVuSans-75"/>
      <use x="376.466797" xlink:href="#DejaVuSans-72"/>
      <use x="417.548828" xlink:href="#DejaVuSans-65"/>
      <use x="479.072266" xlink:href="#DejaVuSans-22"/>
     </g>
    </g>
   </g>
   <g id="line2d_13">
    <path clip-path="url(#p74061a4da6)" d="M 69.218182 77.886954 
L 72.264865 58.236834 
L 73.483538 51.751362 
L 74.397543 47.982737 
L 75.00688 46.1505 
L 75.616216 44.95256 
L 75.920885 44.612463 
L 76.225553 44.454478 
L 76.530221 44.484519 
L 76.834889 44.707392 
L 77.139558 45.126712 
L 77.748894 46.56273 
L 78.358231 48.794959 
L 78.967568 51.802931 
L 79.881572 57.666607 
L 81.100246 67.59517 
L 82.928256 85.124895 
L 84.756265 102.292083 
L 85.974939 111.483629 
L 86.888943 116.437759 
L 87.49828 118.634253 
L 88.107617 119.873589 
L 88.412285 120.124217 
L 88.716953 120.12735 
L 89.021622 119.884408 
L 89.32629 119.398849 
L 89.935627 117.723889 
L 90.544963 115.170486 
L 91.458968 109.917502 
L 92.677641 100.991633 
L 95.419656 79.967823 
L 96.333661 75.058382 
L 96.942998 72.913229 
L 97.247666 72.23725 
L 97.552334 71.847846 
L 97.857002 71.759379 
L 98.161671 71.98424 
L 98.466339 72.532752 
L 99.075676 74.63112 
L 99.685012 78.092566 
L 100.294349 82.917935 
L 101.208354 92.622608 
L 102.122359 105.026044 
L 103.341032 124.964708 
L 105.47371 164.928393 
L 107.30172 198.165195 
L 108.520393 216.711696 
L 109.434398 227.710605 
L 110.348403 235.74546 
L 110.95774 239.327339 
L 111.567076 241.449593 
L 111.871744 241.963355 
L 112.176413 242.116364 
L 112.481081 241.914235 
L 112.785749 241.364493 
L 113.395086 239.261241 
L 114.004423 235.901139 
L 114.613759 231.402094 
L 115.527764 222.821233 
L 116.746437 208.773547 
L 118.879115 180.621631 
L 121.011794 153.03909 
L 122.535135 135.837435 
L 124.058477 121.219045 
L 125.581818 108.838863 
L 127.409828 95.847699 
L 132.589189 61.537598 
L 134.112531 52.932364 
L 135.026536 48.876404 
L 135.635872 46.811354 
L 136.245209 45.351139 
L 136.854545 44.566092 
L 137.159214 44.445274 
L 137.463882 44.513534 
L 137.76855 44.775447 
L 138.377887 45.892412 
L 138.987224 47.807307 
L 139.59656 50.508942 
L 140.510565 55.954403 
L 141.42457 62.871032 
L 142.643243 73.801567 
L 145.994595 105.31151 
L 146.9086 111.871089 
L 147.822604 116.699041 
L 148.431941 118.801969 
L 149.041278 119.943514 
L 149.345946 120.144627 
L 149.650614 120.098366 
L 149.955283 119.806559 
L 150.259951 119.273071 
L 150.869287 117.506683 
L 151.478624 114.870382 
L 152.392629 109.515476 
L 153.611302 100.508636 
L 156.048649 81.556084 
L 156.962654 76.186147 
L 157.57199 73.649516 
L 158.181327 72.135956 
L 158.485995 71.805652 
L 158.790663 71.778924 
L 159.095332 72.067758 
L 159.4 72.682049 
L 160.009337 74.915617 
L 160.618673 78.514039 
L 161.22801 83.474394 
L 162.142015 93.369645 
L 163.05602 105.93879 
L 164.274693 126.04183 
L 166.407371 166.091227 
L 168.235381 199.18056 
L 169.454054 217.529791 
L 170.368059 228.342096 
L 171.282064 236.168749 
L 171.8914 239.605443 
L 172.500737 241.581409 
L 172.805405 242.022666 
L 173.110074 242.104135 
L 173.414742 241.831822 
L 173.71941 241.213622 
L 174.328747 238.980013 
L 174.938084 235.500362 
L 175.852088 228.212244 
L 176.766093 218.872396 
L 177.984767 204.151164 
L 183.164128 138.415911 
L 184.687469 123.391823 
L 186.210811 110.698242 
L 188.038821 97.511183 
L 192.913514 64.994901 
L 194.436855 55.81352 
L 195.655528 49.854169 
L 196.569533 46.636869 
L 197.17887 45.241192 
L 197.788206 44.52706 
L 198.092875 44.443636 
L 198.397543 44.550298 
L 198.702211 44.851386 
L 199.311548 46.048 
L 199.920885 48.042453 
L 200.530221 50.821249 
L 201.444226 56.372793 
L 202.358231 63.377019 
L 203.881572 77.327446 
L 206.623587 103.320281 
L 207.537592 110.275922 
L 208.451597 115.600153 
L 209.060934 118.073709 
L 209.67027 119.604582 
L 209.974939 120.003546 
L 210.279607 120.155135 
L 210.584275 120.059554 
L 210.888943 119.719036 
L 211.49828 118.322322 
L 212.107617 116.023436 
L 212.716953 112.912209 
L 213.630958 106.990171 
L 215.1543 95.096714 
L 216.98231 81.149678 
L 217.896314 75.890797 
L 218.505651 73.449704 
L 219.114988 72.046252 
L 219.419656 71.775608 
L 219.724324 71.811098 
L 220.028993 72.1643 
L 220.333661 72.84468 
L 220.942998 75.213793 
L 221.552334 78.949163 
L 222.161671 84.044097 
L 223.075676 94.128629 
L 223.989681 106.86143 
L 225.208354 127.125156 
L 227.6457 173.024896 
L 229.169042 200.187751 
L 230.387715 218.336336 
L 231.30172 228.960256 
L 232.215725 236.577667 
L 232.825061 239.868912 
L 233.434398 241.698666 
L 233.739066 242.067578 
L 234.043735 242.077749 
L 234.348403 241.735568 
L 234.653071 241.049298 
L 235.262408 238.686306 
L 235.871744 235.088309 
L 236.785749 227.647736 
L 237.699754 218.189657 
L 239.223096 199.402546 
L 243.488452 144.463718 
L 245.011794 128.505664 
L 246.535135 115.038611 
L 248.058477 103.472706 
L 250.800491 84.812035 
L 254.761179 58.954019 
L 255.979853 52.333574 
L 256.893857 48.418726 
L 257.503194 46.468516 
L 258.112531 45.138071 
L 258.721867 44.495416 
L 259.026536 44.449606 
L 259.331204 44.594844 
L 259.635872 44.935231 
L 260.245209 46.211584 
L 260.854545 48.285461 
L 261.463882 51.141051 
L 262.377887 56.79768 
L 263.291892 63.888012 
L 264.815233 77.921703 
L 267.557248 103.826446 
L 268.471253 110.685933 
L 269.385258 115.88824 
L 269.994595 118.270075 
L 270.603931 119.704107 
L 270.9086 120.053676 
L 271.213268 120.155751 
L 271.517936 120.010938 
L 271.822604 119.62188 
L 272.431941 118.131789 
L 273.041278 115.747124 
L 273.955283 110.703983 
L 275.173956 101.950418 
L 277.915971 80.749371 
L 278.829975 75.604275 
L 279.439312 73.260291 
L 280.048649 71.968257 
L 280.353317 71.757815 
L 280.657985 71.855988 
L 280.962654 72.273937 
L 281.267322 73.020697 
L 281.876658 75.525663 
L 282.485995 79.397913 
L 283.095332 84.626983 
L 284.009337 94.899446 
L 284.923342 107.793804 
L 286.142015 128.214479 
L 291.016708 215.041431 
L 291.930713 226.408017 
L 292.844717 234.855953 
L 293.454054 238.727272 
L 294.063391 241.142196 
L 294.368059 241.80139 
L 294.672727 242.098135 
L 294.977396 242.037263 
L 295.282064 241.625545 
L 295.586732 240.871607 
L 296.196069 238.380229 
L 296.805405 234.665113 
L 297.71941 227.074241 
L 298.633415 217.500324 
L 300.156757 198.601227 
L 304.117445 147.259057 
L 305.640786 130.882967 
L 307.164128 117.045325 
L 308.687469 105.229761 
L 311.124816 88.473221 
L 315.69484 58.594156 
L 316.913514 52.040353 
L 317.827518 48.19798 
L 318.436855 46.306368 
L 319.046192 45.04184 
L 319.35086 44.666121 
L 319.655528 44.471207 
L 319.960197 44.463221 
L 320.264865 44.6472 
L 320.569533 45.027001 
L 321.17887 46.383163 
L 321.788206 48.536306 
L 322.397543 51.468296 
L 323.311548 57.22898 
L 324.530221 67.052478 
L 326.358231 84.522967 
L 328.186241 101.770336 
L 329.404914 111.08854 
L 330.318919 116.167468 
L 330.928256 118.456939 
L 331.537592 119.793781 
L 331.84226 120.0939 
L 332.146929 120.146484 
L 332.451597 119.952546 
L 332.756265 119.515135 
L 333.365602 117.932286 
L 333.974939 115.462771 
L 334.888943 110.313722 
L 336.107617 101.47229 
L 338.849631 80.355356 
L 339.763636 75.326748 
L 340.372973 73.081419 
L 340.98231 71.902084 
L 341.286978 71.752373 
L 341.591646 71.913675 
L 341.896314 72.396734 
L 342.200983 73.210146 
L 342.810319 75.851237 
L 343.419656 79.860263 
L 344.028993 85.222987 
L 344.942998 95.681977 
L 345.857002 108.735747 
L 347.075676 129.309589 
L 351.6457 211.568794 
L 352.559705 223.647324 
L 353.47371 232.906711 
L 354.083047 237.352224 
L 354.692383 240.351916 
L 354.997052 241.303195 
L 355.30172 241.889609 
L 355.606388 242.114381 
L 355.911057 241.982737 
L 356.215725 241.501827 
L 356.520393 240.680636 
L 357.12973 238.061897 
L 357.739066 234.230905 
L 358.653071 226.491915 
L 359.871744 213.235006 
L 361.699754 189.660567 
L 364.441769 153.778596 
L 365.965111 136.475706 
L 367.488452 121.756682 
L 369.011794 109.300024 
L 370.839803 96.262333 
L 373.581818 77.886954 
L 373.581818 77.886954 
" style="fill:none;stroke:#1f77b4;stroke-linecap:square;stroke-width:1.5;"/>
   </g>
   <g id="patch_3">
    <path d="M 54 252 
L 54 34.56 
" style="fill:none;stroke:#000000;stroke-linecap:square;stroke-linejoin:miter;stroke-width:0.8;"/>
   </g>
   <g id="patch_4">
    <path d="M 388.8 252 
L 388.8 34.56 
" style="fill:none;stroke:#000000;stroke-linecap:square;stroke-linejoin:miter;stroke-width:0.8;"/>
   </g>
   <g id="patch_5">
    <path d="M 54 252 
L 388.8 252 
" style="fill:none;stroke:#000000;stroke-linecap:square;stroke-linejoin:miter;stroke-width:0.8;"/>
   </g>
   <g id="patch_6">
    <path d="M 54 34.56 
L 388.8 34.56 
" style="fill:none;stroke:#000000;stroke-linecap:square;stroke-linejoin:miter;stroke-width:0.8;"/>
   </g>
  </g>
 </g>
 <defs>
  <clipPath id="p74061a4da6">
   <rect height="217.44" width="334.8" x="54" y="34.56"/>
  </clipPath>
 </defs>
</svg>
