<?xml version="1.0" encoding="utf-8" standalone="no"?>
<!DOCTYPE svg PUBLIC "-//W3C//DTD SVG 1.1//EN"
  "http://www.w3.org/Graphics/SVG/1.1/DTD/svg11.dtd">
<!-- Created with matplotlib (http://matplotlib.org/) -->
<svg height="288pt" version="1.1" viewBox="0 0 432 288" width="432pt" xmlns="http://www.w3.org/2000/svg" xmlns:xlink="http://www.w3.org/1999/xlink">
 <defs>
  <style type="text/css">
*{stroke-linecap:butt;stroke-linejoin:round;}
  </style>
 </defs>
 <g id="figure_1">
  <g id="patch_1">
   <path d="M 0 288 
L 432 288 
L 432 0 
L 0 0 
z
" style="fill:#ffffff;"/>
  </g>
  <g id="axes_1">
   <g id="patch_2">
    <path d="M 54 252 
L 388.8 252 
L 388.8 34.56 
L 54 34.56 
z
" style="fill:#ffffff;"/>
   </g>
   <g id="matplotlib.axis_1">
    <g id="xtick_1">
     <g id="line2d_1">
      <defs>
       <path d="M 0 0 
L 0 3.5 
" id="m650d714392" style="stroke:#000000;stroke-width:0.8;"/>
      </defs>
      <g>
       <use style="stroke:#000000;stroke-width:0.8;" x="69.218182" xlink:href="#m650d714392" y="252"/>
      </g>
     </g>
     <g id="text_1">
      <!-- 0.0 -->
      <defs>
       <path d="M 31.78125 66.40625 
Q 24.171875 66.40625 20.328125 58.90625 
Q 16.5 51.421875 16.5 36.375 
Q 16.5 21.390625 20.328125 13.890625 
Q 24.171875 6.390625 31.78125 6.390625 
Q 39.453125 6.390625 43.28125 13.890625 
Q 47.125 21.390625 47.125 36.375 
Q 47.125 51.421875 43.28125 58.90625 
Q 39.453125 66.40625 31.78125 66.40625 
z
M 31.78125 74.21875 
Q 44.046875 74.21875 50.515625 64.515625 
Q 56.984375 54.828125 56.984375 36.375 
Q 56.984375 17.96875 50.515625 8.265625 
Q 44.046875 -1.421875 31.78125 -1.421875 
Q 19.53125 -1.421875 13.0625 8.265625 
Q 6.59375 17.96875 6.59375 36.375 
Q 6.59375 54.828125 13.0625 64.515625 
Q 19.53125 74.21875 31.78125 74.21875 
z
" id="DejaVuSans-30"/>
       <path d="M 10.6875 12.40625 
L 21 12.40625 
L 21 0 
L 10.6875 0 
z
" id="DejaVuSans-2e"/>
      </defs>
      <g transform="translate(61.266619 266.598437)scale(0.1 -0.1)">
       <use xlink:href="#DejaVuSans-30"/>
       <use x="63.623047" xlink:href="#DejaVuSans-2e"/>
       <use x="95.410156" xlink:href="#DejaVuSans-30"/>
      </g>
     </g>
    </g>
    <g id="xtick_2">
     <g id="line2d_2">
      <g>
       <use style="stroke:#000000;stroke-width:0.8;" x="130.090909" xlink:href="#m650d714392" y="252"/>
      </g>
     </g>
     <g id="text_2">
      <!-- 0.2 -->
      <defs>
       <path d="M 19.1875 8.296875 
L 53.609375 8.296875 
L 53.609375 0 
L 7.328125 0 
L 7.328125 8.296875 
Q 12.9375 14.109375 22.625 23.890625 
Q 32.328125 33.6875 34.8125 36.53125 
Q 39.546875 41.84375 41.421875 45.53125 
Q 43.3125 49.21875 43.3125 52.78125 
Q 43.3125 58.59375 39.234375 62.25 
Q 35.15625 65.921875 28.609375 65.921875 
Q 23.96875 65.921875 18.8125 64.3125 
Q 13.671875 62.703125 7.8125 59.421875 
L 7.8125 69.390625 
Q 13.765625 71.78125 18.9375 73 
Q 24.125 74.21875 28.421875 74.21875 
Q 39.75 74.21875 46.484375 68.546875 
Q 53.21875 62.890625 53.21875 53.421875 
Q 53.21875 48.921875 51.53125 44.890625 
Q 49.859375 40.875 45.40625 35.40625 
Q 44.1875 33.984375 37.640625 27.21875 
Q 31.109375 20.453125 19.1875 8.296875 
z
" id="DejaVuSans-32"/>
      </defs>
      <g transform="translate(122.139347 266.598437)scale(0.1 -0.1)">
       <use xlink:href="#DejaVuSans-30"/>
       <use x="63.623047" xlink:href="#DejaVuSans-2e"/>
       <use x="95.410156" xlink:href="#DejaVuSans-32"/>
      </g>
     </g>
    </g>
    <g id="xtick_3">
     <g id="line2d_3">
      <g>
       <use style="stroke:#000000;stroke-width:0.8;" x="190.963636" xlink:href="#m650d714392" y="252"/>
      </g>
     </g>
     <g id="text_3">
      <!-- 0.4 -->
      <defs>
       <path d="M 37.796875 64.3125 
L 12.890625 25.390625 
L 37.796875 25.390625 
z
M 35.203125 72.90625 
L 47.609375 72.90625 
L 47.609375 25.390625 
L 58.015625 25.390625 
L 58.015625 17.1875 
L 47.609375 17.1875 
L 47.609375 0 
L 37.796875 0 
L 37.796875 17.1875 
L 4.890625 17.1875 
L 4.890625 26.703125 
z
" id="DejaVuSans-34"/>
      </defs>
      <g transform="translate(183.012074 266.598437)scale(0.1 -0.1)">
       <use xlink:href="#DejaVuSans-30"/>
       <use x="63.623047" xlink:href="#DejaVuSans-2e"/>
       <use x="95.410156" xlink:href="#DejaVuSans-34"/>
      </g>
     </g>
    </g>
    <g id="xtick_4">
     <g id="line2d_4">
      <g>
       <use style="stroke:#000000;stroke-width:0.8;" x="251.836364" xlink:href="#m650d714392" y="252"/>
      </g>
     </g>
     <g id="text_4">
      <!-- 0.6 -->
      <defs>
       <path d="M 33.015625 40.375 
Q 26.375 40.375 22.484375 35.828125 
Q 18.609375 31.296875 18.609375 23.390625 
Q 18.609375 15.53125 22.484375 10.953125 
Q 26.375 6.390625 33.015625 6.390625 
Q 39.65625 6.390625 43.53125 10.953125 
Q 47.40625 15.53125 47.40625 23.390625 
Q 47.40625 31.296875 43.53125 35.828125 
Q 39.65625 40.375 33.015625 40.375 
z
M 52.59375 71.296875 
L 52.59375 62.3125 
Q 48.875 64.0625 45.09375 64.984375 
Q 41.3125 65.921875 37.59375 65.921875 
Q 27.828125 65.921875 22.671875 59.328125 
Q 17.53125 52.734375 16.796875 39.40625 
Q 19.671875 43.65625 24.015625 45.921875 
Q 28.375 48.1875 33.59375 48.1875 
Q 44.578125 48.1875 50.953125 41.515625 
Q 57.328125 34.859375 57.328125 23.390625 
Q 57.328125 12.15625 50.6875 5.359375 
Q 44.046875 -1.421875 33.015625 -1.421875 
Q 20.359375 -1.421875 13.671875 8.265625 
Q 6.984375 17.96875 6.984375 36.375 
Q 6.984375 53.65625 15.1875 63.9375 
Q 23.390625 74.21875 37.203125 74.21875 
Q 40.921875 74.21875 44.703125 73.484375 
Q 48.484375 72.75 52.59375 71.296875 
z
" id="DejaVuSans-36"/>
      </defs>
      <g transform="translate(243.884801 266.598437)scale(0.1 -0.1)">
       <use xlink:href="#DejaVuSans-30"/>
       <use x="63.623047" xlink:href="#DejaVuSans-2e"/>
       <use x="95.410156" xlink:href="#DejaVuSans-36"/>
      </g>
     </g>
    </g>
    <g id="xtick_5">
     <g id="line2d_5">
      <g>
       <use style="stroke:#000000;stroke-width:0.8;" x="312.709091" xlink:href="#m650d714392" y="252"/>
      </g>
     </g>
     <g id="text_5">
      <!-- 0.8 -->
      <defs>
       <path d="M 31.78125 34.625 
Q 24.75 34.625 20.71875 30.859375 
Q 16.703125 27.09375 16.703125 20.515625 
Q 16.703125 13.921875 20.71875 10.15625 
Q 24.75 6.390625 31.78125 6.390625 
Q 38.8125 6.390625 42.859375 10.171875 
Q 46.921875 13.96875 46.921875 20.515625 
Q 46.921875 27.09375 42.890625 30.859375 
Q 38.875 34.625 31.78125 34.625 
z
M 21.921875 38.8125 
Q 15.578125 40.375 12.03125 44.71875 
Q 8.5 49.078125 8.5 55.328125 
Q 8.5 64.0625 14.71875 69.140625 
Q 20.953125 74.21875 31.78125 74.21875 
Q 42.671875 74.21875 48.875 69.140625 
Q 55.078125 64.0625 55.078125 55.328125 
Q 55.078125 49.078125 51.53125 44.71875 
Q 48 40.375 41.703125 38.8125 
Q 48.828125 37.15625 52.796875 32.3125 
Q 56.78125 27.484375 56.78125 20.515625 
Q 56.78125 9.90625 50.3125 4.234375 
Q 43.84375 -1.421875 31.78125 -1.421875 
Q 19.734375 -1.421875 13.25 4.234375 
Q 6.78125 9.90625 6.78125 20.515625 
Q 6.78125 27.484375 10.78125 32.3125 
Q 14.796875 37.15625 21.921875 38.8125 
z
M 18.3125 54.390625 
Q 18.3125 48.734375 21.84375 45.5625 
Q 25.390625 42.390625 31.78125 42.390625 
Q 38.140625 42.390625 41.71875 45.5625 
Q 45.3125 48.734375 45.3125 54.390625 
Q 45.3125 60.0625 41.71875 63.234375 
Q 38.140625 66.40625 31.78125 66.40625 
Q 25.390625 66.40625 21.84375 63.234375 
Q 18.3125 60.0625 18.3125 54.390625 
z
" id="DejaVuSans-38"/>
      </defs>
      <g transform="translate(304.757528 266.598437)scale(0.1 -0.1)">
       <use xlink:href="#DejaVuSans-30"/>
       <use x="63.623047" xlink:href="#DejaVuSans-2e"/>
       <use x="95.410156" xlink:href="#DejaVuSans-38"/>
      </g>
     </g>
    </g>
    <g id="xtick_6">
     <g id="line2d_6">
      <g>
       <use style="stroke:#000000;stroke-width:0.8;" x="373.581818" xlink:href="#m650d714392" y="252"/>
      </g>
     </g>
     <g id="text_6">
      <!-- 1.0 -->
      <defs>
       <path d="M 12.40625 8.296875 
L 28.515625 8.296875 
L 28.515625 63.921875 
L 10.984375 60.40625 
L 10.984375 69.390625 
L 28.421875 72.90625 
L 38.28125 72.90625 
L 38.28125 8.296875 
L 54.390625 8.296875 
L 54.390625 0 
L 12.40625 0 
z
" id="DejaVuSans-31"/>
      </defs>
      <g transform="translate(365.630256 266.598437)scale(0.1 -0.1)">
       <use xlink:href="#DejaVuSans-31"/>
       <use x="63.623047" xlink:href="#DejaVuSans-2e"/>
       <use x="95.410156" xlink:href="#DejaVuSans-30"/>
      </g>
     </g>
    </g>
   </g>
   <g id="matplotlib.axis_2">
    <g id="ytick_1">
     <g id="line2d_7">
      <defs>
       <path d="M 0 0 
L -3.5 0 
" id="m57bd0cdf42" style="stroke:#000000;stroke-width:0.8;"/>
      </defs>
      <g>
       <use style="stroke:#000000;stroke-width:0.8;" x="54" xlink:href="#m57bd0cdf42" y="227.109814"/>
      </g>
     </g>
     <g id="text_7">
      <!-- −1.0 -->
      <defs>
       <path d="M 10.59375 35.5 
L 73.1875 35.5 
L 73.1875 27.203125 
L 10.59375 27.203125 
z
" id="DejaVuSans-2212"/>
      </defs>
      <g transform="translate(22.717187 230.909033)scale(0.1 -0.1)">
       <use xlink:href="#DejaVuSans-2212"/>
       <use x="83.789062" xlink:href="#DejaVuSans-31"/>
       <use x="147.412109" xlink:href="#DejaVuSans-2e"/>
       <use x="179.199219" xlink:href="#DejaVuSans-30"/>
      </g>
     </g>
    </g>
    <g id="ytick_2">
     <g id="line2d_8">
      <g>
       <use style="stroke:#000000;stroke-width:0.8;" x="54" xlink:href="#m57bd0cdf42" y="185.194907"/>
      </g>
     </g>
     <g id="text_8">
      <!-- −0.5 -->
      <defs>
       <path d="M 10.796875 72.90625 
L 49.515625 72.90625 
L 49.515625 64.59375 
L 19.828125 64.59375 
L 19.828125 46.734375 
Q 21.96875 47.46875 24.109375 47.828125 
Q 26.265625 48.1875 28.421875 48.1875 
Q 40.625 48.1875 47.75 41.5 
Q 54.890625 34.8125 54.890625 23.390625 
Q 54.890625 11.625 47.5625 5.09375 
Q 40.234375 -1.421875 26.90625 -1.421875 
Q 22.3125 -1.421875 17.546875 -0.640625 
Q 12.796875 0.140625 7.71875 1.703125 
L 7.71875 11.625 
Q 12.109375 9.234375 16.796875 8.0625 
Q 21.484375 6.890625 26.703125 6.890625 
Q 35.15625 6.890625 40.078125 11.328125 
Q 45.015625 15.765625 45.015625 23.390625 
Q 45.015625 31 40.078125 35.4375 
Q 35.15625 39.890625 26.703125 39.890625 
Q 22.75 39.890625 18.8125 39.015625 
Q 14.890625 38.140625 10.796875 36.28125 
z
" id="DejaVuSans-35"/>
      </defs>
      <g transform="translate(22.717187 188.994126)scale(0.1 -0.1)">
       <use xlink:href="#DejaVuSans-2212"/>
       <use x="83.789062" xlink:href="#DejaVuSans-30"/>
       <use x="147.412109" xlink:href="#DejaVuSans-2e"/>
       <use x="179.199219" xlink:href="#DejaVuSans-35"/>
      </g>
     </g>
    </g>
    <g id="ytick_3">
     <g id="line2d_9">
      <g>
       <use style="stroke:#000000;stroke-width:0.8;" x="54" xlink:href="#m57bd0cdf42" y="143.28"/>
      </g>
     </g>
     <g id="text_9">
      <!-- 0.0 -->
      <g transform="translate(31.096875 147.079219)scale(0.1 -0.1)">
       <use xlink:href="#DejaVuSans-30"/>
       <use x="63.623047" xlink:href="#DejaVuSans-2e"/>
       <use x="95.410156" xlink:href="#DejaVuSans-30"/>
      </g>
     </g>
    </g>
    <g id="ytick_4">
     <g id="line2d_10">
      <g>
       <use style="stroke:#000000;stroke-width:0.8;" x="54" xlink:href="#m57bd0cdf42" y="101.365093"/>
      </g>
     </g>
     <g id="text_10">
      <!-- 0.5 -->
      <g transform="translate(31.096875 105.164312)scale(0.1 -0.1)">
       <use xlink:href="#DejaVuSans-30"/>
       <use x="63.623047" xlink:href="#DejaVuSans-2e"/>
       <use x="95.410156" xlink:href="#DejaVuSans-35"/>
      </g>
     </g>
    </g>
    <g id="ytick_5">
     <g id="line2d_11">
      <g>
       <use style="stroke:#000000;stroke-width:0.8;" x="54" xlink:href="#m57bd0cdf42" y="59.450186"/>
      </g>
     </g>
     <g id="text_11">
      <!-- 1.0 -->
      <g transform="translate(31.096875 63.249404)scale(0.1 -0.1)">
       <use xlink:href="#DejaVuSans-31"/>
       <use x="63.623047" xlink:href="#DejaVuSans-2e"/>
       <use x="95.410156" xlink:href="#DejaVuSans-30"/>
      </g>
     </g>
    </g>
   </g>
   <g id="line2d_12">
    <path clip-path="url(#p6df262c134)" d="M 69.218182 143.28 
L 69.827518 81.776988 
L 70.132187 60.495444 
L 70.436855 48.163143 
L 70.741523 44.443636 
L 71.046192 47.345645 
L 71.960197 65.89406 
L 72.264865 67.60191 
L 72.569533 66.047214 
L 73.483538 54.995385 
L 73.788206 53.893647 
L 74.092875 54.962676 
L 75.00688 62.848111 
L 75.311548 63.657622 
L 75.616216 62.8388 
L 76.530221 56.703026 
L 76.834889 56.065436 
L 77.139558 56.731814 
L 78.053563 61.757884 
L 78.358231 62.282321 
L 78.662899 61.718461 
L 79.576904 57.458498 
L 79.881572 57.014127 
L 80.186241 57.504396 
L 81.100246 61.20409 
L 81.404914 61.588859 
L 81.709582 61.153921 
L 82.623587 57.88143 
L 82.928256 57.542724 
L 83.232924 57.934596 
L 84.146929 60.870883 
L 84.451597 61.172944 
L 84.756265 60.8155 
L 85.67027 58.150438 
L 85.974939 57.878204 
L 86.279607 58.207535 
L 87.193612 60.649396 
L 87.49828 60.896895 
L 87.802948 60.59092 
L 88.716953 58.335759 
L 89.021622 58.109092 
L 89.32629 58.395386 
L 90.240295 60.492241 
L 90.544963 60.701135 
L 90.849631 60.431624 
L 91.763636 58.470544 
L 92.068305 58.276985 
L 92.372973 58.53204 
L 93.286978 60.375523 
L 93.591646 60.555725 
L 93.896314 60.313227 
L 94.810319 58.572457 
L 95.114988 58.403988 
L 95.419656 58.635499 
L 96.333661 60.285899 
L 96.638329 60.443988 
L 96.942998 60.22215 
L 97.857002 58.651763 
L 98.161671 58.502921 
L 98.466339 58.716197 
L 99.380344 60.215344 
L 99.685012 60.355904 
L 99.989681 60.150239 
L 100.903686 58.714829 
L 101.208354 58.581727 
L 101.513022 58.7806 
L 102.427027 60.158742 
L 102.731695 60.285097 
L 103.036364 60.092305 
L 103.950369 58.765808 
L 104.255037 58.645584 
L 104.559705 58.832918 
L 105.47371 60.112687 
L 105.778378 60.227319 
L 106.083047 60.044894 
L 106.997052 58.807522 
L 107.30172 58.698008 
L 107.606388 58.876014 
L 108.520393 60.074824 
L 108.825061 60.179638 
L 109.12973 60.005616 
L 110.043735 58.841949 
L 110.348403 58.741465 
L 110.653071 58.911895 
L 111.567076 60.043479 
L 111.871744 60.139965 
L 112.176413 59.972773 
L 113.090418 58.870516 
L 113.395086 58.777731 
L 113.699754 58.942009 
L 114.613759 60.01743 
L 114.918428 60.106779 
L 115.223096 59.945123 
L 116.137101 58.894271 
L 116.441769 58.808118 
L 116.746437 58.967424 
L 117.660442 59.995774 
L 117.965111 60.078949 
L 118.269779 59.921742 
L 119.183784 58.913999 
L 119.488452 58.833605 
L 119.79312 58.988944 
L 120.707125 59.977827 
L 121.011794 60.055619 
L 121.316462 59.901931 
L 122.230467 58.930294 
L 122.535135 58.85494 
L 122.839803 59.00718 
L 123.753808 59.963071 
L 124.058477 60.036138 
L 124.363145 59.885153 
L 125.27715 58.94361 
L 125.581818 58.872693 
L 125.886486 59.022603 
L 126.800491 59.951109 
L 127.10516 60.020002 
L 127.409828 59.870993 
L 128.323833 58.954294 
L 128.628501 58.887306 
L 128.93317 59.035581 
L 129.847174 59.941638 
L 130.151843 60.006827 
L 130.456511 59.859126 
L 131.370516 58.962609 
L 131.675184 58.899119 
L 131.979853 59.046399 
L 132.893857 59.934428 
L 133.198526 59.996313 
L 133.503194 59.849303 
L 134.417199 58.968755 
L 134.721867 58.90839 
L 135.026536 59.055277 
L 135.940541 59.929311 
L 136.245209 59.988236 
L 136.549877 59.841327 
L 137.463882 58.972874 
L 137.76855 58.915313 
L 138.073219 59.062387 
L 138.987224 59.926166 
L 139.291892 59.982431 
L 139.59656 59.835052 
L 140.510565 58.975063 
L 140.815233 58.920028 
L 141.119902 59.067855 
L 142.033907 59.924917 
L 142.338575 59.978784 
L 142.643243 59.830367 
L 143.557248 58.97538 
L 143.861916 58.922625 
L 144.166585 59.071774 
L 145.08059 59.925527 
L 145.385258 59.977226 
L 145.689926 59.8272 
L 146.603931 58.973843 
L 146.9086 58.923151 
L 147.213268 59.074201 
L 148.127273 59.927997 
L 148.431941 59.97773 
L 148.736609 59.825505 
L 149.650614 58.970433 
L 149.955283 58.921613 
L 150.259951 59.075167 
L 151.173956 59.932362 
L 151.478624 59.98031 
L 151.783292 59.825268 
L 152.697297 58.965094 
L 153.001966 58.917976 
L 153.306634 59.074672 
L 154.220639 59.938698 
L 154.525307 59.985023 
L 154.829975 59.826503 
L 155.74398 58.957731 
L 156.048649 58.912163 
L 156.353317 59.072687 
L 157.267322 59.947122 
L 157.57199 59.991968 
L 157.876658 59.829253 
L 158.790663 58.948204 
L 159.095332 58.904049 
L 159.4 59.069151 
L 160.314005 59.957799 
L 160.618673 60.001296 
L 160.923342 59.833597 
L 161.837346 58.936323 
L 162.142015 58.893456 
L 162.446683 59.063972 
L 163.360688 59.970948 
L 163.665356 60.013214 
L 163.970025 59.839646 
L 164.884029 58.921835 
L 165.188698 58.880144 
L 165.493366 59.057013 
L 166.407371 59.986857 
L 166.712039 60.027999 
L 167.016708 59.84756 
L 167.930713 58.904411 
L 168.235381 58.863795 
L 168.540049 59.048092 
L 169.454054 60.005901 
L 169.758722 60.046015 
L 170.063391 59.857548 
L 170.977396 58.883629 
L 171.282064 58.843994 
L 171.586732 59.036967 
L 172.500737 60.028559 
L 172.805405 60.067735 
L 173.110074 59.869891 
L 174.024079 58.858939 
L 174.328747 58.820201 
L 174.633415 59.023316 
L 175.54742 60.055457 
L 175.852088 60.093776 
L 176.156757 59.884954 
L 177.070762 58.829629 
L 177.37543 58.791711 
L 177.680098 59.006719 
L 178.594103 60.087411 
L 178.898771 60.124947 
L 179.20344 59.903223 
L 180.117445 58.794763 
L 180.422113 58.757593 
L 180.726781 58.98662 
L 181.640786 60.125499 
L 181.945455 60.16232 
L 182.250123 59.925339 
L 183.164128 58.753093 
L 183.468796 58.716606 
L 183.773464 58.962271 
L 184.687469 60.171173 
L 184.992138 60.20734 
L 185.296806 59.952171 
L 186.210811 58.702924 
L 186.515479 58.667062 
L 186.820147 58.932661 
L 187.734152 60.226419 
L 188.038821 60.261988 
L 188.343489 59.984908 
L 189.257494 58.641908 
L 189.562162 58.60662 
L 189.86683 58.896382 
L 190.780835 60.294032 
L 191.085504 60.32905 
L 191.390172 60.025223 
L 192.304177 58.566699 
L 192.608845 58.53194 
L 192.913514 58.851435 
L 193.827518 60.378054 
L 194.132187 60.412561 
L 194.436855 60.07553 
L 195.35086 58.472369 
L 195.655528 58.438106 
L 195.960197 58.794877 
L 196.874201 60.484553 
L 197.17887 60.518577 
L 197.483538 60.139443 
L 198.397543 58.351359 
L 198.702211 58.317571 
L 199.00688 58.722218 
L 199.920885 60.623063 
L 200.225553 60.656614 
L 200.530221 60.222616 
L 201.444226 58.191469 
L 201.748894 58.158161 
L 202.053563 58.626245 
L 202.967568 60.809455 
L 203.272236 60.84251 
L 203.576904 60.334397 
L 204.490909 57.971667 
L 204.795577 57.938886 
L 205.100246 58.494622 
L 206.014251 61.072214 
L 206.318919 61.104686 
L 206.623587 60.491406 
L 207.537592 57.652375 
L 207.84226 57.620266 
L 208.146929 58.304402 
L 209.060934 61.468023 
L 209.365602 61.499675 
L 209.67027 60.726242 
L 210.584275 57.149373 
L 210.888943 57.118332 
L 211.193612 58.007658 
L 212.107617 62.127851 
L 212.412285 62.158005 
L 212.716953 61.112391 
L 213.630958 56.246793 
L 213.935627 56.218052 
L 214.240295 57.485683 
L 215.1543 63.436067 
L 215.458968 63.462267 
L 215.763636 61.854764 
L 216.677641 54.181731 
L 216.98231 54.160954 
L 217.286978 56.353264 
L 218.200983 67.182739 
L 218.505651 67.188084 
L 218.810319 63.753507 
L 219.724324 45.240218 
L 220.028993 45.31852 
L 220.333661 53.187649 
L 220.638329 70.071266 
L 221.247666 126.589178 
L 222.161671 216.488734 
L 222.466339 233.372351 
L 222.771007 241.24148 
L 223.075676 241.319782 
L 223.380344 236.19996 
L 223.989681 222.806493 
L 224.294349 219.371916 
L 224.599017 219.377261 
L 224.903686 222.194592 
L 225.513022 230.206736 
L 225.81769 232.399046 
L 226.122359 232.378269 
L 226.427027 230.428012 
L 227.036364 224.705236 
L 227.341032 223.097733 
L 227.6457 223.123933 
L 227.950369 224.619384 
L 228.559705 229.074317 
L 228.864373 230.341948 
L 229.169042 230.313207 
L 229.47371 229.097643 
L 230.083047 225.447609 
L 230.387715 224.401995 
L 230.692383 224.432149 
L 230.997052 225.458274 
L 231.606388 228.552342 
L 231.911057 229.441668 
L 232.215725 229.410627 
L 232.520393 228.521111 
L 233.12973 225.833758 
L 233.434398 225.060325 
L 233.739066 225.091977 
L 234.043735 225.878423 
L 234.653071 228.255598 
L 234.95774 228.939734 
L 235.262408 228.907625 
L 235.567076 228.201627 
L 236.176413 226.068594 
L 236.481081 225.455314 
L 236.785749 225.487786 
L 237.090418 226.129318 
L 237.699754 228.065378 
L 238.004423 228.621114 
L 238.309091 228.588333 
L 238.613759 227.999555 
L 239.223096 226.225603 
L 239.527764 225.71749 
L 239.832432 225.750545 
L 240.137101 226.295408 
L 240.746437 227.933755 
L 241.051106 228.401839 
L 241.355774 228.368531 
L 241.660442 227.860745 
L 242.269779 226.337384 
L 242.574447 225.903386 
L 242.879115 225.936937 
L 243.183784 226.413045 
L 243.79312 227.837782 
L 244.097789 228.242429 
L 244.402457 228.208641 
L 244.707125 227.759872 
L 245.316462 226.420557 
L 245.62113 226.041423 
L 245.925799 226.075447 
L 246.230467 226.500419 
L 246.839803 227.765123 
L 247.144472 228.121894 
L 247.44914 228.087631 
L 247.753808 227.683528 
L 248.363145 226.48447 
L 248.667813 226.147439 
L 248.972482 226.181946 
L 249.27715 226.567632 
L 249.886486 227.708565 
L 250.191155 228.02806 
L 250.495823 227.993301 
L 250.800491 227.623959 
L 251.409828 226.534777 
L 251.714496 226.23095 
L 252.019165 226.265968 
L 252.323833 226.620737 
L 252.93317 227.663618 
L 253.237838 227.95338 
L 253.542506 227.918092 
L 253.847174 227.576372 
L 254.456511 226.575092 
L 254.761179 226.298012 
L 255.065848 226.333581 
L 255.370516 226.663577 
L 255.979853 227.627339 
L 256.284521 227.892938 
L 256.589189 227.857076 
L 257.198526 227.059994 
L 257.807862 226.35266 
L 258.112531 226.388827 
L 258.721867 227.160913 
L 259.331204 227.843394 
L 259.635872 227.806907 
L 260.245209 227.057501 
L 260.854545 226.39768 
L 261.159214 226.434501 
L 261.76855 227.163293 
L 262.377887 227.802407 
L 262.682555 227.765237 
L 263.291892 227.055206 
L 263.901229 226.435053 
L 264.205897 226.472589 
L 264.815233 227.165525 
L 265.42457 227.768289 
L 265.729238 227.730371 
L 266.338575 227.05302 
L 266.947912 226.466224 
L 267.25258 226.504543 
L 267.861916 227.167681 
L 268.471253 227.739799 
L 268.775921 227.701061 
L 269.385258 227.050878 
L 269.994595 226.492265 
L 270.299263 226.531441 
L 270.9086 227.169821 
L 271.517936 227.716006 
L 271.822604 227.676371 
L 272.431941 227.04873 
L 273.041278 226.513985 
L 273.345946 226.554099 
L 273.955283 227.171988 
L 274.564619 227.696205 
L 274.869287 227.655589 
L 275.478624 227.046536 
L 276.087961 226.532001 
L 276.392629 226.573143 
L 277.001966 227.174219 
L 277.611302 227.679856 
L 277.915971 227.638165 
L 278.525307 227.044259 
L 279.134644 226.546786 
L 279.439312 226.589052 
L 280.048649 227.176548 
L 280.657985 227.666544 
L 280.962654 227.623677 
L 281.57199 227.04187 
L 282.181327 226.558704 
L 282.485995 226.602201 
L 283.095332 227.179005 
L 283.704668 227.655951 
L 284.009337 227.611796 
L 284.618673 227.039337 
L 285.22801 226.568032 
L 285.532678 226.612878 
L 286.142015 227.181621 
L 286.751351 227.647837 
L 287.05602 227.602269 
L 287.665356 227.036631 
L 288.274693 226.574977 
L 288.579361 226.621302 
L 289.188698 227.184425 
L 289.798034 227.642024 
L 290.102703 227.594906 
L 290.712039 227.033721 
L 291.321376 226.57969 
L 291.626044 226.627638 
L 292.235381 227.18745 
L 292.844717 227.638387 
L 293.149386 227.589567 
L 293.758722 227.030573 
L 294.368059 226.58227 
L 294.672727 226.632003 
L 295.282064 227.190731 
L 295.8914 227.636849 
L 296.196069 227.586157 
L 296.805405 227.027149 
L 297.414742 226.582774 
L 297.71941 226.634473 
L 298.328747 227.194307 
L 298.938084 227.637375 
L 299.242752 227.58462 
L 299.852088 227.02341 
L 300.461425 226.581216 
L 300.766093 226.635083 
L 301.37543 227.198222 
L 301.984767 227.639972 
L 302.289435 227.584937 
L 302.898771 227.019306 
L 303.508108 226.577569 
L 303.812776 226.633834 
L 304.422113 227.202528 
L 305.03145 227.644687 
L 305.336118 227.587126 
L 305.945455 227.014782 
L 306.554791 226.571764 
L 306.859459 226.630689 
L 307.468796 227.207286 
L 308.078133 227.65161 
L 308.382801 227.591245 
L 308.992138 227.009773 
L 309.601474 226.563687 
L 309.906143 226.625572 
L 310.515479 227.212566 
L 311.124816 227.660881 
L 311.429484 227.597391 
L 312.038821 227.0042 
L 312.648157 226.553173 
L 312.952826 226.618362 
L 314.171499 227.672694 
L 314.476167 227.605706 
L 315.69484 226.539998 
L 315.999509 226.608891 
L 317.218182 227.687307 
L 317.52285 227.61639 
L 318.741523 226.523862 
L 319.046192 226.596929 
L 320.264865 227.70506 
L 320.569533 227.629706 
L 321.788206 226.504381 
L 322.092875 226.582173 
L 323.311548 227.726395 
L 323.616216 227.646001 
L 324.834889 226.481051 
L 325.139558 226.564226 
L 326.358231 227.751882 
L 326.662899 227.665729 
L 327.881572 226.453221 
L 328.186241 226.54257 
L 329.404914 227.782269 
L 329.709582 227.689484 
L 330.928256 226.420035 
L 331.232924 226.516521 
L 332.451597 227.818535 
L 332.756265 227.718051 
L 333.974939 226.380362 
L 334.279607 226.485176 
L 335.49828 227.861992 
L 335.802948 227.752478 
L 337.021622 226.332681 
L 337.32629 226.447313 
L 338.544963 227.914416 
L 338.849631 227.794192 
L 340.068305 226.274903 
L 340.372973 226.401258 
L 341.591646 227.978273 
L 341.896314 227.845171 
L 343.114988 226.204096 
L 343.419656 226.344656 
L 344.638329 228.057079 
L 344.942998 227.908237 
L 346.161671 226.116012 
L 346.466339 226.274101 
L 347.685012 228.156012 
L 347.989681 227.987543 
L 349.208354 226.004275 
L 349.513022 226.184477 
L 350.731695 228.283015 
L 351.036364 228.089456 
L 352.255037 225.858865 
L 352.559705 226.067759 
L 353.778378 228.450908 
L 354.083047 228.224241 
L 355.30172 225.663105 
L 355.606388 225.910604 
L 356.825061 228.681796 
L 357.12973 228.409562 
L 358.348403 225.387056 
L 358.653071 225.689117 
L 359.871744 229.017276 
L 360.176413 228.67857 
L 361.395086 224.971141 
L 361.699754 225.35591 
L 362.918428 229.545873 
L 363.223096 229.101502 
L 363.832432 226.21636 
L 364.137101 224.841539 
L 364.441769 224.277679 
L 364.746437 224.802116 
L 365.355774 228.200997 
L 365.660442 229.828186 
L 365.965111 230.494564 
L 366.269779 229.856974 
L 366.879115 225.718646 
L 367.183784 223.7212 
L 367.488452 222.902378 
L 367.79312 223.711889 
L 368.402457 229.004726 
L 368.707125 231.597324 
L 369.011794 232.666353 
L 369.316462 231.564615 
L 369.925799 224.218261 
L 370.230467 220.512786 
L 370.535135 218.95809 
L 370.839803 220.66594 
L 371.144472 225.673393 
L 371.753808 239.214355 
L 372.058477 242.116364 
L 372.363145 238.396857 
L 372.667813 226.064556 
L 373.27715 176.116609 
L 373.581818 143.28 
L 373.581818 143.28 
" style="fill:none;stroke:#1f77b4;stroke-linecap:square;stroke-width:1.5;"/>
   </g>
   <g id="patch_3">
    <path d="M 54 252 
L 54 34.56 
" style="fill:none;stroke:#000000;stroke-linecap:square;stroke-linejoin:miter;stroke-width:0.8;"/>
   </g>
   <g id="patch_4">
    <path d="M 388.8 252 
L 388.8 34.56 
" style="fill:none;stroke:#000000;stroke-linecap:square;stroke-linejoin:miter;stroke-width:0.8;"/>
   </g>
   <g id="patch_5">
    <path d="M 54 252 
L 388.8 252 
" style="fill:none;stroke:#000000;stroke-linecap:square;stroke-linejoin:miter;stroke-width:0.8;"/>
   </g>
   <g id="patch_6">
    <path d="M 54 34.56 
L 388.8 34.56 
" style="fill:none;stroke:#000000;stroke-linecap:square;stroke-linejoin:miter;stroke-width:0.8;"/>
   </g>
  </g>
 </g>
 <defs>
  <clipPath id="p6df262c134">
   <rect height="217.44" width="334.8" x="54" y="34.56"/>
  </clipPath>
 </defs>
</svg>
