<?xml version="1.0" encoding="utf-8" standalone="no"?>
<!DOCTYPE svg PUBLIC "-//W3C//DTD SVG 1.1//EN"
  "http://www.w3.org/Graphics/SVG/1.1/DTD/svg11.dtd">
<!-- Created with matplotlib (http://matplotlib.org/) -->
<svg height="288pt" version="1.1" viewBox="0 0 432 288" width="432pt" xmlns="http://www.w3.org/2000/svg" xmlns:xlink="http://www.w3.org/1999/xlink">
 <defs>
  <style type="text/css">
*{stroke-linecap:butt;stroke-linejoin:round;}
  </style>
 </defs>
 <g id="figure_1">
  <g id="patch_1">
   <path d="M 0 288 
L 432 288 
L 432 0 
L 0 0 
z
" style="fill:#ffffff;"/>
  </g>
  <g id="axes_1">
   <g id="patch_2">
    <path d="M 54 252 
L 388.8 252 
L 388.8 34.56 
L 54 34.56 
z
" style="fill:#ffffff;"/>
   </g>
   <g id="matplotlib.axis_1">
    <g id="xtick_1">
     <g id="line2d_1">
      <defs>
       <path d="M 0 0 
L 0 3.5 
" id="m9e2482fd16" style="stroke:#000000;stroke-width:0.8;"/>
      </defs>
      <g>
       <use style="stroke:#000000;stroke-width:0.8;" x="69.218182" xlink:href="#m9e2482fd16" y="252"/>
      </g>
     </g>
     <g id="text_1">
      <!-- 0.0 -->
      <defs>
       <path d="M 31.78125 66.40625 
Q 24.171875 66.40625 20.328125 58.90625 
Q 16.5 51.421875 16.5 36.375 
Q 16.5 21.390625 20.328125 13.890625 
Q 24.171875 6.390625 31.78125 6.390625 
Q 39.453125 6.390625 43.28125 13.890625 
Q 47.125 21.390625 47.125 36.375 
Q 47.125 51.421875 43.28125 58.90625 
Q 39.453125 66.40625 31.78125 66.40625 
z
M 31.78125 74.21875 
Q 44.046875 74.21875 50.515625 64.515625 
Q 56.984375 54.828125 56.984375 36.375 
Q 56.984375 17.96875 50.515625 8.265625 
Q 44.046875 -1.421875 31.78125 -1.421875 
Q 19.53125 -1.421875 13.0625 8.265625 
Q 6.59375 17.96875 6.59375 36.375 
Q 6.59375 54.828125 13.0625 64.515625 
Q 19.53125 74.21875 31.78125 74.21875 
z
" id="DejaVuSans-30"/>
       <path d="M 10.6875 12.40625 
L 21 12.40625 
L 21 0 
L 10.6875 0 
z
" id="DejaVuSans-2e"/>
      </defs>
      <g transform="translate(61.266619 266.598437)scale(0.1 -0.1)">
       <use xlink:href="#DejaVuSans-30"/>
       <use x="63.623047" xlink:href="#DejaVuSans-2e"/>
       <use x="95.410156" xlink:href="#DejaVuSans-30"/>
      </g>
     </g>
    </g>
    <g id="xtick_2">
     <g id="line2d_2">
      <g>
       <use style="stroke:#000000;stroke-width:0.8;" x="130.090909" xlink:href="#m9e2482fd16" y="252"/>
      </g>
     </g>
     <g id="text_2">
      <!-- 0.2 -->
      <defs>
       <path d="M 19.1875 8.296875 
L 53.609375 8.296875 
L 53.609375 0 
L 7.328125 0 
L 7.328125 8.296875 
Q 12.9375 14.109375 22.625 23.890625 
Q 32.328125 33.6875 34.8125 36.53125 
Q 39.546875 41.84375 41.421875 45.53125 
Q 43.3125 49.21875 43.3125 52.78125 
Q 43.3125 58.59375 39.234375 62.25 
Q 35.15625 65.921875 28.609375 65.921875 
Q 23.96875 65.921875 18.8125 64.3125 
Q 13.671875 62.703125 7.8125 59.421875 
L 7.8125 69.390625 
Q 13.765625 71.78125 18.9375 73 
Q 24.125 74.21875 28.421875 74.21875 
Q 39.75 74.21875 46.484375 68.546875 
Q 53.21875 62.890625 53.21875 53.421875 
Q 53.21875 48.921875 51.53125 44.890625 
Q 49.859375 40.875 45.40625 35.40625 
Q 44.1875 33.984375 37.640625 27.21875 
Q 31.109375 20.453125 19.1875 8.296875 
z
" id="DejaVuSans-32"/>
      </defs>
      <g transform="translate(122.139347 266.598437)scale(0.1 -0.1)">
       <use xlink:href="#DejaVuSans-30"/>
       <use x="63.623047" xlink:href="#DejaVuSans-2e"/>
       <use x="95.410156" xlink:href="#DejaVuSans-32"/>
      </g>
     </g>
    </g>
    <g id="xtick_3">
     <g id="line2d_3">
      <g>
       <use style="stroke:#000000;stroke-width:0.8;" x="190.963636" xlink:href="#m9e2482fd16" y="252"/>
      </g>
     </g>
     <g id="text_3">
      <!-- 0.4 -->
      <defs>
       <path d="M 37.796875 64.3125 
L 12.890625 25.390625 
L 37.796875 25.390625 
z
M 35.203125 72.90625 
L 47.609375 72.90625 
L 47.609375 25.390625 
L 58.015625 25.390625 
L 58.015625 17.1875 
L 47.609375 17.1875 
L 47.609375 0 
L 37.796875 0 
L 37.796875 17.1875 
L 4.890625 17.1875 
L 4.890625 26.703125 
z
" id="DejaVuSans-34"/>
      </defs>
      <g transform="translate(183.012074 266.598437)scale(0.1 -0.1)">
       <use xlink:href="#DejaVuSans-30"/>
       <use x="63.623047" xlink:href="#DejaVuSans-2e"/>
       <use x="95.410156" xlink:href="#DejaVuSans-34"/>
      </g>
     </g>
    </g>
    <g id="xtick_4">
     <g id="line2d_4">
      <g>
       <use style="stroke:#000000;stroke-width:0.8;" x="251.836364" xlink:href="#m9e2482fd16" y="252"/>
      </g>
     </g>
     <g id="text_4">
      <!-- 0.6 -->
      <defs>
       <path d="M 33.015625 40.375 
Q 26.375 40.375 22.484375 35.828125 
Q 18.609375 31.296875 18.609375 23.390625 
Q 18.609375 15.53125 22.484375 10.953125 
Q 26.375 6.390625 33.015625 6.390625 
Q 39.65625 6.390625 43.53125 10.953125 
Q 47.40625 15.53125 47.40625 23.390625 
Q 47.40625 31.296875 43.53125 35.828125 
Q 39.65625 40.375 33.015625 40.375 
z
M 52.59375 71.296875 
L 52.59375 62.3125 
Q 48.875 64.0625 45.09375 64.984375 
Q 41.3125 65.921875 37.59375 65.921875 
Q 27.828125 65.921875 22.671875 59.328125 
Q 17.53125 52.734375 16.796875 39.40625 
Q 19.671875 43.65625 24.015625 45.921875 
Q 28.375 48.1875 33.59375 48.1875 
Q 44.578125 48.1875 50.953125 41.515625 
Q 57.328125 34.859375 57.328125 23.390625 
Q 57.328125 12.15625 50.6875 5.359375 
Q 44.046875 -1.421875 33.015625 -1.421875 
Q 20.359375 -1.421875 13.671875 8.265625 
Q 6.984375 17.96875 6.984375 36.375 
Q 6.984375 53.65625 15.1875 63.9375 
Q 23.390625 74.21875 37.203125 74.21875 
Q 40.921875 74.21875 44.703125 73.484375 
Q 48.484375 72.75 52.59375 71.296875 
z
" id="DejaVuSans-36"/>
      </defs>
      <g transform="translate(243.884801 266.598437)scale(0.1 -0.1)">
       <use xlink:href="#DejaVuSans-30"/>
       <use x="63.623047" xlink:href="#DejaVuSans-2e"/>
       <use x="95.410156" xlink:href="#DejaVuSans-36"/>
      </g>
     </g>
    </g>
    <g id="xtick_5">
     <g id="line2d_5">
      <g>
       <use style="stroke:#000000;stroke-width:0.8;" x="312.709091" xlink:href="#m9e2482fd16" y="252"/>
      </g>
     </g>
     <g id="text_5">
      <!-- 0.8 -->
      <defs>
       <path d="M 31.78125 34.625 
Q 24.75 34.625 20.71875 30.859375 
Q 16.703125 27.09375 16.703125 20.515625 
Q 16.703125 13.921875 20.71875 10.15625 
Q 24.75 6.390625 31.78125 6.390625 
Q 38.8125 6.390625 42.859375 10.171875 
Q 46.921875 13.96875 46.921875 20.515625 
Q 46.921875 27.09375 42.890625 30.859375 
Q 38.875 34.625 31.78125 34.625 
z
M 21.921875 38.8125 
Q 15.578125 40.375 12.03125 44.71875 
Q 8.5 49.078125 8.5 55.328125 
Q 8.5 64.0625 14.71875 69.140625 
Q 20.953125 74.21875 31.78125 74.21875 
Q 42.671875 74.21875 48.875 69.140625 
Q 55.078125 64.0625 55.078125 55.328125 
Q 55.078125 49.078125 51.53125 44.71875 
Q 48 40.375 41.703125 38.8125 
Q 48.828125 37.15625 52.796875 32.3125 
Q 56.78125 27.484375 56.78125 20.515625 
Q 56.78125 9.90625 50.3125 4.234375 
Q 43.84375 -1.421875 31.78125 -1.421875 
Q 19.734375 -1.421875 13.25 4.234375 
Q 6.78125 9.90625 6.78125 20.515625 
Q 6.78125 27.484375 10.78125 32.3125 
Q 14.796875 37.15625 21.921875 38.8125 
z
M 18.3125 54.390625 
Q 18.3125 48.734375 21.84375 45.5625 
Q 25.390625 42.390625 31.78125 42.390625 
Q 38.140625 42.390625 41.71875 45.5625 
Q 45.3125 48.734375 45.3125 54.390625 
Q 45.3125 60.0625 41.71875 63.234375 
Q 38.140625 66.40625 31.78125 66.40625 
Q 25.390625 66.40625 21.84375 63.234375 
Q 18.3125 60.0625 18.3125 54.390625 
z
" id="DejaVuSans-38"/>
      </defs>
      <g transform="translate(304.757528 266.598437)scale(0.1 -0.1)">
       <use xlink:href="#DejaVuSans-30"/>
       <use x="63.623047" xlink:href="#DejaVuSans-2e"/>
       <use x="95.410156" xlink:href="#DejaVuSans-38"/>
      </g>
     </g>
    </g>
    <g id="xtick_6">
     <g id="line2d_6">
      <g>
       <use style="stroke:#000000;stroke-width:0.8;" x="373.581818" xlink:href="#m9e2482fd16" y="252"/>
      </g>
     </g>
     <g id="text_6">
      <!-- 1.0 -->
      <defs>
       <path d="M 12.40625 8.296875 
L 28.515625 8.296875 
L 28.515625 63.921875 
L 10.984375 60.40625 
L 10.984375 69.390625 
L 28.421875 72.90625 
L 38.28125 72.90625 
L 38.28125 8.296875 
L 54.390625 8.296875 
L 54.390625 0 
L 12.40625 0 
z
" id="DejaVuSans-31"/>
      </defs>
      <g transform="translate(365.630256 266.598437)scale(0.1 -0.1)">
       <use xlink:href="#DejaVuSans-31"/>
       <use x="63.623047" xlink:href="#DejaVuSans-2e"/>
       <use x="95.410156" xlink:href="#DejaVuSans-30"/>
      </g>
     </g>
    </g>
   </g>
   <g id="matplotlib.axis_2">
    <g id="ytick_1">
     <g id="line2d_7">
      <defs>
       <path d="M 0 0 
L -3.5 0 
" id="m7586cb6964" style="stroke:#000000;stroke-width:0.8;"/>
      </defs>
      <g>
       <use style="stroke:#000000;stroke-width:0.8;" x="54" xlink:href="#m7586cb6964" y="227.052905"/>
      </g>
     </g>
     <g id="text_7">
      <!-- −1.0 -->
      <defs>
       <path d="M 10.59375 35.5 
L 73.1875 35.5 
L 73.1875 27.203125 
L 10.59375 27.203125 
z
" id="DejaVuSans-2212"/>
      </defs>
      <g transform="translate(22.717187 230.852124)scale(0.1 -0.1)">
       <use xlink:href="#DejaVuSans-2212"/>
       <use x="83.789062" xlink:href="#DejaVuSans-31"/>
       <use x="147.412109" xlink:href="#DejaVuSans-2e"/>
       <use x="179.199219" xlink:href="#DejaVuSans-30"/>
      </g>
     </g>
    </g>
    <g id="ytick_2">
     <g id="line2d_8">
      <g>
       <use style="stroke:#000000;stroke-width:0.8;" x="54" xlink:href="#m7586cb6964" y="185.166453"/>
      </g>
     </g>
     <g id="text_8">
      <!-- −0.5 -->
      <defs>
       <path d="M 10.796875 72.90625 
L 49.515625 72.90625 
L 49.515625 64.59375 
L 19.828125 64.59375 
L 19.828125 46.734375 
Q 21.96875 47.46875 24.109375 47.828125 
Q 26.265625 48.1875 28.421875 48.1875 
Q 40.625 48.1875 47.75 41.5 
Q 54.890625 34.8125 54.890625 23.390625 
Q 54.890625 11.625 47.5625 5.09375 
Q 40.234375 -1.421875 26.90625 -1.421875 
Q 22.3125 -1.421875 17.546875 -0.640625 
Q 12.796875 0.140625 7.71875 1.703125 
L 7.71875 11.625 
Q 12.109375 9.234375 16.796875 8.0625 
Q 21.484375 6.890625 26.703125 6.890625 
Q 35.15625 6.890625 40.078125 11.328125 
Q 45.015625 15.765625 45.015625 23.390625 
Q 45.015625 31 40.078125 35.4375 
Q 35.15625 39.890625 26.703125 39.890625 
Q 22.75 39.890625 18.8125 39.015625 
Q 14.890625 38.140625 10.796875 36.28125 
z
" id="DejaVuSans-35"/>
      </defs>
      <g transform="translate(22.717187 188.965671)scale(0.1 -0.1)">
       <use xlink:href="#DejaVuSans-2212"/>
       <use x="83.789062" xlink:href="#DejaVuSans-30"/>
       <use x="147.412109" xlink:href="#DejaVuSans-2e"/>
       <use x="179.199219" xlink:href="#DejaVuSans-35"/>
      </g>
     </g>
    </g>
    <g id="ytick_3">
     <g id="line2d_9">
      <g>
       <use style="stroke:#000000;stroke-width:0.8;" x="54" xlink:href="#m7586cb6964" y="143.28"/>
      </g>
     </g>
     <g id="text_9">
      <!-- 0.0 -->
      <g transform="translate(31.096875 147.079219)scale(0.1 -0.1)">
       <use xlink:href="#DejaVuSans-30"/>
       <use x="63.623047" xlink:href="#DejaVuSans-2e"/>
       <use x="95.410156" xlink:href="#DejaVuSans-30"/>
      </g>
     </g>
    </g>
    <g id="ytick_4">
     <g id="line2d_10">
      <g>
       <use style="stroke:#000000;stroke-width:0.8;" x="54" xlink:href="#m7586cb6964" y="101.393547"/>
      </g>
     </g>
     <g id="text_10">
      <!-- 0.5 -->
      <g transform="translate(31.096875 105.192766)scale(0.1 -0.1)">
       <use xlink:href="#DejaVuSans-30"/>
       <use x="63.623047" xlink:href="#DejaVuSans-2e"/>
       <use x="95.410156" xlink:href="#DejaVuSans-35"/>
      </g>
     </g>
    </g>
    <g id="ytick_5">
     <g id="line2d_11">
      <g>
       <use style="stroke:#000000;stroke-width:0.8;" x="54" xlink:href="#m7586cb6964" y="59.507095"/>
      </g>
     </g>
     <g id="text_11">
      <!-- 1.0 -->
      <g transform="translate(31.096875 63.306314)scale(0.1 -0.1)">
       <use xlink:href="#DejaVuSans-31"/>
       <use x="63.623047" xlink:href="#DejaVuSans-2e"/>
       <use x="95.410156" xlink:href="#DejaVuSans-30"/>
      </g>
     </g>
    </g>
   </g>
   <g id="line2d_12">
    <path clip-path="url(#p13e75b9d61)" d="M 69.218182 143.28 
L 71.35086 98.291837 
L 72.569533 76.882621 
L 73.483538 64.084311 
L 74.397543 54.483023 
L 75.00688 49.914544 
L 75.616216 46.77903 
L 76.225553 44.995958 
L 76.530221 44.574996 
L 76.834889 44.443636 
L 77.139558 44.581319 
L 77.444226 44.965809 
L 78.053563 46.379532 
L 78.662899 48.483944 
L 79.881572 53.927196 
L 81.709582 62.231666 
L 82.623587 65.289766 
L 83.232924 66.689041 
L 83.84226 67.52387 
L 84.146929 67.726555 
L 84.451597 67.78869 
L 84.756265 67.714705 
L 85.365602 67.185068 
L 85.974939 66.20677 
L 86.888943 64.099613 
L 90.240295 55.385222 
L 90.849631 54.472859 
L 91.458968 53.921993 
L 92.068305 53.748129 
L 92.677641 53.943492 
L 93.286978 54.478594 
L 93.896314 55.304958 
L 94.810319 56.948035 
L 97.552334 62.32194 
L 98.466339 63.445485 
L 99.075676 63.862537 
L 99.685012 63.992566 
L 100.294349 63.837434 
L 100.903686 63.416289 
L 101.81769 62.365385 
L 103.036364 60.456842 
L 104.864373 57.525377 
L 105.778378 56.464621 
L 106.387715 56.009989 
L 106.997052 55.785968 
L 107.606388 55.800585 
L 108.215725 56.047012 
L 108.825061 56.50435 
L 109.739066 57.509979 
L 111.567076 60.074757 
L 112.785749 61.612196 
L 113.699754 62.403156 
L 114.309091 62.697376 
L 114.918428 62.786142 
L 115.527764 62.667694 
L 116.137101 62.353102 
L 117.051106 61.566623 
L 118.269779 60.12631 
L 120.097789 57.885087 
L 121.011794 57.065621 
L 121.925799 56.604274 
L 122.535135 56.526174 
L 123.144472 56.636252 
L 123.753808 56.925283 
L 124.667813 57.647474 
L 125.886486 58.97301 
L 127.714496 61.04392 
L 128.628501 61.803446 
L 129.542506 62.230804 
L 130.151843 62.301659 
L 130.761179 62.19618 
L 131.675184 61.727708 
L 132.589189 60.952562 
L 134.417199 58.954147 
L 135.635872 57.741307 
L 136.549877 57.113777 
L 137.159214 56.881374 
L 137.76855 56.815357 
L 138.377887 56.919181 
L 139.291892 57.374933 
L 140.205897 58.12869 
L 142.033907 60.076425 
L 143.25258 61.261848 
L 144.166585 61.875833 
L 145.08059 62.155226 
L 145.689926 62.134188 
L 146.299263 61.947314 
L 147.213268 61.384282 
L 148.431941 60.239252 
L 150.869287 57.720428 
L 151.783292 57.104595 
L 152.392629 56.877515 
L 153.001966 56.815892 
L 153.611302 56.924244 
L 154.525307 57.389287 
L 155.439312 58.157635 
L 157.267322 60.151854 
L 158.485995 61.372319 
L 159.4 62.005762 
L 160.009337 62.238829 
L 160.618673 62.300549 
L 161.22801 62.185646 
L 161.837346 61.899876 
L 162.751351 61.189721 
L 163.970025 59.877065 
L 166.102703 57.506491 
L 167.016708 56.837177 
L 167.626044 56.5914 
L 168.235381 56.527952 
L 168.844717 56.653171 
L 169.454054 56.961626 
L 170.368059 57.727693 
L 171.586732 59.146576 
L 173.71941 61.720078 
L 174.633415 62.449071 
L 175.242752 62.71634 
L 175.852088 62.783531 
L 176.461425 62.642726 
L 177.070762 62.298946 
L 177.984767 61.445141 
L 179.20344 59.859184 
L 181.336118 56.966098 
L 182.250123 56.14268 
L 182.859459 55.841045 
L 183.468796 55.767265 
L 184.078133 55.931794 
L 184.687469 56.330343 
L 185.601474 57.321202 
L 186.820147 59.169805 
L 188.952826 62.569953 
L 189.86683 63.54486 
L 190.476167 63.902186 
L 191.085504 63.98717 
L 191.69484 63.78486 
L 192.304177 63.297872 
L 192.913514 62.546853 
L 193.827518 61.012863 
L 197.17887 54.66014 
L 197.788206 54.047012 
L 198.397543 53.763153 
L 199.00688 53.843097 
L 199.616216 54.300242 
L 200.225553 55.124979 
L 201.139558 56.972386 
L 202.358231 60.227054 
L 204.186241 65.232259 
L 205.100246 66.979346 
L 205.709582 67.628554 
L 206.014251 67.768363 
L 206.318919 67.774959 
L 206.623587 67.642983 
L 207.232924 66.951473 
L 207.84226 65.690884 
L 208.451597 63.893097 
L 209.365602 60.34719 
L 212.412285 46.848992 
L 213.021622 45.243267 
L 213.32629 44.744161 
L 213.630958 44.480201 
L 213.935627 44.474359 
L 214.240295 44.748064 
L 214.544963 45.320943 
L 215.1543 47.432224 
L 215.763636 50.920161 
L 216.372973 55.854138 
L 217.286978 66.001576 
L 218.200983 79.305898 
L 219.419656 101.258098 
L 221.247666 139.926465 
L 223.685012 191.177302 
L 224.903686 212.020876 
L 225.81769 224.303576 
L 226.731695 233.356142 
L 227.341032 237.561286 
L 227.950369 240.349433 
L 228.559705 241.811936 
L 228.864373 242.085641 
L 229.169042 242.079799 
L 229.47371 241.815839 
L 230.083047 240.606717 
L 230.692383 238.655512 
L 231.606388 234.793573 
L 234.043735 223.747455 
L 234.95774 220.869116 
L 235.567076 219.608527 
L 236.176413 218.917017 
L 236.481081 218.785041 
L 236.785749 218.791637 
L 237.090418 218.931446 
L 237.699754 219.580654 
L 238.309091 220.657712 
L 239.223096 222.865034 
L 241.965111 230.275899 
L 242.879115 231.891814 
L 243.488452 232.535433 
L 244.097789 232.803711 
L 244.707125 232.6987 
L 245.316462 232.244674 
L 245.925799 231.485673 
L 246.839803 229.910742 
L 249.886486 224.013147 
L 250.495823 223.262128 
L 251.10516 222.77514 
L 251.714496 222.57283 
L 252.323833 222.657814 
L 252.93317 223.01514 
L 253.542506 223.61377 
L 254.456511 224.863304 
L 257.503194 229.616229 
L 258.417199 230.457331 
L 259.026536 230.740342 
L 259.635872 230.785318 
L 260.245209 230.595412 
L 260.854545 230.188126 
L 261.76855 229.23922 
L 263.291892 227.138732 
L 264.815233 225.114859 
L 265.729238 224.261054 
L 266.338575 223.917274 
L 266.947912 223.776469 
L 267.557248 223.84366 
L 268.166585 224.110929 
L 269.08059 224.839922 
L 270.299263 226.239735 
L 272.431941 228.832307 
L 273.345946 229.598374 
L 273.955283 229.906829 
L 274.564619 230.032048 
L 275.173956 229.9686 
L 275.783292 229.722823 
L 276.697297 229.053509 
L 277.915971 227.765733 
L 280.048649 225.370279 
L 280.962654 224.660124 
L 281.876658 224.294926 
L 282.485995 224.268306 
L 283.095332 224.41704 
L 284.009337 224.942752 
L 284.923342 225.759095 
L 288.274693 229.170713 
L 289.188698 229.635756 
L 289.798034 229.744108 
L 290.407371 229.682485 
L 291.016708 229.455405 
L 291.930713 228.839572 
L 293.149386 227.651742 
L 295.282064 225.427576 
L 296.196069 224.76505 
L 297.110074 224.425812 
L 297.71941 224.404774 
L 298.328747 224.550886 
L 299.242752 225.060755 
L 300.156757 225.852574 
L 303.508108 229.185067 
L 304.422113 229.640819 
L 305.03145 229.744643 
L 305.640786 229.678626 
L 306.250123 229.446223 
L 307.164128 228.818693 
L 308.382801 227.605853 
L 310.515479 225.321156 
L 311.429484 224.637635 
L 312.343489 224.289285 
L 312.952826 224.271654 
L 313.562162 224.430244 
L 314.476167 224.977024 
L 315.390172 225.826451 
L 318.741523 229.429015 
L 319.655528 229.923748 
L 320.264865 230.033826 
L 320.874201 229.955726 
L 321.483538 229.691928 
L 322.397543 228.982091 
L 323.616216 227.605954 
L 325.748894 224.993377 
L 326.662899 224.206898 
L 327.272236 223.892306 
L 327.881572 223.773858 
L 328.490909 223.862624 
L 329.100246 224.156844 
L 330.014251 224.947804 
L 331.232924 226.485243 
L 333.365602 229.420767 
L 334.279607 230.308865 
L 334.888943 230.664186 
L 335.49828 230.79647 
L 336.107617 230.691701 
L 336.716953 230.350437 
L 337.32629 229.788143 
L 338.240295 228.599042 
L 339.763636 226.103158 
L 340.98231 224.194615 
L 341.896314 223.143711 
L 342.505651 222.722566 
L 343.114988 222.567434 
L 343.724324 222.697463 
L 344.333661 223.114515 
L 344.942998 223.802435 
L 345.857002 225.263716 
L 347.380344 228.358873 
L 348.599017 230.752082 
L 349.513022 232.081406 
L 350.122359 232.616508 
L 350.731695 232.811871 
L 351.341032 232.638007 
L 351.950369 232.087141 
L 352.559705 231.174778 
L 353.47371 229.220023 
L 354.692383 225.89363 
L 356.215725 221.689986 
L 357.12973 219.813213 
L 357.739066 219.049146 
L 358.348403 218.77131 
L 358.653071 218.833445 
L 358.95774 219.03613 
L 359.567076 219.870959 
L 360.176413 221.270234 
L 360.785749 223.193129 
L 361.699754 226.881774 
L 364.441769 239.201595 
L 365.051106 240.986532 
L 365.660442 241.978681 
L 365.965111 242.116364 
L 366.269779 241.985004 
L 366.574447 241.564042 
L 366.879115 240.83485 
L 367.488452 238.388332 
L 368.097789 234.543613 
L 368.707125 229.242734 
L 369.62113 218.552899 
L 370.535135 204.753299 
L 371.753808 182.28202 
L 373.581818 143.28 
L 373.581818 143.28 
" style="fill:none;stroke:#1f77b4;stroke-linecap:square;stroke-width:1.5;"/>
   </g>
   <g id="patch_3">
    <path d="M 54 252 
L 54 34.56 
" style="fill:none;stroke:#000000;stroke-linecap:square;stroke-linejoin:miter;stroke-width:0.8;"/>
   </g>
   <g id="patch_4">
    <path d="M 388.8 252 
L 388.8 34.56 
" style="fill:none;stroke:#000000;stroke-linecap:square;stroke-linejoin:miter;stroke-width:0.8;"/>
   </g>
   <g id="patch_5">
    <path d="M 54 252 
L 388.8 252 
" style="fill:none;stroke:#000000;stroke-linecap:square;stroke-linejoin:miter;stroke-width:0.8;"/>
   </g>
   <g id="patch_6">
    <path d="M 54 34.56 
L 388.8 34.56 
" style="fill:none;stroke:#000000;stroke-linecap:square;stroke-linejoin:miter;stroke-width:0.8;"/>
   </g>
  </g>
 </g>
 <defs>
  <clipPath id="p13e75b9d61">
   <rect height="217.44" width="334.8" x="54" y="34.56"/>
  </clipPath>
 </defs>
</svg>
