<?xml version="1.0" encoding="utf-8" standalone="no"?>
<!DOCTYPE svg PUBLIC "-//W3C//DTD SVG 1.1//EN"
  "http://www.w3.org/Graphics/SVG/1.1/DTD/svg11.dtd">
<!-- Created with matplotlib (http://matplotlib.org/) -->
<svg height="288pt" version="1.1" viewBox="0 0 432 288" width="432pt" xmlns="http://www.w3.org/2000/svg" xmlns:xlink="http://www.w3.org/1999/xlink">
 <defs>
  <style type="text/css">
*{stroke-linecap:butt;stroke-linejoin:round;}
  </style>
 </defs>
 <g id="figure_1">
  <g id="patch_1">
   <path d="M 0 288 
L 432 288 
L 432 0 
L 0 0 
z
" style="fill:#ffffff;"/>
  </g>
  <g id="axes_1">
   <g id="patch_2">
    <path d="M 54 252 
L 388.8 252 
L 388.8 34.56 
L 54 34.56 
z
" style="fill:#ffffff;"/>
   </g>
   <g id="matplotlib.axis_1">
    <g id="xtick_1">
     <g id="line2d_1">
      <defs>
       <path d="M 0 0 
L 0 3.5 
" id="m0c018a9d36" style="stroke:#000000;stroke-width:0.8;"/>
      </defs>
      <g>
       <use style="stroke:#000000;stroke-width:0.8;" x="69.218182" xlink:href="#m0c018a9d36" y="252"/>
      </g>
     </g>
     <g id="text_1">
      <!-- 0 -->
      <defs>
       <path d="M 31.78125 66.40625 
Q 24.171875 66.40625 20.328125 58.90625 
Q 16.5 51.421875 16.5 36.375 
Q 16.5 21.390625 20.328125 13.890625 
Q 24.171875 6.390625 31.78125 6.390625 
Q 39.453125 6.390625 43.28125 13.890625 
Q 47.125 21.390625 47.125 36.375 
Q 47.125 51.421875 43.28125 58.90625 
Q 39.453125 66.40625 31.78125 66.40625 
z
M 31.78125 74.21875 
Q 44.046875 74.21875 50.515625 64.515625 
Q 56.984375 54.828125 56.984375 36.375 
Q 56.984375 17.96875 50.515625 8.265625 
Q 44.046875 -1.421875 31.78125 -1.421875 
Q 19.53125 -1.421875 13.0625 8.265625 
Q 6.59375 17.96875 6.59375 36.375 
Q 6.59375 54.828125 13.0625 64.515625 
Q 19.53125 74.21875 31.78125 74.21875 
z
" id="DejaVuSans-30"/>
      </defs>
      <g transform="translate(66.036932 266.598437)scale(0.1 -0.1)">
       <use xlink:href="#DejaVuSans-30"/>
      </g>
     </g>
    </g>
    <g id="xtick_2">
     <g id="line2d_2">
      <g>
       <use style="stroke:#000000;stroke-width:0.8;" x="130.090909" xlink:href="#m0c018a9d36" y="252"/>
      </g>
     </g>
     <g id="text_2">
      <!-- 1 -->
      <defs>
       <path d="M 12.40625 8.296875 
L 28.515625 8.296875 
L 28.515625 63.921875 
L 10.984375 60.40625 
L 10.984375 69.390625 
L 28.421875 72.90625 
L 38.28125 72.90625 
L 38.28125 8.296875 
L 54.390625 8.296875 
L 54.390625 0 
L 12.40625 0 
z
" id="DejaVuSans-31"/>
      </defs>
      <g transform="translate(126.909659 266.598437)scale(0.1 -0.1)">
       <use xlink:href="#DejaVuSans-31"/>
      </g>
     </g>
    </g>
    <g id="xtick_3">
     <g id="line2d_3">
      <g>
       <use style="stroke:#000000;stroke-width:0.8;" x="190.963636" xlink:href="#m0c018a9d36" y="252"/>
      </g>
     </g>
     <g id="text_3">
      <!-- 2 -->
      <defs>
       <path d="M 19.1875 8.296875 
L 53.609375 8.296875 
L 53.609375 0 
L 7.328125 0 
L 7.328125 8.296875 
Q 12.9375 14.109375 22.625 23.890625 
Q 32.328125 33.6875 34.8125 36.53125 
Q 39.546875 41.84375 41.421875 45.53125 
Q 43.3125 49.21875 43.3125 52.78125 
Q 43.3125 58.59375 39.234375 62.25 
Q 35.15625 65.921875 28.609375 65.921875 
Q 23.96875 65.921875 18.8125 64.3125 
Q 13.671875 62.703125 7.8125 59.421875 
L 7.8125 69.390625 
Q 13.765625 71.78125 18.9375 73 
Q 24.125 74.21875 28.421875 74.21875 
Q 39.75 74.21875 46.484375 68.546875 
Q 53.21875 62.890625 53.21875 53.421875 
Q 53.21875 48.921875 51.53125 44.890625 
Q 49.859375 40.875 45.40625 35.40625 
Q 44.1875 33.984375 37.640625 27.21875 
Q 31.109375 20.453125 19.1875 8.296875 
z
" id="DejaVuSans-32"/>
      </defs>
      <g transform="translate(187.782386 266.598437)scale(0.1 -0.1)">
       <use xlink:href="#DejaVuSans-32"/>
      </g>
     </g>
    </g>
    <g id="xtick_4">
     <g id="line2d_4">
      <g>
       <use style="stroke:#000000;stroke-width:0.8;" x="251.836364" xlink:href="#m0c018a9d36" y="252"/>
      </g>
     </g>
     <g id="text_4">
      <!-- 3 -->
      <defs>
       <path d="M 40.578125 39.3125 
Q 47.65625 37.796875 51.625 33 
Q 55.609375 28.21875 55.609375 21.1875 
Q 55.609375 10.40625 48.1875 4.484375 
Q 40.765625 -1.421875 27.09375 -1.421875 
Q 22.515625 -1.421875 17.65625 -0.515625 
Q 12.796875 0.390625 7.625 2.203125 
L 7.625 11.71875 
Q 11.71875 9.328125 16.59375 8.109375 
Q 21.484375 6.890625 26.8125 6.890625 
Q 36.078125 6.890625 40.9375 10.546875 
Q 45.796875 14.203125 45.796875 21.1875 
Q 45.796875 27.640625 41.28125 31.265625 
Q 36.765625 34.90625 28.71875 34.90625 
L 20.21875 34.90625 
L 20.21875 43.015625 
L 29.109375 43.015625 
Q 36.375 43.015625 40.234375 45.921875 
Q 44.09375 48.828125 44.09375 54.296875 
Q 44.09375 59.90625 40.109375 62.90625 
Q 36.140625 65.921875 28.71875 65.921875 
Q 24.65625 65.921875 20.015625 65.03125 
Q 15.375 64.15625 9.8125 62.3125 
L 9.8125 71.09375 
Q 15.4375 72.65625 20.34375 73.4375 
Q 25.25 74.21875 29.59375 74.21875 
Q 40.828125 74.21875 47.359375 69.109375 
Q 53.90625 64.015625 53.90625 55.328125 
Q 53.90625 49.265625 50.4375 45.09375 
Q 46.96875 40.921875 40.578125 39.3125 
z
" id="DejaVuSans-33"/>
      </defs>
      <g transform="translate(248.655114 266.598437)scale(0.1 -0.1)">
       <use xlink:href="#DejaVuSans-33"/>
      </g>
     </g>
    </g>
    <g id="xtick_5">
     <g id="line2d_5">
      <g>
       <use style="stroke:#000000;stroke-width:0.8;" x="312.709091" xlink:href="#m0c018a9d36" y="252"/>
      </g>
     </g>
     <g id="text_5">
      <!-- 4 -->
      <defs>
       <path d="M 37.796875 64.3125 
L 12.890625 25.390625 
L 37.796875 25.390625 
z
M 35.203125 72.90625 
L 47.609375 72.90625 
L 47.609375 25.390625 
L 58.015625 25.390625 
L 58.015625 17.1875 
L 47.609375 17.1875 
L 47.609375 0 
L 37.796875 0 
L 37.796875 17.1875 
L 4.890625 17.1875 
L 4.890625 26.703125 
z
" id="DejaVuSans-34"/>
      </defs>
      <g transform="translate(309.527841 266.598437)scale(0.1 -0.1)">
       <use xlink:href="#DejaVuSans-34"/>
      </g>
     </g>
    </g>
    <g id="xtick_6">
     <g id="line2d_6">
      <g>
       <use style="stroke:#000000;stroke-width:0.8;" x="373.581818" xlink:href="#m0c018a9d36" y="252"/>
      </g>
     </g>
     <g id="text_6">
      <!-- 5 -->
      <defs>
       <path d="M 10.796875 72.90625 
L 49.515625 72.90625 
L 49.515625 64.59375 
L 19.828125 64.59375 
L 19.828125 46.734375 
Q 21.96875 47.46875 24.109375 47.828125 
Q 26.265625 48.1875 28.421875 48.1875 
Q 40.625 48.1875 47.75 41.5 
Q 54.890625 34.8125 54.890625 23.390625 
Q 54.890625 11.625 47.5625 5.09375 
Q 40.234375 -1.421875 26.90625 -1.421875 
Q 22.3125 -1.421875 17.546875 -0.640625 
Q 12.796875 0.140625 7.71875 1.703125 
L 7.71875 11.625 
Q 12.109375 9.234375 16.796875 8.0625 
Q 21.484375 6.890625 26.703125 6.890625 
Q 35.15625 6.890625 40.078125 11.328125 
Q 45.015625 15.765625 45.015625 23.390625 
Q 45.015625 31 40.078125 35.4375 
Q 35.15625 39.890625 26.703125 39.890625 
Q 22.75 39.890625 18.8125 39.015625 
Q 14.890625 38.140625 10.796875 36.28125 
z
" id="DejaVuSans-35"/>
      </defs>
      <g transform="translate(370.400568 266.598437)scale(0.1 -0.1)">
       <use xlink:href="#DejaVuSans-35"/>
      </g>
     </g>
    </g>
   </g>
   <g id="matplotlib.axis_2">
    <g id="ytick_1">
     <g id="line2d_7">
      <defs>
       <path d="M 0 0 
L -3.5 0 
" id="maf53f4c8fc" style="stroke:#000000;stroke-width:0.8;"/>
      </defs>
      <g>
       <use style="stroke:#000000;stroke-width:0.8;" x="54" xlink:href="#maf53f4c8fc" y="237.110862"/>
      </g>
     </g>
     <g id="text_7">
      <!-- 0.00 -->
      <defs>
       <path d="M 10.6875 12.40625 
L 21 12.40625 
L 21 0 
L 10.6875 0 
z
" id="DejaVuSans-2e"/>
      </defs>
      <g transform="translate(24.734375 240.910081)scale(0.1 -0.1)">
       <use xlink:href="#DejaVuSans-30"/>
       <use x="63.623047" xlink:href="#DejaVuSans-2e"/>
       <use x="95.410156" xlink:href="#DejaVuSans-30"/>
       <use x="159.033203" xlink:href="#DejaVuSans-30"/>
      </g>
     </g>
    </g>
    <g id="ytick_2">
     <g id="line2d_8">
      <g>
       <use style="stroke:#000000;stroke-width:0.8;" x="54" xlink:href="#maf53f4c8fc" y="199.077072"/>
      </g>
     </g>
     <g id="text_8">
      <!-- 0.05 -->
      <g transform="translate(24.734375 202.876291)scale(0.1 -0.1)">
       <use xlink:href="#DejaVuSans-30"/>
       <use x="63.623047" xlink:href="#DejaVuSans-2e"/>
       <use x="95.410156" xlink:href="#DejaVuSans-30"/>
       <use x="159.033203" xlink:href="#DejaVuSans-35"/>
      </g>
     </g>
    </g>
    <g id="ytick_3">
     <g id="line2d_9">
      <g>
       <use style="stroke:#000000;stroke-width:0.8;" x="54" xlink:href="#maf53f4c8fc" y="161.043281"/>
      </g>
     </g>
     <g id="text_9">
      <!-- 0.10 -->
      <g transform="translate(24.734375 164.8425)scale(0.1 -0.1)">
       <use xlink:href="#DejaVuSans-30"/>
       <use x="63.623047" xlink:href="#DejaVuSans-2e"/>
       <use x="95.410156" xlink:href="#DejaVuSans-31"/>
       <use x="159.033203" xlink:href="#DejaVuSans-30"/>
      </g>
     </g>
    </g>
    <g id="ytick_4">
     <g id="line2d_10">
      <g>
       <use style="stroke:#000000;stroke-width:0.8;" x="54" xlink:href="#maf53f4c8fc" y="123.009491"/>
      </g>
     </g>
     <g id="text_10">
      <!-- 0.15 -->
      <g transform="translate(24.734375 126.80871)scale(0.1 -0.1)">
       <use xlink:href="#DejaVuSans-30"/>
       <use x="63.623047" xlink:href="#DejaVuSans-2e"/>
       <use x="95.410156" xlink:href="#DejaVuSans-31"/>
       <use x="159.033203" xlink:href="#DejaVuSans-35"/>
      </g>
     </g>
    </g>
    <g id="ytick_5">
     <g id="line2d_11">
      <g>
       <use style="stroke:#000000;stroke-width:0.8;" x="54" xlink:href="#maf53f4c8fc" y="84.9757"/>
      </g>
     </g>
     <g id="text_11">
      <!-- 0.20 -->
      <g transform="translate(24.734375 88.774919)scale(0.1 -0.1)">
       <use xlink:href="#DejaVuSans-30"/>
       <use x="63.623047" xlink:href="#DejaVuSans-2e"/>
       <use x="95.410156" xlink:href="#DejaVuSans-32"/>
       <use x="159.033203" xlink:href="#DejaVuSans-30"/>
      </g>
     </g>
    </g>
    <g id="ytick_6">
     <g id="line2d_12">
      <g>
       <use style="stroke:#000000;stroke-width:0.8;" x="54" xlink:href="#maf53f4c8fc" y="46.94191"/>
      </g>
     </g>
     <g id="text_12">
      <!-- 0.25 -->
      <g transform="translate(24.734375 50.741128)scale(0.1 -0.1)">
       <use xlink:href="#DejaVuSans-30"/>
       <use x="63.623047" xlink:href="#DejaVuSans-2e"/>
       <use x="95.410156" xlink:href="#DejaVuSans-32"/>
       <use x="159.033203" xlink:href="#DejaVuSans-35"/>
      </g>
     </g>
    </g>
   </g>
   <g id="line2d_13">
    <path clip-path="url(#p7fb580dbec)" d="M 69.218182 237.110862 
L 84.146929 237.110862 
L 84.451597 228.604122 
L 84.756265 198.32378 
L 85.365602 171.676804 
L 86.279607 146.391717 
L 87.193612 127.943988 
L 88.107617 113.24018 
L 89.32629 97.444065 
L 90.544963 84.776187 
L 91.763636 74.503781 
L 92.98231 66.194382 
L 94.200983 59.57215 
L 95.114988 55.59979 
L 96.028993 52.417493 
L 96.942998 49.984948 
L 97.857002 48.273178 
L 98.466339 47.522448 
L 99.075676 47.079536 
L 99.685012 46.942291 
L 100.294349 47.110049 
L 100.903686 47.583621 
L 101.513022 48.365309 
L 102.122359 49.458963 
L 103.036364 51.696886 
L 103.950369 54.675817 
L 104.864373 58.432814 
L 105.778378 63.018243 
L 106.997052 70.540808 
L 108.215725 79.887784 
L 109.434398 91.409865 
L 110.653071 105.677855 
L 111.567076 118.769667 
L 112.481081 134.769582 
L 113.395086 155.367772 
L 114.004423 173.79328 
L 114.613759 202.177465 
L 114.918428 237.110862 
L 145.08059 237.110862 
L 145.994595 180.678075 
L 146.603931 160.349783 
L 147.517936 138.438429 
L 148.431941 121.701457 
L 149.650614 104.103636 
L 150.869287 90.145953 
L 152.087961 78.862268 
L 153.306634 69.710979 
L 154.525307 62.356763 
L 155.74398 56.579868 
L 156.657985 53.191354 
L 157.57199 50.562136 
L 158.485995 48.660431 
L 159.095332 47.785631 
L 159.704668 47.219935 
L 160.314005 46.960584 
L 160.923342 47.006326 
L 161.532678 47.357381 
L 162.142015 48.015449 
L 162.751351 48.983752 
L 163.665356 51.028914 
L 164.579361 53.807101 
L 165.493366 57.352295 
L 166.407371 61.710999 
L 167.321376 66.945714 
L 168.540049 75.437073 
L 169.758722 85.926135 
L 170.977396 98.866876 
L 171.8914 110.627878 
L 172.805405 124.756126 
L 173.71941 142.304089 
L 174.328747 156.986776 
L 174.938084 175.992478 
L 175.242752 188.63647 
L 175.54742 206.531667 
L 175.852088 237.110862 
L 206.014251 237.110862 
L 206.623587 191.622952 
L 207.232924 167.662056 
L 208.146929 143.640563 
L 209.060934 125.803392 
L 210.279607 107.289022 
L 211.49828 92.700896 
L 212.716953 80.934881 
L 213.935627 71.388786 
L 215.1543 63.695619 
L 216.372973 57.61697 
L 217.286978 54.019144 
L 218.200983 51.191005 
L 219.114988 49.097816 
L 219.724324 48.098252 
L 220.333661 47.409331 
L 220.942998 47.027676 
L 221.552334 46.951437 
L 222.161671 47.180246 
L 222.771007 47.715209 
L 223.380344 48.558931 
L 223.989681 49.715583 
L 224.903686 52.050573 
L 225.81769 55.130845 
L 226.731695 58.995061 
L 227.6457 63.695619 
L 228.864373 71.388786 
L 230.083047 80.934881 
L 231.30172 92.700896 
L 232.520393 107.289022 
L 233.434398 120.711007 
L 234.348403 137.194707 
L 235.262408 158.646564 
L 235.871744 178.283675 
L 236.176413 191.622952 
L 236.785749 237.110862 
L 266.947912 237.110862 
L 267.25258 206.531667 
L 267.861916 175.992478 
L 268.471253 156.986776 
L 269.385258 135.972009 
L 270.299263 119.733853 
L 271.517936 102.565068 
L 272.736609 88.908466 
L 273.955283 77.857918 
L 275.173956 68.899029 
L 276.392629 61.710999 
L 277.611302 56.08276 
L 278.525307 52.797726 
L 279.439312 50.267113 
L 280.353317 48.460558 
L 280.962654 47.647873 
L 281.57199 47.143618 
L 282.181327 46.94534 
L 282.790663 47.052079 
L 283.4 47.464353 
L 284.009337 48.18416 
L 284.618673 49.215036 
L 285.532678 51.356357 
L 286.446683 54.234602 
L 287.360688 57.88527 
L 288.274693 62.356763 
L 289.493366 69.710979 
L 290.712039 78.862268 
L 291.930713 90.145953 
L 293.149386 104.103636 
L 294.063391 116.87895 
L 294.977396 132.422759 
L 295.8914 152.24284 
L 296.500737 169.635266 
L 297.110074 194.833521 
L 297.71941 237.110862 
L 327.881572 237.110862 
L 328.186241 202.177465 
L 328.795577 173.79328 
L 329.404914 155.367772 
L 330.318919 134.769582 
L 331.232924 118.769667 
L 332.451597 101.808772 
L 333.67027 88.299426 
L 334.888943 77.363555 
L 336.107617 68.499679 
L 337.32629 61.393956 
L 338.544963 55.839515 
L 339.458968 52.60594 
L 340.372973 50.124427 
L 341.286978 48.365309 
L 341.896314 47.583621 
L 342.505651 47.110049 
L 343.114988 46.942291 
L 343.724324 47.079536 
L 344.333661 47.522448 
L 344.942998 48.273178 
L 345.552334 49.335416 
L 346.466339 51.524982 
L 347.380344 54.453489 
L 348.294349 58.157213 
L 349.208354 62.685527 
L 350.427027 70.123642 
L 351.6457 79.372355 
L 352.864373 90.774563 
L 354.083047 104.88621 
L 354.997052 117.818132 
L 355.911057 133.58672 
L 356.825061 153.787175 
L 357.434398 171.676804 
L 358.043735 198.32378 
L 358.348403 228.604122 
L 358.653071 237.110862 
L 373.581818 237.110862 
L 373.581818 237.110862 
" style="fill:none;stroke:#1f77b4;stroke-linecap:square;stroke-width:1.5;"/>
   </g>
   <g id="line2d_14">
    <path clip-path="url(#p7fb580dbec)" d="M 69.218182 237.333179 
L 71.046192 237.22925 
L 71.960197 236.931184 
L 73.17887 236.521092 
L 73.788206 236.573367 
L 74.397543 236.898422 
L 76.225553 238.278613 
L 76.530221 238.254981 
L 76.834889 238.092842 
L 77.444226 237.36493 
L 78.967568 234.975297 
L 79.272236 234.887268 
L 79.576904 235.063827 
L 79.881572 235.529775 
L 80.490909 237.276588 
L 81.709582 241.6744 
L 82.014251 242.101653 
L 82.318919 241.888486 
L 82.623587 240.850389 
L 82.928256 238.824723 
L 83.232924 235.68363 
L 83.84226 225.782154 
L 84.451597 211.170769 
L 85.365602 182.738454 
L 86.888943 133.851632 
L 87.49828 119.039545 
L 88.107617 108.171147 
L 88.716953 100.825966 
L 89.32629 95.891272 
L 90.849631 85.46412 
L 91.763636 76.863854 
L 93.286978 62.108678 
L 93.896314 58.216891 
L 94.505651 55.93681 
L 95.114988 54.914149 
L 96.333661 53.826873 
L 96.942998 52.517684 
L 97.552334 50.457417 
L 98.771007 45.83709 
L 99.380344 44.583582 
L 99.685012 44.443636 
L 99.989681 44.652968 
L 100.294349 45.19422 
L 100.903686 47.071847 
L 102.427027 52.684914 
L 103.036364 53.915228 
L 103.6457 54.500629 
L 104.255037 54.978066 
L 104.559705 55.410709 
L 104.864373 56.098956 
L 105.47371 58.531778 
L 106.083047 62.585485 
L 106.997052 71.151949 
L 108.520393 85.9615 
L 109.434398 92.356629 
L 110.348403 98.639647 
L 110.95774 104.860933 
L 111.567076 114.223202 
L 112.176413 127.46404 
L 113.090418 154.075077 
L 114.918428 212.823501 
L 115.527764 226.992082 
L 116.137101 236.405753 
L 116.441769 239.315597 
L 116.746437 241.132233 
L 117.051106 241.991439 
L 117.355774 242.0613 
L 117.660442 241.529071 
L 118.269779 239.422466 
L 119.183784 236.108861 
L 119.488452 235.413189 
L 119.79312 235.005771 
L 120.097789 234.884948 
L 120.402457 235.020783 
L 121.011794 235.84439 
L 122.230467 237.862098 
L 122.839803 238.270483 
L 123.144472 238.267857 
L 123.753808 237.9346 
L 125.27715 236.671044 
L 125.886486 236.510865 
L 126.495823 236.599363 
L 128.628501 237.29033 
L 130.151843 237.333201 
L 131.675184 237.273671 
L 132.589189 237.027794 
L 134.112531 236.514999 
L 134.721867 236.593546 
L 135.331204 236.944725 
L 136.854545 238.207729 
L 137.159214 238.28441 
L 137.463882 238.233894 
L 137.76855 238.043413 
L 138.377887 237.267339 
L 139.59656 235.204834 
L 139.901229 234.93854 
L 140.205897 234.900244 
L 140.510565 235.133553 
L 140.815233 235.657859 
L 141.42457 237.499254 
L 142.643243 241.80184 
L 142.947912 242.116364 
L 143.25258 241.752466 
L 143.557248 240.528931 
L 143.861916 238.289083 
L 144.471253 230.330444 
L 145.08059 217.539335 
L 145.994595 190.826927 
L 147.822604 132.19971 
L 148.431941 117.775325 
L 149.041278 107.292164 
L 149.650614 100.246362 
L 150.259951 95.476606 
L 151.783292 84.956189 
L 152.697297 76.234449 
L 153.915971 64.101881 
L 154.525307 59.576442 
L 155.134644 56.66805 
L 155.74398 55.211972 
L 156.353317 54.622689 
L 156.962654 54.140987 
L 157.57199 53.138025 
L 158.181327 51.3568 
L 160.009337 44.940172 
L 160.314005 44.527791 
L 160.618673 44.457701 
L 160.923342 44.73572 
L 161.22801 45.338817 
L 161.837346 47.300994 
L 163.05602 51.969434 
L 163.665356 53.517784 
L 164.274693 54.317148 
L 165.188698 55.048488 
L 165.493366 55.525129 
L 165.798034 56.274533 
L 166.407371 58.863313 
L 167.016708 63.07695 
L 167.930713 71.783742 
L 169.149386 83.908824 
L 170.063391 90.800659 
L 171.282064 99.15462 
L 171.8914 105.638047 
L 172.500737 115.367331 
L 173.110074 129.005116 
L 174.024079 156.062348 
L 175.852088 214.436686 
L 176.461425 228.15366 
L 177.070762 237.080302 
L 177.37543 239.762601 
L 177.680098 241.375675 
L 177.984767 242.062757 
L 178.289435 241.996845 
L 178.594103 241.367398 
L 179.20344 239.177716 
L 180.117445 235.947684 
L 180.422113 235.308241 
L 180.726781 234.95927 
L 181.03145 234.892963 
L 181.336118 235.07453 
L 181.945455 235.951643 
L 182.859459 237.548607 
L 183.468796 238.174743 
L 183.773464 238.280481 
L 184.078133 238.252322 
L 184.687469 237.884228 
L 186.210811 236.642404 
L 186.820147 236.509791 
L 187.429484 236.618183 
L 189.562162 237.297381 
L 191.390172 237.33382 
L 192.608845 237.263994 
L 193.52285 237.004462 
L 194.741523 236.55202 
L 195.35086 236.529765 
L 195.960197 236.773291 
L 196.874201 237.550011 
L 197.483538 238.070881 
L 198.092875 238.285081 
L 198.397543 238.207159 
L 199.00688 237.634093 
L 199.920885 236.061182 
L 200.530221 235.13605 
L 200.834889 234.910956 
L 201.139558 234.924163 
L 201.444226 235.215019 
L 201.748894 235.797247 
L 202.358231 237.728031 
L 203.272236 241.19091 
L 203.576904 241.90984 
L 203.881572 242.103902 
L 204.186241 241.581981 
L 204.490909 240.166701 
L 204.795577 237.707858 
L 205.404914 229.266532 
L 206.014251 216.009032 
L 206.928256 188.827358 
L 208.756265 130.583922 
L 209.365602 116.551297 
L 209.974939 106.448116 
L 210.584275 99.689716 
L 211.49828 93.121809 
L 212.412285 86.924872 
L 213.32629 78.724568 
L 214.849631 63.582592 
L 215.458968 59.211538 
L 216.068305 56.464069 
L 216.677641 55.1262 
L 217.286978 54.58205 
L 217.896314 54.071881 
L 218.505651 52.995156 
L 219.114988 51.139903 
L 220.638329 45.494507 
L 220.942998 44.831561 
L 221.247666 44.485784 
L 221.552334 44.485784 
L 221.857002 44.831561 
L 222.466339 46.420383 
L 224.294349 52.995156 
L 224.903686 54.071881 
L 225.513022 54.58205 
L 226.122359 55.1262 
L 226.427027 55.650514 
L 226.731695 56.464069 
L 227.341032 59.211538 
L 227.950369 63.582592 
L 228.864373 72.418319 
L 230.083047 84.437728 
L 230.997052 91.195377 
L 231.911057 97.201007 
L 232.520393 102.716221 
L 233.12973 111.026231 
L 233.739066 123.073223 
L 234.653071 148.23601 
L 236.785749 216.009032 
L 237.395086 229.266532 
L 238.004423 237.707858 
L 238.309091 240.166701 
L 238.613759 241.581981 
L 238.918428 242.103902 
L 239.223096 241.90984 
L 239.527764 241.19091 
L 241.355774 235.215019 
L 241.660442 234.924163 
L 241.965111 234.910956 
L 242.269779 235.13605 
L 242.879115 236.061182 
L 243.79312 237.634093 
L 244.402457 238.207159 
L 244.707125 238.285081 
L 245.316462 238.070881 
L 247.44914 236.529765 
L 248.058477 236.55202 
L 249.27715 237.004462 
L 250.191155 237.263994 
L 251.409828 237.33382 
L 253.542506 237.253379 
L 254.456511 236.980529 
L 255.675184 236.539719 
L 256.284521 236.541498 
L 256.893857 236.812584 
L 257.807862 237.608104 
L 258.417199 238.110433 
L 259.026536 238.280481 
L 259.331204 238.174743 
L 259.940541 237.548607 
L 261.463882 235.07453 
L 261.76855 234.892963 
L 262.073219 234.95927 
L 262.377887 235.308241 
L 262.682555 235.947684 
L 263.291892 237.962074 
L 264.205897 241.367398 
L 264.510565 241.996845 
L 264.815233 242.062757 
L 265.119902 241.375675 
L 265.42457 239.762601 
L 265.729238 237.080302 
L 266.338575 228.15366 
L 266.947912 214.436686 
L 267.861916 186.81134 
L 269.689926 129.005116 
L 270.299263 115.367331 
L 270.9086 105.638047 
L 271.517936 99.15462 
L 272.431941 92.739398 
L 273.345946 86.448378 
L 274.259951 78.109659 
L 275.783292 63.07695 
L 276.392629 58.863313 
L 277.001966 56.274533 
L 277.611302 55.048488 
L 279.134644 53.517784 
L 279.74398 51.969434 
L 280.657985 48.504571 
L 281.57199 45.338817 
L 281.876658 44.73572 
L 282.181327 44.457701 
L 282.485995 44.527791 
L 282.790663 44.940172 
L 283.4 46.630848 
L 285.22801 53.138025 
L 285.837346 54.140987 
L 287.05602 55.211972 
L 287.360688 55.78753 
L 287.665356 56.66805 
L 288.274693 59.576442 
L 288.884029 64.101881 
L 290.102703 76.234449 
L 291.016708 84.956189 
L 291.930713 91.585643 
L 292.844717 97.664294 
L 293.454054 103.401186 
L 294.063391 112.053102 
L 294.672727 124.497589 
L 295.586732 150.160123 
L 297.71941 217.539335 
L 298.328747 230.330444 
L 298.938084 238.289083 
L 299.242752 240.528931 
L 299.54742 241.752466 
L 299.852088 242.116364 
L 300.156757 241.80184 
L 300.766093 239.904154 
L 301.680098 236.461895 
L 302.289435 235.133553 
L 302.594103 234.900244 
L 302.898771 234.93854 
L 303.20344 235.204834 
L 303.812776 236.172454 
L 304.726781 237.714987 
L 305.336118 238.233894 
L 305.640786 238.28441 
L 306.250123 238.028207 
L 308.078133 236.593546 
L 308.687469 236.514999 
L 309.601474 236.778391 
L 310.820147 237.215706 
L 311.734152 237.326893 
L 314.171499 237.29033 
L 315.085504 237.072371 
L 316.608845 236.52937 
L 317.218182 236.556022 
L 317.827518 236.854333 
L 319.655528 238.267857 
L 319.960197 238.270483 
L 320.264865 238.136632 
L 320.874201 237.458791 
L 322.397543 235.020783 
L 322.702211 234.884948 
L 323.00688 235.005771 
L 323.311548 235.413189 
L 323.920885 237.060821 
L 325.139558 241.529071 
L 325.444226 242.0613 
L 325.748894 241.991439 
L 326.053563 241.132233 
L 326.358231 239.315597 
L 326.662899 236.405753 
L 327.272236 226.992082 
L 327.881572 212.823501 
L 328.795577 184.780992 
L 330.318919 135.53875 
L 331.232924 114.223202 
L 331.84226 104.860933 
L 332.451597 98.639647 
L 333.365602 92.356629 
L 334.279607 85.9615 
L 335.193612 77.489179 
L 336.716953 62.585485 
L 337.32629 58.531778 
L 337.935627 56.098956 
L 338.544963 54.978066 
L 339.763636 53.915228 
L 340.372973 52.684914 
L 340.98231 50.689708 
L 342.200983 46.022866 
L 342.810319 44.652968 
L 343.114988 44.443636 
L 343.419656 44.583582 
L 343.724324 45.061191 
L 344.333661 46.848231 
L 345.857002 52.517684 
L 346.466339 53.826873 
L 347.075676 54.458379 
L 347.685012 54.914149 
L 347.989681 55.306563 
L 348.294349 55.93681 
L 348.599017 56.88692 
L 349.208354 59.95796 
L 349.81769 64.634245 
L 351.036364 76.863854 
L 351.950369 85.46412 
L 352.864373 91.972395 
L 353.778378 98.143356 
L 354.387715 104.115693 
L 354.997052 113.118595 
L 355.606388 125.961346 
L 356.520393 152.107064 
L 358.653071 219.026477 
L 359.262408 231.345238 
L 359.871744 238.824723 
L 360.176413 240.850389 
L 360.481081 241.888486 
L 360.785749 242.101653 
L 361.090418 241.6744 
L 361.699754 239.665033 
L 362.613759 236.280407 
L 363.223096 235.063827 
L 363.527764 234.887268 
L 363.832432 234.975297 
L 364.441769 235.739983 
L 365.660442 237.791057 
L 366.269779 238.254981 
L 366.574447 238.278613 
L 367.183784 237.982687 
L 368.707125 236.702444 
L 369.316462 236.514506 
L 369.925799 236.581972 
L 372.363145 237.313905 
L 373.581818 237.333179 
L 373.581818 237.333179 
" style="fill:none;stroke:#ff7f0e;stroke-linecap:square;stroke-width:1.5;"/>
   </g>
   <g id="patch_3">
    <path d="M 54 252 
L 54 34.56 
" style="fill:none;stroke:#000000;stroke-linecap:square;stroke-linejoin:miter;stroke-width:0.8;"/>
   </g>
   <g id="patch_4">
    <path d="M 388.8 252 
L 388.8 34.56 
" style="fill:none;stroke:#000000;stroke-linecap:square;stroke-linejoin:miter;stroke-width:0.8;"/>
   </g>
   <g id="patch_5">
    <path d="M 54 252 
L 388.8 252 
" style="fill:none;stroke:#000000;stroke-linecap:square;stroke-linejoin:miter;stroke-width:0.8;"/>
   </g>
   <g id="patch_6">
    <path d="M 54 34.56 
L 388.8 34.56 
" style="fill:none;stroke:#000000;stroke-linecap:square;stroke-linejoin:miter;stroke-width:0.8;"/>
   </g>
  </g>
 </g>
 <defs>
  <clipPath id="p7fb580dbec">
   <rect height="217.44" width="334.8" x="54" y="34.56"/>
  </clipPath>
 </defs>
</svg>
