<?xml version="1.0" encoding="utf-8" standalone="no"?>
<!DOCTYPE svg PUBLIC "-//W3C//DTD SVG 1.1//EN"
  "http://www.w3.org/Graphics/SVG/1.1/DTD/svg11.dtd">
<!-- Created with matplotlib (http://matplotlib.org/) -->
<svg height="288pt" version="1.1" viewBox="0 0 1152 288" width="1152pt" xmlns="http://www.w3.org/2000/svg" xmlns:xlink="http://www.w3.org/1999/xlink">
 <defs>
  <style type="text/css">
*{stroke-linecap:butt;stroke-linejoin:round;}
  </style>
 </defs>
 <g id="figure_1">
  <g id="patch_1">
   <path d="M 0 288 
L 1152 288 
L 1152 0 
L 0 0 
z
" style="fill:#ffffff;"/>
  </g>
  <g id="axes_1">
   <g id="patch_2">
    <path d="M 144 252 
L 1036.8 252 
L 1036.8 34.56 
L 144 34.56 
z
" style="fill:#ffffff;"/>
   </g>
   <g id="matplotlib.axis_1">
    <g id="xtick_1">
     <g id="line2d_1">
      <defs>
       <path d="M 0 0 
L 0 3.5 
" id="m1ca20ff2b2" style="stroke:#000000;stroke-width:0.8;"/>
      </defs>
      <g>
       <use style="stroke:#000000;stroke-width:0.8;" x="184.581818" xlink:href="#m1ca20ff2b2" y="252"/>
      </g>
     </g>
     <g id="text_1">
      <!-- 0 -->
      <defs>
       <path d="M 31.78125 66.40625 
Q 24.171875 66.40625 20.328125 58.90625 
Q 16.5 51.421875 16.5 36.375 
Q 16.5 21.390625 20.328125 13.890625 
Q 24.171875 6.390625 31.78125 6.390625 
Q 39.453125 6.390625 43.28125 13.890625 
Q 47.125 21.390625 47.125 36.375 
Q 47.125 51.421875 43.28125 58.90625 
Q 39.453125 66.40625 31.78125 66.40625 
z
M 31.78125 74.21875 
Q 44.046875 74.21875 50.515625 64.515625 
Q 56.984375 54.828125 56.984375 36.375 
Q 56.984375 17.96875 50.515625 8.265625 
Q 44.046875 -1.421875 31.78125 -1.421875 
Q 19.53125 -1.421875 13.0625 8.265625 
Q 6.59375 17.96875 6.59375 36.375 
Q 6.59375 54.828125 13.0625 64.515625 
Q 19.53125 74.21875 31.78125 74.21875 
z
" id="DejaVuSans-30"/>
      </defs>
      <g transform="translate(181.400568 266.598437)scale(0.1 -0.1)">
       <use xlink:href="#DejaVuSans-30"/>
      </g>
     </g>
    </g>
    <g id="xtick_2">
     <g id="line2d_2">
      <g>
       <use style="stroke:#000000;stroke-width:0.8;" x="346.909091" xlink:href="#m1ca20ff2b2" y="252"/>
      </g>
     </g>
     <g id="text_2">
      <!-- 1 -->
      <defs>
       <path d="M 12.40625 8.296875 
L 28.515625 8.296875 
L 28.515625 63.921875 
L 10.984375 60.40625 
L 10.984375 69.390625 
L 28.421875 72.90625 
L 38.28125 72.90625 
L 38.28125 8.296875 
L 54.390625 8.296875 
L 54.390625 0 
L 12.40625 0 
z
" id="DejaVuSans-31"/>
      </defs>
      <g transform="translate(343.727841 266.598437)scale(0.1 -0.1)">
       <use xlink:href="#DejaVuSans-31"/>
      </g>
     </g>
    </g>
    <g id="xtick_3">
     <g id="line2d_3">
      <g>
       <use style="stroke:#000000;stroke-width:0.8;" x="509.236364" xlink:href="#m1ca20ff2b2" y="252"/>
      </g>
     </g>
     <g id="text_3">
      <!-- 2 -->
      <defs>
       <path d="M 19.1875 8.296875 
L 53.609375 8.296875 
L 53.609375 0 
L 7.328125 0 
L 7.328125 8.296875 
Q 12.9375 14.109375 22.625 23.890625 
Q 32.328125 33.6875 34.8125 36.53125 
Q 39.546875 41.84375 41.421875 45.53125 
Q 43.3125 49.21875 43.3125 52.78125 
Q 43.3125 58.59375 39.234375 62.25 
Q 35.15625 65.921875 28.609375 65.921875 
Q 23.96875 65.921875 18.8125 64.3125 
Q 13.671875 62.703125 7.8125 59.421875 
L 7.8125 69.390625 
Q 13.765625 71.78125 18.9375 73 
Q 24.125 74.21875 28.421875 74.21875 
Q 39.75 74.21875 46.484375 68.546875 
Q 53.21875 62.890625 53.21875 53.421875 
Q 53.21875 48.921875 51.53125 44.890625 
Q 49.859375 40.875 45.40625 35.40625 
Q 44.1875 33.984375 37.640625 27.21875 
Q 31.109375 20.453125 19.1875 8.296875 
z
" id="DejaVuSans-32"/>
      </defs>
      <g transform="translate(506.055114 266.598437)scale(0.1 -0.1)">
       <use xlink:href="#DejaVuSans-32"/>
      </g>
     </g>
    </g>
    <g id="xtick_4">
     <g id="line2d_4">
      <g>
       <use style="stroke:#000000;stroke-width:0.8;" x="671.563636" xlink:href="#m1ca20ff2b2" y="252"/>
      </g>
     </g>
     <g id="text_4">
      <!-- 3 -->
      <defs>
       <path d="M 40.578125 39.3125 
Q 47.65625 37.796875 51.625 33 
Q 55.609375 28.21875 55.609375 21.1875 
Q 55.609375 10.40625 48.1875 4.484375 
Q 40.765625 -1.421875 27.09375 -1.421875 
Q 22.515625 -1.421875 17.65625 -0.515625 
Q 12.796875 0.390625 7.625 2.203125 
L 7.625 11.71875 
Q 11.71875 9.328125 16.59375 8.109375 
Q 21.484375 6.890625 26.8125 6.890625 
Q 36.078125 6.890625 40.9375 10.546875 
Q 45.796875 14.203125 45.796875 21.1875 
Q 45.796875 27.640625 41.28125 31.265625 
Q 36.765625 34.90625 28.71875 34.90625 
L 20.21875 34.90625 
L 20.21875 43.015625 
L 29.109375 43.015625 
Q 36.375 43.015625 40.234375 45.921875 
Q 44.09375 48.828125 44.09375 54.296875 
Q 44.09375 59.90625 40.109375 62.90625 
Q 36.140625 65.921875 28.71875 65.921875 
Q 24.65625 65.921875 20.015625 65.03125 
Q 15.375 64.15625 9.8125 62.3125 
L 9.8125 71.09375 
Q 15.4375 72.65625 20.34375 73.4375 
Q 25.25 74.21875 29.59375 74.21875 
Q 40.828125 74.21875 47.359375 69.109375 
Q 53.90625 64.015625 53.90625 55.328125 
Q 53.90625 49.265625 50.4375 45.09375 
Q 46.96875 40.921875 40.578125 39.3125 
z
" id="DejaVuSans-33"/>
      </defs>
      <g transform="translate(668.382386 266.598437)scale(0.1 -0.1)">
       <use xlink:href="#DejaVuSans-33"/>
      </g>
     </g>
    </g>
    <g id="xtick_5">
     <g id="line2d_5">
      <g>
       <use style="stroke:#000000;stroke-width:0.8;" x="833.890909" xlink:href="#m1ca20ff2b2" y="252"/>
      </g>
     </g>
     <g id="text_5">
      <!-- 4 -->
      <defs>
       <path d="M 37.796875 64.3125 
L 12.890625 25.390625 
L 37.796875 25.390625 
z
M 35.203125 72.90625 
L 47.609375 72.90625 
L 47.609375 25.390625 
L 58.015625 25.390625 
L 58.015625 17.1875 
L 47.609375 17.1875 
L 47.609375 0 
L 37.796875 0 
L 37.796875 17.1875 
L 4.890625 17.1875 
L 4.890625 26.703125 
z
" id="DejaVuSans-34"/>
      </defs>
      <g transform="translate(830.709659 266.598437)scale(0.1 -0.1)">
       <use xlink:href="#DejaVuSans-34"/>
      </g>
     </g>
    </g>
    <g id="xtick_6">
     <g id="line2d_6">
      <g>
       <use style="stroke:#000000;stroke-width:0.8;" x="996.218182" xlink:href="#m1ca20ff2b2" y="252"/>
      </g>
     </g>
     <g id="text_6">
      <!-- 5 -->
      <defs>
       <path d="M 10.796875 72.90625 
L 49.515625 72.90625 
L 49.515625 64.59375 
L 19.828125 64.59375 
L 19.828125 46.734375 
Q 21.96875 47.46875 24.109375 47.828125 
Q 26.265625 48.1875 28.421875 48.1875 
Q 40.625 48.1875 47.75 41.5 
Q 54.890625 34.8125 54.890625 23.390625 
Q 54.890625 11.625 47.5625 5.09375 
Q 40.234375 -1.421875 26.90625 -1.421875 
Q 22.3125 -1.421875 17.546875 -0.640625 
Q 12.796875 0.140625 7.71875 1.703125 
L 7.71875 11.625 
Q 12.109375 9.234375 16.796875 8.0625 
Q 21.484375 6.890625 26.703125 6.890625 
Q 35.15625 6.890625 40.078125 11.328125 
Q 45.015625 15.765625 45.015625 23.390625 
Q 45.015625 31 40.078125 35.4375 
Q 35.15625 39.890625 26.703125 39.890625 
Q 22.75 39.890625 18.8125 39.015625 
Q 14.890625 38.140625 10.796875 36.28125 
z
" id="DejaVuSans-35"/>
      </defs>
      <g transform="translate(993.036932 266.598437)scale(0.1 -0.1)">
       <use xlink:href="#DejaVuSans-35"/>
      </g>
     </g>
    </g>
   </g>
   <g id="matplotlib.axis_2">
    <g id="ytick_1">
     <g id="line2d_7">
      <defs>
       <path d="M 0 0 
L -3.5 0 
" id="m7a9f8e5bc5" style="stroke:#000000;stroke-width:0.8;"/>
      </defs>
      <g>
       <use style="stroke:#000000;stroke-width:0.8;" x="144" xlink:href="#m7a9f8e5bc5" y="242.116364"/>
      </g>
     </g>
     <g id="text_7">
      <!-- 0.00 -->
      <defs>
       <path d="M 10.6875 12.40625 
L 21 12.40625 
L 21 0 
L 10.6875 0 
z
" id="DejaVuSans-2e"/>
      </defs>
      <g transform="translate(114.734375 245.915582)scale(0.1 -0.1)">
       <use xlink:href="#DejaVuSans-30"/>
       <use x="63.623047" xlink:href="#DejaVuSans-2e"/>
       <use x="95.410156" xlink:href="#DejaVuSans-30"/>
       <use x="159.033203" xlink:href="#DejaVuSans-30"/>
      </g>
     </g>
    </g>
    <g id="ytick_2">
     <g id="line2d_8">
      <g>
       <use style="stroke:#000000;stroke-width:0.8;" x="144" xlink:href="#m7a9f8e5bc5" y="202.581739"/>
      </g>
     </g>
     <g id="text_8">
      <!-- 0.05 -->
      <g transform="translate(114.734375 206.380958)scale(0.1 -0.1)">
       <use xlink:href="#DejaVuSans-30"/>
       <use x="63.623047" xlink:href="#DejaVuSans-2e"/>
       <use x="95.410156" xlink:href="#DejaVuSans-30"/>
       <use x="159.033203" xlink:href="#DejaVuSans-35"/>
      </g>
     </g>
    </g>
    <g id="ytick_3">
     <g id="line2d_9">
      <g>
       <use style="stroke:#000000;stroke-width:0.8;" x="144" xlink:href="#m7a9f8e5bc5" y="163.047114"/>
      </g>
     </g>
     <g id="text_9">
      <!-- 0.10 -->
      <g transform="translate(114.734375 166.846333)scale(0.1 -0.1)">
       <use xlink:href="#DejaVuSans-30"/>
       <use x="63.623047" xlink:href="#DejaVuSans-2e"/>
       <use x="95.410156" xlink:href="#DejaVuSans-31"/>
       <use x="159.033203" xlink:href="#DejaVuSans-30"/>
      </g>
     </g>
    </g>
    <g id="ytick_4">
     <g id="line2d_10">
      <g>
       <use style="stroke:#000000;stroke-width:0.8;" x="144" xlink:href="#m7a9f8e5bc5" y="123.51249"/>
      </g>
     </g>
     <g id="text_10">
      <!-- 0.15 -->
      <g transform="translate(114.734375 127.311708)scale(0.1 -0.1)">
       <use xlink:href="#DejaVuSans-30"/>
       <use x="63.623047" xlink:href="#DejaVuSans-2e"/>
       <use x="95.410156" xlink:href="#DejaVuSans-31"/>
       <use x="159.033203" xlink:href="#DejaVuSans-35"/>
      </g>
     </g>
    </g>
    <g id="ytick_5">
     <g id="line2d_11">
      <g>
       <use style="stroke:#000000;stroke-width:0.8;" x="144" xlink:href="#m7a9f8e5bc5" y="83.977865"/>
      </g>
     </g>
     <g id="text_11">
      <!-- 0.20 -->
      <g transform="translate(114.734375 87.777084)scale(0.1 -0.1)">
       <use xlink:href="#DejaVuSans-30"/>
       <use x="63.623047" xlink:href="#DejaVuSans-2e"/>
       <use x="95.410156" xlink:href="#DejaVuSans-32"/>
       <use x="159.033203" xlink:href="#DejaVuSans-30"/>
      </g>
     </g>
    </g>
    <g id="ytick_6">
     <g id="line2d_12">
      <g>
       <use style="stroke:#000000;stroke-width:0.8;" x="144" xlink:href="#m7a9f8e5bc5" y="44.44324"/>
      </g>
     </g>
     <g id="text_12">
      <!-- 0.25 -->
      <g transform="translate(114.734375 48.242459)scale(0.1 -0.1)">
       <use xlink:href="#DejaVuSans-30"/>
       <use x="63.623047" xlink:href="#DejaVuSans-2e"/>
       <use x="95.410156" xlink:href="#DejaVuSans-32"/>
       <use x="159.033203" xlink:href="#DejaVuSans-35"/>
      </g>
     </g>
    </g>
   </g>
   <g id="line2d_13">
    <path clip-path="url(#padb4c50119)" d="M 184.581818 242.116364 
L 224.39181 242.116364 
L 225.204259 233.273943 
L 226.016708 201.798722 
L 226.829156 186.067156 
L 227.641605 174.100242 
L 229.266503 155.504678 
L 230.8914 140.865755 
L 232.516298 128.641704 
L 234.141196 118.116277 
L 235.766093 108.88628 
L 237.390991 100.697838 
L 239.015889 93.378829 
L 240.640786 86.806287 
L 242.265684 80.888897 
L 243.890581 75.556816 
L 245.515479 70.755399 
L 247.140377 66.441128 
L 248.765274 62.578883 
L 250.390172 59.140036 
L 252.01507 56.101105 
L 253.639967 53.442765 
L 255.264865 51.14912 
L 256.889762 49.207163 
L 258.51466 47.606358 
L 260.139558 46.338338 
L 261.764455 45.396667 
L 263.389353 44.776674 
L 265.014251 44.47533 
L 266.639148 44.491179 
L 268.264046 44.824296 
L 269.888943 45.476295 
L 271.513841 46.450362 
L 273.138739 47.751341 
L 274.763636 49.38585 
L 276.388534 51.362465 
L 278.013432 53.691949 
L 279.638329 56.387582 
L 281.263227 59.465573 
L 282.888124 62.945626 
L 284.513022 66.851691 
L 286.13792 71.212974 
L 287.762817 76.065341 
L 289.387715 81.45328 
L 291.012613 87.432747 
L 292.63751 94.0754 
L 294.262408 101.475178 
L 295.887305 109.759007 
L 297.512203 119.10536 
L 299.137101 129.779125 
L 300.761998 142.204834 
L 302.386896 157.147646 
L 303.199345 166.01522 
L 304.011794 176.300235 
L 304.824242 188.817028 
L 305.636691 205.804475 
L 306.44914 242.116364 
L 386.881572 242.116364 
L 387.694021 222.363922 
L 388.50647 198.170735 
L 389.318919 183.456707 
L 390.131368 171.978143 
L 391.756265 153.899403 
L 393.381163 139.550262 
L 395.006061 127.521038 
L 396.630958 117.140035 
L 398.255856 108.023905 
L 399.880753 99.929153 
L 401.505651 92.689696 
L 403.130549 86.186362 
L 404.755446 80.330354 
L 406.380344 75.053589 
L 408.005242 70.302688 
L 409.630139 66.03508 
L 411.255037 62.216369 
L 412.879934 58.818496 
L 414.504832 55.818432 
L 416.12973 53.197225 
L 417.754627 50.939291 
L 419.379525 49.031884 
L 421.004423 47.464701 
L 422.62932 46.229576 
L 424.254218 45.320255 
L 425.879115 44.732236 
L 427.504013 44.462652 
L 429.128911 44.510199 
L 430.753808 44.875106 
L 432.378706 45.559142 
L 434.003604 46.565654 
L 435.628501 47.899658 
L 437.253399 49.567958 
L 438.878296 51.579336 
L 440.503194 53.944793 
L 442.128092 56.677879 
L 443.752989 59.795126 
L 445.377887 63.316625 
L 447.002785 67.2668 
L 448.627682 71.675453 
L 450.25258 76.579212 
L 451.877477 82.023565 
L 453.502375 88.06582 
L 455.127273 94.779517 
L 456.75217 102.261318 
L 458.377068 110.642292 
L 460.001966 120.107594 
L 461.626863 130.933816 
L 463.251761 143.568463 
L 464.876658 158.830537 
L 465.689107 167.941128 
L 466.501556 178.586215 
L 467.314005 191.729145 
L 468.126454 210.330496 
L 468.938903 242.116364 
L 549.371335 242.116364 
L 550.183784 215.642289 
L 550.996233 194.833476 
L 551.808681 180.967823 
L 552.62113 169.927069 
L 554.246028 152.329797 
L 555.870925 138.257462 
L 557.495823 126.41664 
L 559.120721 116.176333 
L 560.745618 107.171682 
L 562.370516 99.168983 
L 563.995414 92.007901 
L 565.620311 85.572893 
L 567.245209 79.777592 
L 568.870106 74.555612 
L 570.495004 69.854803 
L 572.119902 65.633517 
L 573.744799 61.85806 
L 575.369697 58.50093 
L 576.994595 55.539544 
L 578.619492 52.955315 
L 580.24439 50.732964 
L 581.869287 48.860007 
L 583.494185 47.326364 
L 585.119083 46.12407 
L 586.74398 45.247054 
L 588.368878 44.690982 
L 589.993776 44.453144 
L 591.618673 44.532391 
L 593.243571 44.929107 
L 594.868468 45.645212 
L 596.493366 46.68422 
L 598.118264 48.051315 
L 599.743161 49.753494 
L 601.368059 51.799746 
L 602.992957 54.201311 
L 604.617854 56.972015 
L 606.242752 60.128718 
L 607.867649 63.691907 
L 609.492547 67.686488 
L 611.117445 72.142876 
L 612.742342 77.098479 
L 614.36724 82.599817 
L 615.992138 88.705589 
L 617.617035 95.491286 
L 619.241933 103.056407 
L 620.86683 111.536348 
L 622.491728 121.123307 
L 624.116626 132.106319 
L 625.741523 144.957676 
L 627.366421 160.555822 
L 628.17887 169.927069 
L 628.991319 180.967823 
L 629.803767 194.833476 
L 630.616216 215.642289 
L 631.428665 242.116364 
L 711.861097 242.116364 
L 712.673546 210.330496 
L 713.485995 191.729145 
L 714.298444 178.586215 
L 715.110893 167.941128 
L 716.73579 150.794023 
L 718.360688 136.986516 
L 719.985586 125.328048 
L 721.610483 115.224887 
L 723.235381 106.329421 
L 724.860278 98.417194 
L 726.485176 91.333343 
L 728.110074 84.965805 
L 729.734971 79.230552 
L 731.359869 74.062838 
L 732.984767 69.411708 
L 734.609664 65.236406 
L 736.234562 61.50393 
L 737.859459 58.187318 
L 739.484357 55.264425 
L 741.109255 52.717022 
L 742.734152 50.53013 
L 744.35905 48.69152 
L 745.983948 47.191338 
L 747.608845 46.021816 
L 749.233743 45.177062 
L 750.85864 44.652908 
L 752.483538 44.446806 
L 754.108436 44.557757 
L 755.733333 44.986299 
L 757.358231 45.734511 
L 758.983129 46.806065 
L 760.608026 48.206323 
L 762.232924 49.942469 
L 763.857821 52.023706 
L 765.482719 54.461517 
L 767.107617 57.270008 
L 768.732514 60.466372 
L 770.357412 64.071498 
L 771.98231 68.110789 
L 773.607207 72.615284 
L 775.232105 77.623194 
L 776.857002 83.182099 
L 778.4819 89.352139 
L 780.106798 96.210822 
L 781.731695 103.860599 
L 783.356593 112.441399 
L 784.981491 122.152841 
L 786.606388 133.297211 
L 788.231286 146.373584 
L 789.856183 162.32625 
L 790.668632 171.978143 
L 791.481081 183.456707 
L 792.29353 198.170735 
L 793.105979 222.363922 
L 793.918428 242.116364 
L 874.35086 242.116364 
L 875.163309 205.804475 
L 875.975758 188.817028 
L 876.788206 176.300235 
L 877.600655 166.01522 
L 879.225553 149.2904 
L 880.85045 135.73664 
L 882.475348 124.254825 
L 884.100246 114.285422 
L 885.725143 105.496938 
L 887.350041 97.673655 
L 888.974939 90.665925 
L 890.599836 84.365024 
L 892.224734 78.689176 
L 893.849631 73.575221 
L 895.474529 68.973364 
L 897.099427 64.843719 
L 898.724324 61.153954 
L 900.349222 57.87764 
L 901.97412 54.993059 
L 903.599017 52.482332 
L 905.223915 50.330776 
L 906.848812 48.526417 
L 908.47371 47.059618 
L 910.098608 45.922807 
L 911.723505 45.110274 
L 913.348403 44.618014 
L 914.973301 44.443636 
L 916.598198 44.586298 
L 918.223096 45.046687 
L 919.847993 45.827041 
L 921.472891 46.931195 
L 923.097789 48.364687 
L 924.722686 50.134893 
L 926.347584 52.251231 
L 927.972482 54.725428 
L 929.597379 57.571877 
L 931.222277 60.80811 
L 932.847174 64.455426 
L 934.472072 68.539736 
L 936.09697 73.092718 
L 937.721867 78.153408 
L 939.346765 83.770479 
L 940.971663 90.005554 
L 942.59656 96.938238 
L 944.221458 104.674054 
L 945.846355 113.357677 
L 947.471253 123.196554 
L 949.096151 134.507102 
L 950.721048 147.817392 
L 952.345946 164.144897 
L 953.158395 174.100242 
L 953.970844 186.067156 
L 954.783292 201.798722 
L 955.595741 233.273943 
L 956.40819 242.116364 
L 996.218182 242.116364 
L 996.218182 242.116364 
" style="fill:none;stroke:#1f77b4;stroke-linecap:square;stroke-width:1.5;"/>
   </g>
   <g id="patch_3">
    <path d="M 144 252 
L 144 34.56 
" style="fill:none;stroke:#000000;stroke-linecap:square;stroke-linejoin:miter;stroke-width:0.8;"/>
   </g>
   <g id="patch_4">
    <path d="M 1036.8 252 
L 1036.8 34.56 
" style="fill:none;stroke:#000000;stroke-linecap:square;stroke-linejoin:miter;stroke-width:0.8;"/>
   </g>
   <g id="patch_5">
    <path d="M 144 252 
L 1036.8 252 
" style="fill:none;stroke:#000000;stroke-linecap:square;stroke-linejoin:miter;stroke-width:0.8;"/>
   </g>
   <g id="patch_6">
    <path d="M 144 34.56 
L 1036.8 34.56 
" style="fill:none;stroke:#000000;stroke-linecap:square;stroke-linejoin:miter;stroke-width:0.8;"/>
   </g>
  </g>
 </g>
 <defs>
  <clipPath id="padb4c50119">
   <rect height="217.44" width="892.8" x="144" y="34.56"/>
  </clipPath>
 </defs>
</svg>
