<?xml version="1.0" encoding="utf-8" standalone="no"?>
<!DOCTYPE svg PUBLIC "-//W3C//DTD SVG 1.1//EN"
  "http://www.w3.org/Graphics/SVG/1.1/DTD/svg11.dtd">
<!-- Created with matplotlib (http://matplotlib.org/) -->
<svg height="288pt" version="1.1" viewBox="0 0 432 288" width="432pt" xmlns="http://www.w3.org/2000/svg" xmlns:xlink="http://www.w3.org/1999/xlink">
 <defs>
  <style type="text/css">
*{stroke-linecap:butt;stroke-linejoin:round;}
  </style>
 </defs>
 <g id="figure_1">
  <g id="patch_1">
   <path d="M 0 288 
L 432 288 
L 432 0 
L 0 0 
z
" style="fill:#ffffff;"/>
  </g>
  <g id="axes_1">
   <g id="patch_2">
    <path d="M 54 252 
L 388.8 252 
L 388.8 34.56 
L 54 34.56 
z
" style="fill:#ffffff;"/>
   </g>
   <g id="matplotlib.axis_1">
    <g id="xtick_1">
     <g id="line2d_1">
      <defs>
       <path d="M 0 0 
L 0 3.5 
" id="md511c3a255" style="stroke:#000000;stroke-width:0.8;"/>
      </defs>
      <g>
       <use style="stroke:#000000;stroke-width:0.8;" x="69.218182" xlink:href="#md511c3a255" y="252"/>
      </g>
     </g>
     <g id="text_1">
      <!-- 0.0 -->
      <defs>
       <path d="M 31.78125 66.40625 
Q 24.171875 66.40625 20.328125 58.90625 
Q 16.5 51.421875 16.5 36.375 
Q 16.5 21.390625 20.328125 13.890625 
Q 24.171875 6.390625 31.78125 6.390625 
Q 39.453125 6.390625 43.28125 13.890625 
Q 47.125 21.390625 47.125 36.375 
Q 47.125 51.421875 43.28125 58.90625 
Q 39.453125 66.40625 31.78125 66.40625 
z
M 31.78125 74.21875 
Q 44.046875 74.21875 50.515625 64.515625 
Q 56.984375 54.828125 56.984375 36.375 
Q 56.984375 17.96875 50.515625 8.265625 
Q 44.046875 -1.421875 31.78125 -1.421875 
Q 19.53125 -1.421875 13.0625 8.265625 
Q 6.59375 17.96875 6.59375 36.375 
Q 6.59375 54.828125 13.0625 64.515625 
Q 19.53125 74.21875 31.78125 74.21875 
z
" id="DejaVuSans-30"/>
       <path d="M 10.6875 12.40625 
L 21 12.40625 
L 21 0 
L 10.6875 0 
z
" id="DejaVuSans-2e"/>
      </defs>
      <g transform="translate(61.266619 266.598437)scale(0.1 -0.1)">
       <use xlink:href="#DejaVuSans-30"/>
       <use x="63.623047" xlink:href="#DejaVuSans-2e"/>
       <use x="95.410156" xlink:href="#DejaVuSans-30"/>
      </g>
     </g>
    </g>
    <g id="xtick_2">
     <g id="line2d_2">
      <g>
       <use style="stroke:#000000;stroke-width:0.8;" x="130.090909" xlink:href="#md511c3a255" y="252"/>
      </g>
     </g>
     <g id="text_2">
      <!-- 0.2 -->
      <defs>
       <path d="M 19.1875 8.296875 
L 53.609375 8.296875 
L 53.609375 0 
L 7.328125 0 
L 7.328125 8.296875 
Q 12.9375 14.109375 22.625 23.890625 
Q 32.328125 33.6875 34.8125 36.53125 
Q 39.546875 41.84375 41.421875 45.53125 
Q 43.3125 49.21875 43.3125 52.78125 
Q 43.3125 58.59375 39.234375 62.25 
Q 35.15625 65.921875 28.609375 65.921875 
Q 23.96875 65.921875 18.8125 64.3125 
Q 13.671875 62.703125 7.8125 59.421875 
L 7.8125 69.390625 
Q 13.765625 71.78125 18.9375 73 
Q 24.125 74.21875 28.421875 74.21875 
Q 39.75 74.21875 46.484375 68.546875 
Q 53.21875 62.890625 53.21875 53.421875 
Q 53.21875 48.921875 51.53125 44.890625 
Q 49.859375 40.875 45.40625 35.40625 
Q 44.1875 33.984375 37.640625 27.21875 
Q 31.109375 20.453125 19.1875 8.296875 
z
" id="DejaVuSans-32"/>
      </defs>
      <g transform="translate(122.139347 266.598437)scale(0.1 -0.1)">
       <use xlink:href="#DejaVuSans-30"/>
       <use x="63.623047" xlink:href="#DejaVuSans-2e"/>
       <use x="95.410156" xlink:href="#DejaVuSans-32"/>
      </g>
     </g>
    </g>
    <g id="xtick_3">
     <g id="line2d_3">
      <g>
       <use style="stroke:#000000;stroke-width:0.8;" x="190.963636" xlink:href="#md511c3a255" y="252"/>
      </g>
     </g>
     <g id="text_3">
      <!-- 0.4 -->
      <defs>
       <path d="M 37.796875 64.3125 
L 12.890625 25.390625 
L 37.796875 25.390625 
z
M 35.203125 72.90625 
L 47.609375 72.90625 
L 47.609375 25.390625 
L 58.015625 25.390625 
L 58.015625 17.1875 
L 47.609375 17.1875 
L 47.609375 0 
L 37.796875 0 
L 37.796875 17.1875 
L 4.890625 17.1875 
L 4.890625 26.703125 
z
" id="DejaVuSans-34"/>
      </defs>
      <g transform="translate(183.012074 266.598437)scale(0.1 -0.1)">
       <use xlink:href="#DejaVuSans-30"/>
       <use x="63.623047" xlink:href="#DejaVuSans-2e"/>
       <use x="95.410156" xlink:href="#DejaVuSans-34"/>
      </g>
     </g>
    </g>
    <g id="xtick_4">
     <g id="line2d_4">
      <g>
       <use style="stroke:#000000;stroke-width:0.8;" x="251.836364" xlink:href="#md511c3a255" y="252"/>
      </g>
     </g>
     <g id="text_4">
      <!-- 0.6 -->
      <defs>
       <path d="M 33.015625 40.375 
Q 26.375 40.375 22.484375 35.828125 
Q 18.609375 31.296875 18.609375 23.390625 
Q 18.609375 15.53125 22.484375 10.953125 
Q 26.375 6.390625 33.015625 6.390625 
Q 39.65625 6.390625 43.53125 10.953125 
Q 47.40625 15.53125 47.40625 23.390625 
Q 47.40625 31.296875 43.53125 35.828125 
Q 39.65625 40.375 33.015625 40.375 
z
M 52.59375 71.296875 
L 52.59375 62.3125 
Q 48.875 64.0625 45.09375 64.984375 
Q 41.3125 65.921875 37.59375 65.921875 
Q 27.828125 65.921875 22.671875 59.328125 
Q 17.53125 52.734375 16.796875 39.40625 
Q 19.671875 43.65625 24.015625 45.921875 
Q 28.375 48.1875 33.59375 48.1875 
Q 44.578125 48.1875 50.953125 41.515625 
Q 57.328125 34.859375 57.328125 23.390625 
Q 57.328125 12.15625 50.6875 5.359375 
Q 44.046875 -1.421875 33.015625 -1.421875 
Q 20.359375 -1.421875 13.671875 8.265625 
Q 6.984375 17.96875 6.984375 36.375 
Q 6.984375 53.65625 15.1875 63.9375 
Q 23.390625 74.21875 37.203125 74.21875 
Q 40.921875 74.21875 44.703125 73.484375 
Q 48.484375 72.75 52.59375 71.296875 
z
" id="DejaVuSans-36"/>
      </defs>
      <g transform="translate(243.884801 266.598437)scale(0.1 -0.1)">
       <use xlink:href="#DejaVuSans-30"/>
       <use x="63.623047" xlink:href="#DejaVuSans-2e"/>
       <use x="95.410156" xlink:href="#DejaVuSans-36"/>
      </g>
     </g>
    </g>
    <g id="xtick_5">
     <g id="line2d_5">
      <g>
       <use style="stroke:#000000;stroke-width:0.8;" x="312.709091" xlink:href="#md511c3a255" y="252"/>
      </g>
     </g>
     <g id="text_5">
      <!-- 0.8 -->
      <defs>
       <path d="M 31.78125 34.625 
Q 24.75 34.625 20.71875 30.859375 
Q 16.703125 27.09375 16.703125 20.515625 
Q 16.703125 13.921875 20.71875 10.15625 
Q 24.75 6.390625 31.78125 6.390625 
Q 38.8125 6.390625 42.859375 10.171875 
Q 46.921875 13.96875 46.921875 20.515625 
Q 46.921875 27.09375 42.890625 30.859375 
Q 38.875 34.625 31.78125 34.625 
z
M 21.921875 38.8125 
Q 15.578125 40.375 12.03125 44.71875 
Q 8.5 49.078125 8.5 55.328125 
Q 8.5 64.0625 14.71875 69.140625 
Q 20.953125 74.21875 31.78125 74.21875 
Q 42.671875 74.21875 48.875 69.140625 
Q 55.078125 64.0625 55.078125 55.328125 
Q 55.078125 49.078125 51.53125 44.71875 
Q 48 40.375 41.703125 38.8125 
Q 48.828125 37.15625 52.796875 32.3125 
Q 56.78125 27.484375 56.78125 20.515625 
Q 56.78125 9.90625 50.3125 4.234375 
Q 43.84375 -1.421875 31.78125 -1.421875 
Q 19.734375 -1.421875 13.25 4.234375 
Q 6.78125 9.90625 6.78125 20.515625 
Q 6.78125 27.484375 10.78125 32.3125 
Q 14.796875 37.15625 21.921875 38.8125 
z
M 18.3125 54.390625 
Q 18.3125 48.734375 21.84375 45.5625 
Q 25.390625 42.390625 31.78125 42.390625 
Q 38.140625 42.390625 41.71875 45.5625 
Q 45.3125 48.734375 45.3125 54.390625 
Q 45.3125 60.0625 41.71875 63.234375 
Q 38.140625 66.40625 31.78125 66.40625 
Q 25.390625 66.40625 21.84375 63.234375 
Q 18.3125 60.0625 18.3125 54.390625 
z
" id="DejaVuSans-38"/>
      </defs>
      <g transform="translate(304.757528 266.598437)scale(0.1 -0.1)">
       <use xlink:href="#DejaVuSans-30"/>
       <use x="63.623047" xlink:href="#DejaVuSans-2e"/>
       <use x="95.410156" xlink:href="#DejaVuSans-38"/>
      </g>
     </g>
    </g>
    <g id="xtick_6">
     <g id="line2d_6">
      <g>
       <use style="stroke:#000000;stroke-width:0.8;" x="373.581818" xlink:href="#md511c3a255" y="252"/>
      </g>
     </g>
     <g id="text_6">
      <!-- 1.0 -->
      <defs>
       <path d="M 12.40625 8.296875 
L 28.515625 8.296875 
L 28.515625 63.921875 
L 10.984375 60.40625 
L 10.984375 69.390625 
L 28.421875 72.90625 
L 38.28125 72.90625 
L 38.28125 8.296875 
L 54.390625 8.296875 
L 54.390625 0 
L 12.40625 0 
z
" id="DejaVuSans-31"/>
      </defs>
      <g transform="translate(365.630256 266.598437)scale(0.1 -0.1)">
       <use xlink:href="#DejaVuSans-31"/>
       <use x="63.623047" xlink:href="#DejaVuSans-2e"/>
       <use x="95.410156" xlink:href="#DejaVuSans-30"/>
      </g>
     </g>
    </g>
   </g>
   <g id="matplotlib.axis_2">
    <g id="ytick_1">
     <g id="line2d_7">
      <defs>
       <path d="M 0 0 
L -3.5 0 
" id="mf5035b1918" style="stroke:#000000;stroke-width:0.8;"/>
      </defs>
      <g>
       <use style="stroke:#000000;stroke-width:0.8;" x="54" xlink:href="#mf5035b1918" y="226.874765"/>
      </g>
     </g>
     <g id="text_7">
      <!-- −1.0 -->
      <defs>
       <path d="M 10.59375 35.5 
L 73.1875 35.5 
L 73.1875 27.203125 
L 10.59375 27.203125 
z
" id="DejaVuSans-2212"/>
      </defs>
      <g transform="translate(22.717187 230.673984)scale(0.1 -0.1)">
       <use xlink:href="#DejaVuSans-2212"/>
       <use x="83.789062" xlink:href="#DejaVuSans-31"/>
       <use x="147.412109" xlink:href="#DejaVuSans-2e"/>
       <use x="179.199219" xlink:href="#DejaVuSans-30"/>
      </g>
     </g>
    </g>
    <g id="ytick_2">
     <g id="line2d_8">
      <g>
       <use style="stroke:#000000;stroke-width:0.8;" x="54" xlink:href="#mf5035b1918" y="185.077382"/>
      </g>
     </g>
     <g id="text_8">
      <!-- −0.5 -->
      <defs>
       <path d="M 10.796875 72.90625 
L 49.515625 72.90625 
L 49.515625 64.59375 
L 19.828125 64.59375 
L 19.828125 46.734375 
Q 21.96875 47.46875 24.109375 47.828125 
Q 26.265625 48.1875 28.421875 48.1875 
Q 40.625 48.1875 47.75 41.5 
Q 54.890625 34.8125 54.890625 23.390625 
Q 54.890625 11.625 47.5625 5.09375 
Q 40.234375 -1.421875 26.90625 -1.421875 
Q 22.3125 -1.421875 17.546875 -0.640625 
Q 12.796875 0.140625 7.71875 1.703125 
L 7.71875 11.625 
Q 12.109375 9.234375 16.796875 8.0625 
Q 21.484375 6.890625 26.703125 6.890625 
Q 35.15625 6.890625 40.078125 11.328125 
Q 45.015625 15.765625 45.015625 23.390625 
Q 45.015625 31 40.078125 35.4375 
Q 35.15625 39.890625 26.703125 39.890625 
Q 22.75 39.890625 18.8125 39.015625 
Q 14.890625 38.140625 10.796875 36.28125 
z
" id="DejaVuSans-35"/>
      </defs>
      <g transform="translate(22.717187 188.876601)scale(0.1 -0.1)">
       <use xlink:href="#DejaVuSans-2212"/>
       <use x="83.789062" xlink:href="#DejaVuSans-30"/>
       <use x="147.412109" xlink:href="#DejaVuSans-2e"/>
       <use x="179.199219" xlink:href="#DejaVuSans-35"/>
      </g>
     </g>
    </g>
    <g id="ytick_3">
     <g id="line2d_9">
      <g>
       <use style="stroke:#000000;stroke-width:0.8;" x="54" xlink:href="#mf5035b1918" y="143.28"/>
      </g>
     </g>
     <g id="text_9">
      <!-- 0.0 -->
      <g transform="translate(31.096875 147.079219)scale(0.1 -0.1)">
       <use xlink:href="#DejaVuSans-30"/>
       <use x="63.623047" xlink:href="#DejaVuSans-2e"/>
       <use x="95.410156" xlink:href="#DejaVuSans-30"/>
      </g>
     </g>
    </g>
    <g id="ytick_4">
     <g id="line2d_10">
      <g>
       <use style="stroke:#000000;stroke-width:0.8;" x="54" xlink:href="#mf5035b1918" y="101.482618"/>
      </g>
     </g>
     <g id="text_10">
      <!-- 0.5 -->
      <g transform="translate(31.096875 105.281836)scale(0.1 -0.1)">
       <use xlink:href="#DejaVuSans-30"/>
       <use x="63.623047" xlink:href="#DejaVuSans-2e"/>
       <use x="95.410156" xlink:href="#DejaVuSans-35"/>
      </g>
     </g>
    </g>
    <g id="ytick_5">
     <g id="line2d_11">
      <g>
       <use style="stroke:#000000;stroke-width:0.8;" x="54" xlink:href="#mf5035b1918" y="59.685235"/>
      </g>
     </g>
     <g id="text_11">
      <!-- 1.0 -->
      <g transform="translate(31.096875 63.484454)scale(0.1 -0.1)">
       <use xlink:href="#DejaVuSans-31"/>
       <use x="63.623047" xlink:href="#DejaVuSans-2e"/>
       <use x="95.410156" xlink:href="#DejaVuSans-30"/>
      </g>
     </g>
    </g>
   </g>
   <g id="line2d_12">
    <path clip-path="url(#p5be9ea25f6)" d="M 69.218182 143.28 
L 72.569533 107.417264 
L 74.397543 89.838801 
L 75.920885 76.975496 
L 77.444226 66.085383 
L 78.662899 58.941647 
L 79.881572 53.25481 
L 80.795577 49.950811 
L 81.709582 47.454604 
L 82.623587 45.735906 
L 83.232924 45.00094 
L 83.84226 44.576266 
L 84.451597 44.443636 
L 85.060934 44.582834 
L 85.67027 44.97192 
L 86.279607 45.587492 
L 87.193612 46.881463 
L 88.412285 49.163144 
L 89.935627 52.612684 
L 93.896314 61.998036 
L 95.114988 64.339605 
L 96.333661 66.20273 
L 97.247666 67.240439 
L 98.161671 67.94927 
L 99.075676 68.323099 
L 99.989681 68.366865 
L 100.903686 68.09587 
L 101.81769 67.534824 
L 102.731695 66.716661 
L 103.950369 65.295368 
L 105.47371 63.142275 
L 110.043735 56.394314 
L 111.262408 55.040294 
L 112.481081 54.034081 
L 113.395086 53.537065 
L 114.309091 53.273491 
L 115.223096 53.245898 
L 116.137101 53.448828 
L 117.051106 53.86922 
L 118.269779 54.732453 
L 119.488452 55.881816 
L 121.316462 57.966202 
L 124.972482 62.299871 
L 126.495823 63.719587 
L 127.714496 64.549689 
L 128.628501 64.962326 
L 129.542506 65.181205 
L 130.456511 65.201211 
L 131.370516 65.024085 
L 132.284521 64.658282 
L 133.503194 63.903498 
L 134.721867 62.891088 
L 136.549877 61.036445 
L 140.510565 56.824423 
L 142.033907 55.586334 
L 143.25258 54.88689 
L 144.471253 54.493663 
L 145.385258 54.414911 
L 146.299263 54.525058 
L 147.213268 54.820309 
L 148.431941 55.483452 
L 149.650614 56.416293 
L 151.173956 57.873103 
L 156.962654 63.789815 
L 158.181327 64.579923 
L 159.4 65.067018 
L 160.314005 65.211698 
L 161.22801 65.158483 
L 162.142015 64.906771 
L 163.05602 64.462817 
L 164.274693 63.595217 
L 165.493366 62.457893 
L 167.321376 60.394108 
L 171.282064 55.725086 
L 172.500737 54.607422 
L 173.71941 53.784823 
L 174.633415 53.399462 
L 175.54742 53.234244 
L 176.461425 53.301 
L 177.37543 53.603877 
L 178.289435 54.138982 
L 179.20344 54.894291 
L 180.422113 56.208249 
L 181.945455 58.244394 
L 184.687469 62.446275 
L 186.515479 65.095838 
L 187.734152 66.558009 
L 188.952826 67.647169 
L 189.86683 68.161954 
L 190.780835 68.381964 
L 191.69484 68.283981 
L 192.608845 67.85437 
L 193.52285 67.089995 
L 194.436855 65.99887 
L 195.35086 64.600518 
L 196.569533 62.313501 
L 198.092875 58.928804 
L 202.662899 48.244291 
L 203.881572 46.183046 
L 204.795577 45.105522 
L 205.404914 44.65757 
L 206.014251 44.453782 
L 206.623587 44.516487 
L 207.232924 44.866359 
L 207.84226 45.522158 
L 208.451597 46.500502 
L 209.060934 47.815654 
L 209.974939 50.444772 
L 210.888943 53.885336 
L 211.802948 58.150534 
L 213.021622 65.114142 
L 214.240295 73.489316 
L 215.763636 85.789893 
L 217.591646 102.837592 
L 219.724324 124.991477 
L 225.81769 189.646785 
L 227.6457 205.919982 
L 229.169042 217.429737 
L 230.387715 225.108317 
L 231.606388 231.34477 
L 232.520393 235.059497 
L 233.434398 237.956704 
L 234.348403 240.059498 
L 234.95774 241.037842 
L 235.567076 241.693641 
L 236.176413 242.043513 
L 236.785749 242.106218 
L 237.395086 241.90243 
L 238.004423 241.454478 
L 238.918428 240.376954 
L 239.832432 238.888197 
L 241.051106 236.415807 
L 242.879115 232.090997 
L 245.62113 225.542242 
L 247.144472 222.488829 
L 248.363145 220.56113 
L 249.27715 219.470005 
L 250.191155 218.70563 
L 251.10516 218.276019 
L 252.019165 218.178036 
L 252.93317 218.398046 
L 253.847174 218.912831 
L 254.761179 219.690737 
L 255.979853 221.06945 
L 257.503194 223.18944 
L 262.377887 230.351751 
L 263.59656 231.665709 
L 264.815233 232.624614 
L 265.729238 233.083245 
L 266.643243 233.307446 
L 267.557248 233.296028 
L 268.471253 233.055749 
L 269.385258 232.600886 
L 270.603931 231.698026 
L 271.822604 230.518209 
L 273.650614 228.408536 
L 277.306634 224.102107 
L 278.829975 222.72039 
L 280.048649 221.928505 
L 280.962654 221.547515 
L 281.876658 221.361612 
L 282.790663 221.374767 
L 283.704668 221.584104 
L 284.618673 221.980077 
L 285.837346 222.770185 
L 287.360688 224.101952 
L 289.493366 226.361465 
L 292.540049 229.59347 
L 294.063391 230.866648 
L 295.282064 231.60172 
L 296.500737 232.034942 
L 297.414742 232.145089 
L 298.328747 232.066337 
L 299.242752 231.801399 
L 300.461425 231.175194 
L 301.680098 230.273248 
L 303.20344 228.843687 
L 305.945455 225.856379 
L 308.078133 223.668912 
L 309.601474 222.441385 
L 310.820147 221.759609 
L 311.734152 221.455356 
L 312.648157 221.343328 
L 313.562162 221.429769 
L 314.476167 221.71414 
L 315.390172 222.18905 
L 316.608845 223.093392 
L 318.132187 224.585198 
L 320.264865 227.096117 
L 323.00688 230.355156 
L 324.530221 231.827547 
L 325.748894 232.69078 
L 326.662899 233.111172 
L 327.576904 233.314102 
L 328.490909 233.286509 
L 329.404914 233.022935 
L 330.318919 232.525919 
L 331.232924 231.806133 
L 332.451597 230.533304 
L 333.974939 228.534626 
L 336.412285 224.821443 
L 338.544963 221.667815 
L 339.763636 220.166491 
L 340.98231 219.025176 
L 341.896314 218.46413 
L 342.810319 218.193135 
L 343.724324 218.236901 
L 344.638329 218.61073 
L 345.552334 219.319561 
L 346.466339 220.35727 
L 347.380344 221.706265 
L 348.599017 223.937092 
L 350.122359 227.273044 
L 354.997052 238.606237 
L 355.911057 240.155041 
L 356.825061 241.307093 
L 357.434398 241.812427 
L 358.043735 242.079409 
L 358.653071 242.085334 
L 359.262408 241.809092 
L 359.871744 241.23142 
L 360.481081 240.335145 
L 361.090418 239.105396 
L 362.004423 236.609189 
L 362.918428 233.30519 
L 363.832432 229.177699 
L 365.051106 222.394981 
L 366.269779 214.191896 
L 367.79312 202.084901 
L 369.316462 188.186504 
L 371.44914 166.461597 
L 373.581818 143.28 
L 373.581818 143.28 
" style="fill:none;stroke:#1f77b4;stroke-linecap:square;stroke-width:1.5;"/>
   </g>
   <g id="patch_3">
    <path d="M 54 252 
L 54 34.56 
" style="fill:none;stroke:#000000;stroke-linecap:square;stroke-linejoin:miter;stroke-width:0.8;"/>
   </g>
   <g id="patch_4">
    <path d="M 388.8 252 
L 388.8 34.56 
" style="fill:none;stroke:#000000;stroke-linecap:square;stroke-linejoin:miter;stroke-width:0.8;"/>
   </g>
   <g id="patch_5">
    <path d="M 54 252 
L 388.8 252 
" style="fill:none;stroke:#000000;stroke-linecap:square;stroke-linejoin:miter;stroke-width:0.8;"/>
   </g>
   <g id="patch_6">
    <path d="M 54 34.56 
L 388.8 34.56 
" style="fill:none;stroke:#000000;stroke-linecap:square;stroke-linejoin:miter;stroke-width:0.8;"/>
   </g>
  </g>
 </g>
 <defs>
  <clipPath id="p5be9ea25f6">
   <rect height="217.44" width="334.8" x="54" y="34.56"/>
  </clipPath>
 </defs>
</svg>
