<?xml version="1.0" encoding="utf-8" standalone="no"?>
<!DOCTYPE svg PUBLIC "-//W3C//DTD SVG 1.1//EN"
  "http://www.w3.org/Graphics/SVG/1.1/DTD/svg11.dtd">
<!-- Created with matplotlib (http://matplotlib.org/) -->
<svg height="288pt" version="1.1" viewBox="0 0 432 288" width="432pt" xmlns="http://www.w3.org/2000/svg" xmlns:xlink="http://www.w3.org/1999/xlink">
 <defs>
  <style type="text/css">
*{stroke-linecap:butt;stroke-linejoin:round;}
  </style>
 </defs>
 <g id="figure_1">
  <g id="patch_1">
   <path d="M 0 288 
L 432 288 
L 432 0 
L 0 0 
z
" style="fill:#ffffff;"/>
  </g>
  <g id="axes_1">
   <g id="patch_2">
    <path d="M 54 252 
L 388.8 252 
L 388.8 34.56 
L 54 34.56 
z
" style="fill:#ffffff;"/>
   </g>
   <g id="matplotlib.axis_1">
    <g id="xtick_1">
     <g id="line2d_1">
      <defs>
       <path d="M 0 0 
L 0 3.5 
" id="m8b31a5adea" style="stroke:#000000;stroke-width:0.8;"/>
      </defs>
      <g>
       <use style="stroke:#000000;stroke-width:0.8;" x="69.218182" xlink:href="#m8b31a5adea" y="252"/>
      </g>
     </g>
     <g id="text_1">
      <!-- 0 -->
      <defs>
       <path d="M 31.78125 66.40625 
Q 24.171875 66.40625 20.328125 58.90625 
Q 16.5 51.421875 16.5 36.375 
Q 16.5 21.390625 20.328125 13.890625 
Q 24.171875 6.390625 31.78125 6.390625 
Q 39.453125 6.390625 43.28125 13.890625 
Q 47.125 21.390625 47.125 36.375 
Q 47.125 51.421875 43.28125 58.90625 
Q 39.453125 66.40625 31.78125 66.40625 
z
M 31.78125 74.21875 
Q 44.046875 74.21875 50.515625 64.515625 
Q 56.984375 54.828125 56.984375 36.375 
Q 56.984375 17.96875 50.515625 8.265625 
Q 44.046875 -1.421875 31.78125 -1.421875 
Q 19.53125 -1.421875 13.0625 8.265625 
Q 6.59375 17.96875 6.59375 36.375 
Q 6.59375 54.828125 13.0625 64.515625 
Q 19.53125 74.21875 31.78125 74.21875 
z
" id="DejaVuSans-30"/>
      </defs>
      <g transform="translate(66.036932 266.598437)scale(0.1 -0.1)">
       <use xlink:href="#DejaVuSans-30"/>
      </g>
     </g>
    </g>
    <g id="xtick_2">
     <g id="line2d_2">
      <g>
       <use style="stroke:#000000;stroke-width:0.8;" x="130.090909" xlink:href="#m8b31a5adea" y="252"/>
      </g>
     </g>
     <g id="text_2">
      <!-- 1 -->
      <defs>
       <path d="M 12.40625 8.296875 
L 28.515625 8.296875 
L 28.515625 63.921875 
L 10.984375 60.40625 
L 10.984375 69.390625 
L 28.421875 72.90625 
L 38.28125 72.90625 
L 38.28125 8.296875 
L 54.390625 8.296875 
L 54.390625 0 
L 12.40625 0 
z
" id="DejaVuSans-31"/>
      </defs>
      <g transform="translate(126.909659 266.598437)scale(0.1 -0.1)">
       <use xlink:href="#DejaVuSans-31"/>
      </g>
     </g>
    </g>
    <g id="xtick_3">
     <g id="line2d_3">
      <g>
       <use style="stroke:#000000;stroke-width:0.8;" x="190.963636" xlink:href="#m8b31a5adea" y="252"/>
      </g>
     </g>
     <g id="text_3">
      <!-- 2 -->
      <defs>
       <path d="M 19.1875 8.296875 
L 53.609375 8.296875 
L 53.609375 0 
L 7.328125 0 
L 7.328125 8.296875 
Q 12.9375 14.109375 22.625 23.890625 
Q 32.328125 33.6875 34.8125 36.53125 
Q 39.546875 41.84375 41.421875 45.53125 
Q 43.3125 49.21875 43.3125 52.78125 
Q 43.3125 58.59375 39.234375 62.25 
Q 35.15625 65.921875 28.609375 65.921875 
Q 23.96875 65.921875 18.8125 64.3125 
Q 13.671875 62.703125 7.8125 59.421875 
L 7.8125 69.390625 
Q 13.765625 71.78125 18.9375 73 
Q 24.125 74.21875 28.421875 74.21875 
Q 39.75 74.21875 46.484375 68.546875 
Q 53.21875 62.890625 53.21875 53.421875 
Q 53.21875 48.921875 51.53125 44.890625 
Q 49.859375 40.875 45.40625 35.40625 
Q 44.1875 33.984375 37.640625 27.21875 
Q 31.109375 20.453125 19.1875 8.296875 
z
" id="DejaVuSans-32"/>
      </defs>
      <g transform="translate(187.782386 266.598437)scale(0.1 -0.1)">
       <use xlink:href="#DejaVuSans-32"/>
      </g>
     </g>
    </g>
    <g id="xtick_4">
     <g id="line2d_4">
      <g>
       <use style="stroke:#000000;stroke-width:0.8;" x="251.836364" xlink:href="#m8b31a5adea" y="252"/>
      </g>
     </g>
     <g id="text_4">
      <!-- 3 -->
      <defs>
       <path d="M 40.578125 39.3125 
Q 47.65625 37.796875 51.625 33 
Q 55.609375 28.21875 55.609375 21.1875 
Q 55.609375 10.40625 48.1875 4.484375 
Q 40.765625 -1.421875 27.09375 -1.421875 
Q 22.515625 -1.421875 17.65625 -0.515625 
Q 12.796875 0.390625 7.625 2.203125 
L 7.625 11.71875 
Q 11.71875 9.328125 16.59375 8.109375 
Q 21.484375 6.890625 26.8125 6.890625 
Q 36.078125 6.890625 40.9375 10.546875 
Q 45.796875 14.203125 45.796875 21.1875 
Q 45.796875 27.640625 41.28125 31.265625 
Q 36.765625 34.90625 28.71875 34.90625 
L 20.21875 34.90625 
L 20.21875 43.015625 
L 29.109375 43.015625 
Q 36.375 43.015625 40.234375 45.921875 
Q 44.09375 48.828125 44.09375 54.296875 
Q 44.09375 59.90625 40.109375 62.90625 
Q 36.140625 65.921875 28.71875 65.921875 
Q 24.65625 65.921875 20.015625 65.03125 
Q 15.375 64.15625 9.8125 62.3125 
L 9.8125 71.09375 
Q 15.4375 72.65625 20.34375 73.4375 
Q 25.25 74.21875 29.59375 74.21875 
Q 40.828125 74.21875 47.359375 69.109375 
Q 53.90625 64.015625 53.90625 55.328125 
Q 53.90625 49.265625 50.4375 45.09375 
Q 46.96875 40.921875 40.578125 39.3125 
z
" id="DejaVuSans-33"/>
      </defs>
      <g transform="translate(248.655114 266.598437)scale(0.1 -0.1)">
       <use xlink:href="#DejaVuSans-33"/>
      </g>
     </g>
    </g>
    <g id="xtick_5">
     <g id="line2d_5">
      <g>
       <use style="stroke:#000000;stroke-width:0.8;" x="312.709091" xlink:href="#m8b31a5adea" y="252"/>
      </g>
     </g>
     <g id="text_5">
      <!-- 4 -->
      <defs>
       <path d="M 37.796875 64.3125 
L 12.890625 25.390625 
L 37.796875 25.390625 
z
M 35.203125 72.90625 
L 47.609375 72.90625 
L 47.609375 25.390625 
L 58.015625 25.390625 
L 58.015625 17.1875 
L 47.609375 17.1875 
L 47.609375 0 
L 37.796875 0 
L 37.796875 17.1875 
L 4.890625 17.1875 
L 4.890625 26.703125 
z
" id="DejaVuSans-34"/>
      </defs>
      <g transform="translate(309.527841 266.598437)scale(0.1 -0.1)">
       <use xlink:href="#DejaVuSans-34"/>
      </g>
     </g>
    </g>
    <g id="xtick_6">
     <g id="line2d_6">
      <g>
       <use style="stroke:#000000;stroke-width:0.8;" x="373.581818" xlink:href="#m8b31a5adea" y="252"/>
      </g>
     </g>
     <g id="text_6">
      <!-- 5 -->
      <defs>
       <path d="M 10.796875 72.90625 
L 49.515625 72.90625 
L 49.515625 64.59375 
L 19.828125 64.59375 
L 19.828125 46.734375 
Q 21.96875 47.46875 24.109375 47.828125 
Q 26.265625 48.1875 28.421875 48.1875 
Q 40.625 48.1875 47.75 41.5 
Q 54.890625 34.8125 54.890625 23.390625 
Q 54.890625 11.625 47.5625 5.09375 
Q 40.234375 -1.421875 26.90625 -1.421875 
Q 22.3125 -1.421875 17.546875 -0.640625 
Q 12.796875 0.140625 7.71875 1.703125 
L 7.71875 11.625 
Q 12.109375 9.234375 16.796875 8.0625 
Q 21.484375 6.890625 26.703125 6.890625 
Q 35.15625 6.890625 40.078125 11.328125 
Q 45.015625 15.765625 45.015625 23.390625 
Q 45.015625 31 40.078125 35.4375 
Q 35.15625 39.890625 26.703125 39.890625 
Q 22.75 39.890625 18.8125 39.015625 
Q 14.890625 38.140625 10.796875 36.28125 
z
" id="DejaVuSans-35"/>
      </defs>
      <g transform="translate(370.400568 266.598437)scale(0.1 -0.1)">
       <use xlink:href="#DejaVuSans-35"/>
      </g>
     </g>
    </g>
   </g>
   <g id="matplotlib.axis_2">
    <g id="ytick_1">
     <g id="line2d_7">
      <defs>
       <path d="M 0 0 
L -3.5 0 
" id="m40a8a06a21" style="stroke:#000000;stroke-width:0.8;"/>
      </defs>
      <g>
       <use style="stroke:#000000;stroke-width:0.8;" x="54" xlink:href="#m40a8a06a21" y="234.137584"/>
      </g>
     </g>
     <g id="text_7">
      <!-- 0.0 -->
      <defs>
       <path d="M 10.6875 12.40625 
L 21 12.40625 
L 21 0 
L 10.6875 0 
z
" id="DejaVuSans-2e"/>
      </defs>
      <g transform="translate(31.096875 237.936803)scale(0.1 -0.1)">
       <use xlink:href="#DejaVuSans-30"/>
       <use x="63.623047" xlink:href="#DejaVuSans-2e"/>
       <use x="95.410156" xlink:href="#DejaVuSans-30"/>
      </g>
     </g>
    </g>
    <g id="ytick_2">
     <g id="line2d_8">
      <g>
       <use style="stroke:#000000;stroke-width:0.8;" x="54" xlink:href="#m40a8a06a21" y="197.758169"/>
      </g>
     </g>
     <g id="text_8">
      <!-- 0.2 -->
      <g transform="translate(31.096875 201.557388)scale(0.1 -0.1)">
       <use xlink:href="#DejaVuSans-30"/>
       <use x="63.623047" xlink:href="#DejaVuSans-2e"/>
       <use x="95.410156" xlink:href="#DejaVuSans-32"/>
      </g>
     </g>
    </g>
    <g id="ytick_3">
     <g id="line2d_9">
      <g>
       <use style="stroke:#000000;stroke-width:0.8;" x="54" xlink:href="#m40a8a06a21" y="161.378755"/>
      </g>
     </g>
     <g id="text_9">
      <!-- 0.4 -->
      <g transform="translate(31.096875 165.177973)scale(0.1 -0.1)">
       <use xlink:href="#DejaVuSans-30"/>
       <use x="63.623047" xlink:href="#DejaVuSans-2e"/>
       <use x="95.410156" xlink:href="#DejaVuSans-34"/>
      </g>
     </g>
    </g>
    <g id="ytick_4">
     <g id="line2d_10">
      <g>
       <use style="stroke:#000000;stroke-width:0.8;" x="54" xlink:href="#m40a8a06a21" y="124.99934"/>
      </g>
     </g>
     <g id="text_10">
      <!-- 0.6 -->
      <defs>
       <path d="M 33.015625 40.375 
Q 26.375 40.375 22.484375 35.828125 
Q 18.609375 31.296875 18.609375 23.390625 
Q 18.609375 15.53125 22.484375 10.953125 
Q 26.375 6.390625 33.015625 6.390625 
Q 39.65625 6.390625 43.53125 10.953125 
Q 47.40625 15.53125 47.40625 23.390625 
Q 47.40625 31.296875 43.53125 35.828125 
Q 39.65625 40.375 33.015625 40.375 
z
M 52.59375 71.296875 
L 52.59375 62.3125 
Q 48.875 64.0625 45.09375 64.984375 
Q 41.3125 65.921875 37.59375 65.921875 
Q 27.828125 65.921875 22.671875 59.328125 
Q 17.53125 52.734375 16.796875 39.40625 
Q 19.671875 43.65625 24.015625 45.921875 
Q 28.375 48.1875 33.59375 48.1875 
Q 44.578125 48.1875 50.953125 41.515625 
Q 57.328125 34.859375 57.328125 23.390625 
Q 57.328125 12.15625 50.6875 5.359375 
Q 44.046875 -1.421875 33.015625 -1.421875 
Q 20.359375 -1.421875 13.671875 8.265625 
Q 6.984375 17.96875 6.984375 36.375 
Q 6.984375 53.65625 15.1875 63.9375 
Q 23.390625 74.21875 37.203125 74.21875 
Q 40.921875 74.21875 44.703125 73.484375 
Q 48.484375 72.75 52.59375 71.296875 
z
" id="DejaVuSans-36"/>
      </defs>
      <g transform="translate(31.096875 128.798559)scale(0.1 -0.1)">
       <use xlink:href="#DejaVuSans-30"/>
       <use x="63.623047" xlink:href="#DejaVuSans-2e"/>
       <use x="95.410156" xlink:href="#DejaVuSans-36"/>
      </g>
     </g>
    </g>
    <g id="ytick_5">
     <g id="line2d_11">
      <g>
       <use style="stroke:#000000;stroke-width:0.8;" x="54" xlink:href="#m40a8a06a21" y="88.619925"/>
      </g>
     </g>
     <g id="text_11">
      <!-- 0.8 -->
      <defs>
       <path d="M 31.78125 34.625 
Q 24.75 34.625 20.71875 30.859375 
Q 16.703125 27.09375 16.703125 20.515625 
Q 16.703125 13.921875 20.71875 10.15625 
Q 24.75 6.390625 31.78125 6.390625 
Q 38.8125 6.390625 42.859375 10.171875 
Q 46.921875 13.96875 46.921875 20.515625 
Q 46.921875 27.09375 42.890625 30.859375 
Q 38.875 34.625 31.78125 34.625 
z
M 21.921875 38.8125 
Q 15.578125 40.375 12.03125 44.71875 
Q 8.5 49.078125 8.5 55.328125 
Q 8.5 64.0625 14.71875 69.140625 
Q 20.953125 74.21875 31.78125 74.21875 
Q 42.671875 74.21875 48.875 69.140625 
Q 55.078125 64.0625 55.078125 55.328125 
Q 55.078125 49.078125 51.53125 44.71875 
Q 48 40.375 41.703125 38.8125 
Q 48.828125 37.15625 52.796875 32.3125 
Q 56.78125 27.484375 56.78125 20.515625 
Q 56.78125 9.90625 50.3125 4.234375 
Q 43.84375 -1.421875 31.78125 -1.421875 
Q 19.734375 -1.421875 13.25 4.234375 
Q 6.78125 9.90625 6.78125 20.515625 
Q 6.78125 27.484375 10.78125 32.3125 
Q 14.796875 37.15625 21.921875 38.8125 
z
M 18.3125 54.390625 
Q 18.3125 48.734375 21.84375 45.5625 
Q 25.390625 42.390625 31.78125 42.390625 
Q 38.140625 42.390625 41.71875 45.5625 
Q 45.3125 48.734375 45.3125 54.390625 
Q 45.3125 60.0625 41.71875 63.234375 
Q 38.140625 66.40625 31.78125 66.40625 
Q 25.390625 66.40625 21.84375 63.234375 
Q 18.3125 60.0625 18.3125 54.390625 
z
" id="DejaVuSans-38"/>
      </defs>
      <g transform="translate(31.096875 92.419144)scale(0.1 -0.1)">
       <use xlink:href="#DejaVuSans-30"/>
       <use x="63.623047" xlink:href="#DejaVuSans-2e"/>
       <use x="95.410156" xlink:href="#DejaVuSans-38"/>
      </g>
     </g>
    </g>
    <g id="ytick_6">
     <g id="line2d_12">
      <g>
       <use style="stroke:#000000;stroke-width:0.8;" x="54" xlink:href="#m40a8a06a21" y="52.240511"/>
      </g>
     </g>
     <g id="text_12">
      <!-- 1.0 -->
      <g transform="translate(31.096875 56.03973)scale(0.1 -0.1)">
       <use xlink:href="#DejaVuSans-31"/>
       <use x="63.623047" xlink:href="#DejaVuSans-2e"/>
       <use x="95.410156" xlink:href="#DejaVuSans-30"/>
      </g>
     </g>
    </g>
   </g>
   <g id="line2d_13">
    <path clip-path="url(#pce931cb222)" d="M 69.218182 234.137584 
L 129.847174 52.968827 
L 130.151843 233.955505 
L 190.780835 52.786748 
L 191.085504 233.773426 
L 251.714496 52.604669 
L 252.019165 233.591347 
L 312.648157 52.42259 
L 312.952826 233.409267 
L 373.27715 53.150907 
L 373.581818 234.137584 
L 373.581818 234.137584 
" style="fill:none;stroke:#1f77b4;stroke-linecap:square;stroke-width:1.5;"/>
   </g>
   <g id="line2d_14">
    <path clip-path="url(#pce931cb222)" d="M 69.218182 145.098967 
L 70.132187 196.389888 
L 70.741523 222.05384 
L 71.35086 237.395901 
L 71.655528 241.005553 
L 71.960197 242.116364 
L 72.264865 241.051949 
L 72.569533 238.235973 
L 73.17887 229.327787 
L 74.092875 215.084672 
L 74.702211 209.222512 
L 75.00688 207.864179 
L 75.311548 207.510466 
L 75.616216 208.009518 
L 76.225553 210.63673 
L 76.834889 213.6286 
L 77.139558 214.630655 
L 77.444226 215.057633 
L 77.748894 214.809562 
L 78.053563 213.861687 
L 78.662899 210.122425 
L 80.490909 195.858792 
L 80.795577 194.702782 
L 81.100246 194.074761 
L 81.404914 193.92157 
L 81.709582 194.142955 
L 82.928256 195.881211 
L 83.232924 195.807246 
L 83.537592 195.324757 
L 83.84226 194.402435 
L 84.451597 191.345954 
L 86.279607 179.832662 
L 86.888943 178.019436 
L 87.193612 177.654342 
L 87.49828 177.573888 
L 88.716953 178.003973 
L 89.021622 177.748083 
L 89.32629 177.180484 
L 89.935627 175.023887 
L 90.849631 169.828591 
L 91.763636 164.451426 
L 92.372973 161.993775 
L 92.677641 161.238238 
L 92.98231 160.782411 
L 93.286978 160.574137 
L 93.896314 160.571056 
L 94.200983 160.578778 
L 94.505651 160.460331 
L 94.810319 160.131808 
L 95.114988 159.532457 
L 95.724324 157.428506 
L 96.638329 152.484638 
L 97.552334 147.318504 
L 98.161671 144.891175 
L 98.771007 143.626963 
L 99.075676 143.374327 
L 99.685012 143.279897 
L 99.989681 143.251894 
L 100.294349 143.109124 
L 100.599017 142.768696 
L 100.903686 142.168853 
L 101.513022 140.086426 
L 102.122359 136.966052 
L 103.6457 128.616085 
L 104.255037 126.752705 
L 104.559705 126.267142 
L 104.864373 126.031364 
L 105.47371 126.005582 
L 105.778378 126.023606 
L 106.083047 125.927787 
L 106.387715 125.628619 
L 106.692383 125.057548 
L 107.30172 122.972845 
L 107.911057 119.754916 
L 109.434398 110.999318 
L 110.043735 109.112395 
L 110.348403 108.675134 
L 110.653071 108.527389 
L 111.262408 108.766849 
L 111.871744 108.982539 
L 112.176413 108.798292 
L 112.481081 108.298926 
L 112.785749 107.431865 
L 113.395086 104.579529 
L 115.527764 91.736017 
L 115.832432 90.990255 
L 116.137101 90.677491 
L 116.441769 90.747732 
L 117.051106 91.628452 
L 117.660442 92.542457 
L 117.965111 92.628659 
L 118.269779 92.295257 
L 118.574447 91.459569 
L 119.183784 88.210548 
L 120.097789 80.573151 
L 120.707125 75.526703 
L 121.316462 72.236907 
L 121.62113 71.566983 
L 121.925799 71.596004 
L 122.230467 72.269012 
L 122.839803 74.96503 
L 123.44914 77.931528 
L 123.753808 78.839395 
L 124.058477 79.020755 
L 124.363145 78.278899 
L 124.667813 76.49642 
L 125.27715 69.848318 
L 126.800491 47.018279 
L 127.10516 44.846772 
L 127.409828 44.606038 
L 127.714496 46.683731 
L 128.019165 51.354792 
L 128.323833 58.755206 
L 128.93317 81.50397 
L 129.847174 130.571416 
L 131.065848 199.360018 
L 131.675184 224.077413 
L 132.284521 238.329118 
L 132.589189 241.418967 
L 132.893857 242.065171 
L 133.198526 240.613946 
L 133.503194 237.504845 
L 134.417199 223.246534 
L 135.026536 214.321608 
L 135.635872 208.86613 
L 135.940541 207.716726 
L 136.245209 207.548301 
L 136.549877 208.193098 
L 137.159214 210.955513 
L 137.76855 213.867784 
L 138.073219 214.76632 
L 138.377887 215.063905 
L 138.682555 214.675442 
L 138.987224 213.591168 
L 139.59656 209.643133 
L 141.119902 197.164491 
L 141.729238 194.535883 
L 142.033907 194.008733 
L 142.338575 193.939791 
L 142.643243 194.220744 
L 143.557248 195.69649 
L 143.861916 195.896028 
L 144.166585 195.745113 
L 144.471253 195.175644 
L 144.775921 194.165781 
L 145.385258 190.968176 
L 147.213268 179.582671 
L 147.822604 177.919975 
L 148.127273 177.618168 
L 148.431941 177.583988 
L 149.345946 178.027007 
L 149.650614 177.97506 
L 149.955283 177.661008 
L 150.259951 177.026202 
L 150.869287 174.737317 
L 151.783292 169.44445 
L 152.697297 164.152339 
L 153.306634 161.817222 
L 153.611302 161.124336 
L 153.915971 160.723123 
L 154.220639 160.555692 
L 155.439312 160.413759 
L 155.74398 160.03506 
L 156.048649 159.376766 
L 156.657985 157.154307 
L 157.57199 152.118688 
L 158.485995 147.026853 
L 159.095332 144.712535 
L 159.704668 143.559368 
L 160.009337 143.346438 
L 161.22801 143.059181 
L 161.532678 142.671001 
L 161.837346 142.014223 
L 162.446683 139.815115 
L 163.360688 134.807877 
L 164.274693 129.690554 
L 164.884029 127.351379 
L 165.188698 126.633076 
L 165.493366 126.201919 
L 165.798034 126.008347 
L 167.016708 125.886772 
L 167.321376 125.537887 
L 167.626044 124.906619 
L 168.235381 122.696082 
L 169.149386 117.500011 
L 170.063391 112.120938 
L 170.672727 109.702138 
L 170.977396 108.99911 
L 171.282064 108.624471 
L 171.586732 108.526274 
L 172.196069 108.805008 
L 172.500737 108.959108 
L 172.805405 108.967227 
L 173.110074 108.725825 
L 173.414742 108.155962 
L 173.71941 107.212373 
L 174.328747 104.221438 
L 176.156757 92.647877 
L 176.461425 91.551405 
L 176.766093 90.893992 
L 177.070762 90.663303 
L 177.37543 90.800203 
L 177.984767 91.738912 
L 178.594103 92.587841 
L 178.898771 92.598852 
L 179.20344 92.170105 
L 179.508108 91.228377 
L 180.117445 87.779797 
L 181.945455 73.265211 
L 182.250123 72.046911 
L 182.554791 71.517537 
L 182.859459 71.682179 
L 183.164128 72.470775 
L 183.773464 75.284125 
L 184.382801 78.159742 
L 184.687469 78.941033 
L 184.992138 78.951285 
L 185.296806 78.007768 
L 185.601474 76.011532 
L 186.210811 68.987454 
L 187.734152 46.451083 
L 188.038821 44.630388 
L 188.343489 44.82549 
L 188.648157 47.403984 
L 188.952826 52.614846 
L 189.562162 71.199322 
L 190.171499 99.524949 
L 192.304177 215.358286 
L 192.913514 233.943831 
L 193.218182 239.155234 
L 193.52285 241.734235 
L 193.827518 241.92978 
L 194.132187 240.109445 
L 194.741523 232.286249 
L 195.960197 213.594741 
L 196.569533 208.552517 
L 196.874201 207.608795 
L 197.17887 207.618873 
L 197.483538 208.400032 
L 199.00688 214.877714 
L 199.311548 215.042491 
L 199.616216 214.513257 
L 199.920885 213.295089 
L 200.530221 209.150017 
L 202.053563 196.807489 
L 202.662899 194.390022 
L 202.967568 193.961179 
L 203.272236 193.972112 
L 203.576904 194.306972 
L 204.490909 195.759731 
L 204.795577 195.896695 
L 205.100246 195.666088 
L 205.404914 195.008763 
L 206.014251 192.411094 
L 206.928256 186.382962 
L 207.84226 180.671129 
L 208.451597 178.404181 
L 208.756265 177.834246 
L 209.060934 177.592785 
L 209.365602 177.600864 
L 210.279607 178.033715 
L 210.584275 177.935566 
L 210.888943 177.560988 
L 211.193612 176.858029 
L 211.802948 174.439358 
L 212.716953 169.060364 
L 213.630958 163.864193 
L 214.240295 161.65353 
L 214.544963 161.022201 
L 214.849631 160.673265 
L 215.1543 160.54336 
L 216.068305 160.551664 
L 216.372973 160.358133 
L 216.677641 159.92703 
L 216.98231 159.208787 
L 217.591646 156.869727 
L 218.505651 151.752481 
L 219.419656 146.745153 
L 220.028993 144.54593 
L 220.333661 143.889094 
L 220.638329 143.500865 
L 220.942998 143.324599 
L 221.857002 143.213578 
L 222.161671 143.000687 
L 222.466339 142.562468 
L 222.771007 141.84763 
L 223.380344 139.533426 
L 224.294349 134.44167 
L 225.208354 129.405965 
L 225.81769 127.183388 
L 226.122359 126.525034 
L 226.427027 126.146284 
L 226.731695 125.99187 
L 227.6457 126.004316 
L 227.950369 125.836924 
L 228.255037 125.435764 
L 228.559705 124.74294 
L 229.169042 122.407947 
L 230.083047 117.115926 
L 230.997052 111.822967 
L 231.606388 109.533952 
L 231.911057 108.899077 
L 232.215725 108.584966 
L 232.520393 108.532974 
L 233.739066 108.941854 
L 234.043735 108.640109 
L 234.348403 107.99792 
L 234.95774 105.581351 
L 235.567076 101.871069 
L 236.785749 93.819668 
L 237.395086 91.384506 
L 237.699754 90.81495 
L 238.004423 90.663956 
L 238.309091 90.863433 
L 239.527764 92.620175 
L 239.832432 92.551315 
L 240.137101 92.024265 
L 240.441769 90.975647 
L 241.051106 87.332675 
L 242.879115 72.969107 
L 243.183784 71.884698 
L 243.488452 71.496094 
L 243.79312 71.793548 
L 244.097789 72.691978 
L 245.62113 79.011637 
L 245.925799 78.843394 
L 246.230467 77.694197 
L 246.535135 75.484304 
L 247.144472 68.098164 
L 248.363145 49.055902 
L 248.667813 45.946518 
L 248.972482 44.494915 
L 249.27715 45.140661 
L 249.581818 48.229995 
L 249.886486 53.984937 
L 250.495823 73.632802 
L 251.10516 102.779478 
L 253.237838 217.692438 
L 253.847174 235.203994 
L 254.151843 239.875593 
L 254.456511 241.953781 
L 254.761179 241.713476 
L 255.065848 239.54231 
L 255.675184 231.316446 
L 256.893857 212.905561 
L 257.198526 210.064036 
L 257.503194 208.281343 
L 257.807862 207.539288 
L 258.112531 207.72048 
L 258.417199 208.628226 
L 259.635872 214.290788 
L 259.940541 214.963915 
L 260.245209 214.993072 
L 260.549877 214.323289 
L 260.854545 212.974264 
L 261.463882 208.644583 
L 262.682555 198.349866 
L 263.291892 195.100643 
L 263.59656 194.26485 
L 263.901229 193.931354 
L 264.205897 194.017483 
L 264.815233 194.93143 
L 265.42457 195.812213 
L 265.729238 195.882523 
L 266.033907 195.569842 
L 266.338575 194.824168 
L 266.947912 192.068266 
L 269.08059 179.128339 
L 269.385258 178.261202 
L 269.689926 177.761766 
L 269.994595 177.577464 
L 270.299263 177.623623 
L 271.213268 178.032609 
L 271.517936 177.884915 
L 271.822604 177.447717 
L 272.127273 176.675957 
L 272.736609 174.13055 
L 273.955283 166.805439 
L 274.564619 163.587418 
L 275.173956 161.502588 
L 275.478624 160.931458 
L 275.783292 160.632242 
L 276.392629 160.554402 
L 277.001966 160.528654 
L 277.306634 160.29292 
L 277.611302 159.807413 
L 277.915971 159.028476 
L 278.525307 156.575226 
L 279.74398 149.594289 
L 280.353317 146.473832 
L 280.962654 144.391287 
L 281.267322 143.791389 
L 281.57199 143.450914 
L 282.181327 143.280095 
L 282.790663 143.185696 
L 283.095332 142.933102 
L 283.4 142.442775 
L 284.009337 140.596431 
L 284.618673 137.652152 
L 286.142015 129.131755 
L 286.751351 127.027685 
L 287.05602 126.428275 
L 287.360688 126.099703 
L 287.665356 125.981222 
L 288.579361 125.985877 
L 288.884029 125.777645 
L 289.188698 125.321874 
L 289.493366 124.5664 
L 290.102703 122.108871 
L 291.016708 116.731785 
L 291.930713 111.536385 
L 292.540049 109.379656 
L 292.844717 108.811989 
L 293.149386 108.556042 
L 293.454054 108.546699 
L 294.368059 108.986097 
L 294.672727 108.905691 
L 294.977396 108.540663 
L 295.282064 107.824623 
L 295.8914 105.260108 
L 296.805405 99.316616 
L 297.71941 93.504106 
L 298.328747 91.235375 
L 298.633415 90.7528 
L 298.938084 90.67876 
L 299.242752 90.936433 
L 300.461425 92.638411 
L 300.766093 92.485306 
L 301.070762 91.857388 
L 301.37543 90.701485 
L 301.984767 86.870174 
L 303.812776 72.698563 
L 304.117445 71.75055 
L 304.422113 71.502339 
L 304.726781 71.929189 
L 305.03145 72.931145 
L 306.250123 78.550303 
L 306.554791 79.049505 
L 306.859459 78.69598 
L 307.164128 77.337858 
L 307.468796 74.915297 
L 308.078133 67.18283 
L 309.296806 48.324725 
L 309.601474 45.508446 
L 309.906143 44.443636 
L 310.210811 45.553976 
L 310.515479 49.163104 
L 310.820147 55.465172 
L 311.429484 76.163247 
L 312.038821 106.094196 
L 313.86683 207.76937 
L 314.476167 229.502947 
L 314.780835 236.35448 
L 315.085504 240.491766 
L 315.390172 242.080224 
L 315.69484 241.419682 
L 315.999509 238.916483 
L 316.608845 230.328963 
L 317.52285 215.882261 
L 318.132187 209.621819 
L 318.436855 208.052115 
L 318.741523 207.506966 
L 319.046192 207.851324 
L 319.35086 208.875537 
L 320.569533 214.47176 
L 320.874201 215.024116 
L 321.17887 214.915454 
L 321.483538 214.105931 
L 321.788206 212.629599 
L 322.397543 208.12837 
L 323.616216 197.93638 
L 324.225553 194.890978 
L 324.530221 194.159935 
L 324.834889 193.918444 
L 325.139558 194.07481 
L 325.748894 195.041462 
L 326.358231 195.852999 
L 326.662899 195.85289 
L 326.967568 195.456123 
L 327.272236 194.621991 
L 327.881572 191.712943 
L 329.709582 180.097602 
L 330.318919 178.133055 
L 330.623587 177.701995 
L 330.928256 177.571434 
L 331.537592 177.831476 
L 331.84226 177.993344 
L 332.146929 178.022933 
L 332.451597 177.822579 
L 332.756265 177.320946 
L 333.060934 176.480035 
L 333.67027 173.811482 
L 335.802948 162.183245 
L 336.412285 160.851685 
L 336.716953 160.599421 
L 337.32629 160.56288 
L 337.935627 160.498426 
L 338.240295 160.217628 
L 338.544963 159.675956 
L 339.1543 157.691911 
L 339.763636 154.630585 
L 341.286978 146.213271 
L 341.896314 144.248484 
L 342.200983 143.70415 
L 342.505651 143.408938 
L 343.114988 143.279996 
L 343.724324 143.151092 
L 344.028993 142.855924 
L 344.333661 142.311645 
L 344.942998 140.346976 
L 345.552334 137.312039 
L 347.075676 128.868339 
L 347.685012 126.884173 
L 347.989681 126.342445 
L 348.294349 126.0616 
L 348.903686 125.997103 
L 349.513022 125.9606 
L 349.81769 125.708382 
L 350.122359 125.195893 
L 350.427027 124.376943 
L 351.036364 121.799334 
L 352.255037 114.474791 
L 352.864373 111.261687 
L 353.47371 109.23918 
L 353.778378 108.737482 
L 354.083047 108.537074 
L 354.387715 108.566625 
L 355.30172 108.98856 
L 355.606388 108.858051 
L 355.911057 108.427057 
L 356.215725 107.635954 
L 356.825061 104.925969 
L 357.739066 98.886419 
L 358.653071 93.203222 
L 359.262408 91.103991 
L 359.567076 90.70714 
L 359.871744 90.706958 
L 360.176413 91.018163 
L 361.090418 92.485119 
L 361.395086 92.641553 
L 361.699754 92.400151 
L 362.004423 91.669213 
L 362.309091 90.406089 
L 362.918428 86.393365 
L 364.441769 73.930749 
L 364.746437 72.454292 
L 365.051106 71.64463 
L 365.355774 71.535829 
L 365.660442 72.088062 
L 366.269779 74.649021 
L 366.879115 77.684199 
L 367.183784 78.708523 
L 367.488452 79.05304 
L 367.79312 78.508085 
L 368.097789 76.938593 
L 368.402457 74.305252 
L 369.011794 66.244002 
L 370.230467 47.644163 
L 370.535135 45.140642 
L 370.839803 44.479687 
L 371.144472 46.067661 
L 371.44914 50.204416 
L 371.753808 57.055399 
L 372.363145 78.787951 
L 373.27715 126.974059 
L 373.581818 145.098967 
L 373.581818 145.098967 
" style="fill:none;stroke:#ff7f0e;stroke-linecap:square;stroke-width:1.5;"/>
   </g>
   <g id="patch_3">
    <path d="M 54 252 
L 54 34.56 
" style="fill:none;stroke:#000000;stroke-linecap:square;stroke-linejoin:miter;stroke-width:0.8;"/>
   </g>
   <g id="patch_4">
    <path d="M 388.8 252 
L 388.8 34.56 
" style="fill:none;stroke:#000000;stroke-linecap:square;stroke-linejoin:miter;stroke-width:0.8;"/>
   </g>
   <g id="patch_5">
    <path d="M 54 252 
L 388.8 252 
" style="fill:none;stroke:#000000;stroke-linecap:square;stroke-linejoin:miter;stroke-width:0.8;"/>
   </g>
   <g id="patch_6">
    <path d="M 54 34.56 
L 388.8 34.56 
" style="fill:none;stroke:#000000;stroke-linecap:square;stroke-linejoin:miter;stroke-width:0.8;"/>
   </g>
  </g>
 </g>
 <defs>
  <clipPath id="pce931cb222">
   <rect height="217.44" width="334.8" x="54" y="34.56"/>
  </clipPath>
 </defs>
</svg>
