<?xml version="1.0" encoding="utf-8" standalone="no"?>
<!DOCTYPE svg PUBLIC "-//W3C//DTD SVG 1.1//EN"
  "http://www.w3.org/Graphics/SVG/1.1/DTD/svg11.dtd">
<!-- Created with matplotlib (http://matplotlib.org/) -->
<svg height="288pt" version="1.1" viewBox="0 0 1152 288" width="1152pt" xmlns="http://www.w3.org/2000/svg" xmlns:xlink="http://www.w3.org/1999/xlink">
 <defs>
  <style type="text/css">
*{stroke-linecap:butt;stroke-linejoin:round;}
  </style>
 </defs>
 <g id="figure_1">
  <g id="patch_1">
   <path d="M 0 288 
L 1152 288 
L 1152 0 
L 0 0 
z
" style="fill:#ffffff;"/>
  </g>
  <g id="axes_1">
   <g id="patch_2">
    <path d="M 144 252 
L 1036.8 252 
L 1036.8 34.56 
L 144 34.56 
z
" style="fill:#ffffff;"/>
   </g>
   <g id="matplotlib.axis_1">
    <g id="xtick_1">
     <g id="line2d_1">
      <defs>
       <path d="M 0 0 
L 0 3.5 
" id="m5dbf5e0bb1" style="stroke:#000000;stroke-width:0.8;"/>
      </defs>
      <g>
       <use style="stroke:#000000;stroke-width:0.8;" x="184.581818" xlink:href="#m5dbf5e0bb1" y="252"/>
      </g>
     </g>
     <g id="text_1">
      <!-- 0 -->
      <defs>
       <path d="M 31.78125 66.40625 
Q 24.171875 66.40625 20.328125 58.90625 
Q 16.5 51.421875 16.5 36.375 
Q 16.5 21.390625 20.328125 13.890625 
Q 24.171875 6.390625 31.78125 6.390625 
Q 39.453125 6.390625 43.28125 13.890625 
Q 47.125 21.390625 47.125 36.375 
Q 47.125 51.421875 43.28125 58.90625 
Q 39.453125 66.40625 31.78125 66.40625 
z
M 31.78125 74.21875 
Q 44.046875 74.21875 50.515625 64.515625 
Q 56.984375 54.828125 56.984375 36.375 
Q 56.984375 17.96875 50.515625 8.265625 
Q 44.046875 -1.421875 31.78125 -1.421875 
Q 19.53125 -1.421875 13.0625 8.265625 
Q 6.59375 17.96875 6.59375 36.375 
Q 6.59375 54.828125 13.0625 64.515625 
Q 19.53125 74.21875 31.78125 74.21875 
z
" id="DejaVuSans-30"/>
      </defs>
      <g transform="translate(181.400568 266.598437)scale(0.1 -0.1)">
       <use xlink:href="#DejaVuSans-30"/>
      </g>
     </g>
    </g>
    <g id="xtick_2">
     <g id="line2d_2">
      <g>
       <use style="stroke:#000000;stroke-width:0.8;" x="346.909091" xlink:href="#m5dbf5e0bb1" y="252"/>
      </g>
     </g>
     <g id="text_2">
      <!-- 1 -->
      <defs>
       <path d="M 12.40625 8.296875 
L 28.515625 8.296875 
L 28.515625 63.921875 
L 10.984375 60.40625 
L 10.984375 69.390625 
L 28.421875 72.90625 
L 38.28125 72.90625 
L 38.28125 8.296875 
L 54.390625 8.296875 
L 54.390625 0 
L 12.40625 0 
z
" id="DejaVuSans-31"/>
      </defs>
      <g transform="translate(343.727841 266.598437)scale(0.1 -0.1)">
       <use xlink:href="#DejaVuSans-31"/>
      </g>
     </g>
    </g>
    <g id="xtick_3">
     <g id="line2d_3">
      <g>
       <use style="stroke:#000000;stroke-width:0.8;" x="509.236364" xlink:href="#m5dbf5e0bb1" y="252"/>
      </g>
     </g>
     <g id="text_3">
      <!-- 2 -->
      <defs>
       <path d="M 19.1875 8.296875 
L 53.609375 8.296875 
L 53.609375 0 
L 7.328125 0 
L 7.328125 8.296875 
Q 12.9375 14.109375 22.625 23.890625 
Q 32.328125 33.6875 34.8125 36.53125 
Q 39.546875 41.84375 41.421875 45.53125 
Q 43.3125 49.21875 43.3125 52.78125 
Q 43.3125 58.59375 39.234375 62.25 
Q 35.15625 65.921875 28.609375 65.921875 
Q 23.96875 65.921875 18.8125 64.3125 
Q 13.671875 62.703125 7.8125 59.421875 
L 7.8125 69.390625 
Q 13.765625 71.78125 18.9375 73 
Q 24.125 74.21875 28.421875 74.21875 
Q 39.75 74.21875 46.484375 68.546875 
Q 53.21875 62.890625 53.21875 53.421875 
Q 53.21875 48.921875 51.53125 44.890625 
Q 49.859375 40.875 45.40625 35.40625 
Q 44.1875 33.984375 37.640625 27.21875 
Q 31.109375 20.453125 19.1875 8.296875 
z
" id="DejaVuSans-32"/>
      </defs>
      <g transform="translate(506.055114 266.598437)scale(0.1 -0.1)">
       <use xlink:href="#DejaVuSans-32"/>
      </g>
     </g>
    </g>
    <g id="xtick_4">
     <g id="line2d_4">
      <g>
       <use style="stroke:#000000;stroke-width:0.8;" x="671.563636" xlink:href="#m5dbf5e0bb1" y="252"/>
      </g>
     </g>
     <g id="text_4">
      <!-- 3 -->
      <defs>
       <path d="M 40.578125 39.3125 
Q 47.65625 37.796875 51.625 33 
Q 55.609375 28.21875 55.609375 21.1875 
Q 55.609375 10.40625 48.1875 4.484375 
Q 40.765625 -1.421875 27.09375 -1.421875 
Q 22.515625 -1.421875 17.65625 -0.515625 
Q 12.796875 0.390625 7.625 2.203125 
L 7.625 11.71875 
Q 11.71875 9.328125 16.59375 8.109375 
Q 21.484375 6.890625 26.8125 6.890625 
Q 36.078125 6.890625 40.9375 10.546875 
Q 45.796875 14.203125 45.796875 21.1875 
Q 45.796875 27.640625 41.28125 31.265625 
Q 36.765625 34.90625 28.71875 34.90625 
L 20.21875 34.90625 
L 20.21875 43.015625 
L 29.109375 43.015625 
Q 36.375 43.015625 40.234375 45.921875 
Q 44.09375 48.828125 44.09375 54.296875 
Q 44.09375 59.90625 40.109375 62.90625 
Q 36.140625 65.921875 28.71875 65.921875 
Q 24.65625 65.921875 20.015625 65.03125 
Q 15.375 64.15625 9.8125 62.3125 
L 9.8125 71.09375 
Q 15.4375 72.65625 20.34375 73.4375 
Q 25.25 74.21875 29.59375 74.21875 
Q 40.828125 74.21875 47.359375 69.109375 
Q 53.90625 64.015625 53.90625 55.328125 
Q 53.90625 49.265625 50.4375 45.09375 
Q 46.96875 40.921875 40.578125 39.3125 
z
" id="DejaVuSans-33"/>
      </defs>
      <g transform="translate(668.382386 266.598437)scale(0.1 -0.1)">
       <use xlink:href="#DejaVuSans-33"/>
      </g>
     </g>
    </g>
    <g id="xtick_5">
     <g id="line2d_5">
      <g>
       <use style="stroke:#000000;stroke-width:0.8;" x="833.890909" xlink:href="#m5dbf5e0bb1" y="252"/>
      </g>
     </g>
     <g id="text_5">
      <!-- 4 -->
      <defs>
       <path d="M 37.796875 64.3125 
L 12.890625 25.390625 
L 37.796875 25.390625 
z
M 35.203125 72.90625 
L 47.609375 72.90625 
L 47.609375 25.390625 
L 58.015625 25.390625 
L 58.015625 17.1875 
L 47.609375 17.1875 
L 47.609375 0 
L 37.796875 0 
L 37.796875 17.1875 
L 4.890625 17.1875 
L 4.890625 26.703125 
z
" id="DejaVuSans-34"/>
      </defs>
      <g transform="translate(830.709659 266.598437)scale(0.1 -0.1)">
       <use xlink:href="#DejaVuSans-34"/>
      </g>
     </g>
    </g>
    <g id="xtick_6">
     <g id="line2d_6">
      <g>
       <use style="stroke:#000000;stroke-width:0.8;" x="996.218182" xlink:href="#m5dbf5e0bb1" y="252"/>
      </g>
     </g>
     <g id="text_6">
      <!-- 5 -->
      <defs>
       <path d="M 10.796875 72.90625 
L 49.515625 72.90625 
L 49.515625 64.59375 
L 19.828125 64.59375 
L 19.828125 46.734375 
Q 21.96875 47.46875 24.109375 47.828125 
Q 26.265625 48.1875 28.421875 48.1875 
Q 40.625 48.1875 47.75 41.5 
Q 54.890625 34.8125 54.890625 23.390625 
Q 54.890625 11.625 47.5625 5.09375 
Q 40.234375 -1.421875 26.90625 -1.421875 
Q 22.3125 -1.421875 17.546875 -0.640625 
Q 12.796875 0.140625 7.71875 1.703125 
L 7.71875 11.625 
Q 12.109375 9.234375 16.796875 8.0625 
Q 21.484375 6.890625 26.703125 6.890625 
Q 35.15625 6.890625 40.078125 11.328125 
Q 45.015625 15.765625 45.015625 23.390625 
Q 45.015625 31 40.078125 35.4375 
Q 35.15625 39.890625 26.703125 39.890625 
Q 22.75 39.890625 18.8125 39.015625 
Q 14.890625 38.140625 10.796875 36.28125 
z
" id="DejaVuSans-35"/>
      </defs>
      <g transform="translate(993.036932 266.598437)scale(0.1 -0.1)">
       <use xlink:href="#DejaVuSans-35"/>
      </g>
     </g>
    </g>
   </g>
   <g id="matplotlib.axis_2">
    <g id="ytick_1">
     <g id="line2d_7">
      <defs>
       <path d="M 0 0 
L -3.5 0 
" id="m97d8d3c322" style="stroke:#000000;stroke-width:0.8;"/>
      </defs>
      <g>
       <use style="stroke:#000000;stroke-width:0.8;" x="144" xlink:href="#m97d8d3c322" y="237.110862"/>
      </g>
     </g>
     <g id="text_7">
      <!-- 0.00 -->
      <defs>
       <path d="M 10.6875 12.40625 
L 21 12.40625 
L 21 0 
L 10.6875 0 
z
" id="DejaVuSans-2e"/>
      </defs>
      <g transform="translate(114.734375 240.910081)scale(0.1 -0.1)">
       <use xlink:href="#DejaVuSans-30"/>
       <use x="63.623047" xlink:href="#DejaVuSans-2e"/>
       <use x="95.410156" xlink:href="#DejaVuSans-30"/>
       <use x="159.033203" xlink:href="#DejaVuSans-30"/>
      </g>
     </g>
    </g>
    <g id="ytick_2">
     <g id="line2d_8">
      <g>
       <use style="stroke:#000000;stroke-width:0.8;" x="144" xlink:href="#m97d8d3c322" y="199.077072"/>
      </g>
     </g>
     <g id="text_8">
      <!-- 0.05 -->
      <g transform="translate(114.734375 202.876291)scale(0.1 -0.1)">
       <use xlink:href="#DejaVuSans-30"/>
       <use x="63.623047" xlink:href="#DejaVuSans-2e"/>
       <use x="95.410156" xlink:href="#DejaVuSans-30"/>
       <use x="159.033203" xlink:href="#DejaVuSans-35"/>
      </g>
     </g>
    </g>
    <g id="ytick_3">
     <g id="line2d_9">
      <g>
       <use style="stroke:#000000;stroke-width:0.8;" x="144" xlink:href="#m97d8d3c322" y="161.043281"/>
      </g>
     </g>
     <g id="text_9">
      <!-- 0.10 -->
      <g transform="translate(114.734375 164.8425)scale(0.1 -0.1)">
       <use xlink:href="#DejaVuSans-30"/>
       <use x="63.623047" xlink:href="#DejaVuSans-2e"/>
       <use x="95.410156" xlink:href="#DejaVuSans-31"/>
       <use x="159.033203" xlink:href="#DejaVuSans-30"/>
      </g>
     </g>
    </g>
    <g id="ytick_4">
     <g id="line2d_10">
      <g>
       <use style="stroke:#000000;stroke-width:0.8;" x="144" xlink:href="#m97d8d3c322" y="123.009491"/>
      </g>
     </g>
     <g id="text_10">
      <!-- 0.15 -->
      <g transform="translate(114.734375 126.80871)scale(0.1 -0.1)">
       <use xlink:href="#DejaVuSans-30"/>
       <use x="63.623047" xlink:href="#DejaVuSans-2e"/>
       <use x="95.410156" xlink:href="#DejaVuSans-31"/>
       <use x="159.033203" xlink:href="#DejaVuSans-35"/>
      </g>
     </g>
    </g>
    <g id="ytick_5">
     <g id="line2d_11">
      <g>
       <use style="stroke:#000000;stroke-width:0.8;" x="144" xlink:href="#m97d8d3c322" y="84.9757"/>
      </g>
     </g>
     <g id="text_11">
      <!-- 0.20 -->
      <g transform="translate(114.734375 88.774919)scale(0.1 -0.1)">
       <use xlink:href="#DejaVuSans-30"/>
       <use x="63.623047" xlink:href="#DejaVuSans-2e"/>
       <use x="95.410156" xlink:href="#DejaVuSans-32"/>
       <use x="159.033203" xlink:href="#DejaVuSans-30"/>
      </g>
     </g>
    </g>
    <g id="ytick_6">
     <g id="line2d_12">
      <g>
       <use style="stroke:#000000;stroke-width:0.8;" x="144" xlink:href="#m97d8d3c322" y="46.94191"/>
      </g>
     </g>
     <g id="text_12">
      <!-- 0.25 -->
      <g transform="translate(114.734375 50.741128)scale(0.1 -0.1)">
       <use xlink:href="#DejaVuSans-30"/>
       <use x="63.623047" xlink:href="#DejaVuSans-2e"/>
       <use x="95.410156" xlink:href="#DejaVuSans-32"/>
       <use x="159.033203" xlink:href="#DejaVuSans-35"/>
      </g>
     </g>
    </g>
   </g>
   <g id="line2d_13">
    <path clip-path="url(#pef5e2ff5e9)" d="M 184.581818 237.333179 
L 189.456511 237.22925 
L 191.893857 236.931184 
L 195.143653 236.521092 
L 196.76855 236.573367 
L 198.393448 236.898422 
L 202.455692 238.179112 
L 203.268141 238.278613 
L 204.08059 238.254981 
L 204.893038 238.092842 
L 205.705487 237.791057 
L 207.330385 236.846825 
L 209.767731 235.280359 
L 210.58018 234.975297 
L 211.392629 234.887268 
L 212.205078 235.063827 
L 213.017527 235.529775 
L 213.829975 236.280407 
L 215.454873 238.442286 
L 217.079771 240.799535 
L 217.892219 241.6744 
L 218.704668 242.101653 
L 219.517117 241.888486 
L 220.329566 240.850389 
L 221.142015 238.824723 
L 221.954464 235.68363 
L 222.766912 231.345238 
L 223.579361 225.782154 
L 224.39181 219.026477 
L 226.016708 202.364769 
L 228.454054 172.418932 
L 230.8914 142.617142 
L 232.516298 125.961346 
L 233.328747 119.039545 
L 234.141196 113.118595 
L 234.953645 108.171147 
L 235.766093 104.115693 
L 236.578542 100.825966 
L 237.390991 98.143356 
L 239.015889 93.890228 
L 240.640786 89.994424 
L 242.265684 85.46412 
L 243.890581 79.934944 
L 247.952826 64.634245 
L 248.765274 62.108678 
L 249.577723 59.95796 
L 250.390172 58.216891 
L 251.202621 56.88692 
L 252.01507 55.93681 
L 252.827518 55.306563 
L 253.639967 54.914149 
L 256.889762 53.826873 
L 257.702211 53.27271 
L 258.51466 52.517684 
L 260.139558 50.457417 
L 262.576904 46.848231 
L 263.389353 45.83709 
L 264.201802 45.061191 
L 265.014251 44.583582 
L 265.826699 44.443636 
L 266.639148 44.652968 
L 267.451597 45.19422 
L 268.264046 46.022866 
L 269.888943 48.25856 
L 272.32629 51.771956 
L 273.138739 52.684914 
L 273.951188 53.399263 
L 274.763636 53.915228 
L 276.388534 54.500629 
L 278.013432 54.978066 
L 278.82588 55.410709 
L 279.638329 56.098956 
L 280.450778 57.121078 
L 281.263227 58.531778 
L 282.075676 60.355973 
L 282.888124 62.585485 
L 284.513022 68.065844 
L 288.575266 83.369632 
L 290.200164 88.2943 
L 291.825061 92.356629 
L 293.449959 96.315941 
L 294.262408 98.639647 
L 295.074857 101.429913 
L 295.887305 104.860933 
L 296.699754 109.085954 
L 297.512203 114.223202 
L 298.324652 120.343992 
L 299.94955 135.53875 
L 301.574447 154.075077 
L 305.636691 204.193054 
L 307.261589 220.469434 
L 308.074038 226.992082 
L 308.886486 232.310851 
L 309.698935 236.405753 
L 310.511384 239.315597 
L 311.323833 241.132233 
L 312.136282 241.991439 
L 312.948731 242.0613 
L 313.761179 241.529071 
L 314.573628 240.587615 
L 317.823423 236.108861 
L 318.635872 235.413189 
L 319.448321 235.005771 
L 320.26077 234.884948 
L 321.073219 235.020783 
L 321.885667 235.362089 
L 323.510565 236.398029 
L 325.135463 237.458791 
L 325.947912 237.862098 
L 326.76036 238.136632 
L 327.572809 238.270483 
L 328.385258 238.267857 
L 330.010156 237.9346 
L 334.0724 236.671044 
L 335.697297 236.510865 
L 337.322195 236.599363 
L 343.009337 237.29033 
L 347.071581 237.333201 
L 351.133825 237.273671 
L 353.571171 237.027794 
L 357.633415 236.514999 
L 359.258313 236.593546 
L 360.88321 236.944725 
L 364.945455 238.207729 
L 365.757903 238.28441 
L 366.570352 238.233894 
L 367.382801 238.043413 
L 369.007699 237.267339 
L 372.257494 235.204834 
L 373.069943 234.93854 
L 373.882391 234.900244 
L 374.69484 235.133553 
L 375.507289 235.657859 
L 376.319738 236.461895 
L 377.944636 238.686482 
L 379.569533 241.001124 
L 380.381982 241.80184 
L 381.194431 242.116364 
L 382.00688 241.752466 
L 382.819328 240.528931 
L 383.631777 238.289083 
L 384.444226 234.91344 
L 385.256675 230.330444 
L 386.069124 224.524327 
L 386.881572 217.539335 
L 388.50647 200.506327 
L 390.943817 170.348937 
L 393.381163 140.800482 
L 395.006061 124.497589 
L 395.818509 117.775325 
L 396.630958 112.053102 
L 397.443407 107.292164 
L 398.255856 103.401186 
L 399.068305 100.246362 
L 399.880753 97.664294 
L 401.505651 93.505018 
L 403.130549 89.581345 
L 404.755446 84.956189 
L 406.380344 79.333213 
L 410.442588 64.101881 
L 411.255037 61.646965 
L 412.067486 59.576442 
L 412.879934 57.918554 
L 413.692383 56.66805 
L 414.504832 55.78753 
L 415.317281 55.211972 
L 416.12973 54.855944 
L 418.567076 54.140987 
L 419.379525 53.731368 
L 420.191974 53.138025 
L 421.004423 52.342559 
L 422.62932 50.221055 
L 425.066667 46.630848 
L 425.879115 45.660779 
L 426.691564 44.940172 
L 427.504013 44.527791 
L 428.316462 44.457701 
L 429.128911 44.73572 
L 429.94136 45.338817 
L 430.753808 46.217506 
L 432.378706 48.504571 
L 434.003604 50.917377 
L 435.628501 52.844103 
L 436.44095 53.517784 
L 437.253399 53.99677 
L 438.878296 54.541612 
L 440.503194 55.048488 
L 441.315643 55.525129 
L 442.128092 56.274533 
L 442.940541 57.370875 
L 443.752989 58.863313 
L 444.565438 60.770305 
L 445.377887 63.07695 
L 447.002785 68.67043 
L 451.065029 83.908824 
L 452.689926 88.731861 
L 456.75217 99.15462 
L 457.564619 102.059557 
L 458.377068 105.638047 
L 459.189517 110.037402 
L 460.001966 115.367331 
L 460.814414 121.688605 
L 462.439312 137.260029 
L 464.06421 156.062348 
L 468.126454 205.989438 
L 469.751351 221.867271 
L 470.5638 228.15366 
L 471.376249 233.22732 
L 472.188698 237.080302 
L 473.001147 239.762601 
L 473.813595 241.375675 
L 474.626044 242.062757 
L 475.438493 241.996845 
L 476.250942 241.367398 
L 477.063391 240.366807 
L 479.500737 236.852681 
L 480.313186 235.947684 
L 481.125635 235.308241 
L 481.938084 234.95927 
L 482.750532 234.892963 
L 483.562981 235.07453 
L 484.37543 235.449474 
L 488.437674 237.927932 
L 489.250123 238.174743 
L 490.062572 238.280481 
L 490.87502 238.252322 
L 492.499918 237.884228 
L 495.749713 236.812584 
L 497.374611 236.541498 
L 498.999509 236.539719 
L 501.436855 236.854875 
L 504.68665 237.253379 
L 507.936446 237.333832 
L 513.623587 237.263994 
L 516.060934 237.004462 
L 519.310729 236.55202 
L 520.935627 236.529765 
L 522.560524 236.773291 
L 524.185422 237.260107 
L 526.622768 238.070881 
L 528.247666 238.285081 
L 529.060115 238.207159 
L 529.872563 237.988411 
L 531.497461 237.166357 
L 533.934808 235.54196 
L 534.747256 235.13605 
L 535.559705 234.910956 
L 536.372154 234.924163 
L 537.184603 235.215019 
L 537.997052 235.797247 
L 538.8095 236.652836 
L 540.434398 238.931998 
L 542.059296 241.19091 
L 542.871744 241.90984 
L 543.684193 242.103902 
L 544.496642 241.581981 
L 545.309091 240.166701 
L 546.12154 237.707858 
L 546.933989 234.094775 
L 547.746437 229.266532 
L 548.558886 223.21915 
L 549.371335 216.009032 
L 550.996233 198.619535 
L 553.433579 168.281984 
L 555.870925 139.014344 
L 557.495823 123.073223 
L 558.308272 116.551297 
L 559.120721 111.026231 
L 559.93317 106.448116 
L 560.745618 102.716221 
L 561.558067 99.689716 
L 562.370516 97.201007 
L 563.995414 93.121809 
L 565.620311 89.160695 
L 567.245209 84.437728 
L 568.870106 78.724568 
L 572.119902 66.303425 
L 573.744799 61.20073 
L 574.557248 59.211538 
L 575.369697 57.636616 
L 576.182146 56.464069 
L 576.994595 55.650514 
L 577.807043 55.1262 
L 579.431941 54.58205 
L 581.056839 54.071881 
L 581.869287 53.628419 
L 582.681736 52.995156 
L 583.494185 52.15973 
L 585.119083 49.981206 
L 587.556429 46.420383 
L 588.368878 45.494507 
L 589.181327 44.831561 
L 589.993776 44.485784 
L 590.806224 44.485784 
L 591.618673 44.831561 
L 592.431122 45.494507 
L 593.243571 46.420383 
L 594.868468 48.75178 
L 596.493366 51.139903 
L 597.305815 52.15973 
L 598.118264 52.995156 
L 598.930713 53.628419 
L 599.743161 54.071881 
L 601.368059 54.58205 
L 602.992957 55.1262 
L 603.805405 55.650514 
L 604.617854 56.464069 
L 605.430303 57.636616 
L 606.242752 59.211538 
L 607.055201 61.20073 
L 608.680098 66.303425 
L 611.117445 75.601755 
L 612.742342 81.692825 
L 614.36724 86.924872 
L 615.992138 91.195377 
L 618.429484 97.201007 
L 619.241933 99.689716 
L 620.054382 102.716221 
L 620.86683 106.448116 
L 621.679279 111.026231 
L 622.491728 116.551297 
L 623.304177 123.073223 
L 624.929075 139.014344 
L 626.553972 158.067003 
L 630.616216 207.752244 
L 632.241114 223.21915 
L 633.053563 229.266532 
L 633.866011 234.094775 
L 634.67846 237.707858 
L 635.490909 240.166701 
L 636.303358 241.581981 
L 637.115807 242.103902 
L 637.928256 241.90984 
L 638.740704 241.19091 
L 640.365602 238.931998 
L 641.9905 236.652836 
L 642.802948 235.797247 
L 643.615397 235.215019 
L 644.427846 234.924163 
L 645.240295 234.910956 
L 646.052744 235.13605 
L 647.677641 236.061182 
L 650.114988 237.634093 
L 650.927437 237.988411 
L 651.739885 238.207159 
L 652.552334 238.285081 
L 654.177232 238.070881 
L 656.614578 237.260107 
L 658.239476 236.773291 
L 659.864373 236.529765 
L 661.489271 236.55202 
L 664.739066 237.004462 
L 667.176413 237.263994 
L 670.426208 237.33382 
L 676.11335 237.253379 
L 678.550696 236.980529 
L 681.800491 236.539719 
L 683.425389 236.541498 
L 685.050287 236.812584 
L 687.487633 237.608104 
L 689.112531 238.110433 
L 689.92498 238.252322 
L 690.737428 238.280481 
L 691.549877 238.174743 
L 692.362326 237.927932 
L 693.987224 237.062348 
L 696.42457 235.449474 
L 697.237019 235.07453 
L 698.049468 234.892963 
L 698.861916 234.95927 
L 699.674365 235.308241 
L 700.486814 235.947684 
L 701.299263 236.852681 
L 704.549058 241.367398 
L 705.361507 241.996845 
L 706.173956 242.062757 
L 706.986405 241.375675 
L 707.798853 239.762601 
L 708.611302 237.080302 
L 709.423751 233.22732 
L 710.2362 228.15366 
L 711.048649 221.867271 
L 712.673546 205.989438 
L 714.298444 186.81134 
L 717.548239 146.336409 
L 719.173137 129.005116 
L 720.798034 115.367331 
L 721.610483 110.037402 
L 722.422932 105.638047 
L 723.235381 102.059557 
L 724.04783 99.15462 
L 725.672727 94.671683 
L 728.110074 88.731861 
L 729.734971 83.908824 
L 731.359869 78.109659 
L 734.609664 65.735691 
L 736.234562 60.770305 
L 737.047011 58.863313 
L 737.859459 57.370875 
L 738.671908 56.274533 
L 739.484357 55.525129 
L 740.296806 55.048488 
L 741.921704 54.541612 
L 743.546601 53.99677 
L 744.35905 53.517784 
L 745.171499 52.844103 
L 745.983948 51.969434 
L 747.608845 49.738478 
L 750.046192 46.217506 
L 750.85864 45.338817 
L 751.671089 44.73572 
L 752.483538 44.457701 
L 753.295987 44.527791 
L 754.108436 44.940172 
L 754.920885 45.660779 
L 756.545782 47.773029 
L 758.983129 51.3568 
L 759.795577 52.342559 
L 760.608026 53.138025 
L 761.420475 53.731368 
L 762.232924 54.140987 
L 765.482719 55.211972 
L 766.295168 55.78753 
L 767.107617 56.66805 
L 767.920066 57.918554 
L 768.732514 59.576442 
L 769.544963 61.646965 
L 771.169861 66.881539 
L 776.044554 84.956189 
L 777.669451 89.581345 
L 780.919247 97.664294 
L 781.731695 100.246362 
L 782.544144 103.401186 
L 783.356593 107.292164 
L 784.169042 112.053102 
L 784.981491 117.775325 
L 785.793939 124.497589 
L 787.418837 140.800482 
L 789.043735 160.087115 
L 792.29353 200.506327 
L 793.918428 217.539335 
L 794.730876 224.524327 
L 795.543325 230.330444 
L 796.355774 234.91344 
L 797.168223 238.289083 
L 797.980672 240.528931 
L 798.79312 241.752466 
L 799.605569 242.116364 
L 800.418018 241.80184 
L 801.230467 241.001124 
L 802.855364 238.686482 
L 804.480262 236.461895 
L 805.292711 235.657859 
L 806.10516 235.133553 
L 806.917609 234.900244 
L 807.730057 234.93854 
L 808.542506 235.204834 
L 810.167404 236.172454 
L 811.792301 237.267339 
L 813.417199 238.043413 
L 814.229648 238.233894 
L 815.042097 238.28441 
L 816.666994 238.028207 
L 821.541687 236.593546 
L 823.166585 236.514999 
L 825.603931 236.778391 
L 828.853726 237.215706 
L 831.291073 237.326893 
L 837.790663 237.29033 
L 840.22801 237.072371 
L 844.290254 236.52937 
L 845.915152 236.556022 
L 847.540049 236.854333 
L 852.414742 238.267857 
L 853.227191 238.270483 
L 854.03964 238.136632 
L 854.852088 237.862098 
L 856.476986 236.9557 
L 858.914333 235.362089 
L 859.726781 235.020783 
L 860.53923 234.884948 
L 861.351679 235.005771 
L 862.164128 235.413189 
L 862.976577 236.108861 
L 863.789025 237.060821 
L 867.038821 241.529071 
L 867.851269 242.0613 
L 868.663718 241.991439 
L 869.476167 241.132233 
L 870.288616 239.315597 
L 871.101065 236.405753 
L 871.913514 232.310851 
L 872.725962 226.992082 
L 873.538411 220.469434 
L 875.163309 204.193054 
L 876.788206 184.780992 
L 880.038002 144.462939 
L 881.662899 127.46404 
L 882.475348 120.343992 
L 883.287797 114.223202 
L 884.100246 109.085954 
L 884.912695 104.860933 
L 885.725143 101.429913 
L 886.537592 98.639647 
L 888.16249 94.278688 
L 890.599836 88.2943 
L 892.224734 83.369632 
L 893.849631 77.489179 
L 897.099427 65.179067 
L 898.724324 60.355973 
L 899.536773 58.531778 
L 900.349222 57.121078 
L 901.161671 56.098956 
L 901.97412 55.410709 
L 902.786568 54.978066 
L 906.036364 53.915228 
L 906.848812 53.399263 
L 907.661261 52.684914 
L 908.47371 51.771956 
L 910.098608 49.493506 
L 911.723505 47.071847 
L 912.535954 46.022866 
L 913.348403 45.19422 
L 914.160852 44.652968 
L 914.973301 44.443636 
L 915.785749 44.583582 
L 916.598198 45.061191 
L 917.410647 45.83709 
L 919.035545 48.014471 
L 921.472891 51.567622 
L 922.28534 52.517684 
L 923.097789 53.27271 
L 923.910238 53.826873 
L 924.722686 54.204556 
L 927.972482 55.306563 
L 928.78493 55.93681 
L 929.597379 56.88692 
L 930.409828 58.216891 
L 931.222277 59.95796 
L 932.034726 62.108678 
L 933.659623 67.469275 
L 938.534316 85.46412 
L 940.159214 89.994424 
L 943.409009 98.143356 
L 944.221458 100.825966 
L 945.033907 104.115693 
L 945.846355 108.171147 
L 946.658804 113.118595 
L 947.471253 119.039545 
L 948.283702 125.961346 
L 949.9086 142.617142 
L 951.533497 162.120708 
L 954.783292 202.364769 
L 956.40819 219.026477 
L 957.220639 225.782154 
L 958.033088 231.345238 
L 958.845536 235.68363 
L 959.657985 238.824723 
L 960.470434 240.850389 
L 961.282883 241.888486 
L 962.095332 242.101653 
L 962.907781 241.6744 
L 963.720229 240.799535 
L 966.970025 236.280407 
L 967.782473 235.529775 
L 968.594922 235.063827 
L 969.407371 234.887268 
L 970.21982 234.975297 
L 971.032269 235.280359 
L 972.657166 236.284915 
L 974.282064 237.36493 
L 975.906962 238.092842 
L 976.71941 238.254981 
L 977.531859 238.278613 
L 979.156757 237.982687 
L 983.219001 236.702444 
L 984.843898 236.514506 
L 986.468796 236.581972 
L 992.968387 237.313905 
L 996.218182 237.333179 
L 996.218182 237.333179 
" style="fill:none;stroke:#1f77b4;stroke-linecap:square;stroke-width:1.5;"/>
   </g>
   <g id="patch_3">
    <path d="M 144 252 
L 144 34.56 
" style="fill:none;stroke:#000000;stroke-linecap:square;stroke-linejoin:miter;stroke-width:0.8;"/>
   </g>
   <g id="patch_4">
    <path d="M 1036.8 252 
L 1036.8 34.56 
" style="fill:none;stroke:#000000;stroke-linecap:square;stroke-linejoin:miter;stroke-width:0.8;"/>
   </g>
   <g id="patch_5">
    <path d="M 144 252 
L 1036.8 252 
" style="fill:none;stroke:#000000;stroke-linecap:square;stroke-linejoin:miter;stroke-width:0.8;"/>
   </g>
   <g id="patch_6">
    <path d="M 144 34.56 
L 1036.8 34.56 
" style="fill:none;stroke:#000000;stroke-linecap:square;stroke-linejoin:miter;stroke-width:0.8;"/>
   </g>
  </g>
 </g>
 <defs>
  <clipPath id="pef5e2ff5e9">
   <rect height="217.44" width="892.8" x="144" y="34.56"/>
  </clipPath>
 </defs>
</svg>
