<?xml version="1.0" encoding="utf-8" standalone="no"?>
<!DOCTYPE svg PUBLIC "-//W3C//DTD SVG 1.1//EN"
  "http://www.w3.org/Graphics/SVG/1.1/DTD/svg11.dtd">
<!-- Created with matplotlib (http://matplotlib.org/) -->
<svg height="288pt" version="1.1" viewBox="0 0 1152 288" width="1152pt" xmlns="http://www.w3.org/2000/svg" xmlns:xlink="http://www.w3.org/1999/xlink">
 <defs>
  <style type="text/css">
*{stroke-linecap:butt;stroke-linejoin:round;}
  </style>
 </defs>
 <g id="figure_1">
  <g id="patch_1">
   <path d="M 0 288 
L 1152 288 
L 1152 0 
L 0 0 
z
" style="fill:#ffffff;"/>
  </g>
  <g id="axes_1">
   <g id="patch_2">
    <path d="M 144 252 
L 1036.8 252 
L 1036.8 34.56 
L 144 34.56 
z
" style="fill:#ffffff;"/>
   </g>
   <g id="matplotlib.axis_1">
    <g id="xtick_1">
     <g id="line2d_1">
      <defs>
       <path d="M 0 0 
L 0 3.5 
" id="mbd69fce3ba" style="stroke:#000000;stroke-width:0.8;"/>
      </defs>
      <g>
       <use style="stroke:#000000;stroke-width:0.8;" x="184.581818" xlink:href="#mbd69fce3ba" y="252"/>
      </g>
     </g>
     <g id="text_1">
      <!-- 0.0 -->
      <defs>
       <path d="M 31.78125 66.40625 
Q 24.171875 66.40625 20.328125 58.90625 
Q 16.5 51.421875 16.5 36.375 
Q 16.5 21.390625 20.328125 13.890625 
Q 24.171875 6.390625 31.78125 6.390625 
Q 39.453125 6.390625 43.28125 13.890625 
Q 47.125 21.390625 47.125 36.375 
Q 47.125 51.421875 43.28125 58.90625 
Q 39.453125 66.40625 31.78125 66.40625 
z
M 31.78125 74.21875 
Q 44.046875 74.21875 50.515625 64.515625 
Q 56.984375 54.828125 56.984375 36.375 
Q 56.984375 17.96875 50.515625 8.265625 
Q 44.046875 -1.421875 31.78125 -1.421875 
Q 19.53125 -1.421875 13.0625 8.265625 
Q 6.59375 17.96875 6.59375 36.375 
Q 6.59375 54.828125 13.0625 64.515625 
Q 19.53125 74.21875 31.78125 74.21875 
z
" id="DejaVuSans-30"/>
       <path d="M 10.6875 12.40625 
L 21 12.40625 
L 21 0 
L 10.6875 0 
z
" id="DejaVuSans-2e"/>
      </defs>
      <g transform="translate(176.630256 266.598437)scale(0.1 -0.1)">
       <use xlink:href="#DejaVuSans-30"/>
       <use x="63.623047" xlink:href="#DejaVuSans-2e"/>
       <use x="95.410156" xlink:href="#DejaVuSans-30"/>
      </g>
     </g>
    </g>
    <g id="xtick_2">
     <g id="line2d_2">
      <g>
       <use style="stroke:#000000;stroke-width:0.8;" x="319.854545" xlink:href="#mbd69fce3ba" y="252"/>
      </g>
     </g>
     <g id="text_2">
      <!-- 0.5 -->
      <defs>
       <path d="M 10.796875 72.90625 
L 49.515625 72.90625 
L 49.515625 64.59375 
L 19.828125 64.59375 
L 19.828125 46.734375 
Q 21.96875 47.46875 24.109375 47.828125 
Q 26.265625 48.1875 28.421875 48.1875 
Q 40.625 48.1875 47.75 41.5 
Q 54.890625 34.8125 54.890625 23.390625 
Q 54.890625 11.625 47.5625 5.09375 
Q 40.234375 -1.421875 26.90625 -1.421875 
Q 22.3125 -1.421875 17.546875 -0.640625 
Q 12.796875 0.140625 7.71875 1.703125 
L 7.71875 11.625 
Q 12.109375 9.234375 16.796875 8.0625 
Q 21.484375 6.890625 26.703125 6.890625 
Q 35.15625 6.890625 40.078125 11.328125 
Q 45.015625 15.765625 45.015625 23.390625 
Q 45.015625 31 40.078125 35.4375 
Q 35.15625 39.890625 26.703125 39.890625 
Q 22.75 39.890625 18.8125 39.015625 
Q 14.890625 38.140625 10.796875 36.28125 
z
" id="DejaVuSans-35"/>
      </defs>
      <g transform="translate(311.902983 266.598437)scale(0.1 -0.1)">
       <use xlink:href="#DejaVuSans-30"/>
       <use x="63.623047" xlink:href="#DejaVuSans-2e"/>
       <use x="95.410156" xlink:href="#DejaVuSans-35"/>
      </g>
     </g>
    </g>
    <g id="xtick_3">
     <g id="line2d_3">
      <g>
       <use style="stroke:#000000;stroke-width:0.8;" x="455.127273" xlink:href="#mbd69fce3ba" y="252"/>
      </g>
     </g>
     <g id="text_3">
      <!-- 1.0 -->
      <defs>
       <path d="M 12.40625 8.296875 
L 28.515625 8.296875 
L 28.515625 63.921875 
L 10.984375 60.40625 
L 10.984375 69.390625 
L 28.421875 72.90625 
L 38.28125 72.90625 
L 38.28125 8.296875 
L 54.390625 8.296875 
L 54.390625 0 
L 12.40625 0 
z
" id="DejaVuSans-31"/>
      </defs>
      <g transform="translate(447.17571 266.598437)scale(0.1 -0.1)">
       <use xlink:href="#DejaVuSans-31"/>
       <use x="63.623047" xlink:href="#DejaVuSans-2e"/>
       <use x="95.410156" xlink:href="#DejaVuSans-30"/>
      </g>
     </g>
    </g>
    <g id="xtick_4">
     <g id="line2d_4">
      <g>
       <use style="stroke:#000000;stroke-width:0.8;" x="590.4" xlink:href="#mbd69fce3ba" y="252"/>
      </g>
     </g>
     <g id="text_4">
      <!-- 1.5 -->
      <g transform="translate(582.448438 266.598437)scale(0.1 -0.1)">
       <use xlink:href="#DejaVuSans-31"/>
       <use x="63.623047" xlink:href="#DejaVuSans-2e"/>
       <use x="95.410156" xlink:href="#DejaVuSans-35"/>
      </g>
     </g>
    </g>
    <g id="xtick_5">
     <g id="line2d_5">
      <g>
       <use style="stroke:#000000;stroke-width:0.8;" x="725.672727" xlink:href="#mbd69fce3ba" y="252"/>
      </g>
     </g>
     <g id="text_5">
      <!-- 2.0 -->
      <defs>
       <path d="M 19.1875 8.296875 
L 53.609375 8.296875 
L 53.609375 0 
L 7.328125 0 
L 7.328125 8.296875 
Q 12.9375 14.109375 22.625 23.890625 
Q 32.328125 33.6875 34.8125 36.53125 
Q 39.546875 41.84375 41.421875 45.53125 
Q 43.3125 49.21875 43.3125 52.78125 
Q 43.3125 58.59375 39.234375 62.25 
Q 35.15625 65.921875 28.609375 65.921875 
Q 23.96875 65.921875 18.8125 64.3125 
Q 13.671875 62.703125 7.8125 59.421875 
L 7.8125 69.390625 
Q 13.765625 71.78125 18.9375 73 
Q 24.125 74.21875 28.421875 74.21875 
Q 39.75 74.21875 46.484375 68.546875 
Q 53.21875 62.890625 53.21875 53.421875 
Q 53.21875 48.921875 51.53125 44.890625 
Q 49.859375 40.875 45.40625 35.40625 
Q 44.1875 33.984375 37.640625 27.21875 
Q 31.109375 20.453125 19.1875 8.296875 
z
" id="DejaVuSans-32"/>
      </defs>
      <g transform="translate(717.721165 266.598437)scale(0.1 -0.1)">
       <use xlink:href="#DejaVuSans-32"/>
       <use x="63.623047" xlink:href="#DejaVuSans-2e"/>
       <use x="95.410156" xlink:href="#DejaVuSans-30"/>
      </g>
     </g>
    </g>
    <g id="xtick_6">
     <g id="line2d_6">
      <g>
       <use style="stroke:#000000;stroke-width:0.8;" x="860.945455" xlink:href="#mbd69fce3ba" y="252"/>
      </g>
     </g>
     <g id="text_6">
      <!-- 2.5 -->
      <g transform="translate(852.993892 266.598437)scale(0.1 -0.1)">
       <use xlink:href="#DejaVuSans-32"/>
       <use x="63.623047" xlink:href="#DejaVuSans-2e"/>
       <use x="95.410156" xlink:href="#DejaVuSans-35"/>
      </g>
     </g>
    </g>
    <g id="xtick_7">
     <g id="line2d_7">
      <g>
       <use style="stroke:#000000;stroke-width:0.8;" x="996.218182" xlink:href="#mbd69fce3ba" y="252"/>
      </g>
     </g>
     <g id="text_7">
      <!-- 3.0 -->
      <defs>
       <path d="M 40.578125 39.3125 
Q 47.65625 37.796875 51.625 33 
Q 55.609375 28.21875 55.609375 21.1875 
Q 55.609375 10.40625 48.1875 4.484375 
Q 40.765625 -1.421875 27.09375 -1.421875 
Q 22.515625 -1.421875 17.65625 -0.515625 
Q 12.796875 0.390625 7.625 2.203125 
L 7.625 11.71875 
Q 11.71875 9.328125 16.59375 8.109375 
Q 21.484375 6.890625 26.8125 6.890625 
Q 36.078125 6.890625 40.9375 10.546875 
Q 45.796875 14.203125 45.796875 21.1875 
Q 45.796875 27.640625 41.28125 31.265625 
Q 36.765625 34.90625 28.71875 34.90625 
L 20.21875 34.90625 
L 20.21875 43.015625 
L 29.109375 43.015625 
Q 36.375 43.015625 40.234375 45.921875 
Q 44.09375 48.828125 44.09375 54.296875 
Q 44.09375 59.90625 40.109375 62.90625 
Q 36.140625 65.921875 28.71875 65.921875 
Q 24.65625 65.921875 20.015625 65.03125 
Q 15.375 64.15625 9.8125 62.3125 
L 9.8125 71.09375 
Q 15.4375 72.65625 20.34375 73.4375 
Q 25.25 74.21875 29.59375 74.21875 
Q 40.828125 74.21875 47.359375 69.109375 
Q 53.90625 64.015625 53.90625 55.328125 
Q 53.90625 49.265625 50.4375 45.09375 
Q 46.96875 40.921875 40.578125 39.3125 
z
" id="DejaVuSans-33"/>
      </defs>
      <g transform="translate(988.266619 266.598437)scale(0.1 -0.1)">
       <use xlink:href="#DejaVuSans-33"/>
       <use x="63.623047" xlink:href="#DejaVuSans-2e"/>
       <use x="95.410156" xlink:href="#DejaVuSans-30"/>
      </g>
     </g>
    </g>
   </g>
   <g id="matplotlib.axis_2">
    <g id="ytick_1">
     <g id="line2d_8">
      <defs>
       <path d="M 0 0 
L -3.5 0 
" id="mc763497e5a" style="stroke:#000000;stroke-width:0.8;"/>
      </defs>
      <g>
       <use style="stroke:#000000;stroke-width:0.8;" x="144" xlink:href="#mc763497e5a" y="227.85849"/>
      </g>
     </g>
     <g id="text_8">
      <!-- −1.0 -->
      <defs>
       <path d="M 10.59375 35.5 
L 73.1875 35.5 
L 73.1875 27.203125 
L 10.59375 27.203125 
z
" id="DejaVuSans-2212"/>
      </defs>
      <g transform="translate(112.717187 231.657709)scale(0.1 -0.1)">
       <use xlink:href="#DejaVuSans-2212"/>
       <use x="83.789062" xlink:href="#DejaVuSans-31"/>
       <use x="147.412109" xlink:href="#DejaVuSans-2e"/>
       <use x="179.199219" xlink:href="#DejaVuSans-30"/>
      </g>
     </g>
    </g>
    <g id="ytick_2">
     <g id="line2d_9">
      <g>
       <use style="stroke:#000000;stroke-width:0.8;" x="144" xlink:href="#mc763497e5a" y="185.569245"/>
      </g>
     </g>
     <g id="text_9">
      <!-- −0.5 -->
      <g transform="translate(112.717187 189.368464)scale(0.1 -0.1)">
       <use xlink:href="#DejaVuSans-2212"/>
       <use x="83.789062" xlink:href="#DejaVuSans-30"/>
       <use x="147.412109" xlink:href="#DejaVuSans-2e"/>
       <use x="179.199219" xlink:href="#DejaVuSans-35"/>
      </g>
     </g>
    </g>
    <g id="ytick_3">
     <g id="line2d_10">
      <g>
       <use style="stroke:#000000;stroke-width:0.8;" x="144" xlink:href="#mc763497e5a" y="143.28"/>
      </g>
     </g>
     <g id="text_10">
      <!-- 0.0 -->
      <g transform="translate(121.096875 147.079219)scale(0.1 -0.1)">
       <use xlink:href="#DejaVuSans-30"/>
       <use x="63.623047" xlink:href="#DejaVuSans-2e"/>
       <use x="95.410156" xlink:href="#DejaVuSans-30"/>
      </g>
     </g>
    </g>
    <g id="ytick_4">
     <g id="line2d_11">
      <g>
       <use style="stroke:#000000;stroke-width:0.8;" x="144" xlink:href="#mc763497e5a" y="100.990755"/>
      </g>
     </g>
     <g id="text_11">
      <!-- 0.5 -->
      <g transform="translate(121.096875 104.789974)scale(0.1 -0.1)">
       <use xlink:href="#DejaVuSans-30"/>
       <use x="63.623047" xlink:href="#DejaVuSans-2e"/>
       <use x="95.410156" xlink:href="#DejaVuSans-35"/>
      </g>
     </g>
    </g>
    <g id="ytick_5">
     <g id="line2d_12">
      <g>
       <use style="stroke:#000000;stroke-width:0.8;" x="144" xlink:href="#mc763497e5a" y="58.70151"/>
      </g>
     </g>
     <g id="text_12">
      <!-- 1.0 -->
      <g transform="translate(121.096875 62.500729)scale(0.1 -0.1)">
       <use xlink:href="#DejaVuSans-31"/>
       <use x="63.623047" xlink:href="#DejaVuSans-2e"/>
       <use x="95.410156" xlink:href="#DejaVuSans-30"/>
      </g>
     </g>
    </g>
   </g>
   <g id="line2d_13">
    <path clip-path="url(#p78cb9f3c5b)" d="M 184.581818 143.28 
L 185.394267 59.756103 
L 186.206716 46.488865 
L 187.019165 65.202934 
L 187.831613 61.618888 
L 188.644062 53.095346 
L 189.456511 59.82288 
L 190.26896 62.120388 
L 191.081409 55.929816 
L 191.893857 57.600582 
L 192.706306 61.558939 
L 193.518755 57.962126 
L 194.331204 56.738343 
L 195.143653 60.471078 
L 195.956102 59.357611 
L 196.76855 56.777014 
L 197.580999 59.257166 
L 198.393448 60.079018 
L 199.205897 57.390155 
L 200.018346 58.241352 
L 200.830794 60.16114 
L 201.643243 58.249931 
L 202.455692 57.63729 
L 203.268141 59.752872 
L 204.08059 59.052436 
L 204.893038 57.517832 
L 205.705487 59.087277 
L 206.517936 59.572259 
L 207.330385 57.815943 
L 208.142834 58.419802 
L 208.955283 59.704188 
L 209.767731 58.360338 
L 210.58018 57.960967 
L 211.392629 59.473502 
L 212.205078 58.935676 
L 213.017527 57.825296 
L 213.829975 59.011118 
L 214.642424 59.349364 
L 215.454873 58.011021 
L 216.267322 58.501858 
L 217.079771 59.485584 
L 217.892219 58.414824 
L 218.704668 58.122211 
L 219.517117 59.331728 
L 220.329566 58.875075 
L 221.142015 57.98646 
L 221.954464 58.971372 
L 222.766912 59.228765 
L 223.579361 58.116664 
L 224.39181 58.548278 
L 225.204259 59.363968 
L 226.016708 58.443935 
L 226.829156 58.214437 
L 227.641605 59.251971 
L 228.454054 58.838508 
L 229.266503 58.079423 
L 230.078952 58.95034 
L 230.8914 59.15729 
L 231.703849 58.176976 
L 232.516298 58.57773 
L 233.328747 59.292695 
L 234.141196 58.458528 
L 234.953645 58.270109 
L 235.766093 59.206907 
L 236.578542 58.814354 
L 237.390991 58.133604 
L 238.20344 58.941125 
L 239.015889 59.114103 
L 239.828337 58.209579 
L 240.640786 58.597841 
L 241.453235 59.252515 
L 242.265684 58.463041 
L 243.078133 58.303075 
L 243.890581 59.184915 
L 244.70303 58.797391 
L 245.515479 58.161861 
L 246.327928 58.94092 
L 247.140377 59.089813 
L 247.952826 58.222145 
L 248.765274 58.612313 
L 249.577723 59.23483 
L 250.390172 58.459111 
L 251.202621 58.319719 
L 252.01507 59.181097 
L 252.827518 58.784913 
L 253.639967 58.169769 
L 254.452416 58.949001 
L 255.264865 59.080181 
L 256.077314 58.217473 
L 256.889762 58.623181 
L 257.702211 59.236369 
L 258.51466 58.446679 
L 259.327109 58.322643 
L 260.139558 59.194386 
L 260.952007 58.775347 
L 261.764455 58.158682 
L 262.576904 58.966183 
L 263.389353 59.083963 
L 264.201802 58.195046 
L 265.014251 58.631701 
L 265.826699 59.257542 
L 266.639148 58.424115 
L 267.451597 58.311847 
L 268.264046 59.226923 
L 269.076495 58.767651 
L 269.888943 58.126377 
L 270.701392 58.99506 
L 271.513841 59.102433 
L 272.32629 58.150861 
L 273.138739 58.638782 
L 273.951188 59.302661 
L 274.763636 58.387585 
L 275.576085 58.284601 
L 276.388534 59.285049 
L 277.200983 58.760973 
L 278.013432 58.065899 
L 278.82588 59.04117 
L 279.638329 59.140162 
L 280.450778 58.075412 
L 281.263227 58.645302 
L 282.075676 59.382298 
L 282.888124 58.329081 
L 283.700573 58.233804 
L 284.513022 59.382855 
L 285.325471 58.75429 
L 286.13792 57.961379 
L 286.950369 59.116285 
L 287.762817 59.207978 
L 288.575266 57.947574 
L 289.387715 58.652615 
L 290.200164 59.520563 
L 291.012613 58.230786 
L 291.825061 58.142761 
L 292.63751 59.552893 
L 293.449959 58.745571 
L 294.262408 57.775064 
L 295.074857 59.248534 
L 295.887305 59.332439 
L 296.699754 57.71496 
L 298.324652 59.779443 
L 299.137101 58.045647 
L 299.94955 57.967042 
L 300.761998 59.884863 
L 302.386896 57.397946 
L 303.199345 59.52319 
L 304.011794 59.593618 
L 304.824242 57.209787 
L 306.44914 60.370787 
L 307.261589 57.599946 
L 308.074038 57.545494 
L 308.886486 60.737368 
L 310.511384 56.348831 
L 311.323833 60.3678 
L 312.136282 60.378561 
L 312.948731 55.469509 
L 314.573628 62.749423 
L 315.386077 55.353679 
L 316.198526 55.576931 
L 317.010975 66.503122 
L 317.823423 56.733021 
L 318.635872 44.443636 
L 319.448321 94.927613 
L 320.26077 191.632387 
L 321.073219 242.116364 
L 321.885667 229.826979 
L 322.698116 220.056878 
L 323.510565 230.983069 
L 324.323014 231.206321 
L 325.135463 223.810577 
L 326.76036 231.090491 
L 327.572809 226.181439 
L 328.385258 226.1922 
L 329.197707 230.211169 
L 330.822604 225.822632 
L 331.635053 229.014506 
L 332.447502 228.960054 
L 333.259951 226.189213 
L 334.884848 229.350213 
L 335.697297 226.966382 
L 336.509746 227.03681 
L 337.322195 229.162054 
L 338.947093 226.675137 
L 339.759541 228.592958 
L 340.57199 228.514353 
L 341.384439 226.780557 
L 343.009337 228.84504 
L 343.821785 227.227561 
L 344.634234 227.311466 
L 345.446683 228.784936 
L 347.071581 227.007107 
L 347.884029 228.417239 
L 348.696478 228.329214 
L 349.508927 227.039437 
L 350.321376 227.907385 
L 351.133825 228.612426 
L 351.946274 227.352022 
L 352.758722 227.443715 
L 353.571171 228.598621 
L 354.38362 227.80571 
L 355.196069 227.177145 
L 356.008518 228.326196 
L 356.820966 228.230919 
L 357.633415 227.177702 
L 358.445864 227.914698 
L 359.258313 228.484588 
L 360.070762 227.419838 
L 360.88321 227.51883 
L 361.695659 228.494101 
L 362.508108 227.799027 
L 363.320557 227.274951 
L 364.133006 228.275399 
L 364.945455 228.172415 
L 365.757903 227.257339 
L 366.570352 227.921218 
L 367.382801 228.409139 
L 368.19525 227.457567 
L 369.007699 227.56494 
L 369.820147 228.433623 
L 370.632596 227.792349 
L 371.445045 227.333077 
L 372.257494 228.248153 
L 373.069943 228.135885 
L 373.882391 227.302458 
L 374.69484 227.928299 
L 375.507289 228.364954 
L 376.319738 227.476037 
L 377.132187 227.593817 
L 377.944636 228.401318 
L 378.757084 227.784653 
L 379.569533 227.365614 
L 380.381982 228.237357 
L 381.194431 228.113321 
L 382.00688 227.323631 
L 382.819328 227.936819 
L 383.631777 228.342527 
L 384.444226 227.479819 
L 385.256675 227.610999 
L 386.069124 228.390231 
L 386.881572 227.775087 
L 387.694021 227.378903 
L 388.50647 228.240281 
L 389.318919 228.100889 
L 390.131368 227.32517 
L 390.943817 227.947687 
L 391.756265 228.337855 
L 392.568714 227.470187 
L 393.381163 227.61908 
L 394.193612 228.398139 
L 395.006061 227.762609 
L 395.818509 227.375085 
L 396.630958 228.256925 
L 397.443407 228.096959 
L 398.255856 227.307485 
L 399.068305 227.962159 
L 399.880753 228.350421 
L 400.693202 227.445897 
L 401.505651 227.618875 
L 402.3181 228.426396 
L 403.130549 227.745646 
L 403.942998 227.353093 
L 404.755446 228.289891 
L 405.567895 228.101472 
L 406.380344 227.267305 
L 407.192793 227.98227 
L 408.005242 228.383024 
L 408.81769 227.40271 
L 409.630139 227.60966 
L 410.442588 228.480577 
L 411.255037 227.721492 
L 412.067486 227.308029 
L 412.879934 228.345563 
L 413.692383 228.116065 
L 414.504832 227.196032 
L 415.317281 228.011722 
L 416.12973 228.443336 
L 416.942179 227.331235 
L 417.754627 227.588628 
L 418.567076 228.57354 
L 419.379525 227.684925 
L 420.191974 227.228272 
L 421.004423 228.437789 
L 421.816871 228.145176 
L 422.62932 227.074416 
L 423.441769 228.058142 
L 424.254218 228.548979 
L 425.066667 227.210636 
L 425.879115 227.548882 
L 426.691564 228.734704 
L 427.504013 227.624324 
L 428.316462 227.086498 
L 429.128911 228.599033 
L 429.94136 228.199662 
L 430.753808 226.855812 
L 431.566257 228.140198 
L 432.378706 228.744057 
L 433.191155 226.987741 
L 434.003604 227.472723 
L 434.816052 229.042168 
L 435.628501 227.507564 
L 436.44095 226.807128 
L 437.253399 228.92271 
L 438.065848 228.310069 
L 438.878296 226.39886 
L 439.690745 228.318648 
L 440.503194 229.169845 
L 441.315643 226.480982 
L 442.128092 227.302834 
L 442.940541 229.782986 
L 443.752989 227.202389 
L 444.565438 226.088922 
L 445.377887 229.821657 
L 446.190336 228.597874 
L 447.002785 225.001061 
L 447.815233 228.959418 
L 448.627682 230.630184 
L 449.440131 224.439612 
L 450.25258 226.73712 
L 451.065029 233.464654 
L 451.877477 224.941112 
L 452.689926 221.357066 
L 453.502375 240.071135 
L 454.314824 226.803897 
L 455.939722 59.756103 
L 456.75217 46.488865 
L 457.564619 65.202934 
L 458.377068 61.618888 
L 459.189517 53.095346 
L 460.001966 59.82288 
L 460.814414 62.120388 
L 461.626863 55.929816 
L 462.439312 57.600582 
L 463.251761 61.558939 
L 464.06421 57.962126 
L 464.876658 56.738343 
L 465.689107 60.471078 
L 466.501556 59.357611 
L 467.314005 56.777014 
L 468.126454 59.257166 
L 468.938903 60.079018 
L 469.751351 57.390155 
L 470.5638 58.241352 
L 471.376249 60.16114 
L 472.188698 58.249931 
L 473.001147 57.63729 
L 473.813595 59.752872 
L 474.626044 59.052436 
L 475.438493 57.517832 
L 476.250942 59.087277 
L 477.063391 59.572259 
L 477.875839 57.815943 
L 478.688288 58.419802 
L 479.500737 59.704188 
L 480.313186 58.360338 
L 481.125635 57.960967 
L 481.938084 59.473502 
L 482.750532 58.935676 
L 483.562981 57.825296 
L 484.37543 59.011118 
L 485.187879 59.349364 
L 486.000328 58.011021 
L 486.812776 58.501858 
L 487.625225 59.485584 
L 488.437674 58.414824 
L 489.250123 58.122211 
L 490.062572 59.331728 
L 490.87502 58.875075 
L 491.687469 57.98646 
L 492.499918 58.971372 
L 493.312367 59.228765 
L 494.124816 58.116664 
L 494.937265 58.548278 
L 495.749713 59.363968 
L 496.562162 58.443935 
L 497.374611 58.214437 
L 498.18706 59.251971 
L 498.999509 58.838508 
L 499.811957 58.079423 
L 500.624406 58.95034 
L 501.436855 59.15729 
L 502.249304 58.176976 
L 503.061753 58.57773 
L 503.874201 59.292695 
L 504.68665 58.458528 
L 505.499099 58.270109 
L 506.311548 59.206907 
L 507.123997 58.814354 
L 507.936446 58.133604 
L 508.748894 58.941125 
L 509.561343 59.114103 
L 510.373792 58.209579 
L 511.186241 58.597841 
L 511.99869 59.252515 
L 512.811138 58.463041 
L 513.623587 58.303075 
L 514.436036 59.184915 
L 515.248485 58.797391 
L 516.060934 58.161861 
L 516.873382 58.94092 
L 517.685831 59.089813 
L 518.49828 58.222145 
L 519.310729 58.612313 
L 520.123178 59.23483 
L 520.935627 58.459111 
L 521.748075 58.319719 
L 522.560524 59.181097 
L 523.372973 58.784913 
L 524.185422 58.169769 
L 524.997871 58.949001 
L 525.810319 59.080181 
L 526.622768 58.217473 
L 527.435217 58.623181 
L 528.247666 59.236369 
L 529.060115 58.446679 
L 529.872563 58.322643 
L 530.685012 59.194386 
L 531.497461 58.775347 
L 532.30991 58.158682 
L 533.122359 58.966183 
L 533.934808 59.083963 
L 534.747256 58.195046 
L 535.559705 58.631701 
L 536.372154 59.257542 
L 537.184603 58.424115 
L 537.997052 58.311847 
L 538.8095 59.226923 
L 539.621949 58.767651 
L 540.434398 58.126377 
L 541.246847 58.99506 
L 542.059296 59.102433 
L 542.871744 58.150861 
L 543.684193 58.638782 
L 544.496642 59.302661 
L 545.309091 58.387585 
L 546.12154 58.284601 
L 546.933989 59.285049 
L 547.746437 58.760973 
L 548.558886 58.065899 
L 549.371335 59.04117 
L 550.183784 59.140162 
L 550.996233 58.075412 
L 551.808681 58.645302 
L 552.62113 59.382298 
L 553.433579 58.329081 
L 554.246028 58.233804 
L 555.058477 59.382855 
L 555.870925 58.75429 
L 556.683374 57.961379 
L 557.495823 59.116285 
L 558.308272 59.207978 
L 559.120721 57.947574 
L 559.93317 58.652615 
L 560.745618 59.520563 
L 561.558067 58.230786 
L 562.370516 58.142761 
L 563.182965 59.552893 
L 563.995414 58.745571 
L 564.807862 57.775064 
L 565.620311 59.248534 
L 566.43276 59.332439 
L 567.245209 57.71496 
L 568.870106 59.779443 
L 569.682555 58.045647 
L 570.495004 57.967042 
L 571.307453 59.884863 
L 572.932351 57.397946 
L 573.744799 59.52319 
L 574.557248 59.593618 
L 575.369697 57.209787 
L 576.994595 60.370787 
L 577.807043 57.599946 
L 578.619492 57.545494 
L 579.431941 60.737368 
L 581.056839 56.348831 
L 581.869287 60.3678 
L 582.681736 60.378561 
L 583.494185 55.469509 
L 585.119083 62.749423 
L 585.931532 55.353679 
L 586.74398 55.576931 
L 587.556429 66.503122 
L 588.368878 56.733021 
L 589.181327 44.443636 
L 589.993776 94.927613 
L 590.806224 191.632387 
L 591.618673 242.116364 
L 592.431122 229.826979 
L 593.243571 220.056878 
L 594.05602 230.983069 
L 594.868468 231.206321 
L 595.680917 223.810577 
L 597.305815 231.090491 
L 598.118264 226.181439 
L 598.930713 226.1922 
L 599.743161 230.211169 
L 601.368059 225.822632 
L 602.180508 229.014506 
L 602.992957 228.960054 
L 603.805405 226.189213 
L 605.430303 229.350213 
L 606.242752 226.966382 
L 607.055201 227.03681 
L 607.867649 229.162054 
L 609.492547 226.675137 
L 610.304996 228.592958 
L 611.117445 228.514353 
L 611.929894 226.780557 
L 613.554791 228.84504 
L 614.36724 227.227561 
L 615.179689 227.311466 
L 615.992138 228.784936 
L 617.617035 227.007107 
L 618.429484 228.417239 
L 619.241933 228.329214 
L 620.054382 227.039437 
L 620.86683 227.907385 
L 621.679279 228.612426 
L 622.491728 227.352022 
L 623.304177 227.443715 
L 624.116626 228.598621 
L 624.929075 227.80571 
L 625.741523 227.177145 
L 626.553972 228.326196 
L 627.366421 228.230919 
L 628.17887 227.177702 
L 628.991319 227.914698 
L 629.803767 228.484588 
L 630.616216 227.419838 
L 631.428665 227.51883 
L 632.241114 228.494101 
L 633.053563 227.799027 
L 633.866011 227.274951 
L 634.67846 228.275399 
L 635.490909 228.172415 
L 636.303358 227.257339 
L 637.115807 227.921218 
L 637.928256 228.409139 
L 638.740704 227.457567 
L 639.553153 227.56494 
L 640.365602 228.433623 
L 641.178051 227.792349 
L 641.9905 227.333077 
L 642.802948 228.248153 
L 643.615397 228.135885 
L 644.427846 227.302458 
L 645.240295 227.928299 
L 646.052744 228.364954 
L 646.865192 227.476037 
L 647.677641 227.593817 
L 648.49009 228.401318 
L 649.302539 227.784653 
L 650.114988 227.365614 
L 650.927437 228.237357 
L 651.739885 228.113321 
L 652.552334 227.323631 
L 653.364783 227.936819 
L 654.177232 228.342527 
L 654.989681 227.479819 
L 655.802129 227.610999 
L 656.614578 228.390231 
L 657.427027 227.775087 
L 658.239476 227.378903 
L 659.051925 228.240281 
L 659.864373 228.100889 
L 660.676822 227.32517 
L 661.489271 227.947687 
L 662.30172 228.337855 
L 663.114169 227.470187 
L 663.926618 227.61908 
L 664.739066 228.398139 
L 665.551515 227.762609 
L 666.363964 227.375085 
L 667.176413 228.256925 
L 667.988862 228.096959 
L 668.80131 227.307485 
L 669.613759 227.962159 
L 670.426208 228.350421 
L 671.238657 227.445897 
L 672.051106 227.618875 
L 672.863554 228.426396 
L 673.676003 227.745646 
L 674.488452 227.353093 
L 675.300901 228.289891 
L 676.11335 228.101472 
L 676.925799 227.267305 
L 677.738247 227.98227 
L 678.550696 228.383024 
L 679.363145 227.40271 
L 680.175594 227.60966 
L 680.988043 228.480577 
L 681.800491 227.721492 
L 682.61294 227.308029 
L 683.425389 228.345563 
L 684.237838 228.116065 
L 685.050287 227.196032 
L 685.862735 228.011722 
L 686.675184 228.443336 
L 687.487633 227.331235 
L 688.300082 227.588628 
L 689.112531 228.57354 
L 689.92498 227.684925 
L 690.737428 227.228272 
L 691.549877 228.437789 
L 692.362326 228.145176 
L 693.174775 227.074416 
L 693.987224 228.058142 
L 694.799672 228.548979 
L 695.612121 227.210636 
L 696.42457 227.548882 
L 697.237019 228.734704 
L 698.049468 227.624324 
L 698.861916 227.086498 
L 699.674365 228.599033 
L 700.486814 228.199662 
L 701.299263 226.855812 
L 702.111712 228.140198 
L 702.924161 228.744057 
L 703.736609 226.987741 
L 704.549058 227.472723 
L 705.361507 229.042168 
L 706.173956 227.507564 
L 706.986405 226.807128 
L 707.798853 228.92271 
L 708.611302 228.310069 
L 709.423751 226.39886 
L 710.2362 228.318648 
L 711.048649 229.169845 
L 711.861097 226.480982 
L 712.673546 227.302834 
L 713.485995 229.782986 
L 714.298444 227.202389 
L 715.110893 226.088922 
L 715.923342 229.821657 
L 716.73579 228.597874 
L 717.548239 225.001061 
L 718.360688 228.959418 
L 719.173137 230.630184 
L 719.985586 224.439612 
L 720.798034 226.73712 
L 721.610483 233.464654 
L 722.422932 224.941112 
L 723.235381 221.357066 
L 724.04783 240.071135 
L 724.860278 226.803897 
L 726.485176 59.756103 
L 727.297625 46.488865 
L 728.110074 65.202934 
L 728.922523 61.618888 
L 729.734971 53.095346 
L 730.54742 59.82288 
L 731.359869 62.120388 
L 732.172318 55.929816 
L 732.984767 57.600582 
L 733.797215 61.558939 
L 734.609664 57.962126 
L 735.422113 56.738343 
L 736.234562 60.471078 
L 737.047011 59.357611 
L 737.859459 56.777014 
L 738.671908 59.257166 
L 739.484357 60.079018 
L 740.296806 57.390155 
L 741.109255 58.241352 
L 741.921704 60.16114 
L 742.734152 58.249931 
L 743.546601 57.63729 
L 744.35905 59.752872 
L 745.171499 59.052436 
L 745.983948 57.517832 
L 746.796396 59.087277 
L 747.608845 59.572259 
L 748.421294 57.815943 
L 749.233743 58.419802 
L 750.046192 59.704188 
L 750.85864 58.360338 
L 751.671089 57.960967 
L 752.483538 59.473502 
L 753.295987 58.935676 
L 754.108436 57.825296 
L 754.920885 59.011118 
L 755.733333 59.349364 
L 756.545782 58.011021 
L 757.358231 58.501858 
L 758.17068 59.485584 
L 758.983129 58.414824 
L 759.795577 58.122211 
L 760.608026 59.331728 
L 761.420475 58.875075 
L 762.232924 57.98646 
L 763.045373 58.971372 
L 763.857821 59.228765 
L 764.67027 58.116664 
L 765.482719 58.548278 
L 766.295168 59.363968 
L 767.107617 58.443935 
L 767.920066 58.214437 
L 768.732514 59.251971 
L 769.544963 58.838508 
L 770.357412 58.079423 
L 771.169861 58.95034 
L 771.98231 59.15729 
L 772.794758 58.176976 
L 773.607207 58.57773 
L 774.419656 59.292695 
L 775.232105 58.458528 
L 776.044554 58.270109 
L 776.857002 59.206907 
L 777.669451 58.814354 
L 778.4819 58.133604 
L 779.294349 58.941125 
L 780.106798 59.114103 
L 780.919247 58.209579 
L 781.731695 58.597841 
L 782.544144 59.252515 
L 783.356593 58.463041 
L 784.169042 58.303075 
L 784.981491 59.184915 
L 785.793939 58.797391 
L 786.606388 58.161861 
L 787.418837 58.94092 
L 788.231286 59.089813 
L 789.043735 58.222145 
L 789.856183 58.612313 
L 790.668632 59.23483 
L 791.481081 58.459111 
L 792.29353 58.319719 
L 793.105979 59.181097 
L 793.918428 58.784913 
L 794.730876 58.169769 
L 795.543325 58.949001 
L 796.355774 59.080181 
L 797.168223 58.217473 
L 797.980672 58.623181 
L 798.79312 59.236369 
L 799.605569 58.446679 
L 800.418018 58.322643 
L 801.230467 59.194386 
L 802.042916 58.775347 
L 802.855364 58.158682 
L 803.667813 58.966183 
L 804.480262 59.083963 
L 805.292711 58.195046 
L 806.10516 58.631701 
L 806.917609 59.257542 
L 807.730057 58.424115 
L 808.542506 58.311847 
L 809.354955 59.226923 
L 810.167404 58.767651 
L 810.979853 58.126377 
L 811.792301 58.99506 
L 812.60475 59.102433 
L 813.417199 58.150861 
L 814.229648 58.638782 
L 815.042097 59.302661 
L 815.854545 58.387585 
L 816.666994 58.284601 
L 817.479443 59.285049 
L 818.291892 58.760973 
L 819.104341 58.065899 
L 819.91679 59.04117 
L 820.729238 59.140162 
L 821.541687 58.075412 
L 822.354136 58.645302 
L 823.166585 59.382298 
L 823.979034 58.329081 
L 824.791482 58.233804 
L 825.603931 59.382855 
L 826.41638 58.75429 
L 827.228829 57.961379 
L 828.041278 59.116285 
L 828.853726 59.207978 
L 829.666175 57.947574 
L 830.478624 58.652615 
L 831.291073 59.520563 
L 832.103522 58.230786 
L 832.915971 58.142761 
L 833.728419 59.552893 
L 834.540868 58.745571 
L 835.353317 57.775064 
L 836.165766 59.248534 
L 836.978215 59.332439 
L 837.790663 57.71496 
L 839.415561 59.779443 
L 840.22801 58.045647 
L 841.040459 57.967042 
L 841.852907 59.884863 
L 843.477805 57.397946 
L 844.290254 59.52319 
L 845.102703 59.593618 
L 845.915152 57.209787 
L 847.540049 60.370787 
L 848.352498 57.599946 
L 849.164947 57.545494 
L 849.977396 60.737368 
L 851.602293 56.348831 
L 852.414742 60.3678 
L 853.227191 60.378561 
L 854.03964 55.469509 
L 855.664537 62.749423 
L 856.476986 55.353679 
L 857.289435 55.576931 
L 858.101884 66.503122 
L 858.914333 56.733021 
L 859.726781 44.443636 
L 860.53923 94.927613 
L 861.351679 191.632387 
L 862.164128 242.116364 
L 862.976577 229.826979 
L 863.789025 220.056878 
L 864.601474 230.983069 
L 865.413923 231.206321 
L 866.226372 223.810577 
L 867.851269 231.090491 
L 868.663718 226.181439 
L 869.476167 226.1922 
L 870.288616 230.211169 
L 871.913514 225.822632 
L 872.725962 229.014506 
L 873.538411 228.960054 
L 874.35086 226.189213 
L 875.975758 229.350213 
L 876.788206 226.966382 
L 877.600655 227.03681 
L 878.413104 229.162054 
L 880.038002 226.675137 
L 880.85045 228.592958 
L 881.662899 228.514353 
L 882.475348 226.780557 
L 884.100246 228.84504 
L 884.912695 227.227561 
L 885.725143 227.311466 
L 886.537592 228.784936 
L 888.16249 227.007107 
L 888.974939 228.417239 
L 889.787387 228.329214 
L 890.599836 227.039437 
L 891.412285 227.907385 
L 892.224734 228.612426 
L 893.037183 227.352022 
L 893.849631 227.443715 
L 894.66208 228.598621 
L 895.474529 227.80571 
L 896.286978 227.177145 
L 897.099427 228.326196 
L 897.911876 228.230919 
L 898.724324 227.177702 
L 899.536773 227.914698 
L 900.349222 228.484588 
L 901.161671 227.419838 
L 901.97412 227.51883 
L 902.786568 228.494101 
L 903.599017 227.799027 
L 904.411466 227.274951 
L 905.223915 228.275399 
L 906.036364 228.172415 
L 906.848812 227.257339 
L 907.661261 227.921218 
L 908.47371 228.409139 
L 909.286159 227.457567 
L 910.098608 227.56494 
L 910.911057 228.433623 
L 911.723505 227.792349 
L 912.535954 227.333077 
L 913.348403 228.248153 
L 914.160852 228.135885 
L 914.973301 227.302458 
L 915.785749 227.928299 
L 916.598198 228.364954 
L 917.410647 227.476037 
L 918.223096 227.593817 
L 919.035545 228.401318 
L 919.847993 227.784653 
L 920.660442 227.365614 
L 921.472891 228.237357 
L 922.28534 228.113321 
L 923.097789 227.323631 
L 923.910238 227.936819 
L 924.722686 228.342527 
L 925.535135 227.479819 
L 926.347584 227.610999 
L 927.160033 228.390231 
L 927.972482 227.775087 
L 928.78493 227.378903 
L 929.597379 228.240281 
L 930.409828 228.100889 
L 931.222277 227.32517 
L 932.034726 227.947687 
L 932.847174 228.337855 
L 933.659623 227.470187 
L 934.472072 227.61908 
L 935.284521 228.398139 
L 936.09697 227.762609 
L 936.909419 227.375085 
L 937.721867 228.256925 
L 938.534316 228.096959 
L 939.346765 227.307485 
L 940.159214 227.962159 
L 940.971663 228.350421 
L 941.784111 227.445897 
L 942.59656 227.618875 
L 943.409009 228.426396 
L 944.221458 227.745646 
L 945.033907 227.353093 
L 945.846355 228.289891 
L 946.658804 228.101472 
L 947.471253 227.267305 
L 948.283702 227.98227 
L 949.096151 228.383024 
L 949.9086 227.40271 
L 950.721048 227.60966 
L 951.533497 228.480577 
L 952.345946 227.721492 
L 953.158395 227.308029 
L 953.970844 228.345563 
L 954.783292 228.116065 
L 955.595741 227.196032 
L 956.40819 228.011722 
L 957.220639 228.443336 
L 958.033088 227.331235 
L 958.845536 227.588628 
L 959.657985 228.57354 
L 960.470434 227.684925 
L 961.282883 227.228272 
L 962.095332 228.437789 
L 962.907781 228.145176 
L 963.720229 227.074416 
L 964.532678 228.058142 
L 965.345127 228.548979 
L 966.157576 227.210636 
L 966.970025 227.548882 
L 967.782473 228.734704 
L 968.594922 227.624324 
L 969.407371 227.086498 
L 970.21982 228.599033 
L 971.032269 228.199662 
L 971.844717 226.855812 
L 972.657166 228.140198 
L 973.469615 228.744057 
L 974.282064 226.987741 
L 975.094513 227.472723 
L 975.906962 229.042168 
L 976.71941 227.507564 
L 977.531859 226.807128 
L 978.344308 228.92271 
L 979.156757 228.310069 
L 979.969206 226.39886 
L 980.781654 228.318648 
L 981.594103 229.169845 
L 982.406552 226.480982 
L 983.219001 227.302834 
L 984.03145 229.782986 
L 984.843898 227.202389 
L 985.656347 226.088922 
L 986.468796 229.821657 
L 987.281245 228.597874 
L 988.093694 225.001061 
L 988.906143 228.959418 
L 989.718591 230.630184 
L 990.53104 224.439612 
L 991.343489 226.73712 
L 992.155938 233.464654 
L 992.968387 224.941112 
L 993.780835 221.357066 
L 994.593284 240.071135 
L 995.405733 226.803897 
L 996.218182 143.28 
L 996.218182 143.28 
" style="fill:none;stroke:#1f77b4;stroke-linecap:square;stroke-width:1.5;"/>
   </g>
   <g id="line2d_14">
    <path clip-path="url(#p78cb9f3c5b)" d="M 184.581818 58.70151 
L 319.448321 58.70151 
L 320.26077 227.85849 
L 454.314824 227.85849 
L 455.127273 58.70151 
L 589.993776 58.70151 
L 590.806224 227.85849 
L 724.860278 227.85849 
L 725.672727 58.70151 
L 860.53923 58.70151 
L 861.351679 227.85849 
L 995.405733 227.85849 
L 996.218182 58.70151 
L 996.218182 58.70151 
" style="fill:none;stroke:#ff7f0e;stroke-linecap:square;stroke-width:1.5;"/>
   </g>
   <g id="patch_3">
    <path d="M 144 252 
L 144 34.56 
" style="fill:none;stroke:#000000;stroke-linecap:square;stroke-linejoin:miter;stroke-width:0.8;"/>
   </g>
   <g id="patch_4">
    <path d="M 1036.8 252 
L 1036.8 34.56 
" style="fill:none;stroke:#000000;stroke-linecap:square;stroke-linejoin:miter;stroke-width:0.8;"/>
   </g>
   <g id="patch_5">
    <path d="M 144 252 
L 1036.8 252 
" style="fill:none;stroke:#000000;stroke-linecap:square;stroke-linejoin:miter;stroke-width:0.8;"/>
   </g>
   <g id="patch_6">
    <path d="M 144 34.56 
L 1036.8 34.56 
" style="fill:none;stroke:#000000;stroke-linecap:square;stroke-linejoin:miter;stroke-width:0.8;"/>
   </g>
  </g>
 </g>
 <defs>
  <clipPath id="p78cb9f3c5b">
   <rect height="217.44" width="892.8" x="144" y="34.56"/>
  </clipPath>
 </defs>
</svg>
