<?xml version="1.0" encoding="utf-8" standalone="no"?>
<!DOCTYPE svg PUBLIC "-//W3C//DTD SVG 1.1//EN"
  "http://www.w3.org/Graphics/SVG/1.1/DTD/svg11.dtd">
<!-- Created with matplotlib (http://matplotlib.org/) -->
<svg height="288pt" version="1.1" viewBox="0 0 432 288" width="432pt" xmlns="http://www.w3.org/2000/svg" xmlns:xlink="http://www.w3.org/1999/xlink">
 <defs>
  <style type="text/css">
*{stroke-linecap:butt;stroke-linejoin:round;}
  </style>
 </defs>
 <g id="figure_1">
  <g id="patch_1">
   <path d="M 0 288 
L 432 288 
L 432 0 
L 0 0 
z
" style="fill:#ffffff;"/>
  </g>
  <g id="axes_1">
   <g id="patch_2">
    <path d="M 54 252 
L 388.8 252 
L 388.8 34.56 
L 54 34.56 
z
" style="fill:#ffffff;"/>
   </g>
   <g id="matplotlib.axis_1">
    <g id="xtick_1">
     <g id="line2d_1">
      <defs>
       <path d="M 0 0 
L 0 3.5 
" id="mad9abcc907" style="stroke:#000000;stroke-width:0.8;"/>
      </defs>
      <g>
       <use style="stroke:#000000;stroke-width:0.8;" x="69.218182" xlink:href="#mad9abcc907" y="252"/>
      </g>
     </g>
     <g id="text_1">
      <!-- 0.0 -->
      <defs>
       <path d="M 31.78125 66.40625 
Q 24.171875 66.40625 20.328125 58.90625 
Q 16.5 51.421875 16.5 36.375 
Q 16.5 21.390625 20.328125 13.890625 
Q 24.171875 6.390625 31.78125 6.390625 
Q 39.453125 6.390625 43.28125 13.890625 
Q 47.125 21.390625 47.125 36.375 
Q 47.125 51.421875 43.28125 58.90625 
Q 39.453125 66.40625 31.78125 66.40625 
z
M 31.78125 74.21875 
Q 44.046875 74.21875 50.515625 64.515625 
Q 56.984375 54.828125 56.984375 36.375 
Q 56.984375 17.96875 50.515625 8.265625 
Q 44.046875 -1.421875 31.78125 -1.421875 
Q 19.53125 -1.421875 13.0625 8.265625 
Q 6.59375 17.96875 6.59375 36.375 
Q 6.59375 54.828125 13.0625 64.515625 
Q 19.53125 74.21875 31.78125 74.21875 
z
" id="DejaVuSans-30"/>
       <path d="M 10.6875 12.40625 
L 21 12.40625 
L 21 0 
L 10.6875 0 
z
" id="DejaVuSans-2e"/>
      </defs>
      <g transform="translate(61.266619 266.598437)scale(0.1 -0.1)">
       <use xlink:href="#DejaVuSans-30"/>
       <use x="63.623047" xlink:href="#DejaVuSans-2e"/>
       <use x="95.410156" xlink:href="#DejaVuSans-30"/>
      </g>
     </g>
    </g>
    <g id="xtick_2">
     <g id="line2d_2">
      <g>
       <use style="stroke:#000000;stroke-width:0.8;" x="119.945455" xlink:href="#mad9abcc907" y="252"/>
      </g>
     </g>
     <g id="text_2">
      <!-- 0.5 -->
      <defs>
       <path d="M 10.796875 72.90625 
L 49.515625 72.90625 
L 49.515625 64.59375 
L 19.828125 64.59375 
L 19.828125 46.734375 
Q 21.96875 47.46875 24.109375 47.828125 
Q 26.265625 48.1875 28.421875 48.1875 
Q 40.625 48.1875 47.75 41.5 
Q 54.890625 34.8125 54.890625 23.390625 
Q 54.890625 11.625 47.5625 5.09375 
Q 40.234375 -1.421875 26.90625 -1.421875 
Q 22.3125 -1.421875 17.546875 -0.640625 
Q 12.796875 0.140625 7.71875 1.703125 
L 7.71875 11.625 
Q 12.109375 9.234375 16.796875 8.0625 
Q 21.484375 6.890625 26.703125 6.890625 
Q 35.15625 6.890625 40.078125 11.328125 
Q 45.015625 15.765625 45.015625 23.390625 
Q 45.015625 31 40.078125 35.4375 
Q 35.15625 39.890625 26.703125 39.890625 
Q 22.75 39.890625 18.8125 39.015625 
Q 14.890625 38.140625 10.796875 36.28125 
z
" id="DejaVuSans-35"/>
      </defs>
      <g transform="translate(111.993892 266.598437)scale(0.1 -0.1)">
       <use xlink:href="#DejaVuSans-30"/>
       <use x="63.623047" xlink:href="#DejaVuSans-2e"/>
       <use x="95.410156" xlink:href="#DejaVuSans-35"/>
      </g>
     </g>
    </g>
    <g id="xtick_3">
     <g id="line2d_3">
      <g>
       <use style="stroke:#000000;stroke-width:0.8;" x="170.672727" xlink:href="#mad9abcc907" y="252"/>
      </g>
     </g>
     <g id="text_3">
      <!-- 1.0 -->
      <defs>
       <path d="M 12.40625 8.296875 
L 28.515625 8.296875 
L 28.515625 63.921875 
L 10.984375 60.40625 
L 10.984375 69.390625 
L 28.421875 72.90625 
L 38.28125 72.90625 
L 38.28125 8.296875 
L 54.390625 8.296875 
L 54.390625 0 
L 12.40625 0 
z
" id="DejaVuSans-31"/>
      </defs>
      <g transform="translate(162.721165 266.598437)scale(0.1 -0.1)">
       <use xlink:href="#DejaVuSans-31"/>
       <use x="63.623047" xlink:href="#DejaVuSans-2e"/>
       <use x="95.410156" xlink:href="#DejaVuSans-30"/>
      </g>
     </g>
    </g>
    <g id="xtick_4">
     <g id="line2d_4">
      <g>
       <use style="stroke:#000000;stroke-width:0.8;" x="221.4" xlink:href="#mad9abcc907" y="252"/>
      </g>
     </g>
     <g id="text_4">
      <!-- 1.5 -->
      <g transform="translate(213.448438 266.598437)scale(0.1 -0.1)">
       <use xlink:href="#DejaVuSans-31"/>
       <use x="63.623047" xlink:href="#DejaVuSans-2e"/>
       <use x="95.410156" xlink:href="#DejaVuSans-35"/>
      </g>
     </g>
    </g>
    <g id="xtick_5">
     <g id="line2d_5">
      <g>
       <use style="stroke:#000000;stroke-width:0.8;" x="272.127273" xlink:href="#mad9abcc907" y="252"/>
      </g>
     </g>
     <g id="text_5">
      <!-- 2.0 -->
      <defs>
       <path d="M 19.1875 8.296875 
L 53.609375 8.296875 
L 53.609375 0 
L 7.328125 0 
L 7.328125 8.296875 
Q 12.9375 14.109375 22.625 23.890625 
Q 32.328125 33.6875 34.8125 36.53125 
Q 39.546875 41.84375 41.421875 45.53125 
Q 43.3125 49.21875 43.3125 52.78125 
Q 43.3125 58.59375 39.234375 62.25 
Q 35.15625 65.921875 28.609375 65.921875 
Q 23.96875 65.921875 18.8125 64.3125 
Q 13.671875 62.703125 7.8125 59.421875 
L 7.8125 69.390625 
Q 13.765625 71.78125 18.9375 73 
Q 24.125 74.21875 28.421875 74.21875 
Q 39.75 74.21875 46.484375 68.546875 
Q 53.21875 62.890625 53.21875 53.421875 
Q 53.21875 48.921875 51.53125 44.890625 
Q 49.859375 40.875 45.40625 35.40625 
Q 44.1875 33.984375 37.640625 27.21875 
Q 31.109375 20.453125 19.1875 8.296875 
z
" id="DejaVuSans-32"/>
      </defs>
      <g transform="translate(264.17571 266.598437)scale(0.1 -0.1)">
       <use xlink:href="#DejaVuSans-32"/>
       <use x="63.623047" xlink:href="#DejaVuSans-2e"/>
       <use x="95.410156" xlink:href="#DejaVuSans-30"/>
      </g>
     </g>
    </g>
    <g id="xtick_6">
     <g id="line2d_6">
      <g>
       <use style="stroke:#000000;stroke-width:0.8;" x="322.854545" xlink:href="#mad9abcc907" y="252"/>
      </g>
     </g>
     <g id="text_6">
      <!-- 2.5 -->
      <g transform="translate(314.902983 266.598437)scale(0.1 -0.1)">
       <use xlink:href="#DejaVuSans-32"/>
       <use x="63.623047" xlink:href="#DejaVuSans-2e"/>
       <use x="95.410156" xlink:href="#DejaVuSans-35"/>
      </g>
     </g>
    </g>
    <g id="xtick_7">
     <g id="line2d_7">
      <g>
       <use style="stroke:#000000;stroke-width:0.8;" x="373.581818" xlink:href="#mad9abcc907" y="252"/>
      </g>
     </g>
     <g id="text_7">
      <!-- 3.0 -->
      <defs>
       <path d="M 40.578125 39.3125 
Q 47.65625 37.796875 51.625 33 
Q 55.609375 28.21875 55.609375 21.1875 
Q 55.609375 10.40625 48.1875 4.484375 
Q 40.765625 -1.421875 27.09375 -1.421875 
Q 22.515625 -1.421875 17.65625 -0.515625 
Q 12.796875 0.390625 7.625 2.203125 
L 7.625 11.71875 
Q 11.71875 9.328125 16.59375 8.109375 
Q 21.484375 6.890625 26.8125 6.890625 
Q 36.078125 6.890625 40.9375 10.546875 
Q 45.796875 14.203125 45.796875 21.1875 
Q 45.796875 27.640625 41.28125 31.265625 
Q 36.765625 34.90625 28.71875 34.90625 
L 20.21875 34.90625 
L 20.21875 43.015625 
L 29.109375 43.015625 
Q 36.375 43.015625 40.234375 45.921875 
Q 44.09375 48.828125 44.09375 54.296875 
Q 44.09375 59.90625 40.109375 62.90625 
Q 36.140625 65.921875 28.71875 65.921875 
Q 24.65625 65.921875 20.015625 65.03125 
Q 15.375 64.15625 9.8125 62.3125 
L 9.8125 71.09375 
Q 15.4375 72.65625 20.34375 73.4375 
Q 25.25 74.21875 29.59375 74.21875 
Q 40.828125 74.21875 47.359375 69.109375 
Q 53.90625 64.015625 53.90625 55.328125 
Q 53.90625 49.265625 50.4375 45.09375 
Q 46.96875 40.921875 40.578125 39.3125 
z
" id="DejaVuSans-33"/>
      </defs>
      <g transform="translate(365.630256 266.598437)scale(0.1 -0.1)">
       <use xlink:href="#DejaVuSans-33"/>
       <use x="63.623047" xlink:href="#DejaVuSans-2e"/>
       <use x="95.410156" xlink:href="#DejaVuSans-30"/>
      </g>
     </g>
    </g>
   </g>
   <g id="matplotlib.axis_2">
    <g id="ytick_1">
     <g id="line2d_8">
      <defs>
       <path d="M 0 0 
L -3.5 0 
" id="m4a8aea3b9b" style="stroke:#000000;stroke-width:0.8;"/>
      </defs>
      <g>
       <use style="stroke:#000000;stroke-width:0.8;" x="54" xlink:href="#m4a8aea3b9b" y="236.914678"/>
      </g>
     </g>
     <g id="text_8">
      <!-- −0.5 -->
      <defs>
       <path d="M 10.59375 35.5 
L 73.1875 35.5 
L 73.1875 27.203125 
L 10.59375 27.203125 
z
" id="DejaVuSans-2212"/>
      </defs>
      <g transform="translate(22.717187 240.713897)scale(0.1 -0.1)">
       <use xlink:href="#DejaVuSans-2212"/>
       <use x="83.789062" xlink:href="#DejaVuSans-30"/>
       <use x="147.412109" xlink:href="#DejaVuSans-2e"/>
       <use x="179.199219" xlink:href="#DejaVuSans-35"/>
      </g>
     </g>
    </g>
    <g id="ytick_2">
     <g id="line2d_9">
      <g>
       <use style="stroke:#000000;stroke-width:0.8;" x="54" xlink:href="#m4a8aea3b9b" y="210.904515"/>
      </g>
     </g>
     <g id="text_9">
      <!-- 0.0 -->
      <g transform="translate(31.096875 214.703734)scale(0.1 -0.1)">
       <use xlink:href="#DejaVuSans-30"/>
       <use x="63.623047" xlink:href="#DejaVuSans-2e"/>
       <use x="95.410156" xlink:href="#DejaVuSans-30"/>
      </g>
     </g>
    </g>
    <g id="ytick_3">
     <g id="line2d_10">
      <g>
       <use style="stroke:#000000;stroke-width:0.8;" x="54" xlink:href="#m4a8aea3b9b" y="184.894352"/>
      </g>
     </g>
     <g id="text_10">
      <!-- 0.5 -->
      <g transform="translate(31.096875 188.69357)scale(0.1 -0.1)">
       <use xlink:href="#DejaVuSans-30"/>
       <use x="63.623047" xlink:href="#DejaVuSans-2e"/>
       <use x="95.410156" xlink:href="#DejaVuSans-35"/>
      </g>
     </g>
    </g>
    <g id="ytick_4">
     <g id="line2d_11">
      <g>
       <use style="stroke:#000000;stroke-width:0.8;" x="54" xlink:href="#m4a8aea3b9b" y="158.884188"/>
      </g>
     </g>
     <g id="text_11">
      <!-- 1.0 -->
      <g transform="translate(31.096875 162.683407)scale(0.1 -0.1)">
       <use xlink:href="#DejaVuSans-31"/>
       <use x="63.623047" xlink:href="#DejaVuSans-2e"/>
       <use x="95.410156" xlink:href="#DejaVuSans-30"/>
      </g>
     </g>
    </g>
    <g id="ytick_5">
     <g id="line2d_12">
      <g>
       <use style="stroke:#000000;stroke-width:0.8;" x="54" xlink:href="#m4a8aea3b9b" y="132.874025"/>
      </g>
     </g>
     <g id="text_12">
      <!-- 1.5 -->
      <g transform="translate(31.096875 136.673244)scale(0.1 -0.1)">
       <use xlink:href="#DejaVuSans-31"/>
       <use x="63.623047" xlink:href="#DejaVuSans-2e"/>
       <use x="95.410156" xlink:href="#DejaVuSans-35"/>
      </g>
     </g>
    </g>
    <g id="ytick_6">
     <g id="line2d_13">
      <g>
       <use style="stroke:#000000;stroke-width:0.8;" x="54" xlink:href="#m4a8aea3b9b" y="106.863862"/>
      </g>
     </g>
     <g id="text_13">
      <!-- 2.0 -->
      <g transform="translate(31.096875 110.66308)scale(0.1 -0.1)">
       <use xlink:href="#DejaVuSans-32"/>
       <use x="63.623047" xlink:href="#DejaVuSans-2e"/>
       <use x="95.410156" xlink:href="#DejaVuSans-30"/>
      </g>
     </g>
    </g>
    <g id="ytick_7">
     <g id="line2d_14">
      <g>
       <use style="stroke:#000000;stroke-width:0.8;" x="54" xlink:href="#m4a8aea3b9b" y="80.853698"/>
      </g>
     </g>
     <g id="text_14">
      <!-- 2.5 -->
      <g transform="translate(31.096875 84.652917)scale(0.1 -0.1)">
       <use xlink:href="#DejaVuSans-32"/>
       <use x="63.623047" xlink:href="#DejaVuSans-2e"/>
       <use x="95.410156" xlink:href="#DejaVuSans-35"/>
      </g>
     </g>
    </g>
    <g id="ytick_8">
     <g id="line2d_15">
      <g>
       <use style="stroke:#000000;stroke-width:0.8;" x="54" xlink:href="#m4a8aea3b9b" y="54.843535"/>
      </g>
     </g>
     <g id="text_15">
      <!-- 3.0 -->
      <g transform="translate(31.096875 58.642754)scale(0.1 -0.1)">
       <use xlink:href="#DejaVuSans-33"/>
       <use x="63.623047" xlink:href="#DejaVuSans-2e"/>
       <use x="95.410156" xlink:href="#DejaVuSans-30"/>
      </g>
     </g>
    </g>
   </g>
   <g id="line2d_16">
    <path clip-path="url(#pd42012cae5)" d="M 69.218182 148.480123 
L 71.655528 148.598427 
L 74.092875 148.950649 
L 76.530221 149.528778 
L 78.967568 150.319666 
L 81.709582 151.44116 
L 84.756265 152.936779 
L 88.412285 155.004965 
L 93.286978 158.050772 
L 101.513022 163.214308 
L 105.169042 165.227511 
L 108.215725 166.661721 
L 110.95774 167.717723 
L 113.395086 168.443836 
L 115.832432 168.952545 
L 118.269779 169.23228 
L 120.707125 169.276681 
L 123.144472 169.084736 
L 125.581818 168.660812 
L 128.019165 168.014548 
L 130.761179 167.040224 
L 133.503194 165.831266 
L 136.549877 164.255293 
L 140.510565 161.930735 
L 147.213268 157.660103 
L 152.392629 154.465013 
L 156.048649 152.463348 
L 159.095332 151.041808 
L 161.837346 149.999191 
L 164.274693 149.286231 
L 166.712039 148.791547 
L 169.149386 148.526389 
L 171.586732 148.496787 
L 174.024079 148.703413 
L 176.461425 149.14157 
L 178.898771 149.801292 
L 181.640786 150.789453 
L 184.382801 152.010485 
L 187.734152 153.76739 
L 191.69484 156.120379 
L 206.014251 164.911867 
L 209.060934 166.395467 
L 211.802948 167.504057 
L 214.544963 168.364669 
L 216.98231 168.90129 
L 219.419656 169.210104 
L 221.857002 169.284087 
L 224.294349 169.121556 
L 226.731695 168.726209 
L 229.169042 168.107035 
L 231.911057 167.160644 
L 234.653071 165.976154 
L 237.699754 164.422453 
L 241.355774 162.303884 
L 246.839803 158.835111 
L 253.542506 154.643509 
L 257.198526 152.618947 
L 260.245209 151.172195 
L 262.987224 150.102902 
L 265.729238 149.286231 
L 268.166585 148.791547 
L 270.603931 148.526389 
L 273.041278 148.496787 
L 275.478624 148.703413 
L 277.915971 149.14157 
L 280.353317 149.801292 
L 283.095332 150.789453 
L 285.837346 152.010485 
L 289.188698 153.76739 
L 293.149386 156.120379 
L 307.468796 164.911867 
L 310.515479 166.395467 
L 313.257494 167.504057 
L 315.999509 168.364669 
L 318.436855 168.90129 
L 320.874201 169.210104 
L 323.311548 169.284087 
L 325.748894 169.121556 
L 328.186241 168.726209 
L 330.623587 168.107035 
L 333.365602 167.160644 
L 336.107617 165.976154 
L 339.1543 164.422453 
L 342.810319 162.303884 
L 348.294349 158.835111 
L 354.997052 154.643509 
L 358.653071 152.618947 
L 361.699754 151.172195 
L 364.441769 150.102902 
L 367.183784 149.286231 
L 369.62113 148.791547 
L 372.058477 148.526389 
L 373.581818 148.480123 
L 373.581818 148.480123 
" style="fill:none;stroke:#1f77b4;stroke-linecap:square;stroke-width:1.5;"/>
   </g>
   <g id="line2d_17">
    <path clip-path="url(#pd42012cae5)" d="M 69.218182 86.055731 
L 70.132187 86.188934 
L 71.046192 86.586836 
L 71.960197 87.244345 
L 72.874201 88.15304 
L 74.092875 89.734818 
L 75.311548 91.706142 
L 76.834889 94.649036 
L 78.662899 98.742513 
L 81.100246 104.805994 
L 85.365602 115.524102 
L 87.193612 119.550508 
L 88.716953 122.418927 
L 89.935627 124.320372 
L 91.1543 125.824823 
L 92.068305 126.671689 
L 92.98231 127.264957 
L 93.896314 127.597031 
L 94.810319 127.663659 
L 95.724324 127.463988 
L 96.638329 127.000575 
L 97.552334 126.279353 
L 98.466339 125.309555 
L 99.685012 123.651718 
L 100.903686 121.612094 
L 102.427027 118.597082 
L 104.255037 114.439813 
L 106.997052 107.550816 
L 110.653071 98.382502 
L 112.481081 94.333378 
L 114.004423 91.439876 
L 115.223096 89.514966 
L 116.441769 87.984602 
L 117.355774 87.117048 
L 118.269779 86.502312 
L 119.183784 86.148263 
L 120.097789 86.059435 
L 121.011794 86.236965 
L 121.925799 86.678579 
L 122.839803 87.378625 
L 123.753808 88.32814 
L 124.972482 89.960768 
L 126.191155 91.977805 
L 127.714496 94.969043 
L 129.542506 99.105415 
L 132.284521 105.980739 
L 136.245209 115.879536 
L 138.073219 119.859433 
L 139.59656 122.676922 
L 140.815233 124.530931 
L 142.033907 125.983158 
L 142.947912 126.788424 
L 143.861916 127.338598 
L 144.775921 127.626634 
L 145.689926 127.648846 
L 146.603931 127.404949 
L 147.517936 126.898066 
L 148.431941 126.134686 
L 149.345946 125.124582 
L 150.564619 123.416773 
L 151.783292 121.332519 
L 153.306634 118.270767 
L 155.134644 114.072817 
L 158.181327 106.373136 
L 161.532678 98.025511 
L 163.360688 94.022181 
L 164.884029 91.1791 
L 166.102703 89.30129 
L 167.321376 87.822885 
L 168.235381 86.996782 
L 169.149386 86.425036 
L 170.063391 86.114967 
L 170.977396 86.070545 
L 171.8914 86.292339 
L 172.805405 86.777509 
L 173.71941 87.519843 
L 174.633415 88.509838 
L 175.852088 90.192736 
L 177.070762 92.254767 
L 178.594103 95.293284 
L 180.422113 99.471079 
L 183.164128 106.373136 
L 186.820147 115.524102 
L 188.648157 119.550508 
L 190.171499 122.418927 
L 191.390172 124.320372 
L 192.608845 125.824823 
L 193.52285 126.671689 
L 194.436855 127.264957 
L 195.35086 127.597031 
L 196.264865 127.663659 
L 197.17887 127.463988 
L 198.092875 127.000575 
L 199.00688 126.279353 
L 199.920885 125.309555 
L 201.139558 123.651718 
L 202.358231 121.612094 
L 203.881572 118.597082 
L 205.709582 114.439813 
L 208.451597 107.550816 
L 212.107617 98.382502 
L 213.935627 94.333378 
L 215.458968 91.439876 
L 216.677641 89.514966 
L 217.896314 87.984602 
L 218.810319 87.117048 
L 219.724324 86.502312 
L 220.638329 86.148263 
L 221.552334 86.059435 
L 222.466339 86.236965 
L 223.380344 86.678579 
L 224.294349 87.378625 
L 225.208354 88.32814 
L 226.427027 89.960768 
L 227.6457 91.977805 
L 229.169042 94.969043 
L 230.997052 99.105415 
L 233.739066 105.980739 
L 237.699754 115.879536 
L 239.527764 119.859433 
L 241.051106 122.676922 
L 242.269779 124.530931 
L 243.488452 125.983158 
L 244.402457 126.788424 
L 245.316462 127.338598 
L 246.230467 127.626634 
L 247.144472 127.648846 
L 248.058477 127.404949 
L 248.972482 126.898066 
L 249.886486 126.134686 
L 250.800491 125.124582 
L 252.019165 123.416773 
L 253.237838 121.332519 
L 254.761179 118.270767 
L 256.589189 114.072817 
L 259.635872 106.373136 
L 262.987224 98.025511 
L 264.815233 94.022181 
L 266.338575 91.1791 
L 267.557248 89.30129 
L 268.775921 87.822885 
L 269.689926 86.996782 
L 270.603931 86.425036 
L 271.517936 86.114967 
L 272.431941 86.070545 
L 273.345946 86.292339 
L 274.259951 86.777509 
L 275.173956 87.519843 
L 276.087961 88.509838 
L 277.306634 90.192736 
L 278.525307 92.254767 
L 280.048649 95.293284 
L 281.876658 99.471079 
L 284.618673 106.373136 
L 288.274693 115.524102 
L 290.102703 119.550508 
L 291.626044 122.418927 
L 292.844717 124.320372 
L 294.063391 125.824823 
L 294.977396 126.671689 
L 295.8914 127.264957 
L 296.805405 127.597031 
L 297.71941 127.663659 
L 298.633415 127.463988 
L 299.54742 127.000575 
L 300.461425 126.279353 
L 301.37543 125.309555 
L 302.594103 123.651718 
L 303.812776 121.612094 
L 305.336118 118.597082 
L 307.164128 114.439813 
L 309.906143 107.550816 
L 313.562162 98.382502 
L 315.390172 94.333378 
L 316.913514 91.439876 
L 318.132187 89.514966 
L 319.35086 87.984602 
L 320.264865 87.117048 
L 321.17887 86.502312 
L 322.092875 86.148263 
L 323.00688 86.059435 
L 323.920885 86.236965 
L 324.834889 86.678579 
L 325.748894 87.378625 
L 326.662899 88.32814 
L 327.881572 89.960768 
L 329.100246 91.977805 
L 330.623587 94.969043 
L 332.451597 99.105415 
L 335.193612 105.980739 
L 339.1543 115.879536 
L 340.98231 119.859433 
L 342.505651 122.676922 
L 343.724324 124.530931 
L 344.942998 125.983158 
L 345.857002 126.788424 
L 346.771007 127.338598 
L 347.685012 127.626634 
L 348.599017 127.648846 
L 349.513022 127.404949 
L 350.427027 126.898066 
L 351.341032 126.134686 
L 352.255037 125.124582 
L 353.47371 123.416773 
L 354.692383 121.332519 
L 356.215725 118.270767 
L 358.043735 114.072817 
L 361.090418 106.373136 
L 364.441769 98.025511 
L 366.269779 94.022181 
L 367.79312 91.1791 
L 369.011794 89.30129 
L 370.230467 87.822885 
L 371.144472 86.996782 
L 372.058477 86.425036 
L 372.972482 86.114967 
L 373.581818 86.055731 
L 373.581818 86.055731 
" style="fill:none;stroke:#ff7f0e;stroke-linecap:square;stroke-width:1.5;"/>
   </g>
   <g id="line2d_18">
    <path clip-path="url(#pd42012cae5)" d="M 69.218182 65.2476 
L 70.132187 65.097947 
L 71.046192 64.653293 
L 71.960197 63.926431 
L 72.874201 62.93827 
L 74.092875 61.264375 
L 75.616216 58.722758 
L 78.358231 53.522033 
L 80.490909 49.641502 
L 82.014251 47.332257 
L 83.232924 45.907865 
L 84.146929 45.135789 
L 85.060934 44.642987 
L 85.974939 44.443636 
L 86.888943 44.543472 
L 87.802948 44.939621 
L 88.716953 45.620688 
L 89.630958 46.567079 
L 90.849631 48.1936 
L 92.372973 50.692673 
L 94.810319 55.285096 
L 97.247666 59.788506 
L 98.771007 62.148082 
L 99.989681 63.624821 
L 100.903686 64.441492 
L 101.81769 64.982048 
L 102.731695 65.230937 
L 103.6457 65.180999 
L 104.559705 64.833671 
L 105.47371 64.198946 
L 106.387715 63.295082 
L 107.606388 61.717238 
L 109.12973 59.26271 
L 111.262408 55.285096 
L 114.004423 50.159586 
L 115.527764 47.75157 
L 116.746437 46.223666 
L 117.660442 45.363054 
L 118.574447 44.775178 
L 119.488452 44.47695 
L 120.402457 44.47695 
L 121.316462 44.775178 
L 122.230467 45.363054 
L 123.144472 46.223666 
L 124.363145 47.75157 
L 125.581818 49.641502 
L 127.409828 52.940307 
L 131.370516 60.298462 
L 132.893857 62.555528 
L 134.112531 63.926431 
L 135.026536 64.653293 
L 135.940541 65.097947 
L 136.854545 65.2476 
L 137.76855 65.097947 
L 138.682555 64.653293 
L 139.59656 63.926431 
L 140.510565 62.93827 
L 141.729238 61.264375 
L 143.25258 58.722758 
L 145.994595 53.522033 
L 148.127273 49.641502 
L 149.650614 47.332257 
L 150.869287 45.907865 
L 151.783292 45.135789 
L 152.697297 44.642987 
L 153.611302 44.443636 
L 154.525307 44.543472 
L 155.439312 44.939621 
L 156.353317 45.620688 
L 157.267322 46.567079 
L 158.485995 48.1936 
L 160.009337 50.692673 
L 162.446683 55.285096 
L 164.884029 59.788506 
L 166.407371 62.148082 
L 167.626044 63.624821 
L 168.540049 64.441492 
L 169.454054 64.982048 
L 170.368059 65.230937 
L 171.282064 65.180999 
L 172.196069 64.833671 
L 173.110074 64.198946 
L 174.024079 63.295082 
L 175.242752 61.717238 
L 176.766093 59.26271 
L 178.898771 55.285096 
L 181.640786 50.159586 
L 183.164128 47.75157 
L 184.382801 46.223666 
L 185.296806 45.363054 
L 186.210811 44.775178 
L 187.124816 44.47695 
L 188.038821 44.47695 
L 188.952826 44.775178 
L 189.86683 45.363054 
L 190.780835 46.223666 
L 191.999509 47.75157 
L 193.218182 49.641502 
L 195.046192 52.940307 
L 199.00688 60.298462 
L 200.530221 62.555528 
L 201.748894 63.926431 
L 202.662899 64.653293 
L 203.576904 65.097947 
L 204.490909 65.2476 
L 205.404914 65.097947 
L 206.318919 64.653293 
L 207.232924 63.926431 
L 208.146929 62.93827 
L 209.365602 61.264375 
L 210.888943 58.722758 
L 213.630958 53.522033 
L 215.763636 49.641502 
L 217.286978 47.332257 
L 218.505651 45.907865 
L 219.419656 45.135789 
L 220.333661 44.642987 
L 221.247666 44.443636 
L 222.161671 44.543472 
L 223.075676 44.939621 
L 223.989681 45.620688 
L 224.903686 46.567079 
L 226.122359 48.1936 
L 227.6457 50.692673 
L 230.083047 55.285096 
L 232.520393 59.788506 
L 234.043735 62.148082 
L 235.262408 63.624821 
L 236.176413 64.441492 
L 237.090418 64.982048 
L 238.004423 65.230937 
L 238.918428 65.180999 
L 239.832432 64.833671 
L 240.746437 64.198946 
L 241.660442 63.295082 
L 242.879115 61.717238 
L 244.402457 59.26271 
L 246.535135 55.285096 
L 249.27715 50.159586 
L 250.800491 47.75157 
L 252.019165 46.223666 
L 252.93317 45.363054 
L 253.847174 44.775178 
L 254.761179 44.47695 
L 255.675184 44.47695 
L 256.589189 44.775178 
L 257.503194 45.363054 
L 258.417199 46.223666 
L 259.635872 47.75157 
L 260.854545 49.641502 
L 262.682555 52.940307 
L 266.643243 60.298462 
L 268.166585 62.555528 
L 269.385258 63.926431 
L 270.299263 64.653293 
L 271.213268 65.097947 
L 272.127273 65.2476 
L 273.041278 65.097947 
L 273.955283 64.653293 
L 274.869287 63.926431 
L 275.783292 62.93827 
L 277.001966 61.264375 
L 278.525307 58.722758 
L 281.267322 53.522033 
L 283.4 49.641502 
L 284.923342 47.332257 
L 286.142015 45.907865 
L 287.05602 45.135789 
L 287.970025 44.642987 
L 288.884029 44.443636 
L 289.798034 44.543472 
L 290.712039 44.939621 
L 291.626044 45.620688 
L 292.540049 46.567079 
L 293.758722 48.1936 
L 295.282064 50.692673 
L 297.71941 55.285096 
L 300.156757 59.788506 
L 301.680098 62.148082 
L 302.898771 63.624821 
L 303.812776 64.441492 
L 304.726781 64.982048 
L 305.640786 65.230937 
L 306.554791 65.180999 
L 307.468796 64.833671 
L 308.382801 64.198946 
L 309.296806 63.295082 
L 310.515479 61.717238 
L 312.038821 59.26271 
L 314.171499 55.285096 
L 316.913514 50.159586 
L 318.436855 47.75157 
L 319.655528 46.223666 
L 320.569533 45.363054 
L 321.483538 44.775178 
L 322.397543 44.47695 
L 323.311548 44.47695 
L 324.225553 44.775178 
L 325.139558 45.363054 
L 326.053563 46.223666 
L 327.272236 47.75157 
L 328.490909 49.641502 
L 330.318919 52.940307 
L 334.279607 60.298462 
L 335.802948 62.555528 
L 337.021622 63.926431 
L 337.935627 64.653293 
L 338.849631 65.097947 
L 339.763636 65.2476 
L 340.677641 65.097947 
L 341.591646 64.653293 
L 342.505651 63.926431 
L 343.419656 62.93827 
L 344.638329 61.264375 
L 346.161671 58.722758 
L 348.903686 53.522033 
L 351.036364 49.641502 
L 352.559705 47.332257 
L 353.778378 45.907865 
L 354.692383 45.135789 
L 355.606388 44.642987 
L 356.520393 44.443636 
L 357.434398 44.543472 
L 358.348403 44.939621 
L 359.262408 45.620688 
L 360.176413 46.567079 
L 361.395086 48.1936 
L 362.918428 50.692673 
L 365.355774 55.285096 
L 367.79312 59.788506 
L 369.316462 62.148082 
L 370.535135 63.624821 
L 371.44914 64.441492 
L 372.363145 64.982048 
L 373.27715 65.230937 
L 373.581818 65.2476 
L 373.581818 65.2476 
" style="fill:none;stroke:#2ca02c;stroke-linecap:square;stroke-width:1.5;"/>
   </g>
   <g id="line2d_19">
    <path clip-path="url(#pd42012cae5)" d="M 69.218182 210.904515 
L 75.00688 199.95309 
L 78.053563 194.665286 
L 80.490909 190.841702 
L 82.623587 187.867619 
L 84.756265 185.294828 
L 86.584275 183.443151 
L 88.107617 182.167787 
L 89.630958 181.148004 
L 91.1543 180.392869 
L 92.677641 179.9091 
L 94.200983 179.701 
L 95.724324 179.770418 
L 97.247666 180.116738 
L 98.771007 180.736879 
L 100.294349 181.625327 
L 101.81769 182.774179 
L 103.341032 184.173217 
L 105.169042 186.164639 
L 106.997052 188.472805 
L 109.12973 191.526361 
L 111.567076 195.426096 
L 114.613759 200.784591 
L 118.574447 208.257536 
L 125.886486 222.13119 
L 128.93317 227.394486 
L 131.370516 231.192003 
L 133.503194 234.139062 
L 135.331204 236.344738 
L 137.159214 238.224703 
L 138.987224 239.75489 
L 140.510565 240.748578 
L 142.033907 241.476839 
L 143.557248 241.933194 
L 145.08059 242.113586 
L 146.603931 242.016409 
L 148.127273 241.642527 
L 149.650614 240.995268 
L 151.173956 240.080385 
L 152.697297 238.906018 
L 154.525307 237.169119 
L 156.353317 235.095956 
L 158.485995 232.2879 
L 160.618673 229.107355 
L 163.05602 225.087672 
L 166.102703 219.620923 
L 170.977396 210.315625 
L 176.461425 199.95309 
L 179.508108 194.665286 
L 181.945455 190.841702 
L 184.078133 187.867619 
L 186.210811 185.294828 
L 188.038821 183.443151 
L 189.562162 182.167787 
L 191.085504 181.148004 
L 192.608845 180.392869 
L 194.132187 179.9091 
L 195.655528 179.701 
L 197.17887 179.770418 
L 198.702211 180.116738 
L 200.225553 180.736879 
L 201.748894 181.625327 
L 203.272236 182.774179 
L 204.795577 184.173217 
L 206.623587 186.164639 
L 208.451597 188.472805 
L 210.584275 191.526361 
L 213.021622 195.426096 
L 216.068305 200.784591 
L 220.028993 208.257536 
L 227.341032 222.13119 
L 230.387715 227.394486 
L 232.825061 231.192003 
L 234.95774 234.139062 
L 236.785749 236.344738 
L 238.613759 238.224703 
L 240.441769 239.75489 
L 241.965111 240.748578 
L 243.488452 241.476839 
L 245.011794 241.933194 
L 246.535135 242.113586 
L 248.058477 242.016409 
L 249.581818 241.642527 
L 251.10516 240.995268 
L 252.628501 240.080385 
L 254.151843 238.906018 
L 255.979853 237.169119 
L 257.807862 235.095956 
L 259.940541 232.2879 
L 262.073219 229.107355 
L 264.510565 225.087672 
L 267.557248 219.620923 
L 272.431941 210.315625 
L 277.915971 199.95309 
L 280.962654 194.665286 
L 283.4 190.841702 
L 285.532678 187.867619 
L 287.665356 185.294828 
L 289.493366 183.443151 
L 291.016708 182.167787 
L 292.540049 181.148004 
L 294.063391 180.392869 
L 295.586732 179.9091 
L 297.110074 179.701 
L 298.633415 179.770418 
L 300.156757 180.116738 
L 301.680098 180.736879 
L 303.20344 181.625327 
L 304.726781 182.774179 
L 306.250123 184.173217 
L 308.078133 186.164639 
L 309.906143 188.472805 
L 312.038821 191.526361 
L 314.476167 195.426096 
L 317.52285 200.784591 
L 321.483538 208.257536 
L 328.795577 222.13119 
L 331.84226 227.394486 
L 334.279607 231.192003 
L 336.412285 234.139062 
L 338.240295 236.344738 
L 340.068305 238.224703 
L 341.896314 239.75489 
L 343.419656 240.748578 
L 344.942998 241.476839 
L 346.466339 241.933194 
L 347.989681 242.113586 
L 349.513022 242.016409 
L 351.036364 241.642527 
L 352.559705 240.995268 
L 354.083047 240.080385 
L 355.606388 238.906018 
L 357.434398 237.169119 
L 359.262408 235.095956 
L 361.395086 232.2879 
L 363.527764 229.107355 
L 365.965111 225.087672 
L 369.011794 219.620923 
L 373.581818 210.904515 
L 373.581818 210.904515 
" style="fill:none;stroke:#d62728;stroke-linecap:square;stroke-width:1.5;"/>
   </g>
   <g id="patch_3">
    <path d="M 54 252 
L 54 34.56 
" style="fill:none;stroke:#000000;stroke-linecap:square;stroke-linejoin:miter;stroke-width:0.8;"/>
   </g>
   <g id="patch_4">
    <path d="M 388.8 252 
L 388.8 34.56 
" style="fill:none;stroke:#000000;stroke-linecap:square;stroke-linejoin:miter;stroke-width:0.8;"/>
   </g>
   <g id="patch_5">
    <path d="M 54 252 
L 388.8 252 
" style="fill:none;stroke:#000000;stroke-linecap:square;stroke-linejoin:miter;stroke-width:0.8;"/>
   </g>
   <g id="patch_6">
    <path d="M 54 34.56 
L 388.8 34.56 
" style="fill:none;stroke:#000000;stroke-linecap:square;stroke-linejoin:miter;stroke-width:0.8;"/>
   </g>
  </g>
 </g>
 <defs>
  <clipPath id="pd42012cae5">
   <rect height="217.44" width="334.8" x="54" y="34.56"/>
  </clipPath>
 </defs>
</svg>
