<?xml version="1.0" encoding="utf-8" standalone="no"?>
<!DOCTYPE svg PUBLIC "-//W3C//DTD SVG 1.1//EN"
  "http://www.w3.org/Graphics/SVG/1.1/DTD/svg11.dtd">
<!-- Created with matplotlib (http://matplotlib.org/) -->
<svg height="288pt" version="1.1" viewBox="0 0 432 288" width="432pt" xmlns="http://www.w3.org/2000/svg" xmlns:xlink="http://www.w3.org/1999/xlink">
 <defs>
  <style type="text/css">
*{stroke-linecap:butt;stroke-linejoin:round;}
  </style>
 </defs>
 <g id="figure_1">
  <g id="patch_1">
   <path d="M 0 288 
L 432 288 
L 432 0 
L 0 0 
z
" style="fill:#ffffff;"/>
  </g>
  <g id="axes_1">
   <g id="patch_2">
    <path d="M 54 252 
L 388.8 252 
L 388.8 34.56 
L 54 34.56 
z
" style="fill:#ffffff;"/>
   </g>
   <g id="matplotlib.axis_1">
    <g id="xtick_1">
     <g id="line2d_1">
      <defs>
       <path d="M 0 0 
L 0 3.5 
" id="m2b9b1183ec" style="stroke:#000000;stroke-width:0.8;"/>
      </defs>
      <g>
       <use style="stroke:#000000;stroke-width:0.8;" x="69.218182" xlink:href="#m2b9b1183ec" y="252"/>
      </g>
     </g>
     <g id="text_1">
      <!-- 0.0 -->
      <defs>
       <path d="M 31.78125 66.40625 
Q 24.171875 66.40625 20.328125 58.90625 
Q 16.5 51.421875 16.5 36.375 
Q 16.5 21.390625 20.328125 13.890625 
Q 24.171875 6.390625 31.78125 6.390625 
Q 39.453125 6.390625 43.28125 13.890625 
Q 47.125 21.390625 47.125 36.375 
Q 47.125 51.421875 43.28125 58.90625 
Q 39.453125 66.40625 31.78125 66.40625 
z
M 31.78125 74.21875 
Q 44.046875 74.21875 50.515625 64.515625 
Q 56.984375 54.828125 56.984375 36.375 
Q 56.984375 17.96875 50.515625 8.265625 
Q 44.046875 -1.421875 31.78125 -1.421875 
Q 19.53125 -1.421875 13.0625 8.265625 
Q 6.59375 17.96875 6.59375 36.375 
Q 6.59375 54.828125 13.0625 64.515625 
Q 19.53125 74.21875 31.78125 74.21875 
z
" id="DejaVuSans-30"/>
       <path d="M 10.6875 12.40625 
L 21 12.40625 
L 21 0 
L 10.6875 0 
z
" id="DejaVuSans-2e"/>
      </defs>
      <g transform="translate(61.266619 266.598437)scale(0.1 -0.1)">
       <use xlink:href="#DejaVuSans-30"/>
       <use x="63.623047" xlink:href="#DejaVuSans-2e"/>
       <use x="95.410156" xlink:href="#DejaVuSans-30"/>
      </g>
     </g>
    </g>
    <g id="xtick_2">
     <g id="line2d_2">
      <g>
       <use style="stroke:#000000;stroke-width:0.8;" x="119.945455" xlink:href="#m2b9b1183ec" y="252"/>
      </g>
     </g>
     <g id="text_2">
      <!-- 0.5 -->
      <defs>
       <path d="M 10.796875 72.90625 
L 49.515625 72.90625 
L 49.515625 64.59375 
L 19.828125 64.59375 
L 19.828125 46.734375 
Q 21.96875 47.46875 24.109375 47.828125 
Q 26.265625 48.1875 28.421875 48.1875 
Q 40.625 48.1875 47.75 41.5 
Q 54.890625 34.8125 54.890625 23.390625 
Q 54.890625 11.625 47.5625 5.09375 
Q 40.234375 -1.421875 26.90625 -1.421875 
Q 22.3125 -1.421875 17.546875 -0.640625 
Q 12.796875 0.140625 7.71875 1.703125 
L 7.71875 11.625 
Q 12.109375 9.234375 16.796875 8.0625 
Q 21.484375 6.890625 26.703125 6.890625 
Q 35.15625 6.890625 40.078125 11.328125 
Q 45.015625 15.765625 45.015625 23.390625 
Q 45.015625 31 40.078125 35.4375 
Q 35.15625 39.890625 26.703125 39.890625 
Q 22.75 39.890625 18.8125 39.015625 
Q 14.890625 38.140625 10.796875 36.28125 
z
" id="DejaVuSans-35"/>
      </defs>
      <g transform="translate(111.993892 266.598437)scale(0.1 -0.1)">
       <use xlink:href="#DejaVuSans-30"/>
       <use x="63.623047" xlink:href="#DejaVuSans-2e"/>
       <use x="95.410156" xlink:href="#DejaVuSans-35"/>
      </g>
     </g>
    </g>
    <g id="xtick_3">
     <g id="line2d_3">
      <g>
       <use style="stroke:#000000;stroke-width:0.8;" x="170.672727" xlink:href="#m2b9b1183ec" y="252"/>
      </g>
     </g>
     <g id="text_3">
      <!-- 1.0 -->
      <defs>
       <path d="M 12.40625 8.296875 
L 28.515625 8.296875 
L 28.515625 63.921875 
L 10.984375 60.40625 
L 10.984375 69.390625 
L 28.421875 72.90625 
L 38.28125 72.90625 
L 38.28125 8.296875 
L 54.390625 8.296875 
L 54.390625 0 
L 12.40625 0 
z
" id="DejaVuSans-31"/>
      </defs>
      <g transform="translate(162.721165 266.598437)scale(0.1 -0.1)">
       <use xlink:href="#DejaVuSans-31"/>
       <use x="63.623047" xlink:href="#DejaVuSans-2e"/>
       <use x="95.410156" xlink:href="#DejaVuSans-30"/>
      </g>
     </g>
    </g>
    <g id="xtick_4">
     <g id="line2d_4">
      <g>
       <use style="stroke:#000000;stroke-width:0.8;" x="221.4" xlink:href="#m2b9b1183ec" y="252"/>
      </g>
     </g>
     <g id="text_4">
      <!-- 1.5 -->
      <g transform="translate(213.448438 266.598437)scale(0.1 -0.1)">
       <use xlink:href="#DejaVuSans-31"/>
       <use x="63.623047" xlink:href="#DejaVuSans-2e"/>
       <use x="95.410156" xlink:href="#DejaVuSans-35"/>
      </g>
     </g>
    </g>
    <g id="xtick_5">
     <g id="line2d_5">
      <g>
       <use style="stroke:#000000;stroke-width:0.8;" x="272.127273" xlink:href="#m2b9b1183ec" y="252"/>
      </g>
     </g>
     <g id="text_5">
      <!-- 2.0 -->
      <defs>
       <path d="M 19.1875 8.296875 
L 53.609375 8.296875 
L 53.609375 0 
L 7.328125 0 
L 7.328125 8.296875 
Q 12.9375 14.109375 22.625 23.890625 
Q 32.328125 33.6875 34.8125 36.53125 
Q 39.546875 41.84375 41.421875 45.53125 
Q 43.3125 49.21875 43.3125 52.78125 
Q 43.3125 58.59375 39.234375 62.25 
Q 35.15625 65.921875 28.609375 65.921875 
Q 23.96875 65.921875 18.8125 64.3125 
Q 13.671875 62.703125 7.8125 59.421875 
L 7.8125 69.390625 
Q 13.765625 71.78125 18.9375 73 
Q 24.125 74.21875 28.421875 74.21875 
Q 39.75 74.21875 46.484375 68.546875 
Q 53.21875 62.890625 53.21875 53.421875 
Q 53.21875 48.921875 51.53125 44.890625 
Q 49.859375 40.875 45.40625 35.40625 
Q 44.1875 33.984375 37.640625 27.21875 
Q 31.109375 20.453125 19.1875 8.296875 
z
" id="DejaVuSans-32"/>
      </defs>
      <g transform="translate(264.17571 266.598437)scale(0.1 -0.1)">
       <use xlink:href="#DejaVuSans-32"/>
       <use x="63.623047" xlink:href="#DejaVuSans-2e"/>
       <use x="95.410156" xlink:href="#DejaVuSans-30"/>
      </g>
     </g>
    </g>
    <g id="xtick_6">
     <g id="line2d_6">
      <g>
       <use style="stroke:#000000;stroke-width:0.8;" x="322.854545" xlink:href="#m2b9b1183ec" y="252"/>
      </g>
     </g>
     <g id="text_6">
      <!-- 2.5 -->
      <g transform="translate(314.902983 266.598437)scale(0.1 -0.1)">
       <use xlink:href="#DejaVuSans-32"/>
       <use x="63.623047" xlink:href="#DejaVuSans-2e"/>
       <use x="95.410156" xlink:href="#DejaVuSans-35"/>
      </g>
     </g>
    </g>
    <g id="xtick_7">
     <g id="line2d_7">
      <g>
       <use style="stroke:#000000;stroke-width:0.8;" x="373.581818" xlink:href="#m2b9b1183ec" y="252"/>
      </g>
     </g>
     <g id="text_7">
      <!-- 3.0 -->
      <defs>
       <path d="M 40.578125 39.3125 
Q 47.65625 37.796875 51.625 33 
Q 55.609375 28.21875 55.609375 21.1875 
Q 55.609375 10.40625 48.1875 4.484375 
Q 40.765625 -1.421875 27.09375 -1.421875 
Q 22.515625 -1.421875 17.65625 -0.515625 
Q 12.796875 0.390625 7.625 2.203125 
L 7.625 11.71875 
Q 11.71875 9.328125 16.59375 8.109375 
Q 21.484375 6.890625 26.8125 6.890625 
Q 36.078125 6.890625 40.9375 10.546875 
Q 45.796875 14.203125 45.796875 21.1875 
Q 45.796875 27.640625 41.28125 31.265625 
Q 36.765625 34.90625 28.71875 34.90625 
L 20.21875 34.90625 
L 20.21875 43.015625 
L 29.109375 43.015625 
Q 36.375 43.015625 40.234375 45.921875 
Q 44.09375 48.828125 44.09375 54.296875 
Q 44.09375 59.90625 40.109375 62.90625 
Q 36.140625 65.921875 28.71875 65.921875 
Q 24.65625 65.921875 20.015625 65.03125 
Q 15.375 64.15625 9.8125 62.3125 
L 9.8125 71.09375 
Q 15.4375 72.65625 20.34375 73.4375 
Q 25.25 74.21875 29.59375 74.21875 
Q 40.828125 74.21875 47.359375 69.109375 
Q 53.90625 64.015625 53.90625 55.328125 
Q 53.90625 49.265625 50.4375 45.09375 
Q 46.96875 40.921875 40.578125 39.3125 
z
" id="DejaVuSans-33"/>
      </defs>
      <g transform="translate(365.630256 266.598437)scale(0.1 -0.1)">
       <use xlink:href="#DejaVuSans-33"/>
       <use x="63.623047" xlink:href="#DejaVuSans-2e"/>
       <use x="95.410156" xlink:href="#DejaVuSans-30"/>
      </g>
     </g>
    </g>
   </g>
   <g id="matplotlib.axis_2">
    <g id="ytick_1">
     <g id="line2d_8">
      <defs>
       <path d="M 0 0 
L -3.5 0 
" id="md976fd6822" style="stroke:#000000;stroke-width:0.8;"/>
      </defs>
      <g>
       <use style="stroke:#000000;stroke-width:0.8;" x="54" xlink:href="#md976fd6822" y="250.791066"/>
      </g>
     </g>
     <g id="text_8">
      <!-- −6 -->
      <defs>
       <path d="M 10.59375 35.5 
L 73.1875 35.5 
L 73.1875 27.203125 
L 10.59375 27.203125 
z
" id="DejaVuSans-2212"/>
       <path d="M 33.015625 40.375 
Q 26.375 40.375 22.484375 35.828125 
Q 18.609375 31.296875 18.609375 23.390625 
Q 18.609375 15.53125 22.484375 10.953125 
Q 26.375 6.390625 33.015625 6.390625 
Q 39.65625 6.390625 43.53125 10.953125 
Q 47.40625 15.53125 47.40625 23.390625 
Q 47.40625 31.296875 43.53125 35.828125 
Q 39.65625 40.375 33.015625 40.375 
z
M 52.59375 71.296875 
L 52.59375 62.3125 
Q 48.875 64.0625 45.09375 64.984375 
Q 41.3125 65.921875 37.59375 65.921875 
Q 27.828125 65.921875 22.671875 59.328125 
Q 17.53125 52.734375 16.796875 39.40625 
Q 19.671875 43.65625 24.015625 45.921875 
Q 28.375 48.1875 33.59375 48.1875 
Q 44.578125 48.1875 50.953125 41.515625 
Q 57.328125 34.859375 57.328125 23.390625 
Q 57.328125 12.15625 50.6875 5.359375 
Q 44.046875 -1.421875 33.015625 -1.421875 
Q 20.359375 -1.421875 13.671875 8.265625 
Q 6.984375 17.96875 6.984375 36.375 
Q 6.984375 53.65625 15.1875 63.9375 
Q 23.390625 74.21875 37.203125 74.21875 
Q 40.921875 74.21875 44.703125 73.484375 
Q 48.484375 72.75 52.59375 71.296875 
z
" id="DejaVuSans-36"/>
      </defs>
      <g transform="translate(32.257812 254.590284)scale(0.1 -0.1)">
       <use xlink:href="#DejaVuSans-2212"/>
       <use x="83.789062" xlink:href="#DejaVuSans-36"/>
      </g>
     </g>
    </g>
    <g id="ytick_2">
     <g id="line2d_9">
      <g>
       <use style="stroke:#000000;stroke-width:0.8;" x="54" xlink:href="#md976fd6822" y="207.565038"/>
      </g>
     </g>
     <g id="text_9">
      <!-- −4 -->
      <defs>
       <path d="M 37.796875 64.3125 
L 12.890625 25.390625 
L 37.796875 25.390625 
z
M 35.203125 72.90625 
L 47.609375 72.90625 
L 47.609375 25.390625 
L 58.015625 25.390625 
L 58.015625 17.1875 
L 47.609375 17.1875 
L 47.609375 0 
L 37.796875 0 
L 37.796875 17.1875 
L 4.890625 17.1875 
L 4.890625 26.703125 
z
" id="DejaVuSans-34"/>
      </defs>
      <g transform="translate(32.257812 211.364257)scale(0.1 -0.1)">
       <use xlink:href="#DejaVuSans-2212"/>
       <use x="83.789062" xlink:href="#DejaVuSans-34"/>
      </g>
     </g>
    </g>
    <g id="ytick_3">
     <g id="line2d_10">
      <g>
       <use style="stroke:#000000;stroke-width:0.8;" x="54" xlink:href="#md976fd6822" y="164.33901"/>
      </g>
     </g>
     <g id="text_10">
      <!-- −2 -->
      <g transform="translate(32.257812 168.138229)scale(0.1 -0.1)">
       <use xlink:href="#DejaVuSans-2212"/>
       <use x="83.789062" xlink:href="#DejaVuSans-32"/>
      </g>
     </g>
    </g>
    <g id="ytick_4">
     <g id="line2d_11">
      <g>
       <use style="stroke:#000000;stroke-width:0.8;" x="54" xlink:href="#md976fd6822" y="121.112982"/>
      </g>
     </g>
     <g id="text_11">
      <!-- 0 -->
      <g transform="translate(40.6375 124.912201)scale(0.1 -0.1)">
       <use xlink:href="#DejaVuSans-30"/>
      </g>
     </g>
    </g>
    <g id="ytick_5">
     <g id="line2d_12">
      <g>
       <use style="stroke:#000000;stroke-width:0.8;" x="54" xlink:href="#md976fd6822" y="77.886954"/>
      </g>
     </g>
     <g id="text_12">
      <!-- 2 -->
      <g transform="translate(40.6375 81.686173)scale(0.1 -0.1)">
       <use xlink:href="#DejaVuSans-32"/>
      </g>
     </g>
    </g>
    <g id="ytick_6">
     <g id="line2d_13">
      <g>
       <use style="stroke:#000000;stroke-width:0.8;" x="54" xlink:href="#md976fd6822" y="34.660926"/>
      </g>
     </g>
     <g id="text_13">
      <!-- 4 -->
      <g transform="translate(40.6375 38.460145)scale(0.1 -0.1)">
       <use xlink:href="#DejaVuSans-34"/>
      </g>
     </g>
    </g>
   </g>
   <g id="line2d_14">
    <path clip-path="url(#peeea6cd117)" d="M 69.218182 77.886954 
L 73.483538 61.162138 
L 75.311548 54.821274 
L 76.834889 50.372909 
L 78.053563 47.569086 
L 78.967568 46.000984 
L 79.881572 44.95256 
L 80.490909 44.566092 
L 81.100246 44.443636 
L 81.709582 44.594844 
L 82.318919 45.027001 
L 82.928256 45.744822 
L 83.537592 46.750278 
L 84.451597 48.794959 
L 85.365602 51.468296 
L 86.584275 55.954403 
L 87.802948 61.384226 
L 89.32629 69.24691 
L 91.763636 83.318603 
L 94.505651 99.090973 
L 96.028993 106.743536 
L 97.247666 111.871089 
L 98.161671 114.997722 
L 99.075676 117.428123 
L 99.989681 119.108447 
L 100.599017 119.793781 
L 101.208354 120.124217 
L 101.81769 120.098366 
L 102.427027 119.719036 
L 103.036364 118.99326 
L 103.6457 117.932286 
L 104.559705 115.747124 
L 105.47371 112.912209 
L 106.692383 108.27611 
L 108.215725 101.47229 
L 112.481081 81.556084 
L 113.699754 77.123462 
L 114.613759 74.54978 
L 115.223096 73.260291 
L 115.832432 72.350012 
L 116.441769 71.847846 
L 117.051106 71.778924 
L 117.660442 72.1643 
L 118.269779 73.020697 
L 118.879115 74.360285 
L 119.488452 76.190522 
L 120.402457 79.860263 
L 121.316462 84.626983 
L 122.230467 90.45427 
L 123.44914 99.766 
L 124.972482 113.58309 
L 126.800491 132.627532 
L 130.456511 174.171138 
L 132.589189 197.141848 
L 134.112531 211.568794 
L 135.331204 221.444247 
L 136.549877 229.564992 
L 137.463882 234.389836 
L 138.377887 238.068839 
L 138.987224 239.868912 
L 139.59656 241.142196 
L 140.205897 241.889609 
L 140.510565 242.067578 
L 140.815233 242.116364 
L 141.119902 242.037263 
L 141.729238 241.501827 
L 142.338575 240.476478 
L 142.947912 238.980013 
L 143.861916 235.901139 
L 144.775921 231.899478 
L 145.994595 225.301387 
L 147.517936 215.394393 
L 149.345946 201.790497 
L 156.657985 145.156459 
L 158.485995 133.326597 
L 160.314005 122.843032 
L 162.142015 113.56605 
L 164.274693 103.909315 
L 167.321376 91.326844 
L 174.938084 61.162138 
L 176.766093 54.821274 
L 178.289435 50.372909 
L 179.508108 47.569086 
L 180.422113 46.000984 
L 181.336118 44.95256 
L 181.945455 44.566092 
L 182.554791 44.443636 
L 183.164128 44.594844 
L 183.773464 45.027001 
L 184.382801 45.744822 
L 184.992138 46.750278 
L 185.906143 48.794959 
L 186.820147 51.468296 
L 188.038821 55.954403 
L 189.257494 61.384226 
L 190.780835 69.24691 
L 193.218182 83.318603 
L 195.960197 99.090973 
L 197.483538 106.743536 
L 198.702211 111.871089 
L 199.616216 114.997722 
L 200.530221 117.428123 
L 201.444226 119.108447 
L 202.053563 119.793781 
L 202.662899 120.124217 
L 203.272236 120.098366 
L 203.881572 119.719036 
L 204.490909 118.99326 
L 205.100246 117.932286 
L 206.014251 115.747124 
L 206.928256 112.912209 
L 208.146929 108.27611 
L 209.67027 101.47229 
L 213.935627 81.556084 
L 215.1543 77.123462 
L 216.068305 74.54978 
L 216.677641 73.260291 
L 217.286978 72.350012 
L 217.896314 71.847846 
L 218.505651 71.778924 
L 219.114988 72.1643 
L 219.724324 73.020697 
L 220.333661 74.360285 
L 220.942998 76.190522 
L 221.857002 79.860263 
L 222.771007 84.626983 
L 223.685012 90.45427 
L 224.903686 99.766 
L 226.427027 113.58309 
L 228.255037 132.627532 
L 231.911057 174.171138 
L 234.043735 197.141848 
L 235.567076 211.568794 
L 236.785749 221.444247 
L 238.004423 229.564992 
L 238.918428 234.389836 
L 239.832432 238.068839 
L 240.441769 239.868912 
L 241.051106 241.142196 
L 241.660442 241.889609 
L 241.965111 242.067578 
L 242.269779 242.116364 
L 242.574447 242.037263 
L 243.183784 241.501827 
L 243.79312 240.476478 
L 244.402457 238.980013 
L 245.316462 235.901139 
L 246.230467 231.899478 
L 247.44914 225.301387 
L 248.972482 215.394393 
L 250.800491 201.790497 
L 258.112531 145.156459 
L 259.940541 133.326597 
L 261.76855 122.843032 
L 263.59656 113.56605 
L 265.729238 103.909315 
L 268.775921 91.326844 
L 276.392629 61.162138 
L 278.220639 54.821274 
L 279.74398 50.372909 
L 280.962654 47.569086 
L 281.876658 46.000984 
L 282.790663 44.95256 
L 283.4 44.566092 
L 284.009337 44.443636 
L 284.618673 44.594844 
L 285.22801 45.027001 
L 285.837346 45.744822 
L 286.446683 46.750278 
L 287.360688 48.794959 
L 288.274693 51.468296 
L 289.493366 55.954403 
L 290.712039 61.384226 
L 292.235381 69.24691 
L 294.672727 83.318603 
L 297.414742 99.090973 
L 298.938084 106.743536 
L 300.156757 111.871089 
L 301.070762 114.997722 
L 301.984767 117.428123 
L 302.898771 119.108447 
L 303.508108 119.793781 
L 304.117445 120.124217 
L 304.726781 120.098366 
L 305.336118 119.719036 
L 305.945455 118.99326 
L 306.554791 117.932286 
L 307.468796 115.747124 
L 308.382801 112.912209 
L 309.601474 108.27611 
L 311.124816 101.47229 
L 315.390172 81.556084 
L 316.608845 77.123462 
L 317.52285 74.54978 
L 318.132187 73.260291 
L 318.741523 72.350012 
L 319.35086 71.847846 
L 319.960197 71.778924 
L 320.569533 72.1643 
L 321.17887 73.020697 
L 321.788206 74.360285 
L 322.397543 76.190522 
L 323.311548 79.860263 
L 324.225553 84.626983 
L 325.139558 90.45427 
L 326.358231 99.766 
L 327.881572 113.58309 
L 329.709582 132.627532 
L 333.365602 174.171138 
L 335.49828 197.141848 
L 337.021622 211.568794 
L 338.240295 221.444247 
L 339.458968 229.564992 
L 340.372973 234.389836 
L 341.286978 238.068839 
L 341.896314 239.868912 
L 342.505651 241.142196 
L 343.114988 241.889609 
L 343.419656 242.067578 
L 343.724324 242.116364 
L 344.028993 242.037263 
L 344.638329 241.501827 
L 345.247666 240.476478 
L 345.857002 238.980013 
L 346.771007 235.901139 
L 347.685012 231.899478 
L 348.903686 225.301387 
L 350.427027 215.394393 
L 352.255037 201.790497 
L 359.567076 145.156459 
L 361.395086 133.326597 
L 363.223096 122.843032 
L 365.051106 113.56605 
L 367.183784 103.909315 
L 370.230467 91.326844 
L 373.581818 77.886954 
L 373.581818 77.886954 
" style="fill:none;stroke:#1f77b4;stroke-linecap:square;stroke-width:1.5;"/>
   </g>
   <g id="patch_3">
    <path d="M 54 252 
L 54 34.56 
" style="fill:none;stroke:#000000;stroke-linecap:square;stroke-linejoin:miter;stroke-width:0.8;"/>
   </g>
   <g id="patch_4">
    <path d="M 388.8 252 
L 388.8 34.56 
" style="fill:none;stroke:#000000;stroke-linecap:square;stroke-linejoin:miter;stroke-width:0.8;"/>
   </g>
   <g id="patch_5">
    <path d="M 54 252 
L 388.8 252 
" style="fill:none;stroke:#000000;stroke-linecap:square;stroke-linejoin:miter;stroke-width:0.8;"/>
   </g>
   <g id="patch_6">
    <path d="M 54 34.56 
L 388.8 34.56 
" style="fill:none;stroke:#000000;stroke-linecap:square;stroke-linejoin:miter;stroke-width:0.8;"/>
   </g>
  </g>
 </g>
 <defs>
  <clipPath id="peeea6cd117">
   <rect height="217.44" width="334.8" x="54" y="34.56"/>
  </clipPath>
 </defs>
</svg>
