<?xml version="1.0" encoding="utf-8" standalone="no"?>
<!DOCTYPE svg PUBLIC "-//W3C//DTD SVG 1.1//EN"
  "http://www.w3.org/Graphics/SVG/1.1/DTD/svg11.dtd">
<!-- Created with matplotlib (http://matplotlib.org/) -->
<svg height="288pt" version="1.1" viewBox="0 0 432 288" width="432pt" xmlns="http://www.w3.org/2000/svg" xmlns:xlink="http://www.w3.org/1999/xlink">
 <defs>
  <style type="text/css">
*{stroke-linecap:butt;stroke-linejoin:round;}
  </style>
 </defs>
 <g id="figure_1">
  <g id="patch_1">
   <path d="M 0 288 
L 432 288 
L 432 0 
L 0 0 
z
" style="fill:#ffffff;"/>
  </g>
  <g id="axes_1">
   <g id="patch_2">
    <path d="M 54 252 
L 388.8 252 
L 388.8 34.56 
L 54 34.56 
z
" style="fill:#ffffff;"/>
   </g>
   <g id="PathCollection_1">
    <defs>
     <path d="M 0 3 
C 0.795609 3 1.55874 2.683901 2.12132 2.12132 
C 2.683901 1.55874 3 0.795609 3 0 
C 3 -0.795609 2.683901 -1.55874 2.12132 -2.12132 
C 1.55874 -2.683901 0.795609 -3 0 -3 
C -0.795609 -3 -1.55874 -2.683901 -2.12132 -2.12132 
C -2.683901 -1.55874 -3 -0.795609 -3 0 
C -3 0.795609 -2.683901 1.55874 -2.12132 2.12132 
C -1.55874 2.683901 -0.795609 3 0 3 
z
" id="mbb3f0f88b5" style="stroke:#1f77b4;"/>
    </defs>
    <g clip-path="url(#p092e0ce559)">
     <use style="fill:#1f77b4;stroke:#1f77b4;" x="69.245725" xlink:href="#mbb3f0f88b5" y="55.830174"/>
     <use style="fill:#1f77b4;stroke:#1f77b4;" x="72.319549" xlink:href="#mbb3f0f88b5" y="115.301534"/>
     <use style="fill:#1f77b4;stroke:#1f77b4;" x="75.393373" xlink:href="#mbb3f0f88b5" y="211.111201"/>
     <use style="fill:#1f77b4;stroke:#1f77b4;" x="78.467196" xlink:href="#mbb3f0f88b5" y="91.229866"/>
     <use style="fill:#1f77b4;stroke:#1f77b4;" x="81.54102" xlink:href="#mbb3f0f88b5" y="121.561029"/>
     <use style="fill:#1f77b4;stroke:#1f77b4;" x="84.614844" xlink:href="#mbb3f0f88b5" y="94.781222"/>
     <use style="fill:#1f77b4;stroke:#1f77b4;" x="87.688667" xlink:href="#mbb3f0f88b5" y="59.147645"/>
     <use style="fill:#1f77b4;stroke:#1f77b4;" x="90.762491" xlink:href="#mbb3f0f88b5" y="236.309208"/>
     <use style="fill:#1f77b4;stroke:#1f77b4;" x="93.836315" xlink:href="#mbb3f0f88b5" y="241.562384"/>
     <use style="fill:#1f77b4;stroke:#1f77b4;" x="96.910139" xlink:href="#mbb3f0f88b5" y="196.810378"/>
     <use style="fill:#1f77b4;stroke:#1f77b4;" x="99.983962" xlink:href="#mbb3f0f88b5" y="240.509902"/>
     <use style="fill:#1f77b4;stroke:#1f77b4;" x="103.057786" xlink:href="#mbb3f0f88b5" y="47.265683"/>
     <use style="fill:#1f77b4;stroke:#1f77b4;" x="106.13161" xlink:href="#mbb3f0f88b5" y="92.617788"/>
     <use style="fill:#1f77b4;stroke:#1f77b4;" x="109.205434" xlink:href="#mbb3f0f88b5" y="210.877316"/>
     <use style="fill:#1f77b4;stroke:#1f77b4;" x="112.279257" xlink:href="#mbb3f0f88b5" y="211.779004"/>
     <use style="fill:#1f77b4;stroke:#1f77b4;" x="115.353081" xlink:href="#mbb3f0f88b5" y="132.532071"/>
     <use style="fill:#1f77b4;stroke:#1f77b4;" x="118.426905" xlink:href="#mbb3f0f88b5" y="223.371687"/>
     <use style="fill:#1f77b4;stroke:#1f77b4;" x="121.500729" xlink:href="#mbb3f0f88b5" y="60.763297"/>
     <use style="fill:#1f77b4;stroke:#1f77b4;" x="124.574552" xlink:href="#mbb3f0f88b5" y="121.831843"/>
     <use style="fill:#1f77b4;stroke:#1f77b4;" x="127.648376" xlink:href="#mbb3f0f88b5" y="209.332446"/>
     <use style="fill:#1f77b4;stroke:#1f77b4;" x="130.7222" xlink:href="#mbb3f0f88b5" y="151.96605"/>
     <use style="fill:#1f77b4;stroke:#1f77b4;" x="133.796024" xlink:href="#mbb3f0f88b5" y="52.01416"/>
     <use style="fill:#1f77b4;stroke:#1f77b4;" x="136.869847" xlink:href="#mbb3f0f88b5" y="125.540147"/>
     <use style="fill:#1f77b4;stroke:#1f77b4;" x="139.943671" xlink:href="#mbb3f0f88b5" y="52.715814"/>
     <use style="fill:#1f77b4;stroke:#1f77b4;" x="143.017495" xlink:href="#mbb3f0f88b5" y="102.936415"/>
     <use style="fill:#1f77b4;stroke:#1f77b4;" x="146.091318" xlink:href="#mbb3f0f88b5" y="177.265612"/>
     <use style="fill:#1f77b4;stroke:#1f77b4;" x="149.165142" xlink:href="#mbb3f0f88b5" y="201.158788"/>
     <use style="fill:#1f77b4;stroke:#1f77b4;" x="152.238966" xlink:href="#mbb3f0f88b5" y="231.465332"/>
     <use style="fill:#1f77b4;stroke:#1f77b4;" x="155.31279" xlink:href="#mbb3f0f88b5" y="210.757297"/>
     <use style="fill:#1f77b4;stroke:#1f77b4;" x="158.386613" xlink:href="#mbb3f0f88b5" y="181.257041"/>
     <use style="fill:#1f77b4;stroke:#1f77b4;" x="161.460437" xlink:href="#mbb3f0f88b5" y="110.180688"/>
     <use style="fill:#1f77b4;stroke:#1f77b4;" x="164.534261" xlink:href="#mbb3f0f88b5" y="187.944299"/>
     <use style="fill:#1f77b4;stroke:#1f77b4;" x="167.608085" xlink:href="#mbb3f0f88b5" y="74.27322"/>
     <use style="fill:#1f77b4;stroke:#1f77b4;" x="170.681908" xlink:href="#mbb3f0f88b5" y="89.146445"/>
     <use style="fill:#1f77b4;stroke:#1f77b4;" x="173.755732" xlink:href="#mbb3f0f88b5" y="147.691498"/>
     <use style="fill:#1f77b4;stroke:#1f77b4;" x="176.829556" xlink:href="#mbb3f0f88b5" y="46.548642"/>
     <use style="fill:#1f77b4;stroke:#1f77b4;" x="179.90338" xlink:href="#mbb3f0f88b5" y="214.080922"/>
     <use style="fill:#1f77b4;stroke:#1f77b4;" x="182.977203" xlink:href="#mbb3f0f88b5" y="238.426481"/>
     <use style="fill:#1f77b4;stroke:#1f77b4;" x="186.051027" xlink:href="#mbb3f0f88b5" y="72.288277"/>
     <use style="fill:#1f77b4;stroke:#1f77b4;" x="189.124851" xlink:href="#mbb3f0f88b5" y="242.116321"/>
     <use style="fill:#1f77b4;stroke:#1f77b4;" x="192.198675" xlink:href="#mbb3f0f88b5" y="202.358987"/>
     <use style="fill:#1f77b4;stroke:#1f77b4;" x="195.272498" xlink:href="#mbb3f0f88b5" y="63.569914"/>
     <use style="fill:#1f77b4;stroke:#1f77b4;" x="198.346322" xlink:href="#mbb3f0f88b5" y="219.00789"/>
     <use style="fill:#1f77b4;stroke:#1f77b4;" x="201.420146" xlink:href="#mbb3f0f88b5" y="149.368698"/>
     <use style="fill:#1f77b4;stroke:#1f77b4;" x="204.493969" xlink:href="#mbb3f0f88b5" y="47.638052"/>
     <use style="fill:#1f77b4;stroke:#1f77b4;" x="207.567793" xlink:href="#mbb3f0f88b5" y="174.043542"/>
     <use style="fill:#1f77b4;stroke:#1f77b4;" x="210.641617" xlink:href="#mbb3f0f88b5" y="146.660558"/>
     <use style="fill:#1f77b4;stroke:#1f77b4;" x="213.715441" xlink:href="#mbb3f0f88b5" y="132.076611"/>
     <use style="fill:#1f77b4;stroke:#1f77b4;" x="216.789264" xlink:href="#mbb3f0f88b5" y="227.62162"/>
     <use style="fill:#1f77b4;stroke:#1f77b4;" x="219.863088" xlink:href="#mbb3f0f88b5" y="44.443679"/>
     <use style="fill:#1f77b4;stroke:#1f77b4;" x="222.936912" xlink:href="#mbb3f0f88b5" y="176.367002"/>
     <use style="fill:#1f77b4;stroke:#1f77b4;" x="226.010736" xlink:href="#mbb3f0f88b5" y="130.753316"/>
     <use style="fill:#1f77b4;stroke:#1f77b4;" x="229.084559" xlink:href="#mbb3f0f88b5" y="46.628655"/>
     <use style="fill:#1f77b4;stroke:#1f77b4;" x="232.158383" xlink:href="#mbb3f0f88b5" y="91.734565"/>
     <use style="fill:#1f77b4;stroke:#1f77b4;" x="235.232207" xlink:href="#mbb3f0f88b5" y="104.770564"/>
     <use style="fill:#1f77b4;stroke:#1f77b4;" x="238.306031" xlink:href="#mbb3f0f88b5" y="155.21274"/>
     <use style="fill:#1f77b4;stroke:#1f77b4;" x="241.379854" xlink:href="#mbb3f0f88b5" y="203.765373"/>
     <use style="fill:#1f77b4;stroke:#1f77b4;" x="244.453678" xlink:href="#mbb3f0f88b5" y="136.425022"/>
     <use style="fill:#1f77b4;stroke:#1f77b4;" x="247.527502" xlink:href="#mbb3f0f88b5" y="86.515242"/>
     <use style="fill:#1f77b4;stroke:#1f77b4;" x="250.601325" xlink:href="#mbb3f0f88b5" y="55.279314"/>
     <use style="fill:#1f77b4;stroke:#1f77b4;" x="253.675149" xlink:href="#mbb3f0f88b5" y="114.735286"/>
     <use style="fill:#1f77b4;stroke:#1f77b4;" x="256.748973" xlink:href="#mbb3f0f88b5" y="106.444686"/>
     <use style="fill:#1f77b4;stroke:#1f77b4;" x="259.822797" xlink:href="#mbb3f0f88b5" y="87.663123"/>
     <use style="fill:#1f77b4;stroke:#1f77b4;" x="262.89662" xlink:href="#mbb3f0f88b5" y="46.262441"/>
     <use style="fill:#1f77b4;stroke:#1f77b4;" x="265.970444" xlink:href="#mbb3f0f88b5" y="93.759515"/>
     <use style="fill:#1f77b4;stroke:#1f77b4;" x="269.044268" xlink:href="#mbb3f0f88b5" y="129.297691"/>
     <use style="fill:#1f77b4;stroke:#1f77b4;" x="272.118092" xlink:href="#mbb3f0f88b5" y="231.628435"/>
     <use style="fill:#1f77b4;stroke:#1f77b4;" x="275.191915" xlink:href="#mbb3f0f88b5" y="229.034161"/>
     <use style="fill:#1f77b4;stroke:#1f77b4;" x="278.265739" xlink:href="#mbb3f0f88b5" y="222.045314"/>
     <use style="fill:#1f77b4;stroke:#1f77b4;" x="281.339563" xlink:href="#mbb3f0f88b5" y="224.488795"/>
     <use style="fill:#1f77b4;stroke:#1f77b4;" x="284.413387" xlink:href="#mbb3f0f88b5" y="113.633566"/>
     <use style="fill:#1f77b4;stroke:#1f77b4;" x="287.48721" xlink:href="#mbb3f0f88b5" y="76.845953"/>
     <use style="fill:#1f77b4;stroke:#1f77b4;" x="290.561034" xlink:href="#mbb3f0f88b5" y="219.278704"/>
     <use style="fill:#1f77b4;stroke:#1f77b4;" x="293.634858" xlink:href="#mbb3f0f88b5" y="166.374583"/>
     <use style="fill:#1f77b4;stroke:#1f77b4;" x="296.708682" xlink:href="#mbb3f0f88b5" y="109.675989"/>
     <use style="fill:#1f77b4;stroke:#1f77b4;" x="299.782505" xlink:href="#mbb3f0f88b5" y="115.206133"/>
     <use style="fill:#1f77b4;stroke:#1f77b4;" x="302.856329" xlink:href="#mbb3f0f88b5" y="144.68177"/>
     <use style="fill:#1f77b4;stroke:#1f77b4;" x="305.930153" xlink:href="#mbb3f0f88b5" y="216.007394"/>
     <use style="fill:#1f77b4;stroke:#1f77b4;" x="309.003976" xlink:href="#mbb3f0f88b5" y="134.886306"/>
     <use style="fill:#1f77b4;stroke:#1f77b4;" x="312.0778" xlink:href="#mbb3f0f88b5" y="117.661923"/>
     <use style="fill:#1f77b4;stroke:#1f77b4;" x="315.151624" xlink:href="#mbb3f0f88b5" y="169.741293"/>
     <use style="fill:#1f77b4;stroke:#1f77b4;" x="318.225448" xlink:href="#mbb3f0f88b5" y="174.24973"/>
     <use style="fill:#1f77b4;stroke:#1f77b4;" x="321.299271" xlink:href="#mbb3f0f88b5" y="99.123478"/>
     <use style="fill:#1f77b4;stroke:#1f77b4;" x="324.373095" xlink:href="#mbb3f0f88b5" y="56.71032"/>
     <use style="fill:#1f77b4;stroke:#1f77b4;" x="327.446919" xlink:href="#mbb3f0f88b5" y="237.115495"/>
     <use style="fill:#1f77b4;stroke:#1f77b4;" x="330.520743" xlink:href="#mbb3f0f88b5" y="187.568852"/>
     <use style="fill:#1f77b4;stroke:#1f77b4;" x="333.594566" xlink:href="#mbb3f0f88b5" y="93.208655"/>
     <use style="fill:#1f77b4;stroke:#1f77b4;" x="336.66839" xlink:href="#mbb3f0f88b5" y="224.919635"/>
     <use style="fill:#1f77b4;stroke:#1f77b4;" x="339.742214" xlink:href="#mbb3f0f88b5" y="60.781761"/>
     <use style="fill:#1f77b4;stroke:#1f77b4;" x="342.816038" xlink:href="#mbb3f0f88b5" y="95.685987"/>
     <use style="fill:#1f77b4;stroke:#1f77b4;" x="345.889861" xlink:href="#mbb3f0f88b5" y="84.201013"/>
     <use style="fill:#1f77b4;stroke:#1f77b4;" x="348.963685" xlink:href="#mbb3f0f88b5" y="90.512825"/>
     <use style="fill:#1f77b4;stroke:#1f77b4;" x="352.037509" xlink:href="#mbb3f0f88b5" y="195.013158"/>
     <use style="fill:#1f77b4;stroke:#1f77b4;" x="355.111333" xlink:href="#mbb3f0f88b5" y="171.750855"/>
     <use style="fill:#1f77b4;stroke:#1f77b4;" x="358.185156" xlink:href="#mbb3f0f88b5" y="81.455945"/>
     <use style="fill:#1f77b4;stroke:#1f77b4;" x="361.25898" xlink:href="#mbb3f0f88b5" y="209.670963"/>
     <use style="fill:#1f77b4;stroke:#1f77b4;" x="364.332804" xlink:href="#mbb3f0f88b5" y="121.434854"/>
     <use style="fill:#1f77b4;stroke:#1f77b4;" x="367.406627" xlink:href="#mbb3f0f88b5" y="163.429481"/>
     <use style="fill:#1f77b4;stroke:#1f77b4;" x="370.480451" xlink:href="#mbb3f0f88b5" y="167.236264"/>
     <use style="fill:#1f77b4;stroke:#1f77b4;" x="373.554275" xlink:href="#mbb3f0f88b5" y="128.254442"/>
    </g>
   </g>
   <g id="matplotlib.axis_1">
    <g id="xtick_1">
     <g id="line2d_1">
      <defs>
       <path d="M 0 0 
L 0 3.5 
" id="mb4782b1b05" style="stroke:#000000;stroke-width:0.8;"/>
      </defs>
      <g>
       <use style="stroke:#000000;stroke-width:0.8;" x="69.245725" xlink:href="#mb4782b1b05" y="252"/>
      </g>
     </g>
     <g id="text_1">
      <!-- 0 -->
      <defs>
       <path d="M 31.78125 66.40625 
Q 24.171875 66.40625 20.328125 58.90625 
Q 16.5 51.421875 16.5 36.375 
Q 16.5 21.390625 20.328125 13.890625 
Q 24.171875 6.390625 31.78125 6.390625 
Q 39.453125 6.390625 43.28125 13.890625 
Q 47.125 21.390625 47.125 36.375 
Q 47.125 51.421875 43.28125 58.90625 
Q 39.453125 66.40625 31.78125 66.40625 
z
M 31.78125 74.21875 
Q 44.046875 74.21875 50.515625 64.515625 
Q 56.984375 54.828125 56.984375 36.375 
Q 56.984375 17.96875 50.515625 8.265625 
Q 44.046875 -1.421875 31.78125 -1.421875 
Q 19.53125 -1.421875 13.0625 8.265625 
Q 6.59375 17.96875 6.59375 36.375 
Q 6.59375 54.828125 13.0625 64.515625 
Q 19.53125 74.21875 31.78125 74.21875 
z
" id="DejaVuSans-30"/>
      </defs>
      <g transform="translate(66.064475 266.598437)scale(0.1 -0.1)">
       <use xlink:href="#DejaVuSans-30"/>
      </g>
     </g>
    </g>
    <g id="xtick_2">
     <g id="line2d_2">
      <g>
       <use style="stroke:#000000;stroke-width:0.8;" x="130.7222" xlink:href="#mb4782b1b05" y="252"/>
      </g>
     </g>
     <g id="text_2">
      <!-- 20 -->
      <defs>
       <path d="M 19.1875 8.296875 
L 53.609375 8.296875 
L 53.609375 0 
L 7.328125 0 
L 7.328125 8.296875 
Q 12.9375 14.109375 22.625 23.890625 
Q 32.328125 33.6875 34.8125 36.53125 
Q 39.546875 41.84375 41.421875 45.53125 
Q 43.3125 49.21875 43.3125 52.78125 
Q 43.3125 58.59375 39.234375 62.25 
Q 35.15625 65.921875 28.609375 65.921875 
Q 23.96875 65.921875 18.8125 64.3125 
Q 13.671875 62.703125 7.8125 59.421875 
L 7.8125 69.390625 
Q 13.765625 71.78125 18.9375 73 
Q 24.125 74.21875 28.421875 74.21875 
Q 39.75 74.21875 46.484375 68.546875 
Q 53.21875 62.890625 53.21875 53.421875 
Q 53.21875 48.921875 51.53125 44.890625 
Q 49.859375 40.875 45.40625 35.40625 
Q 44.1875 33.984375 37.640625 27.21875 
Q 31.109375 20.453125 19.1875 8.296875 
z
" id="DejaVuSans-32"/>
      </defs>
      <g transform="translate(124.3597 266.598437)scale(0.1 -0.1)">
       <use xlink:href="#DejaVuSans-32"/>
       <use x="63.623047" xlink:href="#DejaVuSans-30"/>
      </g>
     </g>
    </g>
    <g id="xtick_3">
     <g id="line2d_3">
      <g>
       <use style="stroke:#000000;stroke-width:0.8;" x="192.198675" xlink:href="#mb4782b1b05" y="252"/>
      </g>
     </g>
     <g id="text_3">
      <!-- 40 -->
      <defs>
       <path d="M 37.796875 64.3125 
L 12.890625 25.390625 
L 37.796875 25.390625 
z
M 35.203125 72.90625 
L 47.609375 72.90625 
L 47.609375 25.390625 
L 58.015625 25.390625 
L 58.015625 17.1875 
L 47.609375 17.1875 
L 47.609375 0 
L 37.796875 0 
L 37.796875 17.1875 
L 4.890625 17.1875 
L 4.890625 26.703125 
z
" id="DejaVuSans-34"/>
      </defs>
      <g transform="translate(185.836175 266.598437)scale(0.1 -0.1)">
       <use xlink:href="#DejaVuSans-34"/>
       <use x="63.623047" xlink:href="#DejaVuSans-30"/>
      </g>
     </g>
    </g>
    <g id="xtick_4">
     <g id="line2d_4">
      <g>
       <use style="stroke:#000000;stroke-width:0.8;" x="253.675149" xlink:href="#mb4782b1b05" y="252"/>
      </g>
     </g>
     <g id="text_4">
      <!-- 60 -->
      <defs>
       <path d="M 33.015625 40.375 
Q 26.375 40.375 22.484375 35.828125 
Q 18.609375 31.296875 18.609375 23.390625 
Q 18.609375 15.53125 22.484375 10.953125 
Q 26.375 6.390625 33.015625 6.390625 
Q 39.65625 6.390625 43.53125 10.953125 
Q 47.40625 15.53125 47.40625 23.390625 
Q 47.40625 31.296875 43.53125 35.828125 
Q 39.65625 40.375 33.015625 40.375 
z
M 52.59375 71.296875 
L 52.59375 62.3125 
Q 48.875 64.0625 45.09375 64.984375 
Q 41.3125 65.921875 37.59375 65.921875 
Q 27.828125 65.921875 22.671875 59.328125 
Q 17.53125 52.734375 16.796875 39.40625 
Q 19.671875 43.65625 24.015625 45.921875 
Q 28.375 48.1875 33.59375 48.1875 
Q 44.578125 48.1875 50.953125 41.515625 
Q 57.328125 34.859375 57.328125 23.390625 
Q 57.328125 12.15625 50.6875 5.359375 
Q 44.046875 -1.421875 33.015625 -1.421875 
Q 20.359375 -1.421875 13.671875 8.265625 
Q 6.984375 17.96875 6.984375 36.375 
Q 6.984375 53.65625 15.1875 63.9375 
Q 23.390625 74.21875 37.203125 74.21875 
Q 40.921875 74.21875 44.703125 73.484375 
Q 48.484375 72.75 52.59375 71.296875 
z
" id="DejaVuSans-36"/>
      </defs>
      <g transform="translate(247.312649 266.598437)scale(0.1 -0.1)">
       <use xlink:href="#DejaVuSans-36"/>
       <use x="63.623047" xlink:href="#DejaVuSans-30"/>
      </g>
     </g>
    </g>
    <g id="xtick_5">
     <g id="line2d_5">
      <g>
       <use style="stroke:#000000;stroke-width:0.8;" x="315.151624" xlink:href="#mb4782b1b05" y="252"/>
      </g>
     </g>
     <g id="text_5">
      <!-- 80 -->
      <defs>
       <path d="M 31.78125 34.625 
Q 24.75 34.625 20.71875 30.859375 
Q 16.703125 27.09375 16.703125 20.515625 
Q 16.703125 13.921875 20.71875 10.15625 
Q 24.75 6.390625 31.78125 6.390625 
Q 38.8125 6.390625 42.859375 10.171875 
Q 46.921875 13.96875 46.921875 20.515625 
Q 46.921875 27.09375 42.890625 30.859375 
Q 38.875 34.625 31.78125 34.625 
z
M 21.921875 38.8125 
Q 15.578125 40.375 12.03125 44.71875 
Q 8.5 49.078125 8.5 55.328125 
Q 8.5 64.0625 14.71875 69.140625 
Q 20.953125 74.21875 31.78125 74.21875 
Q 42.671875 74.21875 48.875 69.140625 
Q 55.078125 64.0625 55.078125 55.328125 
Q 55.078125 49.078125 51.53125 44.71875 
Q 48 40.375 41.703125 38.8125 
Q 48.828125 37.15625 52.796875 32.3125 
Q 56.78125 27.484375 56.78125 20.515625 
Q 56.78125 9.90625 50.3125 4.234375 
Q 43.84375 -1.421875 31.78125 -1.421875 
Q 19.734375 -1.421875 13.25 4.234375 
Q 6.78125 9.90625 6.78125 20.515625 
Q 6.78125 27.484375 10.78125 32.3125 
Q 14.796875 37.15625 21.921875 38.8125 
z
M 18.3125 54.390625 
Q 18.3125 48.734375 21.84375 45.5625 
Q 25.390625 42.390625 31.78125 42.390625 
Q 38.140625 42.390625 41.71875 45.5625 
Q 45.3125 48.734375 45.3125 54.390625 
Q 45.3125 60.0625 41.71875 63.234375 
Q 38.140625 66.40625 31.78125 66.40625 
Q 25.390625 66.40625 21.84375 63.234375 
Q 18.3125 60.0625 18.3125 54.390625 
z
" id="DejaVuSans-38"/>
      </defs>
      <g transform="translate(308.789124 266.598437)scale(0.1 -0.1)">
       <use xlink:href="#DejaVuSans-38"/>
       <use x="63.623047" xlink:href="#DejaVuSans-30"/>
      </g>
     </g>
    </g>
    <g id="xtick_6">
     <g id="line2d_6">
      <g>
       <use style="stroke:#000000;stroke-width:0.8;" x="376.628099" xlink:href="#mb4782b1b05" y="252"/>
      </g>
     </g>
     <g id="text_6">
      <!-- 100 -->
      <defs>
       <path d="M 12.40625 8.296875 
L 28.515625 8.296875 
L 28.515625 63.921875 
L 10.984375 60.40625 
L 10.984375 69.390625 
L 28.421875 72.90625 
L 38.28125 72.90625 
L 38.28125 8.296875 
L 54.390625 8.296875 
L 54.390625 0 
L 12.40625 0 
z
" id="DejaVuSans-31"/>
      </defs>
      <g transform="translate(367.084349 266.598437)scale(0.1 -0.1)">
       <use xlink:href="#DejaVuSans-31"/>
       <use x="63.623047" xlink:href="#DejaVuSans-30"/>
       <use x="127.246094" xlink:href="#DejaVuSans-30"/>
      </g>
     </g>
    </g>
   </g>
   <g id="matplotlib.axis_2">
    <g id="ytick_1">
     <g id="line2d_7">
      <defs>
       <path d="M 0 0 
L -3.5 0 
" id="md580b3d132" style="stroke:#000000;stroke-width:0.8;"/>
      </defs>
      <g>
       <use style="stroke:#000000;stroke-width:0.8;" x="54" xlink:href="#md580b3d132" y="236.512319"/>
      </g>
     </g>
     <g id="text_7">
      <!-- −30000 -->
      <defs>
       <path d="M 10.59375 35.5 
L 73.1875 35.5 
L 73.1875 27.203125 
L 10.59375 27.203125 
z
" id="DejaVuSans-2212"/>
       <path d="M 40.578125 39.3125 
Q 47.65625 37.796875 51.625 33 
Q 55.609375 28.21875 55.609375 21.1875 
Q 55.609375 10.40625 48.1875 4.484375 
Q 40.765625 -1.421875 27.09375 -1.421875 
Q 22.515625 -1.421875 17.65625 -0.515625 
Q 12.796875 0.390625 7.625 2.203125 
L 7.625 11.71875 
Q 11.71875 9.328125 16.59375 8.109375 
Q 21.484375 6.890625 26.8125 6.890625 
Q 36.078125 6.890625 40.9375 10.546875 
Q 45.796875 14.203125 45.796875 21.1875 
Q 45.796875 27.640625 41.28125 31.265625 
Q 36.765625 34.90625 28.71875 34.90625 
L 20.21875 34.90625 
L 20.21875 43.015625 
L 29.109375 43.015625 
Q 36.375 43.015625 40.234375 45.921875 
Q 44.09375 48.828125 44.09375 54.296875 
Q 44.09375 59.90625 40.109375 62.90625 
Q 36.140625 65.921875 28.71875 65.921875 
Q 24.65625 65.921875 20.015625 65.03125 
Q 15.375 64.15625 9.8125 62.3125 
L 9.8125 71.09375 
Q 15.4375 72.65625 20.34375 73.4375 
Q 25.25 74.21875 29.59375 74.21875 
Q 40.828125 74.21875 47.359375 69.109375 
Q 53.90625 64.015625 53.90625 55.328125 
Q 53.90625 49.265625 50.4375 45.09375 
Q 46.96875 40.921875 40.578125 39.3125 
z
" id="DejaVuSans-33"/>
      </defs>
      <g transform="translate(6.807812 240.311538)scale(0.1 -0.1)">
       <use xlink:href="#DejaVuSans-2212"/>
       <use x="83.789062" xlink:href="#DejaVuSans-33"/>
       <use x="147.412109" xlink:href="#DejaVuSans-30"/>
       <use x="211.035156" xlink:href="#DejaVuSans-30"/>
       <use x="274.658203" xlink:href="#DejaVuSans-30"/>
       <use x="338.28125" xlink:href="#DejaVuSans-30"/>
      </g>
     </g>
    </g>
    <g id="ytick_2">
     <g id="line2d_8">
      <g>
       <use style="stroke:#000000;stroke-width:0.8;" x="54" xlink:href="#md580b3d132" y="205.738006"/>
      </g>
     </g>
     <g id="text_8">
      <!-- −20000 -->
      <g transform="translate(6.807812 209.537225)scale(0.1 -0.1)">
       <use xlink:href="#DejaVuSans-2212"/>
       <use x="83.789062" xlink:href="#DejaVuSans-32"/>
       <use x="147.412109" xlink:href="#DejaVuSans-30"/>
       <use x="211.035156" xlink:href="#DejaVuSans-30"/>
       <use x="274.658203" xlink:href="#DejaVuSans-30"/>
       <use x="338.28125" xlink:href="#DejaVuSans-30"/>
      </g>
     </g>
    </g>
    <g id="ytick_3">
     <g id="line2d_9">
      <g>
       <use style="stroke:#000000;stroke-width:0.8;" x="54" xlink:href="#md580b3d132" y="174.963694"/>
      </g>
     </g>
     <g id="text_9">
      <!-- −10000 -->
      <g transform="translate(6.807812 178.762912)scale(0.1 -0.1)">
       <use xlink:href="#DejaVuSans-2212"/>
       <use x="83.789062" xlink:href="#DejaVuSans-31"/>
       <use x="147.412109" xlink:href="#DejaVuSans-30"/>
       <use x="211.035156" xlink:href="#DejaVuSans-30"/>
       <use x="274.658203" xlink:href="#DejaVuSans-30"/>
       <use x="338.28125" xlink:href="#DejaVuSans-30"/>
      </g>
     </g>
    </g>
    <g id="ytick_4">
     <g id="line2d_10">
      <g>
       <use style="stroke:#000000;stroke-width:0.8;" x="54" xlink:href="#md580b3d132" y="144.189381"/>
      </g>
     </g>
     <g id="text_10">
      <!-- 0 -->
      <g transform="translate(40.6375 147.9886)scale(0.1 -0.1)">
       <use xlink:href="#DejaVuSans-30"/>
      </g>
     </g>
    </g>
    <g id="ytick_5">
     <g id="line2d_11">
      <g>
       <use style="stroke:#000000;stroke-width:0.8;" x="54" xlink:href="#md580b3d132" y="113.415068"/>
      </g>
     </g>
     <g id="text_11">
      <!-- 10000 -->
      <g transform="translate(15.1875 117.214287)scale(0.1 -0.1)">
       <use xlink:href="#DejaVuSans-31"/>
       <use x="63.623047" xlink:href="#DejaVuSans-30"/>
       <use x="127.246094" xlink:href="#DejaVuSans-30"/>
       <use x="190.869141" xlink:href="#DejaVuSans-30"/>
       <use x="254.492188" xlink:href="#DejaVuSans-30"/>
      </g>
     </g>
    </g>
    <g id="ytick_6">
     <g id="line2d_12">
      <g>
       <use style="stroke:#000000;stroke-width:0.8;" x="54" xlink:href="#md580b3d132" y="82.640756"/>
      </g>
     </g>
     <g id="text_12">
      <!-- 20000 -->
      <g transform="translate(15.1875 86.439974)scale(0.1 -0.1)">
       <use xlink:href="#DejaVuSans-32"/>
       <use x="63.623047" xlink:href="#DejaVuSans-30"/>
       <use x="127.246094" xlink:href="#DejaVuSans-30"/>
       <use x="190.869141" xlink:href="#DejaVuSans-30"/>
       <use x="254.492188" xlink:href="#DejaVuSans-30"/>
      </g>
     </g>
    </g>
    <g id="ytick_7">
     <g id="line2d_13">
      <g>
       <use style="stroke:#000000;stroke-width:0.8;" x="54" xlink:href="#md580b3d132" y="51.866443"/>
      </g>
     </g>
     <g id="text_13">
      <!-- 30000 -->
      <g transform="translate(15.1875 55.665662)scale(0.1 -0.1)">
       <use xlink:href="#DejaVuSans-33"/>
       <use x="63.623047" xlink:href="#DejaVuSans-30"/>
       <use x="127.246094" xlink:href="#DejaVuSans-30"/>
       <use x="190.869141" xlink:href="#DejaVuSans-30"/>
       <use x="254.492188" xlink:href="#DejaVuSans-30"/>
      </g>
     </g>
    </g>
   </g>
   <g id="patch_3">
    <path d="M 54 252 
L 54 34.56 
" style="fill:none;stroke:#000000;stroke-linecap:square;stroke-linejoin:miter;stroke-width:0.8;"/>
   </g>
   <g id="patch_4">
    <path d="M 388.8 252 
L 388.8 34.56 
" style="fill:none;stroke:#000000;stroke-linecap:square;stroke-linejoin:miter;stroke-width:0.8;"/>
   </g>
   <g id="patch_5">
    <path d="M 54 252 
L 388.8 252 
" style="fill:none;stroke:#000000;stroke-linecap:square;stroke-linejoin:miter;stroke-width:0.8;"/>
   </g>
   <g id="patch_6">
    <path d="M 54 34.56 
L 388.8 34.56 
" style="fill:none;stroke:#000000;stroke-linecap:square;stroke-linejoin:miter;stroke-width:0.8;"/>
   </g>
  </g>
 </g>
 <defs>
  <clipPath id="p092e0ce559">
   <rect height="217.44" width="334.8" x="54" y="34.56"/>
  </clipPath>
 </defs>
</svg>
