<?xml version="1.0" encoding="utf-8" standalone="no"?>
<!DOCTYPE svg PUBLIC "-//W3C//DTD SVG 1.1//EN"
  "http://www.w3.org/Graphics/SVG/1.1/DTD/svg11.dtd">
<!-- Created with matplotlib (https://matplotlib.org/) -->
<svg height="288pt" version="1.1" viewBox="0 0 432 288" width="432pt" xmlns="http://www.w3.org/2000/svg" xmlns:xlink="http://www.w3.org/1999/xlink">
 <defs>
  <style type="text/css">
*{stroke-linecap:butt;stroke-linejoin:round;}
  </style>
 </defs>
 <g id="figure_1">
  <g id="patch_1">
   <path d="M 0 288 
L 432 288 
L 432 0 
L 0 0 
z
" style="fill:#ffffff;"/>
  </g>
  <g id="axes_1">
   <g id="patch_2">
    <path d="M 54 252 
L 388.8 252 
L 388.8 34.56 
L 54 34.56 
z
" style="fill:#ffffff;"/>
   </g>
   <g id="matplotlib.axis_1">
    <g id="xtick_1">
     <g id="line2d_1">
      <defs>
       <path d="M 0 0 
L 0 3.5 
" id="m01a9cf6a71" style="stroke:#000000;stroke-width:0.8;"/>
      </defs>
      <g>
       <use style="stroke:#000000;stroke-width:0.8;" x="69.218182" xlink:href="#m01a9cf6a71" y="252"/>
      </g>
     </g>
     <g id="text_1">
      <!-- 0 -->
      <defs>
       <path d="M 31.78125 66.40625 
Q 24.171875 66.40625 20.328125 58.90625 
Q 16.5 51.421875 16.5 36.375 
Q 16.5 21.390625 20.328125 13.890625 
Q 24.171875 6.390625 31.78125 6.390625 
Q 39.453125 6.390625 43.28125 13.890625 
Q 47.125 21.390625 47.125 36.375 
Q 47.125 51.421875 43.28125 58.90625 
Q 39.453125 66.40625 31.78125 66.40625 
z
M 31.78125 74.21875 
Q 44.046875 74.21875 50.515625 64.515625 
Q 56.984375 54.828125 56.984375 36.375 
Q 56.984375 17.96875 50.515625 8.265625 
Q 44.046875 -1.421875 31.78125 -1.421875 
Q 19.53125 -1.421875 13.0625 8.265625 
Q 6.59375 17.96875 6.59375 36.375 
Q 6.59375 54.828125 13.0625 64.515625 
Q 19.53125 74.21875 31.78125 74.21875 
z
" id="DejaVuSans-48"/>
      </defs>
      <g transform="translate(66.036932 266.598437)scale(0.1 -0.1)">
       <use xlink:href="#DejaVuSans-48"/>
      </g>
     </g>
    </g>
    <g id="xtick_2">
     <g id="line2d_2">
      <g>
       <use style="stroke:#000000;stroke-width:0.8;" x="138.391736" xlink:href="#m01a9cf6a71" y="252"/>
      </g>
     </g>
     <g id="text_2">
      <!-- 100 -->
      <defs>
       <path d="M 12.40625 8.296875 
L 28.515625 8.296875 
L 28.515625 63.921875 
L 10.984375 60.40625 
L 10.984375 69.390625 
L 28.421875 72.90625 
L 38.28125 72.90625 
L 38.28125 8.296875 
L 54.390625 8.296875 
L 54.390625 0 
L 12.40625 0 
z
" id="DejaVuSans-49"/>
      </defs>
      <g transform="translate(128.847986 266.598437)scale(0.1 -0.1)">
       <use xlink:href="#DejaVuSans-49"/>
       <use x="63.623047" xlink:href="#DejaVuSans-48"/>
       <use x="127.246094" xlink:href="#DejaVuSans-48"/>
      </g>
     </g>
    </g>
    <g id="xtick_3">
     <g id="line2d_3">
      <g>
       <use style="stroke:#000000;stroke-width:0.8;" x="207.565289" xlink:href="#m01a9cf6a71" y="252"/>
      </g>
     </g>
     <g id="text_3">
      <!-- 200 -->
      <defs>
       <path d="M 19.1875 8.296875 
L 53.609375 8.296875 
L 53.609375 0 
L 7.328125 0 
L 7.328125 8.296875 
Q 12.9375 14.109375 22.625 23.890625 
Q 32.328125 33.6875 34.8125 36.53125 
Q 39.546875 41.84375 41.421875 45.53125 
Q 43.3125 49.21875 43.3125 52.78125 
Q 43.3125 58.59375 39.234375 62.25 
Q 35.15625 65.921875 28.609375 65.921875 
Q 23.96875 65.921875 18.8125 64.3125 
Q 13.671875 62.703125 7.8125 59.421875 
L 7.8125 69.390625 
Q 13.765625 71.78125 18.9375 73 
Q 24.125 74.21875 28.421875 74.21875 
Q 39.75 74.21875 46.484375 68.546875 
Q 53.21875 62.890625 53.21875 53.421875 
Q 53.21875 48.921875 51.53125 44.890625 
Q 49.859375 40.875 45.40625 35.40625 
Q 44.1875 33.984375 37.640625 27.21875 
Q 31.109375 20.453125 19.1875 8.296875 
z
" id="DejaVuSans-50"/>
      </defs>
      <g transform="translate(198.021539 266.598437)scale(0.1 -0.1)">
       <use xlink:href="#DejaVuSans-50"/>
       <use x="63.623047" xlink:href="#DejaVuSans-48"/>
       <use x="127.246094" xlink:href="#DejaVuSans-48"/>
      </g>
     </g>
    </g>
    <g id="xtick_4">
     <g id="line2d_4">
      <g>
       <use style="stroke:#000000;stroke-width:0.8;" x="276.738843" xlink:href="#m01a9cf6a71" y="252"/>
      </g>
     </g>
     <g id="text_4">
      <!-- 300 -->
      <defs>
       <path d="M 40.578125 39.3125 
Q 47.65625 37.796875 51.625 33 
Q 55.609375 28.21875 55.609375 21.1875 
Q 55.609375 10.40625 48.1875 4.484375 
Q 40.765625 -1.421875 27.09375 -1.421875 
Q 22.515625 -1.421875 17.65625 -0.515625 
Q 12.796875 0.390625 7.625 2.203125 
L 7.625 11.71875 
Q 11.71875 9.328125 16.59375 8.109375 
Q 21.484375 6.890625 26.8125 6.890625 
Q 36.078125 6.890625 40.9375 10.546875 
Q 45.796875 14.203125 45.796875 21.1875 
Q 45.796875 27.640625 41.28125 31.265625 
Q 36.765625 34.90625 28.71875 34.90625 
L 20.21875 34.90625 
L 20.21875 43.015625 
L 29.109375 43.015625 
Q 36.375 43.015625 40.234375 45.921875 
Q 44.09375 48.828125 44.09375 54.296875 
Q 44.09375 59.90625 40.109375 62.90625 
Q 36.140625 65.921875 28.71875 65.921875 
Q 24.65625 65.921875 20.015625 65.03125 
Q 15.375 64.15625 9.8125 62.3125 
L 9.8125 71.09375 
Q 15.4375 72.65625 20.34375 73.4375 
Q 25.25 74.21875 29.59375 74.21875 
Q 40.828125 74.21875 47.359375 69.109375 
Q 53.90625 64.015625 53.90625 55.328125 
Q 53.90625 49.265625 50.4375 45.09375 
Q 46.96875 40.921875 40.578125 39.3125 
z
" id="DejaVuSans-51"/>
      </defs>
      <g transform="translate(267.195093 266.598437)scale(0.1 -0.1)">
       <use xlink:href="#DejaVuSans-51"/>
       <use x="63.623047" xlink:href="#DejaVuSans-48"/>
       <use x="127.246094" xlink:href="#DejaVuSans-48"/>
      </g>
     </g>
    </g>
    <g id="xtick_5">
     <g id="line2d_5">
      <g>
       <use style="stroke:#000000;stroke-width:0.8;" x="345.912397" xlink:href="#m01a9cf6a71" y="252"/>
      </g>
     </g>
     <g id="text_5">
      <!-- 400 -->
      <defs>
       <path d="M 37.796875 64.3125 
L 12.890625 25.390625 
L 37.796875 25.390625 
z
M 35.203125 72.90625 
L 47.609375 72.90625 
L 47.609375 25.390625 
L 58.015625 25.390625 
L 58.015625 17.1875 
L 47.609375 17.1875 
L 47.609375 0 
L 37.796875 0 
L 37.796875 17.1875 
L 4.890625 17.1875 
L 4.890625 26.703125 
z
" id="DejaVuSans-52"/>
      </defs>
      <g transform="translate(336.368647 266.598437)scale(0.1 -0.1)">
       <use xlink:href="#DejaVuSans-52"/>
       <use x="63.623047" xlink:href="#DejaVuSans-48"/>
       <use x="127.246094" xlink:href="#DejaVuSans-48"/>
      </g>
     </g>
    </g>
   </g>
   <g id="matplotlib.axis_2">
    <g id="ytick_1">
     <g id="line2d_6">
      <defs>
       <path d="M 0 0 
L -3.5 0 
" id="m84192c66ed" style="stroke:#000000;stroke-width:0.8;"/>
      </defs>
      <g>
       <use style="stroke:#000000;stroke-width:0.8;" x="54" xlink:href="#m84192c66ed" y="233.884286"/>
      </g>
     </g>
     <g id="text_6">
      <!-- −30000 -->
      <defs>
       <path d="M 10.59375 35.5 
L 73.1875 35.5 
L 73.1875 27.203125 
L 10.59375 27.203125 
z
" id="DejaVuSans-8722"/>
      </defs>
      <g transform="translate(6.807812 237.683505)scale(0.1 -0.1)">
       <use xlink:href="#DejaVuSans-8722"/>
       <use x="83.789062" xlink:href="#DejaVuSans-51"/>
       <use x="147.412109" xlink:href="#DejaVuSans-48"/>
       <use x="211.035156" xlink:href="#DejaVuSans-48"/>
       <use x="274.658203" xlink:href="#DejaVuSans-48"/>
       <use x="338.28125" xlink:href="#DejaVuSans-48"/>
      </g>
     </g>
    </g>
    <g id="ytick_2">
     <g id="line2d_7">
      <g>
       <use style="stroke:#000000;stroke-width:0.8;" x="54" xlink:href="#m84192c66ed" y="203.630417"/>
      </g>
     </g>
     <g id="text_7">
      <!-- −20000 -->
      <g transform="translate(6.807812 207.429636)scale(0.1 -0.1)">
       <use xlink:href="#DejaVuSans-8722"/>
       <use x="83.789062" xlink:href="#DejaVuSans-50"/>
       <use x="147.412109" xlink:href="#DejaVuSans-48"/>
       <use x="211.035156" xlink:href="#DejaVuSans-48"/>
       <use x="274.658203" xlink:href="#DejaVuSans-48"/>
       <use x="338.28125" xlink:href="#DejaVuSans-48"/>
      </g>
     </g>
    </g>
    <g id="ytick_3">
     <g id="line2d_8">
      <g>
       <use style="stroke:#000000;stroke-width:0.8;" x="54" xlink:href="#m84192c66ed" y="173.376549"/>
      </g>
     </g>
     <g id="text_8">
      <!-- −10000 -->
      <g transform="translate(6.807812 177.175767)scale(0.1 -0.1)">
       <use xlink:href="#DejaVuSans-8722"/>
       <use x="83.789062" xlink:href="#DejaVuSans-49"/>
       <use x="147.412109" xlink:href="#DejaVuSans-48"/>
       <use x="211.035156" xlink:href="#DejaVuSans-48"/>
       <use x="274.658203" xlink:href="#DejaVuSans-48"/>
       <use x="338.28125" xlink:href="#DejaVuSans-48"/>
      </g>
     </g>
    </g>
    <g id="ytick_4">
     <g id="line2d_9">
      <g>
       <use style="stroke:#000000;stroke-width:0.8;" x="54" xlink:href="#m84192c66ed" y="143.12268"/>
      </g>
     </g>
     <g id="text_9">
      <!-- 0 -->
      <g transform="translate(40.6375 146.921899)scale(0.1 -0.1)">
       <use xlink:href="#DejaVuSans-48"/>
      </g>
     </g>
    </g>
    <g id="ytick_5">
     <g id="line2d_10">
      <g>
       <use style="stroke:#000000;stroke-width:0.8;" x="54" xlink:href="#m84192c66ed" y="112.868811"/>
      </g>
     </g>
     <g id="text_10">
      <!-- 10000 -->
      <g transform="translate(15.1875 116.66803)scale(0.1 -0.1)">
       <use xlink:href="#DejaVuSans-49"/>
       <use x="63.623047" xlink:href="#DejaVuSans-48"/>
       <use x="127.246094" xlink:href="#DejaVuSans-48"/>
       <use x="190.869141" xlink:href="#DejaVuSans-48"/>
       <use x="254.492188" xlink:href="#DejaVuSans-48"/>
      </g>
     </g>
    </g>
    <g id="ytick_6">
     <g id="line2d_11">
      <g>
       <use style="stroke:#000000;stroke-width:0.8;" x="54" xlink:href="#m84192c66ed" y="82.614942"/>
      </g>
     </g>
     <g id="text_11">
      <!-- 20000 -->
      <g transform="translate(15.1875 86.414161)scale(0.1 -0.1)">
       <use xlink:href="#DejaVuSans-50"/>
       <use x="63.623047" xlink:href="#DejaVuSans-48"/>
       <use x="127.246094" xlink:href="#DejaVuSans-48"/>
       <use x="190.869141" xlink:href="#DejaVuSans-48"/>
       <use x="254.492188" xlink:href="#DejaVuSans-48"/>
      </g>
     </g>
    </g>
    <g id="ytick_7">
     <g id="line2d_12">
      <g>
       <use style="stroke:#000000;stroke-width:0.8;" x="54" xlink:href="#m84192c66ed" y="52.361074"/>
      </g>
     </g>
     <g id="text_12">
      <!-- 30000 -->
      <g transform="translate(15.1875 56.160293)scale(0.1 -0.1)">
       <use xlink:href="#DejaVuSans-51"/>
       <use x="63.623047" xlink:href="#DejaVuSans-48"/>
       <use x="127.246094" xlink:href="#DejaVuSans-48"/>
       <use x="190.869141" xlink:href="#DejaVuSans-48"/>
       <use x="254.492188" xlink:href="#DejaVuSans-48"/>
      </g>
     </g>
    </g>
   </g>
   <g id="line2d_13">
    <path clip-path="url(#pda6b978819)" d="M 69.218182 55.743456 
L 69.909917 232.837502 
L 70.601653 102.180119 
L 71.293388 66.4503 
L 71.985124 130.763975 
L 73.368595 223.331737 
L 74.060331 75.568816 
L 75.443802 89.697373 
L 76.135537 64.858947 
L 76.827273 64.247819 
L 77.519008 53.562152 
L 78.210744 230.389964 
L 78.902479 197.271054 
L 79.594215 119.878633 
L 80.28595 202.783309 
L 80.977686 211.333052 
L 81.669421 49.226773 
L 82.361157 171.582494 
L 83.052893 170.717234 
L 83.744628 130.279913 
L 84.436364 234.728369 
L 85.128099 241.169418 
L 85.819835 174.565526 
L 86.51157 57.480028 
L 87.203306 167.71605 
L 87.895041 153.790194 
L 88.586777 109.038671 
L 89.278512 171.951591 
L 89.970248 128.113736 
L 90.661983 226.795805 
L 91.353719 150.925153 
L 92.045455 147.736395 
L 92.73719 184.001707 
L 94.120661 70.389354 
L 94.812397 88.795808 
L 95.504132 46.8942 
L 96.195868 182.334719 
L 97.579339 238.906428 
L 98.271074 235.962727 
L 98.96281 51.072259 
L 99.654545 180.238126 
L 100.346281 145.800147 
L 101.038017 140.327222 
L 101.729752 240.709559 
L 102.421488 94.041829 
L 103.113223 207.814527 
L 103.804959 196.693205 
L 104.496694 48.561188 
L 105.18843 151.738982 
L 105.880165 187.822771 
L 107.263636 145.521812 
L 107.955372 102.567369 
L 108.647107 238.537331 
L 109.338843 44.443636 
L 110.030579 172.868284 
L 110.722314 189.057129 
L 111.41405 61.645986 
L 112.105785 198.072782 
L 112.797521 136.926688 
L 113.489256 55.57706 
L 114.180992 123.832813 
L 114.872727 153.992895 
L 115.564463 87.180251 
L 116.256198 127.348313 
L 116.947934 115.080369 
L 117.639669 71.811286 
L 118.331405 211.556931 
L 119.02314 193.350153 
L 119.714876 75.647477 
L 120.406612 174.852937 
L 121.098347 65.294603 
L 121.790083 231.367164 
L 122.481818 223.664529 
L 123.173554 83.909808 
L 123.865289 184.679394 
L 124.557025 234.725344 
L 125.24876 239.481252 
L 125.940496 112.493663 
L 126.632231 150.123425 
L 127.323967 51.468585 
L 128.015702 220.999163 
L 128.707438 200.91362 
L 129.399174 223.546539 
L 130.090909 167.362079 
L 130.782645 209.43916 
L 131.47438 82.297277 
L 132.166116 116.37826 
L 132.857851 96.08699 
L 133.549587 197.909411 
L 134.241322 210.361903 
L 134.933058 109.525759 
L 136.316529 129.574997 
L 137.008264 144.907658 
L 137.7 80.415486 
L 138.391736 49.063402 
L 139.083471 143.198315 
L 139.775207 218.348924 
L 140.466942 207.841756 
L 141.158678 63.019512 
L 141.850413 130.552197 
L 142.542149 67.984172 
L 143.233884 233.418376 
L 143.92562 208.331868 
L 144.617355 88.342 
L 145.309091 122.846537 
L 146.000826 133.46262 
L 146.692562 208.991403 
L 147.384298 155.653832 
L 148.076033 69.962775 
L 148.767769 133.535229 
L 149.459504 173.098213 
L 150.15124 152.056647 
L 150.842975 68.804051 
L 151.534711 183.308894 
L 152.226446 186.739682 
L 152.918182 233.309462 
L 153.609917 106.815012 
L 154.301653 150.568157 
L 154.993388 75.94699 
L 155.685124 66.613671 
L 156.37686 112.348445 
L 157.068595 234.580125 
L 157.760331 73.859473 
L 158.452066 90.565659 
L 159.143802 90.508177 
L 159.835537 83.471127 
L 160.527273 185.462969 
L 161.219008 130.715568 
L 161.910744 222.415044 
L 162.602479 184.007758 
L 163.294215 177.618141 
L 163.98595 141.413336 
L 164.677686 155.381547 
L 165.369421 105.556451 
L 166.061157 193.60126 
L 166.752893 78.636559 
L 167.444628 60.720218 
L 168.136364 93.255228 
L 168.828099 86.986627 
L 169.519835 122.498618 
L 170.21157 121.524443 
L 170.903306 126.601042 
L 171.595041 180.108034 
L 172.286777 50.158592 
L 172.978512 184.794359 
L 173.670248 78.473188 
L 174.361983 134.796815 
L 175.053719 212.543207 
L 175.745455 237.178932 
L 176.43719 92.284079 
L 177.128926 157.115094 
L 177.820661 182.737096 
L 178.512397 217.916294 
L 179.204132 134.539657 
L 179.895868 128.873108 
L 180.587603 90.130003 
L 181.279339 208.592052 
L 181.971074 131.971104 
L 182.66281 191.456261 
L 183.354545 115.694523 
L 184.046281 81.071995 
L 184.738017 209.115444 
L 185.429752 162.451877 
L 186.121488 187.368963 
L 186.813223 193.676894 
L 187.504959 185.611213 
L 188.196694 172.45078 
L 188.88843 82.853948 
L 189.580165 182.752222 
L 190.271901 228.901474 
L 190.963636 156.14697 
L 191.655372 163.356467 
L 192.347107 108.106852 
L 193.730579 46.649143 
L 194.422314 163.57127 
L 195.805785 231.932911 
L 196.497521 187.786466 
L 197.189256 117.588415 
L 197.880992 81.785986 
L 198.572727 163.640854 
L 199.264463 96.053711 
L 199.956198 208.192701 
L 200.647934 89.258692 
L 201.339669 76.830403 
L 202.031405 154.14719 
L 202.72314 144.226946 
L 203.414876 102.851755 
L 204.106612 199.827506 
L 204.798347 218.600032 
L 205.490083 171.86083 
L 206.181818 234.26851 
L 206.873554 92.628973 
L 207.565289 72.316526 
L 208.257025 124.492348 
L 208.94876 88.202832 
L 209.640496 85.991274 
L 210.332231 179.324459 
L 211.023967 125.977812 
L 211.715702 47.583988 
L 212.407438 124.159555 
L 213.099174 94.011575 
L 213.790909 159.496074 
L 214.482645 150.229314 
L 215.866116 93.669706 
L 216.557851 202.780284 
L 217.249587 182.265135 
L 217.941322 87.001753 
L 218.633058 159.126976 
L 219.324793 100.770289 
L 220.016529 144.538561 
L 220.708264 99.227342 
L 221.4 91.639672 
L 222.091736 126.882403 
L 222.783471 196.759764 
L 223.475207 242.116364 
L 224.166942 168.248518 
L 224.858678 135.761914 
L 225.550413 85.870259 
L 226.242149 168.886874 
L 226.933884 110.8297 
L 227.62562 194.687374 
L 228.317355 52.197703 
L 229.009091 184.225586 
L 229.700826 160.927082 
L 230.392562 131.018107 
L 231.084298 189.895161 
L 231.776033 186.818342 
L 232.467769 147.657735 
L 233.159504 85.691761 
L 233.85124 138.750996 
L 234.542975 83.96729 
L 235.234711 70.222958 
L 235.926446 118.008943 
L 236.618182 194.747881 
L 237.309917 187.662425 
L 238.001653 208.189675 
L 238.693388 109.568114 
L 239.385124 192.947776 
L 240.07686 239.239221 
L 240.768595 205.448675 
L 241.460331 124.332002 
L 242.152066 109.53786 
L 242.843802 99.914105 
L 243.535537 195.897528 
L 244.227273 45.907924 
L 244.919008 205.723985 
L 245.610744 113.72197 
L 246.302479 232.171917 
L 246.994215 214.585343 
L 247.68595 83.371289 
L 248.377686 77.577673 
L 249.069421 113.504142 
L 249.761157 165.071862 
L 250.452893 236.939927 
L 251.144628 172.375146 
L 251.836364 140.956503 
L 252.528099 54.472794 
L 253.219835 65.19779 
L 253.91157 101.620423 
L 254.603306 220.515101 
L 255.295041 68.964397 
L 255.986777 175.273466 
L 256.678512 196.063925 
L 257.370248 108.309553 
L 258.061983 154.957993 
L 258.753719 223.658478 
L 259.445455 114.193931 
L 260.13719 51.495813 
L 260.828926 239.19384 
L 261.520661 203.678823 
L 262.212397 50.872583 
L 262.904132 91.993642 
L 263.595868 95.369974 
L 264.287603 195.809792 
L 264.979339 83.806945 
L 265.671074 113.724996 
L 266.36281 239.632521 
L 267.054545 192.339673 
L 267.746281 163.232426 
L 268.438017 71.908098 
L 269.129752 121.485113 
L 269.821488 93.908712 
L 270.513223 117.273774 
L 271.204959 81.456219 
L 271.896694 213.453848 
L 272.58843 100.34976 
L 273.280165 165.955275 
L 273.971901 156.516068 
L 274.663636 191.610555 
L 275.355372 132.679044 
L 276.047107 228.828865 
L 276.738843 226.505367 
L 277.430579 172.356993 
L 278.122314 132.700222 
L 278.81405 69.757048 
L 279.505785 49.798571 
L 280.197521 183.112244 
L 280.889256 58.178893 
L 282.272727 194.856795 
L 282.964463 61.379752 
L 283.656198 215.063354 
L 284.347934 73.184812 
L 285.039669 64.955759 
L 285.731405 209.408906 
L 286.42314 205.733061 
L 287.114876 193.195858 
L 287.806612 138.194325 
L 288.498347 156.446484 
L 289.190083 45.684045 
L 289.881818 129.030428 
L 290.573554 182.552547 
L 291.265289 108.333756 
L 291.957025 59.600825 
L 292.64876 155.877711 
L 293.340496 182.994253 
L 294.032231 55.011313 
L 294.723967 93.001096 
L 295.415702 159.620114 
L 296.107438 86.175823 
L 296.799174 113.994255 
L 297.490909 68.165695 
L 298.182645 54.950805 
L 298.87438 157.741349 
L 300.257851 205.324634 
L 300.949587 135.274826 
L 301.641322 200.493091 
L 302.333058 50.479283 
L 303.024793 157.832111 
L 303.716529 217.383826 
L 304.408264 56.094401 
L 305.1 153.850702 
L 305.791736 169.649272 
L 306.483471 216.355194 
L 307.175207 128.93059 
L 308.558678 153.741788 
L 309.250413 231.122108 
L 309.942149 201.518697 
L 310.633884 228.172356 
L 311.32562 195.915681 
L 312.017355 58.442101 
L 312.709091 71.923225 
L 313.400826 139.328845 
L 314.092562 83.092954 
L 314.784298 85.352918 
L 315.476033 218.282366 
L 316.167769 130.972726 
L 316.859504 157.662689 
L 317.55124 156.458585 
L 318.242975 143.90323 
L 318.934711 124.223088 
L 319.626446 193.277543 
L 320.318182 175.648614 
L 321.009917 80.439689 
L 321.701653 158.884945 
L 322.393388 124.026438 
L 323.085124 66.716534 
L 323.77686 119.688033 
L 324.468595 202.680446 
L 325.160331 155.656858 
L 325.852066 120.253781 
L 327.235537 99.690226 
L 327.927273 98.949006 
L 328.619008 99.941333 
L 329.310744 92.199368 
L 330.002479 65.007191 
L 330.694215 49.535362 
L 331.38595 82.863024 
L 332.077686 145.715436 
L 332.769421 66.244574 
L 333.461157 212.930457 
L 334.152893 189.774145 
L 334.844628 220.869072 
L 335.536364 209.617658 
L 336.228099 105.387029 
L 336.919835 48.458325 
L 337.61157 175.473142 
L 338.303306 119.261454 
L 338.995041 75.78967 
L 339.686777 62.980182 
L 340.378512 94.531941 
L 341.070248 73.847371 
L 341.761983 186.972637 
L 342.453719 122.779979 
L 343.145455 181.52089 
L 343.83719 83.307756 
L 344.528926 224.478358 
L 345.220661 211.683997 
L 345.912397 205.845 
L 346.604132 149.291444 
L 347.295868 134.149382 
L 347.987603 183.838336 
L 348.679339 63.28272 
L 349.371074 132.004383 
L 350.06281 48.455299 
L 350.754545 220.260969 
L 351.446281 214.969567 
L 352.138017 137.401673 
L 352.829752 195.537507 
L 353.521488 181.581398 
L 354.213223 75.030298 
L 354.904959 68.16872 
L 355.596694 238.274122 
L 356.28843 227.845614 
L 356.980165 141.71285 
L 357.671901 187.353836 
L 358.363636 116.599113 
L 359.055372 232.398821 
L 360.438843 142.172708 
L 361.130579 82.711755 
L 361.822314 202.135876 
L 362.51405 114.677993 
L 363.205785 107.677247 
L 363.897521 140.424035 
L 364.589256 144.759414 
L 365.280992 97.974832 
L 365.972727 237.977634 
L 366.664463 103.039329 
L 367.356198 47.686851 
L 368.047934 158.403909 
L 368.739669 204.093301 
L 369.431405 173.951372 
L 370.12314 110.90836 
L 370.814876 89.651992 
L 371.506612 83.816021 
L 372.198347 148.035908 
L 372.890083 153.699432 
L 373.581818 169.334632 
L 373.581818 169.334632 
" style="fill:none;stroke:#1f77b4;stroke-linecap:square;stroke-width:1.5;"/>
   </g>
   <g id="patch_3">
    <path d="M 54 252 
L 54 34.56 
" style="fill:none;stroke:#000000;stroke-linecap:square;stroke-linejoin:miter;stroke-width:0.8;"/>
   </g>
   <g id="patch_4">
    <path d="M 388.8 252 
L 388.8 34.56 
" style="fill:none;stroke:#000000;stroke-linecap:square;stroke-linejoin:miter;stroke-width:0.8;"/>
   </g>
   <g id="patch_5">
    <path d="M 54 252 
L 388.8 252 
" style="fill:none;stroke:#000000;stroke-linecap:square;stroke-linejoin:miter;stroke-width:0.8;"/>
   </g>
   <g id="patch_6">
    <path d="M 54 34.56 
L 388.8 34.56 
" style="fill:none;stroke:#000000;stroke-linecap:square;stroke-linejoin:miter;stroke-width:0.8;"/>
   </g>
  </g>
 </g>
 <defs>
  <clipPath id="pda6b978819">
   <rect height="217.44" width="334.8" x="54" y="34.56"/>
  </clipPath>
 </defs>
</svg>
