<?xml version="1.0" encoding="utf-8" standalone="no"?>
<!DOCTYPE svg PUBLIC "-//W3C//DTD SVG 1.1//EN"
  "http://www.w3.org/Graphics/SVG/1.1/DTD/svg11.dtd">
<!-- Created with matplotlib (http://matplotlib.org/) -->
<svg height="288pt" version="1.1" viewBox="0 0 432 288" width="432pt" xmlns="http://www.w3.org/2000/svg" xmlns:xlink="http://www.w3.org/1999/xlink">
 <defs>
  <style type="text/css">
*{stroke-linecap:butt;stroke-linejoin:round;}
  </style>
 </defs>
 <g id="figure_1">
  <g id="patch_1">
   <path d="M 0 288 
L 432 288 
L 432 0 
L 0 0 
z
" style="fill:#ffffff;"/>
  </g>
  <g id="axes_1">
   <g id="patch_2">
    <path d="M 54 252 
L 388.8 252 
L 388.8 34.56 
L 54 34.56 
z
" style="fill:#ffffff;"/>
   </g>
   <g id="PathCollection_1">
    <defs>
     <path d="M 0 3 
C 0.795609 3 1.55874 2.683901 2.12132 2.12132 
C 2.683901 1.55874 3 0.795609 3 0 
C 3 -0.795609 2.683901 -1.55874 2.12132 -2.12132 
C 1.55874 -2.683901 0.795609 -3 0 -3 
C -0.795609 -3 -1.55874 -2.683901 -2.12132 -2.12132 
C -2.683901 -1.55874 -3 -0.795609 -3 0 
C -3 0.795609 -2.683901 1.55874 -2.12132 2.12132 
C -1.55874 2.683901 -0.795609 3 0 3 
z
" id="m0c955c13f6" style="stroke:#1f77b4;"/>
    </defs>
    <g clip-path="url(#p993bba7670)">
     <use style="fill:#1f77b4;stroke:#1f77b4;" x="69.245725" xlink:href="#m0c955c13f6" y="44.443773"/>
     <use style="fill:#1f77b4;stroke:#1f77b4;" x="72.319549" xlink:href="#m0c955c13f6" y="44.443773"/>
     <use style="fill:#1f77b4;stroke:#1f77b4;" x="75.393373" xlink:href="#m0c955c13f6" y="44.443773"/>
     <use style="fill:#1f77b4;stroke:#1f77b4;" x="78.467196" xlink:href="#m0c955c13f6" y="44.443773"/>
     <use style="fill:#1f77b4;stroke:#1f77b4;" x="81.54102" xlink:href="#m0c955c13f6" y="44.443773"/>
     <use style="fill:#1f77b4;stroke:#1f77b4;" x="84.614844" xlink:href="#m0c955c13f6" y="44.443773"/>
     <use style="fill:#1f77b4;stroke:#1f77b4;" x="87.688667" xlink:href="#m0c955c13f6" y="44.443773"/>
     <use style="fill:#1f77b4;stroke:#1f77b4;" x="90.762491" xlink:href="#m0c955c13f6" y="44.443773"/>
     <use style="fill:#1f77b4;stroke:#1f77b4;" x="93.836315" xlink:href="#m0c955c13f6" y="44.443773"/>
     <use style="fill:#1f77b4;stroke:#1f77b4;" x="96.910139" xlink:href="#m0c955c13f6" y="44.443773"/>
     <use style="fill:#1f77b4;stroke:#1f77b4;" x="99.983962" xlink:href="#m0c955c13f6" y="44.443773"/>
     <use style="fill:#1f77b4;stroke:#1f77b4;" x="103.057786" xlink:href="#m0c955c13f6" y="44.443773"/>
     <use style="fill:#1f77b4;stroke:#1f77b4;" x="106.13161" xlink:href="#m0c955c13f6" y="44.443773"/>
     <use style="fill:#1f77b4;stroke:#1f77b4;" x="109.205434" xlink:href="#m0c955c13f6" y="44.443773"/>
     <use style="fill:#1f77b4;stroke:#1f77b4;" x="112.279257" xlink:href="#m0c955c13f6" y="44.443773"/>
     <use style="fill:#1f77b4;stroke:#1f77b4;" x="115.353081" xlink:href="#m0c955c13f6" y="44.443773"/>
     <use style="fill:#1f77b4;stroke:#1f77b4;" x="118.426905" xlink:href="#m0c955c13f6" y="44.443773"/>
     <use style="fill:#1f77b4;stroke:#1f77b4;" x="121.500729" xlink:href="#m0c955c13f6" y="44.443773"/>
     <use style="fill:#1f77b4;stroke:#1f77b4;" x="124.574552" xlink:href="#m0c955c13f6" y="44.443773"/>
     <use style="fill:#1f77b4;stroke:#1f77b4;" x="127.648376" xlink:href="#m0c955c13f6" y="44.443773"/>
     <use style="fill:#1f77b4;stroke:#1f77b4;" x="130.7222" xlink:href="#m0c955c13f6" y="44.443773"/>
     <use style="fill:#1f77b4;stroke:#1f77b4;" x="133.796024" xlink:href="#m0c955c13f6" y="44.443773"/>
     <use style="fill:#1f77b4;stroke:#1f77b4;" x="136.869847" xlink:href="#m0c955c13f6" y="44.443773"/>
     <use style="fill:#1f77b4;stroke:#1f77b4;" x="139.943671" xlink:href="#m0c955c13f6" y="44.443773"/>
     <use style="fill:#1f77b4;stroke:#1f77b4;" x="143.017495" xlink:href="#m0c955c13f6" y="44.443773"/>
     <use style="fill:#1f77b4;stroke:#1f77b4;" x="146.091318" xlink:href="#m0c955c13f6" y="44.443773"/>
     <use style="fill:#1f77b4;stroke:#1f77b4;" x="149.165142" xlink:href="#m0c955c13f6" y="44.443773"/>
     <use style="fill:#1f77b4;stroke:#1f77b4;" x="152.238966" xlink:href="#m0c955c13f6" y="44.443773"/>
     <use style="fill:#1f77b4;stroke:#1f77b4;" x="155.31279" xlink:href="#m0c955c13f6" y="44.443773"/>
     <use style="fill:#1f77b4;stroke:#1f77b4;" x="158.386613" xlink:href="#m0c955c13f6" y="44.443773"/>
     <use style="fill:#1f77b4;stroke:#1f77b4;" x="161.460437" xlink:href="#m0c955c13f6" y="44.443773"/>
     <use style="fill:#1f77b4;stroke:#1f77b4;" x="164.534261" xlink:href="#m0c955c13f6" y="44.443773"/>
     <use style="fill:#1f77b4;stroke:#1f77b4;" x="167.608085" xlink:href="#m0c955c13f6" y="44.443773"/>
     <use style="fill:#1f77b4;stroke:#1f77b4;" x="170.681908" xlink:href="#m0c955c13f6" y="44.443773"/>
     <use style="fill:#1f77b4;stroke:#1f77b4;" x="173.755732" xlink:href="#m0c955c13f6" y="44.443773"/>
     <use style="fill:#1f77b4;stroke:#1f77b4;" x="176.829556" xlink:href="#m0c955c13f6" y="44.443773"/>
     <use style="fill:#1f77b4;stroke:#1f77b4;" x="179.90338" xlink:href="#m0c955c13f6" y="44.443773"/>
     <use style="fill:#1f77b4;stroke:#1f77b4;" x="182.977203" xlink:href="#m0c955c13f6" y="44.443773"/>
     <use style="fill:#1f77b4;stroke:#1f77b4;" x="186.051027" xlink:href="#m0c955c13f6" y="44.443773"/>
     <use style="fill:#1f77b4;stroke:#1f77b4;" x="189.124851" xlink:href="#m0c955c13f6" y="44.443773"/>
     <use style="fill:#1f77b4;stroke:#1f77b4;" x="192.198675" xlink:href="#m0c955c13f6" y="44.443773"/>
     <use style="fill:#1f77b4;stroke:#1f77b4;" x="195.272498" xlink:href="#m0c955c13f6" y="44.443773"/>
     <use style="fill:#1f77b4;stroke:#1f77b4;" x="198.346322" xlink:href="#m0c955c13f6" y="44.443773"/>
     <use style="fill:#1f77b4;stroke:#1f77b4;" x="201.420146" xlink:href="#m0c955c13f6" y="44.443773"/>
     <use style="fill:#1f77b4;stroke:#1f77b4;" x="204.493969" xlink:href="#m0c955c13f6" y="44.443773"/>
     <use style="fill:#1f77b4;stroke:#1f77b4;" x="207.567793" xlink:href="#m0c955c13f6" y="44.443773"/>
     <use style="fill:#1f77b4;stroke:#1f77b4;" x="210.641617" xlink:href="#m0c955c13f6" y="44.443773"/>
     <use style="fill:#1f77b4;stroke:#1f77b4;" x="213.715441" xlink:href="#m0c955c13f6" y="44.443773"/>
     <use style="fill:#1f77b4;stroke:#1f77b4;" x="216.789264" xlink:href="#m0c955c13f6" y="44.443773"/>
     <use style="fill:#1f77b4;stroke:#1f77b4;" x="219.863088" xlink:href="#m0c955c13f6" y="44.443773"/>
     <use style="fill:#1f77b4;stroke:#1f77b4;" x="222.936912" xlink:href="#m0c955c13f6" y="242.116227"/>
     <use style="fill:#1f77b4;stroke:#1f77b4;" x="226.010736" xlink:href="#m0c955c13f6" y="242.116227"/>
     <use style="fill:#1f77b4;stroke:#1f77b4;" x="229.084559" xlink:href="#m0c955c13f6" y="242.116227"/>
     <use style="fill:#1f77b4;stroke:#1f77b4;" x="232.158383" xlink:href="#m0c955c13f6" y="242.116227"/>
     <use style="fill:#1f77b4;stroke:#1f77b4;" x="235.232207" xlink:href="#m0c955c13f6" y="242.116227"/>
     <use style="fill:#1f77b4;stroke:#1f77b4;" x="238.306031" xlink:href="#m0c955c13f6" y="242.116227"/>
     <use style="fill:#1f77b4;stroke:#1f77b4;" x="241.379854" xlink:href="#m0c955c13f6" y="242.116227"/>
     <use style="fill:#1f77b4;stroke:#1f77b4;" x="244.453678" xlink:href="#m0c955c13f6" y="242.116227"/>
     <use style="fill:#1f77b4;stroke:#1f77b4;" x="247.527502" xlink:href="#m0c955c13f6" y="242.116227"/>
     <use style="fill:#1f77b4;stroke:#1f77b4;" x="250.601325" xlink:href="#m0c955c13f6" y="242.116227"/>
     <use style="fill:#1f77b4;stroke:#1f77b4;" x="253.675149" xlink:href="#m0c955c13f6" y="242.116227"/>
     <use style="fill:#1f77b4;stroke:#1f77b4;" x="256.748973" xlink:href="#m0c955c13f6" y="242.116227"/>
     <use style="fill:#1f77b4;stroke:#1f77b4;" x="259.822797" xlink:href="#m0c955c13f6" y="242.116227"/>
     <use style="fill:#1f77b4;stroke:#1f77b4;" x="262.89662" xlink:href="#m0c955c13f6" y="242.116227"/>
     <use style="fill:#1f77b4;stroke:#1f77b4;" x="265.970444" xlink:href="#m0c955c13f6" y="242.116227"/>
     <use style="fill:#1f77b4;stroke:#1f77b4;" x="269.044268" xlink:href="#m0c955c13f6" y="242.116227"/>
     <use style="fill:#1f77b4;stroke:#1f77b4;" x="272.118092" xlink:href="#m0c955c13f6" y="242.116227"/>
     <use style="fill:#1f77b4;stroke:#1f77b4;" x="275.191915" xlink:href="#m0c955c13f6" y="242.116227"/>
     <use style="fill:#1f77b4;stroke:#1f77b4;" x="278.265739" xlink:href="#m0c955c13f6" y="242.116227"/>
     <use style="fill:#1f77b4;stroke:#1f77b4;" x="281.339563" xlink:href="#m0c955c13f6" y="242.116227"/>
     <use style="fill:#1f77b4;stroke:#1f77b4;" x="284.413387" xlink:href="#m0c955c13f6" y="242.116227"/>
     <use style="fill:#1f77b4;stroke:#1f77b4;" x="287.48721" xlink:href="#m0c955c13f6" y="242.116227"/>
     <use style="fill:#1f77b4;stroke:#1f77b4;" x="290.561034" xlink:href="#m0c955c13f6" y="242.116227"/>
     <use style="fill:#1f77b4;stroke:#1f77b4;" x="293.634858" xlink:href="#m0c955c13f6" y="242.116227"/>
     <use style="fill:#1f77b4;stroke:#1f77b4;" x="296.708682" xlink:href="#m0c955c13f6" y="242.116227"/>
     <use style="fill:#1f77b4;stroke:#1f77b4;" x="299.782505" xlink:href="#m0c955c13f6" y="242.116227"/>
     <use style="fill:#1f77b4;stroke:#1f77b4;" x="302.856329" xlink:href="#m0c955c13f6" y="242.116227"/>
     <use style="fill:#1f77b4;stroke:#1f77b4;" x="305.930153" xlink:href="#m0c955c13f6" y="242.116227"/>
     <use style="fill:#1f77b4;stroke:#1f77b4;" x="309.003976" xlink:href="#m0c955c13f6" y="242.116227"/>
     <use style="fill:#1f77b4;stroke:#1f77b4;" x="312.0778" xlink:href="#m0c955c13f6" y="242.116227"/>
     <use style="fill:#1f77b4;stroke:#1f77b4;" x="315.151624" xlink:href="#m0c955c13f6" y="242.116227"/>
     <use style="fill:#1f77b4;stroke:#1f77b4;" x="318.225448" xlink:href="#m0c955c13f6" y="242.116227"/>
     <use style="fill:#1f77b4;stroke:#1f77b4;" x="321.299271" xlink:href="#m0c955c13f6" y="242.116227"/>
     <use style="fill:#1f77b4;stroke:#1f77b4;" x="324.373095" xlink:href="#m0c955c13f6" y="242.116227"/>
     <use style="fill:#1f77b4;stroke:#1f77b4;" x="327.446919" xlink:href="#m0c955c13f6" y="242.116227"/>
     <use style="fill:#1f77b4;stroke:#1f77b4;" x="330.520743" xlink:href="#m0c955c13f6" y="242.116227"/>
     <use style="fill:#1f77b4;stroke:#1f77b4;" x="333.594566" xlink:href="#m0c955c13f6" y="242.116227"/>
     <use style="fill:#1f77b4;stroke:#1f77b4;" x="336.66839" xlink:href="#m0c955c13f6" y="242.116227"/>
     <use style="fill:#1f77b4;stroke:#1f77b4;" x="339.742214" xlink:href="#m0c955c13f6" y="242.116227"/>
     <use style="fill:#1f77b4;stroke:#1f77b4;" x="342.816038" xlink:href="#m0c955c13f6" y="242.116227"/>
     <use style="fill:#1f77b4;stroke:#1f77b4;" x="345.889861" xlink:href="#m0c955c13f6" y="242.116227"/>
     <use style="fill:#1f77b4;stroke:#1f77b4;" x="348.963685" xlink:href="#m0c955c13f6" y="242.116227"/>
     <use style="fill:#1f77b4;stroke:#1f77b4;" x="352.037509" xlink:href="#m0c955c13f6" y="242.116227"/>
     <use style="fill:#1f77b4;stroke:#1f77b4;" x="355.111333" xlink:href="#m0c955c13f6" y="242.116227"/>
     <use style="fill:#1f77b4;stroke:#1f77b4;" x="358.185156" xlink:href="#m0c955c13f6" y="242.116227"/>
     <use style="fill:#1f77b4;stroke:#1f77b4;" x="361.25898" xlink:href="#m0c955c13f6" y="242.116227"/>
     <use style="fill:#1f77b4;stroke:#1f77b4;" x="364.332804" xlink:href="#m0c955c13f6" y="242.116227"/>
     <use style="fill:#1f77b4;stroke:#1f77b4;" x="367.406627" xlink:href="#m0c955c13f6" y="242.116227"/>
     <use style="fill:#1f77b4;stroke:#1f77b4;" x="370.480451" xlink:href="#m0c955c13f6" y="242.116227"/>
     <use style="fill:#1f77b4;stroke:#1f77b4;" x="373.554275" xlink:href="#m0c955c13f6" y="242.116227"/>
    </g>
   </g>
   <g id="matplotlib.axis_1">
    <g id="xtick_1">
     <g id="line2d_1">
      <defs>
       <path d="M 0 0 
L 0 3.5 
" id="m066ec25724" style="stroke:#000000;stroke-width:0.8;"/>
      </defs>
      <g>
       <use style="stroke:#000000;stroke-width:0.8;" x="69.245725" xlink:href="#m066ec25724" y="252"/>
      </g>
     </g>
     <g id="text_1">
      <!-- 0 -->
      <defs>
       <path d="M 31.78125 66.40625 
Q 24.171875 66.40625 20.328125 58.90625 
Q 16.5 51.421875 16.5 36.375 
Q 16.5 21.390625 20.328125 13.890625 
Q 24.171875 6.390625 31.78125 6.390625 
Q 39.453125 6.390625 43.28125 13.890625 
Q 47.125 21.390625 47.125 36.375 
Q 47.125 51.421875 43.28125 58.90625 
Q 39.453125 66.40625 31.78125 66.40625 
z
M 31.78125 74.21875 
Q 44.046875 74.21875 50.515625 64.515625 
Q 56.984375 54.828125 56.984375 36.375 
Q 56.984375 17.96875 50.515625 8.265625 
Q 44.046875 -1.421875 31.78125 -1.421875 
Q 19.53125 -1.421875 13.0625 8.265625 
Q 6.59375 17.96875 6.59375 36.375 
Q 6.59375 54.828125 13.0625 64.515625 
Q 19.53125 74.21875 31.78125 74.21875 
z
" id="DejaVuSans-30"/>
      </defs>
      <g transform="translate(66.064475 266.598437)scale(0.1 -0.1)">
       <use xlink:href="#DejaVuSans-30"/>
      </g>
     </g>
    </g>
    <g id="xtick_2">
     <g id="line2d_2">
      <g>
       <use style="stroke:#000000;stroke-width:0.8;" x="130.7222" xlink:href="#m066ec25724" y="252"/>
      </g>
     </g>
     <g id="text_2">
      <!-- 20 -->
      <defs>
       <path d="M 19.1875 8.296875 
L 53.609375 8.296875 
L 53.609375 0 
L 7.328125 0 
L 7.328125 8.296875 
Q 12.9375 14.109375 22.625 23.890625 
Q 32.328125 33.6875 34.8125 36.53125 
Q 39.546875 41.84375 41.421875 45.53125 
Q 43.3125 49.21875 43.3125 52.78125 
Q 43.3125 58.59375 39.234375 62.25 
Q 35.15625 65.921875 28.609375 65.921875 
Q 23.96875 65.921875 18.8125 64.3125 
Q 13.671875 62.703125 7.8125 59.421875 
L 7.8125 69.390625 
Q 13.765625 71.78125 18.9375 73 
Q 24.125 74.21875 28.421875 74.21875 
Q 39.75 74.21875 46.484375 68.546875 
Q 53.21875 62.890625 53.21875 53.421875 
Q 53.21875 48.921875 51.53125 44.890625 
Q 49.859375 40.875 45.40625 35.40625 
Q 44.1875 33.984375 37.640625 27.21875 
Q 31.109375 20.453125 19.1875 8.296875 
z
" id="DejaVuSans-32"/>
      </defs>
      <g transform="translate(124.3597 266.598437)scale(0.1 -0.1)">
       <use xlink:href="#DejaVuSans-32"/>
       <use x="63.623047" xlink:href="#DejaVuSans-30"/>
      </g>
     </g>
    </g>
    <g id="xtick_3">
     <g id="line2d_3">
      <g>
       <use style="stroke:#000000;stroke-width:0.8;" x="192.198675" xlink:href="#m066ec25724" y="252"/>
      </g>
     </g>
     <g id="text_3">
      <!-- 40 -->
      <defs>
       <path d="M 37.796875 64.3125 
L 12.890625 25.390625 
L 37.796875 25.390625 
z
M 35.203125 72.90625 
L 47.609375 72.90625 
L 47.609375 25.390625 
L 58.015625 25.390625 
L 58.015625 17.1875 
L 47.609375 17.1875 
L 47.609375 0 
L 37.796875 0 
L 37.796875 17.1875 
L 4.890625 17.1875 
L 4.890625 26.703125 
z
" id="DejaVuSans-34"/>
      </defs>
      <g transform="translate(185.836175 266.598437)scale(0.1 -0.1)">
       <use xlink:href="#DejaVuSans-34"/>
       <use x="63.623047" xlink:href="#DejaVuSans-30"/>
      </g>
     </g>
    </g>
    <g id="xtick_4">
     <g id="line2d_4">
      <g>
       <use style="stroke:#000000;stroke-width:0.8;" x="253.675149" xlink:href="#m066ec25724" y="252"/>
      </g>
     </g>
     <g id="text_4">
      <!-- 60 -->
      <defs>
       <path d="M 33.015625 40.375 
Q 26.375 40.375 22.484375 35.828125 
Q 18.609375 31.296875 18.609375 23.390625 
Q 18.609375 15.53125 22.484375 10.953125 
Q 26.375 6.390625 33.015625 6.390625 
Q 39.65625 6.390625 43.53125 10.953125 
Q 47.40625 15.53125 47.40625 23.390625 
Q 47.40625 31.296875 43.53125 35.828125 
Q 39.65625 40.375 33.015625 40.375 
z
M 52.59375 71.296875 
L 52.59375 62.3125 
Q 48.875 64.0625 45.09375 64.984375 
Q 41.3125 65.921875 37.59375 65.921875 
Q 27.828125 65.921875 22.671875 59.328125 
Q 17.53125 52.734375 16.796875 39.40625 
Q 19.671875 43.65625 24.015625 45.921875 
Q 28.375 48.1875 33.59375 48.1875 
Q 44.578125 48.1875 50.953125 41.515625 
Q 57.328125 34.859375 57.328125 23.390625 
Q 57.328125 12.15625 50.6875 5.359375 
Q 44.046875 -1.421875 33.015625 -1.421875 
Q 20.359375 -1.421875 13.671875 8.265625 
Q 6.984375 17.96875 6.984375 36.375 
Q 6.984375 53.65625 15.1875 63.9375 
Q 23.390625 74.21875 37.203125 74.21875 
Q 40.921875 74.21875 44.703125 73.484375 
Q 48.484375 72.75 52.59375 71.296875 
z
" id="DejaVuSans-36"/>
      </defs>
      <g transform="translate(247.312649 266.598437)scale(0.1 -0.1)">
       <use xlink:href="#DejaVuSans-36"/>
       <use x="63.623047" xlink:href="#DejaVuSans-30"/>
      </g>
     </g>
    </g>
    <g id="xtick_5">
     <g id="line2d_5">
      <g>
       <use style="stroke:#000000;stroke-width:0.8;" x="315.151624" xlink:href="#m066ec25724" y="252"/>
      </g>
     </g>
     <g id="text_5">
      <!-- 80 -->
      <defs>
       <path d="M 31.78125 34.625 
Q 24.75 34.625 20.71875 30.859375 
Q 16.703125 27.09375 16.703125 20.515625 
Q 16.703125 13.921875 20.71875 10.15625 
Q 24.75 6.390625 31.78125 6.390625 
Q 38.8125 6.390625 42.859375 10.171875 
Q 46.921875 13.96875 46.921875 20.515625 
Q 46.921875 27.09375 42.890625 30.859375 
Q 38.875 34.625 31.78125 34.625 
z
M 21.921875 38.8125 
Q 15.578125 40.375 12.03125 44.71875 
Q 8.5 49.078125 8.5 55.328125 
Q 8.5 64.0625 14.71875 69.140625 
Q 20.953125 74.21875 31.78125 74.21875 
Q 42.671875 74.21875 48.875 69.140625 
Q 55.078125 64.0625 55.078125 55.328125 
Q 55.078125 49.078125 51.53125 44.71875 
Q 48 40.375 41.703125 38.8125 
Q 48.828125 37.15625 52.796875 32.3125 
Q 56.78125 27.484375 56.78125 20.515625 
Q 56.78125 9.90625 50.3125 4.234375 
Q 43.84375 -1.421875 31.78125 -1.421875 
Q 19.734375 -1.421875 13.25 4.234375 
Q 6.78125 9.90625 6.78125 20.515625 
Q 6.78125 27.484375 10.78125 32.3125 
Q 14.796875 37.15625 21.921875 38.8125 
z
M 18.3125 54.390625 
Q 18.3125 48.734375 21.84375 45.5625 
Q 25.390625 42.390625 31.78125 42.390625 
Q 38.140625 42.390625 41.71875 45.5625 
Q 45.3125 48.734375 45.3125 54.390625 
Q 45.3125 60.0625 41.71875 63.234375 
Q 38.140625 66.40625 31.78125 66.40625 
Q 25.390625 66.40625 21.84375 63.234375 
Q 18.3125 60.0625 18.3125 54.390625 
z
" id="DejaVuSans-38"/>
      </defs>
      <g transform="translate(308.789124 266.598437)scale(0.1 -0.1)">
       <use xlink:href="#DejaVuSans-38"/>
       <use x="63.623047" xlink:href="#DejaVuSans-30"/>
      </g>
     </g>
    </g>
    <g id="xtick_6">
     <g id="line2d_6">
      <g>
       <use style="stroke:#000000;stroke-width:0.8;" x="376.628099" xlink:href="#m066ec25724" y="252"/>
      </g>
     </g>
     <g id="text_6">
      <!-- 100 -->
      <defs>
       <path d="M 12.40625 8.296875 
L 28.515625 8.296875 
L 28.515625 63.921875 
L 10.984375 60.40625 
L 10.984375 69.390625 
L 28.421875 72.90625 
L 38.28125 72.90625 
L 38.28125 8.296875 
L 54.390625 8.296875 
L 54.390625 0 
L 12.40625 0 
z
" id="DejaVuSans-31"/>
      </defs>
      <g transform="translate(367.084349 266.598437)scale(0.1 -0.1)">
       <use xlink:href="#DejaVuSans-31"/>
       <use x="63.623047" xlink:href="#DejaVuSans-30"/>
       <use x="127.246094" xlink:href="#DejaVuSans-30"/>
      </g>
     </g>
    </g>
   </g>
   <g id="matplotlib.axis_2">
    <g id="ytick_1">
     <g id="line2d_7">
      <defs>
       <path d="M 0 0 
L -3.5 0 
" id="m4d1f5d4730" style="stroke:#000000;stroke-width:0.8;"/>
      </defs>
      <g>
       <use style="stroke:#000000;stroke-width:0.8;" x="54" xlink:href="#m4d1f5d4730" y="242.116227"/>
      </g>
     </g>
     <g id="text_7">
      <!-- −10000 -->
      <defs>
       <path d="M 10.59375 35.5 
L 73.1875 35.5 
L 73.1875 27.203125 
L 10.59375 27.203125 
z
" id="DejaVuSans-2212"/>
      </defs>
      <g transform="translate(6.807812 245.915446)scale(0.1 -0.1)">
       <use xlink:href="#DejaVuSans-2212"/>
       <use x="83.789062" xlink:href="#DejaVuSans-31"/>
       <use x="147.412109" xlink:href="#DejaVuSans-30"/>
       <use x="211.035156" xlink:href="#DejaVuSans-30"/>
       <use x="274.658203" xlink:href="#DejaVuSans-30"/>
       <use x="338.28125" xlink:href="#DejaVuSans-30"/>
      </g>
     </g>
    </g>
    <g id="ytick_2">
     <g id="line2d_8">
      <g>
       <use style="stroke:#000000;stroke-width:0.8;" x="54" xlink:href="#m4d1f5d4730" y="217.40717"/>
      </g>
     </g>
     <g id="text_8">
      <!-- −7500 -->
      <defs>
       <path d="M 8.203125 72.90625 
L 55.078125 72.90625 
L 55.078125 68.703125 
L 28.609375 0 
L 18.3125 0 
L 43.21875 64.59375 
L 8.203125 64.59375 
z
" id="DejaVuSans-37"/>
       <path d="M 10.796875 72.90625 
L 49.515625 72.90625 
L 49.515625 64.59375 
L 19.828125 64.59375 
L 19.828125 46.734375 
Q 21.96875 47.46875 24.109375 47.828125 
Q 26.265625 48.1875 28.421875 48.1875 
Q 40.625 48.1875 47.75 41.5 
Q 54.890625 34.8125 54.890625 23.390625 
Q 54.890625 11.625 47.5625 5.09375 
Q 40.234375 -1.421875 26.90625 -1.421875 
Q 22.3125 -1.421875 17.546875 -0.640625 
Q 12.796875 0.140625 7.71875 1.703125 
L 7.71875 11.625 
Q 12.109375 9.234375 16.796875 8.0625 
Q 21.484375 6.890625 26.703125 6.890625 
Q 35.15625 6.890625 40.078125 11.328125 
Q 45.015625 15.765625 45.015625 23.390625 
Q 45.015625 31 40.078125 35.4375 
Q 35.15625 39.890625 26.703125 39.890625 
Q 22.75 39.890625 18.8125 39.015625 
Q 14.890625 38.140625 10.796875 36.28125 
z
" id="DejaVuSans-35"/>
      </defs>
      <g transform="translate(13.170313 221.206389)scale(0.1 -0.1)">
       <use xlink:href="#DejaVuSans-2212"/>
       <use x="83.789062" xlink:href="#DejaVuSans-37"/>
       <use x="147.412109" xlink:href="#DejaVuSans-35"/>
       <use x="211.035156" xlink:href="#DejaVuSans-30"/>
       <use x="274.658203" xlink:href="#DejaVuSans-30"/>
      </g>
     </g>
    </g>
    <g id="ytick_3">
     <g id="line2d_9">
      <g>
       <use style="stroke:#000000;stroke-width:0.8;" x="54" xlink:href="#m4d1f5d4730" y="192.698114"/>
      </g>
     </g>
     <g id="text_9">
      <!-- −5000 -->
      <g transform="translate(13.170313 196.497332)scale(0.1 -0.1)">
       <use xlink:href="#DejaVuSans-2212"/>
       <use x="83.789062" xlink:href="#DejaVuSans-35"/>
       <use x="147.412109" xlink:href="#DejaVuSans-30"/>
       <use x="211.035156" xlink:href="#DejaVuSans-30"/>
       <use x="274.658203" xlink:href="#DejaVuSans-30"/>
      </g>
     </g>
    </g>
    <g id="ytick_4">
     <g id="line2d_10">
      <g>
       <use style="stroke:#000000;stroke-width:0.8;" x="54" xlink:href="#m4d1f5d4730" y="167.989057"/>
      </g>
     </g>
     <g id="text_10">
      <!-- −2500 -->
      <g transform="translate(13.170313 171.788276)scale(0.1 -0.1)">
       <use xlink:href="#DejaVuSans-2212"/>
       <use x="83.789062" xlink:href="#DejaVuSans-32"/>
       <use x="147.412109" xlink:href="#DejaVuSans-35"/>
       <use x="211.035156" xlink:href="#DejaVuSans-30"/>
       <use x="274.658203" xlink:href="#DejaVuSans-30"/>
      </g>
     </g>
    </g>
    <g id="ytick_5">
     <g id="line2d_11">
      <g>
       <use style="stroke:#000000;stroke-width:0.8;" x="54" xlink:href="#m4d1f5d4730" y="143.28"/>
      </g>
     </g>
     <g id="text_11">
      <!-- 0 -->
      <g transform="translate(40.6375 147.079219)scale(0.1 -0.1)">
       <use xlink:href="#DejaVuSans-30"/>
      </g>
     </g>
    </g>
    <g id="ytick_6">
     <g id="line2d_12">
      <g>
       <use style="stroke:#000000;stroke-width:0.8;" x="54" xlink:href="#m4d1f5d4730" y="118.570943"/>
      </g>
     </g>
     <g id="text_12">
      <!-- 2500 -->
      <g transform="translate(21.55 122.370162)scale(0.1 -0.1)">
       <use xlink:href="#DejaVuSans-32"/>
       <use x="63.623047" xlink:href="#DejaVuSans-35"/>
       <use x="127.246094" xlink:href="#DejaVuSans-30"/>
       <use x="190.869141" xlink:href="#DejaVuSans-30"/>
      </g>
     </g>
    </g>
    <g id="ytick_7">
     <g id="line2d_13">
      <g>
       <use style="stroke:#000000;stroke-width:0.8;" x="54" xlink:href="#m4d1f5d4730" y="93.861886"/>
      </g>
     </g>
     <g id="text_13">
      <!-- 5000 -->
      <g transform="translate(21.55 97.661105)scale(0.1 -0.1)">
       <use xlink:href="#DejaVuSans-35"/>
       <use x="63.623047" xlink:href="#DejaVuSans-30"/>
       <use x="127.246094" xlink:href="#DejaVuSans-30"/>
       <use x="190.869141" xlink:href="#DejaVuSans-30"/>
      </g>
     </g>
    </g>
    <g id="ytick_8">
     <g id="line2d_14">
      <g>
       <use style="stroke:#000000;stroke-width:0.8;" x="54" xlink:href="#m4d1f5d4730" y="69.15283"/>
      </g>
     </g>
     <g id="text_14">
      <!-- 7500 -->
      <g transform="translate(21.55 72.952048)scale(0.1 -0.1)">
       <use xlink:href="#DejaVuSans-37"/>
       <use x="63.623047" xlink:href="#DejaVuSans-35"/>
       <use x="127.246094" xlink:href="#DejaVuSans-30"/>
       <use x="190.869141" xlink:href="#DejaVuSans-30"/>
      </g>
     </g>
    </g>
    <g id="ytick_9">
     <g id="line2d_15">
      <g>
       <use style="stroke:#000000;stroke-width:0.8;" x="54" xlink:href="#m4d1f5d4730" y="44.443773"/>
      </g>
     </g>
     <g id="text_15">
      <!-- 10000 -->
      <g transform="translate(15.1875 48.242991)scale(0.1 -0.1)">
       <use xlink:href="#DejaVuSans-31"/>
       <use x="63.623047" xlink:href="#DejaVuSans-30"/>
       <use x="127.246094" xlink:href="#DejaVuSans-30"/>
       <use x="190.869141" xlink:href="#DejaVuSans-30"/>
       <use x="254.492188" xlink:href="#DejaVuSans-30"/>
      </g>
     </g>
    </g>
   </g>
   <g id="patch_3">
    <path d="M 54 252 
L 54 34.56 
" style="fill:none;stroke:#000000;stroke-linecap:square;stroke-linejoin:miter;stroke-width:0.8;"/>
   </g>
   <g id="patch_4">
    <path d="M 388.8 252 
L 388.8 34.56 
" style="fill:none;stroke:#000000;stroke-linecap:square;stroke-linejoin:miter;stroke-width:0.8;"/>
   </g>
   <g id="patch_5">
    <path d="M 54 252 
L 388.8 252 
" style="fill:none;stroke:#000000;stroke-linecap:square;stroke-linejoin:miter;stroke-width:0.8;"/>
   </g>
   <g id="patch_6">
    <path d="M 54 34.56 
L 388.8 34.56 
" style="fill:none;stroke:#000000;stroke-linecap:square;stroke-linejoin:miter;stroke-width:0.8;"/>
   </g>
  </g>
 </g>
 <defs>
  <clipPath id="p993bba7670">
   <rect height="217.44" width="334.8" x="54" y="34.56"/>
  </clipPath>
 </defs>
</svg>
