<?xml version="1.0" encoding="utf-8" standalone="no"?>
<!DOCTYPE svg PUBLIC "-//W3C//DTD SVG 1.1//EN"
  "http://www.w3.org/Graphics/SVG/1.1/DTD/svg11.dtd">
<!-- Created with matplotlib (http://matplotlib.org/) -->
<svg height="288pt" version="1.1" viewBox="0 0 432 288" width="432pt" xmlns="http://www.w3.org/2000/svg" xmlns:xlink="http://www.w3.org/1999/xlink">
 <defs>
  <style type="text/css">
*{stroke-linecap:butt;stroke-linejoin:round;}
  </style>
 </defs>
 <g id="figure_1">
  <g id="patch_1">
   <path d="M 0 288 
L 432 288 
L 432 0 
L 0 0 
z
" style="fill:#ffffff;"/>
  </g>
  <g id="axes_1">
   <g id="patch_2">
    <path d="M 54 252 
L 388.8 252 
L 388.8 34.56 
L 54 34.56 
z
" style="fill:#ffffff;"/>
   </g>
   <g id="PathCollection_1">
    <defs>
     <path d="M 0 3 
C 0.795609 3 1.55874 2.683901 2.12132 2.12132 
C 2.683901 1.55874 3 0.795609 3 0 
C 3 -0.795609 2.683901 -1.55874 2.12132 -2.12132 
C 1.55874 -2.683901 0.795609 -3 0 -3 
C -0.795609 -3 -1.55874 -2.683901 -2.12132 -2.12132 
C -2.683901 -1.55874 -3 -0.795609 -3 0 
C -3 0.795609 -2.683901 1.55874 -2.12132 2.12132 
C -1.55874 2.683901 -0.795609 3 0 3 
z
" id="m2bd287169b" style="stroke:#ff7f0e;"/>
    </defs>
    <g clip-path="url(#p82b2ae8814)">
     <use style="fill:#ff7f0e;stroke:#ff7f0e;" x="128.873774" xlink:href="#m2bd287169b" y="171.996993"/>
     <use style="fill:#ff7f0e;stroke:#ff7f0e;" x="147.733502" xlink:href="#m2bd287169b" y="195.485675"/>
     <use style="fill:#ff7f0e;stroke:#ff7f0e;" x="172.63775" xlink:href="#m2bd287169b" y="166.243843"/>
     <use style="fill:#ff7f0e;stroke:#ff7f0e;" x="158.033735" xlink:href="#m2bd287169b" y="204.663182"/>
     <use style="fill:#ff7f0e;stroke:#ff7f0e;" x="99.439139" xlink:href="#m2bd287169b" y="160.507901"/>
     <use style="fill:#ff7f0e;stroke:#ff7f0e;" x="97.315574" xlink:href="#m2bd287169b" y="172.019937"/>
     <use style="fill:#ff7f0e;stroke:#ff7f0e;" x="154.600324" xlink:href="#m2bd287169b" y="191.86056"/>
     <use style="fill:#ff7f0e;stroke:#ff7f0e;" x="147.22364" xlink:href="#m2bd287169b" y="178.277849"/>
     <use style="fill:#ff7f0e;stroke:#ff7f0e;" x="91.082216" xlink:href="#m2bd287169b" y="161.356821"/>
     <use style="fill:#ff7f0e;stroke:#ff7f0e;" x="84.215393" xlink:href="#m2bd287169b" y="171.996993"/>
     <use style="fill:#ff7f0e;stroke:#ff7f0e;" x="156.31703" xlink:href="#m2bd287169b" y="197.780052"/>
     <use style="fill:#ff7f0e;stroke:#ff7f0e;" x="87.648804" xlink:href="#m2bd287169b" y="188.602545"/>
     <use style="fill:#ff7f0e;stroke:#ff7f0e;" x="194.271675" xlink:href="#m2bd287169b" y="183.491821"/>
     <use style="fill:#ff7f0e;stroke:#ff7f0e;" x="248.816563" xlink:href="#m2bd287169b" y="204.324761"/>
     <use style="fill:#ff7f0e;stroke:#ff7f0e;" x="94.515627" xlink:href="#m2bd287169b" y="173.350675"/>
     <use style="fill:#ff7f0e;stroke:#ff7f0e;" x="139.149973" xlink:href="#m2bd287169b" y="172.025673"/>
     <use style="fill:#ff7f0e;stroke:#ff7f0e;" x="91.082216" xlink:href="#m2bd287169b" y="177.991052"/>
     <use style="fill:#ff7f0e;stroke:#ff7f0e;" x="250.73584" xlink:href="#m2bd287169b" y="197.780052"/>
     <use style="fill:#ff7f0e;stroke:#ff7f0e;" x="136.454746" xlink:href="#m2bd287169b" y="177.732935"/>
     <use style="fill:#ff7f0e;stroke:#ff7f0e;" x="233.568783" xlink:href="#m2bd287169b" y="208.678341"/>
     <use style="fill:#ff7f0e;stroke:#ff7f0e;" x="154.600324" xlink:href="#m2bd287169b" y="200.648023"/>
     <use style="fill:#ff7f0e;stroke:#ff7f0e;" x="106.532566" xlink:href="#m2bd287169b" y="172.07156"/>
     <use style="fill:#ff7f0e;stroke:#ff7f0e;" x="153.618369" xlink:href="#m2bd287169b" y="166.283995"/>
     <use style="fill:#ff7f0e;stroke:#ff7f0e;" x="370.905234" xlink:href="#m2bd287169b" y="206.670762"/>
     <use style="fill:#ff7f0e;stroke:#ff7f0e;" x="178.94321" xlink:href="#m2bd287169b" y="177.715727"/>
     <use style="fill:#ff7f0e;stroke:#ff7f0e;" x="181.150893" xlink:href="#m2bd287169b" y="168.532484"/>
     <use style="fill:#ff7f0e;stroke:#ff7f0e;" x="159.72469" xlink:href="#m2bd287169b" y="183.497557"/>
     <use style="fill:#ff7f0e;stroke:#ff7f0e;" x="139.149973" xlink:href="#m2bd287169b" y="172.025673"/>
     <use style="fill:#ff7f0e;stroke:#ff7f0e;" x="136.782636" xlink:href="#m2bd287169b" y="181.1745"/>
     <use style="fill:#ff7f0e;stroke:#ff7f0e;" x="192.367848" xlink:href="#m2bd287169b" y="206.957559"/>
     <use style="fill:#ff7f0e;stroke:#ff7f0e;" x="154.600324" xlink:href="#m2bd287169b" y="200.648023"/>
     <use style="fill:#ff7f0e;stroke:#ff7f0e;" x="156.31703" xlink:href="#m2bd287169b" y="189.176139"/>
     <use style="fill:#ff7f0e;stroke:#ff7f0e;" x="273.053013" xlink:href="#m2bd287169b" y="200.653759"/>
     <use style="fill:#ff7f0e;stroke:#ff7f0e;" x="219.835138" xlink:href="#m2bd287169b" y="201.221617"/>
     <use style="fill:#ff7f0e;stroke:#ff7f0e;" x="154.600324" xlink:href="#m2bd287169b" y="200.648023"/>
     <use style="fill:#ff7f0e;stroke:#ff7f0e;" x="345.15465" xlink:href="#m2bd287169b" y="218.142645"/>
     <use style="fill:#ff7f0e;stroke:#ff7f0e;" x="165.628441" xlink:href="#m2bd287169b" y="177.704255"/>
     <use style="fill:#ff7f0e;stroke:#ff7f0e;" x="111.09042" xlink:href="#m2bd287169b" y="149.036018"/>
     <use style="fill:#ff7f0e;stroke:#ff7f0e;" x="202.668082" xlink:href="#m2bd287169b" y="194.929289"/>
     <use style="fill:#ff7f0e;stroke:#ff7f0e;" x="143.455471" xlink:href="#m2bd287169b" y="166.283995"/>
     <use style="fill:#ff7f0e;stroke:#ff7f0e;" x="95.193726" xlink:href="#m2bd287169b" y="143.300076"/>
     <use style="fill:#ff7f0e;stroke:#ff7f0e;" x="104.010726" xlink:href="#m2bd287169b" y="157.186791"/>
     <use style="fill:#ff7f0e;stroke:#ff7f0e;" x="144.30009" xlink:href="#m2bd287169b" y="180.600906"/>
     <use style="fill:#ff7f0e;stroke:#ff7f0e;" x="87.648804" xlink:href="#m2bd287169b" y="183.445933"/>
     <use style="fill:#ff7f0e;stroke:#ff7f0e;" x="144.30009" xlink:href="#m2bd287169b" y="180.600906"/>
     <use style="fill:#ff7f0e;stroke:#ff7f0e;" x="224.985255" xlink:href="#m2bd287169b" y="189.749733"/>
     <use style="fill:#ff7f0e;stroke:#ff7f0e;" x="141.369674" xlink:href="#m2bd287169b" y="169.260949"/>
     <use style="fill:#ff7f0e;stroke:#ff7f0e;" x="269.619602" xlink:href="#m2bd287169b" y="194.912081"/>
     <use style="fill:#ff7f0e;stroke:#ff7f0e;" x="215.536507" xlink:href="#m2bd287169b" y="196.76479"/>
     <use style="fill:#ff7f0e;stroke:#ff7f0e;" x="168.333969" xlink:href="#m2bd287169b" y="209.251936"/>
     <use style="fill:#ff7f0e;stroke:#ff7f0e;" x="210.154635" xlink:href="#m2bd287169b" y="189.445728"/>
     <use style="fill:#ff7f0e;stroke:#ff7f0e;" x="348.588061" xlink:href="#m2bd287169b" y="201.795211"/>
     <use style="fill:#ff7f0e;stroke:#ff7f0e;" x="159.599371" xlink:href="#m2bd287169b" y="183.480349"/>
     <use style="fill:#ff7f0e;stroke:#ff7f0e;" x="228.418666" xlink:href="#m2bd287169b" y="198.066849"/>
     <use style="fill:#ff7f0e;stroke:#ff7f0e;" x="223.205031" xlink:href="#m2bd287169b" y="186.342584"/>
     <use style="fill:#ff7f0e;stroke:#ff7f0e;" x="151.166913" xlink:href="#m2bd287169b" y="180.629586"/>
     <use style="fill:#ff7f0e;stroke:#ff7f0e;" x="149.824449" xlink:href="#m2bd287169b" y="183.474613"/>
     <use style="fill:#ff7f0e;stroke:#ff7f0e;" x="111.552214" xlink:href="#m2bd287169b" y="173.195805"/>
     <use style="fill:#ff7f0e;stroke:#ff7f0e;" x="199.234671" xlink:href="#m2bd287169b" y="207.531153"/>
     <use style="fill:#ff7f0e;stroke:#ff7f0e;" x="196.71283" xlink:href="#m2bd287169b" y="189.296594"/>
     <use style="fill:#ff7f0e;stroke:#ff7f0e;" x="101.4082" xlink:href="#m2bd287169b" y="154.892414"/>
     <use style="fill:#ff7f0e;stroke:#ff7f0e;" x="78.541681" xlink:href="#m2bd287169b" y="157.0606"/>
     <use style="fill:#ff7f0e;stroke:#ff7f0e;" x="104.197847" xlink:href="#m2bd287169b" y="155.334082"/>
     <use style="fill:#ff7f0e;stroke:#ff7f0e;" x="124.520208" xlink:href="#m2bd287169b" y="172.025673"/>
     <use style="fill:#ff7f0e;stroke:#ff7f0e;" x="224.91487" xlink:href="#m2bd287169b" y="188.831982"/>
     <use style="fill:#ff7f0e;stroke:#ff7f0e;" x="171.528758" xlink:href="#m2bd287169b" y="177.704255"/>
     <use style="fill:#ff7f0e;stroke:#ff7f0e;" x="184.323366" xlink:href="#m2bd287169b" y="183.950696"/>
     <use style="fill:#ff7f0e;stroke:#ff7f0e;" x="91.082216" xlink:href="#m2bd287169b" y="158.345451"/>
     <use style="fill:#ff7f0e;stroke:#ff7f0e;" x="106.532566" xlink:href="#m2bd287169b" y="169.100342"/>
     <use style="fill:#ff7f0e;stroke:#ff7f0e;" x="105.430441" xlink:href="#m2bd287169b" y="154.812111"/>
     <use style="fill:#ff7f0e;stroke:#ff7f0e;" x="145.041707" xlink:href="#m2bd287169b" y="154.77196"/>
     <use style="fill:#ff7f0e;stroke:#ff7f0e;" x="92.350861" xlink:href="#m2bd287169b" y="137.564134"/>
     <use style="fill:#ff7f0e;stroke:#ff7f0e;" x="180.955189" xlink:href="#m2bd287169b" y="177.732935"/>
     <use style="fill:#ff7f0e;stroke:#ff7f0e;" x="139.149973" xlink:href="#m2bd287169b" y="174.836284"/>
     <use style="fill:#ff7f0e;stroke:#ff7f0e;" x="132.283151" xlink:href="#m2bd287169b" y="177.704255"/>
     <use style="fill:#ff7f0e;stroke:#ff7f0e;" x="88.309736" xlink:href="#m2bd287169b" y="172.037145"/>
     <use style="fill:#ff7f0e;stroke:#ff7f0e;" x="139.149973" xlink:href="#m2bd287169b" y="174.836284"/>
     <use style="fill:#ff7f0e;stroke:#ff7f0e;" x="125.416328" xlink:href="#m2bd287169b" y="155.9593"/>
     <use style="fill:#ff7f0e;stroke:#ff7f0e;" x="182.100232" xlink:href="#m2bd287169b" y="167.436919"/>
     <use style="fill:#ff7f0e;stroke:#ff7f0e;" x="261.199161" xlink:href="#m2bd287169b" y="185.763254"/>
     <use style="fill:#ff7f0e;stroke:#ff7f0e;" x="73.915159" xlink:href="#m2bd287169b" y="159.148483"/>
     <use style="fill:#ff7f0e;stroke:#ff7f0e;" x="121.09023" xlink:href="#m2bd287169b" y="149.540781"/>
     <use style="fill:#ff7f0e;stroke:#ff7f0e;" x="199.234671" xlink:href="#m2bd287169b" y="160.49643"/>
     <use style="fill:#ff7f0e;stroke:#ff7f0e;" x="140.693292" xlink:href="#m2bd287169b" y="157.731706"/>
     <use style="fill:#ff7f0e;stroke:#ff7f0e;" x="73.915159" xlink:href="#m2bd287169b" y="150.550306"/>
     <use style="fill:#ff7f0e;stroke:#ff7f0e;" x="274.769719" xlink:href="#m2bd287169b" y="196.059269"/>
     <use style="fill:#ff7f0e;stroke:#ff7f0e;" x="73.896276" xlink:href="#m2bd287169b" y="149.454741"/>
     <use style="fill:#ff7f0e;stroke:#ff7f0e;" x="143.719844" xlink:href="#m2bd287169b" y="175.409878"/>
     <use style="fill:#ff7f0e;stroke:#ff7f0e;" x="93.48732" xlink:href="#m2bd287169b" y="154.77196"/>
     <use style="fill:#ff7f0e;stroke:#ff7f0e;" x="166.586363" xlink:href="#m2bd287169b" y="171.974049"/>
     <use style="fill:#ff7f0e;stroke:#ff7f0e;" x="101.382449" xlink:href="#m2bd287169b" y="151.938404"/>
     <use style="fill:#ff7f0e;stroke:#ff7f0e;" x="177.652247" xlink:href="#m2bd287169b" y="184.621801"/>
     <use style="fill:#ff7f0e;stroke:#ff7f0e;" x="85.980167" xlink:href="#m2bd287169b" y="151.94414"/>
     <use style="fill:#ff7f0e;stroke:#ff7f0e;" x="91.082216" xlink:href="#m2bd287169b" y="161.643618"/>
     <use style="fill:#ff7f0e;stroke:#ff7f0e;" x="82.498687" xlink:href="#m2bd287169b" y="131.8454"/>
     <use style="fill:#ff7f0e;stroke:#ff7f0e;" x="180.350909" xlink:href="#m2bd287169b" y="177.709991"/>
     <use style="fill:#ff7f0e;stroke:#ff7f0e;" x="137.433268" xlink:href="#m2bd287169b" y="166.232371"/>
     <use style="fill:#ff7f0e;stroke:#ff7f0e;" x="104.815861" xlink:href="#m2bd287169b" y="155.334082"/>
     <use style="fill:#ff7f0e;stroke:#ff7f0e;" x="92.798921" xlink:href="#m2bd287169b" y="174.836284"/>
     <use style="fill:#ff7f0e;stroke:#ff7f0e;" x="149.450207" xlink:href="#m2bd287169b" y="180.572226"/>
    </g>
   </g>
   <g id="PathCollection_2">
    <defs>
     <path d="M -3 3 
L 3 -3 
M -3 -3 
L 3 3 
" id="m8824353642" style="stroke:#1f77b4;stroke-width:1.5;"/>
    </defs>
    <g clip-path="url(#p82b2ae8814)">
     <use style="fill:#1f77b4;stroke:#1f77b4;stroke-width:1.5;" x="187.91128" xlink:href="#m8824353642" y="171.974049"/>
     <use style="fill:#1f77b4;stroke:#1f77b4;stroke-width:1.5;" x="217.929595" xlink:href="#m8824353642" y="171.996993"/>
     <use style="fill:#1f77b4;stroke:#1f77b4;stroke-width:1.5;" x="189.162759" xlink:href="#m8824353642" y="172.07156"/>
     <use style="fill:#1f77b4;stroke:#1f77b4;stroke-width:1.5;" x="107.868163" xlink:href="#m8824353642" y="168.532484"/>
     <use style="fill:#1f77b4;stroke:#1f77b4;stroke-width:1.5;" x="118.731477" xlink:href="#m8824353642" y="123.212807"/>
     <use style="fill:#1f77b4;stroke:#1f77b4;stroke-width:1.5;" x="128.439447" xlink:href="#m8824353642" y="108.884425"/>
     <use style="fill:#1f77b4;stroke:#1f77b4;stroke-width:1.5;" x="214.369148" xlink:href="#m8824353642" y="109.176958"/>
     <use style="fill:#1f77b4;stroke:#1f77b4;stroke-width:1.5;" x="166.788934" xlink:href="#m8824353642" y="171.996993"/>
     <use style="fill:#1f77b4;stroke:#1f77b4;stroke-width:1.5;" x="182.067614" xlink:href="#m8824353642" y="204.089588"/>
     <use style="fill:#1f77b4;stroke:#1f77b4;stroke-width:1.5;" x="145.352431" xlink:href="#m8824353642" y="166.261051"/>
     <use style="fill:#1f77b4;stroke:#1f77b4;stroke-width:1.5;" x="188.934437" xlink:href="#m8824353642" y="183.468877"/>
     <use style="fill:#1f77b4;stroke:#1f77b4;stroke-width:1.5;" x="186.359378" xlink:href="#m8824353642" y="189.204819"/>
     <use style="fill:#1f77b4;stroke:#1f77b4;stroke-width:1.5;" x="219.974191" xlink:href="#m8824353642" y="183.468877"/>
     <use style="fill:#1f77b4;stroke:#1f77b4;stroke-width:1.5;" x="208.02592" xlink:href="#m8824353642" y="186.308168"/>
     <use style="fill:#1f77b4;stroke:#1f77b4;stroke-width:1.5;" x="185.501026" xlink:href="#m8824353642" y="240.725049"/>
     <use style="fill:#1f77b4;stroke:#1f77b4;stroke-width:1.5;" x="212.887631" xlink:href="#m8824353642" y="177.709991"/>
     <use style="fill:#1f77b4;stroke:#1f77b4;stroke-width:1.5;" x="123.699623" xlink:href="#m8824353642" y="143.317284"/>
     <use style="fill:#1f77b4;stroke:#1f77b4;stroke-width:1.5;" x="201.279267" xlink:href="#m8824353642" y="143.862198"/>
     <use style="fill:#1f77b4;stroke:#1f77b4;stroke-width:1.5;" x="138.059865" xlink:href="#m8824353642" y="154.77196"/>
     <use style="fill:#1f77b4;stroke:#1f77b4;stroke-width:1.5;" x="140.866679" xlink:href="#m8824353642" y="194.912081"/>
     <use style="fill:#1f77b4;stroke:#1f77b4;stroke-width:1.5;" x="159.192512" xlink:href="#m8824353642" y="180.572226"/>
     <use style="fill:#1f77b4;stroke:#1f77b4;stroke-width:1.5;" x="187.243482" xlink:href="#m8824353642" y="160.525109"/>
     <use style="fill:#1f77b4;stroke:#1f77b4;stroke-width:1.5;" x="166.474777" xlink:href="#m8824353642" y="166.40445"/>
     <use style="fill:#1f77b4;stroke:#1f77b4;stroke-width:1.5;" x="192.367848" xlink:href="#m8824353642" y="155.936356"/>
     <use style="fill:#1f77b4;stroke:#1f77b4;stroke-width:1.5;" x="147.733502" xlink:href="#m8824353642" y="177.709991"/>
     <use style="fill:#1f77b4;stroke:#1f77b4;stroke-width:1.5;" x="211.25161" xlink:href="#m8824353642" y="183.726994"/>
     <use style="fill:#1f77b4;stroke:#1f77b4;stroke-width:1.5;" x="161.467147" xlink:href="#m8824353642" y="143.317284"/>
     <use style="fill:#1f77b4;stroke:#1f77b4;stroke-width:1.5;" x="161.467147" xlink:href="#m8824353642" y="166.232371"/>
     <use style="fill:#1f77b4;stroke:#1f77b4;stroke-width:1.5;" x="185.501026" xlink:href="#m8824353642" y="240.725049"/>
     <use style="fill:#1f77b4;stroke:#1f77b4;stroke-width:1.5;" x="126.487553" xlink:href="#m8824353642" y="126.293008"/>
     <use style="fill:#1f77b4;stroke:#1f77b4;stroke-width:1.5;" x="161.216508" xlink:href="#m8824353642" y="154.789167"/>
     <use style="fill:#1f77b4;stroke:#1f77b4;stroke-width:1.5;" x="110.498156" xlink:href="#m8824353642" y="120.356308"/>
     <use style="fill:#1f77b4;stroke:#1f77b4;stroke-width:1.5;" x="116.242253" xlink:href="#m8824353642" y="131.828192"/>
     <use style="fill:#1f77b4;stroke:#1f77b4;stroke-width:1.5;" x="134.703706" xlink:href="#m8824353642" y="137.604286"/>
     <use style="fill:#1f77b4;stroke:#1f77b4;stroke-width:1.5;" x="95.085573" xlink:href="#m8824353642" y="80.221923"/>
     <use style="fill:#1f77b4;stroke:#1f77b4;stroke-width:1.5;" x="81.502998" xlink:href="#m8824353642" y="131.81672"/>
     <use style="fill:#1f77b4;stroke:#1f77b4;stroke-width:1.5;" x="98.407399" xlink:href="#m8824353642" y="123.499604"/>
     <use style="fill:#1f77b4;stroke:#1f77b4;stroke-width:1.5;" x="152.883619" xlink:href="#m8824353642" y="137.558398"/>
     <use style="fill:#1f77b4;stroke:#1f77b4;stroke-width:1.5;" x="189.978194" xlink:href="#m8824353642" y="183.468877"/>
     <use style="fill:#1f77b4;stroke:#1f77b4;stroke-width:1.5;" x="142.583385" xlink:href="#m8824353642" y="109.079447"/>
     <use style="fill:#1f77b4;stroke:#1f77b4;stroke-width:1.5;" x="113.399389" xlink:href="#m8824353642" y="143.374643"/>
     <use style="fill:#1f77b4;stroke:#1f77b4;stroke-width:1.5;" x="153.915359" xlink:href="#m8824353642" y="154.766224"/>
     <use style="fill:#1f77b4;stroke:#1f77b4;stroke-width:1.5;" x="113.399389" xlink:href="#m8824353642" y="143.374643"/>
     <use style="fill:#1f77b4;stroke:#1f77b4;stroke-width:1.5;" x="191.044268" xlink:href="#m8824353642" y="160.611148"/>
     <use style="fill:#1f77b4;stroke:#1f77b4;stroke-width:1.5;" x="146.016796" xlink:href="#m8824353642" y="95.984291"/>
     <use style="fill:#1f77b4;stroke:#1f77b4;stroke-width:1.5;" x="153.414081" xlink:href="#m8824353642" y="173.172861"/>
     <use style="fill:#1f77b4;stroke:#1f77b4;stroke-width:1.5;" x="98.932711" xlink:href="#m8824353642" y="126.252857"/>
     <use style="fill:#1f77b4;stroke:#1f77b4;stroke-width:1.5;" x="99.961017" xlink:href="#m8824353642" y="104.04329"/>
     <use style="fill:#1f77b4;stroke:#1f77b4;stroke-width:1.5;" x="98.094958" xlink:href="#m8824353642" y="144.722589"/>
     <use style="fill:#1f77b4;stroke:#1f77b4;stroke-width:1.5;" x="167.690205" xlink:href="#m8824353642" y="172.025673"/>
     <use style="fill:#1f77b4;stroke:#1f77b4;stroke-width:1.5;" x="92.798921" xlink:href="#m8824353642" y="109.446547"/>
     <use style="fill:#1f77b4;stroke:#1f77b4;stroke-width:1.5;" x="139.149973" xlink:href="#m8824353642" y="183.440197"/>
     <use style="fill:#1f77b4;stroke:#1f77b4;stroke-width:1.5;" x="204.384788" xlink:href="#m8824353642" y="157.657138"/>
     <use style="fill:#1f77b4;stroke:#1f77b4;stroke-width:1.5;" x="158.033735" xlink:href="#m8824353642" y="146.156575"/>
     <use style="fill:#1f77b4;stroke:#1f77b4;stroke-width:1.5;" x="85.932099" xlink:href="#m8824353642" y="137.839459"/>
     <use style="fill:#1f77b4;stroke:#1f77b4;stroke-width:1.5;" x="140.866679" xlink:href="#m8824353642" y="83.061214"/>
     <use style="fill:#1f77b4;stroke:#1f77b4;stroke-width:1.5;" x="90.663339" xlink:href="#m8824353642" y="143.29434"/>
     <use style="fill:#1f77b4;stroke:#1f77b4;stroke-width:1.5;" x="100.83482" xlink:href="#m8824353642" y="99.139059"/>
     <use style="fill:#1f77b4;stroke:#1f77b4;stroke-width:1.5;" x="77.348571" xlink:href="#m8824353642" y="80.210451"/>
     <use style="fill:#1f77b4;stroke:#1f77b4;stroke-width:1.5;" x="115.116095" xlink:href="#m8824353642" y="97.584619"/>
     <use style="fill:#1f77b4;stroke:#1f77b4;stroke-width:1.5;" x="72.198454" xlink:href="#m8824353642" y="103.25173"/>
     <use style="fill:#1f77b4;stroke:#1f77b4;stroke-width:1.5;" x="179.08398" xlink:href="#m8824353642" y="147.085797"/>
     <use style="fill:#1f77b4;stroke:#1f77b4;stroke-width:1.5;" x="110.51704" xlink:href="#m8824353642" y="129.969747"/>
     <use style="fill:#1f77b4;stroke:#1f77b4;stroke-width:1.5;" x="188.525861" xlink:href="#m8824353642" y="154.812111"/>
     <use style="fill:#1f77b4;stroke:#1f77b4;stroke-width:1.5;" x="164.85249" xlink:href="#m8824353642" y="157.634195"/>
     <use style="fill:#1f77b4;stroke:#1f77b4;stroke-width:1.5;" x="120.570068" xlink:href="#m8824353642" y="133.113043"/>
     <use style="fill:#1f77b4;stroke:#1f77b4;stroke-width:1.5;" x="101.887161" xlink:href="#m8824353642" y="127.227967"/>
     <use style="fill:#1f77b4;stroke:#1f77b4;stroke-width:1.5;" x="123.246412" xlink:href="#m8824353642" y="108.958992"/>
     <use style="fill:#1f77b4;stroke:#1f77b4;stroke-width:1.5;" x="156.138492" xlink:href="#m8824353642" y="122.644949"/>
     <use style="fill:#1f77b4;stroke:#1f77b4;stroke-width:1.5;" x="151.651024" xlink:href="#m8824353642" y="133.135987"/>
     <use style="fill:#1f77b4;stroke:#1f77b4;stroke-width:1.5;" x="127.696113" xlink:href="#m8824353642" y="126.080778"/>
     <use style="fill:#1f77b4;stroke:#1f77b4;stroke-width:1.5;" x="113.152183" xlink:href="#m8824353642" y="131.828192"/>
     <use style="fill:#1f77b4;stroke:#1f77b4;stroke-width:1.5;" x="100.058869" xlink:href="#m8824353642" y="126.09225"/>
     <use style="fill:#1f77b4;stroke:#1f77b4;stroke-width:1.5;" x="93.015226" xlink:href="#m8824353642" y="103.148483"/>
     <use style="fill:#1f77b4;stroke:#1f77b4;stroke-width:1.5;" x="106.532566" xlink:href="#m8824353642" y="126.654372"/>
     <use style="fill:#1f77b4;stroke:#1f77b4;stroke-width:1.5;" x="190.651142" xlink:href="#m8824353642" y="146.156575"/>
     <use style="fill:#1f77b4;stroke:#1f77b4;stroke-width:1.5;" x="79.065276" xlink:href="#m8824353642" y="138.131992"/>
     <use style="fill:#1f77b4;stroke:#1f77b4;stroke-width:1.5;" x="135.716562" xlink:href="#m8824353642" y="128.948749"/>
     <use style="fill:#1f77b4;stroke:#1f77b4;stroke-width:1.5;" x="95.949076" xlink:href="#m8824353642" y="93.793161"/>
     <use style="fill:#1f77b4;stroke:#1f77b4;stroke-width:1.5;" x="115.189913" xlink:href="#m8824353642" y="103.343505"/>
     <use style="fill:#1f77b4;stroke:#1f77b4;stroke-width:1.5;" x="73.915159" xlink:href="#m8824353642" y="74.468773"/>
     <use style="fill:#1f77b4;stroke:#1f77b4;stroke-width:1.5;" x="95.5302" xlink:href="#m8824353642" y="108.872953"/>
     <use style="fill:#1f77b4;stroke:#1f77b4;stroke-width:1.5;" x="92.28906" xlink:href="#m8824353642" y="45.834951"/>
     <use style="fill:#1f77b4;stroke:#1f77b4;stroke-width:1.5;" x="98.75074" xlink:href="#m8824353642" y="78.736314"/>
     <use style="fill:#1f77b4;stroke:#1f77b4;stroke-width:1.5;" x="170.050675" xlink:href="#m8824353642" y="161.070024"/>
     <use style="fill:#1f77b4;stroke:#1f77b4;stroke-width:1.5;" x="128.202542" xlink:href="#m8824353642" y="126.09225"/>
     <use style="fill:#1f77b4;stroke:#1f77b4;stroke-width:1.5;" x="125.890139" xlink:href="#m8824353642" y="126.09225"/>
     <use style="fill:#1f77b4;stroke:#1f77b4;stroke-width:1.5;" x="74.979517" xlink:href="#m8824353642" y="114.620366"/>
     <use style="fill:#1f77b4;stroke:#1f77b4;stroke-width:1.5;" x="96.639192" xlink:href="#m8824353642" y="126.09225"/>
     <use style="fill:#1f77b4;stroke:#1f77b4;stroke-width:1.5;" x="118.482554" xlink:href="#m8824353642" y="120.356308"/>
     <use style="fill:#1f77b4;stroke:#1f77b4;stroke-width:1.5;" x="90.579221" xlink:href="#m8824353642" y="52.155959"/>
     <use style="fill:#1f77b4;stroke:#1f77b4;stroke-width:1.5;" x="100.288908" xlink:href="#m8824353642" y="80.818461"/>
     <use style="fill:#1f77b4;stroke:#1f77b4;stroke-width:1.5;" x="104.718009" xlink:href="#m8824353642" y="116.346885"/>
     <use style="fill:#1f77b4;stroke:#1f77b4;stroke-width:1.5;" x="182.067614" xlink:href="#m8824353642" y="189.176139"/>
     <use style="fill:#1f77b4;stroke:#1f77b4;stroke-width:1.5;" x="182.067614" xlink:href="#m8824353642" y="177.704255"/>
     <use style="fill:#1f77b4;stroke:#1f77b4;stroke-width:1.5;" x="100.472595" xlink:href="#m8824353642" y="74.589228"/>
     <use style="fill:#1f77b4;stroke:#1f77b4;stroke-width:1.5;" x="73.915159" xlink:href="#m8824353642" y="131.822456"/>
     <use style="fill:#1f77b4;stroke:#1f77b4;stroke-width:1.5;" x="91.082216" xlink:href="#m8824353642" y="68.778719"/>
     <use style="fill:#1f77b4;stroke:#1f77b4;stroke-width:1.5;" x="135.716562" xlink:href="#m8824353642" y="240.707841"/>
     <use style="fill:#1f77b4;stroke:#1f77b4;stroke-width:1.5;" x="115.116095" xlink:href="#m8824353642" y="240.707841"/>
    </g>
   </g>
   <g id="matplotlib.axis_1">
    <g id="xtick_1">
     <g id="line2d_1">
      <defs>
       <path d="M 0 0 
L 0 3.5 
" id="m65fa7e0f5c" style="stroke:#000000;stroke-width:0.8;"/>
      </defs>
      <g>
       <use style="stroke:#000000;stroke-width:0.8;" x="72.198454" xlink:href="#m65fa7e0f5c" y="252"/>
      </g>
     </g>
     <g id="text_1">
      <!-- 0.0 -->
      <defs>
       <path d="M 31.78125 66.40625 
Q 24.171875 66.40625 20.328125 58.90625 
Q 16.5 51.421875 16.5 36.375 
Q 16.5 21.390625 20.328125 13.890625 
Q 24.171875 6.390625 31.78125 6.390625 
Q 39.453125 6.390625 43.28125 13.890625 
Q 47.125 21.390625 47.125 36.375 
Q 47.125 51.421875 43.28125 58.90625 
Q 39.453125 66.40625 31.78125 66.40625 
z
M 31.78125 74.21875 
Q 44.046875 74.21875 50.515625 64.515625 
Q 56.984375 54.828125 56.984375 36.375 
Q 56.984375 17.96875 50.515625 8.265625 
Q 44.046875 -1.421875 31.78125 -1.421875 
Q 19.53125 -1.421875 13.0625 8.265625 
Q 6.59375 17.96875 6.59375 36.375 
Q 6.59375 54.828125 13.0625 64.515625 
Q 19.53125 74.21875 31.78125 74.21875 
z
" id="DejaVuSans-30"/>
       <path d="M 10.6875 12.40625 
L 21 12.40625 
L 21 0 
L 10.6875 0 
z
" id="DejaVuSans-2e"/>
      </defs>
      <g transform="translate(64.246891 266.598437)scale(0.1 -0.1)">
       <use xlink:href="#DejaVuSans-30"/>
       <use x="63.623047" xlink:href="#DejaVuSans-2e"/>
       <use x="95.410156" xlink:href="#DejaVuSans-30"/>
      </g>
     </g>
    </g>
    <g id="xtick_2">
     <g id="line2d_2">
      <g>
       <use style="stroke:#000000;stroke-width:0.8;" x="131.93981" xlink:href="#m65fa7e0f5c" y="252"/>
      </g>
     </g>
     <g id="text_2">
      <!-- 0.2 -->
      <defs>
       <path d="M 19.1875 8.296875 
L 53.609375 8.296875 
L 53.609375 0 
L 7.328125 0 
L 7.328125 8.296875 
Q 12.9375 14.109375 22.625 23.890625 
Q 32.328125 33.6875 34.8125 36.53125 
Q 39.546875 41.84375 41.421875 45.53125 
Q 43.3125 49.21875 43.3125 52.78125 
Q 43.3125 58.59375 39.234375 62.25 
Q 35.15625 65.921875 28.609375 65.921875 
Q 23.96875 65.921875 18.8125 64.3125 
Q 13.671875 62.703125 7.8125 59.421875 
L 7.8125 69.390625 
Q 13.765625 71.78125 18.9375 73 
Q 24.125 74.21875 28.421875 74.21875 
Q 39.75 74.21875 46.484375 68.546875 
Q 53.21875 62.890625 53.21875 53.421875 
Q 53.21875 48.921875 51.53125 44.890625 
Q 49.859375 40.875 45.40625 35.40625 
Q 44.1875 33.984375 37.640625 27.21875 
Q 31.109375 20.453125 19.1875 8.296875 
z
" id="DejaVuSans-32"/>
      </defs>
      <g transform="translate(123.988247 266.598437)scale(0.1 -0.1)">
       <use xlink:href="#DejaVuSans-30"/>
       <use x="63.623047" xlink:href="#DejaVuSans-2e"/>
       <use x="95.410156" xlink:href="#DejaVuSans-32"/>
      </g>
     </g>
    </g>
    <g id="xtick_3">
     <g id="line2d_3">
      <g>
       <use style="stroke:#000000;stroke-width:0.8;" x="191.681166" xlink:href="#m65fa7e0f5c" y="252"/>
      </g>
     </g>
     <g id="text_3">
      <!-- 0.4 -->
      <defs>
       <path d="M 37.796875 64.3125 
L 12.890625 25.390625 
L 37.796875 25.390625 
z
M 35.203125 72.90625 
L 47.609375 72.90625 
L 47.609375 25.390625 
L 58.015625 25.390625 
L 58.015625 17.1875 
L 47.609375 17.1875 
L 47.609375 0 
L 37.796875 0 
L 37.796875 17.1875 
L 4.890625 17.1875 
L 4.890625 26.703125 
z
" id="DejaVuSans-34"/>
      </defs>
      <g transform="translate(183.729603 266.598437)scale(0.1 -0.1)">
       <use xlink:href="#DejaVuSans-30"/>
       <use x="63.623047" xlink:href="#DejaVuSans-2e"/>
       <use x="95.410156" xlink:href="#DejaVuSans-34"/>
      </g>
     </g>
    </g>
    <g id="xtick_4">
     <g id="line2d_4">
      <g>
       <use style="stroke:#000000;stroke-width:0.8;" x="251.422522" xlink:href="#m65fa7e0f5c" y="252"/>
      </g>
     </g>
     <g id="text_4">
      <!-- 0.6 -->
      <defs>
       <path d="M 33.015625 40.375 
Q 26.375 40.375 22.484375 35.828125 
Q 18.609375 31.296875 18.609375 23.390625 
Q 18.609375 15.53125 22.484375 10.953125 
Q 26.375 6.390625 33.015625 6.390625 
Q 39.65625 6.390625 43.53125 10.953125 
Q 47.40625 15.53125 47.40625 23.390625 
Q 47.40625 31.296875 43.53125 35.828125 
Q 39.65625 40.375 33.015625 40.375 
z
M 52.59375 71.296875 
L 52.59375 62.3125 
Q 48.875 64.0625 45.09375 64.984375 
Q 41.3125 65.921875 37.59375 65.921875 
Q 27.828125 65.921875 22.671875 59.328125 
Q 17.53125 52.734375 16.796875 39.40625 
Q 19.671875 43.65625 24.015625 45.921875 
Q 28.375 48.1875 33.59375 48.1875 
Q 44.578125 48.1875 50.953125 41.515625 
Q 57.328125 34.859375 57.328125 23.390625 
Q 57.328125 12.15625 50.6875 5.359375 
Q 44.046875 -1.421875 33.015625 -1.421875 
Q 20.359375 -1.421875 13.671875 8.265625 
Q 6.984375 17.96875 6.984375 36.375 
Q 6.984375 53.65625 15.1875 63.9375 
Q 23.390625 74.21875 37.203125 74.21875 
Q 40.921875 74.21875 44.703125 73.484375 
Q 48.484375 72.75 52.59375 71.296875 
z
" id="DejaVuSans-36"/>
      </defs>
      <g transform="translate(243.470959 266.598437)scale(0.1 -0.1)">
       <use xlink:href="#DejaVuSans-30"/>
       <use x="63.623047" xlink:href="#DejaVuSans-2e"/>
       <use x="95.410156" xlink:href="#DejaVuSans-36"/>
      </g>
     </g>
    </g>
    <g id="xtick_5">
     <g id="line2d_5">
      <g>
       <use style="stroke:#000000;stroke-width:0.8;" x="311.163878" xlink:href="#m65fa7e0f5c" y="252"/>
      </g>
     </g>
     <g id="text_5">
      <!-- 0.8 -->
      <defs>
       <path d="M 31.78125 34.625 
Q 24.75 34.625 20.71875 30.859375 
Q 16.703125 27.09375 16.703125 20.515625 
Q 16.703125 13.921875 20.71875 10.15625 
Q 24.75 6.390625 31.78125 6.390625 
Q 38.8125 6.390625 42.859375 10.171875 
Q 46.921875 13.96875 46.921875 20.515625 
Q 46.921875 27.09375 42.890625 30.859375 
Q 38.875 34.625 31.78125 34.625 
z
M 21.921875 38.8125 
Q 15.578125 40.375 12.03125 44.71875 
Q 8.5 49.078125 8.5 55.328125 
Q 8.5 64.0625 14.71875 69.140625 
Q 20.953125 74.21875 31.78125 74.21875 
Q 42.671875 74.21875 48.875 69.140625 
Q 55.078125 64.0625 55.078125 55.328125 
Q 55.078125 49.078125 51.53125 44.71875 
Q 48 40.375 41.703125 38.8125 
Q 48.828125 37.15625 52.796875 32.3125 
Q 56.78125 27.484375 56.78125 20.515625 
Q 56.78125 9.90625 50.3125 4.234375 
Q 43.84375 -1.421875 31.78125 -1.421875 
Q 19.734375 -1.421875 13.25 4.234375 
Q 6.78125 9.90625 6.78125 20.515625 
Q 6.78125 27.484375 10.78125 32.3125 
Q 14.796875 37.15625 21.921875 38.8125 
z
M 18.3125 54.390625 
Q 18.3125 48.734375 21.84375 45.5625 
Q 25.390625 42.390625 31.78125 42.390625 
Q 38.140625 42.390625 41.71875 45.5625 
Q 45.3125 48.734375 45.3125 54.390625 
Q 45.3125 60.0625 41.71875 63.234375 
Q 38.140625 66.40625 31.78125 66.40625 
Q 25.390625 66.40625 21.84375 63.234375 
Q 18.3125 60.0625 18.3125 54.390625 
z
" id="DejaVuSans-38"/>
      </defs>
      <g transform="translate(303.212316 266.598437)scale(0.1 -0.1)">
       <use xlink:href="#DejaVuSans-30"/>
       <use x="63.623047" xlink:href="#DejaVuSans-2e"/>
       <use x="95.410156" xlink:href="#DejaVuSans-38"/>
      </g>
     </g>
    </g>
    <g id="xtick_6">
     <g id="line2d_6">
      <g>
       <use style="stroke:#000000;stroke-width:0.8;" x="370.905234" xlink:href="#m65fa7e0f5c" y="252"/>
      </g>
     </g>
     <g id="text_6">
      <!-- 1.0 -->
      <defs>
       <path d="M 12.40625 8.296875 
L 28.515625 8.296875 
L 28.515625 63.921875 
L 10.984375 60.40625 
L 10.984375 69.390625 
L 28.421875 72.90625 
L 38.28125 72.90625 
L 38.28125 8.296875 
L 54.390625 8.296875 
L 54.390625 0 
L 12.40625 0 
z
" id="DejaVuSans-31"/>
      </defs>
      <g transform="translate(362.953672 266.598437)scale(0.1 -0.1)">
       <use xlink:href="#DejaVuSans-31"/>
       <use x="63.623047" xlink:href="#DejaVuSans-2e"/>
       <use x="95.410156" xlink:href="#DejaVuSans-30"/>
      </g>
     </g>
    </g>
    <g id="text_7">
     <!-- Odometer (mi) -->
     <defs>
      <path d="M 39.40625 66.21875 
Q 28.65625 66.21875 22.328125 58.203125 
Q 16.015625 50.203125 16.015625 36.375 
Q 16.015625 22.609375 22.328125 14.59375 
Q 28.65625 6.59375 39.40625 6.59375 
Q 50.140625 6.59375 56.421875 14.59375 
Q 62.703125 22.609375 62.703125 36.375 
Q 62.703125 50.203125 56.421875 58.203125 
Q 50.140625 66.21875 39.40625 66.21875 
z
M 39.40625 74.21875 
Q 54.734375 74.21875 63.90625 63.9375 
Q 73.09375 53.65625 73.09375 36.375 
Q 73.09375 19.140625 63.90625 8.859375 
Q 54.734375 -1.421875 39.40625 -1.421875 
Q 24.03125 -1.421875 14.8125 8.828125 
Q 5.609375 19.09375 5.609375 36.375 
Q 5.609375 53.65625 14.8125 63.9375 
Q 24.03125 74.21875 39.40625 74.21875 
z
" id="DejaVuSans-4f"/>
      <path d="M 45.40625 46.390625 
L 45.40625 75.984375 
L 54.390625 75.984375 
L 54.390625 0 
L 45.40625 0 
L 45.40625 8.203125 
Q 42.578125 3.328125 38.25 0.953125 
Q 33.9375 -1.421875 27.875 -1.421875 
Q 17.96875 -1.421875 11.734375 6.484375 
Q 5.515625 14.40625 5.515625 27.296875 
Q 5.515625 40.1875 11.734375 48.09375 
Q 17.96875 56 27.875 56 
Q 33.9375 56 38.25 53.625 
Q 42.578125 51.265625 45.40625 46.390625 
z
M 14.796875 27.296875 
Q 14.796875 17.390625 18.875 11.75 
Q 22.953125 6.109375 30.078125 6.109375 
Q 37.203125 6.109375 41.296875 11.75 
Q 45.40625 17.390625 45.40625 27.296875 
Q 45.40625 37.203125 41.296875 42.84375 
Q 37.203125 48.484375 30.078125 48.484375 
Q 22.953125 48.484375 18.875 42.84375 
Q 14.796875 37.203125 14.796875 27.296875 
z
" id="DejaVuSans-64"/>
      <path d="M 30.609375 48.390625 
Q 23.390625 48.390625 19.1875 42.75 
Q 14.984375 37.109375 14.984375 27.296875 
Q 14.984375 17.484375 19.15625 11.84375 
Q 23.34375 6.203125 30.609375 6.203125 
Q 37.796875 6.203125 41.984375 11.859375 
Q 46.1875 17.53125 46.1875 27.296875 
Q 46.1875 37.015625 41.984375 42.703125 
Q 37.796875 48.390625 30.609375 48.390625 
z
M 30.609375 56 
Q 42.328125 56 49.015625 48.375 
Q 55.71875 40.765625 55.71875 27.296875 
Q 55.71875 13.875 49.015625 6.21875 
Q 42.328125 -1.421875 30.609375 -1.421875 
Q 18.84375 -1.421875 12.171875 6.21875 
Q 5.515625 13.875 5.515625 27.296875 
Q 5.515625 40.765625 12.171875 48.375 
Q 18.84375 56 30.609375 56 
z
" id="DejaVuSans-6f"/>
      <path d="M 52 44.1875 
Q 55.375 50.25 60.0625 53.125 
Q 64.75 56 71.09375 56 
Q 79.640625 56 84.28125 50.015625 
Q 88.921875 44.046875 88.921875 33.015625 
L 88.921875 0 
L 79.890625 0 
L 79.890625 32.71875 
Q 79.890625 40.578125 77.09375 44.375 
Q 74.3125 48.1875 68.609375 48.1875 
Q 61.625 48.1875 57.5625 43.546875 
Q 53.515625 38.921875 53.515625 30.90625 
L 53.515625 0 
L 44.484375 0 
L 44.484375 32.71875 
Q 44.484375 40.625 41.703125 44.40625 
Q 38.921875 48.1875 33.109375 48.1875 
Q 26.21875 48.1875 22.15625 43.53125 
Q 18.109375 38.875 18.109375 30.90625 
L 18.109375 0 
L 9.078125 0 
L 9.078125 54.6875 
L 18.109375 54.6875 
L 18.109375 46.1875 
Q 21.1875 51.21875 25.484375 53.609375 
Q 29.78125 56 35.6875 56 
Q 41.65625 56 45.828125 52.96875 
Q 50 49.953125 52 44.1875 
z
" id="DejaVuSans-6d"/>
      <path d="M 56.203125 29.59375 
L 56.203125 25.203125 
L 14.890625 25.203125 
Q 15.484375 15.921875 20.484375 11.0625 
Q 25.484375 6.203125 34.421875 6.203125 
Q 39.59375 6.203125 44.453125 7.46875 
Q 49.3125 8.734375 54.109375 11.28125 
L 54.109375 2.78125 
Q 49.265625 0.734375 44.1875 -0.34375 
Q 39.109375 -1.421875 33.890625 -1.421875 
Q 20.796875 -1.421875 13.15625 6.1875 
Q 5.515625 13.8125 5.515625 26.8125 
Q 5.515625 40.234375 12.765625 48.109375 
Q 20.015625 56 32.328125 56 
Q 43.359375 56 49.78125 48.890625 
Q 56.203125 41.796875 56.203125 29.59375 
z
M 47.21875 32.234375 
Q 47.125 39.59375 43.09375 43.984375 
Q 39.0625 48.390625 32.421875 48.390625 
Q 24.90625 48.390625 20.390625 44.140625 
Q 15.875 39.890625 15.1875 32.171875 
z
" id="DejaVuSans-65"/>
      <path d="M 18.3125 70.21875 
L 18.3125 54.6875 
L 36.8125 54.6875 
L 36.8125 47.703125 
L 18.3125 47.703125 
L 18.3125 18.015625 
Q 18.3125 11.328125 20.140625 9.421875 
Q 21.96875 7.515625 27.59375 7.515625 
L 36.8125 7.515625 
L 36.8125 0 
L 27.59375 0 
Q 17.1875 0 13.234375 3.875 
Q 9.28125 7.765625 9.28125 18.015625 
L 9.28125 47.703125 
L 2.6875 47.703125 
L 2.6875 54.6875 
L 9.28125 54.6875 
L 9.28125 70.21875 
z
" id="DejaVuSans-74"/>
      <path d="M 41.109375 46.296875 
Q 39.59375 47.171875 37.8125 47.578125 
Q 36.03125 48 33.890625 48 
Q 26.265625 48 22.1875 43.046875 
Q 18.109375 38.09375 18.109375 28.8125 
L 18.109375 0 
L 9.078125 0 
L 9.078125 54.6875 
L 18.109375 54.6875 
L 18.109375 46.1875 
Q 20.953125 51.171875 25.484375 53.578125 
Q 30.03125 56 36.53125 56 
Q 37.453125 56 38.578125 55.875 
Q 39.703125 55.765625 41.0625 55.515625 
z
" id="DejaVuSans-72"/>
      <path id="DejaVuSans-20"/>
      <path d="M 31 75.875 
Q 24.46875 64.65625 21.28125 53.65625 
Q 18.109375 42.671875 18.109375 31.390625 
Q 18.109375 20.125 21.3125 9.0625 
Q 24.515625 -2 31 -13.1875 
L 23.1875 -13.1875 
Q 15.875 -1.703125 12.234375 9.375 
Q 8.59375 20.453125 8.59375 31.390625 
Q 8.59375 42.28125 12.203125 53.3125 
Q 15.828125 64.359375 23.1875 75.875 
z
" id="DejaVuSans-28"/>
      <path d="M 9.421875 54.6875 
L 18.40625 54.6875 
L 18.40625 0 
L 9.421875 0 
z
M 9.421875 75.984375 
L 18.40625 75.984375 
L 18.40625 64.59375 
L 9.421875 64.59375 
z
" id="DejaVuSans-69"/>
      <path d="M 8.015625 75.875 
L 15.828125 75.875 
Q 23.140625 64.359375 26.78125 53.3125 
Q 30.421875 42.28125 30.421875 31.390625 
Q 30.421875 20.453125 26.78125 9.375 
Q 23.140625 -1.703125 15.828125 -13.1875 
L 8.015625 -13.1875 
Q 14.5 -2 17.703125 9.0625 
Q 20.90625 20.125 20.90625 31.390625 
Q 20.90625 42.671875 17.703125 53.65625 
Q 14.5 64.65625 8.015625 75.875 
z
" id="DejaVuSans-29"/>
     </defs>
     <g transform="translate(162.26625 284.835625)scale(0.16 -0.16)">
      <use xlink:href="#DejaVuSans-4f"/>
      <use x="78.710938" xlink:href="#DejaVuSans-64"/>
      <use x="142.1875" xlink:href="#DejaVuSans-6f"/>
      <use x="203.369141" xlink:href="#DejaVuSans-6d"/>
      <use x="300.78125" xlink:href="#DejaVuSans-65"/>
      <use x="362.304688" xlink:href="#DejaVuSans-74"/>
      <use x="401.513672" xlink:href="#DejaVuSans-65"/>
      <use x="463.037109" xlink:href="#DejaVuSans-72"/>
      <use x="504.150391" xlink:href="#DejaVuSans-20"/>
      <use x="535.9375" xlink:href="#DejaVuSans-28"/>
      <use x="574.951172" xlink:href="#DejaVuSans-6d"/>
      <use x="672.363281" xlink:href="#DejaVuSans-69"/>
      <use x="700.146484" xlink:href="#DejaVuSans-29"/>
     </g>
    </g>
   </g>
   <g id="matplotlib.axis_2">
    <g id="ytick_1">
     <g id="line2d_7">
      <defs>
       <path d="M 0 0 
L -3.5 0 
" id="mdee18b536e" style="stroke:#000000;stroke-width:0.8;"/>
      </defs>
      <g>
       <use style="stroke:#000000;stroke-width:0.8;" x="54" xlink:href="#mdee18b536e" y="240.725049"/>
      </g>
     </g>
     <g id="text_8">
      <!-- 0.0 -->
      <g transform="translate(31.096875 244.524267)scale(0.1 -0.1)">
       <use xlink:href="#DejaVuSans-30"/>
       <use x="63.623047" xlink:href="#DejaVuSans-2e"/>
       <use x="95.410156" xlink:href="#DejaVuSans-30"/>
      </g>
     </g>
    </g>
    <g id="ytick_2">
     <g id="line2d_8">
      <g>
       <use style="stroke:#000000;stroke-width:0.8;" x="54" xlink:href="#mdee18b536e" y="201.747029"/>
      </g>
     </g>
     <g id="text_9">
      <!-- 0.2 -->
      <g transform="translate(31.096875 205.546248)scale(0.1 -0.1)">
       <use xlink:href="#DejaVuSans-30"/>
       <use x="63.623047" xlink:href="#DejaVuSans-2e"/>
       <use x="95.410156" xlink:href="#DejaVuSans-32"/>
      </g>
     </g>
    </g>
    <g id="ytick_3">
     <g id="line2d_9">
      <g>
       <use style="stroke:#000000;stroke-width:0.8;" x="54" xlink:href="#mdee18b536e" y="162.76901"/>
      </g>
     </g>
     <g id="text_10">
      <!-- 0.4 -->
      <g transform="translate(31.096875 166.568228)scale(0.1 -0.1)">
       <use xlink:href="#DejaVuSans-30"/>
       <use x="63.623047" xlink:href="#DejaVuSans-2e"/>
       <use x="95.410156" xlink:href="#DejaVuSans-34"/>
      </g>
     </g>
    </g>
    <g id="ytick_4">
     <g id="line2d_10">
      <g>
       <use style="stroke:#000000;stroke-width:0.8;" x="54" xlink:href="#mdee18b536e" y="123.79099"/>
      </g>
     </g>
     <g id="text_11">
      <!-- 0.6 -->
      <g transform="translate(31.096875 127.590209)scale(0.1 -0.1)">
       <use xlink:href="#DejaVuSans-30"/>
       <use x="63.623047" xlink:href="#DejaVuSans-2e"/>
       <use x="95.410156" xlink:href="#DejaVuSans-36"/>
      </g>
     </g>
    </g>
    <g id="ytick_5">
     <g id="line2d_11">
      <g>
       <use style="stroke:#000000;stroke-width:0.8;" x="54" xlink:href="#mdee18b536e" y="84.812971"/>
      </g>
     </g>
     <g id="text_12">
      <!-- 0.8 -->
      <g transform="translate(31.096875 88.61219)scale(0.1 -0.1)">
       <use xlink:href="#DejaVuSans-30"/>
       <use x="63.623047" xlink:href="#DejaVuSans-2e"/>
       <use x="95.410156" xlink:href="#DejaVuSans-38"/>
      </g>
     </g>
    </g>
    <g id="ytick_6">
     <g id="line2d_12">
      <g>
       <use style="stroke:#000000;stroke-width:0.8;" x="54" xlink:href="#mdee18b536e" y="45.834951"/>
      </g>
     </g>
     <g id="text_13">
      <!-- 1.0 -->
      <g transform="translate(31.096875 49.63417)scale(0.1 -0.1)">
       <use xlink:href="#DejaVuSans-31"/>
       <use x="63.623047" xlink:href="#DejaVuSans-2e"/>
       <use x="95.410156" xlink:href="#DejaVuSans-30"/>
      </g>
     </g>
    </g>
    <g id="text_14">
     <!-- Price ($) -->
     <defs>
      <path d="M 19.671875 64.796875 
L 19.671875 37.40625 
L 32.078125 37.40625 
Q 38.96875 37.40625 42.71875 40.96875 
Q 46.484375 44.53125 46.484375 51.125 
Q 46.484375 57.671875 42.71875 61.234375 
Q 38.96875 64.796875 32.078125 64.796875 
z
M 9.8125 72.90625 
L 32.078125 72.90625 
Q 44.34375 72.90625 50.609375 67.359375 
Q 56.890625 61.8125 56.890625 51.125 
Q 56.890625 40.328125 50.609375 34.8125 
Q 44.34375 29.296875 32.078125 29.296875 
L 19.671875 29.296875 
L 19.671875 0 
L 9.8125 0 
z
" id="DejaVuSans-50"/>
      <path d="M 48.78125 52.59375 
L 48.78125 44.1875 
Q 44.96875 46.296875 41.140625 47.34375 
Q 37.3125 48.390625 33.40625 48.390625 
Q 24.65625 48.390625 19.8125 42.84375 
Q 14.984375 37.3125 14.984375 27.296875 
Q 14.984375 17.28125 19.8125 11.734375 
Q 24.65625 6.203125 33.40625 6.203125 
Q 37.3125 6.203125 41.140625 7.25 
Q 44.96875 8.296875 48.78125 10.40625 
L 48.78125 2.09375 
Q 45.015625 0.34375 40.984375 -0.53125 
Q 36.96875 -1.421875 32.421875 -1.421875 
Q 20.0625 -1.421875 12.78125 6.34375 
Q 5.515625 14.109375 5.515625 27.296875 
Q 5.515625 40.671875 12.859375 48.328125 
Q 20.21875 56 33.015625 56 
Q 37.15625 56 41.109375 55.140625 
Q 45.0625 54.296875 48.78125 52.59375 
z
" id="DejaVuSans-63"/>
      <path d="M 33.796875 -14.703125 
L 28.90625 -14.703125 
L 28.859375 0 
Q 23.734375 0.09375 18.609375 1.1875 
Q 13.484375 2.296875 8.296875 4.5 
L 8.296875 13.28125 
Q 13.28125 10.15625 18.375 8.5625 
Q 23.484375 6.984375 28.90625 6.9375 
L 28.90625 29.203125 
Q 18.109375 30.953125 13.203125 35.15625 
Q 8.296875 39.359375 8.296875 46.6875 
Q 8.296875 54.640625 13.625 59.21875 
Q 18.953125 63.8125 28.90625 64.5 
L 28.90625 75.984375 
L 33.796875 75.984375 
L 33.796875 64.65625 
Q 38.328125 64.453125 42.578125 63.6875 
Q 46.828125 62.9375 50.875 61.625 
L 50.875 53.078125 
Q 46.828125 55.125 42.546875 56.25 
Q 38.28125 57.375 33.796875 57.5625 
L 33.796875 36.71875 
Q 44.875 35.015625 50.09375 30.609375 
Q 55.328125 26.21875 55.328125 18.609375 
Q 55.328125 10.359375 49.78125 5.59375 
Q 44.234375 0.828125 33.796875 0.09375 
z
M 28.90625 37.59375 
L 28.90625 57.625 
Q 23.25 56.984375 20.265625 54.390625 
Q 17.28125 51.8125 17.28125 47.515625 
Q 17.28125 43.3125 20.03125 40.96875 
Q 22.796875 38.625 28.90625 37.59375 
z
M 33.796875 28.21875 
L 33.796875 7.078125 
Q 39.984375 7.90625 43.140625 10.59375 
Q 46.296875 13.28125 46.296875 17.671875 
Q 46.296875 21.96875 43.28125 24.5 
Q 40.28125 27.046875 33.796875 28.21875 
z
" id="DejaVuSans-24"/>
     </defs>
     <g transform="translate(23.769375 176.81)rotate(-90)scale(0.16 -0.16)">
      <use xlink:href="#DejaVuSans-50"/>
      <use x="60.287109" xlink:href="#DejaVuSans-72"/>
      <use x="101.400391" xlink:href="#DejaVuSans-69"/>
      <use x="129.183594" xlink:href="#DejaVuSans-63"/>
      <use x="184.164062" xlink:href="#DejaVuSans-65"/>
      <use x="245.6875" xlink:href="#DejaVuSans-20"/>
      <use x="277.474609" xlink:href="#DejaVuSans-28"/>
      <use x="316.488281" xlink:href="#DejaVuSans-24"/>
      <use x="380.111328" xlink:href="#DejaVuSans-29"/>
     </g>
    </g>
   </g>
   <g id="line2d_13">
    <path clip-path="url(#p82b2ae8814)" d="M 72.198454 131.586594 
L 370.905234 199.798128 
" style="fill:none;stroke:#000000;stroke-linecap:square;stroke-width:1.5;"/>
   </g>
   <g id="line2d_14">
    <path clip-path="url(#p82b2ae8814)" d="M 72.198454 145.227744 
L 370.905234 208.64432 
" style="fill:none;stroke:#000000;stroke-linecap:square;stroke-width:1.5;"/>
   </g>
   <g id="patch_3">
    <path d="M 54 252 
L 54 34.56 
" style="fill:none;stroke:#000000;stroke-linecap:square;stroke-linejoin:miter;stroke-width:0.8;"/>
   </g>
   <g id="patch_4">
    <path d="M 388.8 252 
L 388.8 34.56 
" style="fill:none;stroke:#000000;stroke-linecap:square;stroke-linejoin:miter;stroke-width:0.8;"/>
   </g>
   <g id="patch_5">
    <path d="M 54 252 
L 388.8 252 
" style="fill:none;stroke:#000000;stroke-linecap:square;stroke-linejoin:miter;stroke-width:0.8;"/>
   </g>
   <g id="patch_6">
    <path d="M 54 34.56 
L 388.8 34.56 
" style="fill:none;stroke:#000000;stroke-linecap:square;stroke-linejoin:miter;stroke-width:0.8;"/>
   </g>
  </g>
 </g>
 <defs>
  <clipPath id="p82b2ae8814">
   <rect height="217.44" width="334.8" x="54" y="34.56"/>
  </clipPath>
 </defs>
</svg>
