<?xml version="1.0" encoding="utf-8" standalone="no"?>
<!DOCTYPE svg PUBLIC "-//W3C//DTD SVG 1.1//EN"
  "http://www.w3.org/Graphics/SVG/1.1/DTD/svg11.dtd">
<!-- Created with matplotlib (http://matplotlib.org/) -->
<svg height="504pt" version="1.1" viewBox="0 0 504 504" width="504pt" xmlns="http://www.w3.org/2000/svg" xmlns:xlink="http://www.w3.org/1999/xlink">
 <defs>
  <style type="text/css">
*{stroke-linecap:butt;stroke-linejoin:round;}
  </style>
 </defs>
 <g id="figure_1">
  <g id="patch_1">
   <path d="M 0 504 
L 504 504 
L 504 0 
L 0 0 
z
" style="fill:#ffffff;"/>
  </g>
  <g id="axes_1">
   <g id="patch_2">
    <path d="M 63 441 
L 453.6 441 
L 453.6 60.48 
L 63 60.48 
z
" style="fill:#ffffff;"/>
   </g>
   <g id="Quiver_1">
    <path clip-path="url(#p075c9edc90)" d="M 81.27859 422.655547 
L 108.180006 436.106254 
L 108.180006 433.48603 
L 117.088769 441.870748 
L 105.035737 439.774569 
L 107.131916 438.202434 
L 80.230501 424.751726 
L 81.27859 422.655547 
" style="fill:#ff0000;"/>
    <path clip-path="url(#p075c9edc90)" d="M 120.644287 422.615647 
L 147.186609 433.232577 
L 146.969012 430.621403 
L 156.543315 438.237326 
L 144.357838 437.149337 
L 146.316218 435.408555 
L 119.773895 424.791625 
L 120.644287 422.615647 
" style="fill:#ff0000;"/>
    <path clip-path="url(#p075c9edc90)" d="M 160.000351 422.581256 
L 186.233147 430.451094 
L 185.784194 427.869618 
L 195.99786 434.603903 
L 183.763909 434.603903 
L 185.559718 432.695856 
L 159.326922 424.826017 
L 160.000351 422.581256 
" style="fill:#ff0000;"/>
    <path clip-path="url(#p075c9edc90)" d="M 199.347991 422.554592 
L 225.340815 427.753157 
L 224.651388 425.225259 
L 235.452406 430.970481 
L 223.272535 432.119526 
L 224.881197 430.051246 
L 198.888373 424.852681 
L 199.347991 422.554592 
" style="fill:#ff0000;"/>
    <path clip-path="url(#p075c9edc90)" d="M 238.689326 422.537652 
L 264.529688 425.121688 
L 263.596901 422.67312 
L 274.906951 427.337059 
L 262.89731 429.669028 
L 264.296491 427.453657 
L 238.456129 424.869621 
L 238.689326 422.537652 
" style="fill:#ff0000;"/>
    <path clip-path="url(#p075c9edc90)" d="M 278.027273 422.531836 
L 303.815296 422.531836 
L 302.643496 420.188236 
L 314.361496 423.703636 
L 302.643496 427.219036 
L 303.815296 424.875436 
L 278.027273 424.875436 
L 278.027273 422.531836 
" style="fill:#ff0000;"/>
    <path clip-path="url(#p075c9edc90)" d="M 317.36522 422.537652 
L 343.205582 419.953616 
L 341.806401 417.738245 
L 353.816042 420.070214 
L 342.505992 424.734152 
L 343.438779 422.285585 
L 317.598417 424.869621 
L 317.36522 422.537652 
" style="fill:#ff0000;"/>
    <path clip-path="url(#p075c9edc90)" d="M 356.706555 422.554592 
L 382.699379 417.356027 
L 381.090716 415.287747 
L 393.270587 416.436792 
L 382.46957 422.182014 
L 383.158996 419.654116 
L 357.166173 424.852681 
L 356.706555 422.554592 
" style="fill:#ff0000;"/>
    <path clip-path="url(#p075c9edc90)" d="M 396.054195 422.581256 
L 422.286991 414.711417 
L 420.491182 412.803369 
L 432.725133 412.803369 
L 422.511467 419.537654 
L 422.96042 416.956178 
L 396.727623 424.826017 
L 396.054195 422.581256 
" style="fill:#ff0000;"/>
    <path clip-path="url(#p075c9edc90)" d="M 435.410259 422.615647 
L 461.952582 411.998718 
L 459.994202 410.257936 
L 472.179678 409.169947 
L 462.605375 416.78587 
L 462.822973 414.174696 
L 436.28065 424.791625 
L 435.410259 422.615647 
" style="fill:#ff0000;"/>
    <path clip-path="url(#p075c9edc90)" d="M 81.375598 384.273588 
L 101.499818 396.851225 
L 101.748239 394.242804 
L 109.821924 403.434385 
L 98.021922 400.20491 
L 100.257712 398.838594 
L 80.133493 386.260957 
L 81.375598 384.273588 
" style="fill:#ff0000;"/>
    <path clip-path="url(#p075c9edc90)" d="M 120.733136 384.219183 
L 140.367707 394.036468 
L 140.367707 391.416244 
L 149.27647 399.800962 
L 137.223437 397.704783 
L 139.319617 396.132648 
L 119.685046 386.315363 
L 120.733136 384.219183 
" style="fill:#ff0000;"/>
    <path clip-path="url(#p075c9edc90)" d="M 160.075083 384.170082 
L 179.267747 391.367331 
L 178.993449 388.761504 
L 188.731015 396.16754 
L 176.524771 395.344647 
L 178.444854 393.561712 
L 159.25219 386.364463 
L 160.075083 384.170082 
" style="fill:#ff0000;"/>
    <path clip-path="url(#p075c9edc90)" d="M 199.402385 384.13046 
L 218.238447 388.839475 
L 217.670041 386.281646 
L 228.185561 392.534117 
L 215.964821 393.102524 
L 217.670041 391.113101 
L 198.833979 386.404086 
L 199.402385 384.13046 
" style="fill:#ff0000;"/>
    <path clip-path="url(#p075c9edc90)" d="M 238.718071 384.104522 
L 257.320689 386.429849 
L 256.448626 383.959002 
L 267.640106 388.900695 
L 255.576562 390.93551 
L 257.030001 388.755351 
L 238.427383 386.430024 
L 238.718071 384.104522 
" style="fill:#ff0000;"/>
    <path clip-path="url(#p075c9edc90)" d="M 278.027273 384.095473 
L 296.548452 384.095473 
L 295.376652 381.751873 
L 307.094652 385.267273 
L 295.376652 388.782673 
L 296.548452 386.439073 
L 278.027273 386.439073 
L 278.027273 384.095473 
" style="fill:#ff0000;"/>
    <path clip-path="url(#p075c9edc90)" d="M 317.336474 384.104522 
L 335.939092 381.779194 
L 334.485653 379.599036 
L 346.549197 381.63385 
L 335.357717 386.575543 
L 336.22978 384.104697 
L 317.627162 386.430024 
L 317.336474 384.104522 
" style="fill:#ff0000;"/>
    <path clip-path="url(#p075c9edc90)" d="M 356.65216 384.13046 
L 375.488223 379.421444 
L 373.783003 377.432021 
L 386.003743 378.000428 
L 375.488223 384.252899 
L 376.056629 381.69507 
L 357.220567 386.404086 
L 356.65216 384.13046 
" style="fill:#ff0000;"/>
    <path clip-path="url(#p075c9edc90)" d="M 395.979463 384.170082 
L 415.172127 376.972833 
L 413.252043 375.189898 
L 425.458288 374.367006 
L 415.720722 381.773042 
L 415.99502 379.167214 
L 396.802356 386.364463 
L 395.979463 384.170082 
" style="fill:#ff0000;"/>
    <path clip-path="url(#p075c9edc90)" d="M 435.32141 384.219183 
L 454.955981 374.401897 
L 452.859801 372.829763 
L 464.912834 370.733583 
L 456.00407 379.118301 
L 456.00407 376.498077 
L 436.369499 386.315363 
L 435.32141 384.219183 
" style="fill:#ff0000;"/>
    <path clip-path="url(#p075c9edc90)" d="M 81.504714 345.930707 
L 95.203433 357.346307 
L 95.803567 354.795735 
L 102.55508 364.998021 
L 91.302559 360.196945 
L 93.703096 359.14671 
L 80.004377 347.731111 
L 81.504714 345.930707 
" style="fill:#ff0000;"/>
    <path clip-path="url(#p075c9edc90)" d="M 120.859089 345.855913 
L 133.884654 354.539623 
L 134.209653 351.939632 
L 142.009625 361.364599 
L 130.309667 357.789611 
L 132.584659 356.489616 
L 119.559093 347.805906 
L 120.859089 345.855913 
" style="fill:#ff0000;"/>
    <path clip-path="url(#p075c9edc90)" d="M 160.187681 345.782819 
L 172.555407 351.966682 
L 172.555407 349.346458 
L 181.464171 357.731176 
L 169.411138 355.634997 
L 171.507318 354.062862 
L 159.139591 347.878999 
L 160.187681 345.782819 
" style="fill:#ff0000;"/>
    <path clip-path="url(#p075c9edc90)" d="M 199.488738 345.719242 
L 211.284268 349.651085 
L 210.913712 347.057196 
L 220.918716 354.097754 
L 208.690378 353.727198 
L 210.543157 351.87442 
L 198.747626 347.942576 
L 199.488738 345.719242 
" style="fill:#ff0000;"/>
    <path clip-path="url(#p075c9edc90)" d="M 238.76537 345.675053 
L 250.163197 347.57469 
L 249.392626 345.070335 
L 260.373262 350.464331 
L 248.236769 352.005473 
L 249.777911 349.886403 
L 238.380085 347.986765 
L 238.76537 345.675053 
" style="fill:#ff0000;"/>
    <path clip-path="url(#p075c9edc90)" d="M 278.027273 345.659109 
L 289.281607 345.659109 
L 288.109807 343.315509 
L 299.827807 346.830909 
L 288.109807 350.346309 
L 289.281607 348.002709 
L 278.027273 348.002709 
L 278.027273 345.659109 
" style="fill:#ff0000;"/>
    <path clip-path="url(#p075c9edc90)" d="M 317.289175 345.675053 
L 328.687002 343.775415 
L 327.14586 341.656345 
L 339.282352 343.197487 
L 328.301717 348.591483 
L 329.072288 346.087128 
L 317.674461 347.986765 
L 317.289175 345.675053 
" style="fill:#ff0000;"/>
    <path clip-path="url(#p075c9edc90)" d="M 356.565808 345.719242 
L 368.361338 341.787399 
L 366.50856 339.93462 
L 378.736898 339.564064 
L 368.731894 346.604623 
L 369.10245 344.010733 
L 357.306919 347.942576 
L 356.565808 345.719242 
" style="fill:#ff0000;"/>
    <path clip-path="url(#p075c9edc90)" d="M 395.866864 345.782819 
L 408.23459 339.598956 
L 406.138411 338.026822 
L 418.191443 335.930642 
L 409.28268 344.31536 
L 409.28268 341.695136 
L 396.914954 347.878999 
L 395.866864 345.782819 
" style="fill:#ff0000;"/>
    <path clip-path="url(#p075c9edc90)" d="M 435.195457 345.855913 
L 448.221022 337.172202 
L 445.94603 335.872207 
L 457.645989 332.29722 
L 449.846017 341.722186 
L 449.521018 339.122195 
L 436.495452 347.805906 
L 435.195457 345.855913 
" style="fill:#ff0000;"/>
    <path clip-path="url(#p075c9edc90)" d="M 81.669568 307.662528 
L 89.615098 317.594441 
L 90.713125 315.215384 
L 95.288235 326.561657 
L 85.222992 319.60749 
L 87.785054 319.058476 
L 79.839523 309.126563 
L 81.669568 307.662528 
" style="fill:#ff0000;"/>
    <path clip-path="url(#p075c9edc90)" d="M 121.037679 307.565958 
L 128.114079 314.642358 
L 128.942666 312.156595 
L 134.74278 322.928235 
L 123.97114 317.128121 
L 126.456903 316.299533 
L 119.380503 309.223133 
L 121.037679 307.565958 
" style="fill:#ff0000;"/>
    <path clip-path="url(#p075c9edc90)" d="M 160.366716 307.457105 
L 166.463446 312.029653 
L 166.932166 309.451693 
L 174.197326 319.294813 
L 162.713686 315.076333 
L 165.057286 313.904533 
L 158.960556 309.331985 
L 160.366716 307.457105 
" style="fill:#ff0000;"/>
    <path clip-path="url(#p075c9edc90)" d="M 199.642227 307.346456 
L 204.743108 309.896896 
L 204.743108 307.276672 
L 213.651871 315.66139 
L 201.598839 313.565211 
L 203.695018 311.993076 
L 198.594137 309.442635 
L 199.642227 307.346456 
" style="fill:#ff0000;"/>
    <path clip-path="url(#p075c9edc90)" d="M 238.856931 307.257732 
L 243.159303 308.333326 
L 242.590897 305.775496 
L 253.106417 312.027968 
L 240.885677 312.596374 
L 242.590897 310.606952 
L 238.288524 309.531358 
L 238.856931 307.257732 
" style="fill:#ff0000;"/>
    <path clip-path="url(#p075c9edc90)" d="M 278.027273 307.222745 
L 282.014762 307.222745 
L 280.842962 304.879145 
L 292.560962 308.394545 
L 280.842962 311.909945 
L 282.014762 309.566345 
L 278.027273 309.566345 
L 278.027273 307.222745 
" style="fill:#ff0000;"/>
    <path clip-path="url(#p075c9edc90)" d="M 317.197615 307.257732 
L 321.499988 306.182139 
L 319.794768 304.192717 
L 332.015508 304.761123 
L 321.499988 311.013594 
L 322.068394 308.455765 
L 317.766021 309.531358 
L 317.197615 307.257732 
" style="fill:#ff0000;"/>
    <path clip-path="url(#p075c9edc90)" d="M 356.412319 307.346456 
L 361.5132 304.796015 
L 359.417021 303.22388 
L 371.470053 301.127701 
L 362.56129 309.512419 
L 362.56129 306.892195 
L 357.460409 309.442635 
L 356.412319 307.346456 
" style="fill:#ff0000;"/>
    <path clip-path="url(#p075c9edc90)" d="M 395.687829 307.457105 
L 401.784559 302.884558 
L 399.440959 301.712758 
L 410.924599 297.494278 
L 403.659439 307.337398 
L 403.190719 304.759438 
L 397.093989 309.331985 
L 395.687829 307.457105 
" style="fill:#ff0000;"/>
    <path clip-path="url(#p075c9edc90)" d="M 435.016867 307.565958 
L 442.093267 300.489558 
L 439.607504 299.66097 
L 450.379144 293.860856 
L 444.57903 304.632496 
L 443.750442 302.146733 
L 436.674042 309.223133 
L 435.016867 307.565958 
" style="fill:#ff0000;"/>
    <path clip-path="url(#p075c9edc90)" d="M 81.842534 269.522986 
L 85.192619 277.898197 
L 86.933401 275.939817 
L 88.02139 288.125294 
L 80.405467 278.550991 
L 83.016641 278.768588 
L 79.666556 270.393377 
L 81.842534 269.522986 
" style="fill:#ff0000;"/>
    <path clip-path="url(#p075c9edc90)" d="M 121.257181 269.434137 
L 123.807621 274.535018 
L 125.379756 272.438839 
L 127.475936 284.491871 
L 119.091217 275.583108 
L 121.711442 275.583108 
L 119.161001 270.482227 
L 121.257181 269.434137 
" style="fill:#ff0000;"/>
    <path clip-path="url(#p075c9edc90)" d="M 160.638633 269.308184 
L 162.055498 271.433482 
L 163.355494 269.158491 
L 166.930481 280.858449 
L 157.505515 273.058477 
L 160.105505 272.733478 
L 158.68864 270.60818 
L 160.638633 269.308184 
" style="fill:#ff0000;"/>
    <path clip-path="url(#p075c9edc90)" d="M 199.844866 269.231497 
L 200.571551 269.958182 
L 201.298235 267.778128 
L 206.385027 277.225027 
L 196.938128 272.138235 
L 199.118182 271.411551 
L 198.391497 270.684866 
L 199.844866 269.231497 
" style="fill:#ff0000;"/>
    <path clip-path="url(#p075c9edc90)" d="M 238.93607 269.231497 
L 239.662754 269.59484 
L 239.662754 267.778128 
L 245.839572 273.591604 
L 237.482701 272.138235 
L 238.93607 271.048209 
L 238.209385 270.684866 
L 238.93607 269.231497 
" style="fill:#ff0000;"/>
    <path clip-path="url(#p075c9edc90)" d="M 278.027273 269.231497 
L 278.753957 269.231497 
L 278.027273 267.778128 
L 285.294117 269.958182 
L 278.027273 272.138235 
L 278.753957 270.684866 
L 278.027273 270.684866 
L 278.027273 269.231497 
" style="fill:#ff0000;"/>
    <path clip-path="url(#p075c9edc90)" d="M 317.118476 269.231497 
L 317.84516 268.868155 
L 316.391791 267.778128 
L 324.748663 266.324759 
L 318.571845 272.138235 
L 318.571845 270.321524 
L 317.84516 270.684866 
L 317.118476 269.231497 
" style="fill:#ff0000;"/>
    <path clip-path="url(#p075c9edc90)" d="M 356.209679 269.231497 
L 356.936364 268.504813 
L 354.75631 267.778128 
L 364.203208 262.691337 
L 359.116417 272.138235 
L 358.389733 269.958182 
L 357.663048 270.684866 
L 356.209679 269.231497 
" style="fill:#ff0000;"/>
    <path clip-path="url(#p075c9edc90)" d="M 395.415913 269.308184 
L 396.832778 267.182886 
L 394.232787 266.857887 
L 403.657754 259.057915 
L 400.082767 270.757873 
L 398.782771 268.482881 
L 397.365906 270.60818 
L 395.415913 269.308184 
" style="fill:#ff0000;"/>
    <path clip-path="url(#p075c9edc90)" d="M 434.797365 269.434137 
L 437.347805 264.333255 
L 434.727581 264.333255 
L 443.112299 255.424492 
L 441.01612 267.477525 
L 439.443985 265.381345 
L 436.893544 270.482227 
L 434.797365 269.434137 
" style="fill:#ff0000;"/>
    <path clip-path="url(#p075c9edc90)" d="M 81.926345 231.521818 
L 81.926345 239.14273 
L 84.269945 237.97093 
L 80.754545 249.68893 
L 77.239145 237.97093 
L 79.582745 239.14273 
L 79.582745 231.521818 
L 81.926345 231.521818 
" style="fill:#ff0000;"/>
    <path clip-path="url(#p075c9edc90)" d="M 121.380891 231.521818 
L 121.380891 235.509308 
L 123.724491 234.337508 
L 120.209091 246.055508 
L 116.693691 234.337508 
L 119.037291 235.509308 
L 119.037291 231.521818 
L 121.380891 231.521818 
" style="fill:#ff0000;"/>
    <path clip-path="url(#p075c9edc90)" d="M 160.753663 231.521818 
L 160.753663 232.611845 
L 162.933717 231.521818 
L 159.663636 242.422085 
L 156.393556 231.521818 
L 158.57361 232.611845 
L 158.57361 231.521818 
L 160.753663 231.521818 
" style="fill:#ff0000;"/>
    <path clip-path="url(#p075c9edc90)" d="M 199.844866 231.521818 
L 199.844866 232.248503 
L 201.298235 231.521818 
L 199.118182 238.788663 
L 196.938128 231.521818 
L 198.391497 232.248503 
L 198.391497 231.521818 
L 199.844866 231.521818 
" style="fill:#ff0000;"/>
    <path clip-path="url(#p075c9edc90)" d="M 238.93607 231.521818 
L 238.93607 231.88516 
L 239.662754 231.521818 
L 238.572727 235.155241 
L 237.482701 231.521818 
L 238.209385 231.88516 
L 238.209385 231.521818 
L 238.93607 231.521818 
" style="fill:#ff0000;"/>
    <path clip-path="url(#p075c9edc90)" d="M 279.199073 231.521818 
L 278.613173 230.50701 
L 277.441373 230.50701 
L 276.855473 231.521818 
L 277.441373 232.536627 
L 278.613173 232.536627 
L 279.199073 231.521818 
L 278.613173 230.50701 
" style="fill:#ff0000;"/>
    <path clip-path="url(#p075c9edc90)" d="M 317.118476 231.521818 
L 317.118476 231.158476 
L 316.391791 231.521818 
L 317.481818 227.888396 
L 318.571845 231.521818 
L 317.84516 231.158476 
L 317.84516 231.521818 
L 317.118476 231.521818 
" style="fill:#ff0000;"/>
    <path clip-path="url(#p075c9edc90)" d="M 356.209679 231.521818 
L 356.209679 230.795134 
L 354.75631 231.521818 
L 356.936364 224.254973 
L 359.116417 231.521818 
L 357.663048 230.795134 
L 357.663048 231.521818 
L 356.209679 231.521818 
" style="fill:#ff0000;"/>
    <path clip-path="url(#p075c9edc90)" d="M 395.300882 231.521818 
L 395.300882 230.431791 
L 393.120829 231.521818 
L 396.390909 220.621551 
L 399.660989 231.521818 
L 397.480936 230.431791 
L 397.480936 231.521818 
L 395.300882 231.521818 
" style="fill:#ff0000;"/>
    <path clip-path="url(#p075c9edc90)" d="M 434.673655 231.521818 
L 434.673655 227.534329 
L 432.330055 228.706129 
L 435.845455 216.988129 
L 439.360855 228.706129 
L 437.017255 227.534329 
L 437.017255 231.521818 
L 434.673655 231.521818 
" style="fill:#ff0000;"/>
    <path clip-path="url(#p075c9edc90)" d="M 81.842534 193.52065 
L 78.49245 201.895861 
L 81.103624 201.678263 
L 73.487701 211.252566 
L 74.57569 199.06709 
L 76.316472 201.02547 
L 79.666556 192.650259 
L 81.842534 193.52065 
" style="fill:#ff0000;"/>
    <path clip-path="url(#p075c9edc90)" d="M 121.257181 193.609499 
L 118.70674 198.710381 
L 121.326964 198.710381 
L 112.942246 207.619144 
L 115.038426 195.566112 
L 116.61056 197.662291 
L 119.161001 192.56141 
L 121.257181 193.609499 
" style="fill:#ff0000;"/>
    <path clip-path="url(#p075c9edc90)" d="M 160.638633 193.735452 
L 159.221767 195.860751 
L 161.821758 196.185749 
L 152.396792 203.985722 
L 155.971779 192.285763 
L 157.271774 194.560755 
L 158.68864 192.435457 
L 160.638633 193.735452 
" style="fill:#ff0000;"/>
    <path clip-path="url(#p075c9edc90)" d="M 199.844866 193.812139 
L 199.118182 194.538823 
L 201.298235 195.265508 
L 191.851337 200.352299 
L 196.938128 190.905401 
L 197.664813 193.085455 
L 198.391497 192.35877 
L 199.844866 193.812139 
" style="fill:#ff0000;"/>
    <path clip-path="url(#p075c9edc90)" d="M 238.93607 193.812139 
L 238.209385 194.175481 
L 239.662754 195.265508 
L 231.305883 196.718877 
L 237.482701 190.905401 
L 237.482701 192.722112 
L 238.209385 192.35877 
L 238.93607 193.812139 
" style="fill:#ff0000;"/>
    <path clip-path="url(#p075c9edc90)" d="M 278.027273 193.812139 
L 277.300588 193.812139 
L 278.027273 195.265508 
L 270.760428 193.085455 
L 278.027273 190.905401 
L 277.300588 192.35877 
L 278.027273 192.35877 
L 278.027273 193.812139 
" style="fill:#ff0000;"/>
    <path clip-path="url(#p075c9edc90)" d="M 317.118476 193.812139 
L 316.391791 193.448797 
L 316.391791 195.265508 
L 310.214973 189.452032 
L 318.571845 190.905401 
L 317.118476 191.995428 
L 317.84516 192.35877 
L 317.118476 193.812139 
" style="fill:#ff0000;"/>
    <path clip-path="url(#p075c9edc90)" d="M 356.209679 193.812139 
L 355.482995 193.085455 
L 354.75631 195.265508 
L 349.669519 185.81861 
L 359.116417 190.905401 
L 356.936364 191.632086 
L 357.663048 192.35877 
L 356.209679 193.812139 
" style="fill:#ff0000;"/>
    <path clip-path="url(#p075c9edc90)" d="M 395.415913 193.735452 
L 393.999047 191.610154 
L 392.699052 193.885146 
L 389.124064 182.185187 
L 398.549031 189.98516 
L 395.94904 190.310159 
L 397.365906 192.435457 
L 395.415913 193.735452 
" style="fill:#ff0000;"/>
    <path clip-path="url(#p075c9edc90)" d="M 434.797365 193.609499 
L 432.246924 188.508618 
L 430.674789 190.604798 
L 428.57861 178.551765 
L 436.963328 187.460528 
L 434.343104 187.460528 
L 436.893544 192.56141 
L 434.797365 193.609499 
" style="fill:#ff0000;"/>
    <path clip-path="url(#p075c9edc90)" d="M 81.669568 155.381109 
L 73.724037 165.313022 
L 76.286099 165.862035 
L 66.220856 172.816203 
L 70.795966 161.469929 
L 71.893993 163.848987 
L 79.839523 153.917073 
L 81.669568 155.381109 
" style="fill:#ff0000;"/>
    <path clip-path="url(#p075c9edc90)" d="M 121.037679 155.477679 
L 113.961279 162.554079 
L 116.447042 163.382666 
L 105.675401 169.18278 
L 111.475515 158.41114 
L 112.304103 160.896903 
L 119.380503 153.820503 
L 121.037679 155.477679 
" style="fill:#ff0000;"/>
    <path clip-path="url(#p075c9edc90)" d="M 160.366716 155.586531 
L 154.269987 160.159078 
L 156.613587 161.330878 
L 145.129947 165.549358 
L 152.395107 155.706238 
L 152.863827 158.284198 
L 158.960556 153.711651 
L 160.366716 155.586531 
" style="fill:#ff0000;"/>
    <path clip-path="url(#p075c9edc90)" d="M 199.642227 155.697181 
L 194.541345 158.247621 
L 196.637525 159.819756 
L 184.584492 161.915936 
L 193.493255 153.531217 
L 193.493255 156.151442 
L 198.594137 153.601001 
L 199.642227 155.697181 
" style="fill:#ff0000;"/>
    <path clip-path="url(#p075c9edc90)" d="M 238.856931 155.785904 
L 234.554558 156.861497 
L 236.259777 158.85092 
L 224.039038 158.282513 
L 234.554558 152.030042 
L 233.986151 154.587871 
L 238.288524 153.512278 
L 238.856931 155.785904 
" style="fill:#ff0000;"/>
    <path clip-path="url(#p075c9edc90)" d="M 278.027273 155.820891 
L 274.039783 155.820891 
L 275.211583 158.164491 
L 263.493583 154.649091 
L 275.211583 151.133691 
L 274.039783 153.477291 
L 278.027273 153.477291 
L 278.027273 155.820891 
" style="fill:#ff0000;"/>
    <path clip-path="url(#p075c9edc90)" d="M 317.197615 155.785904 
L 312.895242 154.710311 
L 313.463649 157.26814 
L 302.948129 151.015669 
L 315.168868 150.447262 
L 313.463649 152.436685 
L 317.766021 153.512278 
L 317.197615 155.785904 
" style="fill:#ff0000;"/>
    <path clip-path="url(#p075c9edc90)" d="M 356.412319 155.697181 
L 351.311437 153.14674 
L 351.311437 155.766964 
L 342.402674 147.382246 
L 354.455707 149.478426 
L 352.359527 151.05056 
L 357.460409 153.601001 
L 356.412319 155.697181 
" style="fill:#ff0000;"/>
    <path clip-path="url(#p075c9edc90)" d="M 395.687829 155.586531 
L 389.5911 151.013984 
L 389.12238 153.591944 
L 381.85722 143.748824 
L 393.34086 147.967304 
L 390.99726 149.139104 
L 397.093989 153.711651 
L 395.687829 155.586531 
" style="fill:#ff0000;"/>
    <path clip-path="url(#p075c9edc90)" d="M 435.016867 155.477679 
L 427.940467 148.401279 
L 427.111879 150.887042 
L 421.311765 140.115401 
L 432.083405 145.915515 
L 429.597642 146.744103 
L 436.674042 153.820503 
L 435.016867 155.477679 
" style="fill:#ff0000;"/>
    <path clip-path="url(#p075c9edc90)" d="M 81.504714 117.112929 
L 67.805995 128.528528 
L 70.206532 129.578763 
L 58.954011 134.379839 
L 65.705524 124.177553 
L 66.305658 126.728125 
L 80.004377 115.312526 
L 81.504714 117.112929 
" style="fill:#ff0000;"/>
    <path clip-path="url(#p075c9edc90)" d="M 120.859089 117.187724 
L 107.833523 125.871434 
L 110.108515 127.171429 
L 98.408557 130.746417 
L 106.208529 121.32145 
L 106.533528 123.921441 
L 119.559093 115.237731 
L 120.859089 117.187724 
" style="fill:#ff0000;"/>
    <path clip-path="url(#p075c9edc90)" d="M 160.187681 117.260817 
L 147.819955 123.44468 
L 149.916135 125.016815 
L 137.863102 127.112994 
L 146.771865 118.728276 
L 146.771865 121.348501 
L 159.139591 115.164637 
L 160.187681 117.260817 
" style="fill:#ff0000;"/>
    <path clip-path="url(#p075c9edc90)" d="M 199.488738 117.324394 
L 187.693207 121.256238 
L 189.545986 123.109016 
L 177.317648 123.479572 
L 187.322651 116.439014 
L 186.952096 119.032904 
L 198.747626 115.10106 
L 199.488738 117.324394 
" style="fill:#ff0000;"/>
    <path clip-path="url(#p075c9edc90)" d="M 238.76537 117.368584 
L 227.367543 119.268221 
L 228.908685 121.387292 
L 216.772193 119.84615 
L 227.752829 114.452153 
L 226.982258 116.956509 
L 238.380085 115.056871 
L 238.76537 117.368584 
" style="fill:#ff0000;"/>
    <path clip-path="url(#p075c9edc90)" d="M 278.027273 117.384527 
L 266.772938 117.384527 
L 267.944738 119.728127 
L 256.226738 116.212727 
L 267.944738 112.697327 
L 266.772938 115.040927 
L 278.027273 115.040927 
L 278.027273 117.384527 
" style="fill:#ff0000;"/>
    <path clip-path="url(#p075c9edc90)" d="M 317.289175 117.368584 
L 305.891349 115.468946 
L 306.66192 117.973301 
L 295.681284 112.579305 
L 307.817776 111.038163 
L 306.276634 113.157233 
L 317.674461 115.056871 
L 317.289175 117.368584 
" style="fill:#ff0000;"/>
    <path clip-path="url(#p075c9edc90)" d="M 356.565808 117.324394 
L 344.770277 113.392551 
L 345.140833 115.986441 
L 335.135829 108.945883 
L 347.364167 109.316438 
L 345.511389 111.169217 
L 357.306919 115.10106 
L 356.565808 117.324394 
" style="fill:#ff0000;"/>
    <path clip-path="url(#p075c9edc90)" d="M 395.866864 117.260817 
L 383.499138 111.076954 
L 383.499138 113.697178 
L 374.590375 105.31246 
L 386.643407 107.40864 
L 384.547228 108.980774 
L 396.914954 115.164637 
L 395.866864 117.260817 
" style="fill:#ff0000;"/>
    <path clip-path="url(#p075c9edc90)" d="M 435.195457 117.187724 
L 422.169891 108.504014 
L 421.844893 111.104004 
L 414.04492 101.679038 
L 425.744879 105.254025 
L 423.469887 106.55402 
L 436.495452 115.237731 
L 435.195457 117.187724 
" style="fill:#ff0000;"/>
    <path clip-path="url(#p075c9edc90)" d="M 81.375598 78.770048 
L 61.251379 91.347685 
L 63.487169 92.714001 
L 51.687166 95.943476 
L 59.760852 86.751895 
L 60.009273 89.360316 
L 80.133493 76.782679 
L 81.375598 78.770048 
" style="fill:#ff0000;"/>
    <path clip-path="url(#p075c9edc90)" d="M 120.733136 78.824453 
L 101.098565 88.641739 
L 103.194744 90.213874 
L 91.141712 92.310053 
L 100.050475 83.925335 
L 100.050475 86.545559 
L 119.685046 76.728274 
L 120.733136 78.824453 
" style="fill:#ff0000;"/>
    <path clip-path="url(#p075c9edc90)" d="M 160.075083 78.873554 
L 140.882419 86.070803 
L 142.802502 87.853738 
L 130.596257 88.676631 
L 140.333823 81.270595 
L 140.059526 83.876422 
L 159.25219 76.679173 
L 160.075083 78.873554 
" style="fill:#ff0000;"/>
    <path clip-path="url(#p075c9edc90)" d="M 199.402385 78.913177 
L 180.566323 83.622192 
L 182.271542 85.611615 
L 170.050803 85.043208 
L 180.566323 78.790737 
L 179.997916 81.348566 
L 198.833979 76.639551 
L 199.402385 78.913177 
" style="fill:#ff0000;"/>
    <path clip-path="url(#p075c9edc90)" d="M 238.718071 78.939115 
L 220.115453 81.264442 
L 221.568892 83.444601 
L 209.505348 81.409786 
L 220.696829 76.468093 
L 219.824765 78.93894 
L 238.427383 76.613612 
L 238.718071 78.939115 
" style="fill:#ff0000;"/>
    <path clip-path="url(#p075c9edc90)" d="M 278.027273 78.948164 
L 259.506094 78.948164 
L 260.677894 81.291764 
L 248.959894 77.776364 
L 260.677894 74.260964 
L 259.506094 76.604564 
L 278.027273 76.604564 
L 278.027273 78.948164 
" style="fill:#ff0000;"/>
    <path clip-path="url(#p075c9edc90)" d="M 317.336474 78.939115 
L 298.733856 76.613788 
L 299.60592 79.084634 
L 288.414439 74.142941 
L 300.477983 72.108127 
L 299.024544 74.288285 
L 317.627162 76.613612 
L 317.336474 78.939115 
" style="fill:#ff0000;"/>
    <path clip-path="url(#p075c9edc90)" d="M 356.65216 78.913177 
L 337.816098 74.204161 
L 338.384505 76.76199 
L 327.868985 70.509519 
L 340.089724 69.941112 
L 338.384505 71.930535 
L 357.220567 76.639551 
L 356.65216 78.913177 
" style="fill:#ff0000;"/>
    <path clip-path="url(#p075c9edc90)" d="M 395.979463 78.873554 
L 376.786798 71.676305 
L 377.061096 74.282133 
L 367.32353 66.876097 
L 379.529775 67.698989 
L 377.609691 69.481924 
L 396.802356 76.679173 
L 395.979463 78.873554 
" style="fill:#ff0000;"/>
    <path clip-path="url(#p075c9edc90)" d="M 435.32141 78.824453 
L 415.686839 69.007168 
L 415.686839 71.627392 
L 406.778076 63.242674 
L 418.831108 65.338854 
L 416.734928 66.910988 
L 436.369499 76.728274 
L 435.32141 78.824453 
" style="fill:#ff0000;"/>
   </g>
   <g id="matplotlib.axis_1">
    <g id="xtick_1">
     <g id="line2d_1">
      <defs>
       <path d="M 0 0 
L 0 3.5 
" id="m677e5d4f56" style="stroke:#000000;stroke-width:0.8;"/>
      </defs>
      <g>
       <use style="stroke:#000000;stroke-width:0.8;" x="120.209091" xlink:href="#m677e5d4f56" y="441"/>
      </g>
     </g>
     <g id="text_1">
      <!-- −4 -->
      <defs>
       <path d="M 10.59375 35.5 
L 73.1875 35.5 
L 73.1875 27.203125 
L 10.59375 27.203125 
z
" id="DejaVuSans-2212"/>
       <path d="M 37.796875 64.3125 
L 12.890625 25.390625 
L 37.796875 25.390625 
z
M 35.203125 72.90625 
L 47.609375 72.90625 
L 47.609375 25.390625 
L 58.015625 25.390625 
L 58.015625 17.1875 
L 47.609375 17.1875 
L 47.609375 0 
L 37.796875 0 
L 37.796875 17.1875 
L 4.890625 17.1875 
L 4.890625 26.703125 
z
" id="DejaVuSans-34"/>
      </defs>
      <g transform="translate(112.837997 455.598437)scale(0.1 -0.1)">
       <use xlink:href="#DejaVuSans-2212"/>
       <use x="83.789062" xlink:href="#DejaVuSans-34"/>
      </g>
     </g>
    </g>
    <g id="xtick_2">
     <g id="line2d_2">
      <g>
       <use style="stroke:#000000;stroke-width:0.8;" x="199.118182" xlink:href="#m677e5d4f56" y="441"/>
      </g>
     </g>
     <g id="text_2">
      <!-- −2 -->
      <defs>
       <path d="M 19.1875 8.296875 
L 53.609375 8.296875 
L 53.609375 0 
L 7.328125 0 
L 7.328125 8.296875 
Q 12.9375 14.109375 22.625 23.890625 
Q 32.328125 33.6875 34.8125 36.53125 
Q 39.546875 41.84375 41.421875 45.53125 
Q 43.3125 49.21875 43.3125 52.78125 
Q 43.3125 58.59375 39.234375 62.25 
Q 35.15625 65.921875 28.609375 65.921875 
Q 23.96875 65.921875 18.8125 64.3125 
Q 13.671875 62.703125 7.8125 59.421875 
L 7.8125 69.390625 
Q 13.765625 71.78125 18.9375 73 
Q 24.125 74.21875 28.421875 74.21875 
Q 39.75 74.21875 46.484375 68.546875 
Q 53.21875 62.890625 53.21875 53.421875 
Q 53.21875 48.921875 51.53125 44.890625 
Q 49.859375 40.875 45.40625 35.40625 
Q 44.1875 33.984375 37.640625 27.21875 
Q 31.109375 20.453125 19.1875 8.296875 
z
" id="DejaVuSans-32"/>
      </defs>
      <g transform="translate(191.747088 455.598437)scale(0.1 -0.1)">
       <use xlink:href="#DejaVuSans-2212"/>
       <use x="83.789062" xlink:href="#DejaVuSans-32"/>
      </g>
     </g>
    </g>
    <g id="xtick_3">
     <g id="line2d_3">
      <g>
       <use style="stroke:#000000;stroke-width:0.8;" x="278.027273" xlink:href="#m677e5d4f56" y="441"/>
      </g>
     </g>
     <g id="text_3">
      <!-- 0 -->
      <defs>
       <path d="M 31.78125 66.40625 
Q 24.171875 66.40625 20.328125 58.90625 
Q 16.5 51.421875 16.5 36.375 
Q 16.5 21.390625 20.328125 13.890625 
Q 24.171875 6.390625 31.78125 6.390625 
Q 39.453125 6.390625 43.28125 13.890625 
Q 47.125 21.390625 47.125 36.375 
Q 47.125 51.421875 43.28125 58.90625 
Q 39.453125 66.40625 31.78125 66.40625 
z
M 31.78125 74.21875 
Q 44.046875 74.21875 50.515625 64.515625 
Q 56.984375 54.828125 56.984375 36.375 
Q 56.984375 17.96875 50.515625 8.265625 
Q 44.046875 -1.421875 31.78125 -1.421875 
Q 19.53125 -1.421875 13.0625 8.265625 
Q 6.59375 17.96875 6.59375 36.375 
Q 6.59375 54.828125 13.0625 64.515625 
Q 19.53125 74.21875 31.78125 74.21875 
z
" id="DejaVuSans-30"/>
      </defs>
      <g transform="translate(274.846023 455.598437)scale(0.1 -0.1)">
       <use xlink:href="#DejaVuSans-30"/>
      </g>
     </g>
    </g>
    <g id="xtick_4">
     <g id="line2d_4">
      <g>
       <use style="stroke:#000000;stroke-width:0.8;" x="356.936364" xlink:href="#m677e5d4f56" y="441"/>
      </g>
     </g>
     <g id="text_4">
      <!-- 2 -->
      <g transform="translate(353.755114 455.598437)scale(0.1 -0.1)">
       <use xlink:href="#DejaVuSans-32"/>
      </g>
     </g>
    </g>
    <g id="xtick_5">
     <g id="line2d_5">
      <g>
       <use style="stroke:#000000;stroke-width:0.8;" x="435.845455" xlink:href="#m677e5d4f56" y="441"/>
      </g>
     </g>
     <g id="text_5">
      <!-- 4 -->
      <g transform="translate(432.664205 455.598437)scale(0.1 -0.1)">
       <use xlink:href="#DejaVuSans-34"/>
      </g>
     </g>
    </g>
   </g>
   <g id="matplotlib.axis_2">
    <g id="ytick_1">
     <g id="line2d_6">
      <defs>
       <path d="M 0 0 
L -3.5 0 
" id="maf747c4a51" style="stroke:#000000;stroke-width:0.8;"/>
      </defs>
      <g>
       <use style="stroke:#000000;stroke-width:0.8;" x="63" xlink:href="#maf747c4a51" y="385.267273"/>
      </g>
     </g>
     <g id="text_6">
      <!-- −4 -->
      <g transform="translate(41.257812 389.066491)scale(0.1 -0.1)">
       <use xlink:href="#DejaVuSans-2212"/>
       <use x="83.789062" xlink:href="#DejaVuSans-34"/>
      </g>
     </g>
    </g>
    <g id="ytick_2">
     <g id="line2d_7">
      <g>
       <use style="stroke:#000000;stroke-width:0.8;" x="63" xlink:href="#maf747c4a51" y="308.394545"/>
      </g>
     </g>
     <g id="text_7">
      <!-- −2 -->
      <g transform="translate(41.257812 312.193764)scale(0.1 -0.1)">
       <use xlink:href="#DejaVuSans-2212"/>
       <use x="83.789062" xlink:href="#DejaVuSans-32"/>
      </g>
     </g>
    </g>
    <g id="ytick_3">
     <g id="line2d_8">
      <g>
       <use style="stroke:#000000;stroke-width:0.8;" x="63" xlink:href="#maf747c4a51" y="231.521818"/>
      </g>
     </g>
     <g id="text_8">
      <!-- 0 -->
      <g transform="translate(49.6375 235.321037)scale(0.1 -0.1)">
       <use xlink:href="#DejaVuSans-30"/>
      </g>
     </g>
    </g>
    <g id="ytick_4">
     <g id="line2d_9">
      <g>
       <use style="stroke:#000000;stroke-width:0.8;" x="63" xlink:href="#maf747c4a51" y="154.649091"/>
      </g>
     </g>
     <g id="text_9">
      <!-- 2 -->
      <g transform="translate(49.6375 158.44831)scale(0.1 -0.1)">
       <use xlink:href="#DejaVuSans-32"/>
      </g>
     </g>
    </g>
    <g id="ytick_5">
     <g id="line2d_10">
      <g>
       <use style="stroke:#000000;stroke-width:0.8;" x="63" xlink:href="#maf747c4a51" y="77.776364"/>
      </g>
     </g>
     <g id="text_10">
      <!-- 4 -->
      <g transform="translate(49.6375 81.575582)scale(0.1 -0.1)">
       <use xlink:href="#DejaVuSans-34"/>
      </g>
     </g>
    </g>
   </g>
   <g id="patch_3">
    <path d="M 63 441 
L 63 60.48 
" style="fill:none;stroke:#000000;stroke-linecap:square;stroke-linejoin:miter;stroke-width:0.8;"/>
   </g>
   <g id="patch_4">
    <path d="M 453.6 441 
L 453.6 60.48 
" style="fill:none;stroke:#000000;stroke-linecap:square;stroke-linejoin:miter;stroke-width:0.8;"/>
   </g>
   <g id="patch_5">
    <path d="M 63 441 
L 453.6 441 
" style="fill:none;stroke:#000000;stroke-linecap:square;stroke-linejoin:miter;stroke-width:0.8;"/>
   </g>
   <g id="patch_6">
    <path d="M 63 60.48 
L 453.6 60.48 
" style="fill:none;stroke:#000000;stroke-linecap:square;stroke-linejoin:miter;stroke-width:0.8;"/>
   </g>
  </g>
 </g>
 <defs>
  <clipPath id="p075c9edc90">
   <rect height="380.52" width="390.6" x="63" y="60.48"/>
  </clipPath>
 </defs>
</svg>
