<?xml version="1.0" encoding="utf-8" standalone="no"?>
<!DOCTYPE svg PUBLIC "-//W3C//DTD SVG 1.1//EN"
  "http://www.w3.org/Graphics/SVG/1.1/DTD/svg11.dtd">
<!-- Created with matplotlib (http://matplotlib.org/) -->
<svg height="504pt" version="1.1" viewBox="0 0 504 504" width="504pt" xmlns="http://www.w3.org/2000/svg" xmlns:xlink="http://www.w3.org/1999/xlink">
 <defs>
  <style type="text/css">
*{stroke-linecap:butt;stroke-linejoin:round;}
  </style>
 </defs>
 <g id="figure_1">
  <g id="patch_1">
   <path d="M 0 504 
L 504 504 
L 504 0 
L 0 0 
z
" style="fill:#ffffff;"/>
  </g>
  <g id="axes_1">
   <g id="patch_2">
    <path d="M 63 441 
L 453.6 441 
L 453.6 60.48 
L 63 60.48 
z
" style="fill:#ffffff;"/>
   </g>
   <g id="Quiver_1">
    <path clip-path="url(#pdd11b90e7f)" d="M 79.925958 422.875049 
L 100.628123 402.172884 
L 98.142359 401.344296 
L 108.914 395.544182 
L 103.113886 406.315822 
L 102.285298 403.830059 
L 81.583133 424.532224 
L 79.925958 422.875049 
" style="fill:#ff0000;"/>
    <path clip-path="url(#pdd11b90e7f)" d="M 119.294069 422.971619 
L 135.233473 403.047363 
L 132.671412 402.49835 
L 142.736654 395.544182 
L 138.161544 406.890456 
L 137.063518 404.511398 
L 121.124113 424.435654 
L 119.294069 422.971619 
" style="fill:#ff0000;"/>
    <path clip-path="url(#pdd11b90e7f)" d="M 158.658826 423.10075 
L 170.128524 403.984588 
L 167.516017 403.783626 
L 176.559309 395.544182 
L 173.544878 407.400942 
L 172.138144 405.19036 
L 160.668447 424.306522 
L 158.658826 423.10075 
" style="fill:#ff0000;"/>
    <path clip-path="url(#pdd11b90e7f)" d="M 198.030193 423.268441 
L 205.377214 404.900887 
L 202.766041 405.118485 
L 210.381964 395.544182 
L 209.293975 407.729659 
L 207.553192 405.771278 
L 200.206171 424.138832 
L 198.030193 423.268441 
" style="fill:#ff0000;"/>
    <path clip-path="url(#pdd11b90e7f)" d="M 237.423683 423.473827 
L 240.987294 405.655773 
L 238.459396 406.3452 
L 244.204618 395.544182 
L 245.353663 407.724053 
L 243.285383 406.115391 
L 239.721772 423.933445 
L 237.423683 423.473827 
" style="fill:#ff0000;"/>
    <path clip-path="url(#pdd11b90e7f)" d="M 276.855473 423.703636 
L 276.855473 406.090382 
L 274.511873 407.262182 
L 278.027273 395.544182 
L 281.542673 407.262182 
L 279.199073 406.090382 
L 279.199073 423.703636 
L 276.855473 423.703636 
" style="fill:#ff0000;"/>
    <path clip-path="url(#pdd11b90e7f)" d="M 316.332774 423.933445 
L 312.769163 406.115391 
L 310.700883 407.724053 
L 311.849927 395.544182 
L 317.595149 406.3452 
L 315.067252 405.655773 
L 318.630863 423.473827 
L 316.332774 423.933445 
" style="fill:#ff0000;"/>
    <path clip-path="url(#pdd11b90e7f)" d="M 355.848375 424.138832 
L 348.501353 405.771278 
L 346.760571 407.729659 
L 345.672582 395.544182 
L 353.288505 405.118485 
L 350.677331 404.900887 
L 358.024353 423.268441 
L 355.848375 424.138832 
" style="fill:#ff0000;"/>
    <path clip-path="url(#pdd11b90e7f)" d="M 395.386099 424.306522 
L 383.916401 405.19036 
L 382.509667 407.400942 
L 379.495236 395.544182 
L 388.538528 403.783626 
L 385.926022 403.984588 
L 397.395719 423.10075 
L 395.386099 424.306522 
" style="fill:#ff0000;"/>
    <path clip-path="url(#pdd11b90e7f)" d="M 434.930432 424.435654 
L 418.991028 404.511398 
L 417.893001 406.890456 
L 413.317891 395.544182 
L 423.383134 402.49835 
L 420.821072 403.047363 
L 436.760477 422.971619 
L 434.930432 424.435654 
" style="fill:#ff0000;"/>
    <path clip-path="url(#pdd11b90e7f)" d="M 80.022528 384.352251 
L 99.946784 368.412846 
L 97.567726 367.31482 
L 108.914 362.739709 
L 101.959832 372.804952 
L 101.410819 370.24289 
L 81.486563 386.182295 
L 80.022528 384.352251 
" style="fill:#ff0000;"/>
    <path clip-path="url(#pdd11b90e7f)" d="M 119.380503 384.438685 
L 134.450777 369.368411 
L 131.965014 368.539823 
L 142.736654 362.739709 
L 136.93654 373.51135 
L 136.107953 371.025586 
L 121.037679 386.09586 
L 119.380503 384.438685 
" style="fill:#ff0000;"/>
    <path clip-path="url(#pdd11b90e7f)" d="M 158.726196 384.564193 
L 169.294149 370.473589 
L 166.716189 370.004869 
L 176.559309 362.739709 
L 172.340829 374.223349 
L 171.169029 371.879749 
L 160.601076 385.970353 
L 158.726196 384.564193 
" style="fill:#ff0000;"/>
    <path clip-path="url(#pdd11b90e7f)" d="M 198.070092 384.743228 
L 204.61747 371.648472 
L 201.997245 371.648472 
L 210.381964 362.739709 
L 208.285784 374.792742 
L 206.713649 372.696562 
L 200.166272 385.791318 
L 198.070092 384.743228 
" style="fill:#ff0000;"/>
    <path clip-path="url(#pdd11b90e7f)" d="M 237.435914 384.983069 
L 240.509976 372.686823 
L 237.952147 373.255229 
L 244.204618 362.739709 
L 244.773025 374.960449 
L 242.783602 373.255229 
L 239.70954 385.551476 
L 237.435914 384.983069 
" style="fill:#ff0000;"/>
    <path clip-path="url(#pdd11b90e7f)" d="M 276.855473 385.267273 
L 276.855473 373.285909 
L 274.511873 374.457709 
L 278.027273 362.739709 
L 281.542673 374.457709 
L 279.199073 373.285909 
L 279.199073 385.267273 
L 276.855473 385.267273 
" style="fill:#ff0000;"/>
    <path clip-path="url(#pdd11b90e7f)" d="M 316.345005 385.551476 
L 313.270944 373.255229 
L 311.281521 374.960449 
L 311.849927 362.739709 
L 318.102399 373.255229 
L 315.544569 372.686823 
L 318.618631 384.983069 
L 316.345005 385.551476 
" style="fill:#ff0000;"/>
    <path clip-path="url(#pdd11b90e7f)" d="M 355.888274 385.791318 
L 349.340896 372.696562 
L 347.768761 374.792742 
L 345.672582 362.739709 
L 354.0573 371.648472 
L 351.437076 371.648472 
L 357.984453 384.743228 
L 355.888274 385.791318 
" style="fill:#ff0000;"/>
    <path clip-path="url(#pdd11b90e7f)" d="M 395.453469 385.970353 
L 384.885516 371.879749 
L 383.713716 374.223349 
L 379.495236 362.739709 
L 389.338356 370.004869 
L 386.760396 370.473589 
L 397.328349 384.564193 
L 395.453469 385.970353 
" style="fill:#ff0000;"/>
    <path clip-path="url(#pdd11b90e7f)" d="M 435.016867 386.09586 
L 419.946593 371.025586 
L 419.118005 373.51135 
L 413.317891 362.739709 
L 424.089531 368.539823 
L 421.603768 369.368411 
L 436.674042 384.438685 
L 435.016867 386.09586 
" style="fill:#ff0000;"/>
    <path clip-path="url(#pdd11b90e7f)" d="M 80.151659 345.826099 
L 99.267822 334.356401 
L 97.057239 332.949667 
L 108.914 329.935236 
L 100.674556 338.978528 
L 100.473594 336.366022 
L 81.357432 347.835719 
L 80.151659 345.826099 
" style="fill:#ff0000;"/>
    <path clip-path="url(#pdd11b90e7f)" d="M 119.506011 345.893469 
L 133.596614 335.325516 
L 131.253014 334.153716 
L 142.736654 329.935236 
L 135.471494 339.778356 
L 135.002774 337.200396 
L 120.912171 347.768349 
L 119.506011 345.893469 
" style="fill:#ff0000;"/>
    <path clip-path="url(#pdd11b90e7f)" d="M 158.835049 346.002321 
L 168.273432 336.563938 
L 165.787669 335.735351 
L 176.559309 329.935236 
L 170.759195 340.706877 
L 169.930607 338.221114 
L 160.492224 347.659497 
L 158.835049 346.002321 
" style="fill:#ff0000;"/>
    <path clip-path="url(#pdd11b90e7f)" d="M 198.143185 346.180911 
L 203.556988 338.060208 
L 200.956997 337.735209 
L 210.381964 329.935236 
L 206.806976 341.635195 
L 205.506981 339.360203 
L 200.093178 347.480907 
L 198.143185 346.180911 
" style="fill:#ff0000;"/>
    <path clip-path="url(#pdd11b90e7f)" d="M 237.46106 346.460353 
L 239.75795 339.569685 
L 237.16406 339.94024 
L 244.204618 329.935236 
L 243.834062 342.163574 
L 241.981284 340.310796 
L 239.684394 347.201465 
L 237.46106 346.460353 
" style="fill:#ff0000;"/>
    <path clip-path="url(#pdd11b90e7f)" d="M 276.855473 346.830909 
L 276.855473 340.481436 
L 274.511873 341.653236 
L 278.027273 329.935236 
L 281.542673 341.653236 
L 279.199073 340.481436 
L 279.199073 346.830909 
L 276.855473 346.830909 
" style="fill:#ff0000;"/>
    <path clip-path="url(#pdd11b90e7f)" d="M 316.370151 347.201465 
L 314.073261 340.310796 
L 312.220483 342.163574 
L 311.849927 329.935236 
L 318.890486 339.94024 
L 316.296596 339.569685 
L 318.593485 346.460353 
L 316.370151 347.201465 
" style="fill:#ff0000;"/>
    <path clip-path="url(#pdd11b90e7f)" d="M 355.961367 347.480907 
L 350.547565 339.360203 
L 349.247569 341.635195 
L 345.672582 329.935236 
L 355.097548 337.735209 
L 352.497558 338.060208 
L 357.91136 346.180911 
L 355.961367 347.480907 
" style="fill:#ff0000;"/>
    <path clip-path="url(#pdd11b90e7f)" d="M 395.562321 347.659497 
L 386.123938 338.221114 
L 385.295351 340.706877 
L 379.495236 329.935236 
L 390.266877 335.735351 
L 387.781114 336.563938 
L 397.219497 346.002321 
L 395.562321 347.659497 
" style="fill:#ff0000;"/>
    <path clip-path="url(#pdd11b90e7f)" d="M 435.142375 347.768349 
L 421.051771 337.200396 
L 420.583051 339.778356 
L 413.317891 329.935236 
L 424.801531 334.153716 
L 422.457931 335.325516 
L 436.548535 345.893469 
L 435.142375 347.768349 
" style="fill:#ff0000;"/>
    <path clip-path="url(#pdd11b90e7f)" d="M 80.31935 307.306556 
L 98.686903 299.959535 
L 96.728523 298.218753 
L 108.914 297.130764 
L 99.339697 304.746687 
L 99.557295 302.135513 
L 81.189741 309.482534 
L 80.31935 307.306556 
" style="fill:#ff0000;"/>
    <path clip-path="url(#pdd11b90e7f)" d="M 119.685046 307.346456 
L 132.779802 300.799078 
L 130.683622 299.226943 
L 142.736654 297.130764 
L 133.827891 305.515482 
L 133.827891 302.895257 
L 120.733136 309.442635 
L 119.685046 307.346456 
" style="fill:#ff0000;"/>
    <path clip-path="url(#pdd11b90e7f)" d="M 159.013639 307.419549 
L 167.134343 302.005746 
L 164.859351 300.705751 
L 176.559309 297.130764 
L 168.759337 306.55573 
L 168.434338 303.955739 
L 160.313634 309.369542 
L 159.013639 307.419549 
" style="fill:#ff0000;"/>
    <path clip-path="url(#pdd11b90e7f)" d="M 198.289594 307.565958 
L 202.096086 303.759465 
L 199.610323 302.930878 
L 210.381964 297.130764 
L 204.58185 307.902404 
L 203.753262 305.416641 
L 199.94677 309.223133 
L 198.289594 307.565958 
" style="fill:#ff0000;"/>
    <path clip-path="url(#pdd11b90e7f)" d="M 237.524637 307.870501 
L 238.440124 306.039527 
L 235.8199 306.039527 
L 244.204618 297.130764 
L 242.108439 309.183796 
L 240.536304 307.087617 
L 239.620817 308.91859 
L 237.524637 307.870501 
" style="fill:#ff0000;"/>
    <path clip-path="url(#pdd11b90e7f)" d="M 276.900895 308.394545 
L 276.900895 307.268167 
L 274.648138 308.394545 
L 278.027273 297.130764 
L 281.406407 308.394545 
L 279.153651 307.268167 
L 279.153651 308.394545 
L 276.900895 308.394545 
" style="fill:#ff0000;"/>
    <path clip-path="url(#pdd11b90e7f)" d="M 316.433728 308.91859 
L 315.518242 307.087617 
L 313.946107 309.183796 
L 311.849927 297.130764 
L 320.234646 306.039527 
L 317.614421 306.039527 
L 318.529908 307.870501 
L 316.433728 308.91859 
" style="fill:#ff0000;"/>
    <path clip-path="url(#pdd11b90e7f)" d="M 356.107776 309.223133 
L 352.301284 305.416641 
L 351.472696 307.902404 
L 345.672582 297.130764 
L 356.444222 302.930878 
L 353.958459 303.759465 
L 357.764951 307.565958 
L 356.107776 309.223133 
" style="fill:#ff0000;"/>
    <path clip-path="url(#pdd11b90e7f)" d="M 395.740911 309.369542 
L 387.620208 303.955739 
L 387.295209 306.55573 
L 379.495236 297.130764 
L 391.195195 300.705751 
L 388.920203 302.005746 
L 397.040907 307.419549 
L 395.740911 309.369542 
" style="fill:#ff0000;"/>
    <path clip-path="url(#pdd11b90e7f)" d="M 435.32141 309.442635 
L 422.226654 302.895257 
L 422.226654 305.515482 
L 413.317891 297.130764 
L 425.370923 299.226943 
L 423.274744 300.799078 
L 436.369499 307.346456 
L 435.32141 309.442635 
" style="fill:#ff0000;"/>
    <path clip-path="url(#pdd11b90e7f)" d="M 80.524737 268.809137 
L 98.342791 265.245526 
L 96.734129 263.177246 
L 108.914 264.326291 
L 98.112982 270.071513 
L 98.802409 267.543615 
L 80.984354 271.107226 
L 80.524737 268.809137 
" style="fill:#ff0000;"/>
    <path clip-path="url(#pdd11b90e7f)" d="M 119.924888 268.821369 
L 132.221134 265.747307 
L 130.515915 263.757884 
L 142.736654 264.326291 
L 132.221134 270.578762 
L 132.789541 268.020933 
L 120.493294 271.094995 
L 119.924888 268.821369 
" style="fill:#ff0000;"/>
    <path clip-path="url(#pdd11b90e7f)" d="M 159.293081 268.846515 
L 166.18375 266.549625 
L 164.330971 264.696847 
L 176.559309 264.326291 
L 166.554305 271.366849 
L 166.924861 268.772959 
L 160.034192 271.069849 
L 159.293081 268.846515 
" style="fill:#ff0000;"/>
    <path clip-path="url(#pdd11b90e7f)" d="M 198.594137 268.910092 
L 200.425111 267.994605 
L 198.328931 266.42247 
L 210.381964 264.326291 
L 201.4732 272.711009 
L 201.4732 270.090785 
L 199.642227 271.006272 
L 198.594137 268.910092 
" style="fill:#ff0000;"/>
    <path clip-path="url(#pdd11b90e7f)" d="M 238.009538 269.394993 
L 238.572727 268.831804 
L 236.88316 268.268615 
L 244.204618 264.326291 
L 240.262295 271.647749 
L 239.699105 269.958182 
L 239.135916 270.521371 
L 238.009538 269.394993 
" style="fill:#ff0000;"/>
    <path clip-path="url(#pdd11b90e7f)" d="M 277.464084 269.958182 
L 277.464084 269.394993 
L 276.337705 269.958182 
L 278.027273 264.326291 
L 279.71684 269.958182 
L 278.590462 269.394993 
L 278.590462 269.958182 
L 277.464084 269.958182 
" style="fill:#ff0000;"/>
    <path clip-path="url(#pdd11b90e7f)" d="M 316.918629 270.521371 
L 316.35544 269.958182 
L 315.792251 271.647749 
L 311.849927 264.326291 
L 319.171385 268.268615 
L 317.481818 268.831804 
L 318.045007 269.394993 
L 316.918629 270.521371 
" style="fill:#ff0000;"/>
    <path clip-path="url(#pdd11b90e7f)" d="M 356.412319 271.006272 
L 354.581345 270.090785 
L 354.581345 272.711009 
L 345.672582 264.326291 
L 357.725614 266.42247 
L 355.629435 267.994605 
L 357.460409 268.910092 
L 356.412319 271.006272 
" style="fill:#ff0000;"/>
    <path clip-path="url(#pdd11b90e7f)" d="M 396.020353 271.069849 
L 389.129685 268.772959 
L 389.50024 271.366849 
L 379.495236 264.326291 
L 391.723574 264.696847 
L 389.870796 266.549625 
L 396.761465 268.846515 
L 396.020353 271.069849 
" style="fill:#ff0000;"/>
    <path clip-path="url(#pdd11b90e7f)" d="M 435.561251 271.094995 
L 423.265005 268.020933 
L 423.833411 270.578762 
L 413.317891 264.326291 
L 425.538631 263.757884 
L 423.833411 265.747307 
L 436.129658 268.821369 
L 435.561251 271.094995 
" style="fill:#ff0000;"/>
    <path clip-path="url(#pdd11b90e7f)" d="M 80.754545 230.350018 
L 98.3678 230.350018 
L 97.196 228.006418 
L 108.914 231.521818 
L 97.196 235.037218 
L 98.3678 232.693618 
L 80.754545 232.693618 
L 80.754545 230.350018 
" style="fill:#ff0000;"/>
    <path clip-path="url(#pdd11b90e7f)" d="M 120.209091 230.350018 
L 132.190454 230.350018 
L 131.018654 228.006418 
L 142.736654 231.521818 
L 131.018654 235.037218 
L 132.190454 232.693618 
L 120.209091 232.693618 
L 120.209091 230.350018 
" style="fill:#ff0000;"/>
    <path clip-path="url(#pdd11b90e7f)" d="M 159.663636 230.350018 
L 166.013109 230.350018 
L 164.841309 228.006418 
L 176.559309 231.521818 
L 164.841309 235.037218 
L 166.013109 232.693618 
L 159.663636 232.693618 
L 159.663636 230.350018 
" style="fill:#ff0000;"/>
    <path clip-path="url(#pdd11b90e7f)" d="M 199.118182 230.39544 
L 200.24456 230.39544 
L 199.118182 228.142684 
L 210.381964 231.521818 
L 199.118182 234.900953 
L 200.24456 232.648196 
L 199.118182 232.648196 
L 199.118182 230.39544 
" style="fill:#ff0000;"/>
    <path clip-path="url(#pdd11b90e7f)" d="M 238.572727 230.958629 
L 239.135916 230.958629 
L 238.572727 229.832251 
L 244.204618 231.521818 
L 238.572727 233.211385 
L 239.135916 232.085007 
L 238.572727 232.085007 
L 238.572727 230.958629 
" style="fill:#ff0000;"/>
    <path clip-path="url(#pdd11b90e7f)" d="M 279.199073 231.521818 
L 278.613173 230.50701 
L 277.441373 230.50701 
L 276.855473 231.521818 
L 277.441373 232.536627 
L 278.613173 232.536627 
L 279.199073 231.521818 
L 278.613173 230.50701 
" style="fill:#ff0000;"/>
    <path clip-path="url(#pdd11b90e7f)" d="M 317.481818 232.085007 
L 316.918629 232.085007 
L 317.481818 233.211385 
L 311.849927 231.521818 
L 317.481818 229.832251 
L 316.918629 230.958629 
L 317.481818 230.958629 
L 317.481818 232.085007 
" style="fill:#ff0000;"/>
    <path clip-path="url(#pdd11b90e7f)" d="M 356.936364 232.648196 
L 355.809985 232.648196 
L 356.936364 234.900953 
L 345.672582 231.521818 
L 356.936364 228.142684 
L 355.809985 230.39544 
L 356.936364 230.39544 
L 356.936364 232.648196 
" style="fill:#ff0000;"/>
    <path clip-path="url(#pdd11b90e7f)" d="M 396.390909 232.693618 
L 390.041436 232.693618 
L 391.213236 235.037218 
L 379.495236 231.521818 
L 391.213236 228.006418 
L 390.041436 230.350018 
L 396.390909 230.350018 
L 396.390909 232.693618 
" style="fill:#ff0000;"/>
    <path clip-path="url(#pdd11b90e7f)" d="M 435.845455 232.693618 
L 423.864091 232.693618 
L 425.035891 235.037218 
L 413.317891 231.521818 
L 425.035891 228.006418 
L 423.864091 230.350018 
L 435.845455 230.350018 
L 435.845455 232.693618 
" style="fill:#ff0000;"/>
    <path clip-path="url(#pdd11b90e7f)" d="M 80.984354 191.93641 
L 98.802409 195.500021 
L 98.112982 192.972123 
L 108.914 198.717345 
L 96.734129 199.86639 
L 98.342791 197.79811 
L 80.524737 194.234499 
L 80.984354 191.93641 
" style="fill:#ff0000;"/>
    <path clip-path="url(#pdd11b90e7f)" d="M 120.493294 191.948642 
L 132.789541 195.022703 
L 132.221134 192.464874 
L 142.736654 198.717345 
L 130.515915 199.285752 
L 132.221134 197.296329 
L 119.924888 194.222268 
L 120.493294 191.948642 
" style="fill:#ff0000;"/>
    <path clip-path="url(#pdd11b90e7f)" d="M 160.034192 191.973787 
L 166.924861 194.270677 
L 166.554305 191.676787 
L 176.559309 198.717345 
L 164.330971 198.34679 
L 166.18375 196.494011 
L 159.293081 194.197122 
L 160.034192 191.973787 
" style="fill:#ff0000;"/>
    <path clip-path="url(#pdd11b90e7f)" d="M 199.642227 192.037365 
L 201.4732 192.952852 
L 201.4732 190.332627 
L 210.381964 198.717345 
L 198.328931 196.621166 
L 200.425111 195.049031 
L 198.594137 194.133544 
L 199.642227 192.037365 
" style="fill:#ff0000;"/>
    <path clip-path="url(#pdd11b90e7f)" d="M 239.135916 192.522265 
L 239.699105 193.085455 
L 240.262295 191.395887 
L 244.204618 198.717345 
L 236.88316 194.775022 
L 238.572727 194.211833 
L 238.009538 193.648644 
L 239.135916 192.522265 
" style="fill:#ff0000;"/>
    <path clip-path="url(#pdd11b90e7f)" d="M 278.590462 193.085455 
L 278.590462 193.648644 
L 279.71684 193.085455 
L 278.027273 198.717345 
L 276.337705 193.085455 
L 277.464084 193.648644 
L 277.464084 193.085455 
L 278.590462 193.085455 
" style="fill:#ff0000;"/>
    <path clip-path="url(#pdd11b90e7f)" d="M 318.045007 193.648644 
L 317.481818 194.211833 
L 319.171385 194.775022 
L 311.849927 198.717345 
L 315.792251 191.395887 
L 316.35544 193.085455 
L 316.918629 192.522265 
L 318.045007 193.648644 
" style="fill:#ff0000;"/>
    <path clip-path="url(#pdd11b90e7f)" d="M 357.460409 194.133544 
L 355.629435 195.049031 
L 357.725614 196.621166 
L 345.672582 198.717345 
L 354.581345 190.332627 
L 354.581345 192.952852 
L 356.412319 192.037365 
L 357.460409 194.133544 
" style="fill:#ff0000;"/>
    <path clip-path="url(#pdd11b90e7f)" d="M 396.761465 194.197122 
L 389.870796 196.494011 
L 391.723574 198.34679 
L 379.495236 198.717345 
L 389.50024 191.676787 
L 389.129685 194.270677 
L 396.020353 191.973787 
L 396.761465 194.197122 
" style="fill:#ff0000;"/>
    <path clip-path="url(#pdd11b90e7f)" d="M 436.129658 194.222268 
L 423.833411 197.296329 
L 425.538631 199.285752 
L 413.317891 198.717345 
L 423.833411 192.464874 
L 423.265005 195.022703 
L 435.561251 191.948642 
L 436.129658 194.222268 
" style="fill:#ff0000;"/>
    <path clip-path="url(#pdd11b90e7f)" d="M 81.189741 153.561102 
L 99.557295 160.908123 
L 99.339697 158.29695 
L 108.914 165.912873 
L 96.728523 164.824884 
L 98.686903 163.084101 
L 80.31935 155.73708 
L 81.189741 153.561102 
" style="fill:#ff0000;"/>
    <path clip-path="url(#pdd11b90e7f)" d="M 120.733136 153.601001 
L 133.827891 160.148379 
L 133.827891 157.528154 
L 142.736654 165.912873 
L 130.683622 163.816693 
L 132.779802 162.244558 
L 119.685046 155.697181 
L 120.733136 153.601001 
" style="fill:#ff0000;"/>
    <path clip-path="url(#pdd11b90e7f)" d="M 160.313634 153.674094 
L 168.434338 159.087897 
L 168.759337 156.487906 
L 176.559309 165.912873 
L 164.859351 162.337885 
L 167.134343 161.03789 
L 159.013639 155.624087 
L 160.313634 153.674094 
" style="fill:#ff0000;"/>
    <path clip-path="url(#pdd11b90e7f)" d="M 199.94677 153.820503 
L 203.753262 157.626995 
L 204.58185 155.141232 
L 210.381964 165.912873 
L 199.610323 160.112759 
L 202.096086 159.284171 
L 198.289594 155.477679 
L 199.94677 153.820503 
" style="fill:#ff0000;"/>
    <path clip-path="url(#pdd11b90e7f)" d="M 239.620817 154.125046 
L 240.536304 155.95602 
L 242.108439 153.85984 
L 244.204618 165.912873 
L 235.8199 157.00411 
L 238.440124 157.00411 
L 237.524637 155.173136 
L 239.620817 154.125046 
" style="fill:#ff0000;"/>
    <path clip-path="url(#pdd11b90e7f)" d="M 279.153651 154.649091 
L 279.153651 155.775469 
L 281.406407 154.649091 
L 278.027273 165.912873 
L 274.648138 154.649091 
L 276.900895 155.775469 
L 276.900895 154.649091 
L 279.153651 154.649091 
" style="fill:#ff0000;"/>
    <path clip-path="url(#pdd11b90e7f)" d="M 318.529908 155.173136 
L 317.614421 157.00411 
L 320.234646 157.00411 
L 311.849927 165.912873 
L 313.946107 153.85984 
L 315.518242 155.95602 
L 316.433728 154.125046 
L 318.529908 155.173136 
" style="fill:#ff0000;"/>
    <path clip-path="url(#pdd11b90e7f)" d="M 357.764951 155.477679 
L 353.958459 159.284171 
L 356.444222 160.112759 
L 345.672582 165.912873 
L 351.472696 155.141232 
L 352.301284 157.626995 
L 356.107776 153.820503 
L 357.764951 155.477679 
" style="fill:#ff0000;"/>
    <path clip-path="url(#pdd11b90e7f)" d="M 397.040907 155.624087 
L 388.920203 161.03789 
L 391.195195 162.337885 
L 379.495236 165.912873 
L 387.295209 156.487906 
L 387.620208 159.087897 
L 395.740911 153.674094 
L 397.040907 155.624087 
" style="fill:#ff0000;"/>
    <path clip-path="url(#pdd11b90e7f)" d="M 436.369499 155.697181 
L 423.274744 162.244558 
L 425.370923 163.816693 
L 413.317891 165.912873 
L 422.226654 157.528154 
L 422.226654 160.148379 
L 435.32141 153.601001 
L 436.369499 155.697181 
" style="fill:#ff0000;"/>
    <path clip-path="url(#pdd11b90e7f)" d="M 81.357432 115.207917 
L 100.473594 126.677615 
L 100.674556 124.065108 
L 108.914 133.1084 
L 97.057239 130.093969 
L 99.267822 128.687235 
L 80.151659 117.217537 
L 81.357432 115.207917 
" style="fill:#ff0000;"/>
    <path clip-path="url(#pdd11b90e7f)" d="M 120.912171 115.275287 
L 135.002774 125.84324 
L 135.471494 123.26528 
L 142.736654 133.1084 
L 131.253014 128.88992 
L 133.596614 127.71812 
L 119.506011 117.150167 
L 120.912171 115.275287 
" style="fill:#ff0000;"/>
    <path clip-path="url(#pdd11b90e7f)" d="M 160.492224 115.38414 
L 169.930607 124.822523 
L 170.759195 122.33676 
L 176.559309 133.1084 
L 165.787669 127.308286 
L 168.273432 126.479698 
L 158.835049 117.041315 
L 160.492224 115.38414 
" style="fill:#ff0000;"/>
    <path clip-path="url(#pdd11b90e7f)" d="M 200.093178 115.56273 
L 205.506981 123.683433 
L 206.806976 121.408442 
L 210.381964 133.1084 
L 200.956997 125.308428 
L 203.556988 124.983429 
L 198.143185 116.862725 
L 200.093178 115.56273 
" style="fill:#ff0000;"/>
    <path clip-path="url(#pdd11b90e7f)" d="M 239.684394 115.842172 
L 241.981284 122.73284 
L 243.834062 120.880062 
L 244.204618 133.1084 
L 237.16406 123.103396 
L 239.75795 123.473952 
L 237.46106 116.583283 
L 239.684394 115.842172 
" style="fill:#ff0000;"/>
    <path clip-path="url(#pdd11b90e7f)" d="M 279.199073 116.212727 
L 279.199073 122.5622 
L 281.542673 121.3904 
L 278.027273 133.1084 
L 274.511873 121.3904 
L 276.855473 122.5622 
L 276.855473 116.212727 
L 279.199073 116.212727 
" style="fill:#ff0000;"/>
    <path clip-path="url(#pdd11b90e7f)" d="M 318.593485 116.583283 
L 316.296596 123.473952 
L 318.890486 123.103396 
L 311.849927 133.1084 
L 312.220483 120.880062 
L 314.073261 122.73284 
L 316.370151 115.842172 
L 318.593485 116.583283 
" style="fill:#ff0000;"/>
    <path clip-path="url(#pdd11b90e7f)" d="M 357.91136 116.862725 
L 352.497558 124.983429 
L 355.097548 125.308428 
L 345.672582 133.1084 
L 349.247569 121.408442 
L 350.547565 123.683433 
L 355.961367 115.56273 
L 357.91136 116.862725 
" style="fill:#ff0000;"/>
    <path clip-path="url(#pdd11b90e7f)" d="M 397.219497 117.041315 
L 387.781114 126.479698 
L 390.266877 127.308286 
L 379.495236 133.1084 
L 385.295351 122.33676 
L 386.123938 124.822523 
L 395.562321 115.38414 
L 397.219497 117.041315 
" style="fill:#ff0000;"/>
    <path clip-path="url(#pdd11b90e7f)" d="M 436.548535 117.150167 
L 422.457931 127.71812 
L 424.801531 128.88992 
L 413.317891 133.1084 
L 420.583051 123.26528 
L 421.051771 125.84324 
L 435.142375 115.275287 
L 436.548535 117.150167 
" style="fill:#ff0000;"/>
    <path clip-path="url(#pdd11b90e7f)" d="M 81.486563 76.861342 
L 101.410819 92.800746 
L 101.959832 90.238684 
L 108.914 100.303927 
L 97.567726 95.728817 
L 99.946784 94.63079 
L 80.022528 78.691386 
L 81.486563 76.861342 
" style="fill:#ff0000;"/>
    <path clip-path="url(#pdd11b90e7f)" d="M 121.037679 76.947776 
L 136.107953 92.01805 
L 136.93654 89.532287 
L 142.736654 100.303927 
L 131.965014 94.503813 
L 134.450777 93.675225 
L 119.380503 78.604951 
L 121.037679 76.947776 
" style="fill:#ff0000;"/>
    <path clip-path="url(#pdd11b90e7f)" d="M 160.601076 77.073284 
L 171.169029 91.163887 
L 172.340829 88.820287 
L 176.559309 100.303927 
L 166.716189 93.038767 
L 169.294149 92.570047 
L 158.726196 78.479444 
L 160.601076 77.073284 
" style="fill:#ff0000;"/>
    <path clip-path="url(#pdd11b90e7f)" d="M 200.166272 77.252319 
L 206.713649 90.347074 
L 208.285784 88.250895 
L 210.381964 100.303927 
L 201.997245 91.395164 
L 204.61747 91.395164 
L 198.070092 78.300409 
L 200.166272 77.252319 
" style="fill:#ff0000;"/>
    <path clip-path="url(#pdd11b90e7f)" d="M 239.70954 77.49216 
L 242.783602 89.788407 
L 244.773025 88.083188 
L 244.204618 100.303927 
L 237.952147 89.788407 
L 240.509976 90.356814 
L 237.435914 78.060567 
L 239.70954 77.49216 
" style="fill:#ff0000;"/>
    <path clip-path="url(#pdd11b90e7f)" d="M 279.199073 77.776364 
L 279.199073 89.757727 
L 281.542673 88.585927 
L 278.027273 100.303927 
L 274.511873 88.585927 
L 276.855473 89.757727 
L 276.855473 77.776364 
L 279.199073 77.776364 
" style="fill:#ff0000;"/>
    <path clip-path="url(#pdd11b90e7f)" d="M 318.618631 78.060567 
L 315.544569 90.356814 
L 318.102399 89.788407 
L 311.849927 100.303927 
L 311.281521 88.083188 
L 313.270944 89.788407 
L 316.345005 77.49216 
L 318.618631 78.060567 
" style="fill:#ff0000;"/>
    <path clip-path="url(#pdd11b90e7f)" d="M 357.984453 78.300409 
L 351.437076 91.395164 
L 354.0573 91.395164 
L 345.672582 100.303927 
L 347.768761 88.250895 
L 349.340896 90.347074 
L 355.888274 77.252319 
L 357.984453 78.300409 
" style="fill:#ff0000;"/>
    <path clip-path="url(#pdd11b90e7f)" d="M 397.328349 78.479444 
L 386.760396 92.570047 
L 389.338356 93.038767 
L 379.495236 100.303927 
L 383.713716 88.820287 
L 384.885516 91.163887 
L 395.453469 77.073284 
L 397.328349 78.479444 
" style="fill:#ff0000;"/>
    <path clip-path="url(#pdd11b90e7f)" d="M 436.674042 78.604951 
L 421.603768 93.675225 
L 424.089531 94.503813 
L 413.317891 100.303927 
L 419.118005 89.532287 
L 419.946593 92.01805 
L 435.016867 76.947776 
L 436.674042 78.604951 
" style="fill:#ff0000;"/>
   </g>
   <g id="matplotlib.axis_1">
    <g id="xtick_1">
     <g id="line2d_1">
      <defs>
       <path d="M 0 0 
L 0 3.5 
" id="me3612ab6e1" style="stroke:#000000;stroke-width:0.8;"/>
      </defs>
      <g>
       <use style="stroke:#000000;stroke-width:0.8;" x="120.209091" xlink:href="#me3612ab6e1" y="441"/>
      </g>
     </g>
     <g id="text_1">
      <!-- −4 -->
      <defs>
       <path d="M 10.59375 35.5 
L 73.1875 35.5 
L 73.1875 27.203125 
L 10.59375 27.203125 
z
" id="DejaVuSans-2212"/>
       <path d="M 37.796875 64.3125 
L 12.890625 25.390625 
L 37.796875 25.390625 
z
M 35.203125 72.90625 
L 47.609375 72.90625 
L 47.609375 25.390625 
L 58.015625 25.390625 
L 58.015625 17.1875 
L 47.609375 17.1875 
L 47.609375 0 
L 37.796875 0 
L 37.796875 17.1875 
L 4.890625 17.1875 
L 4.890625 26.703125 
z
" id="DejaVuSans-34"/>
      </defs>
      <g transform="translate(112.837997 455.598437)scale(0.1 -0.1)">
       <use xlink:href="#DejaVuSans-2212"/>
       <use x="83.789062" xlink:href="#DejaVuSans-34"/>
      </g>
     </g>
    </g>
    <g id="xtick_2">
     <g id="line2d_2">
      <g>
       <use style="stroke:#000000;stroke-width:0.8;" x="199.118182" xlink:href="#me3612ab6e1" y="441"/>
      </g>
     </g>
     <g id="text_2">
      <!-- −2 -->
      <defs>
       <path d="M 19.1875 8.296875 
L 53.609375 8.296875 
L 53.609375 0 
L 7.328125 0 
L 7.328125 8.296875 
Q 12.9375 14.109375 22.625 23.890625 
Q 32.328125 33.6875 34.8125 36.53125 
Q 39.546875 41.84375 41.421875 45.53125 
Q 43.3125 49.21875 43.3125 52.78125 
Q 43.3125 58.59375 39.234375 62.25 
Q 35.15625 65.921875 28.609375 65.921875 
Q 23.96875 65.921875 18.8125 64.3125 
Q 13.671875 62.703125 7.8125 59.421875 
L 7.8125 69.390625 
Q 13.765625 71.78125 18.9375 73 
Q 24.125 74.21875 28.421875 74.21875 
Q 39.75 74.21875 46.484375 68.546875 
Q 53.21875 62.890625 53.21875 53.421875 
Q 53.21875 48.921875 51.53125 44.890625 
Q 49.859375 40.875 45.40625 35.40625 
Q 44.1875 33.984375 37.640625 27.21875 
Q 31.109375 20.453125 19.1875 8.296875 
z
" id="DejaVuSans-32"/>
      </defs>
      <g transform="translate(191.747088 455.598437)scale(0.1 -0.1)">
       <use xlink:href="#DejaVuSans-2212"/>
       <use x="83.789062" xlink:href="#DejaVuSans-32"/>
      </g>
     </g>
    </g>
    <g id="xtick_3">
     <g id="line2d_3">
      <g>
       <use style="stroke:#000000;stroke-width:0.8;" x="278.027273" xlink:href="#me3612ab6e1" y="441"/>
      </g>
     </g>
     <g id="text_3">
      <!-- 0 -->
      <defs>
       <path d="M 31.78125 66.40625 
Q 24.171875 66.40625 20.328125 58.90625 
Q 16.5 51.421875 16.5 36.375 
Q 16.5 21.390625 20.328125 13.890625 
Q 24.171875 6.390625 31.78125 6.390625 
Q 39.453125 6.390625 43.28125 13.890625 
Q 47.125 21.390625 47.125 36.375 
Q 47.125 51.421875 43.28125 58.90625 
Q 39.453125 66.40625 31.78125 66.40625 
z
M 31.78125 74.21875 
Q 44.046875 74.21875 50.515625 64.515625 
Q 56.984375 54.828125 56.984375 36.375 
Q 56.984375 17.96875 50.515625 8.265625 
Q 44.046875 -1.421875 31.78125 -1.421875 
Q 19.53125 -1.421875 13.0625 8.265625 
Q 6.59375 17.96875 6.59375 36.375 
Q 6.59375 54.828125 13.0625 64.515625 
Q 19.53125 74.21875 31.78125 74.21875 
z
" id="DejaVuSans-30"/>
      </defs>
      <g transform="translate(274.846023 455.598437)scale(0.1 -0.1)">
       <use xlink:href="#DejaVuSans-30"/>
      </g>
     </g>
    </g>
    <g id="xtick_4">
     <g id="line2d_4">
      <g>
       <use style="stroke:#000000;stroke-width:0.8;" x="356.936364" xlink:href="#me3612ab6e1" y="441"/>
      </g>
     </g>
     <g id="text_4">
      <!-- 2 -->
      <g transform="translate(353.755114 455.598437)scale(0.1 -0.1)">
       <use xlink:href="#DejaVuSans-32"/>
      </g>
     </g>
    </g>
    <g id="xtick_5">
     <g id="line2d_5">
      <g>
       <use style="stroke:#000000;stroke-width:0.8;" x="435.845455" xlink:href="#me3612ab6e1" y="441"/>
      </g>
     </g>
     <g id="text_5">
      <!-- 4 -->
      <g transform="translate(432.664205 455.598437)scale(0.1 -0.1)">
       <use xlink:href="#DejaVuSans-34"/>
      </g>
     </g>
    </g>
   </g>
   <g id="matplotlib.axis_2">
    <g id="ytick_1">
     <g id="line2d_6">
      <defs>
       <path d="M 0 0 
L -3.5 0 
" id="mdf15b1abaf" style="stroke:#000000;stroke-width:0.8;"/>
      </defs>
      <g>
       <use style="stroke:#000000;stroke-width:0.8;" x="63" xlink:href="#mdf15b1abaf" y="385.267273"/>
      </g>
     </g>
     <g id="text_6">
      <!-- −4 -->
      <g transform="translate(41.257812 389.066491)scale(0.1 -0.1)">
       <use xlink:href="#DejaVuSans-2212"/>
       <use x="83.789062" xlink:href="#DejaVuSans-34"/>
      </g>
     </g>
    </g>
    <g id="ytick_2">
     <g id="line2d_7">
      <g>
       <use style="stroke:#000000;stroke-width:0.8;" x="63" xlink:href="#mdf15b1abaf" y="308.394545"/>
      </g>
     </g>
     <g id="text_7">
      <!-- −2 -->
      <g transform="translate(41.257812 312.193764)scale(0.1 -0.1)">
       <use xlink:href="#DejaVuSans-2212"/>
       <use x="83.789062" xlink:href="#DejaVuSans-32"/>
      </g>
     </g>
    </g>
    <g id="ytick_3">
     <g id="line2d_8">
      <g>
       <use style="stroke:#000000;stroke-width:0.8;" x="63" xlink:href="#mdf15b1abaf" y="231.521818"/>
      </g>
     </g>
     <g id="text_8">
      <!-- 0 -->
      <g transform="translate(49.6375 235.321037)scale(0.1 -0.1)">
       <use xlink:href="#DejaVuSans-30"/>
      </g>
     </g>
    </g>
    <g id="ytick_4">
     <g id="line2d_9">
      <g>
       <use style="stroke:#000000;stroke-width:0.8;" x="63" xlink:href="#mdf15b1abaf" y="154.649091"/>
      </g>
     </g>
     <g id="text_9">
      <!-- 2 -->
      <g transform="translate(49.6375 158.44831)scale(0.1 -0.1)">
       <use xlink:href="#DejaVuSans-32"/>
      </g>
     </g>
    </g>
    <g id="ytick_5">
     <g id="line2d_10">
      <g>
       <use style="stroke:#000000;stroke-width:0.8;" x="63" xlink:href="#mdf15b1abaf" y="77.776364"/>
      </g>
     </g>
     <g id="text_10">
      <!-- 4 -->
      <g transform="translate(49.6375 81.575582)scale(0.1 -0.1)">
       <use xlink:href="#DejaVuSans-34"/>
      </g>
     </g>
    </g>
   </g>
   <g id="patch_3">
    <path d="M 63 441 
L 63 60.48 
" style="fill:none;stroke:#000000;stroke-linecap:square;stroke-linejoin:miter;stroke-width:0.8;"/>
   </g>
   <g id="patch_4">
    <path d="M 453.6 441 
L 453.6 60.48 
" style="fill:none;stroke:#000000;stroke-linecap:square;stroke-linejoin:miter;stroke-width:0.8;"/>
   </g>
   <g id="patch_5">
    <path d="M 63 441 
L 453.6 441 
" style="fill:none;stroke:#000000;stroke-linecap:square;stroke-linejoin:miter;stroke-width:0.8;"/>
   </g>
   <g id="patch_6">
    <path d="M 63 60.48 
L 453.6 60.48 
" style="fill:none;stroke:#000000;stroke-linecap:square;stroke-linejoin:miter;stroke-width:0.8;"/>
   </g>
  </g>
 </g>
 <defs>
  <clipPath id="pdd11b90e7f">
   <rect height="380.52" width="390.6" x="63" y="60.48"/>
  </clipPath>
 </defs>
</svg>
