<?xml version="1.0" encoding="utf-8" standalone="no"?>
<!DOCTYPE svg PUBLIC "-//W3C//DTD SVG 1.1//EN"
  "http://www.w3.org/Graphics/SVG/1.1/DTD/svg11.dtd">
<!-- Created with matplotlib (http://matplotlib.org/) -->
<svg height="504pt" version="1.1" viewBox="0 0 504 504" width="504pt" xmlns="http://www.w3.org/2000/svg" xmlns:xlink="http://www.w3.org/1999/xlink">
 <defs>
  <style type="text/css">
*{stroke-linecap:butt;stroke-linejoin:round;}
  </style>
 </defs>
 <g id="figure_1">
  <g id="patch_1">
   <path d="M 0 504 
L 504 504 
L 504 0 
L 0 0 
z
" style="fill:#ffffff;"/>
  </g>
  <g id="axes_1">
   <g id="patch_2">
    <path d="M 63 441 
L 453.6 441 
L 453.6 60.48 
L 63 60.48 
z
" style="fill:#ffffff;"/>
   </g>
   <g id="matplotlib.axis_1">
    <g id="xtick_1">
     <g id="line2d_1">
      <defs>
       <path d="M 0 0 
L 0 3.5 
" id="m15a0b12c33" style="stroke:#000000;stroke-width:0.8;"/>
      </defs>
      <g>
       <use style="stroke:#000000;stroke-width:0.8;" x="63" xlink:href="#m15a0b12c33" y="441"/>
      </g>
     </g>
     <g id="text_1">
      <!-- −10.0 -->
      <defs>
       <path d="M 10.59375 35.5 
L 73.1875 35.5 
L 73.1875 27.203125 
L 10.59375 27.203125 
z
" id="DejaVuSans-2212"/>
       <path d="M 12.40625 8.296875 
L 28.515625 8.296875 
L 28.515625 63.921875 
L 10.984375 60.40625 
L 10.984375 69.390625 
L 28.421875 72.90625 
L 38.28125 72.90625 
L 38.28125 8.296875 
L 54.390625 8.296875 
L 54.390625 0 
L 12.40625 0 
z
" id="DejaVuSans-31"/>
       <path d="M 31.78125 66.40625 
Q 24.171875 66.40625 20.328125 58.90625 
Q 16.5 51.421875 16.5 36.375 
Q 16.5 21.390625 20.328125 13.890625 
Q 24.171875 6.390625 31.78125 6.390625 
Q 39.453125 6.390625 43.28125 13.890625 
Q 47.125 21.390625 47.125 36.375 
Q 47.125 51.421875 43.28125 58.90625 
Q 39.453125 66.40625 31.78125 66.40625 
z
M 31.78125 74.21875 
Q 44.046875 74.21875 50.515625 64.515625 
Q 56.984375 54.828125 56.984375 36.375 
Q 56.984375 17.96875 50.515625 8.265625 
Q 44.046875 -1.421875 31.78125 -1.421875 
Q 19.53125 -1.421875 13.0625 8.265625 
Q 6.59375 17.96875 6.59375 36.375 
Q 6.59375 54.828125 13.0625 64.515625 
Q 19.53125 74.21875 31.78125 74.21875 
z
" id="DejaVuSans-30"/>
       <path d="M 10.6875 12.40625 
L 21 12.40625 
L 21 0 
L 10.6875 0 
z
" id="DejaVuSans-2e"/>
      </defs>
      <g transform="translate(47.677344 455.598437)scale(0.1 -0.1)">
       <use xlink:href="#DejaVuSans-2212"/>
       <use x="83.789062" xlink:href="#DejaVuSans-31"/>
       <use x="147.412109" xlink:href="#DejaVuSans-30"/>
       <use x="211.035156" xlink:href="#DejaVuSans-2e"/>
       <use x="242.822266" xlink:href="#DejaVuSans-30"/>
      </g>
     </g>
    </g>
    <g id="xtick_2">
     <g id="line2d_2">
      <g>
       <use style="stroke:#000000;stroke-width:0.8;" x="112.070352" xlink:href="#m15a0b12c33" y="441"/>
      </g>
     </g>
     <g id="text_2">
      <!-- −7.5 -->
      <defs>
       <path d="M 8.203125 72.90625 
L 55.078125 72.90625 
L 55.078125 68.703125 
L 28.609375 0 
L 18.3125 0 
L 43.21875 64.59375 
L 8.203125 64.59375 
z
" id="DejaVuSans-37"/>
       <path d="M 10.796875 72.90625 
L 49.515625 72.90625 
L 49.515625 64.59375 
L 19.828125 64.59375 
L 19.828125 46.734375 
Q 21.96875 47.46875 24.109375 47.828125 
Q 26.265625 48.1875 28.421875 48.1875 
Q 40.625 48.1875 47.75 41.5 
Q 54.890625 34.8125 54.890625 23.390625 
Q 54.890625 11.625 47.5625 5.09375 
Q 40.234375 -1.421875 26.90625 -1.421875 
Q 22.3125 -1.421875 17.546875 -0.640625 
Q 12.796875 0.140625 7.71875 1.703125 
L 7.71875 11.625 
Q 12.109375 9.234375 16.796875 8.0625 
Q 21.484375 6.890625 26.703125 6.890625 
Q 35.15625 6.890625 40.078125 11.328125 
Q 45.015625 15.765625 45.015625 23.390625 
Q 45.015625 31 40.078125 35.4375 
Q 35.15625 39.890625 26.703125 39.890625 
Q 22.75 39.890625 18.8125 39.015625 
Q 14.890625 38.140625 10.796875 36.28125 
z
" id="DejaVuSans-35"/>
      </defs>
      <g transform="translate(99.928946 455.598437)scale(0.1 -0.1)">
       <use xlink:href="#DejaVuSans-2212"/>
       <use x="83.789062" xlink:href="#DejaVuSans-37"/>
       <use x="147.412109" xlink:href="#DejaVuSans-2e"/>
       <use x="179.199219" xlink:href="#DejaVuSans-35"/>
      </g>
     </g>
    </g>
    <g id="xtick_3">
     <g id="line2d_3">
      <g>
       <use style="stroke:#000000;stroke-width:0.8;" x="161.140704" xlink:href="#m15a0b12c33" y="441"/>
      </g>
     </g>
     <g id="text_3">
      <!-- −5.0 -->
      <g transform="translate(148.999297 455.598437)scale(0.1 -0.1)">
       <use xlink:href="#DejaVuSans-2212"/>
       <use x="83.789062" xlink:href="#DejaVuSans-35"/>
       <use x="147.412109" xlink:href="#DejaVuSans-2e"/>
       <use x="179.199219" xlink:href="#DejaVuSans-30"/>
      </g>
     </g>
    </g>
    <g id="xtick_4">
     <g id="line2d_4">
      <g>
       <use style="stroke:#000000;stroke-width:0.8;" x="210.211055" xlink:href="#m15a0b12c33" y="441"/>
      </g>
     </g>
     <g id="text_4">
      <!-- −2.5 -->
      <defs>
       <path d="M 19.1875 8.296875 
L 53.609375 8.296875 
L 53.609375 0 
L 7.328125 0 
L 7.328125 8.296875 
Q 12.9375 14.109375 22.625 23.890625 
Q 32.328125 33.6875 34.8125 36.53125 
Q 39.546875 41.84375 41.421875 45.53125 
Q 43.3125 49.21875 43.3125 52.78125 
Q 43.3125 58.59375 39.234375 62.25 
Q 35.15625 65.921875 28.609375 65.921875 
Q 23.96875 65.921875 18.8125 64.3125 
Q 13.671875 62.703125 7.8125 59.421875 
L 7.8125 69.390625 
Q 13.765625 71.78125 18.9375 73 
Q 24.125 74.21875 28.421875 74.21875 
Q 39.75 74.21875 46.484375 68.546875 
Q 53.21875 62.890625 53.21875 53.421875 
Q 53.21875 48.921875 51.53125 44.890625 
Q 49.859375 40.875 45.40625 35.40625 
Q 44.1875 33.984375 37.640625 27.21875 
Q 31.109375 20.453125 19.1875 8.296875 
z
" id="DejaVuSans-32"/>
      </defs>
      <g transform="translate(198.069649 455.598437)scale(0.1 -0.1)">
       <use xlink:href="#DejaVuSans-2212"/>
       <use x="83.789062" xlink:href="#DejaVuSans-32"/>
       <use x="147.412109" xlink:href="#DejaVuSans-2e"/>
       <use x="179.199219" xlink:href="#DejaVuSans-35"/>
      </g>
     </g>
    </g>
    <g id="xtick_5">
     <g id="line2d_5">
      <g>
       <use style="stroke:#000000;stroke-width:0.8;" x="259.281407" xlink:href="#m15a0b12c33" y="441"/>
      </g>
     </g>
     <g id="text_5">
      <!-- 0.0 -->
      <g transform="translate(251.329845 455.598437)scale(0.1 -0.1)">
       <use xlink:href="#DejaVuSans-30"/>
       <use x="63.623047" xlink:href="#DejaVuSans-2e"/>
       <use x="95.410156" xlink:href="#DejaVuSans-30"/>
      </g>
     </g>
    </g>
    <g id="xtick_6">
     <g id="line2d_6">
      <g>
       <use style="stroke:#000000;stroke-width:0.8;" x="308.351759" xlink:href="#m15a0b12c33" y="441"/>
      </g>
     </g>
     <g id="text_6">
      <!-- 2.5 -->
      <g transform="translate(300.400196 455.598437)scale(0.1 -0.1)">
       <use xlink:href="#DejaVuSans-32"/>
       <use x="63.623047" xlink:href="#DejaVuSans-2e"/>
       <use x="95.410156" xlink:href="#DejaVuSans-35"/>
      </g>
     </g>
    </g>
    <g id="xtick_7">
     <g id="line2d_7">
      <g>
       <use style="stroke:#000000;stroke-width:0.8;" x="357.422111" xlink:href="#m15a0b12c33" y="441"/>
      </g>
     </g>
     <g id="text_7">
      <!-- 5.0 -->
      <g transform="translate(349.470548 455.598437)scale(0.1 -0.1)">
       <use xlink:href="#DejaVuSans-35"/>
       <use x="63.623047" xlink:href="#DejaVuSans-2e"/>
       <use x="95.410156" xlink:href="#DejaVuSans-30"/>
      </g>
     </g>
    </g>
    <g id="xtick_8">
     <g id="line2d_8">
      <g>
       <use style="stroke:#000000;stroke-width:0.8;" x="406.492462" xlink:href="#m15a0b12c33" y="441"/>
      </g>
     </g>
     <g id="text_8">
      <!-- 7.5 -->
      <g transform="translate(398.5409 455.598437)scale(0.1 -0.1)">
       <use xlink:href="#DejaVuSans-37"/>
       <use x="63.623047" xlink:href="#DejaVuSans-2e"/>
       <use x="95.410156" xlink:href="#DejaVuSans-35"/>
      </g>
     </g>
    </g>
    <g id="text_9">
     <!-- x -->
     <defs>
      <path d="M 54.890625 54.6875 
L 35.109375 28.078125 
L 55.90625 0 
L 45.3125 0 
L 29.390625 21.484375 
L 13.484375 0 
L 2.875 0 
L 24.125 28.609375 
L 4.6875 54.6875 
L 15.28125 54.6875 
L 29.78125 35.203125 
L 44.28125 54.6875 
z
" id="DejaVuSans-78"/>
     </defs>
     <g transform="translate(255.340625 469.276563)scale(0.1 -0.1)">
      <use xlink:href="#DejaVuSans-78"/>
     </g>
    </g>
   </g>
   <g id="matplotlib.axis_2">
    <g id="ytick_1">
     <g id="line2d_9">
      <defs>
       <path d="M 0 0 
L -3.5 0 
" id="m87039145df" style="stroke:#000000;stroke-width:0.8;"/>
      </defs>
      <g>
       <use style="stroke:#000000;stroke-width:0.8;" x="63" xlink:href="#m87039145df" y="441"/>
      </g>
     </g>
     <g id="text_10">
      <!-- −10.0 -->
      <g transform="translate(25.354687 444.799219)scale(0.1 -0.1)">
       <use xlink:href="#DejaVuSans-2212"/>
       <use x="83.789062" xlink:href="#DejaVuSans-31"/>
       <use x="147.412109" xlink:href="#DejaVuSans-30"/>
       <use x="211.035156" xlink:href="#DejaVuSans-2e"/>
       <use x="242.822266" xlink:href="#DejaVuSans-30"/>
      </g>
     </g>
    </g>
    <g id="ytick_2">
     <g id="line2d_10">
      <g>
       <use style="stroke:#000000;stroke-width:0.8;" x="63" xlink:href="#m87039145df" y="393.19598"/>
      </g>
     </g>
     <g id="text_11">
      <!-- −7.5 -->
      <g transform="translate(31.717187 396.995199)scale(0.1 -0.1)">
       <use xlink:href="#DejaVuSans-2212"/>
       <use x="83.789062" xlink:href="#DejaVuSans-37"/>
       <use x="147.412109" xlink:href="#DejaVuSans-2e"/>
       <use x="179.199219" xlink:href="#DejaVuSans-35"/>
      </g>
     </g>
    </g>
    <g id="ytick_3">
     <g id="line2d_11">
      <g>
       <use style="stroke:#000000;stroke-width:0.8;" x="63" xlink:href="#m87039145df" y="345.39196"/>
      </g>
     </g>
     <g id="text_12">
      <!-- −5.0 -->
      <g transform="translate(31.717187 349.191179)scale(0.1 -0.1)">
       <use xlink:href="#DejaVuSans-2212"/>
       <use x="83.789062" xlink:href="#DejaVuSans-35"/>
       <use x="147.412109" xlink:href="#DejaVuSans-2e"/>
       <use x="179.199219" xlink:href="#DejaVuSans-30"/>
      </g>
     </g>
    </g>
    <g id="ytick_4">
     <g id="line2d_12">
      <g>
       <use style="stroke:#000000;stroke-width:0.8;" x="63" xlink:href="#m87039145df" y="297.58794"/>
      </g>
     </g>
     <g id="text_13">
      <!-- −2.5 -->
      <g transform="translate(31.717187 301.387158)scale(0.1 -0.1)">
       <use xlink:href="#DejaVuSans-2212"/>
       <use x="83.789062" xlink:href="#DejaVuSans-32"/>
       <use x="147.412109" xlink:href="#DejaVuSans-2e"/>
       <use x="179.199219" xlink:href="#DejaVuSans-35"/>
      </g>
     </g>
    </g>
    <g id="ytick_5">
     <g id="line2d_13">
      <g>
       <use style="stroke:#000000;stroke-width:0.8;" x="63" xlink:href="#m87039145df" y="249.78392"/>
      </g>
     </g>
     <g id="text_14">
      <!-- 0.0 -->
      <g transform="translate(40.096875 253.583138)scale(0.1 -0.1)">
       <use xlink:href="#DejaVuSans-30"/>
       <use x="63.623047" xlink:href="#DejaVuSans-2e"/>
       <use x="95.410156" xlink:href="#DejaVuSans-30"/>
      </g>
     </g>
    </g>
    <g id="ytick_6">
     <g id="line2d_14">
      <g>
       <use style="stroke:#000000;stroke-width:0.8;" x="63" xlink:href="#m87039145df" y="201.979899"/>
      </g>
     </g>
     <g id="text_15">
      <!-- 2.5 -->
      <g transform="translate(40.096875 205.779118)scale(0.1 -0.1)">
       <use xlink:href="#DejaVuSans-32"/>
       <use x="63.623047" xlink:href="#DejaVuSans-2e"/>
       <use x="95.410156" xlink:href="#DejaVuSans-35"/>
      </g>
     </g>
    </g>
    <g id="ytick_7">
     <g id="line2d_15">
      <g>
       <use style="stroke:#000000;stroke-width:0.8;" x="63" xlink:href="#m87039145df" y="154.175879"/>
      </g>
     </g>
     <g id="text_16">
      <!-- 5.0 -->
      <g transform="translate(40.096875 157.975098)scale(0.1 -0.1)">
       <use xlink:href="#DejaVuSans-35"/>
       <use x="63.623047" xlink:href="#DejaVuSans-2e"/>
       <use x="95.410156" xlink:href="#DejaVuSans-30"/>
      </g>
     </g>
    </g>
    <g id="ytick_8">
     <g id="line2d_16">
      <g>
       <use style="stroke:#000000;stroke-width:0.8;" x="63" xlink:href="#m87039145df" y="106.371859"/>
      </g>
     </g>
     <g id="text_17">
      <!-- 7.5 -->
      <g transform="translate(40.096875 110.171078)scale(0.1 -0.1)">
       <use xlink:href="#DejaVuSans-37"/>
       <use x="63.623047" xlink:href="#DejaVuSans-2e"/>
       <use x="95.410156" xlink:href="#DejaVuSans-35"/>
      </g>
     </g>
    </g>
    <g id="text_18">
     <!-- y -->
     <defs>
      <path d="M 32.171875 -5.078125 
Q 28.375 -14.84375 24.75 -17.8125 
Q 21.140625 -20.796875 15.09375 -20.796875 
L 7.90625 -20.796875 
L 7.90625 -13.28125 
L 13.1875 -13.28125 
Q 16.890625 -13.28125 18.9375 -11.515625 
Q 21 -9.765625 23.484375 -3.21875 
L 25.09375 0.875 
L 2.984375 54.6875 
L 12.5 54.6875 
L 29.59375 11.921875 
L 46.6875 54.6875 
L 56.203125 54.6875 
z
" id="DejaVuSans-79"/>
     </defs>
     <g transform="translate(19.275 253.699375)rotate(-90)scale(0.1 -0.1)">
      <use xlink:href="#DejaVuSans-79"/>
     </g>
    </g>
   </g>
   <g id="LineCollection_1">
    <path clip-path="url(#p13b7c9400a)" d="M 222.70463 172.057889 
L 225.913568 170.694184 
L 229.839196 169.22571 
L 235.17805 167.561005 
L 237.690452 166.901639 
L 241.61608 166.022485 
L 245.541709 165.32657 
L 249.467337 164.810931 
L 253.392965 164.467172 
L 257.318593 164.295292 
L 261.244221 164.295292 
L 265.169849 164.467172 
L 269.095477 164.810931 
L 273.021106 165.32657 
L 276.946734 166.022485 
L 280.872362 166.901639 
L 284.79799 167.965933 
L 289.420101 169.473166 
L 292.649246 170.694184 
L 296.574874 172.376817 
L 300.500503 174.289875 
L 304.426131 176.451311 
L 308.582678 179.03397 
L 312.277387 181.619427 
L 316.302819 184.770452 
L 320.59598 188.594774 
L 324.376524 192.419095 
L 327.979899 196.556316 
L 330.695574 200.067739 
L 333.344925 203.89206 
L 335.831156 207.938726 
L 337.79397 211.540704 
L 339.756784 215.638191 
L 341.719598 220.422999 
L 342.643275 223.013668 
L 343.84034 226.83799 
L 344.833027 230.662312 
L 345.645226 234.486633 
L 346.262741 238.310955 
L 346.703822 242.135276 
L 346.968472 245.959598 
L 347.056688 249.78392 
L 346.968472 253.608241 
L 346.703822 257.432563 
L 346.262741 261.256884 
L 345.645226 265.081206 
L 344.833027 268.905528 
L 343.682412 273.265254 
L 342.643275 276.554171 
L 341.246631 280.378492 
L 339.635623 284.202814 
L 337.79397 288.027136 
L 335.7037 291.851457 
L 333.344925 295.675779 
L 330.695574 299.500101 
L 327.72388 303.324422 
L 324.054271 307.49356 
L 320.128643 311.414333 
L 316.203015 314.880524 
L 312.277387 317.948412 
L 308.351759 320.686842 
L 304.426131 323.116528 
L 300.500503 325.277965 
L 296.574874 327.191022 
L 292.649246 328.873655 
L 288.723618 330.342129 
L 283.384764 332.006834 
L 280.872362 332.6662 
L 276.946734 333.545354 
L 273.021106 334.241269 
L 269.095477 334.756908 
L 265.169849 335.100667 
L 261.244221 335.272547 
L 257.318593 335.272547 
L 253.392965 335.100667 
L 249.467337 334.756908 
L 245.541709 334.241269 
L 241.61608 333.545354 
L 237.690452 332.6662 
L 233.764824 331.601906 
L 229.142714 330.094673 
L 225.913568 328.873655 
L 221.98794 327.191022 
L 218.062312 325.277965 
L 214.136683 323.116528 
L 209.980136 320.533869 
L 206.285427 317.948412 
L 202.259995 314.797387 
L 197.966834 310.973065 
L 194.18629 307.148744 
L 190.582915 303.011523 
L 187.86724 299.500101 
L 185.217889 295.675779 
L 182.731658 291.629113 
L 180.768844 288.027136 
L 178.80603 283.929648 
L 176.843216 279.14484 
L 175.919539 276.554171 
L 174.722474 272.729849 
L 173.729787 268.905528 
L 172.917588 265.081206 
L 172.300073 261.256884 
L 171.858992 257.432563 
L 171.594342 253.608241 
L 171.506126 249.78392 
L 171.594342 245.959598 
L 171.858992 242.135276 
L 172.300073 238.310955 
L 172.917588 234.486633 
L 173.729787 230.662312 
L 174.880402 226.302585 
L 175.919539 223.013668 
L 177.316183 219.189347 
L 178.927192 215.365025 
L 180.768844 211.540704 
L 182.859114 207.716382 
L 185.217889 203.89206 
L 188.006347 199.881083 
L 188.006347 199.881083 
" style="fill:none;stroke:#440154;stroke-width:1.5;"/>
   </g>
   <g id="LineCollection_2">
    <path clip-path="url(#p13b7c9400a)" d="M 216.223498 363.207458 
L 212.173869 361.669842 
L 208.248241 360.024147 
L 204.322613 358.218667 
L 200.396985 356.244764 
L 196.471357 354.093169 
L 191.550098 351.128442 
L 188.620101 349.216281 
L 183.266971 345.39196 
L 180.768844 343.460086 
L 176.219734 339.655477 
L 172.057478 335.831156 
L 168.253266 332.006834 
L 164.762804 328.182513 
L 161.140704 323.836693 
L 158.606196 320.533869 
L 155.252261 315.767324 
L 152.208999 310.973065 
L 149.363819 305.982002 
L 147.02551 301.412261 
L 144.43162 295.675779 
L 142.898079 291.851457 
L 140.87992 286.114975 
L 139.182718 280.378492 
L 137.794387 274.64201 
L 136.707594 268.905528 
L 135.906766 263.169045 
L 135.392292 257.432563 
L 135.160464 251.69608 
L 135.206829 245.959598 
L 135.531389 240.223116 
L 136.142304 234.486633 
L 137.037347 228.750151 
L 138.225248 223.013668 
L 139.711965 217.277186 
L 141.512563 211.540704 
L 143.643139 205.804221 
L 146.120909 200.067739 
L 147.974216 196.243417 
L 150.000407 192.419095 
L 152.208999 188.594774 
L 155.252261 183.800516 
L 157.215075 180.946131 
L 161.140704 175.731147 
L 163.123753 173.297487 
L 167.029146 168.865774 
L 170.954774 164.810931 
L 174.880402 161.104892 
L 178.80603 157.704506 
L 183.266971 154.175879 
L 186.657286 151.706779 
L 191.550098 148.439397 
L 196.471357 145.474671 
L 201.594634 142.702915 
L 206.285427 140.424949 
L 212.173869 137.897998 
L 216.099497 136.404032 
L 221.98794 134.437955 
L 227.876382 132.784552 
L 233.764824 131.432048 
L 239.653266 130.373302 
L 245.541709 129.59314 
L 251.430151 129.091943 
L 257.318593 128.866097 
L 263.207035 128.911267 
L 269.095477 129.227451 
L 274.98392 129.822599 
L 280.872362 130.694545 
L 286.760804 131.851791 
L 292.649246 133.30014 
L 298.537688 135.054271 
L 304.426131 137.129865 
L 310.314573 139.543692 
L 314.240201 141.349172 
L 318.165829 143.323075 
L 322.091457 145.474671 
L 327.012716 148.439397 
L 329.942714 150.351558 
L 335.295843 154.175879 
L 337.79397 156.107753 
L 342.34308 159.912362 
L 346.505336 163.736683 
L 350.309548 167.561005 
L 353.80001 171.385327 
L 357.422111 175.731147 
L 359.956618 179.03397 
L 363.310553 183.800516 
L 366.353815 188.594774 
L 369.198995 193.585838 
L 371.537304 198.155578 
L 374.131194 203.89206 
L 375.664735 207.716382 
L 377.682894 213.452864 
L 379.380096 219.189347 
L 380.768428 224.925829 
L 381.85522 230.662312 
L 382.656048 236.398794 
L 383.170522 242.135276 
L 383.40235 247.871759 
L 383.355985 253.608241 
L 383.031425 259.344724 
L 382.420511 265.081206 
L 381.525467 270.817688 
L 380.337566 276.554171 
L 378.850849 282.290653 
L 377.050251 288.027136 
L 374.919675 293.763618 
L 372.441905 299.500101 
L 370.588598 303.324422 
L 368.562407 307.148744 
L 366.353815 310.973065 
L 363.310553 315.767324 
L 361.347739 318.621709 
L 357.422111 323.836693 
L 355.439061 326.270352 
L 351.533668 330.702066 
L 347.60804 334.756908 
L 343.682412 338.462947 
L 339.756784 341.863333 
L 335.295843 345.39196 
L 331.905528 347.861061 
L 327.012716 351.128442 
L 322.091457 354.093169 
L 316.96818 356.864925 
L 312.277387 359.14289 
L 306.388945 361.669842 
L 302.463317 363.163807 
L 296.574874 365.129884 
L 290.686432 366.783287 
L 284.79799 368.135791 
L 278.909548 369.194537 
L 273.021106 369.974699 
L 267.132663 370.475896 
L 261.244221 370.701742 
L 255.500608 370.659906 
L 255.500608 370.659906 
" style="fill:none;stroke:#414487;stroke-width:1.5;"/>
   </g>
   <g id="LineCollection_3">
    <path clip-path="url(#p13b7c9400a)" d="M 314.925397 387.61909 
L 310.12214 389.371658 
L 304.20804 391.283819 
L 298.537688 392.875148 
L 292.649246 394.285025 
L 286.760804 395.458079 
L 280.872362 396.395412 
L 274.98392 397.106657 
L 269.095477 397.587781 
L 263.207035 397.846848 
L 257.318593 397.883858 
L 251.430151 397.69881 
L 245.541709 397.291705 
L 239.653266 396.657866 
L 233.764824 395.795519 
L 227.876382 394.702915 
L 221.28334 393.19598 
L 216.099497 391.797151 
L 210.211055 389.970022 
L 204.322613 387.881492 
L 198.434171 385.520214 
L 192.545729 382.864809 
L 186.47409 379.810854 
L 180.768844 376.619127 
L 176.589205 374.074372 
L 170.825358 370.25005 
L 165.066332 366.030654 
L 160.771461 362.601407 
L 156.336482 358.777085 
L 152.227007 354.952764 
L 148.408467 351.128442 
L 144.851024 347.304121 
L 141.512563 343.460086 
L 137.586935 338.565751 
L 134.155874 333.918995 
L 131.533676 330.094673 
L 127.772864 324.109858 
L 124.663881 318.621709 
L 121.731295 312.885226 
L 119.111776 307.148744 
L 116.781106 301.412261 
L 114.727495 295.675779 
L 112.939786 289.939296 
L 111.407415 284.202814 
L 110.107538 278.400395 
L 109.08123 272.729849 
L 108.273012 266.993367 
L 107.701508 261.256884 
L 107.359598 255.520402 
L 107.245628 249.78392 
L 107.359598 244.047437 
L 107.701508 238.310955 
L 108.273012 232.574472 
L 109.08123 226.83799 
L 110.120536 221.101508 
L 111.407415 215.365025 
L 112.939786 209.628543 
L 114.727495 203.89206 
L 116.781106 198.155578 
L 119.111776 192.419095 
L 121.731295 186.682613 
L 123.847236 182.481246 
L 126.798727 177.121809 
L 129.735678 172.258783 
L 132.824448 167.561005 
L 135.624121 163.610607 
L 139.955289 158.000201 
L 143.475377 153.816166 
L 147.401005 149.495638 
L 151.326633 145.492213 
L 155.252261 141.772217 
L 159.177889 138.306579 
L 163.123753 135.054271 
L 168.147739 131.22995 
L 172.917588 127.887432 
L 176.843216 125.332904 
L 182.986569 121.669146 
L 188.620101 118.640395 
L 194.508543 115.783488 
L 200.396985 113.231569 
L 206.285427 110.961045 
L 212.173869 108.960431 
L 218.062312 107.218857 
L 223.950754 105.72603 
L 229.906879 104.459698 
L 235.727638 103.459876 
L 241.61608 102.672516 
L 247.504523 102.115759 
L 253.392965 101.782673 
L 259.281407 101.671645 
L 265.169849 101.782673 
L 271.058291 102.115759 
L 276.946734 102.672516 
L 282.835176 103.459876 
L 288.723618 104.472362 
L 294.61206 105.72603 
L 300.500503 107.218857 
L 306.388945 108.960431 
L 312.277387 110.961045 
L 318.165829 113.231569 
L 324.376524 115.932663 
L 329.942714 118.640395 
L 335.831156 121.812917 
L 341.973609 125.493467 
L 347.737457 129.317789 
L 353.496482 133.537185 
L 357.791353 136.966432 
L 362.226332 140.790754 
L 366.335807 144.615075 
L 370.154347 148.439397 
L 373.71179 152.263719 
L 377.050251 156.107753 
L 380.975879 161.002088 
L 384.40694 165.648844 
L 387.029138 169.473166 
L 390.78995 175.457981 
L 393.898933 180.946131 
L 396.831519 186.682613 
L 399.451038 192.419095 
L 401.781709 198.155578 
L 403.835319 203.89206 
L 405.623028 209.628543 
L 407.1554 215.365025 
L 408.455276 221.167444 
L 409.481584 226.83799 
L 410.289802 232.574472 
L 410.861307 238.310955 
L 411.203216 244.047437 
L 411.317186 249.78392 
L 411.203216 255.520402 
L 410.861307 261.256884 
L 410.289802 266.993367 
L 409.481584 272.729849 
L 408.442278 278.466332 
L 407.1554 284.202814 
L 405.623028 289.939296 
L 403.835319 295.675779 
L 401.781709 301.412261 
L 399.451038 307.148744 
L 396.831519 312.885226 
L 394.715578 317.086594 
L 391.764087 322.44603 
L 388.827136 327.309056 
L 385.738366 332.006834 
L 382.938693 335.957232 
L 378.607525 341.567638 
L 375.087437 345.751673 
L 371.161809 350.072201 
L 367.236181 354.075626 
L 363.310553 357.795622 
L 359.384925 361.26126 
L 355.439061 364.513568 
L 352.079202 367.103477 
L 352.079202 367.103477 
" style="fill:none;stroke:#2a788e;stroke-width:1.5;"/>
   </g>
   <g id="LineCollection_4">
    <path clip-path="url(#p13b7c9400a)" d="M 169.445733 102.847012 
L 174.880402 99.819359 
L 180.768844 96.811055 
L 186.657286 94.077721 
L 192.545729 91.596071 
L 198.981185 89.162412 
L 204.643801 87.250251 
L 211.052261 85.33809 
L 216.099497 84.011736 
L 221.98794 82.661065 
L 227.876382 81.513769 
L 233.764824 80.573893 
L 239.653266 79.828475 
L 245.541709 79.281134 
L 251.430151 78.928613 
L 257.318593 78.768376 
L 263.207035 78.800423 
L 269.095477 79.024755 
L 274.98392 79.441371 
L 280.872362 80.055341 
L 286.760804 80.865579 
L 292.649246 81.874348 
L 298.537688 83.087204 
L 304.426131 84.509119 
L 310.314573 86.143211 
L 316.203015 87.997012 
L 322.091457 90.078417 
L 327.979899 92.395702 
L 333.868342 94.958278 
L 339.756784 97.785175 
L 345.645226 100.882107 
L 351.843586 104.459698 
L 357.888522 108.28402 
L 363.438961 112.108342 
L 369.198995 116.427899 
L 373.325937 119.756985 
L 377.764002 123.581307 
L 382.938693 128.384293 
L 387.673421 133.142111 
L 391.226131 136.966432 
L 394.715578 140.959972 
L 399.231423 146.527236 
L 403.501508 152.263719 
L 407.415375 158.000201 
L 411.000603 163.736683 
L 414.343719 169.588356 
L 417.269653 175.209648 
L 420.232161 181.484767 
L 422.453549 186.682613 
L 424.668817 192.419095 
L 426.648611 198.155578 
L 428.401098 203.89206 
L 430.046231 210.094923 
L 431.246352 215.365025 
L 432.352815 221.101508 
L 433.251052 226.83799 
L 433.971859 232.799432 
L 434.443373 238.310955 
L 434.73944 244.047437 
L 434.838129 249.78392 
L 434.73944 255.520402 
L 434.443373 261.256884 
L 433.949681 266.993367 
L 433.251052 272.729849 
L 432.352815 278.466332 
L 431.246352 284.202814 
L 429.932774 289.939296 
L 428.083417 296.768442 
L 426.648611 301.412261 
L 424.668817 307.148744 
L 422.194975 313.5131 
L 419.991325 318.621709 
L 417.269653 324.358191 
L 414.281209 330.094673 
L 411.000603 335.831156 
L 407.415375 341.567638 
L 403.501508 347.304121 
L 400.60402 351.253537 
L 396.170037 356.864925 
L 392.752764 360.885365 
L 388.827136 365.208899 
L 383.896918 370.25005 
L 379.013065 374.862591 
L 375.087437 378.323618 
L 370.988109 381.723015 
L 365.273367 386.122322 
L 359.384925 390.282211 
L 353.496482 394.095075 
L 347.60804 397.587781 
L 341.601356 400.844623 
L 335.831156 403.695049 
L 329.389808 406.581106 
L 324.054271 408.745168 
L 318.165829 410.903268 
L 312.277387 412.83197 
L 306.388945 414.539231 
L 300.021767 416.14191 
L 294.61206 417.311059 
L 288.723618 418.388969 
L 282.835176 419.264025 
L 276.715814 419.966231 
L 271.058291 420.425577 
L 265.169849 420.714004 
L 259.281407 420.810146 
L 253.392965 420.714004 
L 247.504523 420.425577 
L 241.61608 419.944625 
L 235.727638 419.264025 
L 229.839196 418.388969 
L 223.950754 417.311059 
L 218.062312 416.03138 
L 211.052261 414.229749 
L 206.285427 412.83197 
L 200.396985 410.903268 
L 193.864037 408.493266 
L 188.620101 406.346485 
L 182.731658 403.695049 
L 176.843216 400.783726 
L 170.954774 397.587781 
L 165.066332 394.095075 
L 159.177889 390.282211 
L 155.123853 387.459497 
L 149.363819 383.13994 
L 145.236877 379.810854 
L 140.798812 375.986533 
L 135.624121 371.183546 
L 130.889394 366.425729 
L 127.336683 362.601407 
L 123.847236 358.607868 
L 119.331391 353.040603 
L 115.061307 347.304121 
L 111.147439 341.567638 
L 107.562211 335.831156 
L 104.219095 329.979483 
L 101.293161 324.358191 
L 98.330653 318.083072 
L 96.109265 312.885226 
L 93.893997 307.148744 
L 91.914203 301.412261 
L 90.161716 295.675779 
L 88.516583 289.472916 
L 87.316462 284.202814 
L 86.209999 278.466332 
L 85.311762 272.729849 
L 84.590955 266.768407 
L 84.119441 261.256884 
L 83.823374 255.520402 
L 83.724685 249.78392 
L 83.823374 244.047437 
L 84.119441 238.310955 
L 84.613133 232.574472 
L 85.311762 226.83799 
L 86.209999 221.101508 
L 87.316462 215.365025 
L 88.63004 209.628543 
L 90.479397 202.799397 
L 91.914203 198.155578 
L 93.893997 192.419095 
L 96.367839 186.054739 
L 98.571489 180.946131 
L 101.293161 175.209648 
L 104.281605 169.473166 
L 107.562211 163.736683 
L 111.147439 158.000201 
L 115.061307 152.263719 
L 117.958794 148.314302 
L 122.392777 142.702915 
L 125.81005 138.682474 
L 129.735678 134.35894 
L 134.169974 129.808643 
L 134.169974 129.808643 
" style="fill:none;stroke:#22a884;stroke-width:1.5;"/>
   </g>
   <g id="LineCollection_5">
    <path clip-path="url(#p13b7c9400a)" d="M 259.281407 441 
L 257.318593 440.990391 
L 255.355779 440.961565 
L 253.392965 440.91352 
L 251.430151 440.846258 
L 249.467337 440.759779 
L 247.504523 440.654081 
L 245.541709 440.529166 
L 243.578894 440.385034 
L 241.61608 440.221683 
L 239.653266 440.039115 
L 237.690452 439.837329 
L 235.727638 439.616326 
L 233.764824 439.376105 
L 231.80201 439.116666 
L 231.59896 439.087839 
L 229.839196 438.835473 
L 227.876382 438.534574 
L 225.913568 438.214263 
L 223.950754 437.874539 
L 221.98794 437.515402 
L 220.22644 437.175678 
L 220.025126 437.136455 
L 218.062312 436.734411 
L 216.099497 436.312755 
L 214.136683 435.871487 
L 212.173869 435.410607 
L 211.573008 435.263518 
L 210.211055 434.92666 
L 208.248241 434.421374 
L 206.285427 433.896273 
L 204.322613 433.351357 
L 204.322613 433.351357 
L 202.359799 432.780712 
L 200.396985 432.190044 
L 198.434171 431.579354 
L 197.99799 431.439196 
L 196.471357 430.943451 
L 194.508543 430.285829 
L 192.545729 429.607973 
L 192.318156 429.527035 
L 190.582915 428.903282 
L 188.620101 428.177275 
L 187.141268 427.614874 
L 186.657286 427.428826 
L 184.694472 426.653626 
L 182.731658 425.857754 
L 182.358972 425.702714 
L 180.768844 425.03398 
L 178.80603 424.187613 
L 177.907392 423.790553 
L 176.843216 423.315154 
L 174.880402 422.417178 
L 173.729787 421.878392 
L 172.917588 421.493823 
L 170.954774 420.543084 
L 169.790027 419.966231 
L 168.99196 419.566514 
L 167.029146 418.561819 
L 166.058069 418.05407 
L 165.066332 417.529592 
L 163.103518 416.469709 
L 162.508725 416.14191 
L 161.140704 415.379256 
L 159.177889 414.262908 
L 159.12072 414.229749 
L 157.215075 413.111526 
L 155.887839 412.317588 
L 155.252261 411.932893 
L 154.445553 411.435317 
" style="fill:none;stroke:#7ad151;stroke-width:1.5;"/>
    <path clip-path="url(#p13b7c9400a)" d="M 119.359335 383.879767 
L 119.111776 383.635176 
L 117.958794 382.479625 
L 117.214278 381.723015 
L 115.99598 380.466851 
L 115.368413 379.810854 
L 114.033166 378.394439 
L 113.572102 377.898693 
L 112.070352 376.259698 
L 111.823375 375.986533 
L 110.120536 374.074372 
L 110.107538 374.059549 
L 108.465445 372.162211 
L 108.144724 371.785801 
L 106.853065 370.25005 
L 106.18191 369.439294 
L 105.281766 368.337889 
L 104.219095 367.016478 
L 103.749995 366.425729 
L 102.256281 364.513568 
L 102.256281 364.513568 
L 100.805506 362.601407 
L 100.293467 361.91499 
L 99.390332 360.689246 
L 98.330653 359.226028 
L 98.009466 358.777085 
L 96.665235 356.864925 
L 96.367839 356.434258 
L 95.357049 354.952764 
L 94.405025 353.5318 
L 94.079825 353.040603 
L 92.837097 351.128442 
L 92.442211 350.509266 
L 91.627241 349.216281 
L 90.479397 347.359815 
L 90.44536 347.304121 
L 89.299439 345.39196 
L 88.516583 344.059242 
L 88.180101 343.479799 
L 87.092141 341.567638 
L 86.553769 340.601494 
L 86.03257 339.655477 
L 85.001261 337.743317 
L 84.590955 336.965845 
L 83.998821 335.831156 
L 83.022897 333.918995 
L 82.628141 333.127756 
L 82.075083 332.006834 
L 81.153319 330.094673 
L 80.665327 329.05796 
L 80.257748 328.182513 
L 79.388961 326.270352 
L 78.702513 324.721259 
L 78.543365 324.358191 
L 77.72641 322.44603 
L 76.930675 320.533869 
L 76.739698 320.062378 
L 76.1624 318.621709 
L 75.417161 316.709548 
L 74.776884 315.019087 
L 74.693802 314.797387 
L 73.99799 312.885226 
L 73.322948 310.973065 
L 72.81407 309.485829 
L 72.670199 309.060905 
L 72.043332 307.148744 
L 71.437018 305.236583 
L 70.851256 303.324422 
L 70.851256 303.324422 
L 70.291905 301.412261 
L 69.752894 299.500101 
L 69.234223 297.58794 
L 68.888442 296.261134 
L 68.737457 295.675779 
L 68.264368 293.763618 
L 67.811411 291.851457 
L 67.378585 289.939296 
L 66.965891 288.027136 
L 66.925628 287.831017 
L 66.576905 286.114975 
L 66.208254 284.202814 
L 65.859531 282.290653 
L 65.530735 280.378492 
L 65.221866 278.466332 
L 64.962814 276.751981 
L 64.933224 276.554171 
L 64.666912 274.64201 
L 64.420328 272.729849 
L 64.19347 270.817688 
L 63.986339 268.905528 
L 63.798934 266.993367 
L 63.631257 265.081206 
L 63.483306 263.169045 
L 63.355082 261.256884 
L 63.246585 259.344724 
L 63.157814 257.432563 
L 63.08877 255.520402 
L 63.039454 253.608241 
L 63.009863 251.69608 
L 63 249.78392 
" style="fill:none;stroke:#7ad151;stroke-width:1.5;"/>
    <path clip-path="url(#p13b7c9400a)" d="M 453.6 276.751981 
L 453.340948 278.466332 
L 453.032079 280.378492 
L 452.703283 282.290653 
L 452.35456 284.202814 
L 451.985909 286.114975 
L 451.637186 287.831017 
L 451.596923 288.027136 
L 451.184229 289.939296 
L 450.751403 291.851457 
L 450.298446 293.763618 
L 449.825358 295.675779 
L 449.674372 296.261134 
L 449.328591 297.58794 
L 448.80992 299.500101 
L 448.270909 301.412261 
L 447.711558 303.324422 
L 447.711558 303.324422 
L 447.125797 305.236583 
L 446.519482 307.148744 
L 445.892615 309.060905 
L 445.748744 309.485829 
L 445.239866 310.973065 
L 444.564824 312.885226 
L 443.869012 314.797387 
L 443.78593 315.019087 
L 443.145653 316.709548 
L 442.400414 318.621709 
L 441.823116 320.062378 
L 441.632139 320.533869 
L 440.836404 322.44603 
L 440.019449 324.358191 
L 439.860302 324.721259 
L 439.173853 326.270352 
L 438.305066 328.182513 
L 437.897487 329.05796 
L 437.409495 330.094673 
L 436.487731 332.006834 
L 435.934673 333.127756 
L 435.539917 333.918995 
L 434.563993 335.831156 
L 433.971859 336.965845 
L 433.561554 337.743317 
L 432.530244 339.655477 
L 432.009045 340.601494 
L 431.470673 341.567638 
L 430.382714 343.479799 
L 430.046231 344.059242 
L 429.263375 345.39196 
L 428.117454 347.304121 
L 428.083417 347.359815 
L 426.935573 349.216281 
L 426.120603 350.509266 
L 425.725717 351.128442 
L 424.482989 353.040603 
L 424.157789 353.5318 
L 423.205765 354.952764 
L 422.194975 356.434258 
L 421.897579 356.864925 
L 420.553349 358.777085 
L 420.232161 359.226028 
L 419.172482 360.689246 
L 418.269347 361.91499 
L 417.757308 362.601407 
L 416.306533 364.513568 
L 416.306533 364.513568 
L 414.812819 366.425729 
L 414.343719 367.016478 
L 413.281049 368.337889 
L 412.380905 369.439294 
L 411.709749 370.25005 
L 410.41809 371.785801 
L 410.097369 372.162211 
L 408.455276 374.059549 
L 408.442278 374.074372 
L 406.739439 375.986533 
L 406.492462 376.259698 
L 404.990712 377.898693 
L 404.529648 378.394439 
L 403.194401 379.810854 
L 402.566834 380.466851 
L 401.348536 381.723015 
L 400.60402 382.479625 
L 399.451038 383.635176 
L 398.641206 384.4353 
L 397.499711 385.547337 
L 396.678392 386.33627 
L 395.492231 387.459497 
L 394.715578 388.1848 
L 393.426138 389.371658 
L 392.752764 389.983029 
L 391.298827 391.283819 
L 390.78995 391.732984 
L 390.706249 391.805769 
" style="fill:none;stroke:#7ad151;stroke-width:1.5;"/>
    <path clip-path="url(#p13b7c9400a)" d="M 354.780883 416.836039 
L 353.496482 417.529592 
L 352.504745 418.05407 
L 351.533668 418.561819 
L 349.570854 419.566514 
L 348.772787 419.966231 
L 347.60804 420.543084 
L 345.645226 421.493823 
L 344.833027 421.878392 
L 343.682412 422.417178 
L 341.719598 423.315154 
L 340.655422 423.790553 
L 339.756784 424.187613 
L 337.79397 425.03398 
L 336.203842 425.702714 
L 335.831156 425.857754 
L 333.868342 426.653626 
L 331.905528 427.428826 
L 331.421546 427.614874 
L 329.942714 428.177275 
L 327.979899 428.903282 
L 326.244658 429.527035 
L 326.017085 429.607973 
L 324.054271 430.285829 
L 322.091457 430.943451 
L 320.564824 431.439196 
L 320.128643 431.579354 
L 318.165829 432.190044 
L 316.203015 432.780712 
L 314.240201 433.351357 
L 314.240201 433.351357 
L 312.277387 433.896273 
L 310.314573 434.421374 
L 308.351759 434.92666 
L 306.989806 435.263518 
L 306.388945 435.410607 
L 304.426131 435.871487 
L 302.463317 436.312755 
L 300.500503 436.734411 
L 298.537688 437.136455 
L 298.336374 437.175678 
L 296.574874 437.515402 
L 294.61206 437.874539 
L 292.649246 438.214263 
L 290.686432 438.534574 
L 288.723618 438.835473 
L 286.963854 439.087839 
L 286.760804 439.116666 
L 284.79799 439.376105 
L 282.835176 439.616326 
L 280.872362 439.837329 
L 278.909548 440.039115 
L 276.946734 440.221683 
L 274.98392 440.385034 
L 273.021106 440.529166 
L 271.058291 440.654081 
L 269.095477 440.759779 
L 267.132663 440.846258 
L 265.169849 440.91352 
L 263.207035 440.961565 
L 261.244221 440.990391 
L 259.281407 441 
" style="fill:none;stroke:#7ad151;stroke-width:1.5;"/>
    <path clip-path="url(#p13b7c9400a)" d="M 63 249.78392 
L 63.009863 247.871759 
L 63.039454 245.959598 
L 63.08877 244.047437 
L 63.157814 242.135276 
L 63.246585 240.223116 
L 63.355082 238.310955 
L 63.483306 236.398794 
L 63.631257 234.486633 
L 63.798934 232.574472 
L 63.986339 230.662312 
L 64.19347 228.750151 
L 64.420328 226.83799 
L 64.666912 224.925829 
L 64.933224 223.013668 
L 64.962814 222.815859 
L 65.221866 221.101508 
L 65.530735 219.189347 
L 65.859531 217.277186 
L 66.208254 215.365025 
L 66.576905 213.452864 
L 66.925628 211.736823 
L 66.965891 211.540704 
L 67.378585 209.628543 
L 67.811411 207.716382 
L 68.264368 205.804221 
L 68.737457 203.89206 
L 68.888442 203.306705 
L 69.234223 201.979899 
L 69.752894 200.067739 
L 70.291905 198.155578 
L 70.851256 196.243417 
L 70.851256 196.243417 
L 71.437018 194.331256 
L 72.043332 192.419095 
L 72.670199 190.506935 
L 72.81407 190.08201 
L 73.322948 188.594774 
L 73.99799 186.682613 
L 74.693802 184.770452 
L 74.776884 184.548752 
L 75.417161 182.858291 
L 76.1624 180.946131 
L 76.739698 179.505462 
L 76.930675 179.03397 
L 77.72641 177.121809 
L 78.543365 175.209648 
L 78.702513 174.84658 
L 79.388961 173.297487 
L 80.257748 171.385327 
L 80.665327 170.50988 
L 81.153319 169.473166 
L 82.075083 167.561005 
L 82.628141 166.440083 
L 83.022897 165.648844 
L 83.998821 163.736683 
L 84.590955 162.601995 
L 85.001261 161.824523 
L 86.03257 159.912362 
L 86.553769 158.966345 
L 87.092141 158.000201 
L 88.180101 156.08804 
L 88.516583 155.508598 
L 89.299439 154.175879 
L 90.44536 152.263719 
L 90.479397 152.208025 
L 91.627241 150.351558 
L 91.642104 150.327978 
" style="fill:none;stroke:#7ad151;stroke-width:1.5;"/>
    <path clip-path="url(#p13b7c9400a)" d="M 122.305367 112.832958 
L 123.070583 112.108342 
L 123.847236 111.383039 
L 125.136676 110.196181 
L 125.81005 109.58481 
L 127.263987 108.28402 
L 127.772864 107.834855 
L 129.455276 106.371859 
L 129.735678 106.131256 
L 131.698492 104.472362 
L 131.713708 104.459698 
L 133.661307 102.859982 
L 134.047687 102.547538 
L 135.624121 101.289213 
L 136.456354 100.635377 
L 137.586935 99.758462 
L 138.943351 98.723216 
L 139.549749 98.266222 
L 141.512563 96.811055 
L 141.512563 96.811055 
L 143.475377 95.397719 
L 144.179977 94.898894 
L 145.438191 94.019066 
L 146.94017 92.986734 
L 147.401005 92.673835 
L 149.363819 91.364294 
L 149.805894 91.074573 
L 151.326633 90.089867 
L 152.785238 89.162412 
L 153.289447 88.845604 
L 155.252261 87.634946 
L 155.887839 87.250251 
L 157.215075 86.456313 
L 159.12072 85.33809 
L 159.177889 85.304932 
L 161.140704 84.188583 
L 162.508725 83.42593 
L 163.103518 83.098131 
L 165.066332 82.038247 
L 166.058069 81.513769 
L 167.029146 81.00602 
L 168.99196 80.001325 
L 169.790027 79.601608 
L 170.954774 79.024755 
L 172.917588 78.074016 
L 173.729787 77.689447 
L 174.880402 77.150662 
L 176.843216 76.252686 
L 177.907392 75.777286 
L 178.80603 75.380226 
L 180.768844 74.533859 
L 182.358972 73.865126 
L 182.731658 73.710086 
L 184.694472 72.914213 
L 186.657286 72.139013 
L 187.141268 71.952965 
L 188.620101 71.390565 
L 190.582915 70.664557 
L 192.318156 70.040804 
L 192.545729 69.959866 
L 194.508543 69.28201 
L 196.471357 68.624389 
L 197.99799 68.128643 
L 198.434171 67.988485 
L 200.396985 67.377795 
L 202.359799 66.787127 
L 204.322613 66.216482 
L 204.322613 66.216482 
L 206.285427 65.671566 
L 208.248241 65.146465 
L 210.211055 64.641179 
L 211.573008 64.304322 
L 212.173869 64.157232 
L 214.136683 63.696353 
L 216.099497 63.255085 
L 218.062312 62.833429 
L 220.025126 62.431385 
L 220.22644 62.392161 
L 221.98794 62.052437 
L 223.950754 61.6933 
L 225.913568 61.353576 
L 227.876382 61.033265 
L 229.839196 60.732366 
L 231.59896 60.48 
" style="fill:none;stroke:#7ad151;stroke-width:1.5;"/>
    <path clip-path="url(#p13b7c9400a)" d="M 286.963854 60.48 
L 288.723618 60.732366 
L 290.686432 61.033265 
L 292.649246 61.353576 
L 294.61206 61.6933 
L 296.574874 62.052437 
L 298.336374 62.392161 
L 298.537688 62.431385 
L 300.500503 62.833429 
L 302.463317 63.255085 
L 304.426131 63.696353 
L 306.388945 64.157232 
L 306.989806 64.304322 
L 308.351759 64.641179 
L 310.314573 65.146465 
L 312.277387 65.671566 
L 314.240201 66.216482 
L 314.240201 66.216482 
L 316.203015 66.787127 
L 318.165829 67.377795 
L 320.128643 67.988485 
L 320.564824 68.128643 
L 322.091457 68.624389 
L 322.528461 68.770802 
" style="fill:none;stroke:#7ad151;stroke-width:1.5;"/>
    <path clip-path="url(#p13b7c9400a)" d="M 360.466483 85.939196 
L 361.347739 86.456313 
L 362.674975 87.250251 
L 363.310553 87.634946 
L 365.273367 88.845604 
L 365.777576 89.162412 
L 367.236181 90.089867 
L 368.75692 91.074573 
L 369.198995 91.364294 
L 371.161809 92.673835 
L 371.622644 92.986734 
L 373.124623 94.019066 
L 374.382837 94.898894 
L 375.087437 95.397719 
L 377.050251 96.811055 
L 377.050251 96.811055 
L 379.013065 98.266222 
L 379.619463 98.723216 
L 380.975879 99.758462 
L 382.10646 100.635377 
L 382.938693 101.289213 
L 384.515127 102.547538 
L 384.901508 102.859982 
L 386.849106 104.459698 
L 386.864322 104.472362 
L 388.827136 106.131256 
L 389.107538 106.371859 
L 390.78995 107.834855 
L 391.298827 108.28402 
L 392.752764 109.58481 
L 393.426138 110.196181 
L 394.715578 111.383039 
L 395.492231 112.108342 
L 396.678392 113.231569 
L 397.499711 114.020503 
L 398.641206 115.132539 
L 399.451038 115.932663 
L 400.60402 117.088214 
L 401.348536 117.844824 
L 402.566834 119.100988 
L 403.194401 119.756985 
L 404.529648 121.1734 
L 404.990712 121.669146 
L 406.492462 123.308141 
L 406.739439 123.581307 
L 408.442278 125.493467 
L 408.455276 125.50829 
L 410.097369 127.405628 
L 410.41809 127.782038 
L 411.709749 129.317789 
L 412.380905 130.128545 
L 413.281049 131.22995 
L 414.343719 132.551362 
L 414.812819 133.142111 
L 416.306533 135.054271 
L 416.306533 135.054271 
L 417.757308 136.966432 
L 418.269347 137.652849 
L 419.172482 138.878593 
L 420.232161 140.341812 
L 420.553349 140.790754 
L 421.897579 142.702915 
L 422.194975 143.133581 
L 423.205765 144.615075 
L 424.157789 146.036039 
L 424.482989 146.527236 
L 425.725717 148.439397 
L 426.120603 149.058573 
L 426.935573 150.351558 
L 428.083417 152.208025 
L 428.117454 152.263719 
L 429.263375 154.175879 
L 430.046231 155.508598 
L 430.382714 156.08804 
L 431.470673 158.000201 
L 432.009045 158.966345 
L 432.530244 159.912362 
L 433.561554 161.824523 
L 433.971859 162.601995 
L 434.563993 163.736683 
L 435.539917 165.648844 
L 435.934673 166.440083 
L 436.487731 167.561005 
L 437.409495 169.473166 
L 437.897487 170.50988 
L 438.305066 171.385327 
L 439.173853 173.297487 
L 439.860302 174.84658 
L 440.019449 175.209648 
L 440.836404 177.121809 
L 441.632139 179.03397 
L 441.823116 179.505462 
L 442.400414 180.946131 
L 443.145653 182.858291 
L 443.78593 184.548752 
L 443.869012 184.770452 
L 444.564824 186.682613 
L 445.239866 188.594774 
L 445.748744 190.08201 
L 445.892615 190.506935 
L 446.519482 192.419095 
L 447.125797 194.331256 
L 447.711558 196.243417 
L 447.711558 196.243417 
L 448.270909 198.155578 
L 448.80992 200.067739 
L 449.328591 201.979899 
L 449.674372 203.306705 
L 449.825358 203.89206 
L 450.298446 205.804221 
L 450.751403 207.716382 
L 451.184229 209.628543 
L 451.596923 211.540704 
L 451.637186 211.736823 
L 451.985909 213.452864 
L 452.35456 215.365025 
L 452.703283 217.277186 
L 453.032079 219.189347 
L 453.340948 221.101508 
L 453.6 222.815859 
" style="fill:none;stroke:#7ad151;stroke-width:1.5;"/>
   </g>
   <g id="LineCollection_6">
    <path clip-path="url(#p13b7c9400a)" d="M 171.506126 441 
L 170.954774 440.759779 
L 168.99196 439.885374 
L 167.240201 439.087839 
L 167.029146 438.990775 
L 165.066332 438.068667 
L 163.204694 437.175678 
L 163.103518 437.126649 
L 161.140704 436.155859 
L 159.372227 435.263518 
L 159.177889 435.164442 
L 157.215075 434.143962 
L 155.719598 433.351357 
L 155.252261 433.101074 
L 153.289447 432.029863 
L 152.227007 431.439196 
L 151.326633 430.933333 
L 149.363819 429.810318 
L 148.877458 429.527035 
L 147.401005 428.657871 
L 145.660074 427.614874 
L 145.438191 427.480506 
L 143.475377 426.271194 
L 142.568194 425.702714 
L 141.512563 425.03398 
L 139.582192 423.790553 
L 139.549749 423.769424 
L 137.586935 422.47 
L 136.707594 421.878392 
L 135.624121 421.141302 
L 133.924045 419.966231 
L 133.661307 419.782577 
L 131.698492 418.388969 
L 131.23401 418.05407 
L 129.735678 416.961407 
L 128.628828 416.14191 
L 127.772864 415.500838 
L 126.100838 414.229749 
L 125.81005 414.006104 
L 123.847236 412.474139 
L 123.649543 412.317588 
L 121.884422 410.903268 
L 121.271913 410.405427 
L 119.921608 409.294771 
L 119.412934 408.87044 
" style="fill:none;stroke:#fde725;stroke-width:1.5;"/>
    <path clip-path="url(#p13b7c9400a)" d="M 86.899132 374.976325 
L 86.553769 374.526868 
L 86.209999 374.074372 
L 84.779474 372.162211 
L 84.590955 371.906253 
L 83.384756 370.25005 
L 82.628141 369.194537 
L 82.020861 368.337889 
L 80.687015 366.425729 
L 80.665327 366.394123 
L 79.388961 364.513568 
L 78.702513 363.485179 
L 78.118973 362.601407 
L 76.877626 360.689246 
L 76.739698 360.473089 
L 75.669073 358.777085 
L 74.776884 357.338734 
L 74.486097 356.864925 
L 73.333333 354.952764 
L 72.81407 354.075626 
L 72.207756 353.040603 
L 71.108169 351.128442 
L 70.851256 350.673166 
L 70.037655 349.216281 
L 68.990142 347.304121 
L 68.888442 347.114798 
L 67.972462 345.39196 
L 66.975957 343.479799 
L 66.925628 343.381234 
L 66.008984 341.567638 
L 65.062449 339.655477 
L 64.962814 339.449869 
L 64.144153 337.743317 
L 63.246585 335.831156 
L 63 335.294032 
" style="fill:none;stroke:#fde725;stroke-width:1.5;"/>
    <path clip-path="url(#p13b7c9400a)" d="M 431.65866 374.98286 
L 430.887437 375.986533 
L 430.046231 377.064819 
L 429.388178 377.898693 
L 428.083417 379.527571 
L 427.853848 379.810854 
L 426.281301 381.723015 
L 426.120603 381.915607 
L 424.668817 383.635176 
L 424.157789 384.231879 
L 423.017711 385.547337 
L 422.194975 386.483359 
L 421.326578 387.459497 
L 420.232161 388.672731 
L 419.593945 389.371658 
L 418.269347 390.802527 
L 417.818265 391.283819 
L 416.306533 392.875148 
L 415.997914 393.19598 
L 414.343719 394.892864 
L 414.131185 395.108141 
L 412.380905 396.85783 
L 412.216281 397.020302 
L 410.41809 398.772088 
L 410.251315 398.932462 
L 408.455276 400.637574 
L 408.234297 400.844623 
L 406.492462 402.45613 
L 406.163131 402.756784 
L 404.529648 404.229504 
L 404.035607 404.668945 
L 402.566834 405.95936 
L 401.849392 406.581106 
L 400.60402 407.64728 
L 399.602024 408.493266 
L 398.641206 409.294771 
L 397.290901 410.405427 
L 396.678392 410.903268 
L 394.913271 412.317588 
L 394.715578 412.474139 
L 392.752764 414.006104 
L 392.461977 414.229749 
L 390.78995 415.500838 
L 389.933986 416.14191 
L 388.827136 416.961407 
L 387.328804 418.05407 
L 386.864322 418.388969 
L 384.901508 419.782577 
L 384.638769 419.966231 
L 382.938693 421.141302 
L 381.85522 421.878392 
L 380.975879 422.47 
L 379.013065 423.769424 
L 378.980622 423.790553 
L 377.050251 425.03398 
L 375.99462 425.702714 
L 375.087437 426.271194 
L 373.124623 427.480506 
L 372.90274 427.614874 
L 371.161809 428.657871 
L 369.685356 429.527035 
L 369.198995 429.810318 
L 367.236181 430.933333 
L 366.335807 431.439196 
L 365.273367 432.029863 
L 363.310553 433.101074 
L 362.843216 433.351357 
L 361.347739 434.143962 
L 359.384925 435.164442 
L 359.190587 435.263518 
L 357.422111 436.155859 
L 355.459296 437.126649 
L 355.35812 437.175678 
L 353.496482 438.068667 
L 351.533668 438.990775 
L 351.322613 439.087839 
L 349.570854 439.885374 
L 347.60804 440.759779 
L 347.056688 441 
" style="fill:none;stroke:#fde725;stroke-width:1.5;"/>
    <path clip-path="url(#p13b7c9400a)" d="M 84.659107 127.569054 
L 84.779474 127.405628 
L 86.209999 125.493467 
L 86.553769 125.040971 
L 87.675377 123.581307 
L 88.516583 122.50302 
L 89.174636 121.669146 
L 90.479397 120.040268 
L 90.708966 119.756985 
L 92.281513 117.844824 
L 92.442211 117.652232 
L 93.893997 115.932663 
L 94.405025 115.335961 
L 95.545103 114.020503 
L 96.367839 113.08448 
L 97.236236 112.108342 
L 98.330653 110.895109 
L 98.968869 110.196181 
L 100.293467 108.765312 
L 100.744549 108.28402 
L 102.256281 106.692692 
L 102.5649 106.371859 
L 104.219095 104.674975 
L 104.431629 104.459698 
L 106.18191 102.710009 
L 106.346533 102.547538 
L 108.144724 100.795752 
L 108.311499 100.635377 
L 110.107538 98.930265 
L 110.328517 98.723216 
L 112.070352 97.111709 
L 112.399683 96.811055 
L 114.033166 95.338335 
L 114.527207 94.898894 
L 115.99598 93.608479 
L 116.713422 92.986734 
L 117.958794 91.920559 
L 118.96079 91.074573 
L 119.921608 90.273068 
L 121.271913 89.162412 
L 121.884422 88.664571 
L 123.649543 87.250251 
L 123.847236 87.0937 
L 125.81005 85.561735 
L 126.100838 85.33809 
L 127.772864 84.067001 
L 128.628828 83.42593 
L 129.735678 82.606432 
L 131.23401 81.513769 
L 131.698492 81.178871 
L 133.661307 79.785262 
L 133.924045 79.601608 
L 135.624121 78.426537 
L 136.707594 77.689447 
L 137.586935 77.097839 
L 139.549749 75.798415 
L 139.582192 75.777286 
L 141.512563 74.533859 
L 142.568194 73.865126 
L 143.475377 73.296645 
L 145.438191 72.087333 
L 145.660074 71.952965 
L 147.401005 70.909968 
L 148.877458 70.040804 
L 149.363819 69.757521 
L 151.326633 68.634506 
L 152.227007 68.128643 
L 153.289447 67.537976 
L 155.252261 66.466765 
L 155.719598 66.216482 
L 157.215075 65.423877 
L 159.177889 64.403397 
L 159.372227 64.304322 
L 161.140704 63.41198 
L 163.103518 62.441191 
L 163.204694 62.392161 
L 165.066332 61.499172 
L 167.029146 60.577064 
L 167.240201 60.48 
" style="fill:none;stroke:#fde725;stroke-width:1.5;"/>
    <path clip-path="url(#p13b7c9400a)" d="M 351.322613 60.48 
L 351.533668 60.577064 
L 353.496482 61.499172 
L 355.35812 62.392161 
L 355.459296 62.441191 
L 357.422111 63.41198 
L 359.190587 64.304322 
L 359.384925 64.403397 
L 361.347739 65.423877 
L 362.843216 66.216482 
L 363.310553 66.466765 
L 365.273367 67.537976 
L 366.335807 68.128643 
L 367.236181 68.634506 
L 369.198995 69.757521 
L 369.685356 70.040804 
L 371.161809 70.909968 
L 372.90274 71.952965 
L 373.124623 72.087333 
L 375.087437 73.296645 
L 375.99462 73.865126 
L 376.793674 74.37132 
" style="fill:none;stroke:#fde725;stroke-width:1.5;"/>
    <path clip-path="url(#p13b7c9400a)" d="M 411.811623 102.153322 
L 412.216281 102.547538 
L 412.380905 102.710009 
L 414.131185 104.459698 
L 414.343719 104.674975 
L 415.997914 106.371859 
L 416.306533 106.692692 
L 417.818265 108.28402 
L 418.269347 108.765312 
L 419.593945 110.196181 
L 420.232161 110.895109 
L 421.326578 112.108342 
L 422.194975 113.08448 
L 423.017711 114.020503 
L 424.157789 115.335961 
L 424.668817 115.932663 
L 426.120603 117.652232 
L 426.281301 117.844824 
L 427.853848 119.756985 
L 428.083417 120.040268 
L 429.388178 121.669146 
L 430.046231 122.50302 
L 430.887437 123.581307 
L 432.009045 125.040971 
L 432.352815 125.493467 
L 433.78334 127.405628 
L 433.971859 127.661587 
L 435.178058 129.317789 
L 435.934673 130.373302 
L 436.541953 131.22995 
L 437.875799 133.142111 
L 437.897487 133.173717 
L 439.173853 135.054271 
L 439.860302 136.08266 
L 440.443841 136.966432 
L 441.685188 138.878593 
L 441.823116 139.09475 
L 442.893741 140.790754 
L 443.78593 142.229105 
L 444.076717 142.702915 
L 445.229481 144.615075 
L 445.748744 145.492213 
L 446.355058 146.527236 
L 447.454645 148.439397 
L 447.711558 148.894673 
L 448.525159 150.351558 
L 449.572672 152.263719 
L 449.674372 152.453041 
L 450.590352 154.175879 
L 451.586857 156.08804 
L 451.637186 156.186605 
L 452.55383 158.000201 
L 453.500365 159.912362 
L 453.6 160.11797 
" style="fill:none;stroke:#fde725;stroke-width:1.5;"/>
   </g>
   <g id="patch_3">
    <path d="M 63 441 
L 63 60.48 
" style="fill:none;stroke:#000000;stroke-linecap:square;stroke-linejoin:miter;stroke-width:0.8;"/>
   </g>
   <g id="patch_4">
    <path d="M 453.6 441 
L 453.6 60.48 
" style="fill:none;stroke:#000000;stroke-linecap:square;stroke-linejoin:miter;stroke-width:0.8;"/>
   </g>
   <g id="patch_5">
    <path d="M 63 441 
L 453.6 441 
" style="fill:none;stroke:#000000;stroke-linecap:square;stroke-linejoin:miter;stroke-width:0.8;"/>
   </g>
   <g id="patch_6">
    <path d="M 63 60.48 
L 453.6 60.48 
" style="fill:none;stroke:#000000;stroke-linecap:square;stroke-linejoin:miter;stroke-width:0.8;"/>
   </g>
   <g id="text_19">
    <g clip-path="url(#p13b7c9400a)">
     <!-- 10.0 -->
     <g style="fill:#440154;" transform="translate(195.764531 190.743992)rotate(-27.821438)scale(0.1 -0.1)">
      <use xlink:href="#DejaVuSans-31"/>
      <use x="63.623047" xlink:href="#DejaVuSans-30"/>
      <use x="127.246094" xlink:href="#DejaVuSans-2e"/>
      <use x="159.033203" xlink:href="#DejaVuSans-30"/>
     </g>
    </g>
   </g>
   <g id="text_20">
    <g clip-path="url(#p13b7c9400a)">
     <!-- 20.0 -->
     <g style="fill:#414487;" transform="translate(224.337165 369.867108)rotate(-352.816833)scale(0.1 -0.1)">
      <use xlink:href="#DejaVuSans-32"/>
      <use x="63.623047" xlink:href="#DejaVuSans-30"/>
      <use x="127.246094" xlink:href="#DejaVuSans-2e"/>
      <use x="159.033203" xlink:href="#DejaVuSans-30"/>
     </g>
    </g>
   </g>
   <g id="text_21">
    <g clip-path="url(#p13b7c9400a)">
     <!-- 30.0 -->
     <defs>
      <path d="M 40.578125 39.3125 
Q 47.65625 37.796875 51.625 33 
Q 55.609375 28.21875 55.609375 21.1875 
Q 55.609375 10.40625 48.1875 4.484375 
Q 40.765625 -1.421875 27.09375 -1.421875 
Q 22.515625 -1.421875 17.65625 -0.515625 
Q 12.796875 0.390625 7.625 2.203125 
L 7.625 11.71875 
Q 11.71875 9.328125 16.59375 8.109375 
Q 21.484375 6.890625 26.8125 6.890625 
Q 36.078125 6.890625 40.9375 10.546875 
Q 45.796875 14.203125 45.796875 21.1875 
Q 45.796875 27.640625 41.28125 31.265625 
Q 36.765625 34.90625 28.71875 34.90625 
L 20.21875 34.90625 
L 20.21875 43.015625 
L 29.109375 43.015625 
Q 36.375 43.015625 40.234375 45.921875 
Q 44.09375 48.828125 44.09375 54.296875 
Q 44.09375 59.90625 40.109375 62.90625 
Q 36.140625 65.921875 28.71875 65.921875 
Q 24.65625 65.921875 20.015625 65.03125 
Q 15.375 64.15625 9.8125 62.3125 
L 9.8125 71.09375 
Q 15.4375 72.65625 20.34375 73.4375 
Q 25.25 74.21875 29.59375 74.21875 
Q 40.828125 74.21875 47.359375 69.109375 
Q 53.90625 64.015625 53.90625 55.328125 
Q 53.90625 49.265625 50.4375 45.09375 
Q 46.96875 40.921875 40.578125 39.3125 
z
" id="DejaVuSans-33"/>
     </defs>
     <g style="fill:#2a788e;" transform="translate(324.367416 385.273116)rotate(-20.149508)scale(0.1 -0.1)">
      <use xlink:href="#DejaVuSans-33"/>
      <use x="63.623047" xlink:href="#DejaVuSans-30"/>
      <use x="127.246094" xlink:href="#DejaVuSans-2e"/>
      <use x="159.033203" xlink:href="#DejaVuSans-30"/>
     </g>
    </g>
   </g>
   <g id="text_22">
    <g clip-path="url(#p13b7c9400a)">
     <!-- 40.0 -->
     <defs>
      <path d="M 37.796875 64.3125 
L 12.890625 25.390625 
L 37.796875 25.390625 
z
M 35.203125 72.90625 
L 47.609375 72.90625 
L 47.609375 25.390625 
L 58.015625 25.390625 
L 58.015625 17.1875 
L 47.609375 17.1875 
L 47.609375 0 
L 37.796875 0 
L 37.796875 17.1875 
L 4.890625 17.1875 
L 4.890625 26.703125 
z
" id="DejaVuSans-34"/>
     </defs>
     <g style="fill:#22a884;" transform="translate(142.650642 122.417612)rotate(-26.928925)scale(0.1 -0.1)">
      <use xlink:href="#DejaVuSans-34"/>
      <use x="63.623047" xlink:href="#DejaVuSans-30"/>
      <use x="127.246094" xlink:href="#DejaVuSans-2e"/>
      <use x="159.033203" xlink:href="#DejaVuSans-30"/>
     </g>
    </g>
   </g>
   <g id="text_23">
    <g clip-path="url(#p13b7c9400a)">
     <!-- 50.0 -->
     <g style="fill:#7ad151;" transform="translate(125.311085 396.223836)rotate(-332.419503)scale(0.1 -0.1)">
      <use xlink:href="#DejaVuSans-35"/>
      <use x="63.623047" xlink:href="#DejaVuSans-30"/>
      <use x="127.246094" xlink:href="#DejaVuSans-2e"/>
      <use x="159.033203" xlink:href="#DejaVuSans-30"/>
     </g>
    </g>
   </g>
   <g id="text_24">
    <g clip-path="url(#p13b7c9400a)">
     <!-- 50.0 -->
     <g style="fill:#7ad151;" transform="translate(364.184359 412.733851)rotate(-24.867248)scale(0.1 -0.1)">
      <use xlink:href="#DejaVuSans-35"/>
      <use x="63.623047" xlink:href="#DejaVuSans-30"/>
      <use x="127.246094" xlink:href="#DejaVuSans-2e"/>
      <use x="159.033203" xlink:href="#DejaVuSans-30"/>
     </g>
    </g>
   </g>
   <g id="text_25">
    <g clip-path="url(#p13b7c9400a)">
     <!-- 50.0 -->
     <g style="fill:#7ad151;" transform="translate(99.281315 139.290175)rotate(-39.091953)scale(0.1 -0.1)">
      <use xlink:href="#DejaVuSans-35"/>
      <use x="63.623047" xlink:href="#DejaVuSans-30"/>
      <use x="127.246094" xlink:href="#DejaVuSans-2e"/>
      <use x="159.033203" xlink:href="#DejaVuSans-30"/>
     </g>
    </g>
   </g>
   <g id="text_26">
    <g clip-path="url(#p13b7c9400a)">
     <!-- 50.0 -->
     <g style="fill:#7ad151;" transform="translate(330.263983 75.684751)rotate(-343.24101)scale(0.1 -0.1)">
      <use xlink:href="#DejaVuSans-35"/>
      <use x="63.623047" xlink:href="#DejaVuSans-30"/>
      <use x="127.246094" xlink:href="#DejaVuSans-2e"/>
      <use x="159.033203" xlink:href="#DejaVuSans-30"/>
     </g>
    </g>
   </g>
   <g id="text_27">
    <g clip-path="url(#p13b7c9400a)">
     <!-- 60.0 -->
     <defs>
      <path d="M 33.015625 40.375 
Q 26.375 40.375 22.484375 35.828125 
Q 18.609375 31.296875 18.609375 23.390625 
Q 18.609375 15.53125 22.484375 10.953125 
Q 26.375 6.390625 33.015625 6.390625 
Q 39.65625 6.390625 43.53125 10.953125 
Q 47.40625 15.53125 47.40625 23.390625 
Q 47.40625 31.296875 43.53125 35.828125 
Q 39.65625 40.375 33.015625 40.375 
z
M 52.59375 71.296875 
L 52.59375 62.3125 
Q 48.875 64.0625 45.09375 64.984375 
Q 41.3125 65.921875 37.59375 65.921875 
Q 27.828125 65.921875 22.671875 59.328125 
Q 17.53125 52.734375 16.796875 39.40625 
Q 19.671875 43.65625 24.015625 45.921875 
Q 28.375 48.1875 33.59375 48.1875 
Q 44.578125 48.1875 50.953125 41.515625 
Q 57.328125 34.859375 57.328125 23.390625 
Q 57.328125 12.15625 50.6875 5.359375 
Q 44.046875 -1.421875 33.015625 -1.421875 
Q 20.359375 -1.421875 13.671875 8.265625 
Q 6.984375 17.96875 6.984375 36.375 
Q 6.984375 53.65625 15.1875 63.9375 
Q 23.390625 74.21875 37.203125 74.21875 
Q 40.921875 74.21875 44.703125 73.484375 
Q 48.484375 72.75 52.59375 71.296875 
z
" id="DejaVuSans-36"/>
     </defs>
     <g style="fill:#fde725;" transform="translate(91.843586 389.1208)rotate(-325.267399)scale(0.1 -0.1)">
      <use xlink:href="#DejaVuSans-36"/>
      <use x="63.623047" xlink:href="#DejaVuSans-30"/>
      <use x="127.246094" xlink:href="#DejaVuSans-2e"/>
      <use x="159.033203" xlink:href="#DejaVuSans-30"/>
     </g>
    </g>
   </g>
   <g id="text_28">
    <g clip-path="url(#p13b7c9400a)">
     <!-- 60.0 -->
     <g style="fill:#fde725;" transform="translate(440.406263 364.225087)rotate(-48.317781)scale(0.1 -0.1)">
      <use xlink:href="#DejaVuSans-36"/>
      <use x="63.623047" xlink:href="#DejaVuSans-30"/>
      <use x="127.246094" xlink:href="#DejaVuSans-2e"/>
      <use x="159.033203" xlink:href="#DejaVuSans-30"/>
     </g>
    </g>
   </g>
   <g id="text_29">
    <g clip-path="url(#p13b7c9400a)">
     <!-- 60.0 -->
     <g style="fill:#fde725;" transform="translate(65.743854 159.16444)rotate(-49.636971)scale(0.1 -0.1)">
      <use xlink:href="#DejaVuSans-36"/>
      <use x="63.623047" xlink:href="#DejaVuSans-30"/>
      <use x="127.246094" xlink:href="#DejaVuSans-2e"/>
      <use x="159.033203" xlink:href="#DejaVuSans-30"/>
     </g>
    </g>
   </g>
   <g id="text_30">
    <g clip-path="url(#p13b7c9400a)">
     <!-- 60.0 -->
     <g style="fill:#fde725;" transform="translate(383.582003 84.337404)rotate(-332.174314)scale(0.1 -0.1)">
      <use xlink:href="#DejaVuSans-36"/>
      <use x="63.623047" xlink:href="#DejaVuSans-30"/>
      <use x="127.246094" xlink:href="#DejaVuSans-2e"/>
      <use x="159.033203" xlink:href="#DejaVuSans-30"/>
     </g>
    </g>
   </g>
  </g>
 </g>
 <defs>
  <clipPath id="p13b7c9400a">
   <rect height="380.52" width="390.6" x="63" y="60.48"/>
  </clipPath>
 </defs>
</svg>
