<?xml version="1.0" encoding="utf-8" standalone="no"?>
<!DOCTYPE svg PUBLIC "-//W3C//DTD SVG 1.1//EN"
  "http://www.w3.org/Graphics/SVG/1.1/DTD/svg11.dtd">
<!-- Created with matplotlib (http://matplotlib.org/) -->
<svg height="504pt" version="1.1" viewBox="0 0 504 504" width="504pt" xmlns="http://www.w3.org/2000/svg" xmlns:xlink="http://www.w3.org/1999/xlink">
 <defs>
  <style type="text/css">
*{stroke-linecap:butt;stroke-linejoin:round;}
  </style>
 </defs>
 <g id="figure_1">
  <g id="patch_1">
   <path d="M 0 504 
L 504 504 
L 504 0 
L 0 0 
z
" style="fill:#ffffff;"/>
  </g>
  <g id="patch_2">
   <path d="M 63 441 
L 453.6 441 
L 453.6 60.48 
L 63 60.48 
z
" style="fill:#ffffff;"/>
  </g>
  <g id="pane3d_1">
   <g id="patch_3">
    <path d="M 114.780066 356.91849 
L 226.571829 263.623608 
L 224.710615 85.352401 
L 106.685728 169.175934 
" style="fill:#f2f2f2;opacity:0.5;stroke:#f2f2f2;stroke-linejoin:miter;"/>
   </g>
  </g>
  <g id="pane3d_2">
   <g id="patch_4">
    <path d="M 226.571829 263.623608 
L 407.663976 315.781468 
L 415.240655 132.134565 
L 224.710615 85.352401 
" style="fill:#e6e6e6;opacity:0.5;stroke:#e6e6e6;stroke-linejoin:miter;"/>
   </g>
  </g>
  <g id="pane3d_3">
   <g id="patch_5">
    <path d="M 114.780066 356.91849 
L 305.313474 417.664816 
L 407.663976 315.781468 
L 226.571829 263.623608 
" style="fill:#ececec;opacity:0.5;stroke:#ececec;stroke-linejoin:miter;"/>
   </g>
  </g>
  <g id="axis3d_1">
   <g id="line2d_1">
    <path d="M 114.780066 356.91849 
L 305.313474 417.664816 
" style="fill:none;stroke:#000000;stroke-linecap:square;stroke-width:0.8;"/>
   </g>
   <g id="Line3DCollection_1">
    <path d="M 126.396213 360.621979 
L 237.647197 266.813517 
L 236.339385 88.207694 
" style="fill:none;stroke:#b0b0b0;stroke-width:0.8;"/>
    <path d="M 147.52617 367.358683 
L 257.781843 272.612665 
L 257.488027 93.400467 
" style="fill:none;stroke:#b0b0b0;stroke-width:0.8;"/>
    <path d="M 168.875828 374.165433 
L 278.110619 278.467725 
L 278.850964 98.645857 
" style="fill:none;stroke:#b0b0b0;stroke-width:0.8;"/>
    <path d="M 190.448631 381.043327 
L 298.636345 284.37951 
L 300.431468 103.944668 
" style="fill:none;stroke:#b0b0b0;stroke-width:0.8;"/>
    <path d="M 212.248097 387.993486 
L 319.361897 290.34885 
L 322.232881 109.29772 
" style="fill:none;stroke:#b0b0b0;stroke-width:0.8;"/>
    <path d="M 234.277816 395.017054 
L 340.290209 296.376587 
L 344.258611 114.705851 
" style="fill:none;stroke:#b0b0b0;stroke-width:0.8;"/>
    <path d="M 256.541455 402.115202 
L 361.42427 302.463584 
L 366.512138 120.169914 
" style="fill:none;stroke:#b0b0b0;stroke-width:0.8;"/>
    <path d="M 279.042761 409.289123 
L 382.767129 308.610719 
L 388.997016 125.690782 
" style="fill:none;stroke:#b0b0b0;stroke-width:0.8;"/>
   </g>
   <g id="xtick_1">
    <g id="line2d_2">
     <path d="M 127.354697 359.813771 
L 124.475669 362.24141 
" style="fill:none;stroke:#000000;stroke-linecap:square;stroke-width:0.8;"/>
    </g>
   </g>
   <g id="xtick_2">
    <g id="line2d_3">
     <path d="M 148.47643 366.542096 
L 145.622087 368.994919 
" style="fill:none;stroke:#000000;stroke-linecap:square;stroke-width:0.8;"/>
    </g>
   </g>
   <g id="xtick_3">
    <g id="line2d_4">
     <path d="M 169.817641 373.340336 
L 166.988653 375.818737 
" style="fill:none;stroke:#000000;stroke-linecap:square;stroke-width:0.8;"/>
    </g>
   </g>
   <g id="xtick_4">
    <g id="line2d_5">
     <path d="M 191.381768 380.209586 
L 188.578824 382.713967 
" style="fill:none;stroke:#000000;stroke-linecap:square;stroke-width:0.8;"/>
    </g>
   </g>
   <g id="xtick_5">
    <g id="line2d_6">
     <path d="M 213.172322 387.150965 
L 210.396127 389.681736 
" style="fill:none;stroke:#000000;stroke-linecap:square;stroke-width:0.8;"/>
    </g>
   </g>
   <g id="xtick_6">
    <g id="line2d_7">
     <path d="M 235.192889 394.165614 
L 232.444166 396.723195 
" style="fill:none;stroke:#000000;stroke-linecap:square;stroke-width:0.8;"/>
    </g>
   </g>
   <g id="xtick_7">
    <g id="line2d_8">
     <path d="M 257.44713 401.2547 
L 254.72662 403.839519 
" style="fill:none;stroke:#000000;stroke-linecap:square;stroke-width:0.8;"/>
    </g>
   </g>
   <g id="xtick_8">
    <g id="line2d_9">
     <path d="M 279.938783 408.419413 
L 277.247248 411.031909 
" style="fill:none;stroke:#000000;stroke-linecap:square;stroke-width:0.8;"/>
    </g>
   </g>
  </g>
  <g id="axis3d_2">
   <g id="line2d_10">
    <path d="M 407.663976 315.781468 
L 305.313474 417.664816 
" style="fill:none;stroke:#000000;stroke-linecap:square;stroke-width:0.8;"/>
   </g>
   <g id="Line3DCollection_2">
    <path d="M 114.767288 163.436256 
L 122.407062 350.553444 
L 312.318192 410.692069 
" style="fill:none;stroke:#b0b0b0;stroke-width:0.8;"/>
    <path d="M 128.428844 153.733557 
L 135.309448 339.785866 
L 324.160582 398.903731 
" style="fill:none;stroke:#b0b0b0;stroke-width:0.8;"/>
    <path d="M 141.852651 144.199713 
L 147.998633 329.196213 
L 335.798338 387.319092 
" style="fill:none;stroke:#b0b0b0;stroke-width:0.8;"/>
    <path d="M 155.044861 134.830353 
L 160.479858 318.78011 
L 347.236721 375.932918 
" style="fill:none;stroke:#b0b0b0;stroke-width:0.8;"/>
    <path d="M 168.011416 125.621257 
L 172.758195 308.533327 
L 358.480808 364.740151 
" style="fill:none;stroke:#b0b0b0;stroke-width:0.8;"/>
    <path d="M 180.758057 116.568348 
L 184.83855 298.451768 
L 369.53551 353.735906 
" style="fill:none;stroke:#b0b0b0;stroke-width:0.8;"/>
    <path d="M 193.290333 107.667687 
L 196.725673 288.531469 
L 380.405571 342.915459 
" style="fill:none;stroke:#b0b0b0;stroke-width:0.8;"/>
    <path d="M 205.613604 98.915464 
L 208.424165 278.76859 
L 391.095578 332.274243 
" style="fill:none;stroke:#b0b0b0;stroke-width:0.8;"/>
    <path d="M 217.733057 90.307996 
L 219.938479 269.159416 
L 401.609969 321.807843 
" style="fill:none;stroke:#b0b0b0;stroke-width:0.8;"/>
   </g>
   <g id="xtick_9">
    <g id="line2d_11">
     <path d="M 310.728803 410.188762 
L 315.500523 411.699809 
" style="fill:none;stroke:#000000;stroke-linecap:square;stroke-width:0.8;"/>
    </g>
   </g>
   <g id="xtick_10">
    <g id="line2d_12">
     <path d="M 322.580671 398.409157 
L 327.323903 399.893976 
" style="fill:none;stroke:#000000;stroke-linecap:square;stroke-width:0.8;"/>
    </g>
   </g>
   <g id="xtick_11">
    <g id="line2d_13">
     <path d="M 334.227818 386.833026 
L 338.94283 388.292293 
" style="fill:none;stroke:#000000;stroke-linecap:square;stroke-width:0.8;"/>
    </g>
   </g>
   <g id="xtick_12">
    <g id="line2d_14">
     <path d="M 345.675501 375.455141 
L 350.36256 376.889512 
" style="fill:none;stroke:#000000;stroke-linecap:square;stroke-width:0.8;"/>
    </g>
   </g>
   <g id="xtick_13">
    <g id="line2d_15">
     <path d="M 356.928801 364.270454 
L 361.588172 365.68056 
" style="fill:none;stroke:#000000;stroke-linecap:square;stroke-width:0.8;"/>
    </g>
   </g>
   <g id="xtick_14">
    <g id="line2d_16">
     <path d="M 367.992629 353.274085 
L 372.624576 354.660536 
" style="fill:none;stroke:#000000;stroke-linecap:square;stroke-width:0.8;"/>
    </g>
   </g>
   <g id="xtick_15">
    <g id="line2d_17">
     <path d="M 378.871728 342.461318 
L 383.476513 343.824704 
" style="fill:none;stroke:#000000;stroke-linecap:square;stroke-width:0.8;"/>
    </g>
   </g>
   <g id="xtick_16">
    <g id="line2d_18">
     <path d="M 389.570687 331.827593 
L 394.148571 333.168485 
" style="fill:none;stroke:#000000;stroke-linecap:square;stroke-width:0.8;"/>
    </g>
   </g>
   <g id="xtick_17">
    <g id="line2d_19">
     <path d="M 400.093944 321.368498 
L 404.645186 322.687449 
" style="fill:none;stroke:#000000;stroke-linecap:square;stroke-width:0.8;"/>
    </g>
   </g>
  </g>
  <g id="axis3d_3">
   <g id="line2d_20">
    <path d="M 407.663976 315.781468 
L 415.240655 132.134565 
" style="fill:none;stroke:#000000;stroke-linecap:square;stroke-width:0.8;"/>
   </g>
   <g id="Line3DCollection_3">
    <path d="M 408.053315 306.344499 
L 226.47599 254.44393 
L 114.364805 347.286802 
" style="fill:none;stroke:#b0b0b0;stroke-width:0.8;"/>
    <path d="M 409.30471 276.012627 
L 226.168094 224.952954 
L 113.029595 316.317537 
" style="fill:none;stroke:#b0b0b0;stroke-width:0.8;"/>
    <path d="M 410.577973 245.150714 
L 225.855045 194.968417 
L 111.670274 284.789021 
" style="fill:none;stroke:#b0b0b0;stroke-width:0.8;"/>
    <path d="M 411.873682 213.744745 
L 225.536712 164.477825 
L 110.286182 252.685969 
" style="fill:none;stroke:#b0b0b0;stroke-width:0.8;"/>
    <path d="M 413.192436 181.780204 
L 225.212962 133.468256 
L 108.876636 219.992533 
" style="fill:none;stroke:#b0b0b0;stroke-width:0.8;"/>
    <path d="M 414.534855 149.242056 
L 224.883653 101.926348 
L 107.440928 186.692273 
" style="fill:none;stroke:#b0b0b0;stroke-width:0.8;"/>
   </g>
   <g id="xtick_18">
    <g id="line2d_21">
     <path d="M 406.538206 305.911433 
L 411.086691 307.211535 
" style="fill:none;stroke:#000000;stroke-linecap:square;stroke-width:0.8;"/>
    </g>
   </g>
   <g id="xtick_19">
    <g id="line2d_22">
     <path d="M 407.776044 275.586425 
L 412.365256 276.865927 
" style="fill:none;stroke:#000000;stroke-linecap:square;stroke-width:0.8;"/>
    </g>
   </g>
   <g id="xtick_20">
    <g id="line2d_23">
     <path d="M 409.035506 244.731684 
L 413.666178 245.989664 
" style="fill:none;stroke:#000000;stroke-linecap:square;stroke-width:0.8;"/>
    </g>
   </g>
   <g id="xtick_21">
    <g id="line2d_24">
     <path d="M 410.317162 213.333205 
L 414.990051 214.568703 
" style="fill:none;stroke:#000000;stroke-linecap:square;stroke-width:0.8;"/>
    </g>
   </g>
   <g id="xtick_22">
    <g id="line2d_25">
     <path d="M 411.621605 181.37649 
L 416.337486 182.588502 
" style="fill:none;stroke:#000000;stroke-linecap:square;stroke-width:0.8;"/>
    </g>
   </g>
   <g id="xtick_23">
    <g id="line2d_26">
     <path d="M 412.949449 148.846516 
L 417.709119 150.033997 
" style="fill:none;stroke:#000000;stroke-linecap:square;stroke-width:0.8;"/>
    </g>
   </g>
  </g>
  <g id="axes_1">
   <g id="Path3DCollection_1">
    <defs>
     <path d="M 0 3.535534 
C 0.937635 3.535534 1.836992 3.163008 2.5 2.5 
C 3.163008 1.836992 3.535534 0.937635 3.535534 0 
C 3.535534 -0.937635 3.163008 -1.836992 2.5 -2.5 
C 1.836992 -3.163008 0.937635 -3.535534 0 -3.535534 
C -0.937635 -3.535534 -1.836992 -3.163008 -2.5 -2.5 
C -3.163008 -1.836992 -3.535534 -0.937635 -3.535534 0 
C -3.535534 0.937635 -3.163008 1.836992 -2.5 2.5 
C -1.836992 3.163008 -0.937635 3.535534 0 3.535534 
z
" id="m2c99cd093a" style="stroke:#000000;"/>
    </defs>
    <g clip-path="url(#pbe74fba467)">
     <use style="stroke:#000000;" x="268.012685" xlink:href="#m2c99cd093a" y="201.766695"/>
    </g>
   </g>
   <g id="Poly3DCollection_1">
    <path clip-path="url(#pbe74fba467)" d="M 219.845225 106.48256 
L 228.35945 111.850689 
L 233.147873 107.050338 
L 224.653473 101.703683 
L 219.845225 106.48256 
z
" style="fill:#0000d4;fill-opacity:0.3;"/>
    <path clip-path="url(#pbe74fba467)" d="M 228.35945 111.850689 
L 236.893318 117.23056 
L 241.661813 112.40865 
L 233.147873 107.050338 
L 228.35945 111.850689 
z
" style="fill:#0000d7;fill-opacity:0.3;"/>
    <path clip-path="url(#pbe74fba467)" d="M 236.893318 117.23056 
L 245.446901 122.622216 
L 250.195364 117.778661 
L 241.661813 112.40865 
L 236.893318 117.23056 
z
" style="fill:#0000d9;fill-opacity:0.3;"/>
    <path clip-path="url(#pbe74fba467)" d="M 215.008199 111.289383 
L 223.542335 116.679148 
L 228.35945 111.850689 
L 219.845225 106.48256 
L 215.008199 111.289383 
z
" style="fill:#0000d0;fill-opacity:0.3;"/>
    <path clip-path="url(#pbe74fba467)" d="M 245.446901 122.622216 
L 254.020274 128.025702 
L 258.748601 123.160416 
L 250.195364 117.778661 
L 245.446901 122.622216 
z
" style="fill:#0000db;fill-opacity:0.3;"/>
    <path clip-path="url(#pbe74fba467)" d="M 223.542335 116.679148 
L 232.096219 122.080741 
L 236.893318 117.23056 
L 228.35945 111.850689 
L 223.542335 116.679148 
z
" style="fill:#0000d2;fill-opacity:0.3;"/>
    <path clip-path="url(#pbe74fba467)" d="M 254.020274 128.025702 
L 262.613509 133.441061 
L 267.321594 128.553957 
L 258.748601 123.160416 
L 254.020274 128.025702 
z
" style="fill:#0000de;fill-opacity:0.3;"/>
    <path clip-path="url(#pbe74fba467)" d="M 232.096219 122.080741 
L 240.669924 127.494207 
L 245.446901 122.622216 
L 236.893318 117.23056 
L 232.096219 122.080741 
z
" style="fill:#0000d4;fill-opacity:0.3;"/>
    <path clip-path="url(#pbe74fba467)" d="M 262.613509 133.441061 
L 271.226679 138.868337 
L 275.914417 133.959328 
L 267.321594 128.553957 
L 262.613509 133.441061 
z
" style="fill:#0000e0;fill-opacity:0.3;"/>
    <path clip-path="url(#pbe74fba467)" d="M 210.142132 116.124407 
L 218.696268 121.535972 
L 223.542335 116.679148 
L 215.008199 111.289383 
L 210.142132 116.124407 
z
" style="fill:#0000cb;fill-opacity:0.3;"/>
    <path clip-path="url(#pbe74fba467)" d="M 240.669924 127.494207 
L 249.263522 132.919588 
L 254.020274 128.025702 
L 245.446901 122.622216 
L 240.669924 127.494207 
z
" style="fill:#0000d7;fill-opacity:0.3;"/>
    <path clip-path="url(#pbe74fba467)" d="M 271.226679 138.868337 
L 279.85986 144.307574 
L 284.527143 139.376574 
L 275.914417 133.959328 
L 271.226679 138.868337 
z
" style="fill:#0000e3;fill-opacity:0.3;"/>
    <path clip-path="url(#pbe74fba467)" d="M 218.696268 121.535972 
L 227.270256 126.959452 
L 232.096219 122.080741 
L 223.542335 116.679148 
L 218.696268 121.535972 
z
" style="fill:#0000cd;fill-opacity:0.3;"/>
    <path clip-path="url(#pbe74fba467)" d="M 249.263522 132.919588 
L 257.877089 138.35693 
L 262.613509 133.441061 
L 254.020274 128.025702 
L 249.263522 132.919588 
z
" style="fill:#0000d9;fill-opacity:0.3;"/>
    <path clip-path="url(#pbe74fba467)" d="M 279.85986 144.307574 
L 288.513124 149.758818 
L 293.159847 144.805737 
L 284.527143 139.376574 
L 279.85986 144.307574 
z
" style="fill:#0000e5;fill-opacity:0.3;"/>
    <path clip-path="url(#pbe74fba467)" d="M 227.270256 126.959452 
L 235.86417 132.394891 
L 240.669924 127.494207 
L 232.096219 122.080741 
L 227.270256 126.959452 
z
" style="fill:#0000d0;fill-opacity:0.3;"/>
    <path clip-path="url(#pbe74fba467)" d="M 257.877089 138.35693 
L 266.510698 143.806277 
L 271.226679 138.868337 
L 262.613509 133.441061 
L 257.877089 138.35693 
z
" style="fill:#0000db;fill-opacity:0.3;"/>
    <path clip-path="url(#pbe74fba467)" d="M 205.246761 120.98789 
L 213.820984 126.42142 
L 218.696268 121.535972 
L 210.142132 116.124407 
L 205.246761 120.98789 
z
" style="fill:#0000c6;fill-opacity:0.3;"/>
    <path clip-path="url(#pbe74fba467)" d="M 288.513124 149.758818 
L 297.186547 155.222113 
L 301.812603 150.246864 
L 293.159847 144.805737 
L 288.513124 149.758818 
z
" style="fill:#0000e7;fill-opacity:0.3;"/>
    <path clip-path="url(#pbe74fba467)" d="M 235.86417 132.394891 
L 244.478085 137.842335 
L 249.263522 132.919588 
L 240.669924 127.494207 
L 235.86417 132.394891 
z
" style="fill:#0000d2;fill-opacity:0.3;"/>
    <path clip-path="url(#pbe74fba467)" d="M 266.510698 143.806277 
L 275.164424 149.267674 
L 279.85986 144.307574 
L 271.226679 138.868337 
L 266.510698 143.806277 
z
" style="fill:#0000de;fill-opacity:0.3;"/>
    <path clip-path="url(#pbe74fba467)" d="M 213.820984 126.42142 
L 222.415165 131.866952 
L 227.270256 126.959452 
L 218.696268 121.535972 
L 213.820984 126.42142 
z
" style="fill:#0000c9;fill-opacity:0.3;"/>
    <path clip-path="url(#pbe74fba467)" d="M 297.186547 155.222113 
L 305.880205 160.697505 
L 310.485484 155.699998 
L 301.812603 150.246864 
L 297.186547 155.222113 
z
" style="fill:#0000ea;fill-opacity:0.3;"/>
    <path clip-path="url(#pbe74fba467)" d="M 244.478085 137.842335 
L 253.112075 143.301827 
L 257.877089 138.35693 
L 249.263522 132.919588 
L 244.478085 137.842335 
z
" style="fill:#0000d4;fill-opacity:0.3;"/>
    <path clip-path="url(#pbe74fba467)" d="M 275.164424 149.267674 
L 283.838342 154.741166 
L 288.513124 149.758818 
L 279.85986 144.307574 
L 275.164424 149.267674 
z
" style="fill:#0000e0;fill-opacity:0.3;"/>
    <path clip-path="url(#pbe74fba467)" d="M 222.415165 131.866952 
L 231.029379 137.324533 
L 235.86417 132.394891 
L 227.270256 126.959452 
L 222.415165 131.866952 
z
" style="fill:#0000cb;fill-opacity:0.3;"/>
    <path clip-path="url(#pbe74fba467)" d="M 305.880205 160.697505 
L 314.594171 166.185037 
L 319.178566 161.165184 
L 310.485484 155.699998 
L 305.880205 160.697505 
z
" style="fill:#0000ec;fill-opacity:0.3;"/>
    <path clip-path="url(#pbe74fba467)" d="M 253.112075 143.301827 
L 261.766214 148.773414 
L 266.510698 143.806277 
L 257.877089 138.35693 
L 253.112075 143.301827 
z
" style="fill:#0000d7;fill-opacity:0.3;"/>
    <path clip-path="url(#pbe74fba467)" d="M 200.321817 125.880091 
L 208.916216 131.335753 
L 213.820984 126.42142 
L 205.246761 120.98789 
L 200.321817 125.880091 
z
" style="fill:#0000c2;fill-opacity:0.3;"/>
    <path clip-path="url(#pbe74fba467)" d="M 283.838342 154.741166 
L 292.532527 160.226799 
L 297.186547 155.222113 
L 288.513124 149.758818 
L 283.838342 154.741166 
z
" style="fill:#0000e3;fill-opacity:0.3;"/>
    <path clip-path="url(#pbe74fba467)" d="M 231.029379 137.324533 
L 239.6637 142.794207 
L 244.478085 137.842335 
L 235.86417 132.394891 
L 231.029379 137.324533 
z
" style="fill:#0000cd;fill-opacity:0.3;"/>
    <path clip-path="url(#pbe74fba467)" d="M 314.594171 166.185037 
L 323.328524 171.684757 
L 327.891924 166.642467 
L 319.178566 161.165184 
L 314.594171 166.185037 
z
" style="fill:#0000ee;fill-opacity:0.3;"/>
    <path clip-path="url(#pbe74fba467)" d="M 261.766214 148.773414 
L 270.440578 154.257139 
L 275.164424 149.267674 
L 266.510698 143.806277 
L 261.766214 148.773414 
z
" style="fill:#0000d9;fill-opacity:0.3;"/>
    <path clip-path="url(#pbe74fba467)" d="M 208.916216 131.335753 
L 217.530679 136.803507 
L 222.415165 131.866952 
L 213.820984 126.42142 
L 208.916216 131.335753 
z
" style="fill:#0000c4;fill-opacity:0.3;"/>
    <path clip-path="url(#pbe74fba467)" d="M 292.532527 160.226799 
L 301.247055 165.724617 
L 305.880205 160.697505 
L 297.186547 155.222113 
L 292.532527 160.226799 
z
" style="fill:#0000e5;fill-opacity:0.3;"/>
    <path clip-path="url(#pbe74fba467)" d="M 239.6637 142.794207 
L 248.318204 148.276019 
L 253.112075 143.301827 
L 244.478085 137.842335 
L 239.6637 142.794207 
z
" style="fill:#0000d0;fill-opacity:0.3;"/>
    <path clip-path="url(#pbe74fba467)" d="M 323.328524 171.684757 
L 332.083337 177.196709 
L 336.625633 172.131893 
L 327.891924 166.642467 
L 323.328524 171.684757 
z
" style="fill:#0000f1;fill-opacity:0.3;"/>
    <path clip-path="url(#pbe74fba467)" d="M 270.440578 154.257139 
L 279.135242 159.75305 
L 283.838342 154.741166 
L 275.164424 149.267674 
L 270.440578 154.257139 
z
" style="fill:#0000db;fill-opacity:0.3;"/>
    <path clip-path="url(#pbe74fba467)" d="M 217.530679 136.803507 
L 226.165282 142.283398 
L 231.029379 137.324533 
L 222.415165 131.866952 
L 217.530679 136.803507 
z
" style="fill:#0000c6;fill-opacity:0.3;"/>
    <path clip-path="url(#pbe74fba467)" d="M 301.247055 165.724617 
L 309.982002 171.234668 
L 314.594171 166.185037 
L 305.880205 160.697505 
L 301.247055 165.724617 
z
" style="fill:#0000e7;fill-opacity:0.3;"/>
    <path clip-path="url(#pbe74fba467)" d="M 248.318204 148.276019 
L 256.992965 153.770015 
L 261.766214 148.773414 
L 253.112075 143.301827 
L 248.318204 148.276019 
z
" style="fill:#0000d2;fill-opacity:0.3;"/>
    <path clip-path="url(#pbe74fba467)" d="M 195.367029 130.801273 
L 203.981692 136.279237 
L 208.916216 131.335753 
L 200.321817 125.880091 
L 195.367029 130.801273 
z
" style="fill:#0000bd;fill-opacity:0.3;"/>
    <path clip-path="url(#pbe74fba467)" d="M 332.083337 177.196709 
L 340.858689 182.72094 
L 345.37977 177.633507 
L 336.625633 172.131893 
L 332.083337 177.196709 
z
" style="fill:#0000f3;fill-opacity:0.3;"/>
    <path clip-path="url(#pbe74fba467)" d="M 279.135242 159.75305 
L 287.850283 165.261191 
L 292.532527 160.226799 
L 283.838342 154.741166 
L 279.135242 159.75305 
z
" style="fill:#0000de;fill-opacity:0.3;"/>
    <path clip-path="url(#pbe74fba467)" d="M 226.165282 142.283398 
L 234.820101 147.775472 
L 239.6637 142.794207 
L 231.029379 137.324533 
L 226.165282 142.283398 
z
" style="fill:#0000c9;fill-opacity:0.3;"/>
    <path clip-path="url(#pbe74fba467)" d="M 309.982002 171.234668 
L 318.737445 176.756995 
L 323.328524 171.684757 
L 314.594171 166.185037 
L 309.982002 171.234668 
z
" style="fill:#0000ea;fill-opacity:0.3;"/>
    <path clip-path="url(#pbe74fba467)" d="M 256.992965 153.770015 
L 265.688061 159.27624 
L 270.440578 154.257139 
L 261.766214 148.773414 
L 256.992965 153.770015 
z
" style="fill:#0000d4;fill-opacity:0.3;"/>
    <path clip-path="url(#pbe74fba467)" d="M 203.981692 136.279237 
L 212.616527 141.769382 
L 217.530679 136.803507 
L 208.916216 131.335753 
L 203.981692 136.279237 
z
" style="fill:#0000bf;fill-opacity:0.3;"/>
    <path clip-path="url(#pbe74fba467)" d="M 340.858689 182.72094 
L 349.654656 188.257495 
L 354.154411 183.147354 
L 345.37977 177.633507 
L 340.858689 182.72094 
z
" style="fill:#0000f6;fill-opacity:0.3;"/>
    <path clip-path="url(#pbe74fba467)" d="M 287.850283 165.261191 
L 296.585777 170.781609 
L 301.247055 165.724617 
L 292.532527 160.226799 
L 287.850283 165.261191 
z
" style="fill:#0000e0;fill-opacity:0.3;"/>
    <path clip-path="url(#pbe74fba467)" d="M 234.820101 147.775472 
L 243.495211 153.279775 
L 248.318204 148.276019 
L 239.6637 142.794207 
L 234.820101 147.775472 
z
" style="fill:#0000cb;fill-opacity:0.3;"/>
    <path clip-path="url(#pbe74fba467)" d="M 318.737445 176.756995 
L 327.51346 182.291647 
L 332.083337 177.196709 
L 323.328524 171.684757 
L 318.737445 176.756995 
z
" style="fill:#0000ec;fill-opacity:0.3;"/>
    <path clip-path="url(#pbe74fba467)" d="M 265.688061 159.27624 
L 274.403566 164.794741 
L 279.135242 159.75305 
L 270.440578 154.257139 
L 265.688061 159.27624 
z
" style="fill:#0000d7;fill-opacity:0.3;"/>
    <path clip-path="url(#pbe74fba467)" d="M 212.616527 141.769382 
L 221.271611 147.271755 
L 226.165282 142.283398 
L 217.530679 136.803507 
L 212.616527 141.769382 
z
" style="fill:#0000c2;fill-opacity:0.3;"/>
    <path clip-path="url(#pbe74fba467)" d="M 349.654656 188.257495 
L 358.471316 193.806422 
L 362.949633 188.673481 
L 354.154411 183.147354 
L 349.654656 188.257495 
z
" style="fill:#0000f8;fill-opacity:0.3;"/>
    <path clip-path="url(#pbe74fba467)" d="M 296.585777 170.781609 
L 305.341801 176.31435 
L 309.982002 171.234668 
L 301.247055 165.724617 
L 296.585777 170.781609 
z
" style="fill:#0000e3;fill-opacity:0.3;"/>
    <path clip-path="url(#pbe74fba467)" d="M 243.495211 153.279775 
L 252.190687 158.796352 
L 256.992965 153.770015 
L 248.318204 148.276019 
L 243.495211 153.279775 
z
" style="fill:#0000cd;fill-opacity:0.3;"/>
    <path clip-path="url(#pbe74fba467)" d="M 190.382121 135.751705 
L 199.017139 141.252141 
L 203.981692 136.279237 
L 195.367029 130.801273 
L 190.382121 135.751705 
z
" style="fill:#0000b8;fill-opacity:0.3;"/>
    <path clip-path="url(#pbe74fba467)" d="M 327.51346 182.291647 
L 336.310125 187.838669 
L 340.858689 182.72094 
L 332.083337 177.196709 
L 327.51346 182.291647 
z
" style="fill:#0000ee;fill-opacity:0.3;"/>
    <path clip-path="url(#pbe74fba467)" d="M 274.403566 164.794741 
L 283.139558 170.325564 
L 287.850283 165.261191 
L 279.135242 159.75305 
L 274.403566 164.794741 
z
" style="fill:#0000d9;fill-opacity:0.3;"/>
    <path clip-path="url(#pbe74fba467)" d="M 221.271611 147.271755 
L 229.947019 152.786401 
L 234.820101 147.775472 
L 226.165282 142.283398 
L 221.271611 147.271755 
z
" style="fill:#0000c4;fill-opacity:0.3;"/>
    <path clip-path="url(#pbe74fba467)" d="M 358.471316 193.806422 
L 367.308746 199.367766 
L 371.765513 194.211934 
L 362.949633 188.673481 
L 358.471316 193.806422 
z
" style="fill:#0000fa;fill-opacity:0.3;"/>
    <path clip-path="url(#pbe74fba467)" d="M 305.341801 176.31435 
L 314.118431 181.85946 
L 318.737445 176.756995 
L 309.982002 171.234668 
L 305.341801 176.31435 
z
" style="fill:#0000e5;fill-opacity:0.3;"/>
    <path clip-path="url(#pbe74fba467)" d="M 252.190687 158.796352 
L 260.906608 164.32525 
L 265.688061 159.27624 
L 256.992965 153.770015 
L 252.190687 158.796352 
z
" style="fill:#0000d0;fill-opacity:0.3;"/>
    <path clip-path="url(#pbe74fba467)" d="M 199.017139 141.252141 
L 207.672437 146.764849 
L 212.616527 141.769382 
L 203.981692 136.279237 
L 199.017139 141.252141 
z
" style="fill:#0000ba;fill-opacity:0.3;"/>
    <path clip-path="url(#pbe74fba467)" d="M 336.310125 187.838669 
L 345.127517 193.398108 
L 349.654656 188.257495 
L 340.858689 182.72094 
L 336.310125 187.838669 
z
" style="fill:#0000f1;fill-opacity:0.3;"/>
    <path clip-path="url(#pbe74fba467)" d="M 283.139558 170.325564 
L 291.896114 175.868756 
L 296.585777 170.781609 
L 287.850283 165.261191 
L 283.139558 170.325564 
z
" style="fill:#0000db;fill-opacity:0.3;"/>
    <path clip-path="url(#pbe74fba467)" d="M 229.947019 152.786401 
L 238.642827 158.313368 
L 243.495211 153.279775 
L 234.820101 147.775472 
L 229.947019 152.786401 
z
" style="fill:#0000c6;fill-opacity:0.3;"/>
    <path clip-path="url(#pbe74fba467)" d="M 367.308746 199.367766 
L 376.167024 204.941576 
L 380.602128 199.762758 
L 371.765513 194.211934 
L 367.308746 199.367766 
z
" style="fill:#0000fd;fill-opacity:0.3;"/>
    <path clip-path="url(#pbe74fba467)" d="M 314.118431 181.85946 
L 322.915746 187.416986 
L 327.51346 182.291647 
L 318.737445 176.756995 
L 314.118431 181.85946 
z
" style="fill:#0000e7;fill-opacity:0.3;"/>
    <path clip-path="url(#pbe74fba467)" d="M 260.906608 164.32525 
L 269.643048 169.866516 
L 274.403566 164.794741 
L 265.688061 159.27624 
L 260.906608 164.32525 
z
" style="fill:#0000d2;fill-opacity:0.3;"/>
    <path clip-path="url(#pbe74fba467)" d="M 207.672437 146.764849 
L 216.348092 152.289876 
L 221.271611 147.271755 
L 212.616527 141.769382 
L 207.672437 146.764849 
z
" style="fill:#0000bd;fill-opacity:0.3;"/>
    <path clip-path="url(#pbe74fba467)" d="M 345.127517 193.398108 
L 353.965714 198.97001 
L 358.471316 193.806422 
L 349.654656 188.257495 
L 345.127517 193.398108 
z
" style="fill:#0000f3;fill-opacity:0.3;"/>
    <path clip-path="url(#pbe74fba467)" d="M 291.896114 175.868756 
L 300.67331 181.424362 
L 305.341801 176.31435 
L 296.585777 170.781609 
L 291.896114 175.868756 
z
" style="fill:#0000de;fill-opacity:0.3;"/>
    <path clip-path="url(#pbe74fba467)" d="M 238.642827 158.313368 
L 247.359112 163.8527 
L 252.190687 158.796352 
L 243.495211 153.279775 
L 238.642827 158.313368 
z
" style="fill:#0000c9;fill-opacity:0.3;"/>
    <path clip-path="url(#pbe74fba467)" d="M 376.167024 204.941576 
L 385.04623 210.527897 
L 389.459556 205.326002 
L 380.602128 199.762758 
L 376.167024 204.941576 
z
" style="fill:#0000ff;fill-opacity:0.3;"/>
    <path clip-path="url(#pbe74fba467)" d="M 185.366817 140.731655 
L 194.022279 146.254736 
L 199.017139 141.252141 
L 190.382121 135.751705 
L 185.366817 140.731655 
z
" style="fill:#0000b3;fill-opacity:0.3;"/>
    <path clip-path="url(#pbe74fba467)" d="M 322.915746 187.416986 
L 331.733822 192.986975 
L 336.310125 187.838669 
L 327.51346 182.291647 
L 322.915746 187.416986 
z
" style="fill:#0000ea;fill-opacity:0.3;"/>
    <path clip-path="url(#pbe74fba467)" d="M 269.643048 169.866516 
L 278.400087 175.420195 
L 283.139558 170.325564 
L 274.403566 164.794741 
L 269.643048 169.866516 
z
" style="fill:#0000d4;fill-opacity:0.3;"/>
    <path clip-path="url(#pbe74fba467)" d="M 216.348092 152.289876 
L 225.044181 157.827269 
L 229.947019 152.786401 
L 221.271611 147.271755 
L 216.348092 152.289876 
z
" style="fill:#0000bf;fill-opacity:0.3;"/>
    <path clip-path="url(#pbe74fba467)" d="M 353.965714 198.97001 
L 362.824796 204.554423 
L 367.308746 199.367766 
L 358.471316 193.806422 
L 353.965714 198.97001 
z
" style="fill:#0000f6;fill-opacity:0.3;"/>
    <path clip-path="url(#pbe74fba467)" d="M 300.67331 181.424362 
L 309.471225 186.99243 
L 314.118431 181.85946 
L 305.341801 176.31435 
L 300.67331 181.424362 
z
" style="fill:#0000e0;fill-opacity:0.3;"/>
    <path clip-path="url(#pbe74fba467)" d="M 247.359112 163.8527 
L 256.095951 169.404446 
L 260.906608 164.32525 
L 252.190687 158.796352 
L 247.359112 163.8527 
z
" style="fill:#0000cb;fill-opacity:0.3;"/>
    <path clip-path="url(#pbe74fba467)" d="M 194.022279 146.254736 
L 202.69813 151.790182 
L 207.672437 146.764849 
L 199.017139 141.252141 
L 194.022279 146.254736 
z
" style="fill:#0000b6;fill-opacity:0.3;"/>
    <path clip-path="url(#pbe74fba467)" d="M 331.733822 192.986975 
L 340.572739 198.569473 
L 345.127517 193.398108 
L 336.310125 187.838669 
L 331.733822 192.986975 
z
" style="fill:#0000ec;fill-opacity:0.3;"/>
    <path clip-path="url(#pbe74fba467)" d="M 278.400087 175.420195 
L 287.1778 180.986336 
L 291.896114 175.868756 
L 283.139558 170.325564 
L 278.400087 175.420195 
z
" style="fill:#0000d7;fill-opacity:0.3;"/>
    <path clip-path="url(#pbe74fba467)" d="M 225.044181 157.827269 
L 233.76078 163.377074 
L 238.642827 158.313368 
L 229.947019 152.786401 
L 225.044181 157.827269 
z
" style="fill:#0000c2;fill-opacity:0.3;"/>
    <path clip-path="url(#pbe74fba467)" d="M 362.824796 204.554423 
L 371.70484 210.151395 
L 376.167024 204.941576 
L 367.308746 199.367766 
L 362.824796 204.554423 
z
" style="fill:#0000f8;fill-opacity:0.3;"/>
    <path clip-path="url(#pbe74fba467)" d="M 309.471225 186.99243 
L 318.289938 192.573007 
L 322.915746 187.416986 
L 314.118431 181.85946 
L 309.471225 186.99243 
z
" style="fill:#0000e3;fill-opacity:0.3;"/>
    <path clip-path="url(#pbe74fba467)" d="M 256.095951 169.404446 
L 264.853423 174.968651 
L 269.643048 169.866516 
L 260.906608 164.32525 
L 256.095951 169.404446 
z
" style="fill:#0000cd;fill-opacity:0.3;"/>
    <path clip-path="url(#pbe74fba467)" d="M 202.69813 151.790182 
L 211.394449 157.338038 
L 216.348092 152.289876 
L 207.672437 146.764849 
L 202.69813 151.790182 
z
" style="fill:#0000b8;fill-opacity:0.3;"/>
    <path clip-path="url(#pbe74fba467)" d="M 340.572739 198.569473 
L 349.432575 204.16453 
L 353.965714 198.97001 
L 345.127517 193.398108 
L 340.572739 198.569473 
z
" style="fill:#0000ee;fill-opacity:0.3;"/>
    <path clip-path="url(#pbe74fba467)" d="M 287.1778 180.986336 
L 295.976267 186.564984 
L 300.67331 181.424362 
L 291.896114 175.868756 
L 287.1778 180.986336 
z
" style="fill:#0000d9;fill-opacity:0.3;"/>
    <path clip-path="url(#pbe74fba467)" d="M 233.76078 163.377074 
L 242.497968 168.939337 
L 247.359112 163.8527 
L 238.642827 158.313368 
L 233.76078 163.377074 
z
" style="fill:#0000c4;fill-opacity:0.3;"/>
    <path clip-path="url(#pbe74fba467)" d="M 371.70484 210.151395 
L 380.605925 215.760972 
L 385.04623 210.527897 
L 376.167024 204.941576 
L 371.70484 210.151395 
z
" style="fill:#0000fa;fill-opacity:0.3;"/>
    <path clip-path="url(#pbe74fba467)" d="M 180.320835 145.741397 
L 188.996831 151.287299 
L 194.022279 146.254736 
L 185.366817 140.731655 
L 180.320835 145.741397 
z
" style="fill:#0000af;fill-opacity:0.3;"/>
    <path clip-path="url(#pbe74fba467)" d="M 318.289938 192.573007 
L 327.129525 198.166141 
L 331.733822 192.986975 
L 322.915746 187.416986 
L 318.289938 192.573007 
z
" style="fill:#0000e5;fill-opacity:0.3;"/>
    <path clip-path="url(#pbe74fba467)" d="M 264.853423 174.968651 
L 273.631603 180.545364 
L 278.400087 175.420195 
L 269.643048 169.866516 
L 264.853423 174.968651 
z
" style="fill:#0000d0;fill-opacity:0.3;"/>
    <path clip-path="url(#pbe74fba467)" d="M 211.394449 157.338038 
L 220.111311 162.898353 
L 225.044181 157.827269 
L 216.348092 152.289876 
L 211.394449 157.338038 
z
" style="fill:#0000ba;fill-opacity:0.3;"/>
    <path clip-path="url(#pbe74fba467)" d="M 349.432575 204.16453 
L 358.31341 209.772191 
L 362.824796 204.554423 
L 353.965714 198.97001 
L 349.432575 204.16453 
z
" style="fill:#0000f1;fill-opacity:0.3;"/>
    <path clip-path="url(#pbe74fba467)" d="M 295.976267 186.564984 
L 304.795566 192.156188 
L 309.471225 186.99243 
L 300.67331 181.424362 
L 295.976267 186.564984 
z
" style="fill:#0000dc;fill-opacity:0.3;"/>
    <path clip-path="url(#pbe74fba467)" d="M 242.497968 168.939337 
L 251.255821 174.514107 
L 256.095951 169.404446 
L 247.359112 163.8527 
L 242.497968 168.939337 
z
" style="fill:#0000c6;fill-opacity:0.3;"/>
    <path clip-path="url(#pbe74fba467)" d="M 188.996831 151.287299 
L 197.693327 156.845657 
L 202.69813 151.790182 
L 194.022279 146.254736 
L 188.996831 151.287299 
z
" style="fill:#0000b1;fill-opacity:0.3;"/>
    <path clip-path="url(#pbe74fba467)" d="M 327.129525 198.166141 
L 335.990068 203.771878 
L 340.572739 198.569473 
L 331.733822 192.986975 
L 327.129525 198.166141 
z
" style="fill:#0000e7;fill-opacity:0.3;"/>
    <path clip-path="url(#pbe74fba467)" d="M 273.631603 180.545364 
L 282.430572 186.134632 
L 287.1778 180.986336 
L 278.400087 175.420195 
L 273.631603 180.545364 
z
" style="fill:#0000d2;fill-opacity:0.3;"/>
    <path clip-path="url(#pbe74fba467)" d="M 220.111311 162.898353 
L 228.848796 168.471173 
L 233.76078 163.377074 
L 225.044181 157.827269 
L 220.111311 162.898353 
z
" style="fill:#0000bd;fill-opacity:0.3;"/>
    <path clip-path="url(#pbe74fba467)" d="M 358.31341 209.772191 
L 367.215321 215.392504 
L 371.70484 210.151395 
L 362.824796 204.554423 
L 358.31341 209.772191 
z
" style="fill:#0000f3;fill-opacity:0.3;"/>
    <path clip-path="url(#pbe74fba467)" d="M 304.795566 192.156188 
L 313.635775 197.759995 
L 318.289938 192.573007 
L 309.471225 186.99243 
L 304.795566 192.156188 
z
" style="fill:#0000de;fill-opacity:0.3;"/>
    <path clip-path="url(#pbe74fba467)" d="M 251.255821 174.514107 
L 260.034418 180.101431 
L 264.853423 174.968651 
L 256.095951 169.404446 
L 251.255821 174.514107 
z
" style="fill:#0000c9;fill-opacity:0.3;"/>
    <path clip-path="url(#pbe74fba467)" d="M 197.693327 156.845657 
L 206.410401 162.416519 
L 211.394449 157.338038 
L 202.69813 151.790182 
L 197.693327 156.845657 
z
" style="fill:#0000b3;fill-opacity:0.3;"/>
    <path clip-path="url(#pbe74fba467)" d="M 335.990068 203.771878 
L 344.871643 209.390268 
L 349.432575 204.16453 
L 340.572739 198.569473 
L 335.990068 203.771878 
z
" style="fill:#0000ea;fill-opacity:0.3;"/>
    <path clip-path="url(#pbe74fba467)" d="M 282.430572 186.134632 
L 291.250407 191.736501 
L 295.976267 186.564984 
L 287.1778 180.986336 
L 282.430572 186.134632 
z
" style="fill:#0000d4;fill-opacity:0.3;"/>
    <path clip-path="url(#pbe74fba467)" d="M 228.848796 168.471173 
L 237.60698 174.056545 
L 242.497968 168.939337 
L 233.76078 163.377074 
L 228.848796 168.471173 
z
" style="fill:#0000bf;fill-opacity:0.3;"/>
    <path clip-path="url(#pbe74fba467)" d="M 367.215321 215.392504 
L 376.138391 221.025519 
L 380.605925 215.760972 
L 371.70484 210.151395 
L 367.215321 215.392504 
z
" style="fill:#0000f6;fill-opacity:0.3;"/>
    <path clip-path="url(#pbe74fba467)" d="M 175.243889 150.781209 
L 183.94051 156.350107 
L 188.996831 151.287299 
L 180.320835 145.741397 
L 175.243889 150.781209 
z
" style="fill:#0000aa;fill-opacity:0.3;"/>
    <path clip-path="url(#pbe74fba467)" d="M 313.635775 197.759995 
L 322.496974 203.376453 
L 327.129525 198.166141 
L 318.289938 192.573007 
L 313.635775 197.759995 
z
" style="fill:#0000e0;fill-opacity:0.3;"/>
    <path clip-path="url(#pbe74fba467)" d="M 260.034418 180.101431 
L 268.833838 185.701356 
L 273.631603 180.545364 
L 264.853423 174.968651 
L 260.034418 180.101431 
z
" style="fill:#0000cb;fill-opacity:0.3;"/>
    <path clip-path="url(#pbe74fba467)" d="M 206.410401 162.416519 
L 215.14813 167.999934 
L 220.111311 162.898353 
L 211.394449 157.338038 
L 206.410401 162.416519 
z
" style="fill:#0000b6;fill-opacity:0.3;"/>
    <path clip-path="url(#pbe74fba467)" d="M 344.871643 209.390268 
L 353.774333 215.021357 
L 358.31341 209.772191 
L 349.432575 204.16453 
L 344.871643 209.390268 
z
" style="fill:#0000ec;fill-opacity:0.3;"/>
    <path clip-path="url(#pbe74fba467)" d="M 291.250407 191.736501 
L 300.091187 197.351021 
L 304.795566 192.156188 
L 295.976267 186.564984 
L 291.250407 191.736501 
z
" style="fill:#0000d7;fill-opacity:0.3;"/>
    <path clip-path="url(#pbe74fba467)" d="M 237.60698 174.056545 
L 246.385942 179.654518 
L 251.255821 174.514107 
L 242.497968 168.939337 
L 237.60698 174.056545 
z
" style="fill:#0000c2;fill-opacity:0.3;"/>
    <path clip-path="url(#pbe74fba467)" d="M 183.94051 156.350107 
L 192.657743 161.931555 
L 197.693327 156.845657 
L 188.996831 151.287299 
L 183.94051 156.350107 
z
" style="fill:#0000ac;fill-opacity:0.3;"/>
    <path clip-path="url(#pbe74fba467)" d="M 322.496974 203.376453 
L 331.379242 209.005611 
L 335.990068 203.771878 
L 327.129525 198.166141 
L 322.496974 203.376453 
z
" style="fill:#0000e3;fill-opacity:0.3;"/>
    <path clip-path="url(#pbe74fba467)" d="M 268.833838 185.701356 
L 277.654159 191.31393 
L 282.430572 186.134632 
L 273.631603 180.545364 
L 268.833838 185.701356 
z
" style="fill:#0000cd;fill-opacity:0.3;"/>
    <path clip-path="url(#pbe74fba467)" d="M 215.14813 167.999934 
L 223.906594 173.595948 
L 228.848796 168.471173 
L 220.111311 162.898353 
L 215.14813 167.999934 
z
" style="fill:#0000b8;fill-opacity:0.3;"/>
    <path clip-path="url(#pbe74fba467)" d="M 353.774333 215.021357 
L 362.698215 220.665195 
L 367.215321 215.392504 
L 358.31341 209.772191 
L 353.774333 215.021357 
z
" style="fill:#0000ee;fill-opacity:0.3;"/>
    <path clip-path="url(#pbe74fba467)" d="M 300.091187 197.351021 
L 308.952993 202.978239 
L 313.635775 197.759995 
L 304.795566 192.156188 
L 300.091187 197.351021 
z
" style="fill:#0000d9;fill-opacity:0.3;"/>
    <path clip-path="url(#pbe74fba467)" d="M 246.385942 179.654518 
L 255.185761 185.26514 
L 260.034418 180.101431 
L 251.255821 174.514107 
L 246.385942 179.654518 
z
" style="fill:#0000c4;fill-opacity:0.3;"/>
    <path clip-path="url(#pbe74fba467)" d="M 192.657743 161.931555 
L 201.395665 167.525603 
L 206.410401 162.416519 
L 197.693327 156.845657 
L 192.657743 161.931555 
z
" style="fill:#0000af;fill-opacity:0.3;"/>
    <path clip-path="url(#pbe74fba467)" d="M 331.379242 209.005611 
L 340.282659 214.647516 
L 344.871643 209.390268 
L 335.990068 203.771878 
L 331.379242 209.005611 
z
" style="fill:#0000e5;fill-opacity:0.3;"/>
    <path clip-path="url(#pbe74fba467)" d="M 277.654159 191.31393 
L 286.49546 196.939202 
L 291.250407 191.736501 
L 282.430572 186.134632 
L 277.654159 191.31393 
z
" style="fill:#0000d0;fill-opacity:0.3;"/>
    <path clip-path="url(#pbe74fba467)" d="M 223.906594 173.595948 
L 232.685869 179.204609 
L 237.60698 174.056545 
L 228.848796 168.471173 
L 223.906594 173.595948 
z
" style="fill:#0000ba;fill-opacity:0.3;"/>
    <path clip-path="url(#pbe74fba467)" d="M 362.698215 220.665195 
L 371.643372 226.32183 
L 376.138391 221.025519 
L 367.215321 215.392504 
L 362.698215 220.665195 
z
" style="fill:#0000f1;fill-opacity:0.3;"/>
    <path clip-path="url(#pbe74fba467)" d="M 170.135691 155.851369 
L 178.85303 161.443443 
L 183.94051 156.350107 
L 175.243889 150.781209 
L 170.135691 155.851369 
z
" style="fill:#0000a5;fill-opacity:0.3;"/>
    <path clip-path="url(#pbe74fba467)" d="M 308.952993 202.978239 
L 317.835903 208.618204 
L 322.496974 203.376453 
L 313.635775 197.759995 
L 308.952993 202.978239 
z
" style="fill:#0000dc;fill-opacity:0.3;"/>
    <path clip-path="url(#pbe74fba467)" d="M 255.185761 185.26514 
L 264.006517 190.888457 
L 268.833838 185.701356 
L 260.034418 180.101431 
L 255.185761 185.26514 
z
" style="fill:#0000c6;fill-opacity:0.3;"/>
    <path clip-path="url(#pbe74fba467)" d="M 201.395665 167.525603 
L 210.154355 173.132297 
L 215.14813 167.999934 
L 206.410401 162.416519 
L 201.395665 167.525603 
z
" style="fill:#0000b1;fill-opacity:0.3;"/>
    <path clip-path="url(#pbe74fba467)" d="M 340.282659 214.647516 
L 349.207306 220.302217 
L 353.774333 215.021357 
L 344.871643 209.390268 
L 340.282659 214.647516 
z
" style="fill:#0000e7;fill-opacity:0.3;"/>
    <path clip-path="url(#pbe74fba467)" d="M 286.49546 196.939202 
L 295.357822 202.577219 
L 300.091187 197.351021 
L 291.250407 191.736501 
L 286.49546 196.939202 
z
" style="fill:#0000d2;fill-opacity:0.3;"/>
    <path clip-path="url(#pbe74fba467)" d="M 232.685869 179.204609 
L 241.486037 184.825966 
L 246.385942 179.654518 
L 237.60698 174.056545 
L 232.685869 179.204609 
z
" style="fill:#0000bd;fill-opacity:0.3;"/>
    <path clip-path="url(#pbe74fba467)" d="M 178.85303 161.443443 
L 187.591091 167.048162 
L 192.657743 161.931555 
L 183.94051 156.350107 
L 178.85303 161.443443 
z
" style="fill:#0000a8;fill-opacity:0.3;"/>
    <path clip-path="url(#pbe74fba467)" d="M 317.835903 208.618204 
L 326.739999 214.270964 
L 331.379242 209.005611 
L 322.496974 203.376453 
L 317.835903 208.618204 
z
" style="fill:#0000de;fill-opacity:0.3;"/>
    <path clip-path="url(#pbe74fba467)" d="M 264.006517 190.888457 
L 272.848288 196.52452 
L 277.654159 191.31393 
L 268.833838 185.701356 
L 264.006517 190.888457 
z
" style="fill:#0000c9;fill-opacity:0.3;"/>
    <path clip-path="url(#pbe74fba467)" d="M 210.154355 173.132297 
L 218.933892 178.751685 
L 223.906594 173.595948 
L 215.14813 167.999934 
L 210.154355 173.132297 
z
" style="fill:#0000b3;fill-opacity:0.3;"/>
    <path clip-path="url(#pbe74fba467)" d="M 349.207306 220.302217 
L 358.153264 225.969763 
L 362.698215 220.665195 
L 353.774333 215.021357 
L 349.207306 220.302217 
z
" style="fill:#0000ea;fill-opacity:0.3;"/>
    <path clip-path="url(#pbe74fba467)" d="M 295.357822 202.577219 
L 304.241324 208.228031 
L 308.952993 202.978239 
L 300.091187 197.351021 
L 295.357822 202.577219 
z
" style="fill:#0000d4;fill-opacity:0.3;"/>
    <path clip-path="url(#pbe74fba467)" d="M 241.486037 184.825966 
L 250.307175 190.460066 
L 255.185761 185.26514 
L 246.385942 179.654518 
L 241.486037 184.825966 
z
" style="fill:#0000bf;fill-opacity:0.3;"/>
    <path clip-path="url(#pbe74fba467)" d="M 187.591091 167.048162 
L 196.349955 172.665574 
L 201.395665 167.525603 
L 192.657743 161.931555 
L 187.591091 167.048162 
z
" style="fill:#0000aa;fill-opacity:0.3;"/>
    <path clip-path="url(#pbe74fba467)" d="M 326.739999 214.270964 
L 335.665361 219.936568 
L 340.282659 214.647516 
L 331.379242 209.005611 
L 326.739999 214.270964 
z
" style="fill:#0000e0;fill-opacity:0.3;"/>
    <path clip-path="url(#pbe74fba467)" d="M 272.848288 196.52452 
L 281.711155 202.173376 
L 286.49546 196.939202 
L 277.654159 191.31393 
L 272.848288 196.52452 
z
" style="fill:#0000cb;fill-opacity:0.3;"/>
    <path clip-path="url(#pbe74fba467)" d="M 218.933892 178.751685 
L 227.734355 184.383817 
L 232.685869 179.204609 
L 223.906594 173.595948 
L 218.933892 178.751685 
z
" style="fill:#0000b6;fill-opacity:0.3;"/>
    <path clip-path="url(#pbe74fba467)" d="M 358.153264 225.969763 
L 367.120613 231.650203 
L 371.643372 226.32183 
L 362.698215 220.665195 
L 358.153264 225.969763 
z
" style="fill:#0000ec;fill-opacity:0.3;"/>
    <path clip-path="url(#pbe74fba467)" d="M 164.99595 160.952163 
L 173.734097 166.567592 
L 178.85303 161.443443 
L 170.135691 155.851369 
L 164.99595 160.952163 
z
" style="fill:#0000a1;fill-opacity:0.3;"/>
    <path clip-path="url(#pbe74fba467)" d="M 304.241324 208.228031 
L 313.146048 213.891686 
L 317.835903 208.618204 
L 308.952993 202.978239 
L 304.241324 208.228031 
z
" style="fill:#0000d7;fill-opacity:0.3;"/>
    <path clip-path="url(#pbe74fba467)" d="M 250.307175 190.460066 
L 259.149365 196.10696 
L 264.006517 190.888457 
L 255.185761 185.26514 
L 250.307175 190.460066 
z
" style="fill:#0000c2;fill-opacity:0.3;"/>
    <path clip-path="url(#pbe74fba467)" d="M 196.349955 172.665574 
L 205.1297 178.29573 
L 210.154355 173.132297 
L 201.395665 167.525603 
L 196.349955 172.665574 
z
" style="fill:#0000ac;fill-opacity:0.3;"/>
    <path clip-path="url(#pbe74fba467)" d="M 335.665361 219.936568 
L 344.612069 225.615066 
L 349.207306 220.302217 
L 340.282659 214.647516 
L 335.665361 219.936568 
z
" style="fill:#0000e3;fill-opacity:0.3;"/>
    <path clip-path="url(#pbe74fba467)" d="M 281.711155 202.173376 
L 290.595199 207.835075 
L 295.357822 202.577219 
L 286.49546 196.939202 
L 281.711155 202.173376 
z
" style="fill:#0000cd;fill-opacity:0.3;"/>
    <path clip-path="url(#pbe74fba467)" d="M 227.734355 184.383817 
L 236.555824 190.02874 
L 241.486037 184.825966 
L 232.685869 179.204609 
L 227.734355 184.383817 
z
" style="fill:#0000b8;fill-opacity:0.3;"/>
    <path clip-path="url(#pbe74fba467)" d="M 173.734097 166.567592 
L 182.493081 172.195763 
L 187.591091 167.048162 
L 178.85303 161.443443 
L 173.734097 166.567592 
z
" style="fill:#0000a3;fill-opacity:0.3;"/>
    <path clip-path="url(#pbe74fba467)" d="M 313.146048 213.891686 
L 322.072073 219.568233 
L 326.739999 214.270964 
L 317.835903 208.618204 
L 313.146048 213.891686 
z
" style="fill:#0000d9;fill-opacity:0.3;"/>
    <path clip-path="url(#pbe74fba467)" d="M 259.149365 196.10696 
L 268.012685 201.766695 
L 272.848288 196.52452 
L 264.006517 190.888457 
L 259.149365 196.10696 
z
" style="fill:#0000c4;fill-opacity:0.3;"/>
    <path clip-path="url(#pbe74fba467)" d="M 205.1297 178.29573 
L 213.930406 183.938676 
L 218.933892 178.751685 
L 210.154355 173.132297 
L 205.1297 178.29573 
z
" style="fill:#0000af;fill-opacity:0.3;"/>
    <path clip-path="url(#pbe74fba467)" d="M 344.612069 225.615066 
L 353.580206 231.306506 
L 358.153264 225.969763 
L 349.207306 220.302217 
L 344.612069 225.615066 
z
" style="fill:#0000e5;fill-opacity:0.3;"/>
    <path clip-path="url(#pbe74fba467)" d="M 290.595199 207.835075 
L 299.500499 213.509666 
L 304.241324 208.228031 
L 295.357822 202.577219 
L 290.595199 207.835075 
z
" style="fill:#0000d0;fill-opacity:0.3;"/>
    <path clip-path="url(#pbe74fba467)" d="M 236.555824 190.02874 
L 245.398379 195.686505 
L 250.307175 190.460066 
L 241.486037 184.825966 
L 236.555824 190.02874 
z
" style="fill:#0000ba;fill-opacity:0.3;"/>
    <path clip-path="url(#pbe74fba467)" d="M 182.493081 172.195763 
L 191.27298 177.836724 
L 196.349955 172.665574 
L 187.591091 167.048162 
L 182.493081 172.195763 
z
" style="fill:#0000a5;fill-opacity:0.3;"/>
    <path clip-path="url(#pbe74fba467)" d="M 322.072073 219.568233 
L 331.019482 225.257723 
L 335.665361 219.936568 
L 326.739999 214.270964 
L 322.072073 219.568233 
z
" style="fill:#0000dc;fill-opacity:0.3;"/>
    <path clip-path="url(#pbe74fba467)" d="M 268.012685 201.766695 
L 276.897217 207.439321 
L 281.711155 202.173376 
L 272.848288 196.52452 
L 268.012685 201.766695 
z
" style="fill:#0000c6;fill-opacity:0.3;"/>
    <path clip-path="url(#pbe74fba467)" d="M 213.930406 183.938676 
L 222.752152 189.594462 
L 227.734355 184.383817 
L 218.933892 178.751685 
L 213.930406 183.938676 
z
" style="fill:#0000b1;fill-opacity:0.3;"/>
    <path clip-path="url(#pbe74fba467)" d="M 353.580206 231.306506 
L 362.569853 237.010938 
L 367.120613 231.650203 
L 358.153264 225.969763 
L 353.580206 231.306506 
z
" style="fill:#0000e7;fill-opacity:0.3;"/>
    <path clip-path="url(#pbe74fba467)" d="M 159.824368 166.083876 
L 168.583418 171.722845 
L 173.734097 166.567592 
L 164.99595 160.952163 
L 159.824368 166.083876 
z
" style="fill:#00009c;fill-opacity:0.3;"/>
    <path clip-path="url(#pbe74fba467)" d="M 299.500499 213.509666 
L 308.427137 219.197197 
L 313.146048 213.891686 
L 304.241324 208.228031 
L 299.500499 213.509666 
z
" style="fill:#0000d2;fill-opacity:0.3;"/>
    <path clip-path="url(#pbe74fba467)" d="M 245.398379 195.686505 
L 254.2621 201.357159 
L 259.149365 196.10696 
L 250.307175 190.460066 
L 245.398379 195.686505 
z
" style="fill:#0000bd;fill-opacity:0.3;"/>
    <path clip-path="url(#pbe74fba467)" d="M 191.27298 177.836724 
L 200.073874 183.490524 
L 205.1297 178.29573 
L 196.349955 172.665574 
L 191.27298 177.836724 
z
" style="fill:#0000a8;fill-opacity:0.3;"/>
    <path clip-path="url(#pbe74fba467)" d="M 331.019482 225.257723 
L 339.988356 230.960204 
L 344.612069 225.615066 
L 335.665361 219.936568 
L 331.019482 225.257723 
z
" style="fill:#0000de;fill-opacity:0.3;"/>
    <path clip-path="url(#pbe74fba467)" d="M 276.897217 207.439321 
L 285.803042 213.124888 
L 290.595199 207.835075 
L 281.711155 202.173376 
L 276.897217 207.439321 
z
" style="fill:#0000c9;fill-opacity:0.3;"/>
    <path clip-path="url(#pbe74fba467)" d="M 222.752152 189.594462 
L 231.595019 195.263137 
L 236.555824 190.02874 
L 227.734355 184.383817 
L 222.752152 189.594462 
z
" style="fill:#0000b3;fill-opacity:0.3;"/>
    <path clip-path="url(#pbe74fba467)" d="M 168.583418 171.722845 
L 177.363417 177.374651 
L 182.493081 172.195763 
L 173.734097 166.567592 
L 168.583418 171.722845 
z
" style="fill:#00009e;fill-opacity:0.3;"/>
    <path clip-path="url(#pbe74fba467)" d="M 308.427137 219.197197 
L 317.375195 224.89772 
L 322.072073 219.568233 
L 313.146048 213.891686 
L 308.427137 219.197197 
z
" style="fill:#0000d4;fill-opacity:0.3;"/>
    <path clip-path="url(#pbe74fba467)" d="M 254.2621 201.357159 
L 263.147069 207.040753 
L 268.012685 201.766695 
L 259.149365 196.10696 
L 254.2621 201.357159 
z
" style="fill:#0000bf;fill-opacity:0.3;"/>
    <path clip-path="url(#pbe74fba467)" d="M 200.073874 183.490524 
L 208.895844 189.157213 
L 213.930406 183.938676 
L 205.1297 178.29573 
L 200.073874 183.490524 
z
" style="fill:#0000aa;fill-opacity:0.3;"/>
    <path clip-path="url(#pbe74fba467)" d="M 339.988356 230.960204 
L 348.978778 236.675726 
L 353.580206 231.306506 
L 344.612069 225.615066 
L 339.988356 230.960204 
z
" style="fill:#0000e0;fill-opacity:0.3;"/>
    <path clip-path="url(#pbe74fba467)" d="M 285.803042 213.124888 
L 294.730242 218.823444 
L 299.500499 213.509666 
L 290.595199 207.835075 
L 285.803042 213.124888 
z
" style="fill:#0000cb;fill-opacity:0.3;"/>
    <path clip-path="url(#pbe74fba467)" d="M 231.595019 195.263137 
L 240.459088 200.94475 
L 245.398379 195.686505 
L 236.555824 190.02874 
L 231.595019 195.263137 
z
" style="fill:#0000b6;fill-opacity:0.3;"/>
    <path clip-path="url(#pbe74fba467)" d="M 177.363417 177.374651 
L 186.164445 183.039346 
L 191.27298 177.836724 
L 182.493081 172.195763 
L 177.363417 177.374651 
z
" style="fill:#0000a1;fill-opacity:0.3;"/>
    <path clip-path="url(#pbe74fba467)" d="M 317.375195 224.89772 
L 326.344755 230.611283 
L 331.019482 225.257723 
L 322.072073 219.568233 
L 317.375195 224.89772 
z
" style="fill:#0000d7;fill-opacity:0.3;"/>
    <path clip-path="url(#pbe74fba467)" d="M 263.147069 207.040753 
L 272.053367 212.737335 
L 276.897217 207.439321 
L 268.012685 201.766695 
L 263.147069 207.040753 
z
" style="fill:#0000c2;fill-opacity:0.3;"/>
    <path clip-path="url(#pbe74fba467)" d="M 208.895844 189.157213 
L 217.73897 194.836839 
L 222.752152 189.594462 
L 213.930406 183.938676 
L 208.895844 189.157213 
z
" style="fill:#0000ac;fill-opacity:0.3;"/>
    <path clip-path="url(#pbe74fba467)" d="M 348.978778 236.675726 
L 357.990829 242.40434 
L 362.569853 237.010938 
L 353.580206 231.306506 
L 348.978778 236.675726 
z
" style="fill:#0000e3;fill-opacity:0.3;"/>
    <path clip-path="url(#pbe74fba467)" d="M 154.620648 171.246801 
L 163.400692 176.909493 
L 168.583418 171.722845 
L 159.824368 166.083876 
L 154.620648 171.246801 
z
" style="fill:#000097;fill-opacity:0.3;"/>
    <path clip-path="url(#pbe74fba467)" d="M 294.730242 218.823444 
L 303.678897 224.53504 
L 308.427137 219.197197 
L 299.500499 213.509666 
L 294.730242 218.823444 
z
" style="fill:#0000cd;fill-opacity:0.3;"/>
    <path clip-path="url(#pbe74fba467)" d="M 240.459088 200.94475 
L 249.344441 206.639352 
L 254.2621 201.357159 
L 245.398379 195.686505 
L 240.459088 200.94475 
z
" style="fill:#0000b8;fill-opacity:0.3;"/>
    <path clip-path="url(#pbe74fba467)" d="M 186.164445 183.039346 
L 194.986585 188.716977 
L 200.073874 183.490524 
L 191.27298 177.836724 
L 186.164445 183.039346 
z
" style="fill:#0000a3;fill-opacity:0.3;"/>
    <path clip-path="url(#pbe74fba467)" d="M 326.344755 230.611283 
L 335.3359 236.337936 
L 339.988356 230.960204 
L 331.019482 225.257723 
L 326.344755 230.611283 
z
" style="fill:#0000d9;fill-opacity:0.3;"/>
    <path clip-path="url(#pbe74fba467)" d="M 272.053367 212.737335 
L 280.981075 218.446957 
L 285.803042 213.124888 
L 276.897217 207.439321 
L 272.053367 212.737335 
z
" style="fill:#0000c4;fill-opacity:0.3;"/>
    <path clip-path="url(#pbe74fba467)" d="M 217.73897 194.836839 
L 226.603334 200.529453 
L 231.595019 195.263137 
L 222.752152 189.594462 
L 217.73897 194.836839 
z
" style="fill:#0000af;fill-opacity:0.3;"/>
    <path clip-path="url(#pbe74fba467)" d="M 163.400692 176.909493 
L 172.2018 182.585121 
L 177.363417 177.374651 
L 168.583418 171.722845 
L 163.400692 176.909493 
z
" style="fill:#000099;fill-opacity:0.3;"/>
    <path clip-path="url(#pbe74fba467)" d="M 303.678897 224.53504 
L 312.649092 230.259726 
L 317.375195 224.89772 
L 308.427137 219.197197 
L 303.678897 224.53504 
z
" style="fill:#0000d0;fill-opacity:0.3;"/>
    <path clip-path="url(#pbe74fba467)" d="M 249.344441 206.639352 
L 258.251158 212.346992 
L 263.147069 207.040753 
L 254.2621 201.357159 
L 249.344441 206.639352 
z
" style="fill:#0000ba;fill-opacity:0.3;"/>
    <path clip-path="url(#pbe74fba467)" d="M 194.986585 188.716977 
L 203.829915 194.407594 
L 208.895844 189.157213 
L 200.073874 183.490524 
L 194.986585 188.716977 
z
" style="fill:#0000a5;fill-opacity:0.3;"/>
    <path clip-path="url(#pbe74fba467)" d="M 335.3359 236.337936 
L 344.348711 242.077731 
L 348.978778 236.675726 
L 339.988356 230.960204 
L 335.3359 236.337936 
z
" style="fill:#0000dc;fill-opacity:0.3;"/>
    <path clip-path="url(#pbe74fba467)" d="M 280.981075 218.446957 
L 289.930276 224.169668 
L 294.730242 218.823444 
L 285.803042 213.124888 
L 280.981075 218.446957 
z
" style="fill:#0000c6;fill-opacity:0.3;"/>
    <path clip-path="url(#pbe74fba467)" d="M 226.603334 200.529453 
L 235.489016 206.235104 
L 240.459088 200.94475 
L 231.595019 195.263137 
L 226.603334 200.529453 
z
" style="fill:#0000b1;fill-opacity:0.3;"/>
    <path clip-path="url(#pbe74fba467)" d="M 172.2018 182.585121 
L 181.024054 188.273736 
L 186.164445 183.039346 
L 177.363417 177.374651 
L 172.2018 182.585121 
z
" style="fill:#00009c;fill-opacity:0.3;"/>
    <path clip-path="url(#pbe74fba467)" d="M 312.649092 230.259726 
L 321.640907 235.997553 
L 326.344755 230.611283 
L 317.375195 224.89772 
L 312.649092 230.259726 
z
" style="fill:#0000d2;fill-opacity:0.3;"/>
    <path clip-path="url(#pbe74fba467)" d="M 258.251158 212.346992 
L 267.179322 218.067721 
L 272.053367 212.737335 
L 263.147069 207.040753 
L 258.251158 212.346992 
z
" style="fill:#0000bd;fill-opacity:0.3;"/>
    <path clip-path="url(#pbe74fba467)" d="M 203.829915 194.407594 
L 212.694518 200.111249 
L 217.73897 194.836839 
L 208.895844 189.157213 
L 203.829915 194.407594 
z
" style="fill:#0000a8;fill-opacity:0.3;"/>
    <path clip-path="url(#pbe74fba467)" d="M 344.348711 242.077731 
L 353.383273 247.830718 
L 357.990829 242.40434 
L 348.978778 236.675726 
L 344.348711 242.077731 
z
" style="fill:#0000de;fill-opacity:0.3;"/>
    <path clip-path="url(#pbe74fba467)" d="M 149.384486 176.441231 
L 158.185618 182.127834 
L 163.400692 176.909493 
L 154.620648 171.246801 
L 149.384486 176.441231 
z
" style="fill:#000092;fill-opacity:0.3;"/>
    <path clip-path="url(#pbe74fba467)" d="M 289.930276 224.169668 
L 298.901052 229.905519 
L 303.678897 224.53504 
L 294.730242 218.823444 
L 289.930276 224.169668 
z
" style="fill:#0000c9;fill-opacity:0.3;"/>
    <path clip-path="url(#pbe74fba467)" d="M 235.489016 206.235104 
L 244.396099 211.953842 
L 249.344441 206.639352 
L 240.459088 200.94475 
L 235.489016 206.235104 
z
" style="fill:#0000b3;fill-opacity:0.3;"/>
    <path clip-path="url(#pbe74fba467)" d="M 181.024054 188.273736 
L 189.867534 193.975386 
L 194.986585 188.716977 
L 186.164445 183.039346 
L 181.024054 188.273736 
z
" style="fill:#00009e;fill-opacity:0.3;"/>
    <path clip-path="url(#pbe74fba467)" d="M 321.640907 235.997553 
L 330.654427 241.74857 
L 335.3359 236.337936 
L 326.344755 230.611283 
L 321.640907 235.997553 
z
" style="fill:#0000d4;fill-opacity:0.3;"/>
    <path clip-path="url(#pbe74fba467)" d="M 267.179322 218.067721 
L 276.129015 223.801589 
L 280.981075 218.446957 
L 272.053367 212.737335 
L 267.179322 218.067721 
z
" style="fill:#0000bf;fill-opacity:0.3;"/>
    <path clip-path="url(#pbe74fba467)" d="M 212.694518 200.111249 
L 221.580476 205.82799 
L 226.603334 200.529453 
L 217.73897 194.836839 
L 212.694518 200.111249 
z
" style="fill:#0000aa;fill-opacity:0.3;"/>
    <path clip-path="url(#pbe74fba467)" d="M 158.185618 182.127834 
L 167.00793 187.827472 
L 172.2018 182.585121 
L 163.400692 176.909493 
L 158.185618 182.127834 
z
" style="fill:#000095;fill-opacity:0.3;"/>
    <path clip-path="url(#pbe74fba467)" d="M 298.901052 229.905519 
L 307.893486 235.65456 
L 312.649092 230.259726 
L 303.678897 224.53504 
L 298.901052 229.905519 
z
" style="fill:#0000cb;fill-opacity:0.3;"/>
    <path clip-path="url(#pbe74fba467)" d="M 244.396099 211.953842 
L 253.324664 217.685719 
L 258.251158 212.346992 
L 249.344441 206.639352 
L 244.396099 211.953842 
z
" style="fill:#0000b6;fill-opacity:0.3;"/>
    <path clip-path="url(#pbe74fba467)" d="M 189.867534 193.975386 
L 198.732321 199.690122 
L 203.829915 194.407594 
L 194.986585 188.716977 
L 189.867534 193.975386 
z
" style="fill:#0000a0;fill-opacity:0.3;"/>
    <path clip-path="url(#pbe74fba467)" d="M 330.654427 241.74857 
L 339.689736 247.51283 
L 344.348711 242.077731 
L 335.3359 236.337936 
L 330.654427 241.74857 
z
" style="fill:#0000d7;fill-opacity:0.3;"/>
    <path clip-path="url(#pbe74fba467)" d="M 276.129015 223.801589 
L 285.10032 229.548646 
L 289.930276 224.169668 
L 280.981075 218.446957 
L 276.129015 223.801589 
z
" style="fill:#0000c2;fill-opacity:0.3;"/>
    <path clip-path="url(#pbe74fba467)" d="M 221.580476 205.82799 
L 230.48787 211.557869 
L 235.489016 206.235104 
L 226.603334 200.529453 
L 221.580476 205.82799 
z
" style="fill:#0000ac;fill-opacity:0.3;"/>
    <path clip-path="url(#pbe74fba467)" d="M 167.00793 187.827472 
L 175.851503 193.540195 
L 181.024054 188.273736 
L 172.2018 182.585121 
L 167.00793 187.827472 
z
" style="fill:#000097;fill-opacity:0.3;"/>
    <path clip-path="url(#pbe74fba467)" d="M 307.893486 235.65456 
L 316.907663 241.416843 
L 321.640907 235.997553 
L 312.649092 230.259726 
L 307.893486 235.65456 
z
" style="fill:#0000cd;fill-opacity:0.3;"/>
    <path clip-path="url(#pbe74fba467)" d="M 253.324664 217.685719 
L 262.274796 223.430785 
L 267.179322 218.067721 
L 258.251158 212.346992 
L 253.324664 217.685719 
z
" style="fill:#0000b8;fill-opacity:0.3;"/>
    <path clip-path="url(#pbe74fba467)" d="M 198.732321 199.690122 
L 207.618499 205.417995 
L 212.694518 200.111249 
L 203.829915 194.407594 
L 198.732321 199.690122 
z
" style="fill:#0000a3;fill-opacity:0.3;"/>
    <path clip-path="url(#pbe74fba467)" d="M 339.689736 247.51283 
L 348.746916 253.290383 
L 353.383273 247.830718 
L 344.348711 242.077731 
L 339.689736 247.51283 
z
" style="fill:#0000d9;fill-opacity:0.3;"/>
    <path clip-path="url(#pbe74fba467)" d="M 144.115574 181.667464 
L 152.937888 187.378167 
L 158.185618 182.127834 
L 149.384486 176.441231 
L 144.115574 181.667464 
z
" style="fill:#00008e;fill-opacity:0.3;"/>
    <path clip-path="url(#pbe74fba467)" d="M 285.10032 229.548646 
L 294.09332 235.308944 
L 298.901052 229.905519 
L 289.930276 224.169668 
L 285.10032 229.548646 
z
" style="fill:#0000c4;fill-opacity:0.3;"/>
    <path clip-path="url(#pbe74fba467)" d="M 230.48787 211.557869 
L 239.416783 217.300935 
L 244.396099 211.953842 
L 235.489016 206.235104 
L 230.48787 211.557869 
z
" style="fill:#0000af;fill-opacity:0.3;"/>
    <path clip-path="url(#pbe74fba467)" d="M 175.851503 193.540195 
L 184.71642 199.266054 
L 189.867534 193.975386 
L 181.024054 188.273736 
L 175.851503 193.540195 
z
" style="fill:#000099;fill-opacity:0.3;"/>
    <path clip-path="url(#pbe74fba467)" d="M 316.907663 241.416843 
L 325.943665 247.192418 
L 330.654427 241.74857 
L 321.640907 235.997553 
L 316.907663 241.416843 
z
" style="fill:#0000d0;fill-opacity:0.3;"/>
    <path clip-path="url(#pbe74fba467)" d="M 262.274796 223.430785 
L 271.246576 229.189091 
L 276.129015 223.801589 
L 267.179322 218.067721 
L 262.274796 223.430785 
z
" style="fill:#0000ba;fill-opacity:0.3;"/>
    <path clip-path="url(#pbe74fba467)" d="M 207.618499 205.417995 
L 216.52615 211.159055 
L 221.580476 205.82799 
L 212.694518 200.111249 
L 207.618499 205.417995 
z
" style="fill:#0000a5;fill-opacity:0.3;"/>
    <path clip-path="url(#pbe74fba467)" d="M 152.937888 187.378167 
L 161.781499 193.102005 
L 167.00793 187.827472 
L 158.185618 182.127834 
L 152.937888 187.378167 
z
" style="fill:#000090;fill-opacity:0.3;"/>
    <path clip-path="url(#pbe74fba467)" d="M 294.09332 235.308944 
L 303.1081 241.082534 
L 307.893486 235.65456 
L 298.901052 229.905519 
L 294.09332 235.308944 
z
" style="fill:#0000c6;fill-opacity:0.3;"/>
    <path clip-path="url(#pbe74fba467)" d="M 239.416783 217.300935 
L 248.367299 223.057241 
L 253.324664 217.685719 
L 244.396099 211.953842 
L 239.416783 217.300935 
z
" style="fill:#0000b1;fill-opacity:0.3;"/>
    <path clip-path="url(#pbe74fba467)" d="M 184.71642 199.266054 
L 193.602763 205.0051 
L 198.732321 199.690122 
L 189.867534 193.975386 
L 184.71642 199.266054 
z
" style="fill:#00009c;fill-opacity:0.3;"/>
    <path clip-path="url(#pbe74fba467)" d="M 325.943665 247.192418 
L 335.001577 252.981337 
L 339.689736 247.51283 
L 330.654427 241.74857 
L 325.943665 247.192418 
z
" style="fill:#0000d2;fill-opacity:0.3;"/>
    <path clip-path="url(#pbe74fba467)" d="M 271.246576 229.189091 
L 280.240089 234.960688 
L 285.10032 229.548646 
L 276.129015 223.801589 
L 271.246576 229.189091 
z
" style="fill:#0000bd;fill-opacity:0.3;"/>
    <path clip-path="url(#pbe74fba467)" d="M 216.52615 211.159055 
L 225.455356 216.913353 
L 230.48787 211.557869 
L 221.580476 205.82799 
L 216.52615 211.159055 
z
" style="fill:#0000a8;fill-opacity:0.3;"/>
    <path clip-path="url(#pbe74fba467)" d="M 161.781499 193.102005 
L 170.646488 198.839028 
L 175.851503 193.540195 
L 167.00793 187.827472 
L 161.781499 193.102005 
z
" style="fill:#000092;fill-opacity:0.3;"/>
    <path clip-path="url(#pbe74fba467)" d="M 303.1081 241.082534 
L 312.144742 246.869467 
L 316.907663 241.416843 
L 307.893486 235.65456 
L 303.1081 241.082534 
z
" style="fill:#0000c9;fill-opacity:0.3;"/>
    <path clip-path="url(#pbe74fba467)" d="M 248.367299 223.057241 
L 257.3395 228.826838 
L 262.274796 223.430785 
L 253.324664 217.685719 
L 248.367299 223.057241 
z
" style="fill:#0000b3;fill-opacity:0.3;"/>
    <path clip-path="url(#pbe74fba467)" d="M 193.602763 205.0051 
L 202.510614 210.757383 
L 207.618499 205.417995 
L 198.732321 199.690122 
L 193.602763 205.0051 
z
" style="fill:#00009e;fill-opacity:0.3;"/>
    <path clip-path="url(#pbe74fba467)" d="M 335.001577 252.981337 
L 344.081483 258.783652 
L 348.746916 253.290383 
L 339.689736 247.51283 
L 335.001577 252.981337 
z
" style="fill:#0000d4;fill-opacity:0.3;"/>
    <path clip-path="url(#pbe74fba467)" d="M 138.813602 186.925803 
L 147.657193 192.660797 
L 152.937888 187.378167 
L 144.115574 181.667464 
L 138.813602 186.925803 
z
" style="fill:#000089;fill-opacity:0.3;"/>
    <path clip-path="url(#pbe74fba467)" d="M 280.240089 234.960688 
L 289.255418 240.745627 
L 294.09332 235.308944 
L 285.10032 229.548646 
L 280.240089 234.960688 
z
" style="fill:#0000bf;fill-opacity:0.3;"/>
    <path clip-path="url(#pbe74fba467)" d="M 225.455356 216.913353 
L 234.4062 222.680942 
L 239.416783 217.300935 
L 230.48787 211.557869 
L 225.455356 216.913353 
z
" style="fill:#0000aa;fill-opacity:0.3;"/>
    <path clip-path="url(#pbe74fba467)" d="M 170.646488 198.839028 
L 179.532939 204.589289 
L 184.71642 199.266054 
L 175.851503 193.540195 
L 170.646488 198.839028 
z
" style="fill:#000095;fill-opacity:0.3;"/>
    <path clip-path="url(#pbe74fba467)" d="M 312.144742 246.869467 
L 321.203333 252.669795 
L 325.943665 247.192418 
L 316.907663 241.416843 
L 312.144742 246.869467 
z
" style="fill:#0000cb;fill-opacity:0.3;"/>
    <path clip-path="url(#pbe74fba467)" d="M 257.3395 228.826838 
L 266.333471 234.609776 
L 271.246576 229.189091 
L 262.274796 223.430785 
L 257.3395 228.826838 
z
" style="fill:#0000b6;fill-opacity:0.3;"/>
    <path clip-path="url(#pbe74fba467)" d="M 202.510614 210.757383 
L 211.440057 216.522956 
L 216.52615 211.159055 
L 207.618499 205.417995 
L 202.510614 210.757383 
z
" style="fill:#0000a0;fill-opacity:0.3;"/>
    <path clip-path="url(#pbe74fba467)" d="M 147.657193 192.660797 
L 156.522198 198.409027 
L 161.781499 193.102005 
L 152.937888 187.378167 
L 147.657193 192.660797 
z
" style="fill:#00008b;fill-opacity:0.3;"/>
    <path clip-path="url(#pbe74fba467)" d="M 289.255418 240.745627 
L 298.292648 246.543961 
L 303.1081 241.082534 
L 294.09332 235.308944 
L 289.255418 240.745627 
z
" style="fill:#0000c2;fill-opacity:0.3;"/>
    <path clip-path="url(#pbe74fba467)" d="M 234.4062 222.680942 
L 243.378767 228.461871 
L 248.367299 223.057241 
L 239.416783 217.300935 
L 234.4062 222.680942 
z
" style="fill:#0000ac;fill-opacity:0.3;"/>
    <path clip-path="url(#pbe74fba467)" d="M 179.532939 204.589289 
L 188.440935 210.352838 
L 193.602763 205.0051 
L 184.71642 199.266054 
L 179.532939 204.589289 
z
" style="fill:#000097;fill-opacity:0.3;"/>
    <path clip-path="url(#pbe74fba467)" d="M 321.203333 252.669795 
L 330.283957 258.483571 
L 335.001577 252.981337 
L 325.943665 247.192418 
L 321.203333 252.669795 
z
" style="fill:#0000cd;fill-opacity:0.3;"/>
    <path clip-path="url(#pbe74fba467)" d="M 266.333471 234.609776 
L 275.349295 240.406109 
L 280.240089 234.960688 
L 271.246576 229.189091 
L 266.333471 234.609776 
z
" style="fill:#0000b8;fill-opacity:0.3;"/>
    <path clip-path="url(#pbe74fba467)" d="M 211.440057 216.522956 
L 220.391175 222.301869 
L 225.455356 216.913353 
L 216.52615 211.159055 
L 211.440057 216.522956 
z
" style="fill:#0000a3;fill-opacity:0.3;"/>
    <path clip-path="url(#pbe74fba467)" d="M 156.522198 198.409027 
L 165.4087 204.170545 
L 170.646488 198.839028 
L 161.781499 193.102005 
L 156.522198 198.409027 
z
" style="fill:#00008e;fill-opacity:0.3;"/>
    <path clip-path="url(#pbe74fba467)" d="M 298.292648 246.543961 
L 307.351864 252.355742 
L 312.144742 246.869467 
L 303.1081 241.082534 
L 298.292648 246.543961 
z
" style="fill:#0000c4;fill-opacity:0.3;"/>
    <path clip-path="url(#pbe74fba467)" d="M 243.378767 228.461871 
L 252.373141 234.256194 
L 257.3395 228.826838 
L 248.367299 223.057241 
L 243.378767 228.461871 
z
" style="fill:#0000af;fill-opacity:0.3;"/>
    <path clip-path="url(#pbe74fba467)" d="M 188.440935 210.352838 
L 197.370558 216.129727 
L 202.510614 210.757383 
L 193.602763 205.0051 
L 188.440935 210.352838 
z
" style="fill:#000099;fill-opacity:0.3;"/>
    <path clip-path="url(#pbe74fba467)" d="M 330.283957 258.483571 
L 339.386699 264.310846 
L 344.081483 258.783652 
L 335.001577 252.981337 
L 330.283957 258.483571 
z
" style="fill:#0000d0;fill-opacity:0.3;"/>
    <path clip-path="url(#pbe74fba467)" d="M 133.478255 192.216554 
L 142.343218 197.976032 
L 147.657193 192.660797 
L 138.813602 186.925803 
L 133.478255 192.216554 
z
" style="fill:#000084;fill-opacity:0.3;"/>
    <path clip-path="url(#pbe74fba467)" d="M 275.349295 240.406109 
L 284.387058 246.215887 
L 289.255418 240.745627 
L 280.240089 234.960688 
L 275.349295 240.406109 
z
" style="fill:#0000ba;fill-opacity:0.3;"/>
    <path clip-path="url(#pbe74fba467)" d="M 220.391175 222.301869 
L 229.364052 228.094174 
L 234.4062 222.680942 
L 225.455356 216.913353 
L 220.391175 222.301869 
z
" style="fill:#0000a5;fill-opacity:0.3;"/>
    <path clip-path="url(#pbe74fba467)" d="M 165.4087 204.170545 
L 174.316783 209.945401 
L 179.532939 204.589289 
L 170.646488 198.839028 
L 165.4087 204.170545 
z
" style="fill:#000090;fill-opacity:0.3;"/>
    <path clip-path="url(#pbe74fba467)" d="M 307.351864 252.355742 
L 316.433151 258.181022 
L 321.203333 252.669795 
L 312.144742 246.869467 
L 307.351864 252.355742 
z
" style="fill:#0000c6;fill-opacity:0.3;"/>
    <path clip-path="url(#pbe74fba467)" d="M 252.373141 234.256194 
L 261.389405 240.063962 
L 266.333471 234.609776 
L 257.3395 228.826838 
L 252.373141 234.256194 
z
" style="fill:#0000b1;fill-opacity:0.3;"/>
    <path clip-path="url(#pbe74fba467)" d="M 197.370558 216.129727 
L 206.321893 221.920007 
L 211.440057 216.522956 
L 202.510614 210.757383 
L 197.370558 216.129727 
z
" style="fill:#00009c;fill-opacity:0.3;"/>
    <path clip-path="url(#pbe74fba467)" d="M 142.343218 197.976032 
L 151.229713 203.748849 
L 156.522198 198.409027 
L 147.657193 192.660797 
L 142.343218 197.976032 
z
" style="fill:#000087;fill-opacity:0.3;"/>
    <path clip-path="url(#pbe74fba467)" d="M 284.387058 246.215887 
L 293.446844 252.039163 
L 298.292648 246.543961 
L 289.255418 240.745627 
L 284.387058 246.215887 
z
" style="fill:#0000bd;fill-opacity:0.3;"/>
    <path clip-path="url(#pbe74fba467)" d="M 229.364052 228.094174 
L 238.358772 233.899925 
L 243.378767 228.461871 
L 234.4062 222.680942 
L 229.364052 228.094174 
z
" style="fill:#0000a8;fill-opacity:0.3;"/>
    <path clip-path="url(#pbe74fba467)" d="M 174.316783 209.945401 
L 183.246529 215.733649 
L 188.440935 210.352838 
L 179.532939 204.589289 
L 174.316783 209.945401 
z
" style="fill:#000092;fill-opacity:0.3;"/>
    <path clip-path="url(#pbe74fba467)" d="M 316.433151 258.181022 
L 325.536594 264.019853 
L 330.283957 258.483571 
L 321.203333 252.669795 
L 316.433151 258.181022 
z
" style="fill:#0000c9;fill-opacity:0.3;"/>
    <path clip-path="url(#pbe74fba467)" d="M 261.389405 240.063962 
L 270.427646 245.885228 
L 275.349295 240.406109 
L 266.333471 234.609776 
L 261.389405 240.063962 
z
" style="fill:#0000b3;fill-opacity:0.3;"/>
    <path clip-path="url(#pbe74fba467)" d="M 206.321893 221.920007 
L 215.295023 227.723732 
L 220.391175 222.301869 
L 211.440057 216.522956 
L 206.321893 221.920007 
z
" style="fill:#00009e;fill-opacity:0.3;"/>
    <path clip-path="url(#pbe74fba467)" d="M 151.229713 203.748849 
L 160.137825 209.535056 
L 165.4087 204.170545 
L 156.522198 198.409027 
L 151.229713 203.748849 
z
" style="fill:#000089;fill-opacity:0.3;"/>
    <path clip-path="url(#pbe74fba467)" d="M 293.446844 252.039163 
L 302.52874 257.875991 
L 307.351864 252.355742 
L 298.292648 246.543961 
L 293.446844 252.039163 
z
" style="fill:#0000bf;fill-opacity:0.3;"/>
    <path clip-path="url(#pbe74fba467)" d="M 238.358772 233.899925 
L 247.375421 239.719172 
L 252.373141 234.256194 
L 243.378767 228.461871 
L 238.358772 233.899925 
z
" style="fill:#0000aa;fill-opacity:0.3;"/>
    <path clip-path="url(#pbe74fba467)" d="M 183.246529 215.733649 
L 192.198024 221.53534 
L 197.370558 216.129727 
L 188.440935 210.352838 
L 183.246529 215.733649 
z
" style="fill:#000095;fill-opacity:0.3;"/>
    <path clip-path="url(#pbe74fba467)" d="M 325.536594 264.019853 
L 334.662281 269.872288 
L 339.386699 264.310846 
L 330.283957 258.483571 
L 325.536594 264.019853 
z
" style="fill:#0000cb;fill-opacity:0.3;"/>
    <path clip-path="url(#pbe74fba467)" d="M 128.109214 197.540026 
L 136.995644 203.324185 
L 142.343218 197.976032 
L 133.478255 192.216554 
L 128.109214 197.540026 
z
" style="fill:#000080;fill-opacity:0.3;"/>
    <path clip-path="url(#pbe74fba467)" d="M 270.427646 245.885228 
L 279.487949 251.720043 
L 284.387058 246.215887 
L 275.349295 240.406109 
L 270.427646 245.885228 
z
" style="fill:#0000b6;fill-opacity:0.3;"/>
    <path clip-path="url(#pbe74fba467)" d="M 215.295023 227.723732 
L 224.290035 233.540952 
L 229.364052 228.094174 
L 220.391175 222.301869 
L 215.295023 227.723732 
z
" style="fill:#0000a0;fill-opacity:0.3;"/>
    <path clip-path="url(#pbe74fba467)" d="M 160.137825 209.535056 
L 169.067637 215.334705 
L 174.316783 209.945401 
L 165.4087 204.170545 
L 160.137825 209.535056 
z
" style="fill:#00008b;fill-opacity:0.3;"/>
    <path clip-path="url(#pbe74fba467)" d="M 302.52874 257.875991 
L 311.632832 263.726422 
L 316.433151 258.181022 
L 307.351864 252.355742 
L 302.52874 257.875991 
z
" style="fill:#0000c2;fill-opacity:0.3;"/>
    <path clip-path="url(#pbe74fba467)" d="M 247.375421 239.719172 
L 256.414084 245.551968 
L 261.389405 240.063962 
L 252.373141 234.256194 
L 247.375421 239.719172 
z
" style="fill:#0000ac;fill-opacity:0.3;"/>
    <path clip-path="url(#pbe74fba467)" d="M 192.198024 221.53534 
L 201.171351 227.350526 
L 206.321893 221.920007 
L 197.370558 216.129727 
L 192.198024 221.53534 
z
" style="fill:#000097;fill-opacity:0.3;"/>
    <path clip-path="url(#pbe74fba467)" d="M 136.995644 203.324185 
L 145.903727 209.121784 
L 151.229713 203.748849 
L 142.343218 197.976032 
L 136.995644 203.324185 
z
" style="fill:#000082;fill-opacity:0.3;"/>
    <path clip-path="url(#pbe74fba467)" d="M 279.487949 251.720043 
L 288.570399 257.568462 
L 293.446844 252.039163 
L 284.387058 246.215887 
L 279.487949 251.720043 
z
" style="fill:#0000b8;fill-opacity:0.3;"/>
    <path clip-path="url(#pbe74fba467)" d="M 224.290035 233.540952 
L 233.307012 239.371722 
L 238.358772 233.899925 
L 229.364052 228.094174 
L 224.290035 233.540952 
z
" style="fill:#0000a3;fill-opacity:0.3;"/>
    <path clip-path="url(#pbe74fba467)" d="M 169.067637 215.334705 
L 178.019234 221.147849 
L 183.246529 215.733649 
L 174.316783 209.945401 
L 169.067637 215.334705 
z
" style="fill:#00008e;fill-opacity:0.3;"/>
    <path clip-path="url(#pbe74fba467)" d="M 311.632832 263.726422 
L 320.759205 269.59051 
L 325.536594 264.019853 
L 316.433151 258.181022 
L 311.632832 263.726422 
z
" style="fill:#0000c4;fill-opacity:0.3;"/>
    <path clip-path="url(#pbe74fba467)" d="M 256.414084 245.551968 
L 265.474847 251.398367 
L 270.427646 245.885228 
L 261.389405 240.063962 
L 256.414084 245.551968 
z
" style="fill:#0000af;fill-opacity:0.3;"/>
    <path clip-path="url(#pbe74fba467)" d="M 201.171351 227.350526 
L 210.166596 233.179261 
L 215.295023 227.723732 
L 206.321893 221.920007 
L 201.171351 227.350526 
z
" style="fill:#000099;fill-opacity:0.3;"/>
    <path clip-path="url(#pbe74fba467)" d="M 145.903727 209.121784 
L 154.833546 214.932879 
L 160.137825 209.535056 
L 151.229713 203.748849 
L 145.903727 209.121784 
z
" style="fill:#000084;fill-opacity:0.3;"/>
    <path clip-path="url(#pbe74fba467)" d="M 288.570399 257.568462 
L 297.675082 263.430538 
L 302.52874 257.875991 
L 293.446844 252.039163 
L 288.570399 257.568462 
z
" style="fill:#0000ba;fill-opacity:0.3;"/>
    <path clip-path="url(#pbe74fba467)" d="M 233.307012 239.371722 
L 242.346041 245.216093 
L 247.375421 239.719172 
L 238.358772 233.899925 
L 233.307012 239.371722 
z
" style="fill:#0000a5;fill-opacity:0.3;"/>
    <path clip-path="url(#pbe74fba467)" d="M 178.019234 221.147849 
L 186.9927 226.974541 
L 192.198024 221.53534 
L 183.246529 215.733649 
L 178.019234 221.147849 
z
" style="fill:#000090;fill-opacity:0.3;"/>
    <path clip-path="url(#pbe74fba467)" d="M 320.759205 269.59051 
L 329.907947 275.468308 
L 334.662281 269.872288 
L 325.536594 264.019853 
L 320.759205 269.59051 
z
" style="fill:#0000c6;fill-opacity:0.3;"/>
    <path clip-path="url(#pbe74fba467)" d="M 265.474847 251.398367 
L 274.557795 257.258422 
L 279.487949 251.720043 
L 270.427646 245.885228 
L 265.474847 251.398367 
z
" style="fill:#0000b1;fill-opacity:0.3;"/>
    <path clip-path="url(#pbe74fba467)" d="M 210.166596 233.179261 
L 219.183845 239.021597 
L 224.290035 233.540952 
L 215.295023 227.723732 
L 210.166596 233.179261 
z
" style="fill:#00009c;fill-opacity:0.3;"/>
    <path clip-path="url(#pbe74fba467)" d="M 154.833546 214.932879 
L 163.785186 220.75752 
L 169.067637 215.334705 
L 160.137825 209.535056 
L 154.833546 214.932879 
z
" style="fill:#000087;fill-opacity:0.3;"/>
    <path clip-path="url(#pbe74fba467)" d="M 297.675082 263.430538 
L 306.802087 269.306323 
L 311.632832 263.726422 
L 302.52874 257.875991 
L 297.675082 263.430538 
z
" style="fill:#0000bd;fill-opacity:0.3;"/>
    <path clip-path="url(#pbe74fba467)" d="M 242.346041 245.216093 
L 251.407207 251.07412 
L 256.414084 245.551968 
L 247.375421 239.719172 
L 242.346041 245.216093 
z
" style="fill:#0000a8;fill-opacity:0.3;"/>
    <path clip-path="url(#pbe74fba467)" d="M 186.9927 226.974541 
L 195.988121 232.814834 
L 201.171351 227.350526 
L 192.198024 221.53534 
L 186.9927 226.974541 
z
" style="fill:#000092;fill-opacity:0.3;"/>
    <path clip-path="url(#pbe74fba467)" d="M 274.557795 257.258422 
L 283.663016 263.132187 
L 288.570399 257.568462 
L 279.487949 251.720043 
L 274.557795 257.258422 
z
" style="fill:#0000b3;fill-opacity:0.3;"/>
    <path clip-path="url(#pbe74fba467)" d="M 219.183845 239.021597 
L 228.223182 244.877587 
L 233.307012 239.371722 
L 224.290035 233.540952 
L 219.183845 239.021597 
z
" style="fill:#00009e;fill-opacity:0.3;"/>
    <path clip-path="url(#pbe74fba467)" d="M 163.785186 220.75752 
L 172.758732 226.595761 
L 178.019234 221.147849 
L 169.067637 215.334705 
L 163.785186 220.75752 
z
" style="fill:#000089;fill-opacity:0.3;"/>
    <path clip-path="url(#pbe74fba467)" d="M 306.802087 269.306323 
L 315.951499 275.195872 
L 320.759205 269.59051 
L 311.632832 263.726422 
L 306.802087 269.306323 
z
" style="fill:#0000bf;fill-opacity:0.3;"/>
    <path clip-path="url(#pbe74fba467)" d="M 251.407207 251.07412 
L 260.490597 256.945855 
L 265.474847 251.398367 
L 256.414084 245.551968 
L 251.407207 251.07412 
z
" style="fill:#0000aa;fill-opacity:0.3;"/>
    <path clip-path="url(#pbe74fba467)" d="M 195.988121 232.814834 
L 205.005582 238.66878 
L 210.166596 233.179261 
L 201.171351 227.350526 
L 195.988121 232.814834 
z
" style="fill:#000095;fill-opacity:0.3;"/>
    <path clip-path="url(#pbe74fba467)" d="M 283.663016 263.132187 
L 292.790596 269.019714 
L 297.675082 263.430538 
L 288.570399 257.568462 
L 283.663016 263.132187 
z
" style="fill:#0000b6;fill-opacity:0.3;"/>
    <path clip-path="url(#pbe74fba467)" d="M 228.223182 244.877587 
L 237.284695 250.747286 
L 242.346041 245.216093 
L 233.307012 239.371722 
L 228.223182 244.877587 
z
" style="fill:#0000a0;fill-opacity:0.3;"/>
    <path clip-path="url(#pbe74fba467)" d="M 172.758732 226.595761 
L 181.754271 232.447655 
L 186.9927 226.974541 
L 178.019234 221.147849 
L 172.758732 226.595761 
z
" style="fill:#00008b;fill-opacity:0.3;"/>
    <path clip-path="url(#pbe74fba467)" d="M 315.951499 275.195872 
L 325.123407 281.099238 
L 329.907947 275.468308 
L 320.759205 269.59051 
L 315.951499 275.195872 
z
" style="fill:#0000c2;fill-opacity:0.3;"/>
    <path clip-path="url(#pbe74fba467)" d="M 260.490597 256.945855 
L 269.596299 262.831353 
L 274.557795 257.258422 
L 265.474847 251.398367 
L 260.490597 256.945855 
z
" style="fill:#0000ac;fill-opacity:0.3;"/>
    <path clip-path="url(#pbe74fba467)" d="M 205.005582 238.66878 
L 214.045171 244.536434 
L 219.183845 239.021597 
L 210.166596 233.179261 
L 205.005582 238.66878 
z
" style="fill:#000097;fill-opacity:0.3;"/>
    <path clip-path="url(#pbe74fba467)" d="M 292.790596 269.019714 
L 301.940623 274.921058 
L 306.802087 269.306323 
L 297.675082 263.430538 
L 292.790596 269.019714 
z
" style="fill:#0000b8;fill-opacity:0.3;"/>
    <path clip-path="url(#pbe74fba467)" d="M 237.284695 250.747286 
L 246.36847 256.630746 
L 251.407207 251.07412 
L 242.346041 245.216093 
L 237.284695 250.747286 
z
" style="fill:#0000a3;fill-opacity:0.3;"/>
    <path clip-path="url(#pbe74fba467)" d="M 181.754271 232.447655 
L 190.771887 238.313256 
L 195.988121 232.814834 
L 186.9927 226.974541 
L 181.754271 232.447655 
z
" style="fill:#00008e;fill-opacity:0.3;"/>
    <path clip-path="url(#pbe74fba467)" d="M 269.596299 262.831353 
L 278.724398 268.730667 
L 283.663016 263.132187 
L 274.557795 257.258422 
L 269.596299 262.831353 
z
" style="fill:#0000af;fill-opacity:0.3;"/>
    <path clip-path="url(#pbe74fba467)" d="M 214.045171 244.536434 
L 223.106972 250.41785 
L 228.223182 244.877587 
L 219.183845 239.021597 
L 214.045171 244.536434 
z
" style="fill:#000099;fill-opacity:0.3;"/>
    <path clip-path="url(#pbe74fba467)" d="M 301.940623 274.921058 
L 311.113185 280.836273 
L 315.951499 275.195872 
L 306.802087 269.306323 
L 301.940623 274.921058 
z
" style="fill:#0000ba;fill-opacity:0.3;"/>
    <path clip-path="url(#pbe74fba467)" d="M 246.36847 256.630746 
L 255.474595 262.528023 
L 260.490597 256.945855 
L 251.407207 251.07412 
L 246.36847 256.630746 
z
" style="fill:#0000a5;fill-opacity:0.3;"/>
    <path clip-path="url(#pbe74fba467)" d="M 190.771887 238.313256 
L 199.811668 244.192618 
L 205.005582 238.66878 
L 195.988121 232.814834 
L 190.771887 238.313256 
z
" style="fill:#000090;fill-opacity:0.3;"/>
    <path clip-path="url(#pbe74fba467)" d="M 278.724398 268.730667 
L 287.874984 274.643852 
L 292.790596 269.019714 
L 283.663016 263.132187 
L 278.724398 268.730667 
z
" style="fill:#0000b1;fill-opacity:0.3;"/>
    <path clip-path="url(#pbe74fba467)" d="M 223.106972 250.41785 
L 232.191075 256.31308 
L 237.284695 250.747286 
L 228.223182 244.877587 
L 223.106972 250.41785 
z
" style="fill:#00009c;fill-opacity:0.3;"/>
    <path clip-path="url(#pbe74fba467)" d="M 311.113185 280.836273 
L 320.308371 286.765415 
L 325.123407 281.099238 
L 315.951499 275.195872 
L 311.113185 280.836273 
z
" style="fill:#0000bd;fill-opacity:0.3;"/>
    <path clip-path="url(#pbe74fba467)" d="M 255.474595 262.528023 
L 264.603156 268.439169 
L 269.596299 262.831353 
L 260.490597 256.945855 
L 255.474595 262.528023 
z
" style="fill:#0000a8;fill-opacity:0.3;"/>
    <path clip-path="url(#pbe74fba467)" d="M 199.811668 244.192618 
L 208.8737 250.085795 
L 214.045171 244.536434 
L 205.005582 238.66878 
L 199.811668 244.192618 
z
" style="fill:#000092;fill-opacity:0.3;"/>
    <path clip-path="url(#pbe74fba467)" d="M 287.874984 274.643852 
L 297.048144 280.570963 
L 301.940623 274.921058 
L 292.790596 269.019714 
L 287.874984 274.643852 
z
" style="fill:#0000b3;fill-opacity:0.3;"/>
    <path clip-path="url(#pbe74fba467)" d="M 232.191075 256.31308 
L 241.297565 262.22218 
L 246.36847 256.630746 
L 237.284695 250.747286 
L 232.191075 256.31308 
z
" style="fill:#00009e;fill-opacity:0.3;"/>
    <path clip-path="url(#pbe74fba467)" d="M 264.603156 268.439169 
L 273.754243 274.364241 
L 278.724398 268.730667 
L 269.596299 262.831353 
L 264.603156 268.439169 
z
" style="fill:#0000aa;fill-opacity:0.3;"/>
    <path clip-path="url(#pbe74fba467)" d="M 208.8737 250.085795 
L 217.95807 255.992841 
L 223.106972 250.41785 
L 214.045171 244.536434 
L 208.8737 250.085795 
z
" style="fill:#000095;fill-opacity:0.3;"/>
    <path clip-path="url(#pbe74fba467)" d="M 297.048144 280.570963 
L 306.243967 286.512054 
L 311.113185 280.836273 
L 301.940623 274.921058 
L 297.048144 280.570963 
z
" style="fill:#0000b6;fill-opacity:0.3;"/>
    <path clip-path="url(#pbe74fba467)" d="M 241.297565 262.22218 
L 250.426531 268.145205 
L 255.474595 262.528023 
L 246.36847 256.630746 
L 241.297565 262.22218 
z
" style="fill:#0000a0;fill-opacity:0.3;"/>
    <path clip-path="url(#pbe74fba467)" d="M 273.754243 274.364241 
L 282.927944 280.303293 
L 287.874984 274.643852 
L 278.724398 268.730667 
L 273.754243 274.364241 
z
" style="fill:#0000ac;fill-opacity:0.3;"/>
    <path clip-path="url(#pbe74fba467)" d="M 217.95807 255.992841 
L 227.064868 261.913811 
L 232.191075 256.31308 
L 223.106972 250.41785 
L 217.95807 255.992841 
z
" style="fill:#000097;fill-opacity:0.3;"/>
    <path clip-path="url(#pbe74fba467)" d="M 306.243967 286.512054 
L 315.462543 292.46718 
L 320.308371 286.765415 
L 311.113185 280.836273 
L 306.243967 286.512054 
z
" style="fill:#0000b8;fill-opacity:0.3;"/>
    <path clip-path="url(#pbe74fba467)" d="M 250.426531 268.145205 
L 259.578062 274.082209 
L 264.603156 268.439169 
L 255.474595 262.528023 
L 250.426531 268.145205 
z
" style="fill:#0000a3;fill-opacity:0.3;"/>
    <path clip-path="url(#pbe74fba467)" d="M 282.927944 280.303293 
L 292.124349 286.256379 
L 297.048144 280.570963 
L 287.874984 274.643852 
L 282.927944 280.303293 
z
" style="fill:#0000af;fill-opacity:0.3;"/>
    <path clip-path="url(#pbe74fba467)" d="M 227.064868 261.913811 
L 236.19418 267.84876 
L 241.297565 262.22218 
L 232.191075 256.31308 
L 227.064868 261.913811 
z
" style="fill:#000099;fill-opacity:0.3;"/>
    <path clip-path="url(#pbe74fba467)" d="M 259.578062 274.082209 
L 268.752246 280.033248 
L 273.754243 274.364241 
L 264.603156 268.439169 
L 259.578062 274.082209 
z
" style="fill:#0000a5;fill-opacity:0.3;"/>
    <path clip-path="url(#pbe74fba467)" d="M 292.124349 286.256379 
L 301.343545 292.223556 
L 306.243967 286.512054 
L 297.048144 280.570963 
L 292.124349 286.256379 
z
" style="fill:#0000b1;fill-opacity:0.3;"/>
    <path clip-path="url(#pbe74fba467)" d="M 236.19418 267.84876 
L 245.346096 273.797743 
L 250.426531 268.145205 
L 241.297565 262.22218 
L 236.19418 267.84876 
z
" style="fill:#00009c;fill-opacity:0.3;"/>
    <path clip-path="url(#pbe74fba467)" d="M 268.752246 280.033248 
L 277.949173 285.998377 
L 282.927944 280.303293 
L 273.754243 274.364241 
L 268.752246 280.033248 
z
" style="fill:#0000a8;fill-opacity:0.3;"/>
    <path clip-path="url(#pbe74fba467)" d="M 301.343545 292.223556 
L 310.585624 298.20488 
L 315.462543 292.46718 
L 306.243967 286.512054 
L 301.343545 292.223556 
z
" style="fill:#0000b3;fill-opacity:0.3;"/>
    <path clip-path="url(#pbe74fba467)" d="M 245.346096 273.797743 
L 254.520705 279.760815 
L 259.578062 274.082209 
L 250.426531 268.145205 
L 245.346096 273.797743 
z
" style="fill:#00009e;fill-opacity:0.3;"/>
    <path clip-path="url(#pbe74fba467)" d="M 277.949173 285.998377 
L 287.168933 291.977652 
L 292.124349 286.256379 
L 282.927944 280.303293 
L 277.949173 285.998377 
z
" style="fill:#0000aa;fill-opacity:0.3;"/>
    <path clip-path="url(#pbe74fba467)" d="M 254.520705 279.760815 
L 263.718096 285.738033 
L 268.752246 280.033248 
L 259.578062 274.082209 
L 254.520705 279.760815 
z
" style="fill:#0000a0;fill-opacity:0.3;"/>
    <path clip-path="url(#pbe74fba467)" d="M 287.168933 291.977652 
L 296.411615 297.971129 
L 301.343545 292.223556 
L 292.124349 286.256379 
L 287.168933 291.977652 
z
" style="fill:#0000ac;fill-opacity:0.3;"/>
    <path clip-path="url(#pbe74fba467)" d="M 263.718096 285.738033 
L 272.93836 291.729453 
L 277.949173 285.998377 
L 268.752246 280.033248 
L 263.718096 285.738033 
z
" style="fill:#0000a3;fill-opacity:0.3;"/>
    <path clip-path="url(#pbe74fba467)" d="M 296.411615 297.971129 
L 305.677312 303.978864 
L 310.585624 298.20488 
L 301.343545 292.223556 
L 296.411615 297.971129 
z
" style="fill:#0000af;fill-opacity:0.3;"/>
    <path clip-path="url(#pbe74fba467)" d="M 272.93836 291.729453 
L 282.181588 297.735131 
L 287.168933 291.977652 
L 277.949173 285.998377 
L 272.93836 291.729453 
z
" style="fill:#0000a5;fill-opacity:0.3;"/>
    <path clip-path="url(#pbe74fba467)" d="M 282.181588 297.735131 
L 291.44787 303.755124 
L 296.411615 297.971129 
L 287.168933 291.977652 
L 282.181588 297.735131 
z
" style="fill:#0000a8;fill-opacity:0.3;"/>
    <path clip-path="url(#pbe74fba467)" d="M 291.44787 303.755124 
L 300.737298 309.789488 
L 305.677312 303.978864 
L 296.411615 297.971129 
L 291.44787 303.755124 
z
" style="fill:#0000aa;fill-opacity:0.3;"/>
   </g>
   <g id="line2d_27">
    <path clip-path="url(#pbe74fba467)" d="M 181.754271 232.447655 
L 225.455356 216.913353 
L 268.012685 201.766695 
L 309.471225 186.99243 
L 349.873618 172.576094 
" style="fill:none;stroke:#000000;stroke-dasharray:5.55,2.4;stroke-dashoffset:0;stroke-width:1.5;"/>
   </g>
  </g>
 </g>
 <defs>
  <clipPath id="pbe74fba467">
   <rect height="380.52" width="390.6" x="63" y="60.48"/>
  </clipPath>
 </defs>
</svg>
