<?xml version="1.0" encoding="utf-8" standalone="no"?>
<!DOCTYPE svg PUBLIC "-//W3C//DTD SVG 1.1//EN"
  "http://www.w3.org/Graphics/SVG/1.1/DTD/svg11.dtd">
<!-- Created with matplotlib (http://matplotlib.org/) -->
<svg height="504pt" version="1.1" viewBox="0 0 504 504" width="504pt" xmlns="http://www.w3.org/2000/svg" xmlns:xlink="http://www.w3.org/1999/xlink">
 <defs>
  <style type="text/css">
*{stroke-linecap:butt;stroke-linejoin:round;}
  </style>
 </defs>
 <g id="figure_1">
  <g id="patch_1">
   <path d="M 0 504 
L 504 504 
L 504 0 
L 0 0 
z
" style="fill:#ffffff;"/>
  </g>
  <g id="axes_1">
   <g id="patch_2">
    <path d="M 63 441 
L 453.6 441 
L 453.6 60.48 
L 63 60.48 
z
" style="fill:#ffffff;"/>
   </g>
   <g id="PathCollection_1">
    <defs>
     <path d="M 0 3 
C 0.795609 3 1.55874 2.683901 2.12132 2.12132 
C 2.683901 1.55874 3 0.795609 3 0 
C 3 -0.795609 2.683901 -1.55874 2.12132 -2.12132 
C 1.55874 -2.683901 0.795609 -3 0 -3 
C -0.795609 -3 -1.55874 -2.683901 -2.12132 -2.12132 
C -2.683901 -1.55874 -3 -0.795609 -3 0 
C -3 0.795609 -2.683901 1.55874 -2.12132 2.12132 
C -1.55874 2.683901 -0.795609 3 0 3 
z
" id="m2700f97128" style="stroke:#000000;"/>
    </defs>
    <g clip-path="url(#pcf233c791d)">
     <use style="stroke:#000000;" x="156" xlink:href="#m2700f97128" y="223.56"/>
    </g>
   </g>
   <g id="matplotlib.axis_1">
    <g id="xtick_1">
     <g id="line2d_1">
      <defs>
       <path d="M 0 0 
L 0 3.5 
" id="m3fbdbcc7eb" style="stroke:#000000;stroke-width:0.8;"/>
      </defs>
      <g>
       <use style="stroke:#000000;stroke-width:0.8;" x="63" xlink:href="#m3fbdbcc7eb" y="441"/>
      </g>
     </g>
     <g id="text_1">
      <!-- −10.0 -->
      <defs>
       <path d="M 10.59375 35.5 
L 73.1875 35.5 
L 73.1875 27.203125 
L 10.59375 27.203125 
z
" id="DejaVuSans-2212"/>
       <path d="M 12.40625 8.296875 
L 28.515625 8.296875 
L 28.515625 63.921875 
L 10.984375 60.40625 
L 10.984375 69.390625 
L 28.421875 72.90625 
L 38.28125 72.90625 
L 38.28125 8.296875 
L 54.390625 8.296875 
L 54.390625 0 
L 12.40625 0 
z
" id="DejaVuSans-31"/>
       <path d="M 31.78125 66.40625 
Q 24.171875 66.40625 20.328125 58.90625 
Q 16.5 51.421875 16.5 36.375 
Q 16.5 21.390625 20.328125 13.890625 
Q 24.171875 6.390625 31.78125 6.390625 
Q 39.453125 6.390625 43.28125 13.890625 
Q 47.125 21.390625 47.125 36.375 
Q 47.125 51.421875 43.28125 58.90625 
Q 39.453125 66.40625 31.78125 66.40625 
z
M 31.78125 74.21875 
Q 44.046875 74.21875 50.515625 64.515625 
Q 56.984375 54.828125 56.984375 36.375 
Q 56.984375 17.96875 50.515625 8.265625 
Q 44.046875 -1.421875 31.78125 -1.421875 
Q 19.53125 -1.421875 13.0625 8.265625 
Q 6.59375 17.96875 6.59375 36.375 
Q 6.59375 54.828125 13.0625 64.515625 
Q 19.53125 74.21875 31.78125 74.21875 
z
" id="DejaVuSans-30"/>
       <path d="M 10.6875 12.40625 
L 21 12.40625 
L 21 0 
L 10.6875 0 
z
" id="DejaVuSans-2e"/>
      </defs>
      <g transform="translate(47.677344 455.598437)scale(0.1 -0.1)">
       <use xlink:href="#DejaVuSans-2212"/>
       <use x="83.789062" xlink:href="#DejaVuSans-31"/>
       <use x="147.412109" xlink:href="#DejaVuSans-30"/>
       <use x="211.035156" xlink:href="#DejaVuSans-2e"/>
       <use x="242.822266" xlink:href="#DejaVuSans-30"/>
      </g>
     </g>
    </g>
    <g id="xtick_2">
     <g id="line2d_2">
      <g>
       <use style="stroke:#000000;stroke-width:0.8;" x="109.5" xlink:href="#m3fbdbcc7eb" y="441"/>
      </g>
     </g>
     <g id="text_2">
      <!-- −7.5 -->
      <defs>
       <path d="M 8.203125 72.90625 
L 55.078125 72.90625 
L 55.078125 68.703125 
L 28.609375 0 
L 18.3125 0 
L 43.21875 64.59375 
L 8.203125 64.59375 
z
" id="DejaVuSans-37"/>
       <path d="M 10.796875 72.90625 
L 49.515625 72.90625 
L 49.515625 64.59375 
L 19.828125 64.59375 
L 19.828125 46.734375 
Q 21.96875 47.46875 24.109375 47.828125 
Q 26.265625 48.1875 28.421875 48.1875 
Q 40.625 48.1875 47.75 41.5 
Q 54.890625 34.8125 54.890625 23.390625 
Q 54.890625 11.625 47.5625 5.09375 
Q 40.234375 -1.421875 26.90625 -1.421875 
Q 22.3125 -1.421875 17.546875 -0.640625 
Q 12.796875 0.140625 7.71875 1.703125 
L 7.71875 11.625 
Q 12.109375 9.234375 16.796875 8.0625 
Q 21.484375 6.890625 26.703125 6.890625 
Q 35.15625 6.890625 40.078125 11.328125 
Q 45.015625 15.765625 45.015625 23.390625 
Q 45.015625 31 40.078125 35.4375 
Q 35.15625 39.890625 26.703125 39.890625 
Q 22.75 39.890625 18.8125 39.015625 
Q 14.890625 38.140625 10.796875 36.28125 
z
" id="DejaVuSans-35"/>
      </defs>
      <g transform="translate(97.358594 455.598437)scale(0.1 -0.1)">
       <use xlink:href="#DejaVuSans-2212"/>
       <use x="83.789062" xlink:href="#DejaVuSans-37"/>
       <use x="147.412109" xlink:href="#DejaVuSans-2e"/>
       <use x="179.199219" xlink:href="#DejaVuSans-35"/>
      </g>
     </g>
    </g>
    <g id="xtick_3">
     <g id="line2d_3">
      <g>
       <use style="stroke:#000000;stroke-width:0.8;" x="156" xlink:href="#m3fbdbcc7eb" y="441"/>
      </g>
     </g>
     <g id="text_3">
      <!-- −5.0 -->
      <g transform="translate(143.858594 455.598437)scale(0.1 -0.1)">
       <use xlink:href="#DejaVuSans-2212"/>
       <use x="83.789062" xlink:href="#DejaVuSans-35"/>
       <use x="147.412109" xlink:href="#DejaVuSans-2e"/>
       <use x="179.199219" xlink:href="#DejaVuSans-30"/>
      </g>
     </g>
    </g>
    <g id="xtick_4">
     <g id="line2d_4">
      <g>
       <use style="stroke:#000000;stroke-width:0.8;" x="202.5" xlink:href="#m3fbdbcc7eb" y="441"/>
      </g>
     </g>
     <g id="text_4">
      <!-- −2.5 -->
      <defs>
       <path d="M 19.1875 8.296875 
L 53.609375 8.296875 
L 53.609375 0 
L 7.328125 0 
L 7.328125 8.296875 
Q 12.9375 14.109375 22.625 23.890625 
Q 32.328125 33.6875 34.8125 36.53125 
Q 39.546875 41.84375 41.421875 45.53125 
Q 43.3125 49.21875 43.3125 52.78125 
Q 43.3125 58.59375 39.234375 62.25 
Q 35.15625 65.921875 28.609375 65.921875 
Q 23.96875 65.921875 18.8125 64.3125 
Q 13.671875 62.703125 7.8125 59.421875 
L 7.8125 69.390625 
Q 13.765625 71.78125 18.9375 73 
Q 24.125 74.21875 28.421875 74.21875 
Q 39.75 74.21875 46.484375 68.546875 
Q 53.21875 62.890625 53.21875 53.421875 
Q 53.21875 48.921875 51.53125 44.890625 
Q 49.859375 40.875 45.40625 35.40625 
Q 44.1875 33.984375 37.640625 27.21875 
Q 31.109375 20.453125 19.1875 8.296875 
z
" id="DejaVuSans-32"/>
      </defs>
      <g transform="translate(190.358594 455.598437)scale(0.1 -0.1)">
       <use xlink:href="#DejaVuSans-2212"/>
       <use x="83.789062" xlink:href="#DejaVuSans-32"/>
       <use x="147.412109" xlink:href="#DejaVuSans-2e"/>
       <use x="179.199219" xlink:href="#DejaVuSans-35"/>
      </g>
     </g>
    </g>
    <g id="xtick_5">
     <g id="line2d_5">
      <g>
       <use style="stroke:#000000;stroke-width:0.8;" x="249" xlink:href="#m3fbdbcc7eb" y="441"/>
      </g>
     </g>
     <g id="text_5">
      <!-- 0.0 -->
      <g transform="translate(241.048438 455.598437)scale(0.1 -0.1)">
       <use xlink:href="#DejaVuSans-30"/>
       <use x="63.623047" xlink:href="#DejaVuSans-2e"/>
       <use x="95.410156" xlink:href="#DejaVuSans-30"/>
      </g>
     </g>
    </g>
    <g id="xtick_6">
     <g id="line2d_6">
      <g>
       <use style="stroke:#000000;stroke-width:0.8;" x="295.5" xlink:href="#m3fbdbcc7eb" y="441"/>
      </g>
     </g>
     <g id="text_6">
      <!-- 2.5 -->
      <g transform="translate(287.548437 455.598437)scale(0.1 -0.1)">
       <use xlink:href="#DejaVuSans-32"/>
       <use x="63.623047" xlink:href="#DejaVuSans-2e"/>
       <use x="95.410156" xlink:href="#DejaVuSans-35"/>
      </g>
     </g>
    </g>
    <g id="xtick_7">
     <g id="line2d_7">
      <g>
       <use style="stroke:#000000;stroke-width:0.8;" x="342" xlink:href="#m3fbdbcc7eb" y="441"/>
      </g>
     </g>
     <g id="text_7">
      <!-- 5.0 -->
      <g transform="translate(334.048437 455.598437)scale(0.1 -0.1)">
       <use xlink:href="#DejaVuSans-35"/>
       <use x="63.623047" xlink:href="#DejaVuSans-2e"/>
       <use x="95.410156" xlink:href="#DejaVuSans-30"/>
      </g>
     </g>
    </g>
    <g id="xtick_8">
     <g id="line2d_8">
      <g>
       <use style="stroke:#000000;stroke-width:0.8;" x="388.5" xlink:href="#m3fbdbcc7eb" y="441"/>
      </g>
     </g>
     <g id="text_8">
      <!-- 7.5 -->
      <g transform="translate(380.548437 455.598437)scale(0.1 -0.1)">
       <use xlink:href="#DejaVuSans-37"/>
       <use x="63.623047" xlink:href="#DejaVuSans-2e"/>
       <use x="95.410156" xlink:href="#DejaVuSans-35"/>
      </g>
     </g>
    </g>
    <g id="xtick_9">
     <g id="line2d_9">
      <g>
       <use style="stroke:#000000;stroke-width:0.8;" x="435" xlink:href="#m3fbdbcc7eb" y="441"/>
      </g>
     </g>
     <g id="text_9">
      <!-- 10.0 -->
      <g transform="translate(423.867188 455.598437)scale(0.1 -0.1)">
       <use xlink:href="#DejaVuSans-31"/>
       <use x="63.623047" xlink:href="#DejaVuSans-30"/>
       <use x="127.246094" xlink:href="#DejaVuSans-2e"/>
       <use x="159.033203" xlink:href="#DejaVuSans-30"/>
      </g>
     </g>
    </g>
    <g id="text_10">
     <!-- x -->
     <defs>
      <path d="M 54.890625 54.6875 
L 35.109375 28.078125 
L 55.90625 0 
L 45.3125 0 
L 29.390625 21.484375 
L 13.484375 0 
L 2.875 0 
L 24.125 28.609375 
L 4.6875 54.6875 
L 15.28125 54.6875 
L 29.78125 35.203125 
L 44.28125 54.6875 
z
" id="DejaVuSans-78"/>
     </defs>
     <g transform="translate(255.340625 469.276563)scale(0.1 -0.1)">
      <use xlink:href="#DejaVuSans-78"/>
     </g>
    </g>
   </g>
   <g id="matplotlib.axis_2">
    <g id="ytick_1">
     <g id="line2d_10">
      <defs>
       <path d="M 0 0 
L -3.5 0 
" id="m78e4005780" style="stroke:#000000;stroke-width:0.8;"/>
      </defs>
      <g>
       <use style="stroke:#000000;stroke-width:0.8;" x="63" xlink:href="#m78e4005780" y="441"/>
      </g>
     </g>
     <g id="text_11">
      <!-- −10.0 -->
      <g transform="translate(25.354687 444.799219)scale(0.1 -0.1)">
       <use xlink:href="#DejaVuSans-2212"/>
       <use x="83.789062" xlink:href="#DejaVuSans-31"/>
       <use x="147.412109" xlink:href="#DejaVuSans-30"/>
       <use x="211.035156" xlink:href="#DejaVuSans-2e"/>
       <use x="242.822266" xlink:href="#DejaVuSans-30"/>
      </g>
     </g>
    </g>
    <g id="ytick_2">
     <g id="line2d_11">
      <g>
       <use style="stroke:#000000;stroke-width:0.8;" x="63" xlink:href="#m78e4005780" y="395.7"/>
      </g>
     </g>
     <g id="text_12">
      <!-- −7.5 -->
      <g transform="translate(31.717187 399.499219)scale(0.1 -0.1)">
       <use xlink:href="#DejaVuSans-2212"/>
       <use x="83.789062" xlink:href="#DejaVuSans-37"/>
       <use x="147.412109" xlink:href="#DejaVuSans-2e"/>
       <use x="179.199219" xlink:href="#DejaVuSans-35"/>
      </g>
     </g>
    </g>
    <g id="ytick_3">
     <g id="line2d_12">
      <g>
       <use style="stroke:#000000;stroke-width:0.8;" x="63" xlink:href="#m78e4005780" y="350.4"/>
      </g>
     </g>
     <g id="text_13">
      <!-- −5.0 -->
      <g transform="translate(31.717187 354.199219)scale(0.1 -0.1)">
       <use xlink:href="#DejaVuSans-2212"/>
       <use x="83.789062" xlink:href="#DejaVuSans-35"/>
       <use x="147.412109" xlink:href="#DejaVuSans-2e"/>
       <use x="179.199219" xlink:href="#DejaVuSans-30"/>
      </g>
     </g>
    </g>
    <g id="ytick_4">
     <g id="line2d_13">
      <g>
       <use style="stroke:#000000;stroke-width:0.8;" x="63" xlink:href="#m78e4005780" y="305.1"/>
      </g>
     </g>
     <g id="text_14">
      <!-- −2.5 -->
      <g transform="translate(31.717187 308.899219)scale(0.1 -0.1)">
       <use xlink:href="#DejaVuSans-2212"/>
       <use x="83.789062" xlink:href="#DejaVuSans-32"/>
       <use x="147.412109" xlink:href="#DejaVuSans-2e"/>
       <use x="179.199219" xlink:href="#DejaVuSans-35"/>
      </g>
     </g>
    </g>
    <g id="ytick_5">
     <g id="line2d_14">
      <g>
       <use style="stroke:#000000;stroke-width:0.8;" x="63" xlink:href="#m78e4005780" y="259.8"/>
      </g>
     </g>
     <g id="text_15">
      <!-- 0.0 -->
      <g transform="translate(40.096875 263.599219)scale(0.1 -0.1)">
       <use xlink:href="#DejaVuSans-30"/>
       <use x="63.623047" xlink:href="#DejaVuSans-2e"/>
       <use x="95.410156" xlink:href="#DejaVuSans-30"/>
      </g>
     </g>
    </g>
    <g id="ytick_6">
     <g id="line2d_15">
      <g>
       <use style="stroke:#000000;stroke-width:0.8;" x="63" xlink:href="#m78e4005780" y="214.5"/>
      </g>
     </g>
     <g id="text_16">
      <!-- 2.5 -->
      <g transform="translate(40.096875 218.299219)scale(0.1 -0.1)">
       <use xlink:href="#DejaVuSans-32"/>
       <use x="63.623047" xlink:href="#DejaVuSans-2e"/>
       <use x="95.410156" xlink:href="#DejaVuSans-35"/>
      </g>
     </g>
    </g>
    <g id="ytick_7">
     <g id="line2d_16">
      <g>
       <use style="stroke:#000000;stroke-width:0.8;" x="63" xlink:href="#m78e4005780" y="169.2"/>
      </g>
     </g>
     <g id="text_17">
      <!-- 5.0 -->
      <g transform="translate(40.096875 172.999219)scale(0.1 -0.1)">
       <use xlink:href="#DejaVuSans-35"/>
       <use x="63.623047" xlink:href="#DejaVuSans-2e"/>
       <use x="95.410156" xlink:href="#DejaVuSans-30"/>
      </g>
     </g>
    </g>
    <g id="ytick_8">
     <g id="line2d_17">
      <g>
       <use style="stroke:#000000;stroke-width:0.8;" x="63" xlink:href="#m78e4005780" y="123.9"/>
      </g>
     </g>
     <g id="text_18">
      <!-- 7.5 -->
      <g transform="translate(40.096875 127.699219)scale(0.1 -0.1)">
       <use xlink:href="#DejaVuSans-37"/>
       <use x="63.623047" xlink:href="#DejaVuSans-2e"/>
       <use x="95.410156" xlink:href="#DejaVuSans-35"/>
      </g>
     </g>
    </g>
    <g id="ytick_9">
     <g id="line2d_18">
      <g>
       <use style="stroke:#000000;stroke-width:0.8;" x="63" xlink:href="#m78e4005780" y="78.6"/>
      </g>
     </g>
     <g id="text_19">
      <!-- 10.0 -->
      <g transform="translate(33.734375 82.399219)scale(0.1 -0.1)">
       <use xlink:href="#DejaVuSans-31"/>
       <use x="63.623047" xlink:href="#DejaVuSans-30"/>
       <use x="127.246094" xlink:href="#DejaVuSans-2e"/>
       <use x="159.033203" xlink:href="#DejaVuSans-30"/>
      </g>
     </g>
    </g>
    <g id="text_20">
     <!-- y -->
     <defs>
      <path d="M 32.171875 -5.078125 
Q 28.375 -14.84375 24.75 -17.8125 
Q 21.140625 -20.796875 15.09375 -20.796875 
L 7.90625 -20.796875 
L 7.90625 -13.28125 
L 13.1875 -13.28125 
Q 16.890625 -13.28125 18.9375 -11.515625 
Q 21 -9.765625 23.484375 -3.21875 
L 25.09375 0.875 
L 2.984375 54.6875 
L 12.5 54.6875 
L 29.59375 11.921875 
L 46.6875 54.6875 
L 56.203125 54.6875 
z
" id="DejaVuSans-79"/>
     </defs>
     <g transform="translate(19.275 253.699375)rotate(-90)scale(0.1 -0.1)">
      <use xlink:href="#DejaVuSans-79"/>
     </g>
    </g>
   </g>
   <g id="LineCollection_1">
    <path clip-path="url(#pcf233c791d)" d="M 214.33915 186.145333 
L 217.38 184.85306 
L 221.1 183.461506 
L 226.1592 181.884 
L 228.54 181.259172 
L 232.26 180.426069 
L 235.98 179.766607 
L 239.7 179.277978 
L 243.42 178.952225 
L 247.14 178.789348 
L 250.86 178.789348 
L 254.58 178.952225 
L 258.3 179.277978 
L 262.02 179.766607 
L 265.74 180.426069 
L 269.46 181.259172 
L 273.18 182.267718 
L 277.56 183.696 
L 280.62 184.85306 
L 284.34 186.447556 
L 288.06 188.260405 
L 291.78 190.308623 
L 295.718824 192.756 
L 299.22 195.206028 
L 303.034576 198.192 
L 307.102857 201.816 
L 310.685373 205.44 
L 314.1 209.360509 
L 316.673425 212.688 
L 319.184 216.312 
L 321.54 220.146698 
L 323.4 223.56 
L 325.26 227.442857 
L 327.12 231.977032 
L 327.995294 234.432 
L 329.129655 238.056 
L 330.070345 241.68 
L 330.84 245.304 
L 331.425169 248.928 
L 331.843146 252.552 
L 332.093933 256.176 
L 332.177528 259.8 
L 332.093933 263.424 
L 331.843146 267.048 
L 331.425169 270.672 
L 330.84 274.296 
L 330.070345 277.92 
L 328.98 282.05136 
L 327.995294 285.168 
L 326.671807 288.792 
L 325.145185 292.416 
L 323.4 296.04 
L 321.419221 299.664 
L 319.184 303.288 
L 316.673425 306.912 
L 313.857391 310.536 
L 310.38 314.486754 
L 306.66 318.202154 
L 302.94 321.486783 
L 299.22 324.393972 
L 295.5 326.98896 
L 291.78 329.291377 
L 288.06 331.339595 
L 284.34 333.152444 
L 280.62 334.74694 
L 276.9 336.138494 
L 271.8408 337.716 
L 269.46 338.340828 
L 265.74 339.173931 
L 262.02 339.833393 
L 258.3 340.322022 
L 254.58 340.647775 
L 250.86 340.810652 
L 247.14 340.810652 
L 243.42 340.647775 
L 239.7 340.322022 
L 235.98 339.833393 
L 232.26 339.173931 
L 228.54 338.340828 
L 224.82 337.332282 
L 220.44 335.904 
L 217.38 334.74694 
L 213.66 333.152444 
L 209.94 331.339595 
L 206.22 329.291377 
L 202.281176 326.844 
L 198.78 324.393972 
L 194.965424 321.408 
L 190.897143 317.784 
L 187.314627 314.16 
L 183.9 310.239491 
L 181.326575 306.912 
L 178.816 303.288 
L 176.46 299.453302 
L 174.6 296.04 
L 172.74 292.157143 
L 170.88 287.622968 
L 170.004706 285.168 
L 168.870345 281.544 
L 167.929655 277.92 
L 167.16 274.296 
L 166.574831 270.672 
L 166.156854 267.048 
L 165.906067 263.424 
L 165.822472 259.8 
L 165.906067 256.176 
L 166.156854 252.552 
L 166.574831 248.928 
L 167.16 245.304 
L 167.929655 241.68 
L 169.02 237.54864 
L 170.004706 234.432 
L 171.328193 230.808 
L 172.854815 227.184 
L 174.6 223.56 
L 176.580779 219.936 
L 178.816 216.312 
L 181.458395 212.511122 
L 181.458395 212.511122 
" style="fill:none;stroke:#440154;stroke-width:1.5;"/>
   </g>
   <g id="LineCollection_2">
    <path clip-path="url(#pcf233c791d)" d="M 208.197506 367.282305 
L 204.36 365.825231 
L 198.78 363.430643 
L 194.334915 361.272 
L 189.48 358.645431 
L 184.816522 355.836 
L 180.18 352.739767 
L 176.46 350.015636 
L 172.403855 346.776 
L 168.271724 343.152 
L 164.502857 339.528 
L 161.051368 335.904 
L 157.86 332.257063 
L 154.14 327.5688 
L 151.022286 323.22 
L 148.56 319.456615 
L 145.443243 314.16 
L 142.98 309.4488 
L 140.945128 305.1 
L 138.712941 299.664 
L 136.800496 294.228 
L 135.192195 288.792 
L 133.876585 283.356 
L 132.84672 277.92 
L 132.08784 272.484 
L 131.600315 267.048 
L 131.38063 261.612 
L 131.424567 256.176 
L 131.732126 250.74 
L 132.31104 245.304 
L 133.1592 239.868 
L 134.284878 234.432 
L 135.693719 228.996 
L 137.4 223.56 
L 139.418974 218.124 
L 141.766957 212.688 
L 144.461416 207.252 
L 146.7 203.225333 
L 149.811589 198.192 
L 152.28 194.568 
L 156 189.626182 
L 157.879175 187.32 
L 161.58 183.120424 
L 165.3 179.277978 
L 169.02 175.766065 
L 172.74 172.543794 
L 176.967273 169.2 
L 180.18 166.860233 
L 184.816522 163.764 
L 189.48 160.954569 
L 194.334915 158.328 
L 198.78 156.169357 
L 204.36 153.774769 
L 209.94 151.704303 
L 215.52 149.941884 
L 221.1 148.472488 
L 226.68 147.282048 
L 232.26 146.3688 
L 237.84 145.71648 
L 243.42 145.33011 
L 249 145.201701 
L 254.58 145.33011 
L 260.16 145.71648 
L 265.74 146.3688 
L 271.32 147.282048 
L 276.9 148.472488 
L 282.48 149.941884 
L 288.06 151.704303 
L 293.64 153.774769 
L 299.22 156.169357 
L 303.665085 158.328 
L 308.52 160.954569 
L 313.183478 163.764 
L 317.82 166.860233 
L 321.54 169.584364 
L 325.596145 172.824 
L 329.728276 176.448 
L 333.497143 180.072 
L 336.948632 183.696 
L 340.14 187.342937 
L 343.86 192.0312 
L 346.977714 196.38 
L 349.44 200.143385 
L 352.556757 205.44 
L 355.02 210.1512 
L 357.054872 214.5 
L 359.287059 219.936 
L 361.199504 225.372 
L 362.807805 230.808 
L 364.123415 236.244 
L 365.15328 241.68 
L 365.91216 247.116 
L 366.399685 252.552 
L 366.61937 257.988 
L 366.575433 263.424 
L 366.267874 268.86 
L 365.68896 274.296 
L 364.8408 279.732 
L 363.715122 285.168 
L 362.306281 290.604 
L 360.6 296.04 
L 358.581026 301.476 
L 356.233043 306.912 
L 353.538584 312.348 
L 351.3 316.374667 
L 348.188411 321.408 
L 345.72 325.032 
L 342 329.973818 
L 340.120825 332.28 
L 336.42 336.479576 
L 332.7 340.322022 
L 328.98 343.833935 
L 325.26 347.056206 
L 321.032727 350.4 
L 317.82 352.739767 
L 313.183478 355.836 
L 308.52 358.645431 
L 303.665085 361.272 
L 299.22 363.430643 
L 293.64 365.825231 
L 288.06 367.895697 
L 282.48 369.658116 
L 276.9 371.127512 
L 271.32 372.317952 
L 265.74 373.2312 
L 260.16 373.88352 
L 254.58 374.26989 
L 249 374.398299 
L 245.417243 374.344387 
L 245.417243 374.344387 
" style="fill:none;stroke:#414487;stroke-width:1.5;"/>
   </g>
   <g id="LineCollection_3">
    <path clip-path="url(#pcf233c791d)" d="M 301.729305 390.415233 
L 297.177647 392.076 
L 291.573333 393.888 
L 286.2 395.395973 
L 280.62 396.732 
L 275.04 397.843608 
L 269.46 398.731843 
L 263.88 399.405832 
L 258.3 399.861755 
L 252.72 400.107252 
L 247.14 400.142323 
L 241.56 399.966968 
L 235.98 399.581187 
L 230.4 398.980549 
L 224.82 398.163373 
L 219.24 397.128 
L 212.992308 395.7 
L 208.08 394.374443 
L 202.5 392.64302 
L 196.92 390.66389 
L 191.34 388.426298 
L 185.76 385.909986 
L 180.0064 383.016 
L 174.6 379.991459 
L 170.639294 377.58 
L 165.177363 373.956 
L 159.72 369.95762 
L 155.650099 366.708 
L 151.447429 363.084 
L 147.553211 359.46 
L 143.93469 355.836 
L 140.56359 352.212 
L 137.4 348.56932 
L 133.0848 343.152 
L 129.96 338.861517 
L 126.765344 334.092 
L 124.38 330.232675 
L 121.433869 325.032 
L 118.654894 319.596 
L 116.172587 314.16 
L 113.964 308.724 
L 112.017959 303.288 
L 110.323893 297.852 
L 108.871788 292.416 
L 107.64 286.917517 
L 106.667451 281.544 
L 105.901569 276.108 
L 105.36 270.672 
L 105.036 265.236 
L 104.928 259.8 
L 105.036 254.364 
L 105.36 248.928 
L 105.901569 243.492 
L 106.667451 238.056 
L 107.652318 232.62 
L 108.871788 227.184 
L 110.323893 221.748 
L 112.017959 216.312 
L 113.964 210.876 
L 116.172587 205.44 
L 118.8 199.706507 
L 121.433869 194.568 
L 124.51985 189.132 
L 128.1 183.461506 
L 131.82 178.140527 
L 135.924298 172.824 
L 139.26 168.859129 
L 142.98 164.764914 
L 146.7 160.971193 
L 150.42 157.446053 
L 154.14 154.161949 
L 157.879175 151.08 
L 163.44 146.87616 
L 167.844138 143.832 
L 172.74 140.719786 
L 176.701558 138.396 
L 182.04 135.525898 
L 187.62 132.818638 
L 193.2 130.400392 
L 198.78 128.2488 
L 204.36 126.35298 
L 209.94 124.702631 
L 215.52 123.288 
L 221.164138 122.088 
L 226.68 121.140549 
L 232.26 120.394431 
L 237.84 119.866839 
L 243.42 119.5512 
L 249 119.445987 
L 254.58 119.5512 
L 260.16 119.866839 
L 265.74 120.394431 
L 271.32 121.140549 
L 276.9 122.1 
L 282.48 123.288 
L 288.06 124.702631 
L 293.64 126.35298 
L 299.22 128.2488 
L 304.8 130.400392 
L 310.685373 132.96 
L 315.96 135.525898 
L 321.54 138.532241 
L 327.360706 142.02 
L 332.822637 145.644 
L 338.28 149.64238 
L 342.349901 152.892 
L 346.552571 156.516 
L 350.446789 160.14 
L 354.06531 163.764 
L 357.43641 167.388 
L 360.6 171.03068 
L 364.9152 176.448 
L 368.04 180.738483 
L 371.234656 185.508 
L 373.62 189.367325 
L 376.566131 194.568 
L 379.345106 200.004 
L 381.827413 205.44 
L 384.036 210.876 
L 385.982041 216.312 
L 387.676107 221.748 
L 389.128212 227.184 
L 390.36 232.682483 
L 391.332549 238.056 
L 392.098431 243.492 
L 392.64 248.928 
L 392.964 254.364 
L 393.072 259.8 
L 392.964 265.236 
L 392.64 270.672 
L 392.098431 276.108 
L 391.332549 281.544 
L 390.347682 286.98 
L 389.128212 292.416 
L 387.676107 297.852 
L 385.982041 303.288 
L 384.036 308.724 
L 381.827413 314.16 
L 379.2 319.893493 
L 376.566131 325.032 
L 373.48015 330.468 
L 369.9 336.138494 
L 366.18 341.459473 
L 362.075702 346.776 
L 358.74 350.740871 
L 355.02 354.835086 
L 351.3 358.628807 
L 347.58 362.153947 
L 343.86 365.438051 
L 340.120825 368.52 
L 336.936958 370.974247 
L 336.936958 370.974247 
" style="fill:none;stroke:#2a788e;stroke-width:1.5;"/>
   </g>
   <g id="LineCollection_4">
    <path clip-path="url(#pcf233c791d)" d="M 163.870004 120.559787 
L 169.02 117.690726 
L 174.6 114.84 
L 180.18 112.24984 
L 185.76 109.898182 
L 191.858361 107.592 
L 197.224364 105.78 
L 203.297143 103.968 
L 208.08 102.711121 
L 213.66 101.4312 
L 219.24 100.344 
L 224.82 99.453356 
L 230.4 98.746983 
L 235.98 98.228313 
L 241.56 97.894257 
L 247.14 97.742413 
L 252.72 97.772782 
L 258.3 97.985363 
L 263.88 98.380156 
L 269.46 98.961966 
L 275.04 99.729763 
L 280.62 100.685691 
L 287.606341 102.156 
L 291.78 103.182451 
L 297.36 104.730947 
L 302.94 106.487645 
L 308.52 108.460024 
L 314.1 110.655927 
L 319.68 113.084273 
L 325.26 115.763094 
L 330.84 118.697806 
L 336.713684 122.088 
L 342.44198 125.712 
L 347.701682 129.336 
L 353.16 133.429295 
L 357.070769 136.584 
L 362.46 141.273069 
L 367.088031 145.644 
L 371.76 150.421091 
L 375.64292 154.704 
L 380.189362 160.14 
L 383.009793 163.764 
L 386.939597 169.2 
L 390.542353 174.636 
L 394.08 180.488552 
L 396.852453 185.508 
L 399.66 191.0648 
L 402.094909 196.38 
L 404.348982 201.816 
L 406.373609 207.252 
L 408.176842 212.688 
L 409.766358 218.124 
L 411.149486 223.56 
L 412.329257 228.996 
L 413.310508 234.432 
L 414.098644 239.868 
L 414.695866 245.304 
L 415.101117 250.74 
L 415.31933 256.176 
L 415.350503 261.612 
L 415.194637 267.048 
L 414.851732 272.484 
L 414.319322 277.92 
L 413.594237 283.356 
L 412.68 288.792 
L 411.564 294.228 
L 410.250173 299.664 
L 408.731579 305.1 
L 407.000947 310.536 
L 405.050659 315.972 
L 402.872727 321.408 
L 400.458773 326.844 
L 397.8 332.28 
L 394.873758 337.716 
L 391.672941 343.152 
L 388.175436 348.588 
L 384.35669 354.024 
L 380.189362 359.46 
L 377.204234 363.084 
L 372.375338 368.52 
L 368.04 373.01376 
L 363.276585 377.58 
L 358.74 381.606667 
L 354.855398 384.828 
L 349.44 388.996867 
L 343.86 392.938857 
L 338.28 396.552 
L 332.7 399.861755 
L 327.007952 402.948 
L 321.54 405.649118 
L 315.436056 408.384 
L 310.38 410.434707 
L 304.8 412.479763 
L 299.22 414.307439 
L 293.64 415.925272 
L 287.606341 417.444 
L 282.48 418.551909 
L 276.9 419.573356 
L 271.32 420.402576 
L 265.521176 421.068 
L 260.16 421.503285 
L 254.58 421.776603 
L 249 421.867709 
L 243.42 421.776603 
L 237.84 421.503285 
L 232.26 421.047525 
L 226.68 420.402576 
L 221.1 419.573356 
L 215.52 418.551909 
L 209.94 417.33926 
L 203.297143 415.632 
L 198.78 414.307439 
L 193.2 412.479763 
L 187.009254 410.196 
L 182.04 408.161669 
L 176.46 405.649118 
L 170.88 402.890293 
L 165.3 399.861755 
L 159.72 396.552 
L 154.14 392.938857 
L 148.56 388.996867 
L 144.84 386.170705 
L 140.929231 383.016 
L 135.54 378.326931 
L 130.911969 373.956 
L 126.24 369.178909 
L 122.35708 364.896 
L 117.810638 359.46 
L 114.990207 355.836 
L 111.060403 350.4 
L 107.457647 344.964 
L 103.92 339.111448 
L 101.147547 334.092 
L 98.34 328.5352 
L 95.905091 323.22 
L 93.651018 317.784 
L 91.626391 312.348 
L 89.823158 306.912 
L 88.233642 301.476 
L 86.850514 296.04 
L 85.670743 290.604 
L 84.689492 285.168 
L 83.901356 279.732 
L 83.304134 274.296 
L 82.898883 268.86 
L 82.68067 263.424 
L 82.649497 257.988 
L 82.805363 252.552 
L 83.148268 247.116 
L 83.680678 241.68 
L 84.405763 236.244 
L 85.32 230.808 
L 86.436 225.372 
L 87.749827 219.936 
L 89.268421 214.5 
L 90.999053 209.064 
L 92.949341 203.628 
L 95.127273 198.192 
L 97.541227 192.756 
L 100.2 187.32 
L 103.126242 181.884 
L 106.327059 176.448 
L 109.824564 171.012 
L 113.64331 165.576 
L 117.810638 160.14 
L 120.795766 156.516 
L 125.624662 151.08 
L 129.96 146.58624 
L 130.442023 146.109143 
L 130.442023 146.109143 
" style="fill:none;stroke:#22a884;stroke-width:1.5;"/>
   </g>
   <g id="LineCollection_5">
    <path clip-path="url(#pcf233c791d)" d="M 249 441 
L 247.14 440.990894 
L 245.28 440.963578 
L 243.42 440.91805 
L 241.56 440.854312 
L 239.7 440.772362 
L 237.84 440.672201 
L 235.98 440.553829 
L 234.12 440.417246 
L 232.26 440.262452 
L 230.4 440.089447 
L 228.54 439.898231 
L 226.68 439.688804 
L 224.82 439.461166 
L 222.96 439.215317 
L 222.767586 439.188 
L 221.1 438.948853 
L 219.24 438.663716 
L 217.38 438.360183 
L 215.52 438.038254 
L 213.66 437.697929 
L 211.990769 437.376 
L 211.8 437.338831 
L 209.94 436.957846 
L 208.08 436.558277 
L 206.22 436.140123 
L 204.36 435.703385 
L 203.790612 435.564 
L 202.5 435.244788 
L 200.64 434.765969 
L 198.78 434.268373 
L 196.92 433.752 
L 196.92 433.752 
L 195.06 433.211246 
L 193.2 432.651518 
L 191.34 432.072817 
L 190.926667 431.94 
L 189.48 431.470222 
L 187.62 430.847048 
L 185.76 430.204698 
L 185.544348 430.128 
L 183.9 429.53692 
L 182.04 428.848941 
L 180.63863 428.316 
L 180.18 428.139697 
L 178.32 427.405103 
L 176.46 426.650919 
L 176.106835 426.504 
L 174.6 425.870295 
L 172.74 425.068262 
L 171.888434 424.692 
L 170.88 424.241503 
L 169.02 423.390564 
L 167.929655 422.88 
L 167.16 422.515575 
L 165.3 421.614637 
L 164.196264 421.068 
L 163.44 420.68922 
L 161.58 419.737153 
L 160.659789 419.256 
L 159.72 418.758994 
L 157.86 417.754629 
L 157.296364 417.444 
L 156 416.721295 
L 154.14 415.663422 
L 154.085825 415.632 
L 152.28 414.572351 
L 151.022286 413.82 
L 150.42 413.455456 
L 149.655548 412.983944 
" style="fill:none;stroke:#7ad151;stroke-width:1.5;"/>
    <path clip-path="url(#pcf233c791d)" d="M 116.407179 386.871779 
L 116.172587 386.64 
L 115.08 385.544978 
L 114.374483 384.828 
L 113.22 383.637635 
L 112.625306 383.016 
L 111.36 381.673778 
L 110.923087 381.204 
L 109.5 379.650857 
L 109.26596 379.392 
L 107.652318 377.58 
L 107.64 377.565953 
L 106.083922 375.768 
L 105.78 375.411307 
L 104.556 373.956 
L 103.92 373.187712 
L 103.067006 372.144 
L 102.06 370.891805 
L 101.615472 370.332 
L 100.2 368.52 
L 100.2 368.52 
L 98.825217 366.708 
L 98.34 366.057538 
L 97.484172 364.896 
L 96.48 363.509426 
L 96.175636 363.084 
L 94.901818 361.272 
L 94.62 360.863892 
L 93.662156 359.46 
L 92.76 358.113468 
L 92.451834 357.648 
L 91.274201 355.836 
L 90.9 355.249257 
L 90.127719 354.024 
L 89.04 352.264777 
L 89.007746 352.212 
L 87.92185 350.4 
L 87.18 349.137091 
L 86.861143 348.588 
L 85.830171 346.776 
L 85.32 345.860463 
L 84.826102 344.964 
L 83.848814 343.152 
L 83.46 342.415253 
L 82.898883 341.34 
L 81.974078 339.528 
L 81.6 338.778207 
L 81.075912 337.716 
L 80.202431 335.904 
L 79.74 334.92159 
L 79.35377 334.092 
L 78.530492 332.28 
L 77.88 330.812051 
L 77.729189 330.468 
L 76.955027 328.656 
L 76.200973 326.844 
L 76.02 326.397205 
L 75.472941 325.032 
L 74.766738 323.22 
L 74.16 321.618087 
L 74.08127 321.408 
L 73.421905 319.596 
L 72.782222 317.784 
L 72.3 316.374667 
L 72.163665 315.972 
L 71.569634 314.16 
L 70.995079 312.348 
L 70.44 310.536 
L 70.44 310.536 
L 69.909948 308.724 
L 69.399171 306.912 
L 68.907668 305.1 
L 68.58 303.842694 
L 68.436923 303.288 
L 67.988615 301.476 
L 67.559385 299.664 
L 67.149231 297.852 
L 66.758154 296.04 
L 66.72 295.854154 
L 66.389543 294.228 
L 66.040203 292.416 
L 65.709746 290.604 
L 65.398173 288.792 
L 65.105482 286.98 
L 64.86 285.355448 
L 64.83196 285.168 
L 64.579598 283.356 
L 64.34593 281.544 
L 64.130955 279.732 
L 63.934673 277.92 
L 63.757085 276.108 
L 63.598191 274.296 
L 63.45799 272.484 
L 63.336482 270.672 
L 63.233668 268.86 
L 63.149548 267.048 
L 63.084121 265.236 
L 63.037387 263.424 
L 63.009347 261.612 
L 63 259.8 
" style="fill:none;stroke:#7ad151;stroke-width:1.5;"/>
    <path clip-path="url(#pcf233c791d)" d="M 433.14 285.355448 
L 432.894518 286.98 
L 432.601827 288.792 
L 432.290254 290.604 
L 431.959797 292.416 
L 431.610457 294.228 
L 431.28 295.854154 
L 431.241846 296.04 
L 430.850769 297.852 
L 430.440615 299.664 
L 430.011385 301.476 
L 429.563077 303.288 
L 429.42 303.842694 
L 429.092332 305.1 
L 428.600829 306.912 
L 428.090052 308.724 
L 427.56 310.536 
L 427.56 310.536 
L 427.004921 312.348 
L 426.430366 314.16 
L 425.836335 315.972 
L 425.7 316.374667 
L 425.217778 317.784 
L 424.578095 319.596 
L 423.91873 321.408 
L 423.84 321.618087 
L 423.233262 323.22 
L 422.527059 325.032 
L 421.98 326.397205 
L 421.799027 326.844 
L 421.044973 328.656 
L 420.270811 330.468 
L 420.12 330.812051 
L 419.469508 332.28 
L 418.64623 334.092 
L 418.26 334.92159 
L 417.797569 335.904 
L 416.924088 337.716 
L 416.4 338.778207 
L 416.025922 339.528 
L 415.101117 341.34 
L 414.54 342.415253 
L 414.151186 343.152 
L 413.173898 344.964 
L 412.68 345.860463 
L 412.169829 346.776 
L 411.138857 348.588 
L 410.82 349.137091 
L 410.07815 350.4 
L 408.992254 352.212 
L 408.96 352.264777 
L 407.872281 354.024 
L 407.1 355.249257 
L 406.725799 355.836 
L 405.548166 357.648 
L 405.24 358.113468 
L 404.337844 359.46 
L 403.38 360.863892 
L 403.098182 361.272 
L 401.824364 363.084 
L 401.52 363.509426 
L 400.515828 364.896 
L 399.66 366.057538 
L 399.174783 366.708 
L 397.8 368.52 
L 397.8 368.52 
L 396.384528 370.332 
L 395.94 370.891805 
L 394.932994 372.144 
L 394.08 373.187712 
L 393.444 373.956 
L 392.22 375.411307 
L 391.916078 375.768 
L 390.36 377.565953 
L 390.347682 377.58 
L 388.73404 379.392 
L 388.5 379.650857 
L 387.076913 381.204 
L 386.64 381.673778 
L 385.374694 383.016 
L 384.78 383.637635 
L 383.625517 384.828 
L 382.92 385.544978 
L 381.827413 386.64 
L 381.06 387.398213 
L 379.978298 388.452 
L 379.2 389.199608 
L 378.075971 390.264 
L 377.34 390.95131 
L 376.118102 392.076 
L 375.48 392.655347 
L 374.102222 393.888 
L 373.62 394.313638 
L 373.540683 394.38261 
" style="fill:none;stroke:#7ad151;stroke-width:1.5;"/>
    <path clip-path="url(#pcf233c791d)" d="M 339.497123 418.10177 
L 338.28 418.758994 
L 337.340211 419.256 
L 336.42 419.737153 
L 334.56 420.68922 
L 333.803736 421.068 
L 332.7 421.614637 
L 330.84 422.515575 
L 330.070345 422.88 
L 328.98 423.390564 
L 327.12 424.241503 
L 326.111566 424.692 
L 325.26 425.068262 
L 323.4 425.870295 
L 321.893165 426.504 
L 321.54 426.650919 
L 319.68 427.405103 
L 317.82 428.139697 
L 317.36137 428.316 
L 315.96 428.848941 
L 314.1 429.53692 
L 312.455652 430.128 
L 312.24 430.204698 
L 310.38 430.847048 
L 308.52 431.470222 
L 307.073333 431.94 
L 306.66 432.072817 
L 304.8 432.651518 
L 302.94 433.211246 
L 301.08 433.752 
L 301.08 433.752 
L 299.22 434.268373 
L 297.36 434.765969 
L 295.5 435.244788 
L 294.209388 435.564 
L 293.64 435.703385 
L 291.78 436.140123 
L 289.92 436.558277 
L 288.06 436.957846 
L 286.2 437.338831 
L 286.009231 437.376 
L 284.34 437.697929 
L 282.48 438.038254 
L 280.62 438.360183 
L 278.76 438.663716 
L 276.9 438.948853 
L 275.232414 439.188 
L 275.04 439.215317 
L 273.18 439.461166 
L 271.32 439.688804 
L 269.46 439.898231 
L 267.6 440.089447 
L 265.74 440.262452 
L 263.88 440.417246 
L 262.02 440.553829 
L 260.16 440.672201 
L 258.3 440.772362 
L 256.44 440.854312 
L 254.58 440.91805 
L 252.72 440.963578 
L 250.86 440.990894 
L 249 441 
" style="fill:none;stroke:#7ad151;stroke-width:1.5;"/>
    <path clip-path="url(#pcf233c791d)" d="M 63 259.8 
L 63.009347 257.988 
L 63.037387 256.176 
L 63.084121 254.364 
L 63.149548 252.552 
L 63.233668 250.74 
L 63.336482 248.928 
L 63.45799 247.116 
L 63.598191 245.304 
L 63.757085 243.492 
L 63.934673 241.68 
L 64.130955 239.868 
L 64.34593 238.056 
L 64.579598 236.244 
L 64.83196 234.432 
L 64.86 234.244552 
L 65.105482 232.62 
L 65.398173 230.808 
L 65.709746 228.996 
L 66.040203 227.184 
L 66.389543 225.372 
L 66.72 223.745846 
L 66.758154 223.56 
L 67.149231 221.748 
L 67.559385 219.936 
L 67.988615 218.124 
L 68.436923 216.312 
L 68.58 215.757306 
L 68.907668 214.5 
L 69.399171 212.688 
L 69.909948 210.876 
L 70.44 209.064 
L 70.44 209.064 
L 70.995079 207.252 
L 71.569634 205.44 
L 72.163665 203.628 
L 72.3 203.225333 
L 72.782222 201.816 
L 73.421905 200.004 
L 74.08127 198.192 
L 74.16 197.981913 
L 74.766738 196.38 
L 75.472941 194.568 
L 76.02 193.202795 
L 76.200973 192.756 
L 76.955027 190.944 
L 77.729189 189.132 
L 77.88 188.787949 
L 78.530492 187.32 
L 79.35377 185.508 
L 79.74 184.67841 
L 80.202431 183.696 
L 81.075912 181.884 
L 81.6 180.821793 
L 81.974078 180.072 
L 82.898883 178.26 
L 83.46 177.184747 
L 83.848814 176.448 
L 84.826102 174.636 
L 85.32 173.739537 
L 85.830171 172.824 
L 86.861143 171.012 
L 87.18 170.462909 
L 87.92185 169.2 
L 89.007746 167.388 
L 89.04 167.335223 
L 90.127719 165.576 
L 90.141803 165.553656 
" style="fill:none;stroke:#7ad151;stroke-width:1.5;"/>
    <path clip-path="url(#pcf233c791d)" d="M 119.198895 130.022661 
L 119.924029 129.336 
L 120.66 128.64869 
L 121.881898 127.524 
L 122.52 126.944653 
L 123.897778 125.712 
L 124.38 125.286362 
L 125.974286 123.9 
L 126.24 123.672 
L 128.1 122.1 
L 128.114419 122.088 
L 129.96 120.572078 
L 130.326142 120.276 
L 131.82 119.083587 
L 132.60864 118.464 
L 133.68 117.633019 
L 134.965366 116.652 
L 135.54 116.218943 
L 137.4 114.84 
L 137.4 114.84 
L 139.26 113.500696 
L 139.927692 113.028 
L 141.12 112.194258 
L 142.543304 111.216 
L 142.98 110.919491 
L 144.84 109.678545 
L 145.258919 109.404 
L 146.7 108.470874 
L 148.082202 107.592 
L 148.56 107.291787 
L 150.42 106.144544 
L 151.022286 105.78 
L 152.28 105.027649 
L 154.085825 103.968 
L 154.14 103.936578 
L 156 102.878705 
L 157.296364 102.156 
L 157.86 101.845371 
L 159.72 100.841006 
L 160.659789 100.344 
L 161.58 99.862847 
L 163.44 98.91078 
L 164.196264 98.532 
L 165.3 97.985363 
L 167.16 97.084425 
L 167.929655 96.72 
L 169.02 96.209436 
L 170.88 95.358497 
L 171.888434 94.908 
L 172.74 94.531738 
L 174.6 93.729705 
L 176.106835 93.096 
L 176.46 92.949081 
L 178.32 92.194897 
L 180.18 91.460303 
L 180.63863 91.284 
L 182.04 90.751059 
L 183.9 90.06308 
L 185.544348 89.472 
L 185.76 89.395302 
L 187.62 88.752952 
L 189.48 88.129778 
L 190.926667 87.66 
L 191.34 87.527183 
L 193.2 86.948482 
L 195.06 86.388754 
L 196.92 85.848 
L 196.92 85.848 
L 198.78 85.331627 
L 200.64 84.834031 
L 202.5 84.355212 
L 203.790612 84.036 
L 204.36 83.896615 
L 206.22 83.459877 
L 208.08 83.041723 
L 209.94 82.642154 
L 211.8 82.261169 
L 211.990769 82.224 
L 213.66 81.902071 
L 215.52 81.561746 
L 217.38 81.239817 
L 219.24 80.936284 
L 221.1 80.651147 
L 222.767586 80.412 
" style="fill:none;stroke:#7ad151;stroke-width:1.5;"/>
    <path clip-path="url(#pcf233c791d)" d="M 275.232414 80.412 
L 276.9 80.651147 
L 278.76 80.936284 
L 280.62 81.239817 
L 282.48 81.561746 
L 284.34 81.902071 
L 286.009231 82.224 
L 286.2 82.261169 
L 288.06 82.642154 
L 289.92 83.041723 
L 291.78 83.459877 
L 293.64 83.896615 
L 294.209388 84.036 
L 295.5 84.355212 
L 297.36 84.834031 
L 299.22 85.331627 
L 301.08 85.848 
L 301.08 85.848 
L 302.94 86.388754 
L 304.8 86.948482 
L 306.66 87.527183 
L 307.073333 87.66 
L 308.52 88.129778 
L 308.934113 88.268522 
" style="fill:none;stroke:#7ad151;stroke-width:1.5;"/>
    <path clip-path="url(#pcf233c791d)" d="M 344.884905 104.53762 
L 345.72 105.027649 
L 346.977714 105.78 
L 347.58 106.144544 
L 349.44 107.291787 
L 349.917798 107.592 
L 351.3 108.470874 
L 352.741081 109.404 
L 353.16 109.678545 
L 355.02 110.919491 
L 355.456696 111.216 
L 356.88 112.194258 
L 358.072308 113.028 
L 358.74 113.500696 
L 360.6 114.84 
L 360.6 114.84 
L 362.46 116.218943 
L 363.034634 116.652 
L 364.32 117.633019 
L 365.39136 118.464 
L 366.18 119.083587 
L 367.673858 120.276 
L 368.04 120.572078 
L 369.885581 122.088 
L 369.9 122.1 
L 371.76 123.672 
L 372.025714 123.9 
L 373.62 125.286362 
L 374.102222 125.712 
L 375.48 126.944653 
L 376.118102 127.524 
L 377.34 128.64869 
L 378.075971 129.336 
L 379.2 130.400392 
L 379.978298 131.148 
L 381.06 132.201787 
L 381.827413 132.96 
L 382.92 134.055022 
L 383.625517 134.772 
L 384.78 135.962365 
L 385.374694 136.584 
L 386.64 137.926222 
L 387.076913 138.396 
L 388.5 139.949143 
L 388.73404 140.208 
L 390.347682 142.02 
L 390.36 142.034047 
L 391.916078 143.832 
L 392.22 144.188693 
L 393.444 145.644 
L 394.08 146.412288 
L 394.932994 147.456 
L 395.94 148.708195 
L 396.384528 149.268 
L 397.8 151.08 
L 397.8 151.08 
L 399.174783 152.892 
L 399.66 153.542462 
L 400.515828 154.704 
L 401.52 156.090574 
L 401.824364 156.516 
L 403.098182 158.328 
L 403.38 158.736108 
L 404.337844 160.14 
L 405.24 161.486532 
L 405.548166 161.952 
L 406.725799 163.764 
L 407.1 164.350743 
L 407.872281 165.576 
L 408.96 167.335223 
L 408.992254 167.388 
L 410.07815 169.2 
L 410.82 170.462909 
L 411.138857 171.012 
L 412.169829 172.824 
L 412.68 173.739537 
L 413.173898 174.636 
L 414.151186 176.448 
L 414.54 177.184747 
L 415.101117 178.26 
L 416.025922 180.072 
L 416.4 180.821793 
L 416.924088 181.884 
L 417.797569 183.696 
L 418.26 184.67841 
L 418.64623 185.508 
L 419.469508 187.32 
L 420.12 188.787949 
L 420.270811 189.132 
L 421.044973 190.944 
L 421.799027 192.756 
L 421.98 193.202795 
L 422.527059 194.568 
L 423.233262 196.38 
L 423.84 197.981913 
L 423.91873 198.192 
L 424.578095 200.004 
L 425.217778 201.816 
L 425.7 203.225333 
L 425.836335 203.628 
L 426.430366 205.44 
L 427.004921 207.252 
L 427.56 209.064 
L 427.56 209.064 
L 428.090052 210.876 
L 428.600829 212.688 
L 429.092332 214.5 
L 429.42 215.757306 
L 429.563077 216.312 
L 430.011385 218.124 
L 430.440615 219.936 
L 430.850769 221.748 
L 431.241846 223.56 
L 431.28 223.745846 
L 431.610457 225.372 
L 431.959797 227.184 
L 432.290254 228.996 
L 432.601827 230.808 
L 432.894518 232.62 
L 433.14 234.244552 
" style="fill:none;stroke:#7ad151;stroke-width:1.5;"/>
   </g>
   <g id="LineCollection_6">
    <path clip-path="url(#pcf233c791d)" d="M 165.822472 441 
L 165.3 440.772362 
L 163.44 439.943759 
L 161.78 439.188 
L 161.58 439.09602 
L 159.72 438.222213 
L 157.955876 437.376 
L 157.86 437.329538 
L 156 436.4096 
L 154.324158 435.564 
L 154.14 435.470114 
L 152.28 434.503088 
L 150.862857 433.752 
L 150.42 433.514827 
L 148.56 432.499728 
L 147.553211 431.94 
L 146.7 431.460635 
L 144.84 430.396444 
L 144.379115 430.128 
L 142.98 429.304364 
L 141.330261 428.316 
L 141.12 428.18867 
L 139.26 427.042703 
L 138.400336 426.504 
L 137.4 425.870295 
L 135.570744 424.692 
L 135.54 424.671978 
L 133.68 423.440619 
L 132.84672 422.88 
L 131.82 422.18152 
L 130.208976 421.068 
L 129.96 420.893966 
L 128.1 419.573356 
L 127.659847 419.256 
L 126.24 418.220571 
L 125.191128 417.444 
L 124.38 416.836509 
L 122.795556 415.632 
L 122.52 415.42007 
L 120.66 413.968351 
L 120.472662 413.82 
L 118.8 412.479763 
L 118.219574 412.008 
L 116.94 410.955521 
L 116.457971 410.553417 
" style="fill:none;stroke:#fde725;stroke-width:1.5;"/>
    <path clip-path="url(#pcf233c791d)" d="M 85.647273 378.434708 
L 85.32 378.008794 
L 84.994237 377.58 
L 83.638644 375.768 
L 83.46 375.525449 
L 82.316983 373.956 
L 81.6 372.955776 
L 81.02453 372.144 
L 79.760552 370.332 
L 79.74 370.30205 
L 78.530492 368.52 
L 77.88 367.545479 
L 77.327027 366.708 
L 76.150703 364.896 
L 76.02 364.691165 
L 75.005455 363.084 
L 74.16 361.720991 
L 73.884444 361.272 
L 72.792063 359.46 
L 72.3 358.628807 
L 71.725445 357.648 
L 70.683455 355.836 
L 70.44 355.404571 
L 69.669016 354.024 
L 68.676373 352.212 
L 68.58 352.032594 
L 67.712 350.4 
L 66.767692 348.588 
L 66.72 348.494598 
L 65.851371 346.776 
L 64.954416 344.964 
L 64.86 344.769161 
L 64.084221 343.152 
L 63.233668 341.34 
L 63 340.831011 
" style="fill:none;stroke:#fde725;stroke-width:1.5;"/>
    <path clip-path="url(#pcf233c791d)" d="M 412.347968 378.440901 
L 411.617143 379.392 
L 410.82 380.413805 
L 410.196416 381.204 
L 408.96 382.747556 
L 408.742456 383.016 
L 407.252281 384.828 
L 407.1 385.010504 
L 405.72426 386.64 
L 405.24 387.205447 
L 404.159641 388.452 
L 403.38 389.338993 
L 402.557091 390.264 
L 401.52 391.413683 
L 400.915215 392.076 
L 399.66 393.431918 
L 399.232547 393.888 
L 397.8 395.395973 
L 397.507547 395.7 
L 395.94 397.308 
L 395.738599 397.512 
L 394.08 399.170039 
L 393.924 399.324 
L 392.22 400.984026 
L 392.061961 401.136 
L 390.36 402.751796 
L 390.150596 402.948 
L 388.5 404.475094 
L 388.187919 404.76 
L 386.64 406.155578 
L 386.171837 406.572 
L 384.78 407.794822 
L 384.100138 408.384 
L 382.92 409.394327 
L 381.97049 410.196 
L 381.06 410.955521 
L 379.780426 412.008 
L 379.2 412.479763 
L 377.527338 413.82 
L 377.34 413.968351 
L 375.48 415.42007 
L 375.204444 415.632 
L 373.62 416.836509 
L 372.808872 417.444 
L 371.76 418.220571 
L 370.340153 419.256 
L 369.9 419.573356 
L 368.04 420.893966 
L 367.791024 421.068 
L 366.18 422.18152 
L 365.15328 422.88 
L 364.32 423.440619 
L 362.46 424.671978 
L 362.429256 424.692 
L 360.6 425.870295 
L 359.599664 426.504 
L 358.74 427.042703 
L 356.88 428.18867 
L 356.669739 428.316 
L 355.02 429.304364 
L 353.620885 430.128 
L 353.16 430.396444 
L 351.3 431.460635 
L 350.446789 431.94 
L 349.44 432.499728 
L 347.58 433.514827 
L 347.137143 433.752 
L 345.72 434.503088 
L 343.86 435.470114 
L 343.675842 435.564 
L 342 436.4096 
L 340.14 437.329538 
L 340.044124 437.376 
L 338.28 438.222213 
L 336.42 439.09602 
L 336.22 439.188 
L 334.56 439.943759 
L 332.7 440.772362 
L 332.177528 441 
" style="fill:none;stroke:#fde725;stroke-width:1.5;"/>
    <path clip-path="url(#pcf233c791d)" d="M 83.524582 143.986866 
L 83.638644 143.832 
L 84.994237 142.02 
L 85.32 141.591206 
L 86.382857 140.208 
L 87.18 139.186195 
L 87.803584 138.396 
L 89.04 136.852444 
L 89.257544 136.584 
L 90.747719 134.772 
L 90.9 134.589496 
L 92.27574 132.96 
L 92.76 132.394553 
L 93.840359 131.148 
L 94.62 130.261007 
L 95.442909 129.336 
L 96.48 128.186317 
L 97.084785 127.524 
L 98.34 126.168082 
L 98.767453 125.712 
L 100.2 124.204027 
L 100.492453 123.9 
L 102.06 122.292 
L 102.261401 122.088 
L 103.92 120.429961 
L 104.076 120.276 
L 105.78 118.615974 
L 105.938039 118.464 
L 107.64 116.848204 
L 107.849404 116.652 
L 109.5 115.124906 
L 109.812081 114.84 
L 111.36 113.444422 
L 111.828163 113.028 
L 113.22 111.805178 
L 113.899862 111.216 
L 115.08 110.205673 
L 116.02951 109.404 
L 116.94 108.644479 
L 118.219574 107.592 
L 118.8 107.120237 
L 120.472662 105.78 
L 120.66 105.631649 
L 122.52 104.17993 
L 122.795556 103.968 
L 124.38 102.763491 
L 125.191128 102.156 
L 126.24 101.379429 
L 127.659847 100.344 
L 128.1 100.026644 
L 129.96 98.706034 
L 130.208976 98.532 
L 131.82 97.41848 
L 132.84672 96.72 
L 133.68 96.159381 
L 135.54 94.928022 
L 135.570744 94.908 
L 137.4 93.729705 
L 138.400336 93.096 
L 139.26 92.557297 
L 141.12 91.41133 
L 141.330261 91.284 
L 142.98 90.295636 
L 144.379115 89.472 
L 144.84 89.203556 
L 146.7 88.139365 
L 147.553211 87.66 
L 148.56 87.100272 
L 150.42 86.085173 
L 150.862857 85.848 
L 152.28 85.096912 
L 154.14 84.129886 
L 154.324158 84.036 
L 156 83.1904 
L 157.86 82.270462 
L 157.955876 82.224 
L 159.72 81.377787 
L 161.58 80.50398 
L 161.78 80.412 
" style="fill:none;stroke:#fde725;stroke-width:1.5;"/>
    <path clip-path="url(#pcf233c791d)" d="M 336.22 80.412 
L 336.42 80.50398 
L 338.28 81.377787 
L 340.044124 82.224 
L 340.14 82.270462 
L 342 83.1904 
L 343.675842 84.036 
L 343.86 84.129886 
L 345.72 85.096912 
L 347.137143 85.848 
L 347.58 86.085173 
L 349.44 87.100272 
L 350.446789 87.66 
L 351.3 88.139365 
L 353.16 89.203556 
L 353.620885 89.472 
L 355.02 90.295636 
L 356.669739 91.284 
L 356.88 91.41133 
L 358.74 92.557297 
L 359.599664 93.096 
L 360.356862 93.575679 
" style="fill:none;stroke:#fde725;stroke-width:1.5;"/>
    <path clip-path="url(#pcf233c791d)" d="M 393.540538 119.902434 
L 393.924 120.276 
L 394.08 120.429961 
L 395.738599 122.088 
L 395.94 122.292 
L 397.507547 123.9 
L 397.8 124.204027 
L 399.232547 125.712 
L 399.66 126.168082 
L 400.915215 127.524 
L 401.52 128.186317 
L 402.557091 129.336 
L 403.38 130.261007 
L 404.159641 131.148 
L 405.24 132.394553 
L 405.72426 132.96 
L 407.1 134.589496 
L 407.252281 134.772 
L 408.742456 136.584 
L 408.96 136.852444 
L 410.196416 138.396 
L 410.82 139.186195 
L 411.617143 140.208 
L 412.68 141.591206 
L 413.005763 142.02 
L 414.361356 143.832 
L 414.54 144.074551 
L 415.683017 145.644 
L 416.4 146.644224 
L 416.97547 147.456 
L 418.239448 149.268 
L 418.26 149.29795 
L 419.469508 151.08 
L 420.12 152.054521 
L 420.672973 152.892 
L 421.849297 154.704 
L 421.98 154.908835 
L 422.994545 156.516 
L 423.84 157.879009 
L 424.115556 158.328 
L 425.207937 160.14 
L 425.7 160.971193 
L 426.274555 161.952 
L 427.316545 163.764 
L 427.56 164.195429 
L 428.330984 165.576 
L 429.323627 167.388 
L 429.42 167.567406 
L 430.288 169.2 
L 431.232308 171.012 
L 431.28 171.105402 
L 432.148629 172.824 
L 433.045584 174.636 
L 433.14 174.830839 
" style="fill:none;stroke:#fde725;stroke-width:1.5;"/>
   </g>
   <g id="line2d_19">
    <path clip-path="url(#pcf233c791d)" d="M 81.6 223.56 
L 435 223.56 
" style="fill:none;stroke:#000000;stroke-dasharray:5.55,2.4;stroke-dashoffset:0;stroke-width:1.5;"/>
   </g>
   <g id="line2d_20">
    <path clip-path="url(#pcf233c791d)" d="M 156 422.88 
L 156 78.6 
" style="fill:none;stroke:#000000;stroke-dasharray:5.55,2.4;stroke-dashoffset:0;stroke-width:1.5;"/>
   </g>
   <g id="patch_3">
    <path d="M 63 441 
L 63 60.48 
" style="fill:none;stroke:#000000;stroke-linecap:square;stroke-linejoin:miter;stroke-width:0.8;"/>
   </g>
   <g id="patch_4">
    <path d="M 453.6 441 
L 453.6 60.48 
" style="fill:none;stroke:#000000;stroke-linecap:square;stroke-linejoin:miter;stroke-width:0.8;"/>
   </g>
   <g id="patch_5">
    <path d="M 63 441 
L 453.6 441 
" style="fill:none;stroke:#000000;stroke-linecap:square;stroke-linejoin:miter;stroke-width:0.8;"/>
   </g>
   <g id="patch_6">
    <path d="M 63 60.48 
L 453.6 60.48 
" style="fill:none;stroke:#000000;stroke-linecap:square;stroke-linejoin:miter;stroke-width:0.8;"/>
   </g>
   <g id="text_21">
    <g clip-path="url(#pcf233c791d)">
     <!-- 10.0 -->
     <g style="fill:#440154;" transform="translate(188.361918 204.252636)rotate(-27.821438)scale(0.1 -0.1)">
      <use xlink:href="#DejaVuSans-31"/>
      <use x="63.623047" xlink:href="#DejaVuSans-30"/>
      <use x="127.246094" xlink:href="#DejaVuSans-2e"/>
      <use x="159.033203" xlink:href="#DejaVuSans-30"/>
     </g>
    </g>
   </g>
   <g id="text_22">
    <g clip-path="url(#pcf233c791d)">
     <!-- 20.0 -->
     <g style="fill:#414487;" transform="translate(215.289527 373.663604)rotate(-352.816833)scale(0.1 -0.1)">
      <use xlink:href="#DejaVuSans-32"/>
      <use x="63.623047" xlink:href="#DejaVuSans-30"/>
      <use x="127.246094" xlink:href="#DejaVuSans-2e"/>
      <use x="159.033203" xlink:href="#DejaVuSans-30"/>
     </g>
    </g>
   </g>
   <g id="text_23">
    <g clip-path="url(#pcf233c791d)">
     <!-- 30.0 -->
     <defs>
      <path d="M 40.578125 39.3125 
Q 47.65625 37.796875 51.625 33 
Q 55.609375 28.21875 55.609375 21.1875 
Q 55.609375 10.40625 48.1875 4.484375 
Q 40.765625 -1.421875 27.09375 -1.421875 
Q 22.515625 -1.421875 17.65625 -0.515625 
Q 12.796875 0.390625 7.625 2.203125 
L 7.625 11.71875 
Q 11.71875 9.328125 16.59375 8.109375 
Q 21.484375 6.890625 26.8125 6.890625 
Q 36.078125 6.890625 40.9375 10.546875 
Q 45.796875 14.203125 45.796875 21.1875 
Q 45.796875 27.640625 41.28125 31.265625 
Q 36.765625 34.90625 28.71875 34.90625 
L 20.21875 34.90625 
L 20.21875 43.015625 
L 29.109375 43.015625 
Q 36.375 43.015625 40.234375 45.921875 
Q 44.09375 48.828125 44.09375 54.296875 
Q 44.09375 59.90625 40.109375 62.90625 
Q 36.140625 65.921875 28.71875 65.921875 
Q 24.65625 65.921875 20.015625 65.03125 
Q 15.375 64.15625 9.8125 62.3125 
L 9.8125 71.09375 
Q 15.4375 72.65625 20.34375 73.4375 
Q 25.25 74.21875 29.59375 74.21875 
Q 40.828125 74.21875 47.359375 69.109375 
Q 53.90625 64.015625 53.90625 55.328125 
Q 53.90625 49.265625 50.4375 45.09375 
Q 46.96875 40.921875 40.578125 39.3125 
z
" id="DejaVuSans-33"/>
     </defs>
     <g style="fill:#2a788e;" transform="translate(310.179074 388.528713)rotate(-20.149508)scale(0.1 -0.1)">
      <use xlink:href="#DejaVuSans-33"/>
      <use x="63.623047" xlink:href="#DejaVuSans-30"/>
      <use x="127.246094" xlink:href="#DejaVuSans-2e"/>
      <use x="159.033203" xlink:href="#DejaVuSans-30"/>
     </g>
    </g>
   </g>
   <g id="text_24">
    <g clip-path="url(#pcf233c791d)">
     <!-- 40.0 -->
     <defs>
      <path d="M 37.796875 64.3125 
L 12.890625 25.390625 
L 37.796875 25.390625 
z
M 35.203125 72.90625 
L 47.609375 72.90625 
L 47.609375 25.390625 
L 58.015625 25.390625 
L 58.015625 17.1875 
L 47.609375 17.1875 
L 47.609375 0 
L 37.796875 0 
L 37.796875 17.1875 
L 4.890625 17.1875 
L 4.890625 26.703125 
z
" id="DejaVuSans-34"/>
     </defs>
     <g style="fill:#22a884;" transform="translate(138.024009 139.498226)rotate(-26.928925)scale(0.1 -0.1)">
      <use xlink:href="#DejaVuSans-34"/>
      <use x="63.623047" xlink:href="#DejaVuSans-30"/>
      <use x="127.246094" xlink:href="#DejaVuSans-2e"/>
      <use x="159.033203" xlink:href="#DejaVuSans-30"/>
     </g>
    </g>
   </g>
   <g id="text_25">
    <g clip-path="url(#pcf233c791d)">
     <!-- 50.0 -->
     <g style="fill:#7ad151;" transform="translate(121.463372 398.427374)rotate(-332.419503)scale(0.1 -0.1)">
      <use xlink:href="#DejaVuSans-35"/>
      <use x="63.623047" xlink:href="#DejaVuSans-30"/>
      <use x="127.246094" xlink:href="#DejaVuSans-2e"/>
      <use x="159.033203" xlink:href="#DejaVuSans-30"/>
     </g>
    </g>
   </g>
   <g id="text_26">
    <g clip-path="url(#pcf233c791d)">
     <!-- 50.0 -->
     <g style="fill:#7ad151;" transform="translate(347.939736 414.59082)rotate(-24.867248)scale(0.1 -0.1)">
      <use xlink:href="#DejaVuSans-35"/>
      <use x="63.623047" xlink:href="#DejaVuSans-30"/>
      <use x="127.246094" xlink:href="#DejaVuSans-2e"/>
      <use x="159.033203" xlink:href="#DejaVuSans-30"/>
     </g>
    </g>
   </g>
   <g id="text_27">
    <g clip-path="url(#pcf233c791d)">
     <!-- 50.0 -->
     <g style="fill:#7ad151;" transform="translate(97.019405 155.573918)rotate(-39.091953)scale(0.1 -0.1)">
      <use xlink:href="#DejaVuSans-35"/>
      <use x="63.623047" xlink:href="#DejaVuSans-30"/>
      <use x="127.246094" xlink:href="#DejaVuSans-2e"/>
      <use x="159.033203" xlink:href="#DejaVuSans-30"/>
     </g>
    </g>
   </g>
   <g id="text_28">
    <g clip-path="url(#pcf233c791d)">
     <!-- 50.0 -->
     <g style="fill:#7ad151;" transform="translate(315.664385 94.790563)rotate(-343.24101)scale(0.1 -0.1)">
      <use xlink:href="#DejaVuSans-35"/>
      <use x="63.623047" xlink:href="#DejaVuSans-30"/>
      <use x="127.246094" xlink:href="#DejaVuSans-2e"/>
      <use x="159.033203" xlink:href="#DejaVuSans-30"/>
     </g>
    </g>
   </g>
   <g id="text_29">
    <g clip-path="url(#pcf233c791d)">
     <!-- 60.0 -->
     <defs>
      <path d="M 33.015625 40.375 
Q 26.375 40.375 22.484375 35.828125 
Q 18.609375 31.296875 18.609375 23.390625 
Q 18.609375 15.53125 22.484375 10.953125 
Q 26.375 6.390625 33.015625 6.390625 
Q 39.65625 6.390625 43.53125 10.953125 
Q 47.40625 15.53125 47.40625 23.390625 
Q 47.40625 31.296875 43.53125 35.828125 
Q 39.65625 40.375 33.015625 40.375 
z
M 52.59375 71.296875 
L 52.59375 62.3125 
Q 48.875 64.0625 45.09375 64.984375 
Q 41.3125 65.921875 37.59375 65.921875 
Q 27.828125 65.921875 22.671875 59.328125 
Q 17.53125 52.734375 16.796875 39.40625 
Q 19.671875 43.65625 24.015625 45.921875 
Q 28.375 48.1875 33.59375 48.1875 
Q 44.578125 48.1875 50.953125 41.515625 
Q 57.328125 34.859375 57.328125 23.390625 
Q 57.328125 12.15625 50.6875 5.359375 
Q 44.046875 -1.421875 33.015625 -1.421875 
Q 20.359375 -1.421875 13.671875 8.265625 
Q 6.984375 17.96875 6.984375 36.375 
Q 6.984375 53.65625 15.1875 63.9375 
Q 23.390625 74.21875 37.203125 74.21875 
Q 40.921875 74.21875 44.703125 73.484375 
Q 48.484375 72.75 52.59375 71.296875 
z
" id="DejaVuSans-36"/>
     </defs>
     <g style="fill:#fde725;" transform="translate(89.771139 391.62482)rotate(-325.267399)scale(0.1 -0.1)">
      <use xlink:href="#DejaVuSans-36"/>
      <use x="63.623047" xlink:href="#DejaVuSans-30"/>
      <use x="127.246094" xlink:href="#DejaVuSans-2e"/>
      <use x="159.033203" xlink:href="#DejaVuSans-30"/>
     </g>
    </g>
   </g>
   <g id="text_30">
    <g clip-path="url(#pcf233c791d)">
     <!-- 60.0 -->
     <g style="fill:#fde725;" transform="translate(420.357519 368.778269)rotate(-48.317781)scale(0.1 -0.1)">
      <use xlink:href="#DejaVuSans-36"/>
      <use x="63.623047" xlink:href="#DejaVuSans-30"/>
      <use x="127.246094" xlink:href="#DejaVuSans-2e"/>
      <use x="159.033203" xlink:href="#DejaVuSans-30"/>
     </g>
    </g>
   </g>
   <g id="text_31">
    <g clip-path="url(#pcf233c791d)">
     <!-- 60.0 -->
     <g style="fill:#fde725;" transform="translate(65.332598 174.465195)rotate(-49.636971)scale(0.1 -0.1)">
      <use xlink:href="#DejaVuSans-36"/>
      <use x="63.623047" xlink:href="#DejaVuSans-30"/>
      <use x="127.246094" xlink:href="#DejaVuSans-2e"/>
      <use x="159.033203" xlink:href="#DejaVuSans-30"/>
     </g>
    </g>
   </g>
   <g id="text_32">
    <g clip-path="url(#pcf233c791d)">
     <!-- 60.0 -->
     <g style="fill:#fde725;" transform="translate(366.206425 102.875353)rotate(-332.174314)scale(0.1 -0.1)">
      <use xlink:href="#DejaVuSans-36"/>
      <use x="63.623047" xlink:href="#DejaVuSans-30"/>
      <use x="127.246094" xlink:href="#DejaVuSans-2e"/>
      <use x="159.033203" xlink:href="#DejaVuSans-30"/>
     </g>
    </g>
   </g>
  </g>
 </g>
 <defs>
  <clipPath id="pcf233c791d">
   <rect height="380.52" width="390.6" x="63" y="60.48"/>
  </clipPath>
 </defs>
</svg>
