<?xml version="1.0" encoding="utf-8" standalone="no"?>
<!DOCTYPE svg PUBLIC "-//W3C//DTD SVG 1.1//EN"
  "http://www.w3.org/Graphics/SVG/1.1/DTD/svg11.dtd">
<!-- Created with matplotlib (http://matplotlib.org/) -->
<svg height="504pt" version="1.1" viewBox="0 0 504 504" width="504pt" xmlns="http://www.w3.org/2000/svg" xmlns:xlink="http://www.w3.org/1999/xlink">
 <defs>
  <style type="text/css">
*{stroke-linecap:butt;stroke-linejoin:round;}
  </style>
 </defs>
 <g id="figure_1">
  <g id="patch_1">
   <path d="M 0 504 
L 504 504 
L 504 0 
L 0 0 
z
" style="fill:#ffffff;"/>
  </g>
  <g id="axes_1">
   <g id="patch_2">
    <path d="M 63 441 
L 453.6 441 
L 453.6 60.48 
L 63 60.48 
z
" style="fill:#ffffff;"/>
   </g>
   <g id="Quiver_1">
    <path clip-path="url(#p0850f9f85b)" d="M 81.583133 424.532224 
L 60.880968 445.234389 
L 63.366731 446.062977 
L 52.595091 451.863091 
L 58.395205 441.09145 
L 59.223793 443.577214 
L 79.925958 422.875049 
L 81.583133 424.532224 
" style="fill:#ff0000;"/>
    <path clip-path="url(#p0850f9f85b)" d="M 121.124113 424.435654 
L 105.184708 444.35991 
L 107.74677 444.908923 
L 97.681527 451.863091 
L 102.256638 440.516817 
L 103.354664 442.895875 
L 119.294069 422.971619 
L 121.124113 424.435654 
" style="fill:#ff0000;"/>
    <path clip-path="url(#p0850f9f85b)" d="M 160.668447 424.306522 
L 149.198749 443.422685 
L 151.811256 443.623647 
L 142.767964 451.863091 
L 145.782394 440.00633 
L 147.189129 442.216913 
L 158.658826 423.10075 
L 160.668447 424.306522 
" style="fill:#ff0000;"/>
    <path clip-path="url(#p0850f9f85b)" d="M 200.206171 424.138832 
L 192.859149 442.506386 
L 195.470323 442.288788 
L 187.8544 451.863091 
L 188.942389 439.677614 
L 190.683171 441.635994 
L 198.030193 423.268441 
L 200.206171 424.138832 
" style="fill:#ff0000;"/>
    <path clip-path="url(#p0850f9f85b)" d="M 239.721772 423.933445 
L 236.158161 441.7515 
L 238.686059 441.062073 
L 232.940836 451.863091 
L 231.791792 439.68322 
L 233.860072 441.291882 
L 237.423683 423.473827 
L 239.721772 423.933445 
" style="fill:#ff0000;"/>
    <path clip-path="url(#p0850f9f85b)" d="M 279.199073 423.703636 
L 279.199073 441.316891 
L 281.542673 440.145091 
L 278.027273 451.863091 
L 274.511873 440.145091 
L 276.855473 441.316891 
L 276.855473 423.703636 
L 279.199073 423.703636 
" style="fill:#ff0000;"/>
    <path clip-path="url(#p0850f9f85b)" d="M 318.630863 423.473827 
L 322.194474 441.291882 
L 324.262754 439.68322 
L 323.113709 451.863091 
L 317.368487 441.062073 
L 319.896385 441.7515 
L 316.332774 423.933445 
L 318.630863 423.473827 
" style="fill:#ff0000;"/>
    <path clip-path="url(#p0850f9f85b)" d="M 358.024353 423.268441 
L 365.371374 441.635994 
L 367.112156 439.677614 
L 368.200145 451.863091 
L 360.584223 442.288788 
L 363.195396 442.506386 
L 355.848375 424.138832 
L 358.024353 423.268441 
" style="fill:#ff0000;"/>
    <path clip-path="url(#p0850f9f85b)" d="M 397.395719 423.10075 
L 408.865417 442.216913 
L 410.272151 440.00633 
L 413.286582 451.863091 
L 404.24329 443.623647 
L 406.855796 443.422685 
L 395.386099 424.306522 
L 397.395719 423.10075 
" style="fill:#ff0000;"/>
    <path clip-path="url(#p0850f9f85b)" d="M 436.760477 422.971619 
L 452.699881 442.895875 
L 453.797908 440.516817 
L 458.373018 451.863091 
L 448.307775 444.908923 
L 450.869837 444.35991 
L 434.930432 424.435654 
L 436.760477 422.971619 
" style="fill:#ff0000;"/>
    <path clip-path="url(#p0850f9f85b)" d="M 81.486563 386.182295 
L 61.562307 402.121699 
L 63.941365 403.219726 
L 52.595091 407.794836 
L 59.549259 397.729594 
L 60.098272 400.291655 
L 80.022528 384.352251 
L 81.486563 386.182295 
" style="fill:#ff0000;"/>
    <path clip-path="url(#p0850f9f85b)" d="M 121.037679 386.09586 
L 105.967405 401.166134 
L 108.453168 401.994722 
L 97.681527 407.794836 
L 103.481641 397.023196 
L 104.310229 399.508959 
L 119.380503 384.438685 
L 121.037679 386.09586 
" style="fill:#ff0000;"/>
    <path clip-path="url(#p0850f9f85b)" d="M 160.601076 385.970353 
L 150.033124 400.060956 
L 152.611084 400.529676 
L 142.767964 407.794836 
L 146.986444 396.311196 
L 148.158244 398.654796 
L 158.726196 384.564193 
L 160.601076 385.970353 
" style="fill:#ff0000;"/>
    <path clip-path="url(#p0850f9f85b)" d="M 200.166272 385.791318 
L 193.618894 398.886073 
L 196.239118 398.886073 
L 187.8544 407.794836 
L 189.95058 395.741804 
L 191.522714 397.837983 
L 198.070092 384.743228 
L 200.166272 385.791318 
" style="fill:#ff0000;"/>
    <path clip-path="url(#p0850f9f85b)" d="M 239.70954 385.551476 
L 236.635479 397.847723 
L 239.193308 397.279316 
L 232.940836 407.794836 
L 232.37243 395.574097 
L 234.361853 397.279316 
L 237.435914 384.983069 
L 239.70954 385.551476 
" style="fill:#ff0000;"/>
    <path clip-path="url(#p0850f9f85b)" d="M 279.199073 385.267273 
L 279.199073 397.248636 
L 281.542673 396.076836 
L 278.027273 407.794836 
L 274.511873 396.076836 
L 276.855473 397.248636 
L 276.855473 385.267273 
L 279.199073 385.267273 
" style="fill:#ff0000;"/>
    <path clip-path="url(#p0850f9f85b)" d="M 318.618631 384.983069 
L 321.692693 397.279316 
L 323.682116 395.574097 
L 323.113709 407.794836 
L 316.861238 397.279316 
L 319.419067 397.847723 
L 316.345005 385.551476 
L 318.618631 384.983069 
" style="fill:#ff0000;"/>
    <path clip-path="url(#p0850f9f85b)" d="M 357.984453 384.743228 
L 364.531831 397.837983 
L 366.103966 395.741804 
L 368.200145 407.794836 
L 359.815427 398.886073 
L 362.435652 398.886073 
L 355.888274 385.791318 
L 357.984453 384.743228 
" style="fill:#ff0000;"/>
    <path clip-path="url(#p0850f9f85b)" d="M 397.328349 384.564193 
L 407.896302 398.654796 
L 409.068102 396.311196 
L 413.286582 407.794836 
L 403.443462 400.529676 
L 406.021422 400.060956 
L 395.453469 385.970353 
L 397.328349 384.564193 
" style="fill:#ff0000;"/>
    <path clip-path="url(#p0850f9f85b)" d="M 436.674042 384.438685 
L 451.744316 399.508959 
L 452.572904 397.023196 
L 458.373018 407.794836 
L 447.601378 401.994722 
L 450.087141 401.166134 
L 435.016867 386.09586 
L 436.674042 384.438685 
" style="fill:#ff0000;"/>
    <path clip-path="url(#p0850f9f85b)" d="M 81.357432 347.835719 
L 62.241269 359.305417 
L 64.451851 360.712151 
L 52.595091 363.726582 
L 60.834535 354.68329 
L 61.035497 357.295796 
L 80.151659 345.826099 
L 81.357432 347.835719 
" style="fill:#ff0000;"/>
    <path clip-path="url(#p0850f9f85b)" d="M 120.912171 347.768349 
L 106.821567 358.336302 
L 109.165167 359.508102 
L 97.681527 363.726582 
L 104.946687 353.883462 
L 105.415407 356.461422 
L 119.506011 345.893469 
L 120.912171 347.768349 
" style="fill:#ff0000;"/>
    <path clip-path="url(#p0850f9f85b)" d="M 160.492224 347.659497 
L 151.053841 357.09788 
L 153.539604 357.926468 
L 142.767964 363.726582 
L 148.568078 352.954941 
L 149.396666 355.440704 
L 158.835049 346.002321 
L 160.492224 347.659497 
" style="fill:#ff0000;"/>
    <path clip-path="url(#p0850f9f85b)" d="M 200.093178 347.480907 
L 194.679376 355.601611 
L 197.279367 355.926609 
L 187.8544 363.726582 
L 191.429387 352.026623 
L 192.729383 354.301615 
L 198.143185 346.180911 
L 200.093178 347.480907 
" style="fill:#ff0000;"/>
    <path clip-path="url(#p0850f9f85b)" d="M 239.684394 347.201465 
L 237.387505 354.092134 
L 239.981395 353.721578 
L 232.940836 363.726582 
L 233.311392 351.498244 
L 235.164171 353.351022 
L 237.46106 346.460353 
L 239.684394 347.201465 
" style="fill:#ff0000;"/>
    <path clip-path="url(#p0850f9f85b)" d="M 279.199073 346.830909 
L 279.199073 353.180382 
L 281.542673 352.008582 
L 278.027273 363.726582 
L 274.511873 352.008582 
L 276.855473 353.180382 
L 276.855473 346.830909 
L 279.199073 346.830909 
" style="fill:#ff0000;"/>
    <path clip-path="url(#p0850f9f85b)" d="M 318.593485 346.460353 
L 320.890375 353.351022 
L 322.743153 351.498244 
L 323.113709 363.726582 
L 316.073151 353.721578 
L 318.667041 354.092134 
L 316.370151 347.201465 
L 318.593485 346.460353 
" style="fill:#ff0000;"/>
    <path clip-path="url(#p0850f9f85b)" d="M 357.91136 346.180911 
L 363.325163 354.301615 
L 364.625158 352.026623 
L 368.200145 363.726582 
L 358.775179 355.926609 
L 361.37517 355.601611 
L 355.961367 347.480907 
L 357.91136 346.180911 
" style="fill:#ff0000;"/>
    <path clip-path="url(#p0850f9f85b)" d="M 397.219497 346.002321 
L 406.65788 355.440704 
L 407.486468 352.954941 
L 413.286582 363.726582 
L 402.514941 357.926468 
L 405.000704 357.09788 
L 395.562321 347.659497 
L 397.219497 346.002321 
" style="fill:#ff0000;"/>
    <path clip-path="url(#p0850f9f85b)" d="M 436.548535 345.893469 
L 450.639138 356.461422 
L 451.107858 353.883462 
L 458.373018 363.726582 
L 446.889378 359.508102 
L 449.232978 358.336302 
L 435.142375 347.768349 
L 436.548535 345.893469 
" style="fill:#ff0000;"/>
    <path clip-path="url(#p0850f9f85b)" d="M 81.189741 309.482534 
L 62.822187 316.829556 
L 64.780568 318.570338 
L 52.595091 319.658327 
L 62.169394 312.042404 
L 61.951796 314.653578 
L 80.31935 307.306556 
L 81.189741 309.482534 
" style="fill:#ff0000;"/>
    <path clip-path="url(#p0850f9f85b)" d="M 120.733136 309.442635 
L 107.63838 315.990013 
L 109.73456 317.562148 
L 97.681527 319.658327 
L 106.59029 311.273609 
L 106.59029 313.893833 
L 119.685046 307.346456 
L 120.733136 309.442635 
" style="fill:#ff0000;"/>
    <path clip-path="url(#p0850f9f85b)" d="M 160.313634 309.369542 
L 152.19293 314.783345 
L 154.467922 316.08334 
L 142.767964 319.658327 
L 150.567936 310.233361 
L 150.892935 312.833351 
L 159.013639 307.419549 
L 160.313634 309.369542 
" style="fill:#ff0000;"/>
    <path clip-path="url(#p0850f9f85b)" d="M 199.94677 309.223133 
L 196.140277 313.029625 
L 198.62604 313.858213 
L 187.8544 319.658327 
L 193.654514 308.886687 
L 194.483102 311.37245 
L 198.289594 307.565958 
L 199.94677 309.223133 
" style="fill:#ff0000;"/>
    <path clip-path="url(#p0850f9f85b)" d="M 239.620817 308.91859 
L 238.70533 310.749564 
L 241.325555 310.749564 
L 232.940836 319.658327 
L 235.037016 307.605295 
L 236.609151 309.701474 
L 237.524637 307.870501 
L 239.620817 308.91859 
" style="fill:#ff0000;"/>
    <path clip-path="url(#p0850f9f85b)" d="M 279.153651 308.394545 
L 279.153651 309.520924 
L 281.406407 308.394545 
L 278.027273 319.658327 
L 274.648138 308.394545 
L 276.900895 309.520924 
L 276.900895 308.394545 
L 279.153651 308.394545 
" style="fill:#ff0000;"/>
    <path clip-path="url(#p0850f9f85b)" d="M 318.529908 307.870501 
L 319.445395 309.701474 
L 321.01753 307.605295 
L 323.113709 319.658327 
L 314.728991 310.749564 
L 317.349215 310.749564 
L 316.433728 308.91859 
L 318.529908 307.870501 
" style="fill:#ff0000;"/>
    <path clip-path="url(#p0850f9f85b)" d="M 357.764951 307.565958 
L 361.571444 311.37245 
L 362.400031 308.886687 
L 368.200145 319.658327 
L 357.428505 313.858213 
L 359.914268 313.029625 
L 356.107776 309.223133 
L 357.764951 307.565958 
" style="fill:#ff0000;"/>
    <path clip-path="url(#p0850f9f85b)" d="M 397.040907 307.419549 
L 405.161611 312.833351 
L 405.486609 310.233361 
L 413.286582 319.658327 
L 401.586623 316.08334 
L 403.861615 314.783345 
L 395.740911 309.369542 
L 397.040907 307.419549 
" style="fill:#ff0000;"/>
    <path clip-path="url(#p0850f9f85b)" d="M 436.369499 307.346456 
L 449.464255 313.893833 
L 449.464255 311.273609 
L 458.373018 319.658327 
L 446.319986 317.562148 
L 448.416165 315.990013 
L 435.32141 309.442635 
L 436.369499 307.346456 
" style="fill:#ff0000;"/>
    <path clip-path="url(#p0850f9f85b)" d="M 80.984354 271.107226 
L 63.1663 274.670837 
L 64.774962 276.739117 
L 52.595091 275.590073 
L 63.396109 269.844851 
L 62.706682 272.372748 
L 80.524737 268.809137 
L 80.984354 271.107226 
" style="fill:#ff0000;"/>
    <path clip-path="url(#p0850f9f85b)" d="M 120.493294 271.094995 
L 108.197047 274.169056 
L 109.902267 276.158479 
L 97.681527 275.590073 
L 108.197047 269.337601 
L 107.628641 271.895431 
L 119.924888 268.821369 
L 120.493294 271.094995 
" style="fill:#ff0000;"/>
    <path clip-path="url(#p0850f9f85b)" d="M 160.034192 271.069849 
L 153.143523 273.366739 
L 154.996302 275.219517 
L 142.767964 275.590073 
L 152.772967 268.549514 
L 152.402412 271.143404 
L 159.293081 268.846515 
L 160.034192 271.069849 
" style="fill:#ff0000;"/>
    <path clip-path="url(#p0850f9f85b)" d="M 199.642227 271.006272 
L 197.811253 271.921758 
L 199.907433 273.493893 
L 187.8544 275.590073 
L 196.763163 267.205354 
L 196.763163 269.825579 
L 198.594137 268.910092 
L 199.642227 271.006272 
" style="fill:#ff0000;"/>
    <path clip-path="url(#p0850f9f85b)" d="M 239.135916 270.521371 
L 238.572727 271.08456 
L 240.262295 271.647749 
L 232.940836 275.590073 
L 236.88316 268.268615 
L 237.446349 269.958182 
L 238.009538 269.394993 
L 239.135916 270.521371 
" style="fill:#ff0000;"/>
    <path clip-path="url(#p0850f9f85b)" d="M 278.590462 269.958182 
L 278.590462 270.521371 
L 279.71684 269.958182 
L 278.027273 275.590073 
L 276.337705 269.958182 
L 277.464084 270.521371 
L 277.464084 269.958182 
L 278.590462 269.958182 
" style="fill:#ff0000;"/>
    <path clip-path="url(#p0850f9f85b)" d="M 318.045007 269.394993 
L 318.608196 269.958182 
L 319.171385 268.268615 
L 323.113709 275.590073 
L 315.792251 271.647749 
L 317.481818 271.08456 
L 316.918629 270.521371 
L 318.045007 269.394993 
" style="fill:#ff0000;"/>
    <path clip-path="url(#p0850f9f85b)" d="M 357.460409 268.910092 
L 359.291382 269.825579 
L 359.291382 267.205354 
L 368.200145 275.590073 
L 356.147113 273.493893 
L 358.243292 271.921758 
L 356.412319 271.006272 
L 357.460409 268.910092 
" style="fill:#ff0000;"/>
    <path clip-path="url(#p0850f9f85b)" d="M 396.761465 268.846515 
L 403.652134 271.143404 
L 403.281578 268.549514 
L 413.286582 275.590073 
L 401.058244 275.219517 
L 402.911022 273.366739 
L 396.020353 271.069849 
L 396.761465 268.846515 
" style="fill:#ff0000;"/>
    <path clip-path="url(#p0850f9f85b)" d="M 436.129658 268.821369 
L 448.425905 271.895431 
L 447.857498 269.337601 
L 458.373018 275.590073 
L 446.152279 276.158479 
L 447.857498 274.169056 
L 435.561251 271.094995 
L 436.129658 268.821369 
" style="fill:#ff0000;"/>
    <path clip-path="url(#p0850f9f85b)" d="M 80.754545 232.693618 
L 63.141291 232.693618 
L 64.313091 235.037218 
L 52.595091 231.521818 
L 64.313091 228.006418 
L 63.141291 230.350018 
L 80.754545 230.350018 
L 80.754545 232.693618 
" style="fill:#ff0000;"/>
    <path clip-path="url(#p0850f9f85b)" d="M 120.209091 232.693618 
L 108.227727 232.693618 
L 109.399527 235.037218 
L 97.681527 231.521818 
L 109.399527 228.006418 
L 108.227727 230.350018 
L 120.209091 230.350018 
L 120.209091 232.693618 
" style="fill:#ff0000;"/>
    <path clip-path="url(#p0850f9f85b)" d="M 159.663636 232.693618 
L 153.314164 232.693618 
L 154.485964 235.037218 
L 142.767964 231.521818 
L 154.485964 228.006418 
L 153.314164 230.350018 
L 159.663636 230.350018 
L 159.663636 232.693618 
" style="fill:#ff0000;"/>
    <path clip-path="url(#p0850f9f85b)" d="M 199.118182 232.648196 
L 197.991804 232.648196 
L 199.118182 234.900953 
L 187.8544 231.521818 
L 199.118182 228.142684 
L 197.991804 230.39544 
L 199.118182 230.39544 
L 199.118182 232.648196 
" style="fill:#ff0000;"/>
    <path clip-path="url(#p0850f9f85b)" d="M 238.572727 232.085007 
L 238.009538 232.085007 
L 238.572727 233.211385 
L 232.940836 231.521818 
L 238.572727 229.832251 
L 238.009538 230.958629 
L 238.572727 230.958629 
L 238.572727 232.085007 
" style="fill:#ff0000;"/>
    <path clip-path="url(#p0850f9f85b)" d="M 279.199073 231.521818 
L 278.613173 230.50701 
L 277.441373 230.50701 
L 276.855473 231.521818 
L 277.441373 232.536627 
L 278.613173 232.536627 
L 279.199073 231.521818 
L 278.613173 230.50701 
" style="fill:#ff0000;"/>
    <path clip-path="url(#p0850f9f85b)" d="M 317.481818 230.958629 
L 318.045007 230.958629 
L 317.481818 229.832251 
L 323.113709 231.521818 
L 317.481818 233.211385 
L 318.045007 232.085007 
L 317.481818 232.085007 
L 317.481818 230.958629 
" style="fill:#ff0000;"/>
    <path clip-path="url(#p0850f9f85b)" d="M 356.936364 230.39544 
L 358.062742 230.39544 
L 356.936364 228.142684 
L 368.200145 231.521818 
L 356.936364 234.900953 
L 358.062742 232.648196 
L 356.936364 232.648196 
L 356.936364 230.39544 
" style="fill:#ff0000;"/>
    <path clip-path="url(#p0850f9f85b)" d="M 396.390909 230.350018 
L 402.740382 230.350018 
L 401.568582 228.006418 
L 413.286582 231.521818 
L 401.568582 235.037218 
L 402.740382 232.693618 
L 396.390909 232.693618 
L 396.390909 230.350018 
" style="fill:#ff0000;"/>
    <path clip-path="url(#p0850f9f85b)" d="M 435.845455 230.350018 
L 447.826818 230.350018 
L 446.655018 228.006418 
L 458.373018 231.521818 
L 446.655018 235.037218 
L 447.826818 232.693618 
L 435.845455 232.693618 
L 435.845455 230.350018 
" style="fill:#ff0000;"/>
    <path clip-path="url(#p0850f9f85b)" d="M 80.524737 194.234499 
L 62.706682 190.670888 
L 63.396109 193.198786 
L 52.595091 187.453564 
L 64.774962 186.304519 
L 63.1663 188.372799 
L 80.984354 191.93641 
L 80.524737 194.234499 
" style="fill:#ff0000;"/>
    <path clip-path="url(#p0850f9f85b)" d="M 119.924888 194.222268 
L 107.628641 191.148206 
L 108.197047 193.706035 
L 97.681527 187.453564 
L 109.902267 186.885157 
L 108.197047 188.87458 
L 120.493294 191.948642 
L 119.924888 194.222268 
" style="fill:#ff0000;"/>
    <path clip-path="url(#p0850f9f85b)" d="M 159.293081 194.197122 
L 152.402412 191.900232 
L 152.772967 194.494122 
L 142.767964 187.453564 
L 154.996302 187.824119 
L 153.143523 189.676898 
L 160.034192 191.973787 
L 159.293081 194.197122 
" style="fill:#ff0000;"/>
    <path clip-path="url(#p0850f9f85b)" d="M 198.594137 194.133544 
L 196.763163 193.218057 
L 196.763163 195.838282 
L 187.8544 187.453564 
L 199.907433 189.549743 
L 197.811253 191.121878 
L 199.642227 192.037365 
L 198.594137 194.133544 
" style="fill:#ff0000;"/>
    <path clip-path="url(#p0850f9f85b)" d="M 238.009538 193.648644 
L 237.446349 193.085455 
L 236.88316 194.775022 
L 232.940836 187.453564 
L 240.262295 191.395887 
L 238.572727 191.959076 
L 239.135916 192.522265 
L 238.009538 193.648644 
" style="fill:#ff0000;"/>
    <path clip-path="url(#p0850f9f85b)" d="M 277.464084 193.085455 
L 277.464084 192.522265 
L 276.337705 193.085455 
L 278.027273 187.453564 
L 279.71684 193.085455 
L 278.590462 192.522265 
L 278.590462 193.085455 
L 277.464084 193.085455 
" style="fill:#ff0000;"/>
    <path clip-path="url(#p0850f9f85b)" d="M 316.918629 192.522265 
L 317.481818 191.959076 
L 315.792251 191.395887 
L 323.113709 187.453564 
L 319.171385 194.775022 
L 318.608196 193.085455 
L 318.045007 193.648644 
L 316.918629 192.522265 
" style="fill:#ff0000;"/>
    <path clip-path="url(#p0850f9f85b)" d="M 356.412319 192.037365 
L 358.243292 191.121878 
L 356.147113 189.549743 
L 368.200145 187.453564 
L 359.291382 195.838282 
L 359.291382 193.218057 
L 357.460409 194.133544 
L 356.412319 192.037365 
" style="fill:#ff0000;"/>
    <path clip-path="url(#p0850f9f85b)" d="M 396.020353 191.973787 
L 402.911022 189.676898 
L 401.058244 187.824119 
L 413.286582 187.453564 
L 403.281578 194.494122 
L 403.652134 191.900232 
L 396.761465 194.197122 
L 396.020353 191.973787 
" style="fill:#ff0000;"/>
    <path clip-path="url(#p0850f9f85b)" d="M 435.561251 191.948642 
L 447.857498 188.87458 
L 446.152279 186.885157 
L 458.373018 187.453564 
L 447.857498 193.706035 
L 448.425905 191.148206 
L 436.129658 194.222268 
L 435.561251 191.948642 
" style="fill:#ff0000;"/>
    <path clip-path="url(#p0850f9f85b)" d="M 80.31935 155.73708 
L 61.951796 148.390058 
L 62.169394 151.001232 
L 52.595091 143.385309 
L 64.780568 144.473298 
L 62.822187 146.21408 
L 81.189741 153.561102 
L 80.31935 155.73708 
" style="fill:#ff0000;"/>
    <path clip-path="url(#p0850f9f85b)" d="M 119.685046 155.697181 
L 106.59029 149.149803 
L 106.59029 151.770027 
L 97.681527 143.385309 
L 109.73456 145.481489 
L 107.63838 147.053623 
L 120.733136 153.601001 
L 119.685046 155.697181 
" style="fill:#ff0000;"/>
    <path clip-path="url(#p0850f9f85b)" d="M 159.013639 155.624087 
L 150.892935 150.210285 
L 150.567936 152.810276 
L 142.767964 143.385309 
L 154.467922 146.960296 
L 152.19293 148.260292 
L 160.313634 153.674094 
L 159.013639 155.624087 
" style="fill:#ff0000;"/>
    <path clip-path="url(#p0850f9f85b)" d="M 198.289594 155.477679 
L 194.483102 151.671186 
L 193.654514 154.15695 
L 187.8544 143.385309 
L 198.62604 149.185423 
L 196.140277 150.014011 
L 199.94677 153.820503 
L 198.289594 155.477679 
" style="fill:#ff0000;"/>
    <path clip-path="url(#p0850f9f85b)" d="M 237.524637 155.173136 
L 236.609151 153.342162 
L 235.037016 155.438342 
L 232.940836 143.385309 
L 241.325555 152.294072 
L 238.70533 152.294072 
L 239.620817 154.125046 
L 237.524637 155.173136 
" style="fill:#ff0000;"/>
    <path clip-path="url(#p0850f9f85b)" d="M 276.900895 154.649091 
L 276.900895 153.522713 
L 274.648138 154.649091 
L 278.027273 143.385309 
L 281.406407 154.649091 
L 279.153651 153.522713 
L 279.153651 154.649091 
L 276.900895 154.649091 
" style="fill:#ff0000;"/>
    <path clip-path="url(#p0850f9f85b)" d="M 316.433728 154.125046 
L 317.349215 152.294072 
L 314.728991 152.294072 
L 323.113709 143.385309 
L 321.01753 155.438342 
L 319.445395 153.342162 
L 318.529908 155.173136 
L 316.433728 154.125046 
" style="fill:#ff0000;"/>
    <path clip-path="url(#p0850f9f85b)" d="M 356.107776 153.820503 
L 359.914268 150.014011 
L 357.428505 149.185423 
L 368.200145 143.385309 
L 362.400031 154.15695 
L 361.571444 151.671186 
L 357.764951 155.477679 
L 356.107776 153.820503 
" style="fill:#ff0000;"/>
    <path clip-path="url(#p0850f9f85b)" d="M 395.740911 153.674094 
L 403.861615 148.260292 
L 401.586623 146.960296 
L 413.286582 143.385309 
L 405.486609 152.810276 
L 405.161611 150.210285 
L 397.040907 155.624087 
L 395.740911 153.674094 
" style="fill:#ff0000;"/>
    <path clip-path="url(#p0850f9f85b)" d="M 435.32141 153.601001 
L 448.416165 147.053623 
L 446.319986 145.481489 
L 458.373018 143.385309 
L 449.464255 151.770027 
L 449.464255 149.149803 
L 436.369499 155.697181 
L 435.32141 153.601001 
" style="fill:#ff0000;"/>
    <path clip-path="url(#p0850f9f85b)" d="M 80.151659 117.217537 
L 61.035497 105.74784 
L 60.834535 108.360346 
L 52.595091 99.317055 
L 64.451851 102.331485 
L 62.241269 103.73822 
L 81.357432 115.207917 
L 80.151659 117.217537 
" style="fill:#ff0000;"/>
    <path clip-path="url(#p0850f9f85b)" d="M 119.506011 117.150167 
L 105.415407 106.582215 
L 104.946687 109.160175 
L 97.681527 99.317055 
L 109.165167 103.535535 
L 106.821567 104.707335 
L 120.912171 115.275287 
L 119.506011 117.150167 
" style="fill:#ff0000;"/>
    <path clip-path="url(#p0850f9f85b)" d="M 158.835049 117.041315 
L 149.396666 107.602932 
L 148.568078 110.088695 
L 142.767964 99.317055 
L 153.539604 105.117169 
L 151.053841 105.945756 
L 160.492224 115.38414 
L 158.835049 117.041315 
" style="fill:#ff0000;"/>
    <path clip-path="url(#p0850f9f85b)" d="M 198.143185 116.862725 
L 192.729383 108.742021 
L 191.429387 111.017013 
L 187.8544 99.317055 
L 197.279367 107.117027 
L 194.679376 107.442026 
L 200.093178 115.56273 
L 198.143185 116.862725 
" style="fill:#ff0000;"/>
    <path clip-path="url(#p0850f9f85b)" d="M 237.46106 116.583283 
L 235.164171 109.692614 
L 233.311392 111.545393 
L 232.940836 99.317055 
L 239.981395 109.322058 
L 237.387505 108.951503 
L 239.684394 115.842172 
L 237.46106 116.583283 
" style="fill:#ff0000;"/>
    <path clip-path="url(#p0850f9f85b)" d="M 276.855473 116.212727 
L 276.855473 109.863255 
L 274.511873 111.035055 
L 278.027273 99.317055 
L 281.542673 111.035055 
L 279.199073 109.863255 
L 279.199073 116.212727 
L 276.855473 116.212727 
" style="fill:#ff0000;"/>
    <path clip-path="url(#p0850f9f85b)" d="M 316.370151 115.842172 
L 318.667041 108.951503 
L 316.073151 109.322058 
L 323.113709 99.317055 
L 322.743153 111.545393 
L 320.890375 109.692614 
L 318.593485 116.583283 
L 316.370151 115.842172 
" style="fill:#ff0000;"/>
    <path clip-path="url(#p0850f9f85b)" d="M 355.961367 115.56273 
L 361.37517 107.442026 
L 358.775179 107.117027 
L 368.200145 99.317055 
L 364.625158 111.017013 
L 363.325163 108.742021 
L 357.91136 116.862725 
L 355.961367 115.56273 
" style="fill:#ff0000;"/>
    <path clip-path="url(#p0850f9f85b)" d="M 395.562321 115.38414 
L 405.000704 105.945756 
L 402.514941 105.117169 
L 413.286582 99.317055 
L 407.486468 110.088695 
L 406.65788 107.602932 
L 397.219497 117.041315 
L 395.562321 115.38414 
" style="fill:#ff0000;"/>
    <path clip-path="url(#p0850f9f85b)" d="M 435.142375 115.275287 
L 449.232978 104.707335 
L 446.889378 103.535535 
L 458.373018 99.317055 
L 451.107858 109.160175 
L 450.639138 106.582215 
L 436.548535 117.150167 
L 435.142375 115.275287 
" style="fill:#ff0000;"/>
    <path clip-path="url(#p0850f9f85b)" d="M 80.022528 78.691386 
L 60.098272 62.751981 
L 59.549259 65.314043 
L 52.595091 55.2488 
L 63.941365 59.82391 
L 61.562307 60.921937 
L 81.486563 76.861342 
L 80.022528 78.691386 
" style="fill:#ff0000;"/>
    <path clip-path="url(#p0850f9f85b)" d="M 119.380503 78.604951 
L 104.310229 63.534677 
L 103.481641 66.020441 
L 97.681527 55.2488 
L 108.453168 61.048914 
L 105.967405 61.877502 
L 121.037679 76.947776 
L 119.380503 78.604951 
" style="fill:#ff0000;"/>
    <path clip-path="url(#p0850f9f85b)" d="M 158.726196 78.479444 
L 148.158244 64.38884 
L 146.986444 66.73244 
L 142.767964 55.2488 
L 152.611084 62.51396 
L 150.033124 62.98268 
L 160.601076 77.073284 
L 158.726196 78.479444 
" style="fill:#ff0000;"/>
    <path clip-path="url(#p0850f9f85b)" d="M 198.070092 78.300409 
L 191.522714 65.205653 
L 189.95058 67.301833 
L 187.8544 55.2488 
L 196.239118 64.157563 
L 193.618894 64.157563 
L 200.166272 77.252319 
L 198.070092 78.300409 
" style="fill:#ff0000;"/>
    <path clip-path="url(#p0850f9f85b)" d="M 237.435914 78.060567 
L 234.361853 65.76432 
L 232.37243 67.46954 
L 232.940836 55.2488 
L 239.193308 65.76432 
L 236.635479 65.195914 
L 239.70954 77.49216 
L 237.435914 78.060567 
" style="fill:#ff0000;"/>
    <path clip-path="url(#p0850f9f85b)" d="M 276.855473 77.776364 
L 276.855473 65.795 
L 274.511873 66.9668 
L 278.027273 55.2488 
L 281.542673 66.9668 
L 279.199073 65.795 
L 279.199073 77.776364 
L 276.855473 77.776364 
" style="fill:#ff0000;"/>
    <path clip-path="url(#p0850f9f85b)" d="M 316.345005 77.49216 
L 319.419067 65.195914 
L 316.861238 65.76432 
L 323.113709 55.2488 
L 323.682116 67.46954 
L 321.692693 65.76432 
L 318.618631 78.060567 
L 316.345005 77.49216 
" style="fill:#ff0000;"/>
    <path clip-path="url(#p0850f9f85b)" d="M 355.888274 77.252319 
L 362.435652 64.157563 
L 359.815427 64.157563 
L 368.200145 55.2488 
L 366.103966 67.301833 
L 364.531831 65.205653 
L 357.984453 78.300409 
L 355.888274 77.252319 
" style="fill:#ff0000;"/>
    <path clip-path="url(#p0850f9f85b)" d="M 395.453469 77.073284 
L 406.021422 62.98268 
L 403.443462 62.51396 
L 413.286582 55.2488 
L 409.068102 66.73244 
L 407.896302 64.38884 
L 397.328349 78.479444 
L 395.453469 77.073284 
" style="fill:#ff0000;"/>
    <path clip-path="url(#p0850f9f85b)" d="M 435.016867 76.947776 
L 450.087141 61.877502 
L 447.601378 61.048914 
L 458.373018 55.2488 
L 452.572904 66.020441 
L 451.744316 63.534677 
L 436.674042 78.604951 
L 435.016867 76.947776 
" style="fill:#ff0000;"/>
   </g>
   <g id="matplotlib.axis_1">
    <g id="xtick_1">
     <g id="line2d_1">
      <defs>
       <path d="M 0 0 
L 0 3.5 
" id="mc4b5a4775b" style="stroke:#000000;stroke-width:0.8;"/>
      </defs>
      <g>
       <use style="stroke:#000000;stroke-width:0.8;" x="120.209091" xlink:href="#mc4b5a4775b" y="441"/>
      </g>
     </g>
     <g id="text_1">
      <!-- −4 -->
      <defs>
       <path d="M 10.59375 35.5 
L 73.1875 35.5 
L 73.1875 27.203125 
L 10.59375 27.203125 
z
" id="DejaVuSans-2212"/>
       <path d="M 37.796875 64.3125 
L 12.890625 25.390625 
L 37.796875 25.390625 
z
M 35.203125 72.90625 
L 47.609375 72.90625 
L 47.609375 25.390625 
L 58.015625 25.390625 
L 58.015625 17.1875 
L 47.609375 17.1875 
L 47.609375 0 
L 37.796875 0 
L 37.796875 17.1875 
L 4.890625 17.1875 
L 4.890625 26.703125 
z
" id="DejaVuSans-34"/>
      </defs>
      <g transform="translate(112.837997 455.598437)scale(0.1 -0.1)">
       <use xlink:href="#DejaVuSans-2212"/>
       <use x="83.789062" xlink:href="#DejaVuSans-34"/>
      </g>
     </g>
    </g>
    <g id="xtick_2">
     <g id="line2d_2">
      <g>
       <use style="stroke:#000000;stroke-width:0.8;" x="199.118182" xlink:href="#mc4b5a4775b" y="441"/>
      </g>
     </g>
     <g id="text_2">
      <!-- −2 -->
      <defs>
       <path d="M 19.1875 8.296875 
L 53.609375 8.296875 
L 53.609375 0 
L 7.328125 0 
L 7.328125 8.296875 
Q 12.9375 14.109375 22.625 23.890625 
Q 32.328125 33.6875 34.8125 36.53125 
Q 39.546875 41.84375 41.421875 45.53125 
Q 43.3125 49.21875 43.3125 52.78125 
Q 43.3125 58.59375 39.234375 62.25 
Q 35.15625 65.921875 28.609375 65.921875 
Q 23.96875 65.921875 18.8125 64.3125 
Q 13.671875 62.703125 7.8125 59.421875 
L 7.8125 69.390625 
Q 13.765625 71.78125 18.9375 73 
Q 24.125 74.21875 28.421875 74.21875 
Q 39.75 74.21875 46.484375 68.546875 
Q 53.21875 62.890625 53.21875 53.421875 
Q 53.21875 48.921875 51.53125 44.890625 
Q 49.859375 40.875 45.40625 35.40625 
Q 44.1875 33.984375 37.640625 27.21875 
Q 31.109375 20.453125 19.1875 8.296875 
z
" id="DejaVuSans-32"/>
      </defs>
      <g transform="translate(191.747088 455.598437)scale(0.1 -0.1)">
       <use xlink:href="#DejaVuSans-2212"/>
       <use x="83.789062" xlink:href="#DejaVuSans-32"/>
      </g>
     </g>
    </g>
    <g id="xtick_3">
     <g id="line2d_3">
      <g>
       <use style="stroke:#000000;stroke-width:0.8;" x="278.027273" xlink:href="#mc4b5a4775b" y="441"/>
      </g>
     </g>
     <g id="text_3">
      <!-- 0 -->
      <defs>
       <path d="M 31.78125 66.40625 
Q 24.171875 66.40625 20.328125 58.90625 
Q 16.5 51.421875 16.5 36.375 
Q 16.5 21.390625 20.328125 13.890625 
Q 24.171875 6.390625 31.78125 6.390625 
Q 39.453125 6.390625 43.28125 13.890625 
Q 47.125 21.390625 47.125 36.375 
Q 47.125 51.421875 43.28125 58.90625 
Q 39.453125 66.40625 31.78125 66.40625 
z
M 31.78125 74.21875 
Q 44.046875 74.21875 50.515625 64.515625 
Q 56.984375 54.828125 56.984375 36.375 
Q 56.984375 17.96875 50.515625 8.265625 
Q 44.046875 -1.421875 31.78125 -1.421875 
Q 19.53125 -1.421875 13.0625 8.265625 
Q 6.59375 17.96875 6.59375 36.375 
Q 6.59375 54.828125 13.0625 64.515625 
Q 19.53125 74.21875 31.78125 74.21875 
z
" id="DejaVuSans-30"/>
      </defs>
      <g transform="translate(274.846023 455.598437)scale(0.1 -0.1)">
       <use xlink:href="#DejaVuSans-30"/>
      </g>
     </g>
    </g>
    <g id="xtick_4">
     <g id="line2d_4">
      <g>
       <use style="stroke:#000000;stroke-width:0.8;" x="356.936364" xlink:href="#mc4b5a4775b" y="441"/>
      </g>
     </g>
     <g id="text_4">
      <!-- 2 -->
      <g transform="translate(353.755114 455.598437)scale(0.1 -0.1)">
       <use xlink:href="#DejaVuSans-32"/>
      </g>
     </g>
    </g>
    <g id="xtick_5">
     <g id="line2d_5">
      <g>
       <use style="stroke:#000000;stroke-width:0.8;" x="435.845455" xlink:href="#mc4b5a4775b" y="441"/>
      </g>
     </g>
     <g id="text_5">
      <!-- 4 -->
      <g transform="translate(432.664205 455.598437)scale(0.1 -0.1)">
       <use xlink:href="#DejaVuSans-34"/>
      </g>
     </g>
    </g>
   </g>
   <g id="matplotlib.axis_2">
    <g id="ytick_1">
     <g id="line2d_6">
      <defs>
       <path d="M 0 0 
L -3.5 0 
" id="m7d3cc88a9e" style="stroke:#000000;stroke-width:0.8;"/>
      </defs>
      <g>
       <use style="stroke:#000000;stroke-width:0.8;" x="63" xlink:href="#m7d3cc88a9e" y="385.267273"/>
      </g>
     </g>
     <g id="text_6">
      <!-- −4 -->
      <g transform="translate(41.257812 389.066491)scale(0.1 -0.1)">
       <use xlink:href="#DejaVuSans-2212"/>
       <use x="83.789062" xlink:href="#DejaVuSans-34"/>
      </g>
     </g>
    </g>
    <g id="ytick_2">
     <g id="line2d_7">
      <g>
       <use style="stroke:#000000;stroke-width:0.8;" x="63" xlink:href="#m7d3cc88a9e" y="308.394545"/>
      </g>
     </g>
     <g id="text_7">
      <!-- −2 -->
      <g transform="translate(41.257812 312.193764)scale(0.1 -0.1)">
       <use xlink:href="#DejaVuSans-2212"/>
       <use x="83.789062" xlink:href="#DejaVuSans-32"/>
      </g>
     </g>
    </g>
    <g id="ytick_3">
     <g id="line2d_8">
      <g>
       <use style="stroke:#000000;stroke-width:0.8;" x="63" xlink:href="#m7d3cc88a9e" y="231.521818"/>
      </g>
     </g>
     <g id="text_8">
      <!-- 0 -->
      <g transform="translate(49.6375 235.321037)scale(0.1 -0.1)">
       <use xlink:href="#DejaVuSans-30"/>
      </g>
     </g>
    </g>
    <g id="ytick_4">
     <g id="line2d_9">
      <g>
       <use style="stroke:#000000;stroke-width:0.8;" x="63" xlink:href="#m7d3cc88a9e" y="154.649091"/>
      </g>
     </g>
     <g id="text_9">
      <!-- 2 -->
      <g transform="translate(49.6375 158.44831)scale(0.1 -0.1)">
       <use xlink:href="#DejaVuSans-32"/>
      </g>
     </g>
    </g>
    <g id="ytick_5">
     <g id="line2d_10">
      <g>
       <use style="stroke:#000000;stroke-width:0.8;" x="63" xlink:href="#m7d3cc88a9e" y="77.776364"/>
      </g>
     </g>
     <g id="text_10">
      <!-- 4 -->
      <g transform="translate(49.6375 81.575582)scale(0.1 -0.1)">
       <use xlink:href="#DejaVuSans-34"/>
      </g>
     </g>
    </g>
   </g>
   <g id="patch_3">
    <path d="M 63 441 
L 63 60.48 
" style="fill:none;stroke:#000000;stroke-linecap:square;stroke-linejoin:miter;stroke-width:0.8;"/>
   </g>
   <g id="patch_4">
    <path d="M 453.6 441 
L 453.6 60.48 
" style="fill:none;stroke:#000000;stroke-linecap:square;stroke-linejoin:miter;stroke-width:0.8;"/>
   </g>
   <g id="patch_5">
    <path d="M 63 441 
L 453.6 441 
" style="fill:none;stroke:#000000;stroke-linecap:square;stroke-linejoin:miter;stroke-width:0.8;"/>
   </g>
   <g id="patch_6">
    <path d="M 63 60.48 
L 453.6 60.48 
" style="fill:none;stroke:#000000;stroke-linecap:square;stroke-linejoin:miter;stroke-width:0.8;"/>
   </g>
  </g>
 </g>
 <defs>
  <clipPath id="p0850f9f85b">
   <rect height="380.52" width="390.6" x="63" y="60.48"/>
  </clipPath>
 </defs>
</svg>
