<?xml version="1.0" encoding="utf-8" standalone="no"?>
<!DOCTYPE svg PUBLIC "-//W3C//DTD SVG 1.1//EN"
  "http://www.w3.org/Graphics/SVG/1.1/DTD/svg11.dtd">
<!-- Created with matplotlib (http://matplotlib.org/) -->
<svg height="504pt" version="1.1" viewBox="0 0 504 504" width="504pt" xmlns="http://www.w3.org/2000/svg" xmlns:xlink="http://www.w3.org/1999/xlink">
 <defs>
  <style type="text/css">
*{stroke-linecap:butt;stroke-linejoin:round;}
  </style>
 </defs>
 <g id="figure_1">
  <g id="patch_1">
   <path d="M 0 504 
L 504 504 
L 504 0 
L 0 0 
z
" style="fill:#ffffff;"/>
  </g>
  <g id="axes_1">
   <g id="patch_2">
    <path d="M 63 441 
L 453.6 441 
L 453.6 60.48 
L 63 60.48 
z
" style="fill:#ffffff;"/>
   </g>
   <g id="Quiver_1">
    <path clip-path="url(#p717770878f)" d="M 79.765465 423.308004 
L 88.438931 401.624339 
L 86.065137 401.822155 
L 92.988703 393.118243 
L 91.999622 404.195949 
L 90.417093 402.415603 
L 81.743626 424.099269 
L 79.765465 423.308004 
" style="fill:#ff0000;"/>
    <path clip-path="url(#p717770878f)" d="M 115.229392 423.958871 
L 109.978521 402.681676 
L 108.165267 404.22639 
L 108.715651 393.118243 
L 114.370733 402.69498 
L 112.047009 402.171206 
L 117.297881 423.448401 
L 115.229392 423.958871 
" style="fill:#ff0000;"/>
    <path clip-path="url(#p717770878f)" d="M 150.779151 424.08784 
L 142.409982 402.444631 
L 140.807034 404.206615 
L 139.945723 393.118243 
L 146.76849 401.901391 
L 144.397134 401.676223 
L 152.766303 423.319432 
L 150.779151 424.08784 
" style="fill:#ff0000;"/>
    <path clip-path="url(#p717770878f)" d="M 186.263659 424.016936 
L 179.671865 402.59498 
L 177.948846 404.23974 
L 177.870326 393.118243 
L 184.057804 402.35994 
L 181.708185 401.96838 
L 188.299978 423.390336 
L 186.263659 424.016936 
" style="fill:#ff0000;"/>
    <path clip-path="url(#p717770878f)" d="M 221.738953 423.871545 
L 218.368216 402.753761 
L 216.432212 404.141535 
L 217.908991 393.118243 
L 222.743951 403.134081 
L 220.472129 402.417942 
L 223.842866 423.535727 
L 221.738953 423.871545 
" style="fill:#ff0000;"/>
    <path clip-path="url(#p717770878f)" d="M 257.234727 423.703636 
L 257.234727 402.705697 
L 255.104182 403.77097 
L 258.3 393.118243 
L 261.495818 403.77097 
L 259.365273 402.705697 
L 259.365273 423.703636 
L 257.234727 423.703636 
" style="fill:#ff0000;"/>
    <path clip-path="url(#p717770878f)" d="M 292.757134 423.535727 
L 296.127871 402.417942 
L 293.856049 403.134081 
L 298.691009 393.118243 
L 300.167788 404.141535 
L 298.231784 402.753761 
L 294.861047 423.871545 
L 292.757134 423.535727 
" style="fill:#ff0000;"/>
    <path clip-path="url(#p717770878f)" d="M 328.300022 423.390336 
L 334.891815 401.96838 
L 332.542196 402.35994 
L 338.729674 393.118243 
L 338.651154 404.23974 
L 336.928135 402.59498 
L 330.336341 424.016936 
L 328.300022 423.390336 
" style="fill:#ff0000;"/>
    <path clip-path="url(#p717770878f)" d="M 363.833697 423.319432 
L 372.202866 401.676223 
L 369.83151 401.901391 
L 376.654277 393.118243 
L 375.792966 404.206615 
L 374.190018 402.444631 
L 365.820849 424.08784 
L 363.833697 423.319432 
" style="fill:#ff0000;"/>
    <path clip-path="url(#p717770878f)" d="M 399.302119 423.448401 
L 404.552991 402.171206 
L 402.229267 402.69498 
L 407.884349 393.118243 
L 408.434733 404.22639 
L 406.621479 402.681676 
L 401.370608 423.958871 
L 399.302119 423.448401 
" style="fill:#ff0000;"/>
    <path clip-path="url(#p717770878f)" d="M 434.856374 424.099269 
L 426.182907 402.415603 
L 424.600378 404.195949 
L 423.611297 393.118243 
L 430.534863 401.822155 
L 428.161069 401.624339 
L 436.834535 423.308004 
L 434.856374 424.099269 
" style="fill:#ff0000;"/>
    <path clip-path="url(#p717770878f)" d="M 79.801737 388.634505 
L 87.748254 372.74147 
L 85.366232 372.74147 
L 92.988703 364.642594 
L 91.083085 375.599897 
L 89.653872 373.694279 
L 81.707354 389.587314 
L 79.801737 388.634505 
" style="fill:#ff0000;"/>
    <path clip-path="url(#p717770878f)" d="M 115.245697 389.424923 
L 110.523837 374.118065 
L 108.801972 375.764033 
L 108.715651 364.642594 
L 114.90961 373.879949 
L 112.559717 373.490037 
L 117.281576 388.796895 
L 115.245697 389.424923 
" style="fill:#ff0000;"/>
    <path clip-path="url(#p717770878f)" d="M 150.81362 389.574503 
L 143.158962 373.738153 
L 141.704342 375.624448 
L 139.945723 364.642594 
L 147.458985 372.842884 
L 145.077176 372.810965 
L 152.731834 388.647315 
L 150.81362 389.574503 
" style="fill:#ff0000;"/>
    <path clip-path="url(#p717770878f)" d="M 186.287559 389.493341 
L 180.317954 373.973361 
L 178.711867 375.732484 
L 177.870326 364.642594 
L 184.677423 373.437893 
L 182.306472 373.208497 
L 188.276078 388.728477 
L 186.287559 389.493341 
" style="fill:#ff0000;"/>
    <path clip-path="url(#p717770878f)" d="M 221.746227 389.319344 
L 218.740224 374.253169 
L 216.859294 375.714721 
L 217.908991 364.642594 
L 223.127387 374.464111 
L 220.829588 373.836299 
L 223.835591 388.902474 
L 221.746227 389.319344 
" style="fill:#ff0000;"/>
    <path clip-path="url(#p717770878f)" d="M 257.234727 389.110909 
L 257.234727 374.230049 
L 255.104182 375.295322 
L 258.3 364.642594 
L 261.495818 375.295322 
L 259.365273 374.230049 
L 259.365273 389.110909 
L 257.234727 389.110909 
" style="fill:#ff0000;"/>
    <path clip-path="url(#p717770878f)" d="M 292.764409 388.902474 
L 295.770412 373.836299 
L 293.472613 374.464111 
L 298.691009 364.642594 
L 299.740706 375.714721 
L 297.859776 374.253169 
L 294.853773 389.319344 
L 292.764409 388.902474 
" style="fill:#ff0000;"/>
    <path clip-path="url(#p717770878f)" d="M 328.323922 388.728477 
L 334.293528 373.208497 
L 331.922577 373.437893 
L 338.729674 364.642594 
L 337.888133 375.732484 
L 336.282046 373.973361 
L 330.312441 389.493341 
L 328.323922 388.728477 
" style="fill:#ff0000;"/>
    <path clip-path="url(#p717770878f)" d="M 363.868166 388.647315 
L 371.522824 372.810965 
L 369.141015 372.842884 
L 376.654277 364.642594 
L 374.895658 375.624448 
L 373.441038 373.738153 
L 365.78638 389.574503 
L 363.868166 388.647315 
" style="fill:#ff0000;"/>
    <path clip-path="url(#p717770878f)" d="M 399.318424 388.796895 
L 404.040283 373.490037 
L 401.69039 373.879949 
L 407.884349 364.642594 
L 407.798028 375.764033 
L 406.076163 374.118065 
L 401.354303 389.424923 
L 399.318424 388.796895 
" style="fill:#ff0000;"/>
    <path clip-path="url(#p717770878f)" d="M 434.892646 389.587314 
L 426.946128 373.694279 
L 425.516915 375.599897 
L 423.611297 364.642594 
L 431.233768 372.74147 
L 428.851746 372.74147 
L 436.798263 388.634505 
L 434.892646 389.587314 
" style="fill:#ff0000;"/>
    <path clip-path="url(#p717770878f)" d="M 79.868185 353.927275 
L 86.784179 343.553283 
L 84.420551 343.25783 
L 92.988703 336.166946 
L 89.738714 346.803272 
L 88.5569 344.735097 
L 81.640906 355.109089 
L 79.868185 353.927275 
" style="fill:#ff0000;"/>
    <path clip-path="url(#p717770878f)" d="M 115.278443 354.923398 
L 111.377406 345.438901 
L 109.812236 347.234527 
L 108.715651 336.166946 
L 115.723395 344.803228 
L 113.347792 344.628468 
L 117.24883 354.112965 
L 115.278443 354.923398 
" style="fill:#ff0000;"/>
    <path clip-path="url(#p717770878f)" d="M 150.877304 355.095264 
L 144.244039 344.802834 
L 143.030275 346.852421 
L 139.945723 336.166946 
L 148.402813 343.389928 
L 146.034885 343.64867 
L 152.66815 353.9411 
L 150.877304 355.095264 
" style="fill:#ff0000;"/>
    <path clip-path="url(#p717770878f)" d="M 186.333933 355.004308 
L 181.297577 345.184043 
L 179.887932 347.104181 
L 177.870326 336.166946 
L 185.575246 344.187423 
L 183.193348 344.21179 
L 188.229704 354.032056 
L 186.333933 355.004308 
" style="fill:#ff0000;"/>
    <path clip-path="url(#p717770878f)" d="M 221.761442 354.792048 
L 219.344316 345.70602 
L 217.559246 347.283219 
L 217.908991 336.166946 
L 223.736052 345.640024 
L 221.403251 345.158288 
L 223.820377 354.244316 
L 221.761442 354.792048 
" style="fill:#ff0000;"/>
    <path clip-path="url(#p717770878f)" d="M 257.234727 354.518182 
L 257.234727 345.7544 
L 255.104182 346.819673 
L 258.3 336.166946 
L 261.495818 346.819673 
L 259.365273 345.7544 
L 259.365273 354.518182 
L 257.234727 354.518182 
" style="fill:#ff0000;"/>
    <path clip-path="url(#p717770878f)" d="M 292.779623 354.244316 
L 295.196749 345.158288 
L 292.863948 345.640024 
L 298.691009 336.166946 
L 299.040754 347.283219 
L 297.255684 345.70602 
L 294.838558 354.792048 
L 292.779623 354.244316 
" style="fill:#ff0000;"/>
    <path clip-path="url(#p717770878f)" d="M 328.370296 354.032056 
L 333.406652 344.21179 
L 331.024754 344.187423 
L 338.729674 336.166946 
L 336.712068 347.104181 
L 335.302423 345.184043 
L 330.266067 355.004308 
L 328.370296 354.032056 
" style="fill:#ff0000;"/>
    <path clip-path="url(#p717770878f)" d="M 363.93185 353.9411 
L 370.565115 343.64867 
L 368.197187 343.389928 
L 376.654277 336.166946 
L 373.569725 346.852421 
L 372.355961 344.802834 
L 365.722696 355.095264 
L 363.93185 353.9411 
" style="fill:#ff0000;"/>
    <path clip-path="url(#p717770878f)" d="M 399.35117 354.112965 
L 403.252208 344.628468 
L 400.876605 344.803228 
L 407.884349 336.166946 
L 406.787764 347.234527 
L 405.222594 345.438901 
L 401.321557 354.923398 
L 399.35117 354.112965 
" style="fill:#ff0000;"/>
    <path clip-path="url(#p717770878f)" d="M 434.959094 355.109089 
L 428.0431 344.735097 
L 426.861286 346.803272 
L 423.611297 336.166946 
L 432.179449 343.25783 
L 429.815821 343.553283 
L 436.731815 353.927275 
L 434.959094 355.109089 
" style="fill:#ff0000;"/>
    <path clip-path="url(#p717770878f)" d="M 80.001284 319.172193 
L 85.456087 313.71739 
L 83.196302 312.964128 
L 92.988703 307.691297 
L 87.715872 317.483698 
L 86.96261 315.223913 
L 81.507807 320.678716 
L 80.001284 319.172193 
" style="fill:#ff0000;"/>
    <path clip-path="url(#p717770878f)" d="M 115.357026 320.484797 
L 112.843121 316.410132 
L 111.589243 318.435427 
L 108.715651 307.691297 
L 117.028904 315.079373 
L 114.656341 315.291447 
L 117.170247 319.366112 
L 115.357026 320.484797 
" style="fill:#ff0000;"/>
    <path clip-path="url(#p717770878f)" d="M 151.006829 320.665864 
L 145.843507 315.324791 
L 145.05212 317.571508 
L 139.945723 307.691297 
L 149.64751 313.129053 
L 147.375304 313.843973 
L 152.538626 319.185045 
L 151.006829 320.665864 
" style="fill:#ff0000;"/>
    <path clip-path="url(#p717770878f)" d="M 186.437478 320.574989 
L 182.871794 315.939897 
L 181.832647 318.083307 
L 177.870326 307.691297 
L 186.898691 314.1861 
L 184.560475 314.640828 
L 188.126159 319.27592 
L 186.437478 320.574989 
" style="fill:#ff0000;"/>
    <path clip-path="url(#p717770878f)" d="M 221.801501 320.320268 
L 220.472903 316.990783 
L 218.888901 318.769818 
L 217.908991 307.691297 
L 224.825349 316.400938 
L 222.45172 316.201157 
L 223.780317 319.530641 
L 221.801501 320.320268 
" style="fill:#ff0000;"/>
    <path clip-path="url(#p717770878f)" d="M 257.234727 319.925455 
L 257.234727 317.278752 
L 255.104182 318.344024 
L 258.3 307.691297 
L 261.495818 318.344024 
L 259.365273 317.278752 
L 259.365273 319.925455 
L 257.234727 319.925455 
" style="fill:#ff0000;"/>
    <path clip-path="url(#p717770878f)" d="M 292.819683 319.530641 
L 294.14828 316.201157 
L 291.774651 316.400938 
L 298.691009 307.691297 
L 297.711099 318.769818 
L 296.127097 316.990783 
L 294.798499 320.320268 
L 292.819683 319.530641 
" style="fill:#ff0000;"/>
    <path clip-path="url(#p717770878f)" d="M 328.473841 319.27592 
L 332.039525 314.640828 
L 329.701309 314.1861 
L 338.729674 307.691297 
L 334.767353 318.083307 
L 333.728206 315.939897 
L 330.162522 320.574989 
L 328.473841 319.27592 
" style="fill:#ff0000;"/>
    <path clip-path="url(#p717770878f)" d="M 364.061374 319.185045 
L 369.224696 313.843973 
L 366.95249 313.129053 
L 376.654277 307.691297 
L 371.54788 317.571508 
L 370.756493 315.324791 
L 365.593171 320.665864 
L 364.061374 319.185045 
" style="fill:#ff0000;"/>
    <path clip-path="url(#p717770878f)" d="M 399.429753 319.366112 
L 401.943659 315.291447 
L 399.571096 315.079373 
L 407.884349 307.691297 
L 405.010757 318.435427 
L 403.756879 316.410132 
L 401.242974 320.484797 
L 399.429753 319.366112 
" style="fill:#ff0000;"/>
    <path clip-path="url(#p717770878f)" d="M 435.092193 320.678716 
L 429.63739 315.223913 
L 428.884128 317.483698 
L 423.611297 307.691297 
L 433.403698 312.964128 
L 431.143913 313.71739 
L 436.598716 319.172193 
L 435.092193 320.678716 
" style="fill:#ff0000;"/>
    <path clip-path="url(#p717770878f)" d="M 80.278141 284.379918 
L 83.937018 282.55048 
L 82.031401 281.121266 
L 92.988703 279.215649 
L 84.889827 286.83812 
L 84.889827 284.456097 
L 81.23095 286.285536 
L 80.278141 284.379918 
" style="fill:#ff0000;"/>
    <path clip-path="url(#p717770878f)" d="M 115.651928 286.087526 
L 114.89713 285.475818 
L 114.428513 287.597123 
L 108.715651 279.215649 
L 118.09876 283.068332 
L 116.120546 283.966221 
L 116.875344 284.577929 
L 115.651928 286.087526 
" style="fill:#ff0000;"/>
    <path clip-path="url(#p717770878f)" d="M 151.283338 286.278932 
L 147.972179 284.566358 
L 147.939605 286.948158 
L 139.945723 279.215649 
L 150.875941 281.270927 
L 148.950957 282.673948 
L 152.262117 284.386522 
L 151.283338 286.278932 
" style="fill:#ff0000;"/>
    <path clip-path="url(#p717770878f)" d="M 186.701283 286.225915 
L 185.328483 285.333653 
L 185.060601 287.700564 
L 177.870326 279.215649 
L 188.543812 282.341435 
L 186.489554 283.547276 
L 187.862353 284.439539 
L 186.701283 286.225915 
" style="fill:#ff0000;"/>
    <path clip-path="url(#p717770878f)" d="M 222.179201 285.820919 
L 221.691009 285.209211 
L 220.955785 286.797303 
L 217.908991 279.215649 
L 224.626033 283.868152 
L 222.914425 284.232828 
L 223.402617 284.844535 
L 222.179201 285.820919 
" style="fill:#ff0000;"/>
    <path clip-path="url(#p717770878f)" d="M 257.688292 285.332727 
L 257.688292 284.721019 
L 256.464876 285.332727 
L 258.3 279.215649 
L 260.135124 285.332727 
L 258.911708 284.721019 
L 258.911708 285.332727 
L 257.688292 285.332727 
" style="fill:#ff0000;"/>
    <path clip-path="url(#p717770878f)" d="M 293.197383 284.844535 
L 293.685575 284.232828 
L 291.973967 283.868152 
L 298.691009 279.215649 
L 295.644215 286.797303 
L 294.908991 285.209211 
L 294.420799 285.820919 
L 293.197383 284.844535 
" style="fill:#ff0000;"/>
    <path clip-path="url(#p717770878f)" d="M 328.737647 284.439539 
L 330.110446 283.547276 
L 328.056188 282.341435 
L 338.729674 279.215649 
L 331.539399 287.700564 
L 331.271517 285.333653 
L 329.898717 286.225915 
L 328.737647 284.439539 
" style="fill:#ff0000;"/>
    <path clip-path="url(#p717770878f)" d="M 364.337883 284.386522 
L 367.649043 282.673948 
L 365.724059 281.270927 
L 376.654277 279.215649 
L 368.660395 286.948158 
L 368.627821 284.566358 
L 365.316662 286.278932 
L 364.337883 284.386522 
" style="fill:#ff0000;"/>
    <path clip-path="url(#p717770878f)" d="M 399.724656 284.577929 
L 400.479454 283.966221 
L 398.50124 283.068332 
L 407.884349 279.215649 
L 402.171487 287.597123 
L 401.70287 285.475818 
L 400.948072 286.087526 
L 399.724656 284.577929 
" style="fill:#ff0000;"/>
    <path clip-path="url(#p717770878f)" d="M 435.36905 286.285536 
L 431.710173 284.456097 
L 431.710173 286.83812 
L 423.611297 279.215649 
L 434.568599 281.121266 
L 432.662982 282.55048 
L 436.321859 284.379918 
L 435.36905 286.285536 
" style="fill:#ff0000;"/>
    <path clip-path="url(#p717770878f)" d="M 80.754545 249.674727 
L 83.401248 249.674727 
L 82.335976 247.544182 
L 92.988703 250.74 
L 82.335976 253.935818 
L 83.401248 251.805273 
L 80.754545 251.805273 
L 80.754545 249.674727 
" style="fill:#ff0000;"/>
    <path clip-path="url(#p717770878f)" d="M 116.263636 251.494799 
L 115.508838 251.494799 
L 116.263636 253.004396 
L 108.715651 250.74 
L 116.263636 248.475604 
L 115.508838 249.985201 
L 116.263636 249.985201 
L 116.263636 251.494799 
" style="fill:#ff0000;"/>
    <path clip-path="url(#p717770878f)" d="M 151.772727 251.805273 
L 149.533177 251.805273 
L 150.59845 253.935818 
L 139.945723 250.74 
L 150.59845 247.544182 
L 149.533177 249.674727 
L 151.772727 249.674727 
L 151.772727 251.805273 
" style="fill:#ff0000;"/>
    <path clip-path="url(#p717770878f)" d="M 187.281818 251.681149 
L 186.340669 251.681149 
L 187.281818 253.563448 
L 177.870326 250.74 
L 187.281818 247.916552 
L 186.340669 249.798851 
L 187.281818 249.798851 
L 187.281818 251.681149 
" style="fill:#ff0000;"/>
    <path clip-path="url(#p717770878f)" d="M 222.790909 251.228192 
L 222.302717 251.228192 
L 222.790909 252.204575 
L 217.908991 250.74 
L 222.790909 249.275425 
L 222.302717 250.251808 
L 222.790909 250.251808 
L 222.790909 251.228192 
" style="fill:#ff0000;"/>
    <path clip-path="url(#p717770878f)" d="M 257.234727 250.74 
L 257.767364 251.662553 
L 258.832636 251.662553 
L 259.365273 250.74 
L 258.832636 249.817447 
L 257.767364 249.817447 
L 257.234727 250.74 
L 257.767364 251.662553 
" style="fill:#ff0000;"/>
    <path clip-path="url(#p717770878f)" d="M 293.809091 250.251808 
L 294.297283 250.251808 
L 293.809091 249.275425 
L 298.691009 250.74 
L 293.809091 252.204575 
L 294.297283 251.228192 
L 293.809091 251.228192 
L 293.809091 250.251808 
" style="fill:#ff0000;"/>
    <path clip-path="url(#p717770878f)" d="M 329.318182 249.798851 
L 330.259331 249.798851 
L 329.318182 247.916552 
L 338.729674 250.74 
L 329.318182 253.563448 
L 330.259331 251.681149 
L 329.318182 251.681149 
L 329.318182 249.798851 
" style="fill:#ff0000;"/>
    <path clip-path="url(#p717770878f)" d="M 364.827273 249.674727 
L 367.066823 249.674727 
L 366.00155 247.544182 
L 376.654277 250.74 
L 366.00155 253.935818 
L 367.066823 251.805273 
L 364.827273 251.805273 
L 364.827273 249.674727 
" style="fill:#ff0000;"/>
    <path clip-path="url(#p717770878f)" d="M 400.336364 249.985201 
L 401.091162 249.985201 
L 400.336364 248.475604 
L 407.884349 250.74 
L 400.336364 253.004396 
L 401.091162 251.494799 
L 400.336364 251.494799 
L 400.336364 249.985201 
" style="fill:#ff0000;"/>
    <path clip-path="url(#p717770878f)" d="M 435.845455 251.805273 
L 433.198752 251.805273 
L 434.264024 253.935818 
L 423.611297 250.74 
L 434.264024 247.544182 
L 433.198752 249.674727 
L 435.845455 249.674727 
L 435.845455 251.805273 
" style="fill:#ff0000;"/>
    <path clip-path="url(#p717770878f)" d="M 81.23095 215.194464 
L 84.889827 217.023903 
L 84.889827 214.64188 
L 92.988703 222.264351 
L 82.031401 220.358734 
L 83.937018 218.92952 
L 80.278141 217.100082 
L 81.23095 215.194464 
" style="fill:#ff0000;"/>
    <path clip-path="url(#p717770878f)" d="M 116.875344 216.902071 
L 116.120546 217.513779 
L 118.09876 218.411668 
L 108.715651 222.264351 
L 114.428513 213.882877 
L 114.89713 216.004182 
L 115.651928 215.392474 
L 116.875344 216.902071 
" style="fill:#ff0000;"/>
    <path clip-path="url(#p717770878f)" d="M 152.262117 217.093478 
L 148.950957 218.806052 
L 150.875941 220.209073 
L 139.945723 222.264351 
L 147.939605 214.531842 
L 147.972179 216.913642 
L 151.283338 215.201068 
L 152.262117 217.093478 
" style="fill:#ff0000;"/>
    <path clip-path="url(#p717770878f)" d="M 187.862353 217.040461 
L 186.489554 217.932724 
L 188.543812 219.138565 
L 177.870326 222.264351 
L 185.060601 213.779436 
L 185.328483 216.146347 
L 186.701283 215.254085 
L 187.862353 217.040461 
" style="fill:#ff0000;"/>
    <path clip-path="url(#p717770878f)" d="M 223.402617 216.635465 
L 222.914425 217.247172 
L 224.626033 217.611848 
L 217.908991 222.264351 
L 220.955785 214.682697 
L 221.691009 216.270789 
L 222.179201 215.659081 
L 223.402617 216.635465 
" style="fill:#ff0000;"/>
    <path clip-path="url(#p717770878f)" d="M 258.911708 216.147273 
L 258.911708 216.758981 
L 260.135124 216.147273 
L 258.3 222.264351 
L 256.464876 216.147273 
L 257.688292 216.758981 
L 257.688292 216.147273 
L 258.911708 216.147273 
" style="fill:#ff0000;"/>
    <path clip-path="url(#p717770878f)" d="M 294.420799 215.659081 
L 294.908991 216.270789 
L 295.644215 214.682697 
L 298.691009 222.264351 
L 291.973967 217.611848 
L 293.685575 217.247172 
L 293.197383 216.635465 
L 294.420799 215.659081 
" style="fill:#ff0000;"/>
    <path clip-path="url(#p717770878f)" d="M 329.898717 215.254085 
L 331.271517 216.146347 
L 331.539399 213.779436 
L 338.729674 222.264351 
L 328.056188 219.138565 
L 330.110446 217.932724 
L 328.737647 217.040461 
L 329.898717 215.254085 
" style="fill:#ff0000;"/>
    <path clip-path="url(#p717770878f)" d="M 365.316662 215.201068 
L 368.627821 216.913642 
L 368.660395 214.531842 
L 376.654277 222.264351 
L 365.724059 220.209073 
L 367.649043 218.806052 
L 364.337883 217.093478 
L 365.316662 215.201068 
" style="fill:#ff0000;"/>
    <path clip-path="url(#p717770878f)" d="M 400.948072 215.392474 
L 401.70287 216.004182 
L 402.171487 213.882877 
L 407.884349 222.264351 
L 398.50124 218.411668 
L 400.479454 217.513779 
L 399.724656 216.902071 
L 400.948072 215.392474 
" style="fill:#ff0000;"/>
    <path clip-path="url(#p717770878f)" d="M 436.321859 217.100082 
L 432.662982 218.92952 
L 434.568599 220.358734 
L 423.611297 222.264351 
L 431.710173 214.64188 
L 431.710173 217.023903 
L 435.36905 215.194464 
L 436.321859 217.100082 
" style="fill:#ff0000;"/>
    <path clip-path="url(#p717770878f)" d="M 81.507807 180.801284 
L 86.96261 186.256087 
L 87.715872 183.996302 
L 92.988703 193.788703 
L 83.196302 188.515872 
L 85.456087 187.76261 
L 80.001284 182.307807 
L 81.507807 180.801284 
" style="fill:#ff0000;"/>
    <path clip-path="url(#p717770878f)" d="M 117.170247 182.113888 
L 114.656341 186.188553 
L 117.028904 186.400627 
L 108.715651 193.788703 
L 111.589243 183.044573 
L 112.843121 185.069868 
L 115.357026 180.995203 
L 117.170247 182.113888 
" style="fill:#ff0000;"/>
    <path clip-path="url(#p717770878f)" d="M 152.538626 182.294955 
L 147.375304 187.636027 
L 149.64751 188.350947 
L 139.945723 193.788703 
L 145.05212 183.908492 
L 145.843507 186.155209 
L 151.006829 180.814136 
L 152.538626 182.294955 
" style="fill:#ff0000;"/>
    <path clip-path="url(#p717770878f)" d="M 188.126159 182.20408 
L 184.560475 186.839172 
L 186.898691 187.2939 
L 177.870326 193.788703 
L 181.832647 183.396693 
L 182.871794 185.540103 
L 186.437478 180.905011 
L 188.126159 182.20408 
" style="fill:#ff0000;"/>
    <path clip-path="url(#p717770878f)" d="M 223.780317 181.949359 
L 222.45172 185.278843 
L 224.825349 185.079062 
L 217.908991 193.788703 
L 218.888901 182.710182 
L 220.472903 184.489217 
L 221.801501 181.159732 
L 223.780317 181.949359 
" style="fill:#ff0000;"/>
    <path clip-path="url(#p717770878f)" d="M 259.365273 181.554545 
L 259.365273 184.201248 
L 261.495818 183.135976 
L 258.3 193.788703 
L 255.104182 183.135976 
L 257.234727 184.201248 
L 257.234727 181.554545 
L 259.365273 181.554545 
" style="fill:#ff0000;"/>
    <path clip-path="url(#p717770878f)" d="M 294.798499 181.159732 
L 296.127097 184.489217 
L 297.711099 182.710182 
L 298.691009 193.788703 
L 291.774651 185.079062 
L 294.14828 185.278843 
L 292.819683 181.949359 
L 294.798499 181.159732 
" style="fill:#ff0000;"/>
    <path clip-path="url(#p717770878f)" d="M 330.162522 180.905011 
L 333.728206 185.540103 
L 334.767353 183.396693 
L 338.729674 193.788703 
L 329.701309 187.2939 
L 332.039525 186.839172 
L 328.473841 182.20408 
L 330.162522 180.905011 
" style="fill:#ff0000;"/>
    <path clip-path="url(#p717770878f)" d="M 365.593171 180.814136 
L 370.756493 186.155209 
L 371.54788 183.908492 
L 376.654277 193.788703 
L 366.95249 188.350947 
L 369.224696 187.636027 
L 364.061374 182.294955 
L 365.593171 180.814136 
" style="fill:#ff0000;"/>
    <path clip-path="url(#p717770878f)" d="M 401.242974 180.995203 
L 403.756879 185.069868 
L 405.010757 183.044573 
L 407.884349 193.788703 
L 399.571096 186.400627 
L 401.943659 186.188553 
L 399.429753 182.113888 
L 401.242974 180.995203 
" style="fill:#ff0000;"/>
    <path clip-path="url(#p717770878f)" d="M 436.598716 182.307807 
L 431.143913 187.76261 
L 433.403698 188.515872 
L 423.611297 193.788703 
L 428.884128 183.996302 
L 429.63739 186.256087 
L 435.092193 180.801284 
L 436.598716 182.307807 
" style="fill:#ff0000;"/>
    <path clip-path="url(#p717770878f)" d="M 81.640906 146.370911 
L 88.5569 156.744903 
L 89.738714 154.676728 
L 92.988703 165.313054 
L 84.420551 158.22217 
L 86.784179 157.926717 
L 79.868185 147.552725 
L 81.640906 146.370911 
" style="fill:#ff0000;"/>
    <path clip-path="url(#p717770878f)" d="M 117.24883 147.367035 
L 113.347792 156.851532 
L 115.723395 156.676772 
L 108.715651 165.313054 
L 109.812236 154.245473 
L 111.377406 156.041099 
L 115.278443 146.556602 
L 117.24883 147.367035 
" style="fill:#ff0000;"/>
    <path clip-path="url(#p717770878f)" d="M 152.66815 147.5389 
L 146.034885 157.83133 
L 148.402813 158.090072 
L 139.945723 165.313054 
L 143.030275 154.627579 
L 144.244039 156.677166 
L 150.877304 146.384736 
L 152.66815 147.5389 
" style="fill:#ff0000;"/>
    <path clip-path="url(#p717770878f)" d="M 188.229704 147.447944 
L 183.193348 157.26821 
L 185.575246 157.292577 
L 177.870326 165.313054 
L 179.887932 154.375819 
L 181.297577 156.295957 
L 186.333933 146.475692 
L 188.229704 147.447944 
" style="fill:#ff0000;"/>
    <path clip-path="url(#p717770878f)" d="M 223.820377 147.235684 
L 221.403251 156.321712 
L 223.736052 155.839976 
L 217.908991 165.313054 
L 217.559246 154.196781 
L 219.344316 155.77398 
L 221.761442 146.687952 
L 223.820377 147.235684 
" style="fill:#ff0000;"/>
    <path clip-path="url(#p717770878f)" d="M 259.365273 146.961818 
L 259.365273 155.7256 
L 261.495818 154.660327 
L 258.3 165.313054 
L 255.104182 154.660327 
L 257.234727 155.7256 
L 257.234727 146.961818 
L 259.365273 146.961818 
" style="fill:#ff0000;"/>
    <path clip-path="url(#p717770878f)" d="M 294.838558 146.687952 
L 297.255684 155.77398 
L 299.040754 154.196781 
L 298.691009 165.313054 
L 292.863948 155.839976 
L 295.196749 156.321712 
L 292.779623 147.235684 
L 294.838558 146.687952 
" style="fill:#ff0000;"/>
    <path clip-path="url(#p717770878f)" d="M 330.266067 146.475692 
L 335.302423 156.295957 
L 336.712068 154.375819 
L 338.729674 165.313054 
L 331.024754 157.292577 
L 333.406652 157.26821 
L 328.370296 147.447944 
L 330.266067 146.475692 
" style="fill:#ff0000;"/>
    <path clip-path="url(#p717770878f)" d="M 365.722696 146.384736 
L 372.355961 156.677166 
L 373.569725 154.627579 
L 376.654277 165.313054 
L 368.197187 158.090072 
L 370.565115 157.83133 
L 363.93185 147.5389 
L 365.722696 146.384736 
" style="fill:#ff0000;"/>
    <path clip-path="url(#p717770878f)" d="M 401.321557 146.556602 
L 405.222594 156.041099 
L 406.787764 154.245473 
L 407.884349 165.313054 
L 400.876605 156.676772 
L 403.252208 156.851532 
L 399.35117 147.367035 
L 401.321557 146.556602 
" style="fill:#ff0000;"/>
    <path clip-path="url(#p717770878f)" d="M 436.731815 147.552725 
L 429.815821 157.926717 
L 432.179449 158.22217 
L 423.611297 165.313054 
L 426.861286 154.676728 
L 428.0431 156.744903 
L 434.959094 146.370911 
L 436.731815 147.552725 
" style="fill:#ff0000;"/>
    <path clip-path="url(#p717770878f)" d="M 81.707354 111.892686 
L 89.653872 127.785721 
L 91.083085 125.880103 
L 92.988703 136.837406 
L 85.366232 128.73853 
L 87.748254 128.73853 
L 79.801737 112.845495 
L 81.707354 111.892686 
" style="fill:#ff0000;"/>
    <path clip-path="url(#p717770878f)" d="M 117.281576 112.683105 
L 112.559717 127.989963 
L 114.90961 127.600051 
L 108.715651 136.837406 
L 108.801972 125.715967 
L 110.523837 127.361935 
L 115.245697 112.055077 
L 117.281576 112.683105 
" style="fill:#ff0000;"/>
    <path clip-path="url(#p717770878f)" d="M 152.731834 112.832685 
L 145.077176 128.669035 
L 147.458985 128.637116 
L 139.945723 136.837406 
L 141.704342 125.855552 
L 143.158962 127.741847 
L 150.81362 111.905497 
L 152.731834 112.832685 
" style="fill:#ff0000;"/>
    <path clip-path="url(#p717770878f)" d="M 188.276078 112.751523 
L 182.306472 128.271503 
L 184.677423 128.042107 
L 177.870326 136.837406 
L 178.711867 125.747516 
L 180.317954 127.506639 
L 186.287559 111.986659 
L 188.276078 112.751523 
" style="fill:#ff0000;"/>
    <path clip-path="url(#p717770878f)" d="M 223.835591 112.577526 
L 220.829588 127.643701 
L 223.127387 127.015889 
L 217.908991 136.837406 
L 216.859294 125.765279 
L 218.740224 127.226831 
L 221.746227 112.160656 
L 223.835591 112.577526 
" style="fill:#ff0000;"/>
    <path clip-path="url(#p717770878f)" d="M 259.365273 112.369091 
L 259.365273 127.249951 
L 261.495818 126.184678 
L 258.3 136.837406 
L 255.104182 126.184678 
L 257.234727 127.249951 
L 257.234727 112.369091 
L 259.365273 112.369091 
" style="fill:#ff0000;"/>
    <path clip-path="url(#p717770878f)" d="M 294.853773 112.160656 
L 297.859776 127.226831 
L 299.740706 125.765279 
L 298.691009 136.837406 
L 293.472613 127.015889 
L 295.770412 127.643701 
L 292.764409 112.577526 
L 294.853773 112.160656 
" style="fill:#ff0000;"/>
    <path clip-path="url(#p717770878f)" d="M 330.312441 111.986659 
L 336.282046 127.506639 
L 337.888133 125.747516 
L 338.729674 136.837406 
L 331.922577 128.042107 
L 334.293528 128.271503 
L 328.323922 112.751523 
L 330.312441 111.986659 
" style="fill:#ff0000;"/>
    <path clip-path="url(#p717770878f)" d="M 365.78638 111.905497 
L 373.441038 127.741847 
L 374.895658 125.855552 
L 376.654277 136.837406 
L 369.141015 128.637116 
L 371.522824 128.669035 
L 363.868166 112.832685 
L 365.78638 111.905497 
" style="fill:#ff0000;"/>
    <path clip-path="url(#p717770878f)" d="M 401.354303 112.055077 
L 406.076163 127.361935 
L 407.798028 125.715967 
L 407.884349 136.837406 
L 401.69039 127.600051 
L 404.040283 127.989963 
L 399.318424 112.683105 
L 401.354303 112.055077 
" style="fill:#ff0000;"/>
    <path clip-path="url(#p717770878f)" d="M 436.798263 112.845495 
L 428.851746 128.73853 
L 431.233768 128.73853 
L 423.611297 136.837406 
L 425.516915 125.880103 
L 426.946128 127.785721 
L 434.892646 111.892686 
L 436.798263 112.845495 
" style="fill:#ff0000;"/>
    <path clip-path="url(#p717770878f)" d="M 81.743626 77.380731 
L 90.417093 99.064397 
L 91.999622 97.284051 
L 92.988703 108.361757 
L 86.065137 99.657845 
L 88.438931 99.855661 
L 79.765465 78.171996 
L 81.743626 77.380731 
" style="fill:#ff0000;"/>
    <path clip-path="url(#p717770878f)" d="M 117.297881 78.031599 
L 112.047009 99.308794 
L 114.370733 98.78502 
L 108.715651 108.361757 
L 108.165267 97.25361 
L 109.978521 98.798324 
L 115.229392 77.521129 
L 117.297881 78.031599 
" style="fill:#ff0000;"/>
    <path clip-path="url(#p717770878f)" d="M 152.766303 78.160568 
L 144.397134 99.803777 
L 146.76849 99.578609 
L 139.945723 108.361757 
L 140.807034 97.273385 
L 142.409982 99.035369 
L 150.779151 77.39216 
L 152.766303 78.160568 
" style="fill:#ff0000;"/>
    <path clip-path="url(#p717770878f)" d="M 188.299978 78.089664 
L 181.708185 99.51162 
L 184.057804 99.12006 
L 177.870326 108.361757 
L 177.948846 97.24026 
L 179.671865 98.88502 
L 186.263659 77.463064 
L 188.299978 78.089664 
" style="fill:#ff0000;"/>
    <path clip-path="url(#p717770878f)" d="M 223.842866 77.944273 
L 220.472129 99.062058 
L 222.743951 98.345919 
L 217.908991 108.361757 
L 216.432212 97.338465 
L 218.368216 98.726239 
L 221.738953 77.608455 
L 223.842866 77.944273 
" style="fill:#ff0000;"/>
    <path clip-path="url(#p717770878f)" d="M 259.365273 77.776364 
L 259.365273 98.774303 
L 261.495818 97.70903 
L 258.3 108.361757 
L 255.104182 97.70903 
L 257.234727 98.774303 
L 257.234727 77.776364 
L 259.365273 77.776364 
" style="fill:#ff0000;"/>
    <path clip-path="url(#p717770878f)" d="M 294.861047 77.608455 
L 298.231784 98.726239 
L 300.167788 97.338465 
L 298.691009 108.361757 
L 293.856049 98.345919 
L 296.127871 99.062058 
L 292.757134 77.944273 
L 294.861047 77.608455 
" style="fill:#ff0000;"/>
    <path clip-path="url(#p717770878f)" d="M 330.336341 77.463064 
L 336.928135 98.88502 
L 338.651154 97.24026 
L 338.729674 108.361757 
L 332.542196 99.12006 
L 334.891815 99.51162 
L 328.300022 78.089664 
L 330.336341 77.463064 
" style="fill:#ff0000;"/>
    <path clip-path="url(#p717770878f)" d="M 365.820849 77.39216 
L 374.190018 99.035369 
L 375.792966 97.273385 
L 376.654277 108.361757 
L 369.83151 99.578609 
L 372.202866 99.803777 
L 363.833697 78.160568 
L 365.820849 77.39216 
" style="fill:#ff0000;"/>
    <path clip-path="url(#p717770878f)" d="M 401.370608 77.521129 
L 406.621479 98.798324 
L 408.434733 97.25361 
L 407.884349 108.361757 
L 402.229267 98.78502 
L 404.552991 99.308794 
L 399.302119 78.031599 
L 401.370608 77.521129 
" style="fill:#ff0000;"/>
    <path clip-path="url(#p717770878f)" d="M 436.834535 78.171996 
L 428.161069 99.855661 
L 430.534863 99.657845 
L 423.611297 108.361757 
L 424.600378 97.284051 
L 426.182907 99.064397 
L 434.856374 77.380731 
L 436.834535 78.171996 
" style="fill:#ff0000;"/>
   </g>
   <g id="PathCollection_1">
    <defs>
     <path d="M 0 6.123724 
C 1.624031 6.123724 3.181764 5.47849 4.330127 4.330127 
C 5.47849 3.181764 6.123724 1.624031 6.123724 0 
C 6.123724 -1.624031 5.47849 -3.181764 4.330127 -4.330127 
C 3.181764 -5.47849 1.624031 -6.123724 0 -6.123724 
C -1.624031 -6.123724 -3.181764 -5.47849 -4.330127 -4.330127 
C -5.47849 -3.181764 -6.123724 -1.624031 -6.123724 0 
C -6.123724 1.624031 -5.47849 3.181764 -4.330127 4.330127 
C -3.181764 5.47849 -1.624031 6.123724 0 6.123724 
z
" id="mdb3c0dcd5e" style="stroke:#000000;"/>
    </defs>
    <g clip-path="url(#p717770878f)">
     <use style="stroke:#000000;" x="97.976455" xlink:href="#mdb3c0dcd5e" y="250.74"/>
     <use style="stroke:#000000;" x="418.623545" xlink:href="#mdb3c0dcd5e" y="250.74"/>
    </g>
   </g>
   <g id="matplotlib.axis_1">
    <g id="xtick_1">
     <g id="line2d_1">
      <defs>
       <path d="M 0 0 
L 0 3.5 
" id="m2a139b2811" style="stroke:#000000;stroke-width:0.8;"/>
      </defs>
      <g>
       <use style="stroke:#000000;stroke-width:0.8;" x="80.754545" xlink:href="#m2a139b2811" y="441"/>
      </g>
     </g>
     <g id="text_1">
      <!-- −1.00 -->
      <defs>
       <path d="M 10.59375 35.5 
L 73.1875 35.5 
L 73.1875 27.203125 
L 10.59375 27.203125 
z
" id="DejaVuSans-2212"/>
       <path d="M 12.40625 8.296875 
L 28.515625 8.296875 
L 28.515625 63.921875 
L 10.984375 60.40625 
L 10.984375 69.390625 
L 28.421875 72.90625 
L 38.28125 72.90625 
L 38.28125 8.296875 
L 54.390625 8.296875 
L 54.390625 0 
L 12.40625 0 
z
" id="DejaVuSans-31"/>
       <path d="M 10.6875 12.40625 
L 21 12.40625 
L 21 0 
L 10.6875 0 
z
" id="DejaVuSans-2e"/>
       <path d="M 31.78125 66.40625 
Q 24.171875 66.40625 20.328125 58.90625 
Q 16.5 51.421875 16.5 36.375 
Q 16.5 21.390625 20.328125 13.890625 
Q 24.171875 6.390625 31.78125 6.390625 
Q 39.453125 6.390625 43.28125 13.890625 
Q 47.125 21.390625 47.125 36.375 
Q 47.125 51.421875 43.28125 58.90625 
Q 39.453125 66.40625 31.78125 66.40625 
z
M 31.78125 74.21875 
Q 44.046875 74.21875 50.515625 64.515625 
Q 56.984375 54.828125 56.984375 36.375 
Q 56.984375 17.96875 50.515625 8.265625 
Q 44.046875 -1.421875 31.78125 -1.421875 
Q 19.53125 -1.421875 13.0625 8.265625 
Q 6.59375 17.96875 6.59375 36.375 
Q 6.59375 54.828125 13.0625 64.515625 
Q 19.53125 74.21875 31.78125 74.21875 
z
" id="DejaVuSans-30"/>
      </defs>
      <g transform="translate(65.431889 455.598437)scale(0.1 -0.1)">
       <use xlink:href="#DejaVuSans-2212"/>
       <use x="83.789062" xlink:href="#DejaVuSans-31"/>
       <use x="147.412109" xlink:href="#DejaVuSans-2e"/>
       <use x="179.199219" xlink:href="#DejaVuSans-30"/>
       <use x="242.822266" xlink:href="#DejaVuSans-30"/>
      </g>
     </g>
    </g>
    <g id="xtick_2">
     <g id="line2d_2">
      <g>
       <use style="stroke:#000000;stroke-width:0.8;" x="125.140909" xlink:href="#m2a139b2811" y="441"/>
      </g>
     </g>
     <g id="text_2">
      <!-- −0.75 -->
      <defs>
       <path d="M 8.203125 72.90625 
L 55.078125 72.90625 
L 55.078125 68.703125 
L 28.609375 0 
L 18.3125 0 
L 43.21875 64.59375 
L 8.203125 64.59375 
z
" id="DejaVuSans-37"/>
       <path d="M 10.796875 72.90625 
L 49.515625 72.90625 
L 49.515625 64.59375 
L 19.828125 64.59375 
L 19.828125 46.734375 
Q 21.96875 47.46875 24.109375 47.828125 
Q 26.265625 48.1875 28.421875 48.1875 
Q 40.625 48.1875 47.75 41.5 
Q 54.890625 34.8125 54.890625 23.390625 
Q 54.890625 11.625 47.5625 5.09375 
Q 40.234375 -1.421875 26.90625 -1.421875 
Q 22.3125 -1.421875 17.546875 -0.640625 
Q 12.796875 0.140625 7.71875 1.703125 
L 7.71875 11.625 
Q 12.109375 9.234375 16.796875 8.0625 
Q 21.484375 6.890625 26.703125 6.890625 
Q 35.15625 6.890625 40.078125 11.328125 
Q 45.015625 15.765625 45.015625 23.390625 
Q 45.015625 31 40.078125 35.4375 
Q 35.15625 39.890625 26.703125 39.890625 
Q 22.75 39.890625 18.8125 39.015625 
Q 14.890625 38.140625 10.796875 36.28125 
z
" id="DejaVuSans-35"/>
      </defs>
      <g transform="translate(109.818253 455.598437)scale(0.1 -0.1)">
       <use xlink:href="#DejaVuSans-2212"/>
       <use x="83.789062" xlink:href="#DejaVuSans-30"/>
       <use x="147.412109" xlink:href="#DejaVuSans-2e"/>
       <use x="179.199219" xlink:href="#DejaVuSans-37"/>
       <use x="242.822266" xlink:href="#DejaVuSans-35"/>
      </g>
     </g>
    </g>
    <g id="xtick_3">
     <g id="line2d_3">
      <g>
       <use style="stroke:#000000;stroke-width:0.8;" x="169.527273" xlink:href="#m2a139b2811" y="441"/>
      </g>
     </g>
     <g id="text_3">
      <!-- −0.50 -->
      <g transform="translate(154.204616 455.598437)scale(0.1 -0.1)">
       <use xlink:href="#DejaVuSans-2212"/>
       <use x="83.789062" xlink:href="#DejaVuSans-30"/>
       <use x="147.412109" xlink:href="#DejaVuSans-2e"/>
       <use x="179.199219" xlink:href="#DejaVuSans-35"/>
       <use x="242.822266" xlink:href="#DejaVuSans-30"/>
      </g>
     </g>
    </g>
    <g id="xtick_4">
     <g id="line2d_4">
      <g>
       <use style="stroke:#000000;stroke-width:0.8;" x="213.913636" xlink:href="#m2a139b2811" y="441"/>
      </g>
     </g>
     <g id="text_4">
      <!-- −0.25 -->
      <defs>
       <path d="M 19.1875 8.296875 
L 53.609375 8.296875 
L 53.609375 0 
L 7.328125 0 
L 7.328125 8.296875 
Q 12.9375 14.109375 22.625 23.890625 
Q 32.328125 33.6875 34.8125 36.53125 
Q 39.546875 41.84375 41.421875 45.53125 
Q 43.3125 49.21875 43.3125 52.78125 
Q 43.3125 58.59375 39.234375 62.25 
Q 35.15625 65.921875 28.609375 65.921875 
Q 23.96875 65.921875 18.8125 64.3125 
Q 13.671875 62.703125 7.8125 59.421875 
L 7.8125 69.390625 
Q 13.765625 71.78125 18.9375 73 
Q 24.125 74.21875 28.421875 74.21875 
Q 39.75 74.21875 46.484375 68.546875 
Q 53.21875 62.890625 53.21875 53.421875 
Q 53.21875 48.921875 51.53125 44.890625 
Q 49.859375 40.875 45.40625 35.40625 
Q 44.1875 33.984375 37.640625 27.21875 
Q 31.109375 20.453125 19.1875 8.296875 
z
" id="DejaVuSans-32"/>
      </defs>
      <g transform="translate(198.59098 455.598437)scale(0.1 -0.1)">
       <use xlink:href="#DejaVuSans-2212"/>
       <use x="83.789062" xlink:href="#DejaVuSans-30"/>
       <use x="147.412109" xlink:href="#DejaVuSans-2e"/>
       <use x="179.199219" xlink:href="#DejaVuSans-32"/>
       <use x="242.822266" xlink:href="#DejaVuSans-35"/>
      </g>
     </g>
    </g>
    <g id="xtick_5">
     <g id="line2d_5">
      <g>
       <use style="stroke:#000000;stroke-width:0.8;" x="258.3" xlink:href="#m2a139b2811" y="441"/>
      </g>
     </g>
     <g id="text_5">
      <!-- 0.00 -->
      <g transform="translate(247.167188 455.598437)scale(0.1 -0.1)">
       <use xlink:href="#DejaVuSans-30"/>
       <use x="63.623047" xlink:href="#DejaVuSans-2e"/>
       <use x="95.410156" xlink:href="#DejaVuSans-30"/>
       <use x="159.033203" xlink:href="#DejaVuSans-30"/>
      </g>
     </g>
    </g>
    <g id="xtick_6">
     <g id="line2d_6">
      <g>
       <use style="stroke:#000000;stroke-width:0.8;" x="302.686364" xlink:href="#m2a139b2811" y="441"/>
      </g>
     </g>
     <g id="text_6">
      <!-- 0.25 -->
      <g transform="translate(291.553551 455.598437)scale(0.1 -0.1)">
       <use xlink:href="#DejaVuSans-30"/>
       <use x="63.623047" xlink:href="#DejaVuSans-2e"/>
       <use x="95.410156" xlink:href="#DejaVuSans-32"/>
       <use x="159.033203" xlink:href="#DejaVuSans-35"/>
      </g>
     </g>
    </g>
    <g id="xtick_7">
     <g id="line2d_7">
      <g>
       <use style="stroke:#000000;stroke-width:0.8;" x="347.072727" xlink:href="#m2a139b2811" y="441"/>
      </g>
     </g>
     <g id="text_7">
      <!-- 0.50 -->
      <g transform="translate(335.939915 455.598437)scale(0.1 -0.1)">
       <use xlink:href="#DejaVuSans-30"/>
       <use x="63.623047" xlink:href="#DejaVuSans-2e"/>
       <use x="95.410156" xlink:href="#DejaVuSans-35"/>
       <use x="159.033203" xlink:href="#DejaVuSans-30"/>
      </g>
     </g>
    </g>
    <g id="xtick_8">
     <g id="line2d_8">
      <g>
       <use style="stroke:#000000;stroke-width:0.8;" x="391.459091" xlink:href="#m2a139b2811" y="441"/>
      </g>
     </g>
     <g id="text_8">
      <!-- 0.75 -->
      <g transform="translate(380.326278 455.598437)scale(0.1 -0.1)">
       <use xlink:href="#DejaVuSans-30"/>
       <use x="63.623047" xlink:href="#DejaVuSans-2e"/>
       <use x="95.410156" xlink:href="#DejaVuSans-37"/>
       <use x="159.033203" xlink:href="#DejaVuSans-35"/>
      </g>
     </g>
    </g>
    <g id="xtick_9">
     <g id="line2d_9">
      <g>
       <use style="stroke:#000000;stroke-width:0.8;" x="435.845455" xlink:href="#m2a139b2811" y="441"/>
      </g>
     </g>
     <g id="text_9">
      <!-- 1.00 -->
      <g transform="translate(424.712642 455.598437)scale(0.1 -0.1)">
       <use xlink:href="#DejaVuSans-31"/>
       <use x="63.623047" xlink:href="#DejaVuSans-2e"/>
       <use x="95.410156" xlink:href="#DejaVuSans-30"/>
       <use x="159.033203" xlink:href="#DejaVuSans-30"/>
      </g>
     </g>
    </g>
   </g>
   <g id="matplotlib.axis_2">
    <g id="ytick_1">
     <g id="line2d_10">
      <defs>
       <path d="M 0 0 
L -3.5 0 
" id="m07d7939763" style="stroke:#000000;stroke-width:0.8;"/>
      </defs>
      <g>
       <use style="stroke:#000000;stroke-width:0.8;" x="63" xlink:href="#m07d7939763" y="389.110909"/>
      </g>
     </g>
     <g id="text_10">
      <!-- −2 -->
      <g transform="translate(41.257812 392.910128)scale(0.1 -0.1)">
       <use xlink:href="#DejaVuSans-2212"/>
       <use x="83.789062" xlink:href="#DejaVuSans-32"/>
      </g>
     </g>
    </g>
    <g id="ytick_2">
     <g id="line2d_11">
      <g>
       <use style="stroke:#000000;stroke-width:0.8;" x="63" xlink:href="#m07d7939763" y="319.925455"/>
      </g>
     </g>
     <g id="text_11">
      <!-- −1 -->
      <g transform="translate(41.257812 323.724673)scale(0.1 -0.1)">
       <use xlink:href="#DejaVuSans-2212"/>
       <use x="83.789062" xlink:href="#DejaVuSans-31"/>
      </g>
     </g>
    </g>
    <g id="ytick_3">
     <g id="line2d_12">
      <g>
       <use style="stroke:#000000;stroke-width:0.8;" x="63" xlink:href="#m07d7939763" y="250.74"/>
      </g>
     </g>
     <g id="text_12">
      <!-- 0 -->
      <g transform="translate(49.6375 254.539219)scale(0.1 -0.1)">
       <use xlink:href="#DejaVuSans-30"/>
      </g>
     </g>
    </g>
    <g id="ytick_4">
     <g id="line2d_13">
      <g>
       <use style="stroke:#000000;stroke-width:0.8;" x="63" xlink:href="#m07d7939763" y="181.554545"/>
      </g>
     </g>
     <g id="text_13">
      <!-- 1 -->
      <g transform="translate(49.6375 185.353764)scale(0.1 -0.1)">
       <use xlink:href="#DejaVuSans-31"/>
      </g>
     </g>
    </g>
    <g id="ytick_5">
     <g id="line2d_14">
      <g>
       <use style="stroke:#000000;stroke-width:0.8;" x="63" xlink:href="#m07d7939763" y="112.369091"/>
      </g>
     </g>
     <g id="text_14">
      <!-- 2 -->
      <g transform="translate(49.6375 116.16831)scale(0.1 -0.1)">
       <use xlink:href="#DejaVuSans-32"/>
      </g>
     </g>
    </g>
   </g>
   <g id="patch_3">
    <path d="M 63 441 
L 63 60.48 
" style="fill:none;stroke:#000000;stroke-linecap:square;stroke-linejoin:miter;stroke-width:0.8;"/>
   </g>
   <g id="patch_4">
    <path d="M 453.6 441 
L 453.6 60.48 
" style="fill:none;stroke:#000000;stroke-linecap:square;stroke-linejoin:miter;stroke-width:0.8;"/>
   </g>
   <g id="patch_5">
    <path d="M 63 441 
L 453.6 441 
" style="fill:none;stroke:#000000;stroke-linecap:square;stroke-linejoin:miter;stroke-width:0.8;"/>
   </g>
   <g id="patch_6">
    <path d="M 63 60.48 
L 453.6 60.48 
" style="fill:none;stroke:#000000;stroke-linecap:square;stroke-linejoin:miter;stroke-width:0.8;"/>
   </g>
  </g>
 </g>
 <defs>
  <clipPath id="p717770878f">
   <rect height="380.52" width="390.6" x="63" y="60.48"/>
  </clipPath>
 </defs>
</svg>
