<?xml version="1.0" encoding="utf-8" standalone="no"?>
<!DOCTYPE svg PUBLIC "-//W3C//DTD SVG 1.1//EN"
  "http://www.w3.org/Graphics/SVG/1.1/DTD/svg11.dtd">
<!-- Created with matplotlib (http://matplotlib.org/) -->
<svg height="504pt" version="1.1" viewBox="0 0 504 504" width="504pt" xmlns="http://www.w3.org/2000/svg" xmlns:xlink="http://www.w3.org/1999/xlink">
 <defs>
  <style type="text/css">
*{stroke-linecap:butt;stroke-linejoin:round;}
  </style>
 </defs>
 <g id="figure_1">
  <g id="patch_1">
   <path d="M 0 504 
L 504 504 
L 504 0 
L 0 0 
z
" style="fill:#ffffff;"/>
  </g>
  <g id="axes_1">
   <g id="patch_2">
    <path d="M 63 441 
L 453.6 441 
L 453.6 60.48 
L 63 60.48 
z
" style="fill:#ffffff;"/>
   </g>
   <g id="Quiver_1">
    <path clip-path="url(#p97191f8de2)" d="M 79.642878 423.333081 
L 87.718682 399.10567 
L 85.124792 399.476225 
L 92.16535 389.471222 
L 91.794795 401.69956 
L 89.942016 399.846781 
L 81.866213 424.074192 
L 79.642878 423.333081 
" style="fill:#ff0000;"/>
    <path clip-path="url(#p97191f8de2)" d="M 119.065195 423.449437 
L 124.384606 399.512086 
L 121.842615 400.147584 
L 127.816294 389.471222 
L 128.705991 401.672779 
L 126.672398 400.020485 
L 121.352987 423.957835 
L 119.065195 423.449437 
" style="fill:#ff0000;"/>
    <path clip-path="url(#p97191f8de2)" d="M 158.499003 423.574233 
L 161.137972 399.823515 
L 158.679303 400.72934 
L 163.467238 389.471222 
L 165.6671 401.505762 
L 163.467238 400.082322 
L 160.828269 423.83304 
L 158.499003 423.574233 
" style="fill:#ff0000;"/>
    <path clip-path="url(#p97191f8de2)" d="M 197.946382 423.703636 
L 197.946382 400.017422 
L 195.602782 401.189222 
L 199.118182 389.471222 
L 202.633582 401.189222 
L 200.289982 400.017422 
L 200.289982 423.703636 
L 197.946382 423.703636 
" style="fill:#ff0000;"/>
    <path clip-path="url(#p97191f8de2)" d="M 237.408094 423.83304 
L 234.769126 400.082322 
L 232.569263 401.505762 
L 234.769126 389.471222 
L 239.557061 400.72934 
L 237.098392 399.823515 
L 239.73736 423.574233 
L 237.408094 423.83304 
" style="fill:#ff0000;"/>
    <path clip-path="url(#p97191f8de2)" d="M 276.883377 423.957835 
L 271.563965 400.020485 
L 269.530373 401.672779 
L 270.420069 389.471222 
L 276.393749 400.147584 
L 273.851757 399.512086 
L 279.171169 423.449437 
L 276.883377 423.957835 
" style="fill:#ff0000;"/>
    <path clip-path="url(#p97191f8de2)" d="M 316.370151 424.074192 
L 308.294347 399.846781 
L 306.441569 401.69956 
L 306.071013 389.471222 
L 313.111571 399.476225 
L 310.517682 399.10567 
L 318.593485 423.333081 
L 316.370151 424.074192 
" style="fill:#ff0000;"/>
    <path clip-path="url(#p97191f8de2)" d="M 355.865559 424.179549 
L 344.93437 399.584374 
L 343.268674 401.607004 
L 341.721957 389.471222 
L 349.693501 398.751526 
L 347.075979 398.632548 
L 358.007168 423.227723 
L 355.865559 424.179549 
" style="fill:#ff0000;"/>
    <path clip-path="url(#p97191f8de2)" d="M 395.366572 424.272713 
L 381.470251 399.259335 
L 379.990652 401.421826 
L 377.372901 389.471222 
L 386.136677 398.007367 
L 383.518926 398.121183 
L 397.415247 423.13456 
L 395.366572 424.272713 
" style="fill:#ff0000;"/>
    <path clip-path="url(#p97191f8de2)" d="M 434.870458 424.353634 
L 417.898827 398.896188 
L 416.598832 401.17118 
L 413.023845 389.471222 
L 422.448811 397.271194 
L 419.84882 397.596193 
L 436.820451 423.053639 
L 434.870458 424.353634 
" style="fill:#ff0000;"/>
    <path clip-path="url(#p97191f8de2)" d="M 79.657355 384.855826 
L 87.365142 364.301728 
L 84.759314 364.576026 
L 92.16535 354.83846 
L 91.342457 367.044704 
L 89.559523 365.124621 
L 81.851736 385.678719 
L 79.657355 384.855826 
" style="fill:#ff0000;"/>
    <path clip-path="url(#p97191f8de2)" d="M 119.072278 384.983069 
L 124.121652 364.785573 
L 121.563823 365.35398 
L 127.816294 354.83846 
L 128.384701 367.059199 
L 126.395278 365.35398 
L 121.345904 385.551476 
L 119.072278 384.983069 
" style="fill:#ff0000;"/>
    <path clip-path="url(#p97191f8de2)" d="M 158.500885 385.121929 
L 160.996392 365.157877 
L 158.525545 366.02994 
L 163.467238 354.83846 
L 165.502053 366.902003 
L 163.321894 365.448564 
L 160.826388 385.412617 
L 158.500885 385.121929 
" style="fill:#ff0000;"/>
    <path clip-path="url(#p97191f8de2)" d="M 197.946382 385.267273 
L 197.946382 365.38466 
L 195.602782 366.55646 
L 199.118182 354.83846 
L 202.633582 366.55646 
L 200.289982 365.38466 
L 200.289982 385.267273 
L 197.946382 385.267273 
" style="fill:#ff0000;"/>
    <path clip-path="url(#p97191f8de2)" d="M 237.409976 385.412617 
L 234.91447 365.448564 
L 232.734311 366.902003 
L 234.769126 354.83846 
L 239.710818 366.02994 
L 237.239972 365.157877 
L 239.735478 385.121929 
L 237.409976 385.412617 
" style="fill:#ff0000;"/>
    <path clip-path="url(#p97191f8de2)" d="M 276.89046 385.551476 
L 271.841086 365.35398 
L 269.851663 367.059199 
L 270.420069 354.83846 
L 276.672541 365.35398 
L 274.114712 364.785573 
L 279.164086 384.983069 
L 276.89046 385.551476 
" style="fill:#ff0000;"/>
    <path clip-path="url(#p97191f8de2)" d="M 316.384628 385.678719 
L 308.676841 365.124621 
L 306.893906 367.044704 
L 306.071013 354.83846 
L 313.477049 364.576026 
L 310.871222 364.301728 
L 318.579009 384.855826 
L 316.384628 385.678719 
" style="fill:#ff0000;"/>
    <path clip-path="url(#p97191f8de2)" d="M 355.888274 385.791318 
L 345.390271 364.795313 
L 343.818137 366.891492 
L 341.721957 354.83846 
L 350.106675 363.747223 
L 347.486451 363.747223 
L 357.984453 384.743228 
L 355.888274 385.791318 
" style="fill:#ff0000;"/>
    <path clip-path="url(#p97191f8de2)" d="M 395.397225 385.888325 
L 381.968691 364.402672 
L 380.602375 366.638462 
L 377.372901 354.83846 
L 386.564482 362.912145 
L 383.95606 363.160567 
L 397.384594 384.64622 
L 395.397225 385.888325 
" style="fill:#ff0000;"/>
    <path clip-path="url(#p97191f8de2)" d="M 434.908015 385.970353 
L 418.414125 363.9785 
L 417.242325 366.3221 
L 413.023845 354.83846 
L 422.866965 362.10362 
L 420.289005 362.57234 
L 436.782895 384.564193 
L 434.908015 385.970353 
" style="fill:#ff0000;"/>
    <path clip-path="url(#p97191f8de2)" d="M 79.677491 346.369314 
L 86.933945 329.43759 
L 84.318242 329.591455 
L 92.16535 320.205698 
L 90.780566 332.361023 
L 89.088053 330.36078 
L 81.8316 347.292504 
L 79.677491 346.369314 
" style="fill:#ff0000;"/>
    <path clip-path="url(#p97191f8de2)" d="M 119.082377 346.508991 
L 123.792316 330.024203 
L 121.216971 330.507081 
L 127.816294 320.205698 
L 127.977253 332.43859 
L 126.045744 330.66804 
L 121.335805 347.152827 
L 119.082377 346.508991 
" style="fill:#ff0000;"/>
    <path clip-path="url(#p97191f8de2)" d="M 158.503614 346.665192 
L 160.815757 330.480185 
L 158.329994 331.308773 
L 163.467238 320.205698 
L 165.290131 332.303078 
L 163.135803 330.81162 
L 160.823659 346.996627 
L 158.503614 346.665192 
" style="fill:#ff0000;"/>
    <path clip-path="url(#p97191f8de2)" d="M 197.946382 346.830909 
L 197.946382 330.751898 
L 195.602782 331.923698 
L 199.118182 320.205698 
L 202.633582 331.923698 
L 200.289982 330.751898 
L 200.289982 346.830909 
L 197.946382 346.830909 
" style="fill:#ff0000;"/>
    <path clip-path="url(#p97191f8de2)" d="M 237.412704 346.996627 
L 235.100561 330.81162 
L 232.946233 332.303078 
L 234.769126 320.205698 
L 239.90637 331.308773 
L 237.420606 330.480185 
L 239.73275 346.665192 
L 237.412704 346.996627 
" style="fill:#ff0000;"/>
    <path clip-path="url(#p97191f8de2)" d="M 276.900559 347.152827 
L 272.19062 330.66804 
L 270.25911 332.43859 
L 270.420069 320.205698 
L 277.019393 330.507081 
L 274.444047 330.024203 
L 279.153986 346.508991 
L 276.900559 347.152827 
" style="fill:#ff0000;"/>
    <path clip-path="url(#p97191f8de2)" d="M 316.404764 347.292504 
L 309.148311 330.36078 
L 307.455797 332.361023 
L 306.071013 320.205698 
L 313.918122 329.591455 
L 311.302419 329.43759 
L 318.558872 346.369314 
L 316.404764 347.292504 
" style="fill:#ff0000;"/>
    <path clip-path="url(#p97191f8de2)" d="M 355.918956 347.412285 
L 345.93693 329.943739 
L 344.483491 332.123898 
L 341.721957 320.205698 
L 350.587935 328.635644 
L 347.971745 328.780988 
L 357.953771 346.249533 
L 355.918956 347.412285 
" style="fill:#ff0000;"/>
    <path clip-path="url(#p97191f8de2)" d="M 395.437376 347.512004 
L 382.549222 329.468588 
L 381.323251 331.784311 
L 377.372901 320.205698 
L 387.044449 327.697742 
L 384.456288 328.106399 
L 397.344442 346.149814 
L 395.437376 347.512004 
" style="fill:#ff0000;"/>
    <path clip-path="url(#p97191f8de2)" d="M 434.955758 347.593506 
L 418.997524 328.975567 
L 417.980727 331.390458 
L 413.023845 320.205698 
L 423.318909 326.814874 
L 420.776918 327.450372 
L 436.735151 346.068312 
L 434.955758 347.593506 
" style="fill:#ff0000;"/>
    <path clip-path="url(#p97191f8de2)" d="M 79.706456 307.870501 
L 86.400857 294.481699 
L 83.780632 294.481699 
L 92.16535 285.572936 
L 90.069171 297.625968 
L 88.497036 295.529789 
L 81.802635 308.91859 
L 79.706456 307.870501 
" style="fill:#ff0000;"/>
    <path clip-path="url(#p97191f8de2)" d="M 119.097424 308.02399 
L 123.369626 295.207384 
L 120.775736 295.577939 
L 127.816294 285.572936 
L 127.445738 297.801274 
L 125.59296 295.948495 
L 121.320758 308.765101 
L 119.097424 308.02399 
" style="fill:#ff0000;"/>
    <path clip-path="url(#p97191f8de2)" d="M 158.50778 308.201903 
L 160.577597 295.783 
L 158.073241 296.553571 
L 163.467238 285.572936 
L 165.00838 297.709428 
L 162.88931 296.168286 
L 160.819493 308.587188 
L 158.50778 308.201903 
" style="fill:#ff0000;"/>
    <path clip-path="url(#p97191f8de2)" d="M 197.946382 308.394545 
L 197.946382 296.119136 
L 195.602782 297.290936 
L 199.118182 285.572936 
L 202.633582 297.290936 
L 200.289982 296.119136 
L 200.289982 308.394545 
L 197.946382 308.394545 
" style="fill:#ff0000;"/>
    <path clip-path="url(#p97191f8de2)" d="M 237.416871 308.587188 
L 235.347054 296.168286 
L 233.227984 297.709428 
L 234.769126 285.572936 
L 240.163122 296.553571 
L 237.658767 295.783 
L 239.728584 308.201903 
L 237.416871 308.587188 
" style="fill:#ff0000;"/>
    <path clip-path="url(#p97191f8de2)" d="M 276.915606 308.765101 
L 272.643404 295.948495 
L 270.790625 297.801274 
L 270.420069 285.572936 
L 277.460628 295.577939 
L 274.866738 295.207384 
L 279.13894 308.02399 
L 276.915606 308.765101 
" style="fill:#ff0000;"/>
    <path clip-path="url(#p97191f8de2)" d="M 316.433728 308.91859 
L 309.739327 295.529789 
L 308.167193 297.625968 
L 306.071013 285.572936 
L 314.455732 294.481699 
L 311.835507 294.481699 
L 318.529908 307.870501 
L 316.433728 308.91859 
" style="fill:#ff0000;"/>
    <path clip-path="url(#p97191f8de2)" d="M 355.961367 309.044543 
L 346.59694 294.997902 
L 345.296944 297.272894 
L 341.721957 285.572936 
L 351.146924 293.372908 
L 348.546933 293.697907 
L 357.91136 307.744548 
L 355.961367 309.044543 
" style="fill:#ff0000;"/>
    <path clip-path="url(#p97191f8de2)" d="M 395.490707 309.144714 
L 383.224212 294.424919 
L 382.173977 296.825457 
L 377.372901 285.572936 
L 387.575187 292.324448 
L 385.024615 292.924583 
L 397.291111 307.644377 
L 395.490707 309.144714 
" style="fill:#ff0000;"/>
    <path clip-path="url(#p97191f8de2)" d="M 435.016867 309.223133 
L 419.652547 293.858813 
L 418.823959 296.344576 
L 413.023845 285.572936 
L 423.795485 291.37305 
L 421.309722 292.201637 
L 436.674042 307.565958 
L 435.016867 309.223133 
" style="fill:#ff0000;"/>
    <path clip-path="url(#p97191f8de2)" d="M 79.749735 269.355296 
L 85.734565 259.380579 
L 83.122058 259.179617 
L 92.16535 250.940174 
L 89.15092 262.796934 
L 87.744185 260.586352 
L 81.759356 270.561068 
L 79.749735 269.355296 
" style="fill:#ff0000;"/>
    <path clip-path="url(#p97191f8de2)" d="M 119.121102 269.522986 
L 122.811545 260.296879 
L 120.200371 260.514477 
L 127.816294 250.940174 
L 126.728305 263.12565 
L 124.987523 261.16727 
L 121.29708 270.393377 
L 119.121102 269.522986 
" style="fill:#ff0000;"/>
    <path clip-path="url(#p97191f8de2)" d="M 158.514592 269.728373 
L 160.249914 261.051765 
L 157.722016 261.741191 
L 163.467238 250.940174 
L 164.616282 263.120045 
L 162.548002 261.511382 
L 160.812681 270.187991 
L 158.514592 269.728373 
" style="fill:#ff0000;"/>
    <path clip-path="url(#p97191f8de2)" d="M 197.946382 269.958182 
L 197.946382 261.486374 
L 195.602782 262.658174 
L 199.118182 250.940174 
L 202.633582 262.658174 
L 200.289982 261.486374 
L 200.289982 269.958182 
L 197.946382 269.958182 
" style="fill:#ff0000;"/>
    <path clip-path="url(#p97191f8de2)" d="M 237.423683 270.187991 
L 235.688361 261.511382 
L 233.620081 263.120045 
L 234.769126 250.940174 
L 240.514348 261.741191 
L 237.98645 261.051765 
L 239.721772 269.728373 
L 237.423683 270.187991 
" style="fill:#ff0000;"/>
    <path clip-path="url(#p97191f8de2)" d="M 276.939284 270.393377 
L 273.248841 261.16727 
L 271.508058 263.12565 
L 270.420069 250.940174 
L 278.035992 260.514477 
L 275.424819 260.296879 
L 279.115262 269.522986 
L 276.939284 270.393377 
" style="fill:#ff0000;"/>
    <path clip-path="url(#p97191f8de2)" d="M 316.477008 270.561068 
L 310.492178 260.586352 
L 309.085444 262.796934 
L 306.071013 250.940174 
L 315.114305 259.179617 
L 312.501799 259.380579 
L 318.486628 269.355296 
L 316.477008 270.561068 
" style="fill:#ff0000;"/>
    <path clip-path="url(#p97191f8de2)" d="M 356.021342 270.690199 
L 347.395094 259.90739 
L 346.297067 262.286447 
L 341.721957 250.940174 
L 351.7872 257.894341 
L 349.225138 258.443355 
L 357.851386 269.226164 
L 356.021342 270.690199 
" style="fill:#ff0000;"/>
    <path clip-path="url(#p97191f8de2)" d="M 395.562321 270.78677 
L 384.001603 259.226051 
L 383.173015 261.711814 
L 377.372901 250.940174 
L 388.144541 256.740288 
L 385.658778 257.568875 
L 397.219497 269.129594 
L 395.562321 270.78677 
" style="fill:#ff0000;"/>
    <path clip-path="url(#p97191f8de2)" d="M 435.095286 270.858384 
L 420.375492 258.591888 
L 419.775357 261.142459 
L 413.023845 250.940174 
L 424.276366 255.741249 
L 421.875828 256.791485 
L 436.595623 269.05798 
L 435.095286 270.858384 
" style="fill:#ff0000;"/>
    <path clip-path="url(#p97191f8de2)" d="M 79.817105 230.818738 
L 84.90019 224.041292 
L 82.32223 223.572572 
L 92.16535 216.307412 
L 87.94687 227.791052 
L 86.77507 225.447452 
L 81.691985 232.224898 
L 79.817105 230.818738 
" style="fill:#ff0000;"/>
    <path clip-path="url(#p97191f8de2)" d="M 119.161001 230.997773 
L 122.0518 225.216175 
L 119.431576 225.216175 
L 127.816294 216.307412 
L 125.720115 228.360444 
L 124.14798 226.264265 
L 121.257181 232.045863 
L 119.161001 230.997773 
" style="fill:#ff0000;"/>
    <path clip-path="url(#p97191f8de2)" d="M 158.526823 231.237615 
L 159.772596 226.254525 
L 157.214767 226.822932 
L 163.467238 216.307412 
L 164.035644 228.528151 
L 162.046222 226.822932 
L 160.800449 231.806021 
L 158.526823 231.237615 
" style="fill:#ff0000;"/>
    <path clip-path="url(#p97191f8de2)" d="M 197.946382 231.521818 
L 197.946382 226.853612 
L 195.602782 228.025412 
L 199.118182 216.307412 
L 202.633582 228.025412 
L 200.289982 226.853612 
L 200.289982 231.521818 
L 197.946382 231.521818 
" style="fill:#ff0000;"/>
    <path clip-path="url(#p97191f8de2)" d="M 237.435914 231.806021 
L 236.190142 226.822932 
L 234.200719 228.528151 
L 234.769126 216.307412 
L 241.021597 226.822932 
L 238.463768 226.254525 
L 239.70954 231.237615 
L 237.435914 231.806021 
" style="fill:#ff0000;"/>
    <path clip-path="url(#p97191f8de2)" d="M 276.979183 232.045863 
L 274.088384 226.264265 
L 272.516249 228.360444 
L 270.420069 216.307412 
L 278.804788 225.216175 
L 276.184563 225.216175 
L 279.075363 230.997773 
L 276.979183 232.045863 
" style="fill:#ff0000;"/>
    <path clip-path="url(#p97191f8de2)" d="M 316.544378 232.224898 
L 311.461293 225.447452 
L 310.289493 227.791052 
L 306.071013 216.307412 
L 315.914133 223.572572 
L 313.336173 224.041292 
L 318.419258 230.818738 
L 316.544378 232.224898 
" style="fill:#ff0000;"/>
    <path clip-path="url(#p97191f8de2)" d="M 356.107776 232.350406 
L 348.350659 224.593289 
L 347.522071 227.079052 
L 341.721957 216.307412 
L 352.493598 222.107526 
L 350.007834 222.936113 
L 357.764951 230.69323 
L 356.107776 232.350406 
" style="fill:#ff0000;"/>
    <path clip-path="url(#p97191f8de2)" d="M 395.658891 232.43684 
L 384.876082 223.810593 
L 384.327069 226.372654 
L 377.372901 216.307412 
L 388.719175 220.882522 
L 386.340117 221.980548 
L 397.122927 230.606796 
L 395.658891 232.43684 
" style="fill:#ff0000;"/>
    <path clip-path="url(#p97191f8de2)" d="M 435.195457 232.496815 
L 421.148816 223.132387 
L 420.823817 225.732378 
L 413.023845 216.307412 
L 424.723803 219.882399 
L 422.448811 221.182394 
L 436.495452 230.546822 
L 435.195457 232.496815 
" style="fill:#ff0000;"/>
    <path clip-path="url(#p97191f8de2)" d="M 79.925958 192.256867 
L 83.879473 188.303351 
L 81.39371 187.474764 
L 92.16535 181.67465 
L 86.365236 192.44629 
L 85.536649 189.960527 
L 81.583133 193.914042 
L 79.925958 192.256867 
" style="fill:#ff0000;"/>
    <path clip-path="url(#p97191f8de2)" d="M 119.234094 192.435457 
L 120.991318 189.799621 
L 118.391328 189.474622 
L 127.816294 181.67465 
L 124.241307 193.374608 
L 122.941312 191.099616 
L 121.184087 193.735452 
L 119.234094 192.435457 
" style="fill:#ff0000;"/>
    <path clip-path="url(#p97191f8de2)" d="M 158.551969 192.714899 
L 159.02057 191.309098 
L 156.42668 191.679653 
L 163.467238 181.67465 
L 163.096682 193.902988 
L 161.243904 192.050209 
L 160.775303 193.45601 
L 158.551969 192.714899 
" style="fill:#ff0000;"/>
    <path clip-path="url(#p97191f8de2)" d="M 197.977101 193.085455 
L 197.977101 191.944374 
L 195.69494 193.085455 
L 199.118182 181.67465 
L 202.541423 193.085455 
L 200.259262 191.944374 
L 200.259262 193.085455 
L 197.977101 193.085455 
" style="fill:#ff0000;"/>
    <path clip-path="url(#p97191f8de2)" d="M 237.46106 193.45601 
L 236.99246 192.050209 
L 235.139681 193.902988 
L 234.769126 181.67465 
L 241.809684 191.679653 
L 239.215794 191.309098 
L 239.684394 192.714899 
L 237.46106 193.45601 
" style="fill:#ff0000;"/>
    <path clip-path="url(#p97191f8de2)" d="M 277.052276 193.735452 
L 275.295052 191.099616 
L 273.995057 193.374608 
L 270.420069 181.67465 
L 279.845036 189.474622 
L 277.245045 189.799621 
L 279.002269 192.435457 
L 277.052276 193.735452 
" style="fill:#ff0000;"/>
    <path clip-path="url(#p97191f8de2)" d="M 316.65323 193.914042 
L 312.699715 189.960527 
L 311.871127 192.44629 
L 306.071013 181.67465 
L 316.842654 187.474764 
L 314.356891 188.303351 
L 318.310406 192.256867 
L 316.65323 193.914042 
" style="fill:#ff0000;"/>
    <path clip-path="url(#p97191f8de2)" d="M 356.233284 194.022895 
L 349.455837 188.93981 
L 348.987117 191.51777 
L 341.721957 181.67465 
L 353.205597 185.89313 
L 350.861997 187.06493 
L 357.639444 192.148015 
L 356.233284 194.022895 
" style="fill:#ff0000;"/>
    <path clip-path="url(#p97191f8de2)" d="M 395.788023 194.090265 
L 385.813307 188.105435 
L 385.612345 190.717942 
L 377.372901 181.67465 
L 389.229661 184.68908 
L 387.019079 186.095815 
L 396.993795 192.080644 
L 395.788023 194.090265 
" style="fill:#ff0000;"/>
    <path clip-path="url(#p97191f8de2)" d="M 435.32141 194.133544 
L 421.932608 187.439143 
L 421.932608 190.059368 
L 413.023845 181.67465 
L 425.076877 183.770829 
L 422.980698 185.342964 
L 436.369499 192.037365 
L 435.32141 194.133544 
" style="fill:#ff0000;"/>
    <path clip-path="url(#p97191f8de2)" d="M 80.104548 153.674094 
L 82.740384 151.91687 
L 80.465392 150.616875 
L 92.16535 147.041888 
L 84.365378 156.466854 
L 84.040379 153.866863 
L 81.404543 155.624087 
L 80.104548 153.674094 
" style="fill:#ff0000;"/>
    <path clip-path="url(#p97191f8de2)" d="M 119.448371 153.888371 
L 120.209091 153.12765 
L 117.92693 152.36693 
L 127.816294 147.041888 
L 122.491252 156.931252 
L 121.730532 154.649091 
L 120.969811 155.409811 
L 119.448371 153.888371 
" style="fill:#ff0000;"/>
    <path clip-path="url(#p97191f8de2)" d="M 158.902916 154.268731 
L 159.283276 153.50801 
L 157.381475 153.50801 
L 163.467238 147.041888 
L 161.945797 155.790171 
L 160.804717 154.268731 
L 160.424357 155.029451 
L 158.902916 154.268731 
" style="fill:#ff0000;"/>
    <path clip-path="url(#p97191f8de2)" d="M 198.357461 154.649091 
L 198.357461 153.888371 
L 196.836021 154.649091 
L 199.118182 147.041888 
L 201.400343 154.649091 
L 199.878902 153.888371 
L 199.878902 154.649091 
L 198.357461 154.649091 
" style="fill:#ff0000;"/>
    <path clip-path="url(#p97191f8de2)" d="M 237.812007 155.029451 
L 237.431647 154.268731 
L 236.290566 155.790171 
L 234.769126 147.041888 
L 240.854888 153.50801 
L 238.953087 153.50801 
L 239.333448 154.268731 
L 237.812007 155.029451 
" style="fill:#ff0000;"/>
    <path clip-path="url(#p97191f8de2)" d="M 277.266552 155.409811 
L 276.505832 154.649091 
L 275.745112 156.931252 
L 270.420069 147.041888 
L 280.309434 152.36693 
L 278.027273 153.12765 
L 278.787993 153.888371 
L 277.266552 155.409811 
" style="fill:#ff0000;"/>
    <path clip-path="url(#p97191f8de2)" d="M 316.83182 155.624087 
L 314.195984 153.866863 
L 313.870986 156.466854 
L 306.071013 147.041888 
L 317.770972 150.616875 
L 315.49598 151.91687 
L 318.131816 153.674094 
L 316.83182 155.624087 
" style="fill:#ff0000;"/>
    <path clip-path="url(#p97191f8de2)" d="M 356.412319 155.697181 
L 350.63072 152.806381 
L 350.63072 155.426606 
L 341.721957 147.041888 
L 353.77499 149.138067 
L 351.67881 150.710202 
L 357.460409 153.601001 
L 356.412319 155.697181 
" style="fill:#ff0000;"/>
    <path clip-path="url(#p97191f8de2)" d="M 395.955713 155.73708 
L 386.729606 152.046637 
L 386.947204 154.657811 
L 377.372901 147.041888 
L 389.558378 148.129877 
L 387.599997 149.870659 
L 396.826105 153.561102 
L 395.955713 155.73708 
" style="fill:#ff0000;"/>
    <path clip-path="url(#p97191f8de2)" d="M 435.474899 155.760758 
L 422.658293 151.488556 
L 423.028848 154.082446 
L 413.023845 147.041888 
L 425.252183 147.412443 
L 423.399404 149.265222 
L 436.21601 153.537424 
L 435.474899 155.760758 
" style="fill:#ff0000;"/>
    <path clip-path="url(#p97191f8de2)" d="M 80.38399 115.10106 
L 81.789791 114.63246 
L 79.937012 112.779681 
L 92.16535 112.409126 
L 82.160347 119.449684 
L 82.530902 116.855794 
L 81.125101 117.324394 
L 80.38399 115.10106 
" style="fill:#ff0000;"/>
    <path clip-path="url(#p97191f8de2)" d="M 119.828731 115.452007 
L 120.589451 115.071647 
L 119.06801 113.930566 
L 127.816294 112.409126 
L 121.350171 118.494888 
L 121.350171 116.593087 
L 120.589451 116.973448 
L 119.828731 115.452007 
" style="fill:#ff0000;"/>
    <path clip-path="url(#p97191f8de2)" d="M 159.283276 115.832367 
L 159.663636 115.452007 
L 158.522556 115.071647 
L 163.467238 112.409126 
L 160.804717 117.353808 
L 160.424357 116.212727 
L 160.043997 116.593087 
L 159.283276 115.832367 
" style="fill:#ff0000;"/>
    <path clip-path="url(#p97191f8de2)" d="M 198.737822 116.212727 
L 198.737822 115.832367 
L 197.977101 116.212727 
L 199.118182 112.409126 
L 200.259262 116.212727 
L 199.498542 115.832367 
L 199.498542 116.212727 
L 198.737822 116.212727 
" style="fill:#ff0000;"/>
    <path clip-path="url(#p97191f8de2)" d="M 238.192367 116.593087 
L 237.812007 116.212727 
L 237.431647 117.353808 
L 234.769126 112.409126 
L 239.713808 115.071647 
L 238.572727 115.452007 
L 238.953087 115.832367 
L 238.192367 116.593087 
" style="fill:#ff0000;"/>
    <path clip-path="url(#p97191f8de2)" d="M 277.646913 116.973448 
L 276.886192 116.593087 
L 276.886192 118.494888 
L 270.420069 112.409126 
L 279.168353 113.930566 
L 277.646913 115.071647 
L 278.407633 115.452007 
L 277.646913 116.973448 
" style="fill:#ff0000;"/>
    <path clip-path="url(#p97191f8de2)" d="M 317.111262 117.324394 
L 315.705461 116.855794 
L 316.076017 119.449684 
L 306.071013 112.409126 
L 318.299351 112.779681 
L 316.446573 114.63246 
L 317.852374 115.10106 
L 317.111262 117.324394 
" style="fill:#ff0000;"/>
    <path clip-path="url(#p97191f8de2)" d="M 356.65216 117.34954 
L 351.669071 116.103768 
L 352.237477 118.661597 
L 341.721957 112.409126 
L 353.942697 111.840719 
L 352.237477 113.830142 
L 357.220567 115.075914 
L 356.65216 117.34954 
" style="fill:#ff0000;"/>
    <path clip-path="url(#p97191f8de2)" d="M 396.1611 117.361772 
L 387.484492 115.62645 
L 388.173919 118.154348 
L 377.372901 112.409126 
L 389.552772 111.260081 
L 387.94411 113.328361 
L 396.620718 115.063683 
L 396.1611 117.361772 
" style="fill:#ff0000;"/>
    <path clip-path="url(#p97191f8de2)" d="M 435.652812 117.368584 
L 423.23391 115.298767 
L 424.00448 117.803122 
L 413.023845 112.409126 
L 425.160337 110.867984 
L 423.619195 112.987054 
L 436.038097 115.056871 
L 435.652812 117.368584 
" style="fill:#ff0000;"/>
    <path clip-path="url(#p97191f8de2)" d="M 80.754545 76.635283 
L 81.895626 76.635283 
L 80.754545 74.353122 
L 92.16535 77.776364 
L 80.754545 81.199605 
L 81.895626 78.917444 
L 80.754545 78.917444 
L 80.754545 76.635283 
" style="fill:#ff0000;"/>
    <path clip-path="url(#p97191f8de2)" d="M 120.209091 77.015643 
L 120.969811 77.015643 
L 120.209091 75.494203 
L 127.816294 77.776364 
L 120.209091 80.058525 
L 120.969811 78.537084 
L 120.209091 78.537084 
L 120.209091 77.015643 
" style="fill:#ff0000;"/>
    <path clip-path="url(#p97191f8de2)" d="M 159.663636 77.396003 
L 160.043997 77.396003 
L 159.663636 76.635283 
L 163.467238 77.776364 
L 159.663636 78.917444 
L 160.043997 78.156724 
L 159.663636 78.156724 
L 159.663636 77.396003 
" style="fill:#ff0000;"/>
    <path clip-path="url(#p97191f8de2)" d="M 200.289982 77.776364 
L 199.704082 76.761555 
L 198.532282 76.761555 
L 197.946382 77.776364 
L 198.532282 78.791172 
L 199.704082 78.791172 
L 200.289982 77.776364 
L 199.704082 76.761555 
" style="fill:#ff0000;"/>
    <path clip-path="url(#p97191f8de2)" d="M 238.572727 78.156724 
L 238.192367 78.156724 
L 238.572727 78.917444 
L 234.769126 77.776364 
L 238.572727 76.635283 
L 238.192367 77.396003 
L 238.572727 77.396003 
L 238.572727 78.156724 
" style="fill:#ff0000;"/>
    <path clip-path="url(#p97191f8de2)" d="M 278.027273 78.537084 
L 277.266552 78.537084 
L 278.027273 80.058525 
L 270.420069 77.776364 
L 278.027273 75.494203 
L 277.266552 77.015643 
L 278.027273 77.015643 
L 278.027273 78.537084 
" style="fill:#ff0000;"/>
    <path clip-path="url(#p97191f8de2)" d="M 317.481818 78.917444 
L 316.340738 78.917444 
L 317.481818 81.199605 
L 306.071013 77.776364 
L 317.481818 74.353122 
L 316.340738 76.635283 
L 317.481818 76.635283 
L 317.481818 78.917444 
" style="fill:#ff0000;"/>
    <path clip-path="url(#p97191f8de2)" d="M 356.936364 78.948164 
L 352.268157 78.948164 
L 353.439957 81.291764 
L 341.721957 77.776364 
L 353.439957 74.260964 
L 352.268157 76.604564 
L 356.936364 76.604564 
L 356.936364 78.948164 
" style="fill:#ff0000;"/>
    <path clip-path="url(#p97191f8de2)" d="M 396.390909 78.948164 
L 387.919101 78.948164 
L 389.090901 81.291764 
L 377.372901 77.776364 
L 389.090901 74.260964 
L 387.919101 76.604564 
L 396.390909 76.604564 
L 396.390909 78.948164 
" style="fill:#ff0000;"/>
    <path clip-path="url(#p97191f8de2)" d="M 435.845455 78.948164 
L 423.570045 78.948164 
L 424.741845 81.291764 
L 413.023845 77.776364 
L 424.741845 74.260964 
L 423.570045 76.604564 
L 435.845455 76.604564 
L 435.845455 78.948164 
" style="fill:#ff0000;"/>
   </g>
   <g id="matplotlib.axis_1">
    <g id="xtick_1">
     <g id="line2d_1">
      <defs>
       <path d="M 0 0 
L 0 3.5 
" id="m723a70727f" style="stroke:#000000;stroke-width:0.8;"/>
      </defs>
      <g>
       <use style="stroke:#000000;stroke-width:0.8;" x="120.209091" xlink:href="#m723a70727f" y="441"/>
      </g>
     </g>
     <g id="text_1">
      <!-- −4 -->
      <defs>
       <path d="M 10.59375 35.5 
L 73.1875 35.5 
L 73.1875 27.203125 
L 10.59375 27.203125 
z
" id="DejaVuSans-2212"/>
       <path d="M 37.796875 64.3125 
L 12.890625 25.390625 
L 37.796875 25.390625 
z
M 35.203125 72.90625 
L 47.609375 72.90625 
L 47.609375 25.390625 
L 58.015625 25.390625 
L 58.015625 17.1875 
L 47.609375 17.1875 
L 47.609375 0 
L 37.796875 0 
L 37.796875 17.1875 
L 4.890625 17.1875 
L 4.890625 26.703125 
z
" id="DejaVuSans-34"/>
      </defs>
      <g transform="translate(112.837997 455.598437)scale(0.1 -0.1)">
       <use xlink:href="#DejaVuSans-2212"/>
       <use x="83.789062" xlink:href="#DejaVuSans-34"/>
      </g>
     </g>
    </g>
    <g id="xtick_2">
     <g id="line2d_2">
      <g>
       <use style="stroke:#000000;stroke-width:0.8;" x="199.118182" xlink:href="#m723a70727f" y="441"/>
      </g>
     </g>
     <g id="text_2">
      <!-- −2 -->
      <defs>
       <path d="M 19.1875 8.296875 
L 53.609375 8.296875 
L 53.609375 0 
L 7.328125 0 
L 7.328125 8.296875 
Q 12.9375 14.109375 22.625 23.890625 
Q 32.328125 33.6875 34.8125 36.53125 
Q 39.546875 41.84375 41.421875 45.53125 
Q 43.3125 49.21875 43.3125 52.78125 
Q 43.3125 58.59375 39.234375 62.25 
Q 35.15625 65.921875 28.609375 65.921875 
Q 23.96875 65.921875 18.8125 64.3125 
Q 13.671875 62.703125 7.8125 59.421875 
L 7.8125 69.390625 
Q 13.765625 71.78125 18.9375 73 
Q 24.125 74.21875 28.421875 74.21875 
Q 39.75 74.21875 46.484375 68.546875 
Q 53.21875 62.890625 53.21875 53.421875 
Q 53.21875 48.921875 51.53125 44.890625 
Q 49.859375 40.875 45.40625 35.40625 
Q 44.1875 33.984375 37.640625 27.21875 
Q 31.109375 20.453125 19.1875 8.296875 
z
" id="DejaVuSans-32"/>
      </defs>
      <g transform="translate(191.747088 455.598437)scale(0.1 -0.1)">
       <use xlink:href="#DejaVuSans-2212"/>
       <use x="83.789062" xlink:href="#DejaVuSans-32"/>
      </g>
     </g>
    </g>
    <g id="xtick_3">
     <g id="line2d_3">
      <g>
       <use style="stroke:#000000;stroke-width:0.8;" x="278.027273" xlink:href="#m723a70727f" y="441"/>
      </g>
     </g>
     <g id="text_3">
      <!-- 0 -->
      <defs>
       <path d="M 31.78125 66.40625 
Q 24.171875 66.40625 20.328125 58.90625 
Q 16.5 51.421875 16.5 36.375 
Q 16.5 21.390625 20.328125 13.890625 
Q 24.171875 6.390625 31.78125 6.390625 
Q 39.453125 6.390625 43.28125 13.890625 
Q 47.125 21.390625 47.125 36.375 
Q 47.125 51.421875 43.28125 58.90625 
Q 39.453125 66.40625 31.78125 66.40625 
z
M 31.78125 74.21875 
Q 44.046875 74.21875 50.515625 64.515625 
Q 56.984375 54.828125 56.984375 36.375 
Q 56.984375 17.96875 50.515625 8.265625 
Q 44.046875 -1.421875 31.78125 -1.421875 
Q 19.53125 -1.421875 13.0625 8.265625 
Q 6.59375 17.96875 6.59375 36.375 
Q 6.59375 54.828125 13.0625 64.515625 
Q 19.53125 74.21875 31.78125 74.21875 
z
" id="DejaVuSans-30"/>
      </defs>
      <g transform="translate(274.846023 455.598437)scale(0.1 -0.1)">
       <use xlink:href="#DejaVuSans-30"/>
      </g>
     </g>
    </g>
    <g id="xtick_4">
     <g id="line2d_4">
      <g>
       <use style="stroke:#000000;stroke-width:0.8;" x="356.936364" xlink:href="#m723a70727f" y="441"/>
      </g>
     </g>
     <g id="text_4">
      <!-- 2 -->
      <g transform="translate(353.755114 455.598437)scale(0.1 -0.1)">
       <use xlink:href="#DejaVuSans-32"/>
      </g>
     </g>
    </g>
    <g id="xtick_5">
     <g id="line2d_5">
      <g>
       <use style="stroke:#000000;stroke-width:0.8;" x="435.845455" xlink:href="#m723a70727f" y="441"/>
      </g>
     </g>
     <g id="text_5">
      <!-- 4 -->
      <g transform="translate(432.664205 455.598437)scale(0.1 -0.1)">
       <use xlink:href="#DejaVuSans-34"/>
      </g>
     </g>
    </g>
   </g>
   <g id="matplotlib.axis_2">
    <g id="ytick_1">
     <g id="line2d_6">
      <defs>
       <path d="M 0 0 
L -3.5 0 
" id="mff6cbb7f86" style="stroke:#000000;stroke-width:0.8;"/>
      </defs>
      <g>
       <use style="stroke:#000000;stroke-width:0.8;" x="63" xlink:href="#mff6cbb7f86" y="385.267273"/>
      </g>
     </g>
     <g id="text_6">
      <!-- −4 -->
      <g transform="translate(41.257812 389.066491)scale(0.1 -0.1)">
       <use xlink:href="#DejaVuSans-2212"/>
       <use x="83.789062" xlink:href="#DejaVuSans-34"/>
      </g>
     </g>
    </g>
    <g id="ytick_2">
     <g id="line2d_7">
      <g>
       <use style="stroke:#000000;stroke-width:0.8;" x="63" xlink:href="#mff6cbb7f86" y="308.394545"/>
      </g>
     </g>
     <g id="text_7">
      <!-- −2 -->
      <g transform="translate(41.257812 312.193764)scale(0.1 -0.1)">
       <use xlink:href="#DejaVuSans-2212"/>
       <use x="83.789062" xlink:href="#DejaVuSans-32"/>
      </g>
     </g>
    </g>
    <g id="ytick_3">
     <g id="line2d_8">
      <g>
       <use style="stroke:#000000;stroke-width:0.8;" x="63" xlink:href="#mff6cbb7f86" y="231.521818"/>
      </g>
     </g>
     <g id="text_8">
      <!-- 0 -->
      <g transform="translate(49.6375 235.321037)scale(0.1 -0.1)">
       <use xlink:href="#DejaVuSans-30"/>
      </g>
     </g>
    </g>
    <g id="ytick_4">
     <g id="line2d_9">
      <g>
       <use style="stroke:#000000;stroke-width:0.8;" x="63" xlink:href="#mff6cbb7f86" y="154.649091"/>
      </g>
     </g>
     <g id="text_9">
      <!-- 2 -->
      <g transform="translate(49.6375 158.44831)scale(0.1 -0.1)">
       <use xlink:href="#DejaVuSans-32"/>
      </g>
     </g>
    </g>
    <g id="ytick_5">
     <g id="line2d_10">
      <g>
       <use style="stroke:#000000;stroke-width:0.8;" x="63" xlink:href="#mff6cbb7f86" y="77.776364"/>
      </g>
     </g>
     <g id="text_10">
      <!-- 4 -->
      <g transform="translate(49.6375 81.575582)scale(0.1 -0.1)">
       <use xlink:href="#DejaVuSans-34"/>
      </g>
     </g>
    </g>
   </g>
   <g id="patch_3">
    <path d="M 63 441 
L 63 60.48 
" style="fill:none;stroke:#000000;stroke-linecap:square;stroke-linejoin:miter;stroke-width:0.8;"/>
   </g>
   <g id="patch_4">
    <path d="M 453.6 441 
L 453.6 60.48 
" style="fill:none;stroke:#000000;stroke-linecap:square;stroke-linejoin:miter;stroke-width:0.8;"/>
   </g>
   <g id="patch_5">
    <path d="M 63 441 
L 453.6 441 
" style="fill:none;stroke:#000000;stroke-linecap:square;stroke-linejoin:miter;stroke-width:0.8;"/>
   </g>
   <g id="patch_6">
    <path d="M 63 60.48 
L 453.6 60.48 
" style="fill:none;stroke:#000000;stroke-linecap:square;stroke-linejoin:miter;stroke-width:0.8;"/>
   </g>
  </g>
 </g>
 <defs>
  <clipPath id="p97191f8de2">
   <rect height="380.52" width="390.6" x="63" y="60.48"/>
  </clipPath>
 </defs>
</svg>
