<?xml version="1.0" encoding="utf-8" standalone="no"?>
<!DOCTYPE svg PUBLIC "-//W3C//DTD SVG 1.1//EN"
  "http://www.w3.org/Graphics/SVG/1.1/DTD/svg11.dtd">
<!-- Created with matplotlib (https://matplotlib.org/) -->
<svg height="576pt" version="1.1" viewBox="0 0 864 576" width="864pt" xmlns="http://www.w3.org/2000/svg" xmlns:xlink="http://www.w3.org/1999/xlink">
 <defs>
  <style type="text/css">
*{stroke-linecap:butt;stroke-linejoin:round;}
  </style>
 </defs>
 <g id="figure_1">
  <g id="patch_1">
   <path d="M 0 576 
L 864 576 
L 864 0 
L 0 0 
z
" style="fill:#ffffff;"/>
  </g>
  <g id="axes_1">
   <g id="patch_2">
    <path d="M 108 504 
L 777.6 504 
L 777.6 69.12 
L 108 69.12 
z
" style="fill:#ffffff;"/>
   </g>
   <g id="line2d_1">
    <path clip-path="url(#p22866e00e7)" d="M 138.436364 154.778182 
L 341.345455 88.887273 
" style="fill:none;stroke:#dddddd;stroke-linecap:square;stroke-width:1.5;"/>
   </g>
   <g id="line2d_2">
    <path clip-path="url(#p22866e00e7)" d="M 138.436364 154.778182 
L 341.345455 220.669091 
" style="fill:none;stroke:#dddddd;stroke-linecap:square;stroke-width:1.5;"/>
   </g>
   <g id="line2d_3">
    <path clip-path="url(#p22866e00e7)" d="M 138.436364 154.778182 
L 341.345455 352.450909 
" style="fill:none;stroke:#dddddd;stroke-linecap:square;stroke-width:1.5;"/>
   </g>
   <g id="line2d_4">
    <path clip-path="url(#p22866e00e7)" d="M 138.436364 154.778182 
L 341.345455 484.232727 
" style="fill:none;stroke:#dddddd;stroke-linecap:square;stroke-width:1.5;"/>
   </g>
   <g id="line2d_5">
    <path clip-path="url(#p22866e00e7)" d="M 138.436364 286.56 
L 341.345455 88.887273 
" style="fill:none;stroke:#dddddd;stroke-linecap:square;stroke-width:1.5;"/>
   </g>
   <g id="line2d_6">
    <path clip-path="url(#p22866e00e7)" d="M 138.436364 286.56 
L 341.345455 220.669091 
" style="fill:none;stroke:#dddddd;stroke-linecap:square;stroke-width:1.5;"/>
   </g>
   <g id="line2d_7">
    <path clip-path="url(#p22866e00e7)" d="M 138.436364 286.56 
L 341.345455 352.450909 
" style="fill:none;stroke:#dddddd;stroke-linecap:square;stroke-width:1.5;"/>
   </g>
   <g id="line2d_8">
    <path clip-path="url(#p22866e00e7)" d="M 138.436364 286.56 
L 341.345455 484.232727 
" style="fill:none;stroke:#dddddd;stroke-linecap:square;stroke-width:1.5;"/>
   </g>
   <g id="line2d_9">
    <path clip-path="url(#p22866e00e7)" d="M 138.436364 418.341818 
L 341.345455 88.887273 
" style="fill:none;stroke:#dddddd;stroke-linecap:square;stroke-width:1.5;"/>
   </g>
   <g id="line2d_10">
    <path clip-path="url(#p22866e00e7)" d="M 138.436364 418.341818 
L 341.345455 220.669091 
" style="fill:none;stroke:#dddddd;stroke-linecap:square;stroke-width:1.5;"/>
   </g>
   <g id="line2d_11">
    <path clip-path="url(#p22866e00e7)" d="M 138.436364 418.341818 
L 341.345455 352.450909 
" style="fill:none;stroke:#dddddd;stroke-linecap:square;stroke-width:1.5;"/>
   </g>
   <g id="line2d_12">
    <path clip-path="url(#p22866e00e7)" d="M 138.436364 418.341818 
L 341.345455 484.232727 
" style="fill:none;stroke:#dddddd;stroke-linecap:square;stroke-width:1.5;"/>
   </g>
   <g id="line2d_13">
    <path clip-path="url(#p22866e00e7)" d="M 341.345455 88.887273 
L 544.254545 154.778182 
" style="fill:none;stroke:#dddddd;stroke-linecap:square;stroke-width:1.5;"/>
   </g>
   <g id="line2d_14">
    <path clip-path="url(#p22866e00e7)" d="M 341.345455 88.887273 
L 544.254545 286.56 
" style="fill:none;stroke:#dddddd;stroke-linecap:square;stroke-width:1.5;"/>
   </g>
   <g id="line2d_15">
    <path clip-path="url(#p22866e00e7)" d="M 341.345455 88.887273 
L 544.254545 418.341818 
" style="fill:none;stroke:#dddddd;stroke-linecap:square;stroke-width:1.5;"/>
   </g>
   <g id="line2d_16">
    <path clip-path="url(#p22866e00e7)" d="M 341.345455 220.669091 
L 544.254545 154.778182 
" style="fill:none;stroke:#dddddd;stroke-linecap:square;stroke-width:1.5;"/>
   </g>
   <g id="line2d_17">
    <path clip-path="url(#p22866e00e7)" d="M 341.345455 220.669091 
L 544.254545 286.56 
" style="fill:none;stroke:#dddddd;stroke-linecap:square;stroke-width:1.5;"/>
   </g>
   <g id="line2d_18">
    <path clip-path="url(#p22866e00e7)" d="M 341.345455 220.669091 
L 544.254545 418.341818 
" style="fill:none;stroke:#dddddd;stroke-linecap:square;stroke-width:1.5;"/>
   </g>
   <g id="line2d_19">
    <path clip-path="url(#p22866e00e7)" d="M 341.345455 352.450909 
L 544.254545 154.778182 
" style="fill:none;stroke:#dddddd;stroke-linecap:square;stroke-width:1.5;"/>
   </g>
   <g id="line2d_20">
    <path clip-path="url(#p22866e00e7)" d="M 341.345455 352.450909 
L 544.254545 286.56 
" style="fill:none;stroke:#dddddd;stroke-linecap:square;stroke-width:1.5;"/>
   </g>
   <g id="line2d_21">
    <path clip-path="url(#p22866e00e7)" d="M 341.345455 352.450909 
L 544.254545 418.341818 
" style="fill:none;stroke:#dddddd;stroke-linecap:square;stroke-width:1.5;"/>
   </g>
   <g id="line2d_22">
    <path clip-path="url(#p22866e00e7)" d="M 341.345455 484.232727 
L 544.254545 154.778182 
" style="fill:none;stroke:#dddddd;stroke-linecap:square;stroke-width:1.5;"/>
   </g>
   <g id="line2d_23">
    <path clip-path="url(#p22866e00e7)" d="M 341.345455 484.232727 
L 544.254545 286.56 
" style="fill:none;stroke:#dddddd;stroke-linecap:square;stroke-width:1.5;"/>
   </g>
   <g id="line2d_24">
    <path clip-path="url(#p22866e00e7)" d="M 341.345455 484.232727 
L 544.254545 418.341818 
" style="fill:none;stroke:#dddddd;stroke-linecap:square;stroke-width:1.5;"/>
   </g>
   <g id="line2d_25">
    <path clip-path="url(#p22866e00e7)" d="M 544.254545 154.778182 
L 747.163636 220.669091 
" style="fill:none;stroke:#dddddd;stroke-linecap:square;stroke-width:1.5;"/>
   </g>
   <g id="line2d_26">
    <path clip-path="url(#p22866e00e7)" d="M 544.254545 154.778182 
L 747.163636 352.450909 
" style="fill:none;stroke:#dddddd;stroke-linecap:square;stroke-width:1.5;"/>
   </g>
   <g id="line2d_27">
    <path clip-path="url(#p22866e00e7)" d="M 544.254545 286.56 
L 747.163636 220.669091 
" style="fill:none;stroke:#dddddd;stroke-linecap:square;stroke-width:1.5;"/>
   </g>
   <g id="line2d_28">
    <path clip-path="url(#p22866e00e7)" d="M 544.254545 286.56 
L 747.163636 352.450909 
" style="fill:none;stroke:#dddddd;stroke-linecap:square;stroke-width:1.5;"/>
   </g>
   <g id="line2d_29">
    <path clip-path="url(#p22866e00e7)" d="M 544.254545 418.341818 
L 747.163636 220.669091 
" style="fill:none;stroke:#dddddd;stroke-linecap:square;stroke-width:1.5;"/>
   </g>
   <g id="line2d_30">
    <path clip-path="url(#p22866e00e7)" d="M 544.254545 418.341818 
L 747.163636 352.450909 
" style="fill:none;stroke:#dddddd;stroke-linecap:square;stroke-width:1.5;"/>
   </g>
   <g id="PathCollection_1">
    <defs>
     <path d="M 0 19.364917 
C 5.135636 19.364917 10.061621 17.324507 13.693064 13.693064 
C 17.324507 10.061621 19.364917 5.135636 19.364917 0 
C 19.364917 -5.135636 17.324507 -10.061621 13.693064 -13.693064 
C 10.061621 -17.324507 5.135636 -19.364917 0 -19.364917 
C -5.135636 -19.364917 -10.061621 -17.324507 -13.693064 -13.693064 
C -17.324507 -10.061621 -19.364917 -5.135636 -19.364917 0 
C -19.364917 5.135636 -17.324507 10.061621 -13.693064 13.693064 
C -10.061621 17.324507 -5.135636 19.364917 0 19.364917 
z
" id="meb8ece7431" style="stroke:#000000;"/>
    </defs>
    <g clip-path="url(#p22866e00e7)">
     <use style="fill:#ffffff;stroke:#000000;" x="138.436364" xlink:href="#meb8ece7431" y="154.778182"/>
     <use style="fill:#ffffff;stroke:#000000;" x="138.436364" xlink:href="#meb8ece7431" y="286.56"/>
     <use style="fill:#ffffff;stroke:#000000;" x="138.436364" xlink:href="#meb8ece7431" y="418.341818"/>
     <use style="fill:#ffffff;stroke:#000000;" x="341.345455" xlink:href="#meb8ece7431" y="88.887273"/>
     <use style="fill:#ffffff;stroke:#000000;" x="341.345455" xlink:href="#meb8ece7431" y="220.669091"/>
     <use style="fill:#ffffff;stroke:#000000;" x="341.345455" xlink:href="#meb8ece7431" y="352.450909"/>
     <use style="fill:#ffffff;stroke:#000000;" x="341.345455" xlink:href="#meb8ece7431" y="484.232727"/>
     <use style="fill:#ffffff;stroke:#000000;" x="544.254545" xlink:href="#meb8ece7431" y="154.778182"/>
     <use style="fill:#ffffff;stroke:#000000;" x="544.254545" xlink:href="#meb8ece7431" y="286.56"/>
     <use style="fill:#ffffff;stroke:#000000;" x="544.254545" xlink:href="#meb8ece7431" y="418.341818"/>
     <use style="fill:#ffffff;stroke:#000000;" x="747.163636" xlink:href="#meb8ece7431" y="220.669091"/>
     <use style="fill:#ffffff;stroke:#000000;" x="747.163636" xlink:href="#meb8ece7431" y="352.450909"/>
    </g>
   </g>
   <g id="PathCollection_2">
    <defs>
     <path d="M 0.153972 0.046059 
L -1.007892 5.980182 
L -2.716516 5.980182 
L -2.401535 4.402305 
Q -3.153329 5.329419 -4.116101 5.790005 
Q -5.075902 6.25059 -6.255595 6.25059 
Q -7.583864 6.25059 -8.433718 5.439365 
Q -9.280601 4.625169 -9.280601 3.353359 
Q -9.280601 1.531818 -7.827528 0.473957 
Q -6.374455 -0.583903 -3.821921 -0.583903 
L -1.444705 -0.583903 
L -1.352588 -1.041517 
Q -1.331788 -1.115805 -1.322873 -1.201979 
Q -1.313959 -1.291125 -1.313959 -1.475359 
Q -1.313959 -2.304413 -1.988493 -2.762027 
Q -2.660057 -3.222612 -3.878379 -3.222612 
Q -4.713376 -3.222612 -5.592946 -3.008663 
Q -6.469544 -2.794714 -7.396658 -2.366815 
L -7.099506 -3.947663 
Q -6.133762 -4.310188 -5.20962 -4.488479 
Q -4.285478 -4.669742 -3.423737 -4.669742 
Q -1.584367 -4.669742 -0.624566 -3.870403 
Q 0.338206 -3.074036 0.338206 -1.549647 
Q 0.338206 -1.243581 0.290662 -0.83054 
Q 0.246089 -0.417498 0.153972 0.046059 
z
M -1.694313 0.75328 
L -3.402936 0.75328 
Q -5.5038 0.75328 -6.511145 1.314897 
Q -7.51849 1.876514 -7.51849 3.056207 
Q -7.51849 3.873375 -7.004417 4.336932 
Q -6.487373 4.800489 -5.578088 4.800489 
Q -4.184446 4.800489 -3.144414 3.802058 
Q -2.104383 2.803628 -1.768601 1.133634 
z
M 6.706968 -10.140308 
Q 5.693977 -10.140308 5.182282 -9.141878 
Q 4.672666 -8.145528 4.672666 -6.142427 
Q 4.672666 -4.147646 5.182282 -3.149216 
Q 5.693977 -2.150785 6.706968 -2.150785 
Q 7.728279 -2.150785 8.237895 -3.149216 
Q 8.74959 -4.147646 8.74959 -6.142427 
Q 8.74959 -8.145528 8.237895 -9.141878 
Q 7.728279 -10.140308 6.706968 -10.140308 
z
M 6.706968 -11.18034 
Q 8.339818 -11.18034 9.200964 -9.888621 
Q 10.06211 -8.598981 10.06211 -6.142427 
Q 10.06211 -3.692112 9.200964 -2.400393 
Q 8.339818 -1.110754 6.706968 -1.110754 
Q 5.076199 -1.110754 4.215053 -2.400393 
Q 3.353906 -3.692112 3.353906 -6.142427 
Q 3.353906 -8.598981 4.215053 -9.888621 
Q 5.076199 -11.18034 6.706968 -11.18034 
z
M 3.243386 10.075826 
L 5.387931 10.075826 
L 5.387931 2.670801 
L 3.0541 3.138815 
L 3.0541 1.942779 
L 5.37545 1.474765 
L 6.68797 1.474765 
L 6.68797 10.075826 
L 8.832516 10.075826 
L 8.832516 11.18034 
L 3.243386 11.18034 
z
" id="m0a87e2aea1" style="stroke:#000000;"/>
    </defs>
    <g clip-path="url(#p22866e00e7)">
     <use style="stroke:#000000;" x="138.436364" xlink:href="#m0a87e2aea1" y="154.778182"/>
    </g>
   </g>
   <g id="PathCollection_3">
    <defs>
     <path d="M 0.153972 0.046059 
L -1.007892 5.980182 
L -2.716516 5.980182 
L -2.401535 4.402305 
Q -3.153329 5.329419 -4.116101 5.790005 
Q -5.075902 6.25059 -6.255595 6.25059 
Q -7.583864 6.25059 -8.433718 5.439365 
Q -9.280601 4.625169 -9.280601 3.353359 
Q -9.280601 1.531818 -7.827528 0.473957 
Q -6.374455 -0.583903 -3.821921 -0.583903 
L -1.444705 -0.583903 
L -1.352588 -1.041517 
Q -1.331788 -1.115805 -1.322873 -1.201979 
Q -1.313959 -1.291125 -1.313959 -1.475359 
Q -1.313959 -2.304413 -1.988493 -2.762027 
Q -2.660057 -3.222612 -3.878379 -3.222612 
Q -4.713376 -3.222612 -5.592946 -3.008663 
Q -6.469544 -2.794714 -7.396658 -2.366815 
L -7.099506 -3.947663 
Q -6.133762 -4.310188 -5.20962 -4.488479 
Q -4.285478 -4.669742 -3.423737 -4.669742 
Q -1.584367 -4.669742 -0.624566 -3.870403 
Q 0.338206 -3.074036 0.338206 -1.549647 
Q 0.338206 -1.243581 0.290662 -0.83054 
Q 0.246089 -0.417498 0.153972 0.046059 
z
M -1.694313 0.75328 
L -3.402936 0.75328 
Q -5.5038 0.75328 -6.511145 1.314897 
Q -7.51849 1.876514 -7.51849 3.056207 
Q -7.51849 3.873375 -7.004417 4.336932 
Q -6.487373 4.800489 -5.578088 4.800489 
Q -4.184446 4.800489 -3.144414 3.802058 
Q -2.104383 2.803628 -1.768601 1.133634 
z
M 6.706968 -10.140308 
Q 5.693977 -10.140308 5.182282 -9.141878 
Q 4.672666 -8.145528 4.672666 -6.142427 
Q 4.672666 -4.147646 5.182282 -3.149216 
Q 5.693977 -2.150785 6.706968 -2.150785 
Q 7.728279 -2.150785 8.237895 -3.149216 
Q 8.74959 -4.147646 8.74959 -6.142427 
Q 8.74959 -8.145528 8.237895 -9.141878 
Q 7.728279 -10.140308 6.706968 -10.140308 
z
M 6.706968 -11.18034 
Q 8.339818 -11.18034 9.200964 -9.888621 
Q 10.06211 -8.598981 10.06211 -6.142427 
Q 10.06211 -3.692112 9.200964 -2.400393 
Q 8.339818 -1.110754 6.706968 -1.110754 
Q 5.076199 -1.110754 4.215053 -2.400393 
Q 3.353906 -3.692112 3.353906 -6.142427 
Q 3.353906 -8.598981 4.215053 -9.888621 
Q 5.076199 -11.18034 6.706968 -11.18034 
z
M 4.146133 10.075826 
L 8.728512 10.075826 
L 8.728512 11.18034 
L 2.567365 11.18034 
L 2.567365 10.075826 
Q 3.314108 9.302043 4.603747 7.999923 
Q 5.895466 6.695724 6.226196 6.317152 
Q 6.856455 5.609931 7.106063 5.119036 
Q 7.357751 4.628141 7.357751 4.153886 
Q 7.357751 3.380103 6.814854 2.893368 
Q 6.271958 2.404553 5.400411 2.404553 
Q 4.782632 2.404553 4.096212 2.6188 
Q 3.411871 2.833046 2.631847 3.269859 
L 2.631847 1.942779 
Q 3.424351 1.624529 4.112852 1.462284 
Q 4.803433 1.30004 5.37545 1.30004 
Q 6.883496 1.30004 7.780004 2.055102 
Q 8.676511 2.808085 8.676511 4.068604 
Q 8.676511 4.667662 8.451864 5.204318 
Q 8.229297 5.738894 7.636479 6.466917 
Q 7.474234 6.656202 6.602688 7.55687 
Q 5.733221 8.457537 4.146133 10.075826 
z
" id="m6bbdef027d" style="stroke:#000000;"/>
    </defs>
    <g clip-path="url(#p22866e00e7)">
     <use style="stroke:#000000;" x="138.436364" xlink:href="#m6bbdef027d" y="286.56"/>
    </g>
   </g>
   <g id="PathCollection_4">
    <defs>
     <path d="M 0.152679 -0.048177 
L -0.999432 5.836135 
L -2.693713 5.836135 
L -2.381376 4.271504 
Q -3.12686 5.190835 -4.08155 5.647555 
Q -5.033294 6.104274 -6.203085 6.104274 
Q -7.520204 6.104274 -8.362925 5.299859 
Q -9.202699 4.492497 -9.202699 3.231362 
Q -9.202699 1.425111 -7.761823 0.37613 
Q -6.320948 -0.672851 -3.789839 -0.672851 
L -1.432578 -0.672851 
L -1.341235 -1.126623 
Q -1.320609 -1.200288 -1.311769 -1.285738 
Q -1.302929 -1.374136 -1.302929 -1.556823 
Q -1.302929 -2.378918 -1.971802 -2.832691 
Q -2.637728 -3.28941 -3.845824 -3.28941 
Q -4.673812 -3.28941 -5.545998 -3.077256 
Q -6.415238 -2.865103 -7.33457 -2.440796 
L -7.039912 -4.008374 
Q -6.082275 -4.367857 -5.16589 -4.544651 
Q -4.249505 -4.724392 -3.394998 -4.724392 
Q -1.571068 -4.724392 -0.619324 -3.931763 
Q 0.335367 -3.142081 0.335367 -1.630488 
Q 0.335367 -1.32699 0.288222 -0.917416 
Q 0.244023 -0.507842 0.152679 -0.048177 
z
M -1.680091 0.653109 
L -3.374372 0.653109 
Q -5.457601 0.653109 -6.45649 1.210011 
Q -7.455379 1.766914 -7.455379 2.936705 
Q -7.455379 3.747013 -6.945622 4.206679 
Q -6.432918 4.666345 -5.531265 4.666345 
Q -4.149321 4.666345 -3.11802 3.676295 
Q -2.086718 2.686246 -1.753755 1.03027 
z
M 6.65067 -10.149038 
Q 5.646182 -10.149038 5.138782 -9.158989 
Q 4.633444 -8.171002 4.633444 -6.184715 
Q 4.633444 -4.206679 5.138782 -3.216629 
Q 5.646182 -2.22658 6.65067 -2.22658 
Q 7.663408 -2.22658 8.168745 -3.216629 
Q 8.676146 -4.206679 8.676146 -6.184715 
Q 8.676146 -8.171002 8.168745 -9.158989 
Q 7.663408 -10.149038 6.65067 -10.149038 
z
M 6.65067 -11.18034 
Q 8.269813 -11.18034 9.123731 -9.899463 
Q 9.977648 -8.620649 9.977648 -6.184715 
Q 9.977648 -3.754969 9.123731 -2.474092 
Q 8.269813 -1.195278 6.65067 -1.195278 
Q 5.033589 -1.195278 4.179671 -2.474092 
Q 3.325753 -3.754969 3.325753 -6.184715 
Q 3.325753 -8.620649 4.179671 -9.899463 
Q 5.033589 -11.18034 6.65067 -11.18034 
z
M 6.935034 5.803134 
Q 7.869393 6.003206 8.393294 6.636425 
Q 8.919258 7.267582 8.919258 8.195753 
Q 8.919258 9.618949 7.939521 10.400676 
Q 6.959785 11.18034 5.155007 11.18034 
Q 4.550665 11.18034 3.909195 11.060709 
Q 3.267726 10.941078 2.585004 10.701816 
L 2.585004 9.445691 
Q 3.125406 9.761269 3.768938 9.922152 
Q 4.414533 10.083035 5.11788 10.083035 
Q 6.341004 10.083035 6.982474 9.600386 
Q 7.623943 9.117737 7.623943 8.195753 
Q 7.623943 7.343898 7.027851 6.865374 
Q 6.431759 6.384788 5.369518 6.384788 
L 4.247462 6.384788 
L 4.247462 5.314297 
L 5.421083 5.314297 
Q 6.380194 5.314297 6.889657 4.930653 
Q 7.399119 4.547008 7.399119 3.825097 
Q 7.399119 3.084623 6.873156 2.688603 
Q 6.349255 2.290521 5.369518 2.290521 
Q 4.833241 2.290521 4.220648 2.408089 
Q 3.608055 2.523595 2.873768 2.766982 
L 2.873768 1.607799 
Q 3.616305 1.401539 4.263963 1.298409 
Q 4.91162 1.195278 5.485024 1.195278 
Q 6.968035 1.195278 7.830204 1.86975 
Q 8.694434 2.542158 8.694434 3.688966 
Q 8.694434 4.489256 8.236536 5.039971 
Q 7.778638 5.590686 6.935034 5.803134 
z
" id="mfe16376045" style="stroke:#000000;"/>
    </defs>
    <g clip-path="url(#p22866e00e7)">
     <use style="stroke:#000000;" x="138.436364" xlink:href="#mfe16376045" y="418.341818"/>
    </g>
   </g>
   <g id="PathCollection_5">
    <defs>
     <path d="M 0.329189 -0.041629 
L -0.841825 5.939228 
L -2.563905 5.939228 
L -2.246443 4.348925 
Q -3.004158 5.28334 -3.974512 5.747553 
Q -4.941872 6.211766 -6.130856 6.211766 
Q -7.469585 6.211766 -8.326133 5.394152 
Q -9.179685 4.573544 -9.179685 3.291718 
Q -9.179685 1.455831 -7.715169 0.389639 
Q -6.250652 -0.676553 -3.678015 -0.676553 
L -1.282078 -0.676553 
L -1.189236 -1.137771 
Q -1.168271 -1.212644 -1.159287 -1.299496 
Q -1.150302 -1.389344 -1.150302 -1.575029 
Q -1.150302 -2.410612 -1.830149 -2.87183 
Q -2.507001 -3.336043 -3.734919 -3.336043 
Q -4.576491 -3.336043 -5.462988 -3.120408 
Q -6.34649 -2.904774 -7.280905 -2.473505 
L -6.981413 -4.066803 
Q -6.008064 -4.432184 -5.076643 -4.611879 
Q -4.145223 -4.794569 -3.276696 -4.794569 
Q -1.42284 -4.794569 -0.45548 -3.988935 
Q 0.514874 -3.186297 0.514874 -1.649902 
Q 0.514874 -1.341425 0.466956 -0.925131 
Q 0.422032 -0.508837 0.329189 -0.041629 
z
M -1.533652 0.671162 
L -3.255731 0.671162 
Q -5.37314 0.671162 -6.388419 1.237202 
Q -7.403697 1.803242 -7.403697 2.992226 
Q -7.403697 3.815829 -6.885576 4.283037 
Q -6.364459 4.750244 -5.448014 4.750244 
Q -4.043396 4.750244 -2.995173 3.743951 
Q -1.946951 2.737657 -1.608525 1.054512 
z
M 4.334202 -2.511541 
L 6.495637 -2.511541 
L 6.495637 -9.974884 
L 4.143426 -9.503184 
L 4.143426 -10.70864 
L 6.483058 -11.18034 
L 7.805915 -11.18034 
L 7.805915 -2.511541 
L 9.967349 -2.511541 
L 9.967349 -1.398329 
L 4.334202 -1.398329 
z
M 3.442934 10.067128 
L 5.604368 10.067128 
L 5.604368 2.603784 
L 3.252157 3.075484 
L 3.252157 1.870029 
L 5.59179 1.398329 
L 6.914646 1.398329 
L 6.914646 10.067128 
L 9.076081 10.067128 
L 9.076081 11.18034 
L 3.442934 11.18034 
z
" id="ma9d3cf5f25" style="stroke:#000000;"/>
    </defs>
    <g clip-path="url(#p22866e00e7)">
     <use style="stroke:#000000;" x="341.345455" xlink:href="#ma9d3cf5f25" y="88.887273"/>
    </g>
   </g>
   <g id="PathCollection_6">
    <defs>
     <path d="M 0.329189 -0.041629 
L -0.841825 5.939228 
L -2.563905 5.939228 
L -2.246443 4.348925 
Q -3.004158 5.28334 -3.974512 5.747553 
Q -4.941872 6.211766 -6.130856 6.211766 
Q -7.469585 6.211766 -8.326133 5.394152 
Q -9.179685 4.573544 -9.179685 3.291718 
Q -9.179685 1.455831 -7.715169 0.389639 
Q -6.250652 -0.676553 -3.678015 -0.676553 
L -1.282078 -0.676553 
L -1.189236 -1.137771 
Q -1.168271 -1.212644 -1.159287 -1.299496 
Q -1.150302 -1.389344 -1.150302 -1.575029 
Q -1.150302 -2.410612 -1.830149 -2.87183 
Q -2.507001 -3.336043 -3.734919 -3.336043 
Q -4.576491 -3.336043 -5.462988 -3.120408 
Q -6.34649 -2.904774 -7.280905 -2.473505 
L -6.981413 -4.066803 
Q -6.008064 -4.432184 -5.076643 -4.611879 
Q -4.145223 -4.794569 -3.276696 -4.794569 
Q -1.42284 -4.794569 -0.45548 -3.988935 
Q 0.514874 -3.186297 0.514874 -1.649902 
Q 0.514874 -1.341425 0.466956 -0.925131 
Q 0.422032 -0.508837 0.329189 -0.041629 
z
M -1.533652 0.671162 
L -3.255731 0.671162 
Q -5.37314 0.671162 -6.388419 1.237202 
Q -7.403697 1.803242 -7.403697 2.992226 
Q -7.403697 3.815829 -6.885576 4.283037 
Q -6.364459 4.750244 -5.448014 4.750244 
Q -4.043396 4.750244 -2.995173 3.743951 
Q -1.946951 2.737657 -1.608525 1.054512 
z
M 4.334202 -2.511541 
L 6.495637 -2.511541 
L 6.495637 -9.974884 
L 4.143426 -9.503184 
L 4.143426 -10.70864 
L 6.483058 -11.18034 
L 7.805915 -11.18034 
L 7.805915 -2.511541 
L 9.967349 -2.511541 
L 9.967349 -1.398329 
L 4.334202 -1.398329 
z
M 4.352791 10.067128 
L 8.971259 10.067128 
L 8.971259 11.18034 
L 2.761589 11.18034 
L 2.761589 10.067128 
Q 3.514213 9.28725 4.814009 7.974876 
Q 6.115901 6.660405 6.449236 6.278852 
Q 7.084458 5.566061 7.336032 5.0713 
Q 7.589702 4.576539 7.589702 4.098549 
Q 7.589702 3.318672 7.042529 2.828104 
Q 6.495357 2.335439 5.616947 2.335439 
Q 4.994303 2.335439 4.302476 2.551373 
Q 3.612746 2.767307 2.826579 3.20756 
L 2.826579 1.870029 
Q 3.625325 1.549273 4.319248 1.38575 
Q 5.015267 1.222227 5.59179 1.222227 
Q 7.111712 1.222227 8.01528 1.983237 
Q 8.918848 2.74215 8.918848 4.012595 
Q 8.918848 4.616371 8.692431 5.157254 
Q 8.468112 5.69604 7.870625 6.429796 
Q 7.707102 6.620573 6.828692 7.528333 
Q 5.952378 8.436094 4.352791 10.067128 
z
" id="m31da9e0c6b" style="stroke:#000000;"/>
    </defs>
    <g clip-path="url(#p22866e00e7)">
     <use style="stroke:#000000;" x="341.345455" xlink:href="#m31da9e0c6b" y="220.669091"/>
    </g>
   </g>
   <g id="PathCollection_7">
    <defs>
     <path d="M 0.326404 -0.135859 
L -0.834703 5.794403 
L -2.542215 5.794403 
L -2.227439 4.217553 
Q -2.978744 5.144064 -3.94089 5.60435 
Q -4.900066 6.064635 -6.078991 6.064635 
Q -7.406395 6.064635 -8.255697 5.253939 
Q -9.102029 4.440272 -9.102029 3.16929 
Q -9.102029 1.348934 -7.649901 0.291762 
Q -6.197774 -0.765411 -3.646901 -0.765411 
L -1.271232 -0.765411 
L -1.179175 -1.222727 
Q -1.158388 -1.296966 -1.149479 -1.383084 
Q -1.140571 -1.472172 -1.140571 -1.656286 
Q -1.140571 -2.4848 -1.814667 -2.942117 
Q -2.485793 -3.402402 -3.703323 -3.402402 
Q -4.537776 -3.402402 -5.416773 -3.188592 
Q -6.292801 -2.974782 -7.219312 -2.547162 
L -6.922353 -4.126981 
Q -5.957238 -4.48927 -5.033697 -4.667446 
Q -4.110156 -4.84859 -3.248976 -4.84859 
Q -1.410803 -4.84859 -0.451627 -4.049772 
Q 0.510519 -3.253923 0.510519 -1.730526 
Q 0.510519 -1.424659 0.463005 -1.011886 
Q 0.418462 -0.599114 0.326404 -0.135859 
z
M -1.520678 0.570903 
L -3.228189 0.570903 
Q -5.327686 0.570903 -6.334375 1.132154 
Q -7.341065 1.693406 -7.341065 2.872331 
Q -7.341065 3.688967 -6.827326 4.152223 
Q -6.310619 4.615478 -5.401925 4.615478 
Q -4.00919 4.615478 -2.969835 3.617697 
Q -1.93048 2.619917 -1.594917 0.95101 
z
M 4.297537 -2.584875 
L 6.440686 -2.584875 
L 6.440686 -9.985082 
L 4.108374 -9.517372 
L 4.108374 -10.71263 
L 6.428214 -11.18034 
L 7.73988 -11.18034 
L 7.73988 -2.584875 
L 9.88303 -2.584875 
L 9.88303 -1.481081 
L 4.297537 -1.481081 
z
M 7.161721 5.761144 
Q 8.103377 5.962779 8.631369 6.600943 
Q 9.16144 7.237028 9.16144 8.172447 
Q 9.16144 9.606757 8.174053 10.394588 
Q 7.186666 11.18034 5.367795 11.18034 
Q 4.758733 11.18034 4.112254 11.059775 
Q 3.465776 10.93921 2.777723 10.698079 
L 2.777723 9.432145 
Q 3.322345 9.750188 3.970902 9.912327 
Q 4.621538 10.074466 5.330378 10.074466 
Q 6.563053 10.074466 7.209532 9.588048 
Q 7.85601 9.10163 7.85601 8.172447 
Q 7.85601 7.31394 7.255263 6.831679 
Q 6.654516 6.34734 5.583981 6.34734 
L 4.453163 6.34734 
L 4.453163 5.26849 
L 5.635949 5.26849 
Q 6.602549 5.26849 7.11599 4.88185 
Q 7.629431 4.49521 7.629431 3.767661 
Q 7.629431 3.021404 7.09936 2.622292 
Q 6.571368 2.221101 5.583981 2.221101 
Q 5.043516 2.221101 4.42614 2.339588 
Q 3.808763 2.455995 3.068742 2.701283 
L 3.068742 1.533048 
Q 3.817078 1.325177 4.469792 1.221242 
Q 5.122507 1.117306 5.700389 1.117306 
Q 7.194981 1.117306 8.063881 1.797044 
Q 8.934861 2.474704 8.934861 3.630466 
Q 8.934861 4.437006 8.473387 4.992021 
Q 8.011914 5.547037 7.161721 5.761144 
z
" id="mc6a62a85fe" style="stroke:#000000;"/>
    </defs>
    <g clip-path="url(#p22866e00e7)">
     <use style="stroke:#000000;" x="341.345455" xlink:href="#mc6a62a85fe" y="352.450909"/>
    </g>
   </g>
   <g id="PathCollection_8">
    <defs>
     <path d="M 0.329189 -0.041629 
L -0.841825 5.939228 
L -2.563905 5.939228 
L -2.246443 4.348925 
Q -3.004158 5.28334 -3.974512 5.747553 
Q -4.941872 6.211766 -6.130856 6.211766 
Q -7.469585 6.211766 -8.326133 5.394152 
Q -9.179685 4.573544 -9.179685 3.291718 
Q -9.179685 1.455831 -7.715169 0.389639 
Q -6.250652 -0.676553 -3.678015 -0.676553 
L -1.282078 -0.676553 
L -1.189236 -1.137771 
Q -1.168271 -1.212644 -1.159287 -1.299496 
Q -1.150302 -1.389344 -1.150302 -1.575029 
Q -1.150302 -2.410612 -1.830149 -2.87183 
Q -2.507001 -3.336043 -3.734919 -3.336043 
Q -4.576491 -3.336043 -5.462988 -3.120408 
Q -6.34649 -2.904774 -7.280905 -2.473505 
L -6.981413 -4.066803 
Q -6.008064 -4.432184 -5.076643 -4.611879 
Q -4.145223 -4.794569 -3.276696 -4.794569 
Q -1.42284 -4.794569 -0.45548 -3.988935 
Q 0.514874 -3.186297 0.514874 -1.649902 
Q 0.514874 -1.341425 0.466956 -0.925131 
Q 0.422032 -0.508837 0.329189 -0.041629 
z
M -1.533652 0.671162 
L -3.255731 0.671162 
Q -5.37314 0.671162 -6.388419 1.237202 
Q -7.403697 1.803242 -7.403697 2.992226 
Q -7.403697 3.815829 -6.885576 4.283037 
Q -6.364459 4.750244 -5.448014 4.750244 
Q -4.043396 4.750244 -2.995173 3.743951 
Q -1.946951 2.737657 -1.608525 1.054512 
z
M 4.334202 -2.511541 
L 6.495637 -2.511541 
L 6.495637 -9.974884 
L 4.143426 -9.503184 
L 4.143426 -10.70864 
L 6.483058 -11.18034 
L 7.805915 -11.18034 
L 7.805915 -2.511541 
L 9.967349 -2.511541 
L 9.967349 -1.398329 
L 4.334202 -1.398329 
z
M 6.849657 2.551373 
L 3.507924 7.773617 
L 6.849657 7.773617 
z
M 6.501647 1.398329 
L 8.166224 1.398329 
L 8.166224 7.773617 
L 9.562456 7.773617 
L 9.562456 8.874251 
L 8.166224 8.874251 
L 8.166224 11.18034 
L 6.849657 11.18034 
L 6.849657 8.874251 
L 2.434544 8.874251 
L 2.434544 7.597516 
z
" id="m0d7bce7ebc" style="stroke:#000000;"/>
    </defs>
    <g clip-path="url(#p22866e00e7)">
     <use style="stroke:#000000;" x="341.345455" xlink:href="#m0d7bce7ebc" y="484.232727"/>
    </g>
   </g>
   <g id="PathCollection_9">
    <defs>
     <path d="M 0.378619 0.046059 
L -0.783245 5.980182 
L -2.491869 5.980182 
L -2.176888 4.402305 
Q -2.928682 5.329419 -3.891454 5.790005 
Q -4.851255 6.25059 -6.030948 6.25059 
Q -7.359217 6.25059 -8.209071 5.439365 
Q -9.055954 4.625169 -9.055954 3.353359 
Q -9.055954 1.531818 -7.602881 0.473957 
Q -6.149808 -0.583903 -3.597274 -0.583903 
L -1.220059 -0.583903 
L -1.127942 -1.041517 
Q -1.107141 -1.115805 -1.098226 -1.201979 
Q -1.089312 -1.291125 -1.089312 -1.475359 
Q -1.089312 -2.304413 -1.763847 -2.762027 
Q -2.43541 -3.222612 -3.653733 -3.222612 
Q -4.488729 -3.222612 -5.368299 -3.008663 
Q -6.244897 -2.794714 -7.172011 -2.366815 
L -6.874859 -3.947663 
Q -5.909115 -4.310188 -4.984973 -4.488479 
Q -4.060831 -4.669742 -3.19909 -4.669742 
Q -1.35972 -4.669742 -0.399919 -3.870403 
Q 0.562853 -3.074036 0.562853 -1.549647 
Q 0.562853 -1.243581 0.515308 -0.83054 
Q 0.470736 -0.417498 0.378619 0.046059 
z
M -1.469666 0.75328 
L -3.17829 0.75328 
Q -5.279153 0.75328 -6.286498 1.314897 
Q -7.293843 1.876514 -7.293843 3.056207 
Q -7.293843 3.873375 -6.77977 4.336932 
Q -6.262726 4.800489 -5.353441 4.800489 
Q -3.959799 4.800489 -2.919767 3.802058 
Q -1.879736 2.803628 -1.543954 1.133634 
z
M 5.255084 -2.404553 
L 9.837463 -2.404553 
L 9.837463 -1.30004 
L 3.676316 -1.30004 
L 3.676316 -2.404553 
Q 4.423059 -3.178337 5.712698 -4.480456 
Q 7.004417 -5.784656 7.335147 -6.163227 
Q 7.965407 -6.870449 8.215014 -7.361344 
Q 8.466702 -7.852239 8.466702 -8.326493 
Q 8.466702 -9.100277 7.923805 -9.587011 
Q 7.380909 -10.075826 6.509362 -10.075826 
Q 5.891583 -10.075826 5.205163 -9.86158 
Q 4.520822 -9.647333 3.740798 -9.21052 
L 3.740798 -10.5376 
Q 4.533302 -10.85585 5.221803 -11.018095 
Q 5.912384 -11.18034 6.484402 -11.18034 
Q 7.992447 -11.18034 8.888955 -10.425277 
Q 9.785462 -9.672294 9.785462 -8.411776 
Q 9.785462 -7.812718 9.560815 -7.276061 
Q 9.338248 -6.741485 8.74543 -6.013463 
Q 8.583185 -5.824177 7.711639 -4.92351 
Q 6.842172 -4.022842 5.255084 -2.404553 
z
M 3.468032 10.075826 
L 5.612578 10.075826 
L 5.612578 2.670801 
L 3.278747 3.138815 
L 3.278747 1.942779 
L 5.600097 1.474765 
L 6.912617 1.474765 
L 6.912617 10.075826 
L 9.057162 10.075826 
L 9.057162 11.18034 
L 3.468032 11.18034 
z
" id="md59304378a" style="stroke:#000000;"/>
    </defs>
    <g clip-path="url(#p22866e00e7)">
     <use style="stroke:#000000;" x="544.254545" xlink:href="#md59304378a" y="154.778182"/>
    </g>
   </g>
   <g id="PathCollection_10">
    <defs>
     <path d="M 0.378619 0.046059 
L -0.783245 5.980182 
L -2.491869 5.980182 
L -2.176888 4.402305 
Q -2.928682 5.329419 -3.891454 5.790005 
Q -4.851255 6.25059 -6.030948 6.25059 
Q -7.359217 6.25059 -8.209071 5.439365 
Q -9.055954 4.625169 -9.055954 3.353359 
Q -9.055954 1.531818 -7.602881 0.473957 
Q -6.149808 -0.583903 -3.597274 -0.583903 
L -1.220059 -0.583903 
L -1.127942 -1.041517 
Q -1.107141 -1.115805 -1.098226 -1.201979 
Q -1.089312 -1.291125 -1.089312 -1.475359 
Q -1.089312 -2.304413 -1.763847 -2.762027 
Q -2.43541 -3.222612 -3.653733 -3.222612 
Q -4.488729 -3.222612 -5.368299 -3.008663 
Q -6.244897 -2.794714 -7.172011 -2.366815 
L -6.874859 -3.947663 
Q -5.909115 -4.310188 -4.984973 -4.488479 
Q -4.060831 -4.669742 -3.19909 -4.669742 
Q -1.35972 -4.669742 -0.399919 -3.870403 
Q 0.562853 -3.074036 0.562853 -1.549647 
Q 0.562853 -1.243581 0.515308 -0.83054 
Q 0.470736 -0.417498 0.378619 0.046059 
z
M -1.469666 0.75328 
L -3.17829 0.75328 
Q -5.279153 0.75328 -6.286498 1.314897 
Q -7.293843 1.876514 -7.293843 3.056207 
Q -7.293843 3.873375 -6.77977 4.336932 
Q -6.262726 4.800489 -5.353441 4.800489 
Q -3.959799 4.800489 -2.919767 3.802058 
Q -1.879736 2.803628 -1.543954 1.133634 
z
M 5.255084 -2.404553 
L 9.837463 -2.404553 
L 9.837463 -1.30004 
L 3.676316 -1.30004 
L 3.676316 -2.404553 
Q 4.423059 -3.178337 5.712698 -4.480456 
Q 7.004417 -5.784656 7.335147 -6.163227 
Q 7.965407 -6.870449 8.215014 -7.361344 
Q 8.466702 -7.852239 8.466702 -8.326493 
Q 8.466702 -9.100277 7.923805 -9.587011 
Q 7.380909 -10.075826 6.509362 -10.075826 
Q 5.891583 -10.075826 5.205163 -9.86158 
Q 4.520822 -9.647333 3.740798 -9.21052 
L 3.740798 -10.5376 
Q 4.533302 -10.85585 5.221803 -11.018095 
Q 5.912384 -11.18034 6.484402 -11.18034 
Q 7.992447 -11.18034 8.888955 -10.425277 
Q 9.785462 -9.672294 9.785462 -8.411776 
Q 9.785462 -7.812718 9.560815 -7.276061 
Q 9.338248 -6.741485 8.74543 -6.013463 
Q 8.583185 -5.824177 7.711639 -4.92351 
Q 6.842172 -4.022842 5.255084 -2.404553 
z
M 4.37078 10.075826 
L 8.953159 10.075826 
L 8.953159 11.18034 
L 2.792012 11.18034 
L 2.792012 10.075826 
Q 3.538755 9.302043 4.828394 7.999923 
Q 6.120113 6.695724 6.450843 6.317152 
Q 7.081102 5.609931 7.33071 5.119036 
Q 7.582398 4.628141 7.582398 4.153886 
Q 7.582398 3.380103 7.039501 2.893368 
Q 6.496605 2.404553 5.625058 2.404553 
Q 5.007279 2.404553 4.320858 2.6188 
Q 3.636518 2.833046 2.856494 3.269859 
L 2.856494 1.942779 
Q 3.648998 1.624529 4.337499 1.462284 
Q 5.02808 1.30004 5.600097 1.30004 
Q 7.108143 1.30004 8.00465 2.055102 
Q 8.901158 2.808085 8.901158 4.068604 
Q 8.901158 4.667662 8.676511 5.204318 
Q 8.453944 5.738894 7.861126 6.466917 
Q 7.698881 6.656202 6.827335 7.55687 
Q 5.957868 8.457537 4.37078 10.075826 
z
" id="m29f572dc99" style="stroke:#000000;"/>
    </defs>
    <g clip-path="url(#p22866e00e7)">
     <use style="stroke:#000000;" x="544.254545" xlink:href="#m29f572dc99" y="286.56"/>
    </g>
   </g>
   <g id="PathCollection_11">
    <defs>
     <path d="M 0.37544 -0.048177 
L -0.776671 5.836135 
L -2.470952 5.836135 
L -2.158615 4.271504 
Q -2.904098 5.190835 -3.858789 5.647555 
Q -4.810533 6.104274 -5.980324 6.104274 
Q -7.297443 6.104274 -8.140164 5.299859 
Q -8.979938 4.492497 -8.979938 3.231362 
Q -8.979938 1.425111 -7.539062 0.37613 
Q -6.098187 -0.672851 -3.567078 -0.672851 
L -1.209817 -0.672851 
L -1.118474 -1.126623 
Q -1.097847 -1.200288 -1.089008 -1.285738 
Q -1.080168 -1.374136 -1.080168 -1.556823 
Q -1.080168 -2.378918 -1.749041 -2.832691 
Q -2.414967 -3.28941 -3.623063 -3.28941 
Q -4.451051 -3.28941 -5.323237 -3.077256 
Q -6.192477 -2.865103 -7.111809 -2.440796 
L -6.817151 -4.008374 
Q -5.859514 -4.367857 -4.943129 -4.544651 
Q -4.026744 -4.724392 -3.172237 -4.724392 
Q -1.348306 -4.724392 -0.396562 -3.931763 
Q 0.558128 -3.142081 0.558128 -1.630488 
Q 0.558128 -1.32699 0.510983 -0.917416 
Q 0.466784 -0.507842 0.37544 -0.048177 
z
M -1.45733 0.653109 
L -3.151611 0.653109 
Q -5.23484 0.653109 -6.233729 1.210011 
Q -7.232618 1.766914 -7.232618 2.936705 
Q -7.232618 3.747013 -6.722861 4.206679 
Q -6.210157 4.666345 -5.308504 4.666345 
Q -3.92656 4.666345 -2.895259 3.676295 
Q -1.863957 2.686246 -1.530994 1.03027 
z
M 5.210973 -2.478218 
L 9.754887 -2.478218 
L 9.754887 -1.382975 
L 3.645457 -1.382975 
L 3.645457 -2.478218 
Q 4.385931 -3.245506 5.664745 -4.536695 
Q 6.945622 -5.829948 7.273576 -6.205341 
Q 7.898544 -6.906626 8.146057 -7.393401 
Q 8.395632 -7.880175 8.395632 -8.350448 
Q 8.395632 -9.117737 7.857292 -9.600386 
Q 7.318953 -10.085098 6.454722 -10.085098 
Q 5.842129 -10.085098 5.16147 -9.87265 
Q 4.482874 -9.660201 3.709398 -9.227055 
L 3.709398 -10.542996 
Q 4.495249 -10.858574 5.177971 -11.019457 
Q 5.862755 -11.18034 6.429971 -11.18034 
Q 7.925358 -11.18034 8.81434 -10.431615 
Q 9.703322 -9.684953 9.703322 -8.435015 
Q 9.703322 -7.840986 9.480561 -7.308834 
Q 9.259862 -6.778745 8.672021 -6.056834 
Q 8.511138 -5.869137 7.646907 -4.97603 
Q 6.784739 -4.082923 5.210973 -2.478218 
z
M 7.157795 5.803134 
Q 8.092154 6.003206 8.616055 6.636425 
Q 9.142019 7.267582 9.142019 8.195753 
Q 9.142019 9.618949 8.162283 10.400676 
Q 7.182546 11.18034 5.377768 11.18034 
Q 4.773426 11.18034 4.131956 11.060709 
Q 3.490487 10.941078 2.807765 10.701816 
L 2.807765 9.445691 
Q 3.348167 9.761269 3.991699 9.922152 
Q 4.637294 10.083035 5.340642 10.083035 
Q 6.563765 10.083035 7.205235 9.600386 
Q 7.846704 9.117737 7.846704 8.195753 
Q 7.846704 7.343898 7.250612 6.865374 
Q 6.65452 6.384788 5.592279 6.384788 
L 4.470223 6.384788 
L 4.470223 5.314297 
L 5.643844 5.314297 
Q 6.602955 5.314297 7.112418 4.930653 
Q 7.621881 4.547008 7.621881 3.825097 
Q 7.621881 3.084623 7.095917 2.688603 
Q 6.572016 2.290521 5.592279 2.290521 
Q 5.056002 2.290521 4.443409 2.408089 
Q 3.830816 2.523595 3.096529 2.766982 
L 3.096529 1.607799 
Q 3.839067 1.401539 4.486724 1.298409 
Q 5.134381 1.195278 5.707785 1.195278 
Q 7.190797 1.195278 8.052965 1.86975 
Q 8.917195 2.542158 8.917195 3.688966 
Q 8.917195 4.489256 8.459297 5.039971 
Q 8.0014 5.590686 7.157795 5.803134 
z
" id="mf1b2a3488b" style="stroke:#000000;"/>
    </defs>
    <g clip-path="url(#p22866e00e7)">
     <use style="stroke:#000000;" x="544.254545" xlink:href="#mf1b2a3488b" y="418.341818"/>
    </g>
   </g>
   <g id="PathCollection_12">
    <defs>
     <path d="M 0.245495 0.046059 
L -0.916369 5.980182 
L -2.624993 5.980182 
L -2.310012 4.402305 
Q -3.061806 5.329419 -4.024578 5.790005 
Q -4.984379 6.25059 -6.164072 6.25059 
Q -7.492341 6.25059 -8.342195 5.439365 
Q -9.189078 4.625169 -9.189078 3.353359 
Q -9.189078 1.531818 -7.736005 0.473957 
Q -6.282933 -0.583903 -3.730398 -0.583903 
L -1.353183 -0.583903 
L -1.261066 -1.041517 
Q -1.240265 -1.115805 -1.23135 -1.201979 
Q -1.222436 -1.291125 -1.222436 -1.475359 
Q -1.222436 -2.304413 -1.896971 -2.762027 
Q -2.568534 -3.222612 -3.786857 -3.222612 
Q -4.621853 -3.222612 -5.501423 -3.008663 
Q -6.378021 -2.794714 -7.305135 -2.366815 
L -7.007983 -3.947663 
Q -6.042239 -4.310188 -5.118097 -4.488479 
Q -4.193955 -4.669742 -3.332214 -4.669742 
Q -1.492844 -4.669742 -0.533043 -3.870403 
Q 0.429729 -3.074036 0.429729 -1.549647 
Q 0.429729 -1.243581 0.382184 -0.83054 
Q 0.337612 -0.417498 0.245495 0.046059 
z
M -1.60279 0.75328 
L -3.311414 0.75328 
Q -5.412277 0.75328 -6.419622 1.314897 
Q -7.426967 1.876514 -7.426967 3.056207 
Q -7.426967 3.873375 -6.912895 4.336932 
Q -6.39585 4.800489 -5.486565 4.800489 
Q -4.092923 4.800489 -3.052891 3.802058 
Q -2.01286 2.803628 -1.677078 1.133634 
z
M 7.969567 -6.533479 
Q 8.911835 -6.331712 9.440171 -5.693133 
Q 9.970587 -5.056634 9.970587 -4.120605 
Q 9.970587 -2.685362 8.982557 -1.897018 
Q 7.994527 -1.110754 6.174472 -1.110754 
Q 5.565014 -1.110754 4.918114 -1.231397 
Q 4.271214 -1.352041 3.582713 -1.593328 
L 3.582713 -2.860087 
Q 4.12769 -2.541837 4.77667 -2.379592 
Q 5.427729 -2.217347 6.137031 -2.217347 
Q 7.370508 -2.217347 8.017408 -2.704082 
Q 8.664308 -3.190817 8.664308 -4.120605 
Q 8.664308 -4.979671 8.06317 -5.462246 
Q 7.462031 -5.946901 6.390799 -5.946901 
L 5.259244 -5.946901 
L 5.259244 -7.026454 
L 6.4428 -7.026454 
Q 7.41003 -7.026454 7.923805 -7.413345 
Q 8.437581 -7.800237 8.437581 -8.528259 
Q 8.437581 -9.275002 7.907165 -9.674374 
Q 7.378829 -10.075826 6.390799 -10.075826 
Q 5.849982 -10.075826 5.232203 -9.957263 
Q 4.614425 -9.840779 3.873922 -9.595332 
L 3.873922 -10.764327 
Q 4.622745 -10.972334 5.275885 -11.076337 
Q 5.929025 -11.18034 6.507282 -11.18034 
Q 8.002848 -11.18034 8.872314 -10.500159 
Q 9.743861 -9.822059 9.743861 -8.665543 
Q 9.743861 -7.858479 9.282087 -7.303102 
Q 8.820313 -6.747725 7.969567 -6.533479 
z
M 3.334908 10.075826 
L 5.479454 10.075826 
L 5.479454 2.670801 
L 3.145623 3.138815 
L 3.145623 1.942779 
L 5.466973 1.474765 
L 6.779493 1.474765 
L 6.779493 10.075826 
L 8.924038 10.075826 
L 8.924038 11.18034 
L 3.334908 11.18034 
z
" id="m2cfad01320" style="stroke:#000000;"/>
    </defs>
    <g clip-path="url(#p22866e00e7)">
     <use style="stroke:#000000;" x="747.163636" xlink:href="#m2cfad01320" y="220.669091"/>
    </g>
   </g>
   <g id="PathCollection_13">
    <defs>
     <path d="M 0.245495 0.046059 
L -0.916369 5.980182 
L -2.624993 5.980182 
L -2.310012 4.402305 
Q -3.061806 5.329419 -4.024578 5.790005 
Q -4.984379 6.25059 -6.164072 6.25059 
Q -7.492341 6.25059 -8.342195 5.439365 
Q -9.189078 4.625169 -9.189078 3.353359 
Q -9.189078 1.531818 -7.736005 0.473957 
Q -6.282933 -0.583903 -3.730398 -0.583903 
L -1.353183 -0.583903 
L -1.261066 -1.041517 
Q -1.240265 -1.115805 -1.23135 -1.201979 
Q -1.222436 -1.291125 -1.222436 -1.475359 
Q -1.222436 -2.304413 -1.896971 -2.762027 
Q -2.568534 -3.222612 -3.786857 -3.222612 
Q -4.621853 -3.222612 -5.501423 -3.008663 
Q -6.378021 -2.794714 -7.305135 -2.366815 
L -7.007983 -3.947663 
Q -6.042239 -4.310188 -5.118097 -4.488479 
Q -4.193955 -4.669742 -3.332214 -4.669742 
Q -1.492844 -4.669742 -0.533043 -3.870403 
Q 0.429729 -3.074036 0.429729 -1.549647 
Q 0.429729 -1.243581 0.382184 -0.83054 
Q 0.337612 -0.417498 0.245495 0.046059 
z
M -1.60279 0.75328 
L -3.311414 0.75328 
Q -5.412277 0.75328 -6.419622 1.314897 
Q -7.426967 1.876514 -7.426967 3.056207 
Q -7.426967 3.873375 -6.912895 4.336932 
Q -6.39585 4.800489 -5.486565 4.800489 
Q -4.092923 4.800489 -3.052891 3.802058 
Q -2.01286 2.803628 -1.677078 1.133634 
z
M 7.969567 -6.533479 
Q 8.911835 -6.331712 9.440171 -5.693133 
Q 9.970587 -5.056634 9.970587 -4.120605 
Q 9.970587 -2.685362 8.982557 -1.897018 
Q 7.994527 -1.110754 6.174472 -1.110754 
Q 5.565014 -1.110754 4.918114 -1.231397 
Q 4.271214 -1.352041 3.582713 -1.593328 
L 3.582713 -2.860087 
Q 4.12769 -2.541837 4.77667 -2.379592 
Q 5.427729 -2.217347 6.137031 -2.217347 
Q 7.370508 -2.217347 8.017408 -2.704082 
Q 8.664308 -3.190817 8.664308 -4.120605 
Q 8.664308 -4.979671 8.06317 -5.462246 
Q 7.462031 -5.946901 6.390799 -5.946901 
L 5.259244 -5.946901 
L 5.259244 -7.026454 
L 6.4428 -7.026454 
Q 7.41003 -7.026454 7.923805 -7.413345 
Q 8.437581 -7.800237 8.437581 -8.528259 
Q 8.437581 -9.275002 7.907165 -9.674374 
Q 7.378829 -10.075826 6.390799 -10.075826 
Q 5.849982 -10.075826 5.232203 -9.957263 
Q 4.614425 -9.840779 3.873922 -9.595332 
L 3.873922 -10.764327 
Q 4.622745 -10.972334 5.275885 -11.076337 
Q 5.929025 -11.18034 6.507282 -11.18034 
Q 8.002848 -11.18034 8.872314 -10.500159 
Q 9.743861 -9.822059 9.743861 -8.665543 
Q 9.743861 -7.858479 9.282087 -7.303102 
Q 8.820313 -6.747725 7.969567 -6.533479 
z
M 4.237656 10.075826 
L 8.820035 10.075826 
L 8.820035 11.18034 
L 2.658888 11.18034 
L 2.658888 10.075826 
Q 3.405631 9.302043 4.69527 7.999923 
Q 5.986989 6.695724 6.317719 6.317152 
Q 6.947978 5.609931 7.197586 5.119036 
Q 7.449274 4.628141 7.449274 4.153886 
Q 7.449274 3.380103 6.906377 2.893368 
Q 6.363481 2.404553 5.491934 2.404553 
Q 4.874155 2.404553 4.187734 2.6188 
Q 3.503394 2.833046 2.72337 3.269859 
L 2.72337 1.942779 
Q 3.515874 1.624529 4.204375 1.462284 
Q 4.894956 1.30004 5.466973 1.30004 
Q 6.975019 1.30004 7.871526 2.055102 
Q 8.768034 2.808085 8.768034 4.068604 
Q 8.768034 4.667662 8.543387 5.204318 
Q 8.32082 5.738894 7.728002 6.466917 
Q 7.565757 6.656202 6.694211 7.55687 
Q 5.824744 8.457537 4.237656 10.075826 
z
" id="m2e94db5b8f" style="stroke:#000000;"/>
    </defs>
    <g clip-path="url(#p22866e00e7)">
     <use style="stroke:#000000;" x="747.163636" xlink:href="#m2e94db5b8f" y="352.450909"/>
    </g>
   </g>
   <g id="matplotlib.axis_1">
    <g id="xtick_1">
     <g id="line2d_31">
      <defs>
       <path d="M 0 0 
L 0 3.5 
" id="mc357d88276" style="stroke:#000000;stroke-width:0.8;"/>
      </defs>
      <g>
       <use style="stroke:#000000;stroke-width:0.8;" x="138.436364" xlink:href="#mc357d88276" y="504"/>
      </g>
     </g>
     <g id="text_1">
      <!-- 0.0 -->
      <defs>
       <path d="M 31.78125 66.40625 
Q 24.171875 66.40625 20.328125 58.90625 
Q 16.5 51.421875 16.5 36.375 
Q 16.5 21.390625 20.328125 13.890625 
Q 24.171875 6.390625 31.78125 6.390625 
Q 39.453125 6.390625 43.28125 13.890625 
Q 47.125 21.390625 47.125 36.375 
Q 47.125 51.421875 43.28125 58.90625 
Q 39.453125 66.40625 31.78125 66.40625 
z
M 31.78125 74.21875 
Q 44.046875 74.21875 50.515625 64.515625 
Q 56.984375 54.828125 56.984375 36.375 
Q 56.984375 17.96875 50.515625 8.265625 
Q 44.046875 -1.421875 31.78125 -1.421875 
Q 19.53125 -1.421875 13.0625 8.265625 
Q 6.59375 17.96875 6.59375 36.375 
Q 6.59375 54.828125 13.0625 64.515625 
Q 19.53125 74.21875 31.78125 74.21875 
z
" id="DejaVuSans-48"/>
       <path d="M 10.6875 12.40625 
L 21 12.40625 
L 21 0 
L 10.6875 0 
z
" id="DejaVuSans-46"/>
      </defs>
      <g transform="translate(130.484801 518.598438)scale(0.1 -0.1)">
       <use xlink:href="#DejaVuSans-48"/>
       <use x="63.623047" xlink:href="#DejaVuSans-46"/>
       <use x="95.410156" xlink:href="#DejaVuSans-48"/>
      </g>
     </g>
    </g>
    <g id="xtick_2">
     <g id="line2d_32">
      <g>
       <use style="stroke:#000000;stroke-width:0.8;" x="239.890909" xlink:href="#mc357d88276" y="504"/>
      </g>
     </g>
     <g id="text_2">
      <!-- 0.5 -->
      <defs>
       <path d="M 10.796875 72.90625 
L 49.515625 72.90625 
L 49.515625 64.59375 
L 19.828125 64.59375 
L 19.828125 46.734375 
Q 21.96875 47.46875 24.109375 47.828125 
Q 26.265625 48.1875 28.421875 48.1875 
Q 40.625 48.1875 47.75 41.5 
Q 54.890625 34.8125 54.890625 23.390625 
Q 54.890625 11.625 47.5625 5.09375 
Q 40.234375 -1.421875 26.90625 -1.421875 
Q 22.3125 -1.421875 17.546875 -0.640625 
Q 12.796875 0.140625 7.71875 1.703125 
L 7.71875 11.625 
Q 12.109375 9.234375 16.796875 8.0625 
Q 21.484375 6.890625 26.703125 6.890625 
Q 35.15625 6.890625 40.078125 11.328125 
Q 45.015625 15.765625 45.015625 23.390625 
Q 45.015625 31 40.078125 35.4375 
Q 35.15625 39.890625 26.703125 39.890625 
Q 22.75 39.890625 18.8125 39.015625 
Q 14.890625 38.140625 10.796875 36.28125 
z
" id="DejaVuSans-53"/>
      </defs>
      <g transform="translate(231.939347 518.598438)scale(0.1 -0.1)">
       <use xlink:href="#DejaVuSans-48"/>
       <use x="63.623047" xlink:href="#DejaVuSans-46"/>
       <use x="95.410156" xlink:href="#DejaVuSans-53"/>
      </g>
     </g>
    </g>
    <g id="xtick_3">
     <g id="line2d_33">
      <g>
       <use style="stroke:#000000;stroke-width:0.8;" x="341.345455" xlink:href="#mc357d88276" y="504"/>
      </g>
     </g>
     <g id="text_3">
      <!-- 1.0 -->
      <defs>
       <path d="M 12.40625 8.296875 
L 28.515625 8.296875 
L 28.515625 63.921875 
L 10.984375 60.40625 
L 10.984375 69.390625 
L 28.421875 72.90625 
L 38.28125 72.90625 
L 38.28125 8.296875 
L 54.390625 8.296875 
L 54.390625 0 
L 12.40625 0 
z
" id="DejaVuSans-49"/>
      </defs>
      <g transform="translate(333.393892 518.598438)scale(0.1 -0.1)">
       <use xlink:href="#DejaVuSans-49"/>
       <use x="63.623047" xlink:href="#DejaVuSans-46"/>
       <use x="95.410156" xlink:href="#DejaVuSans-48"/>
      </g>
     </g>
    </g>
    <g id="xtick_4">
     <g id="line2d_34">
      <g>
       <use style="stroke:#000000;stroke-width:0.8;" x="442.8" xlink:href="#mc357d88276" y="504"/>
      </g>
     </g>
     <g id="text_4">
      <!-- 1.5 -->
      <g transform="translate(434.848437 518.598438)scale(0.1 -0.1)">
       <use xlink:href="#DejaVuSans-49"/>
       <use x="63.623047" xlink:href="#DejaVuSans-46"/>
       <use x="95.410156" xlink:href="#DejaVuSans-53"/>
      </g>
     </g>
    </g>
    <g id="xtick_5">
     <g id="line2d_35">
      <g>
       <use style="stroke:#000000;stroke-width:0.8;" x="544.254545" xlink:href="#mc357d88276" y="504"/>
      </g>
     </g>
     <g id="text_5">
      <!-- 2.0 -->
      <defs>
       <path d="M 19.1875 8.296875 
L 53.609375 8.296875 
L 53.609375 0 
L 7.328125 0 
L 7.328125 8.296875 
Q 12.9375 14.109375 22.625 23.890625 
Q 32.328125 33.6875 34.8125 36.53125 
Q 39.546875 41.84375 41.421875 45.53125 
Q 43.3125 49.21875 43.3125 52.78125 
Q 43.3125 58.59375 39.234375 62.25 
Q 35.15625 65.921875 28.609375 65.921875 
Q 23.96875 65.921875 18.8125 64.3125 
Q 13.671875 62.703125 7.8125 59.421875 
L 7.8125 69.390625 
Q 13.765625 71.78125 18.9375 73 
Q 24.125 74.21875 28.421875 74.21875 
Q 39.75 74.21875 46.484375 68.546875 
Q 53.21875 62.890625 53.21875 53.421875 
Q 53.21875 48.921875 51.53125 44.890625 
Q 49.859375 40.875 45.40625 35.40625 
Q 44.1875 33.984375 37.640625 27.21875 
Q 31.109375 20.453125 19.1875 8.296875 
z
" id="DejaVuSans-50"/>
      </defs>
      <g transform="translate(536.302983 518.598438)scale(0.1 -0.1)">
       <use xlink:href="#DejaVuSans-50"/>
       <use x="63.623047" xlink:href="#DejaVuSans-46"/>
       <use x="95.410156" xlink:href="#DejaVuSans-48"/>
      </g>
     </g>
    </g>
    <g id="xtick_6">
     <g id="line2d_36">
      <g>
       <use style="stroke:#000000;stroke-width:0.8;" x="645.709091" xlink:href="#mc357d88276" y="504"/>
      </g>
     </g>
     <g id="text_6">
      <!-- 2.5 -->
      <g transform="translate(637.757528 518.598438)scale(0.1 -0.1)">
       <use xlink:href="#DejaVuSans-50"/>
       <use x="63.623047" xlink:href="#DejaVuSans-46"/>
       <use x="95.410156" xlink:href="#DejaVuSans-53"/>
      </g>
     </g>
    </g>
    <g id="xtick_7">
     <g id="line2d_37">
      <g>
       <use style="stroke:#000000;stroke-width:0.8;" x="747.163636" xlink:href="#mc357d88276" y="504"/>
      </g>
     </g>
     <g id="text_7">
      <!-- 3.0 -->
      <defs>
       <path d="M 40.578125 39.3125 
Q 47.65625 37.796875 51.625 33 
Q 55.609375 28.21875 55.609375 21.1875 
Q 55.609375 10.40625 48.1875 4.484375 
Q 40.765625 -1.421875 27.09375 -1.421875 
Q 22.515625 -1.421875 17.65625 -0.515625 
Q 12.796875 0.390625 7.625 2.203125 
L 7.625 11.71875 
Q 11.71875 9.328125 16.59375 8.109375 
Q 21.484375 6.890625 26.8125 6.890625 
Q 36.078125 6.890625 40.9375 10.546875 
Q 45.796875 14.203125 45.796875 21.1875 
Q 45.796875 27.640625 41.28125 31.265625 
Q 36.765625 34.90625 28.71875 34.90625 
L 20.21875 34.90625 
L 20.21875 43.015625 
L 29.109375 43.015625 
Q 36.375 43.015625 40.234375 45.921875 
Q 44.09375 48.828125 44.09375 54.296875 
Q 44.09375 59.90625 40.109375 62.90625 
Q 36.140625 65.921875 28.71875 65.921875 
Q 24.65625 65.921875 20.015625 65.03125 
Q 15.375 64.15625 9.8125 62.3125 
L 9.8125 71.09375 
Q 15.4375 72.65625 20.34375 73.4375 
Q 25.25 74.21875 29.59375 74.21875 
Q 40.828125 74.21875 47.359375 69.109375 
Q 53.90625 64.015625 53.90625 55.328125 
Q 53.90625 49.265625 50.4375 45.09375 
Q 46.96875 40.921875 40.578125 39.3125 
z
" id="DejaVuSans-51"/>
      </defs>
      <g transform="translate(739.212074 518.598438)scale(0.1 -0.1)">
       <use xlink:href="#DejaVuSans-51"/>
       <use x="63.623047" xlink:href="#DejaVuSans-46"/>
       <use x="95.410156" xlink:href="#DejaVuSans-48"/>
      </g>
     </g>
    </g>
   </g>
   <g id="matplotlib.axis_2">
    <g id="ytick_1">
     <g id="line2d_38">
      <defs>
       <path d="M 0 0 
L -3.5 0 
" id="m39c97b62dd" style="stroke:#000000;stroke-width:0.8;"/>
      </defs>
      <g>
       <use style="stroke:#000000;stroke-width:0.8;" x="108" xlink:href="#m39c97b62dd" y="484.232727"/>
      </g>
     </g>
     <g id="text_8">
      <!-- −1.0 -->
      <defs>
       <path d="M 10.59375 35.5 
L 73.1875 35.5 
L 73.1875 27.203125 
L 10.59375 27.203125 
z
" id="DejaVuSans-8722"/>
      </defs>
      <g transform="translate(76.717187 488.031946)scale(0.1 -0.1)">
       <use xlink:href="#DejaVuSans-8722"/>
       <use x="83.789062" xlink:href="#DejaVuSans-49"/>
       <use x="147.412109" xlink:href="#DejaVuSans-46"/>
       <use x="179.199219" xlink:href="#DejaVuSans-48"/>
      </g>
     </g>
    </g>
    <g id="ytick_2">
     <g id="line2d_39">
      <g>
       <use style="stroke:#000000;stroke-width:0.8;" x="108" xlink:href="#m39c97b62dd" y="418.341818"/>
      </g>
     </g>
     <g id="text_9">
      <!-- −0.5 -->
      <g transform="translate(76.717187 422.141037)scale(0.1 -0.1)">
       <use xlink:href="#DejaVuSans-8722"/>
       <use x="83.789062" xlink:href="#DejaVuSans-48"/>
       <use x="147.412109" xlink:href="#DejaVuSans-46"/>
       <use x="179.199219" xlink:href="#DejaVuSans-53"/>
      </g>
     </g>
    </g>
    <g id="ytick_3">
     <g id="line2d_40">
      <g>
       <use style="stroke:#000000;stroke-width:0.8;" x="108" xlink:href="#m39c97b62dd" y="352.450909"/>
      </g>
     </g>
     <g id="text_10">
      <!-- 0.0 -->
      <g transform="translate(85.096875 356.250128)scale(0.1 -0.1)">
       <use xlink:href="#DejaVuSans-48"/>
       <use x="63.623047" xlink:href="#DejaVuSans-46"/>
       <use x="95.410156" xlink:href="#DejaVuSans-48"/>
      </g>
     </g>
    </g>
    <g id="ytick_4">
     <g id="line2d_41">
      <g>
       <use style="stroke:#000000;stroke-width:0.8;" x="108" xlink:href="#m39c97b62dd" y="286.56"/>
      </g>
     </g>
     <g id="text_11">
      <!-- 0.5 -->
      <g transform="translate(85.096875 290.359219)scale(0.1 -0.1)">
       <use xlink:href="#DejaVuSans-48"/>
       <use x="63.623047" xlink:href="#DejaVuSans-46"/>
       <use x="95.410156" xlink:href="#DejaVuSans-53"/>
      </g>
     </g>
    </g>
    <g id="ytick_5">
     <g id="line2d_42">
      <g>
       <use style="stroke:#000000;stroke-width:0.8;" x="108" xlink:href="#m39c97b62dd" y="220.669091"/>
      </g>
     </g>
     <g id="text_12">
      <!-- 1.0 -->
      <g transform="translate(85.096875 224.46831)scale(0.1 -0.1)">
       <use xlink:href="#DejaVuSans-49"/>
       <use x="63.623047" xlink:href="#DejaVuSans-46"/>
       <use x="95.410156" xlink:href="#DejaVuSans-48"/>
      </g>
     </g>
    </g>
    <g id="ytick_6">
     <g id="line2d_43">
      <g>
       <use style="stroke:#000000;stroke-width:0.8;" x="108" xlink:href="#m39c97b62dd" y="154.778182"/>
      </g>
     </g>
     <g id="text_13">
      <!-- 1.5 -->
      <g transform="translate(85.096875 158.577401)scale(0.1 -0.1)">
       <use xlink:href="#DejaVuSans-49"/>
       <use x="63.623047" xlink:href="#DejaVuSans-46"/>
       <use x="95.410156" xlink:href="#DejaVuSans-53"/>
      </g>
     </g>
    </g>
    <g id="ytick_7">
     <g id="line2d_44">
      <g>
       <use style="stroke:#000000;stroke-width:0.8;" x="108" xlink:href="#m39c97b62dd" y="88.887273"/>
      </g>
     </g>
     <g id="text_14">
      <!-- 2.0 -->
      <g transform="translate(85.096875 92.686491)scale(0.1 -0.1)">
       <use xlink:href="#DejaVuSans-50"/>
       <use x="63.623047" xlink:href="#DejaVuSans-46"/>
       <use x="95.410156" xlink:href="#DejaVuSans-48"/>
      </g>
     </g>
    </g>
   </g>
   <g id="patch_3">
    <path d="M 108 504 
L 108 69.12 
" style="fill:none;stroke:#000000;stroke-linecap:square;stroke-linejoin:miter;stroke-width:0.8;"/>
   </g>
   <g id="patch_4">
    <path d="M 777.6 504 
L 777.6 69.12 
" style="fill:none;stroke:#000000;stroke-linecap:square;stroke-linejoin:miter;stroke-width:0.8;"/>
   </g>
   <g id="patch_5">
    <path d="M 108 504 
L 777.6 504 
" style="fill:none;stroke:#000000;stroke-linecap:square;stroke-linejoin:miter;stroke-width:0.8;"/>
   </g>
   <g id="patch_6">
    <path d="M 108 69.12 
L 777.6 69.12 
" style="fill:none;stroke:#000000;stroke-linecap:square;stroke-linejoin:miter;stroke-width:0.8;"/>
   </g>
  </g>
 </g>
 <defs>
  <clipPath id="p22866e00e7">
   <rect height="434.88" width="669.6" x="108" y="69.12"/>
  </clipPath>
 </defs>
</svg>
