<?xml version="1.0" encoding="utf-8" standalone="no"?>
<!DOCTYPE svg PUBLIC "-//W3C//DTD SVG 1.1//EN"
  "http://www.w3.org/Graphics/SVG/1.1/DTD/svg11.dtd">
<!-- Created with matplotlib (http://matplotlib.org/) -->
<svg height="288pt" version="1.1" viewBox="0 0 432 288" width="432pt" xmlns="http://www.w3.org/2000/svg" xmlns:xlink="http://www.w3.org/1999/xlink">
 <defs>
  <style type="text/css">
*{stroke-linecap:butt;stroke-linejoin:round;}
  </style>
 </defs>
 <g id="figure_1">
  <g id="patch_1">
   <path d="M 0 288 
L 432 288 
L 432 0 
L 0 0 
z
" style="fill:#ffffff;"/>
  </g>
  <g id="axes_1">
   <g id="patch_2">
    <path d="M 54 252 
L 388.8 252 
L 388.8 34.56 
L 54 34.56 
z
" style="fill:#ffffff;"/>
   </g>
   <g id="PathCollection_1">
    <defs>
     <path d="M 0 3 
C 0.795609 3 1.55874 2.683901 2.12132 2.12132 
C 2.683901 1.55874 3 0.795609 3 0 
C 3 -0.795609 2.683901 -1.55874 2.12132 -2.12132 
C 1.55874 -2.683901 0.795609 -3 0 -3 
C -0.795609 -3 -1.55874 -2.683901 -2.12132 -2.12132 
C -2.683901 -1.55874 -3 -0.795609 -3 0 
C -3 0.795609 -2.683901 1.55874 -2.12132 2.12132 
C -1.55874 2.683901 -0.795609 3 0 3 
z
" id="m6b5770c61a" style="stroke:#1f77b4;"/>
    </defs>
    <g clip-path="url(#pc3d61b0964)">
     <use style="fill:#1f77b4;stroke:#1f77b4;" x="72.188901" xlink:href="#m6b5770c61a" y="152.620068"/>
     <use style="fill:#1f77b4;stroke:#1f77b4;" x="102.328192" xlink:href="#m6b5770c61a" y="190.48182"/>
     <use style="fill:#1f77b4;stroke:#1f77b4;" x="132.467484" xlink:href="#m6b5770c61a" y="217.525928"/>
     <use style="fill:#1f77b4;stroke:#1f77b4;" x="162.606776" xlink:href="#m6b5770c61a" y="233.752392"/>
     <use style="fill:#1f77b4;stroke:#1f77b4;" x="192.746068" xlink:href="#m6b5770c61a" y="239.161214"/>
     <use style="fill:#1f77b4;stroke:#1f77b4;" x="222.885359" xlink:href="#m6b5770c61a" y="233.752392"/>
     <use style="fill:#1f77b4;stroke:#1f77b4;" x="253.024651" xlink:href="#m6b5770c61a" y="217.525928"/>
     <use style="fill:#1f77b4;stroke:#1f77b4;" x="283.163943" xlink:href="#m6b5770c61a" y="190.48182"/>
     <use style="fill:#1f77b4;stroke:#1f77b4;" x="313.303235" xlink:href="#m6b5770c61a" y="152.620068"/>
     <use style="fill:#1f77b4;stroke:#1f77b4;" x="343.442526" xlink:href="#m6b5770c61a" y="103.940674"/>
    </g>
   </g>
   <g id="patch_3">
    <path clip-path="url(#pc3d61b0964)" d="M 72.188901 239.161214 
L 72.188901 152.620068 
L 82.235331 152.620068 
L 82.235331 239.161214 
z
" style="fill:#ff7f0e;opacity:0.3;stroke:#ff7f0e;stroke-linejoin:miter;"/>
   </g>
   <g id="patch_4">
    <path clip-path="url(#pc3d61b0964)" d="M 82.235331 239.161214 
L 82.235331 166.442613 
L 92.281762 166.442613 
L 92.281762 239.161214 
z
" style="fill:#ff7f0e;opacity:0.3;stroke:#ff7f0e;stroke-linejoin:miter;"/>
   </g>
   <g id="patch_5">
    <path clip-path="url(#pc3d61b0964)" d="M 92.281762 239.161214 
L 92.281762 179.063196 
L 102.328192 179.063196 
L 102.328192 239.161214 
z
" style="fill:#ff7f0e;opacity:0.3;stroke:#ff7f0e;stroke-linejoin:miter;"/>
   </g>
   <g id="patch_6">
    <path clip-path="url(#pc3d61b0964)" d="M 102.328192 239.161214 
L 102.328192 190.48182 
L 112.374623 190.48182 
L 112.374623 239.161214 
z
" style="fill:#ff7f0e;opacity:0.3;stroke:#ff7f0e;stroke-linejoin:miter;"/>
   </g>
   <g id="patch_7">
    <path clip-path="url(#pc3d61b0964)" d="M 112.374623 239.161214 
L 112.374623 200.698483 
L 122.421053 200.698483 
L 122.421053 239.161214 
z
" style="fill:#ff7f0e;opacity:0.3;stroke:#ff7f0e;stroke-linejoin:miter;"/>
   </g>
   <g id="patch_8">
    <path clip-path="url(#pc3d61b0964)" d="M 122.421053 239.161214 
L 122.421053 209.713185 
L 132.467484 209.713185 
L 132.467484 239.161214 
z
" style="fill:#ff7f0e;opacity:0.3;stroke:#ff7f0e;stroke-linejoin:miter;"/>
   </g>
   <g id="patch_9">
    <path clip-path="url(#pc3d61b0964)" d="M 132.467484 239.161214 
L 132.467484 217.525928 
L 142.513915 217.525928 
L 142.513915 239.161214 
z
" style="fill:#ff7f0e;opacity:0.3;stroke:#ff7f0e;stroke-linejoin:miter;"/>
   </g>
   <g id="patch_10">
    <path clip-path="url(#pc3d61b0964)" d="M 142.513915 239.161214 
L 142.513915 224.13671 
L 152.560345 224.13671 
L 152.560345 239.161214 
z
" style="fill:#ff7f0e;opacity:0.3;stroke:#ff7f0e;stroke-linejoin:miter;"/>
   </g>
   <g id="patch_11">
    <path clip-path="url(#pc3d61b0964)" d="M 152.560345 239.161214 
L 152.560345 229.545531 
L 162.606776 229.545531 
L 162.606776 239.161214 
z
" style="fill:#ff7f0e;opacity:0.3;stroke:#ff7f0e;stroke-linejoin:miter;"/>
   </g>
   <g id="patch_12">
    <path clip-path="url(#pc3d61b0964)" d="M 162.606776 239.161214 
L 162.606776 233.752392 
L 172.653206 233.752392 
L 172.653206 239.161214 
z
" style="fill:#ff7f0e;opacity:0.3;stroke:#ff7f0e;stroke-linejoin:miter;"/>
   </g>
   <g id="patch_13">
    <path clip-path="url(#pc3d61b0964)" d="M 172.653206 239.161214 
L 172.653206 236.757293 
L 182.699637 236.757293 
L 182.699637 239.161214 
z
" style="fill:#ff7f0e;opacity:0.3;stroke:#ff7f0e;stroke-linejoin:miter;"/>
   </g>
   <g id="patch_14">
    <path clip-path="url(#pc3d61b0964)" d="M 182.699637 239.161214 
L 182.699637 238.560234 
L 192.746068 238.560234 
L 192.746068 239.161214 
z
" style="fill:#ff7f0e;opacity:0.3;stroke:#ff7f0e;stroke-linejoin:miter;"/>
   </g>
   <g id="patch_15">
    <path clip-path="url(#pc3d61b0964)" d="M 192.746068 239.161214 
L 192.746068 239.161214 
L 202.792498 239.161214 
L 202.792498 239.161214 
z
" style="fill:#ff7f0e;opacity:0.3;stroke:#ff7f0e;stroke-linejoin:miter;"/>
   </g>
   <g id="patch_16">
    <path clip-path="url(#pc3d61b0964)" d="M 202.792498 239.161214 
L 202.792498 238.560234 
L 212.838929 238.560234 
L 212.838929 239.161214 
z
" style="fill:#ff7f0e;opacity:0.3;stroke:#ff7f0e;stroke-linejoin:miter;"/>
   </g>
   <g id="patch_17">
    <path clip-path="url(#pc3d61b0964)" d="M 212.838929 239.161214 
L 212.838929 236.757293 
L 222.885359 236.757293 
L 222.885359 239.161214 
z
" style="fill:#ff7f0e;opacity:0.3;stroke:#ff7f0e;stroke-linejoin:miter;"/>
   </g>
   <g id="patch_18">
    <path clip-path="url(#pc3d61b0964)" d="M 222.885359 239.161214 
L 222.885359 233.752392 
L 232.93179 233.752392 
L 232.93179 239.161214 
z
" style="fill:#ff7f0e;opacity:0.3;stroke:#ff7f0e;stroke-linejoin:miter;"/>
   </g>
   <g id="patch_19">
    <path clip-path="url(#pc3d61b0964)" d="M 232.93179 239.161214 
L 232.93179 229.545531 
L 242.978221 229.545531 
L 242.978221 239.161214 
z
" style="fill:#ff7f0e;opacity:0.3;stroke:#ff7f0e;stroke-linejoin:miter;"/>
   </g>
   <g id="patch_20">
    <path clip-path="url(#pc3d61b0964)" d="M 242.978221 239.161214 
L 242.978221 224.13671 
L 253.024651 224.13671 
L 253.024651 239.161214 
z
" style="fill:#ff7f0e;opacity:0.3;stroke:#ff7f0e;stroke-linejoin:miter;"/>
   </g>
   <g id="patch_21">
    <path clip-path="url(#pc3d61b0964)" d="M 253.024651 239.161214 
L 253.024651 217.525928 
L 263.071082 217.525928 
L 263.071082 239.161214 
z
" style="fill:#ff7f0e;opacity:0.3;stroke:#ff7f0e;stroke-linejoin:miter;"/>
   </g>
   <g id="patch_22">
    <path clip-path="url(#pc3d61b0964)" d="M 263.071082 239.161214 
L 263.071082 209.713185 
L 273.117512 209.713185 
L 273.117512 239.161214 
z
" style="fill:#ff7f0e;opacity:0.3;stroke:#ff7f0e;stroke-linejoin:miter;"/>
   </g>
   <g id="patch_23">
    <path clip-path="url(#pc3d61b0964)" d="M 273.117512 239.161214 
L 273.117512 200.698483 
L 283.163943 200.698483 
L 283.163943 239.161214 
z
" style="fill:#ff7f0e;opacity:0.3;stroke:#ff7f0e;stroke-linejoin:miter;"/>
   </g>
   <g id="patch_24">
    <path clip-path="url(#pc3d61b0964)" d="M 283.163943 239.161214 
L 283.163943 190.48182 
L 293.210373 190.48182 
L 293.210373 239.161214 
z
" style="fill:#ff7f0e;opacity:0.3;stroke:#ff7f0e;stroke-linejoin:miter;"/>
   </g>
   <g id="patch_25">
    <path clip-path="url(#pc3d61b0964)" d="M 293.210373 239.161214 
L 293.210373 179.063196 
L 303.256804 179.063196 
L 303.256804 239.161214 
z
" style="fill:#ff7f0e;opacity:0.3;stroke:#ff7f0e;stroke-linejoin:miter;"/>
   </g>
   <g id="patch_26">
    <path clip-path="url(#pc3d61b0964)" d="M 303.256804 239.161214 
L 303.256804 166.442613 
L 313.303235 166.442613 
L 313.303235 239.161214 
z
" style="fill:#ff7f0e;opacity:0.3;stroke:#ff7f0e;stroke-linejoin:miter;"/>
   </g>
   <g id="patch_27">
    <path clip-path="url(#pc3d61b0964)" d="M 313.303235 239.161214 
L 313.303235 152.620068 
L 323.349665 152.620068 
L 323.349665 239.161214 
z
" style="fill:#ff7f0e;opacity:0.3;stroke:#ff7f0e;stroke-linejoin:miter;"/>
   </g>
   <g id="patch_28">
    <path clip-path="url(#pc3d61b0964)" d="M 323.349665 239.161214 
L 323.349665 137.595564 
L 333.396096 137.595564 
L 333.396096 239.161214 
z
" style="fill:#ff7f0e;opacity:0.3;stroke:#ff7f0e;stroke-linejoin:miter;"/>
   </g>
   <g id="patch_29">
    <path clip-path="url(#pc3d61b0964)" d="M 333.396096 239.161214 
L 333.396096 121.369099 
L 343.442526 121.369099 
L 343.442526 239.161214 
z
" style="fill:#ff7f0e;opacity:0.3;stroke:#ff7f0e;stroke-linejoin:miter;"/>
   </g>
   <g id="patch_30">
    <path clip-path="url(#pc3d61b0964)" d="M 343.442526 239.161214 
L 343.442526 103.940674 
L 353.488957 103.940674 
L 353.488957 239.161214 
z
" style="fill:#ff7f0e;opacity:0.3;stroke:#ff7f0e;stroke-linejoin:miter;"/>
   </g>
   <g id="patch_31">
    <path clip-path="url(#pc3d61b0964)" d="M 353.488957 239.161214 
L 353.488957 85.310288 
L 363.535388 85.310288 
L 363.535388 239.161214 
z
" style="fill:#ff7f0e;opacity:0.3;stroke:#ff7f0e;stroke-linejoin:miter;"/>
   </g>
   <g id="patch_32">
    <path clip-path="url(#pc3d61b0964)" d="M 363.535388 239.161214 
L 363.535388 65.477943 
L 373.581818 65.477943 
L 373.581818 239.161214 
z
" style="fill:#ff7f0e;opacity:0.3;stroke:#ff7f0e;stroke-linejoin:miter;"/>
   </g>
   <g id="matplotlib.axis_1">
    <g id="xtick_1">
     <g id="line2d_1">
      <defs>
       <path d="M 0 0 
L 0 3.5 
" id="md30741a2ff" style="stroke:#000000;stroke-width:0.8;"/>
      </defs>
      <g>
       <use style="stroke:#000000;stroke-width:0.8;" x="72.188901" xlink:href="#md30741a2ff" y="252"/>
      </g>
     </g>
     <g id="text_1">
      <!-- 0 -->
      <defs>
       <path d="M 31.78125 66.40625 
Q 24.171875 66.40625 20.328125 58.90625 
Q 16.5 51.421875 16.5 36.375 
Q 16.5 21.390625 20.328125 13.890625 
Q 24.171875 6.390625 31.78125 6.390625 
Q 39.453125 6.390625 43.28125 13.890625 
Q 47.125 21.390625 47.125 36.375 
Q 47.125 51.421875 43.28125 58.90625 
Q 39.453125 66.40625 31.78125 66.40625 
z
M 31.78125 74.21875 
Q 44.046875 74.21875 50.515625 64.515625 
Q 56.984375 54.828125 56.984375 36.375 
Q 56.984375 17.96875 50.515625 8.265625 
Q 44.046875 -1.421875 31.78125 -1.421875 
Q 19.53125 -1.421875 13.0625 8.265625 
Q 6.59375 17.96875 6.59375 36.375 
Q 6.59375 54.828125 13.0625 64.515625 
Q 19.53125 74.21875 31.78125 74.21875 
z
" id="DejaVuSans-30"/>
      </defs>
      <g transform="translate(69.007651 266.598437)scale(0.1 -0.1)">
       <use xlink:href="#DejaVuSans-30"/>
      </g>
     </g>
    </g>
    <g id="xtick_2">
     <g id="line2d_2">
      <g>
       <use style="stroke:#000000;stroke-width:0.8;" x="132.467484" xlink:href="#md30741a2ff" y="252"/>
      </g>
     </g>
     <g id="text_2">
      <!-- 2 -->
      <defs>
       <path d="M 19.1875 8.296875 
L 53.609375 8.296875 
L 53.609375 0 
L 7.328125 0 
L 7.328125 8.296875 
Q 12.9375 14.109375 22.625 23.890625 
Q 32.328125 33.6875 34.8125 36.53125 
Q 39.546875 41.84375 41.421875 45.53125 
Q 43.3125 49.21875 43.3125 52.78125 
Q 43.3125 58.59375 39.234375 62.25 
Q 35.15625 65.921875 28.609375 65.921875 
Q 23.96875 65.921875 18.8125 64.3125 
Q 13.671875 62.703125 7.8125 59.421875 
L 7.8125 69.390625 
Q 13.765625 71.78125 18.9375 73 
Q 24.125 74.21875 28.421875 74.21875 
Q 39.75 74.21875 46.484375 68.546875 
Q 53.21875 62.890625 53.21875 53.421875 
Q 53.21875 48.921875 51.53125 44.890625 
Q 49.859375 40.875 45.40625 35.40625 
Q 44.1875 33.984375 37.640625 27.21875 
Q 31.109375 20.453125 19.1875 8.296875 
z
" id="DejaVuSans-32"/>
      </defs>
      <g transform="translate(129.286234 266.598437)scale(0.1 -0.1)">
       <use xlink:href="#DejaVuSans-32"/>
      </g>
     </g>
    </g>
    <g id="xtick_3">
     <g id="line2d_3">
      <g>
       <use style="stroke:#000000;stroke-width:0.8;" x="192.746068" xlink:href="#md30741a2ff" y="252"/>
      </g>
     </g>
     <g id="text_3">
      <!-- 4 -->
      <defs>
       <path d="M 37.796875 64.3125 
L 12.890625 25.390625 
L 37.796875 25.390625 
z
M 35.203125 72.90625 
L 47.609375 72.90625 
L 47.609375 25.390625 
L 58.015625 25.390625 
L 58.015625 17.1875 
L 47.609375 17.1875 
L 47.609375 0 
L 37.796875 0 
L 37.796875 17.1875 
L 4.890625 17.1875 
L 4.890625 26.703125 
z
" id="DejaVuSans-34"/>
      </defs>
      <g transform="translate(189.564818 266.598437)scale(0.1 -0.1)">
       <use xlink:href="#DejaVuSans-34"/>
      </g>
     </g>
    </g>
    <g id="xtick_4">
     <g id="line2d_4">
      <g>
       <use style="stroke:#000000;stroke-width:0.8;" x="253.024651" xlink:href="#md30741a2ff" y="252"/>
      </g>
     </g>
     <g id="text_4">
      <!-- 6 -->
      <defs>
       <path d="M 33.015625 40.375 
Q 26.375 40.375 22.484375 35.828125 
Q 18.609375 31.296875 18.609375 23.390625 
Q 18.609375 15.53125 22.484375 10.953125 
Q 26.375 6.390625 33.015625 6.390625 
Q 39.65625 6.390625 43.53125 10.953125 
Q 47.40625 15.53125 47.40625 23.390625 
Q 47.40625 31.296875 43.53125 35.828125 
Q 39.65625 40.375 33.015625 40.375 
z
M 52.59375 71.296875 
L 52.59375 62.3125 
Q 48.875 64.0625 45.09375 64.984375 
Q 41.3125 65.921875 37.59375 65.921875 
Q 27.828125 65.921875 22.671875 59.328125 
Q 17.53125 52.734375 16.796875 39.40625 
Q 19.671875 43.65625 24.015625 45.921875 
Q 28.375 48.1875 33.59375 48.1875 
Q 44.578125 48.1875 50.953125 41.515625 
Q 57.328125 34.859375 57.328125 23.390625 
Q 57.328125 12.15625 50.6875 5.359375 
Q 44.046875 -1.421875 33.015625 -1.421875 
Q 20.359375 -1.421875 13.671875 8.265625 
Q 6.984375 17.96875 6.984375 36.375 
Q 6.984375 53.65625 15.1875 63.9375 
Q 23.390625 74.21875 37.203125 74.21875 
Q 40.921875 74.21875 44.703125 73.484375 
Q 48.484375 72.75 52.59375 71.296875 
z
" id="DejaVuSans-36"/>
      </defs>
      <g transform="translate(249.843401 266.598437)scale(0.1 -0.1)">
       <use xlink:href="#DejaVuSans-36"/>
      </g>
     </g>
    </g>
    <g id="xtick_5">
     <g id="line2d_5">
      <g>
       <use style="stroke:#000000;stroke-width:0.8;" x="313.303235" xlink:href="#md30741a2ff" y="252"/>
      </g>
     </g>
     <g id="text_5">
      <!-- 8 -->
      <defs>
       <path d="M 31.78125 34.625 
Q 24.75 34.625 20.71875 30.859375 
Q 16.703125 27.09375 16.703125 20.515625 
Q 16.703125 13.921875 20.71875 10.15625 
Q 24.75 6.390625 31.78125 6.390625 
Q 38.8125 6.390625 42.859375 10.171875 
Q 46.921875 13.96875 46.921875 20.515625 
Q 46.921875 27.09375 42.890625 30.859375 
Q 38.875 34.625 31.78125 34.625 
z
M 21.921875 38.8125 
Q 15.578125 40.375 12.03125 44.71875 
Q 8.5 49.078125 8.5 55.328125 
Q 8.5 64.0625 14.71875 69.140625 
Q 20.953125 74.21875 31.78125 74.21875 
Q 42.671875 74.21875 48.875 69.140625 
Q 55.078125 64.0625 55.078125 55.328125 
Q 55.078125 49.078125 51.53125 44.71875 
Q 48 40.375 41.703125 38.8125 
Q 48.828125 37.15625 52.796875 32.3125 
Q 56.78125 27.484375 56.78125 20.515625 
Q 56.78125 9.90625 50.3125 4.234375 
Q 43.84375 -1.421875 31.78125 -1.421875 
Q 19.734375 -1.421875 13.25 4.234375 
Q 6.78125 9.90625 6.78125 20.515625 
Q 6.78125 27.484375 10.78125 32.3125 
Q 14.796875 37.15625 21.921875 38.8125 
z
M 18.3125 54.390625 
Q 18.3125 48.734375 21.84375 45.5625 
Q 25.390625 42.390625 31.78125 42.390625 
Q 38.140625 42.390625 41.71875 45.5625 
Q 45.3125 48.734375 45.3125 54.390625 
Q 45.3125 60.0625 41.71875 63.234375 
Q 38.140625 66.40625 31.78125 66.40625 
Q 25.390625 66.40625 21.84375 63.234375 
Q 18.3125 60.0625 18.3125 54.390625 
z
" id="DejaVuSans-38"/>
      </defs>
      <g transform="translate(310.121985 266.598437)scale(0.1 -0.1)">
       <use xlink:href="#DejaVuSans-38"/>
      </g>
     </g>
    </g>
    <g id="xtick_6">
     <g id="line2d_6">
      <g>
       <use style="stroke:#000000;stroke-width:0.8;" x="373.581818" xlink:href="#md30741a2ff" y="252"/>
      </g>
     </g>
     <g id="text_6">
      <!-- 10 -->
      <defs>
       <path d="M 12.40625 8.296875 
L 28.515625 8.296875 
L 28.515625 63.921875 
L 10.984375 60.40625 
L 10.984375 69.390625 
L 28.421875 72.90625 
L 38.28125 72.90625 
L 38.28125 8.296875 
L 54.390625 8.296875 
L 54.390625 0 
L 12.40625 0 
z
" id="DejaVuSans-31"/>
      </defs>
      <g transform="translate(367.219318 266.598437)scale(0.1 -0.1)">
       <use xlink:href="#DejaVuSans-31"/>
       <use x="63.623047" xlink:href="#DejaVuSans-30"/>
      </g>
     </g>
    </g>
    <g id="text_7">
     <!-- time (hr) -->
     <defs>
      <path d="M 18.3125 70.21875 
L 18.3125 54.6875 
L 36.8125 54.6875 
L 36.8125 47.703125 
L 18.3125 47.703125 
L 18.3125 18.015625 
Q 18.3125 11.328125 20.140625 9.421875 
Q 21.96875 7.515625 27.59375 7.515625 
L 36.8125 7.515625 
L 36.8125 0 
L 27.59375 0 
Q 17.1875 0 13.234375 3.875 
Q 9.28125 7.765625 9.28125 18.015625 
L 9.28125 47.703125 
L 2.6875 47.703125 
L 2.6875 54.6875 
L 9.28125 54.6875 
L 9.28125 70.21875 
z
" id="DejaVuSans-74"/>
      <path d="M 9.421875 54.6875 
L 18.40625 54.6875 
L 18.40625 0 
L 9.421875 0 
z
M 9.421875 75.984375 
L 18.40625 75.984375 
L 18.40625 64.59375 
L 9.421875 64.59375 
z
" id="DejaVuSans-69"/>
      <path d="M 52 44.1875 
Q 55.375 50.25 60.0625 53.125 
Q 64.75 56 71.09375 56 
Q 79.640625 56 84.28125 50.015625 
Q 88.921875 44.046875 88.921875 33.015625 
L 88.921875 0 
L 79.890625 0 
L 79.890625 32.71875 
Q 79.890625 40.578125 77.09375 44.375 
Q 74.3125 48.1875 68.609375 48.1875 
Q 61.625 48.1875 57.5625 43.546875 
Q 53.515625 38.921875 53.515625 30.90625 
L 53.515625 0 
L 44.484375 0 
L 44.484375 32.71875 
Q 44.484375 40.625 41.703125 44.40625 
Q 38.921875 48.1875 33.109375 48.1875 
Q 26.21875 48.1875 22.15625 43.53125 
Q 18.109375 38.875 18.109375 30.90625 
L 18.109375 0 
L 9.078125 0 
L 9.078125 54.6875 
L 18.109375 54.6875 
L 18.109375 46.1875 
Q 21.1875 51.21875 25.484375 53.609375 
Q 29.78125 56 35.6875 56 
Q 41.65625 56 45.828125 52.96875 
Q 50 49.953125 52 44.1875 
z
" id="DejaVuSans-6d"/>
      <path d="M 56.203125 29.59375 
L 56.203125 25.203125 
L 14.890625 25.203125 
Q 15.484375 15.921875 20.484375 11.0625 
Q 25.484375 6.203125 34.421875 6.203125 
Q 39.59375 6.203125 44.453125 7.46875 
Q 49.3125 8.734375 54.109375 11.28125 
L 54.109375 2.78125 
Q 49.265625 0.734375 44.1875 -0.34375 
Q 39.109375 -1.421875 33.890625 -1.421875 
Q 20.796875 -1.421875 13.15625 6.1875 
Q 5.515625 13.8125 5.515625 26.8125 
Q 5.515625 40.234375 12.765625 48.109375 
Q 20.015625 56 32.328125 56 
Q 43.359375 56 49.78125 48.890625 
Q 56.203125 41.796875 56.203125 29.59375 
z
M 47.21875 32.234375 
Q 47.125 39.59375 43.09375 43.984375 
Q 39.0625 48.390625 32.421875 48.390625 
Q 24.90625 48.390625 20.390625 44.140625 
Q 15.875 39.890625 15.1875 32.171875 
z
" id="DejaVuSans-65"/>
      <path id="DejaVuSans-20"/>
      <path d="M 31 75.875 
Q 24.46875 64.65625 21.28125 53.65625 
Q 18.109375 42.671875 18.109375 31.390625 
Q 18.109375 20.125 21.3125 9.0625 
Q 24.515625 -2 31 -13.1875 
L 23.1875 -13.1875 
Q 15.875 -1.703125 12.234375 9.375 
Q 8.59375 20.453125 8.59375 31.390625 
Q 8.59375 42.28125 12.203125 53.3125 
Q 15.828125 64.359375 23.1875 75.875 
z
" id="DejaVuSans-28"/>
      <path d="M 54.890625 33.015625 
L 54.890625 0 
L 45.90625 0 
L 45.90625 32.71875 
Q 45.90625 40.484375 42.875 44.328125 
Q 39.84375 48.1875 33.796875 48.1875 
Q 26.515625 48.1875 22.3125 43.546875 
Q 18.109375 38.921875 18.109375 30.90625 
L 18.109375 0 
L 9.078125 0 
L 9.078125 75.984375 
L 18.109375 75.984375 
L 18.109375 46.1875 
Q 21.34375 51.125 25.703125 53.5625 
Q 30.078125 56 35.796875 56 
Q 45.21875 56 50.046875 50.171875 
Q 54.890625 44.34375 54.890625 33.015625 
z
" id="DejaVuSans-68"/>
      <path d="M 41.109375 46.296875 
Q 39.59375 47.171875 37.8125 47.578125 
Q 36.03125 48 33.890625 48 
Q 26.265625 48 22.1875 43.046875 
Q 18.109375 38.09375 18.109375 28.8125 
L 18.109375 0 
L 9.078125 0 
L 9.078125 54.6875 
L 18.109375 54.6875 
L 18.109375 46.1875 
Q 20.953125 51.171875 25.484375 53.578125 
Q 30.03125 56 36.53125 56 
Q 37.453125 56 38.578125 55.875 
Q 39.703125 55.765625 41.0625 55.515625 
z
" id="DejaVuSans-72"/>
      <path d="M 8.015625 75.875 
L 15.828125 75.875 
Q 23.140625 64.359375 26.78125 53.3125 
Q 30.421875 42.28125 30.421875 31.390625 
Q 30.421875 20.453125 26.78125 9.375 
Q 23.140625 -1.703125 15.828125 -13.1875 
L 8.015625 -13.1875 
Q 14.5 -2 17.703125 9.0625 
Q 20.90625 20.125 20.90625 31.390625 
Q 20.90625 42.671875 17.703125 53.65625 
Q 14.5 64.65625 8.015625 75.875 
z
" id="DejaVuSans-29"/>
     </defs>
     <g transform="translate(181.780313 286.355313)scale(0.18 -0.18)">
      <use xlink:href="#DejaVuSans-74"/>
      <use x="39.208984" xlink:href="#DejaVuSans-69"/>
      <use x="66.992188" xlink:href="#DejaVuSans-6d"/>
      <use x="164.404297" xlink:href="#DejaVuSans-65"/>
      <use x="225.927734" xlink:href="#DejaVuSans-20"/>
      <use x="257.714844" xlink:href="#DejaVuSans-28"/>
      <use x="296.728516" xlink:href="#DejaVuSans-68"/>
      <use x="360.107422" xlink:href="#DejaVuSans-72"/>
      <use x="401.220703" xlink:href="#DejaVuSans-29"/>
     </g>
    </g>
   </g>
   <g id="matplotlib.axis_2">
    <g id="ytick_1">
     <g id="line2d_7">
      <defs>
       <path d="M 0 0 
L -3.5 0 
" id="md67a7d4163" style="stroke:#000000;stroke-width:0.8;"/>
      </defs>
      <g>
       <use style="stroke:#000000;stroke-width:0.8;" x="54" xlink:href="#md67a7d4163" y="239.161214"/>
      </g>
     </g>
     <g id="text_8">
      <!-- 0.00 -->
      <defs>
       <path d="M 10.6875 12.40625 
L 21 12.40625 
L 21 0 
L 10.6875 0 
z
" id="DejaVuSans-2e"/>
      </defs>
      <g transform="translate(24.734375 242.960433)scale(0.1 -0.1)">
       <use xlink:href="#DejaVuSans-30"/>
       <use x="63.623047" xlink:href="#DejaVuSans-2e"/>
       <use x="95.410156" xlink:href="#DejaVuSans-30"/>
       <use x="159.033203" xlink:href="#DejaVuSans-30"/>
      </g>
     </g>
    </g>
    <g id="ytick_2">
     <g id="line2d_8">
      <g>
       <use style="stroke:#000000;stroke-width:0.8;" x="54" xlink:href="#md67a7d4163" y="210.314166"/>
      </g>
     </g>
     <g id="text_9">
      <!-- 0.25 -->
      <defs>
       <path d="M 10.796875 72.90625 
L 49.515625 72.90625 
L 49.515625 64.59375 
L 19.828125 64.59375 
L 19.828125 46.734375 
Q 21.96875 47.46875 24.109375 47.828125 
Q 26.265625 48.1875 28.421875 48.1875 
Q 40.625 48.1875 47.75 41.5 
Q 54.890625 34.8125 54.890625 23.390625 
Q 54.890625 11.625 47.5625 5.09375 
Q 40.234375 -1.421875 26.90625 -1.421875 
Q 22.3125 -1.421875 17.546875 -0.640625 
Q 12.796875 0.140625 7.71875 1.703125 
L 7.71875 11.625 
Q 12.109375 9.234375 16.796875 8.0625 
Q 21.484375 6.890625 26.703125 6.890625 
Q 35.15625 6.890625 40.078125 11.328125 
Q 45.015625 15.765625 45.015625 23.390625 
Q 45.015625 31 40.078125 35.4375 
Q 35.15625 39.890625 26.703125 39.890625 
Q 22.75 39.890625 18.8125 39.015625 
Q 14.890625 38.140625 10.796875 36.28125 
z
" id="DejaVuSans-35"/>
      </defs>
      <g transform="translate(24.734375 214.113384)scale(0.1 -0.1)">
       <use xlink:href="#DejaVuSans-30"/>
       <use x="63.623047" xlink:href="#DejaVuSans-2e"/>
       <use x="95.410156" xlink:href="#DejaVuSans-32"/>
       <use x="159.033203" xlink:href="#DejaVuSans-35"/>
      </g>
     </g>
    </g>
    <g id="ytick_3">
     <g id="line2d_9">
      <g>
       <use style="stroke:#000000;stroke-width:0.8;" x="54" xlink:href="#md67a7d4163" y="181.467117"/>
      </g>
     </g>
     <g id="text_10">
      <!-- 0.50 -->
      <g transform="translate(24.734375 185.266336)scale(0.1 -0.1)">
       <use xlink:href="#DejaVuSans-30"/>
       <use x="63.623047" xlink:href="#DejaVuSans-2e"/>
       <use x="95.410156" xlink:href="#DejaVuSans-35"/>
       <use x="159.033203" xlink:href="#DejaVuSans-30"/>
      </g>
     </g>
    </g>
    <g id="ytick_4">
     <g id="line2d_10">
      <g>
       <use style="stroke:#000000;stroke-width:0.8;" x="54" xlink:href="#md67a7d4163" y="152.620068"/>
      </g>
     </g>
     <g id="text_11">
      <!-- 0.75 -->
      <defs>
       <path d="M 8.203125 72.90625 
L 55.078125 72.90625 
L 55.078125 68.703125 
L 28.609375 0 
L 18.3125 0 
L 43.21875 64.59375 
L 8.203125 64.59375 
z
" id="DejaVuSans-37"/>
      </defs>
      <g transform="translate(24.734375 156.419287)scale(0.1 -0.1)">
       <use xlink:href="#DejaVuSans-30"/>
       <use x="63.623047" xlink:href="#DejaVuSans-2e"/>
       <use x="95.410156" xlink:href="#DejaVuSans-37"/>
       <use x="159.033203" xlink:href="#DejaVuSans-35"/>
      </g>
     </g>
    </g>
    <g id="ytick_5">
     <g id="line2d_11">
      <g>
       <use style="stroke:#000000;stroke-width:0.8;" x="54" xlink:href="#md67a7d4163" y="123.77302"/>
      </g>
     </g>
     <g id="text_12">
      <!-- 1.00 -->
      <g transform="translate(24.734375 127.572239)scale(0.1 -0.1)">
       <use xlink:href="#DejaVuSans-31"/>
       <use x="63.623047" xlink:href="#DejaVuSans-2e"/>
       <use x="95.410156" xlink:href="#DejaVuSans-30"/>
       <use x="159.033203" xlink:href="#DejaVuSans-30"/>
      </g>
     </g>
    </g>
    <g id="ytick_6">
     <g id="line2d_12">
      <g>
       <use style="stroke:#000000;stroke-width:0.8;" x="54" xlink:href="#md67a7d4163" y="94.925971"/>
      </g>
     </g>
     <g id="text_13">
      <!-- 1.25 -->
      <g transform="translate(24.734375 98.72519)scale(0.1 -0.1)">
       <use xlink:href="#DejaVuSans-31"/>
       <use x="63.623047" xlink:href="#DejaVuSans-2e"/>
       <use x="95.410156" xlink:href="#DejaVuSans-32"/>
       <use x="159.033203" xlink:href="#DejaVuSans-35"/>
      </g>
     </g>
    </g>
    <g id="ytick_7">
     <g id="line2d_13">
      <g>
       <use style="stroke:#000000;stroke-width:0.8;" x="54" xlink:href="#md67a7d4163" y="66.078923"/>
      </g>
     </g>
     <g id="text_14">
      <!-- 1.50 -->
      <g transform="translate(24.734375 69.878142)scale(0.1 -0.1)">
       <use xlink:href="#DejaVuSans-31"/>
       <use x="63.623047" xlink:href="#DejaVuSans-2e"/>
       <use x="95.410156" xlink:href="#DejaVuSans-35"/>
       <use x="159.033203" xlink:href="#DejaVuSans-30"/>
      </g>
     </g>
    </g>
    <g id="ytick_8">
     <g id="line2d_14">
      <g>
       <use style="stroke:#000000;stroke-width:0.8;" x="54" xlink:href="#md67a7d4163" y="37.231874"/>
      </g>
     </g>
     <g id="text_15">
      <!-- 1.75 -->
      <g transform="translate(24.734375 41.031093)scale(0.1 -0.1)">
       <use xlink:href="#DejaVuSans-31"/>
       <use x="63.623047" xlink:href="#DejaVuSans-2e"/>
       <use x="95.410156" xlink:href="#DejaVuSans-37"/>
       <use x="159.033203" xlink:href="#DejaVuSans-35"/>
      </g>
     </g>
    </g>
    <g id="text_16">
     <!-- flow rate (bbl/hr) -->
     <defs>
      <path d="M 37.109375 75.984375 
L 37.109375 68.5 
L 28.515625 68.5 
Q 23.6875 68.5 21.796875 66.546875 
Q 19.921875 64.59375 19.921875 59.515625 
L 19.921875 54.6875 
L 34.71875 54.6875 
L 34.71875 47.703125 
L 19.921875 47.703125 
L 19.921875 0 
L 10.890625 0 
L 10.890625 47.703125 
L 2.296875 47.703125 
L 2.296875 54.6875 
L 10.890625 54.6875 
L 10.890625 58.5 
Q 10.890625 67.625 15.140625 71.796875 
Q 19.390625 75.984375 28.609375 75.984375 
z
" id="DejaVuSans-66"/>
      <path d="M 9.421875 75.984375 
L 18.40625 75.984375 
L 18.40625 0 
L 9.421875 0 
z
" id="DejaVuSans-6c"/>
      <path d="M 30.609375 48.390625 
Q 23.390625 48.390625 19.1875 42.75 
Q 14.984375 37.109375 14.984375 27.296875 
Q 14.984375 17.484375 19.15625 11.84375 
Q 23.34375 6.203125 30.609375 6.203125 
Q 37.796875 6.203125 41.984375 11.859375 
Q 46.1875 17.53125 46.1875 27.296875 
Q 46.1875 37.015625 41.984375 42.703125 
Q 37.796875 48.390625 30.609375 48.390625 
z
M 30.609375 56 
Q 42.328125 56 49.015625 48.375 
Q 55.71875 40.765625 55.71875 27.296875 
Q 55.71875 13.875 49.015625 6.21875 
Q 42.328125 -1.421875 30.609375 -1.421875 
Q 18.84375 -1.421875 12.171875 6.21875 
Q 5.515625 13.875 5.515625 27.296875 
Q 5.515625 40.765625 12.171875 48.375 
Q 18.84375 56 30.609375 56 
z
" id="DejaVuSans-6f"/>
      <path d="M 4.203125 54.6875 
L 13.1875 54.6875 
L 24.421875 12.015625 
L 35.59375 54.6875 
L 46.1875 54.6875 
L 57.421875 12.015625 
L 68.609375 54.6875 
L 77.59375 54.6875 
L 63.28125 0 
L 52.6875 0 
L 40.921875 44.828125 
L 29.109375 0 
L 18.5 0 
z
" id="DejaVuSans-77"/>
      <path d="M 34.28125 27.484375 
Q 23.390625 27.484375 19.1875 25 
Q 14.984375 22.515625 14.984375 16.5 
Q 14.984375 11.71875 18.140625 8.90625 
Q 21.296875 6.109375 26.703125 6.109375 
Q 34.1875 6.109375 38.703125 11.40625 
Q 43.21875 16.703125 43.21875 25.484375 
L 43.21875 27.484375 
z
M 52.203125 31.203125 
L 52.203125 0 
L 43.21875 0 
L 43.21875 8.296875 
Q 40.140625 3.328125 35.546875 0.953125 
Q 30.953125 -1.421875 24.3125 -1.421875 
Q 15.921875 -1.421875 10.953125 3.296875 
Q 6 8.015625 6 15.921875 
Q 6 25.140625 12.171875 29.828125 
Q 18.359375 34.515625 30.609375 34.515625 
L 43.21875 34.515625 
L 43.21875 35.40625 
Q 43.21875 41.609375 39.140625 45 
Q 35.0625 48.390625 27.6875 48.390625 
Q 23 48.390625 18.546875 47.265625 
Q 14.109375 46.140625 10.015625 43.890625 
L 10.015625 52.203125 
Q 14.9375 54.109375 19.578125 55.046875 
Q 24.21875 56 28.609375 56 
Q 40.484375 56 46.34375 49.84375 
Q 52.203125 43.703125 52.203125 31.203125 
z
" id="DejaVuSans-61"/>
      <path d="M 48.6875 27.296875 
Q 48.6875 37.203125 44.609375 42.84375 
Q 40.53125 48.484375 33.40625 48.484375 
Q 26.265625 48.484375 22.1875 42.84375 
Q 18.109375 37.203125 18.109375 27.296875 
Q 18.109375 17.390625 22.1875 11.75 
Q 26.265625 6.109375 33.40625 6.109375 
Q 40.53125 6.109375 44.609375 11.75 
Q 48.6875 17.390625 48.6875 27.296875 
z
M 18.109375 46.390625 
Q 20.953125 51.265625 25.265625 53.625 
Q 29.59375 56 35.59375 56 
Q 45.5625 56 51.78125 48.09375 
Q 58.015625 40.1875 58.015625 27.296875 
Q 58.015625 14.40625 51.78125 6.484375 
Q 45.5625 -1.421875 35.59375 -1.421875 
Q 29.59375 -1.421875 25.265625 0.953125 
Q 20.953125 3.328125 18.109375 8.203125 
L 18.109375 0 
L 9.078125 0 
L 9.078125 75.984375 
L 18.109375 75.984375 
z
" id="DejaVuSans-62"/>
      <path d="M 25.390625 72.90625 
L 33.6875 72.90625 
L 8.296875 -9.28125 
L 0 -9.28125 
z
" id="DejaVuSans-2f"/>
     </defs>
     <g transform="translate(16.990937 219.203438)rotate(-90)scale(0.18 -0.18)">
      <use xlink:href="#DejaVuSans-66"/>
      <use x="35.205078" xlink:href="#DejaVuSans-6c"/>
      <use x="62.988281" xlink:href="#DejaVuSans-6f"/>
      <use x="124.169922" xlink:href="#DejaVuSans-77"/>
      <use x="205.957031" xlink:href="#DejaVuSans-20"/>
      <use x="237.744141" xlink:href="#DejaVuSans-72"/>
      <use x="278.857422" xlink:href="#DejaVuSans-61"/>
      <use x="340.136719" xlink:href="#DejaVuSans-74"/>
      <use x="379.345703" xlink:href="#DejaVuSans-65"/>
      <use x="440.869141" xlink:href="#DejaVuSans-20"/>
      <use x="472.65625" xlink:href="#DejaVuSans-28"/>
      <use x="511.669922" xlink:href="#DejaVuSans-62"/>
      <use x="575.146484" xlink:href="#DejaVuSans-62"/>
      <use x="638.623047" xlink:href="#DejaVuSans-6c"/>
      <use x="666.40625" xlink:href="#DejaVuSans-2f"/>
      <use x="700.097656" xlink:href="#DejaVuSans-68"/>
      <use x="763.476562" xlink:href="#DejaVuSans-72"/>
      <use x="804.589844" xlink:href="#DejaVuSans-29"/>
     </g>
    </g>
   </g>
   <g id="line2d_15">
    <path clip-path="url(#pc3d61b0964)" d="M 72.188901 152.620068 
L 77.921098 160.654057 
L 83.653296 168.296747 
L 89.083799 175.176241 
L 94.514302 181.704541 
L 99.944805 187.881648 
L 105.073613 193.393112 
L 110.202422 198.591321 
L 115.33123 203.476273 
L 120.460039 208.047969 
L 125.287152 212.064584 
L 130.114266 215.803713 
L 134.94138 219.265355 
L 139.768494 222.449511 
L 144.595607 225.356181 
L 149.121027 227.82917 
L 153.646446 230.058274 
L 158.171865 232.043494 
L 162.697284 233.784829 
L 167.222703 235.28228 
L 171.748123 236.535846 
L 176.273542 237.545528 
L 180.497266 238.26786 
L 184.720991 238.777741 
L 188.944715 239.075172 
L 193.16844 239.160152 
L 197.392165 239.032682 
L 201.615889 238.692761 
L 205.839614 238.140389 
L 210.063338 237.375568 
L 214.287063 236.398295 
L 218.812482 235.115463 
L 223.337901 233.588746 
L 227.86332 231.818145 
L 232.38874 229.803659 
L 236.914159 227.545288 
L 241.439578 225.043033 
L 245.964997 222.296894 
L 250.792111 219.098863 
L 255.619225 215.623347 
L 260.446339 211.870344 
L 265.273452 207.839854 
L 270.100566 203.531879 
L 275.229375 198.650612 
L 280.358183 193.456089 
L 285.486991 187.94831 
L 290.6158 182.127274 
L 296.046303 175.622387 
L 301.476806 168.766306 
L 306.907309 161.559031 
L 312.639507 153.570351 
L 318.371704 145.190371 
L 324.103902 136.419092 
L 330.137794 126.763434 
L 336.171686 116.674203 
L 342.205579 106.1514 
L 348.239471 95.195025 
L 354.575058 83.224198 
L 360.910644 70.775358 
L 367.246231 57.848504 
L 373.581818 44.443636 
L 373.581818 44.443636 
" style="fill:none;stroke:#1f77b4;stroke-linecap:square;stroke-width:1.5;"/>
   </g>
   <g id="line2d_16">
    <path clip-path="url(#pc3d61b0964)" d="M 72.188901 239.161214 
L 72.188901 152.620068 
L 82.235331 152.620068 
L 82.235331 239.161214 
L 72.188901 239.161214 
" style="fill:none;stroke:#ff7f0e;stroke-linecap:square;stroke-width:1.5;"/>
   </g>
   <g id="line2d_17">
    <path clip-path="url(#pc3d61b0964)" d="M 82.235331 239.161214 
L 82.235331 166.442613 
L 92.281762 166.442613 
L 92.281762 239.161214 
L 82.235331 239.161214 
" style="fill:none;stroke:#ff7f0e;stroke-linecap:square;stroke-width:1.5;"/>
   </g>
   <g id="line2d_18">
    <path clip-path="url(#pc3d61b0964)" d="M 92.281762 239.161214 
L 92.281762 179.063196 
L 102.328192 179.063196 
L 102.328192 239.161214 
L 92.281762 239.161214 
" style="fill:none;stroke:#ff7f0e;stroke-linecap:square;stroke-width:1.5;"/>
   </g>
   <g id="line2d_19">
    <path clip-path="url(#pc3d61b0964)" d="M 102.328192 239.161214 
L 102.328192 190.48182 
L 112.374623 190.48182 
L 112.374623 239.161214 
L 102.328192 239.161214 
" style="fill:none;stroke:#ff7f0e;stroke-linecap:square;stroke-width:1.5;"/>
   </g>
   <g id="line2d_20">
    <path clip-path="url(#pc3d61b0964)" d="M 112.374623 239.161214 
L 112.374623 200.698483 
L 122.421053 200.698483 
L 122.421053 239.161214 
L 112.374623 239.161214 
" style="fill:none;stroke:#ff7f0e;stroke-linecap:square;stroke-width:1.5;"/>
   </g>
   <g id="line2d_21">
    <path clip-path="url(#pc3d61b0964)" d="M 122.421053 239.161214 
L 122.421053 209.713185 
L 132.467484 209.713185 
L 132.467484 239.161214 
L 122.421053 239.161214 
" style="fill:none;stroke:#ff7f0e;stroke-linecap:square;stroke-width:1.5;"/>
   </g>
   <g id="line2d_22">
    <path clip-path="url(#pc3d61b0964)" d="M 132.467484 239.161214 
L 132.467484 217.525928 
L 142.513915 217.525928 
L 142.513915 239.161214 
L 132.467484 239.161214 
" style="fill:none;stroke:#ff7f0e;stroke-linecap:square;stroke-width:1.5;"/>
   </g>
   <g id="line2d_23">
    <path clip-path="url(#pc3d61b0964)" d="M 142.513915 239.161214 
L 142.513915 224.13671 
L 152.560345 224.13671 
L 152.560345 239.161214 
L 142.513915 239.161214 
" style="fill:none;stroke:#ff7f0e;stroke-linecap:square;stroke-width:1.5;"/>
   </g>
   <g id="line2d_24">
    <path clip-path="url(#pc3d61b0964)" d="M 152.560345 239.161214 
L 152.560345 229.545531 
L 162.606776 229.545531 
L 162.606776 239.161214 
L 152.560345 239.161214 
" style="fill:none;stroke:#ff7f0e;stroke-linecap:square;stroke-width:1.5;"/>
   </g>
   <g id="line2d_25">
    <path clip-path="url(#pc3d61b0964)" d="M 162.606776 239.161214 
L 162.606776 233.752392 
L 172.653206 233.752392 
L 172.653206 239.161214 
L 162.606776 239.161214 
" style="fill:none;stroke:#ff7f0e;stroke-linecap:square;stroke-width:1.5;"/>
   </g>
   <g id="line2d_26">
    <path clip-path="url(#pc3d61b0964)" d="M 172.653206 239.161214 
L 172.653206 236.757293 
L 182.699637 236.757293 
L 182.699637 239.161214 
L 172.653206 239.161214 
" style="fill:none;stroke:#ff7f0e;stroke-linecap:square;stroke-width:1.5;"/>
   </g>
   <g id="line2d_27">
    <path clip-path="url(#pc3d61b0964)" d="M 182.699637 239.161214 
L 182.699637 238.560234 
L 192.746068 238.560234 
L 192.746068 239.161214 
L 182.699637 239.161214 
" style="fill:none;stroke:#ff7f0e;stroke-linecap:square;stroke-width:1.5;"/>
   </g>
   <g id="line2d_28">
    <path clip-path="url(#pc3d61b0964)" d="M 192.746068 239.161214 
L 192.746068 239.161214 
L 202.792498 239.161214 
L 202.792498 239.161214 
L 192.746068 239.161214 
" style="fill:none;stroke:#ff7f0e;stroke-linecap:square;stroke-width:1.5;"/>
   </g>
   <g id="line2d_29">
    <path clip-path="url(#pc3d61b0964)" d="M 202.792498 239.161214 
L 202.792498 238.560234 
L 212.838929 238.560234 
L 212.838929 239.161214 
L 202.792498 239.161214 
" style="fill:none;stroke:#ff7f0e;stroke-linecap:square;stroke-width:1.5;"/>
   </g>
   <g id="line2d_30">
    <path clip-path="url(#pc3d61b0964)" d="M 212.838929 239.161214 
L 212.838929 236.757293 
L 222.885359 236.757293 
L 222.885359 239.161214 
L 212.838929 239.161214 
" style="fill:none;stroke:#ff7f0e;stroke-linecap:square;stroke-width:1.5;"/>
   </g>
   <g id="line2d_31">
    <path clip-path="url(#pc3d61b0964)" d="M 222.885359 239.161214 
L 222.885359 233.752392 
L 232.93179 233.752392 
L 232.93179 239.161214 
L 222.885359 239.161214 
" style="fill:none;stroke:#ff7f0e;stroke-linecap:square;stroke-width:1.5;"/>
   </g>
   <g id="line2d_32">
    <path clip-path="url(#pc3d61b0964)" d="M 232.93179 239.161214 
L 232.93179 229.545531 
L 242.978221 229.545531 
L 242.978221 239.161214 
L 232.93179 239.161214 
" style="fill:none;stroke:#ff7f0e;stroke-linecap:square;stroke-width:1.5;"/>
   </g>
   <g id="line2d_33">
    <path clip-path="url(#pc3d61b0964)" d="M 242.978221 239.161214 
L 242.978221 224.13671 
L 253.024651 224.13671 
L 253.024651 239.161214 
L 242.978221 239.161214 
" style="fill:none;stroke:#ff7f0e;stroke-linecap:square;stroke-width:1.5;"/>
   </g>
   <g id="line2d_34">
    <path clip-path="url(#pc3d61b0964)" d="M 253.024651 239.161214 
L 253.024651 217.525928 
L 263.071082 217.525928 
L 263.071082 239.161214 
L 253.024651 239.161214 
" style="fill:none;stroke:#ff7f0e;stroke-linecap:square;stroke-width:1.5;"/>
   </g>
   <g id="line2d_35">
    <path clip-path="url(#pc3d61b0964)" d="M 263.071082 239.161214 
L 263.071082 209.713185 
L 273.117512 209.713185 
L 273.117512 239.161214 
L 263.071082 239.161214 
" style="fill:none;stroke:#ff7f0e;stroke-linecap:square;stroke-width:1.5;"/>
   </g>
   <g id="line2d_36">
    <path clip-path="url(#pc3d61b0964)" d="M 273.117512 239.161214 
L 273.117512 200.698483 
L 283.163943 200.698483 
L 283.163943 239.161214 
L 273.117512 239.161214 
" style="fill:none;stroke:#ff7f0e;stroke-linecap:square;stroke-width:1.5;"/>
   </g>
   <g id="line2d_37">
    <path clip-path="url(#pc3d61b0964)" d="M 283.163943 239.161214 
L 283.163943 190.48182 
L 293.210373 190.48182 
L 293.210373 239.161214 
L 283.163943 239.161214 
" style="fill:none;stroke:#ff7f0e;stroke-linecap:square;stroke-width:1.5;"/>
   </g>
   <g id="line2d_38">
    <path clip-path="url(#pc3d61b0964)" d="M 293.210373 239.161214 
L 293.210373 179.063196 
L 303.256804 179.063196 
L 303.256804 239.161214 
L 293.210373 239.161214 
" style="fill:none;stroke:#ff7f0e;stroke-linecap:square;stroke-width:1.5;"/>
   </g>
   <g id="line2d_39">
    <path clip-path="url(#pc3d61b0964)" d="M 303.256804 239.161214 
L 303.256804 166.442613 
L 313.303235 166.442613 
L 313.303235 239.161214 
L 303.256804 239.161214 
" style="fill:none;stroke:#ff7f0e;stroke-linecap:square;stroke-width:1.5;"/>
   </g>
   <g id="line2d_40">
    <path clip-path="url(#pc3d61b0964)" d="M 313.303235 239.161214 
L 313.303235 152.620068 
L 323.349665 152.620068 
L 323.349665 239.161214 
L 313.303235 239.161214 
" style="fill:none;stroke:#ff7f0e;stroke-linecap:square;stroke-width:1.5;"/>
   </g>
   <g id="line2d_41">
    <path clip-path="url(#pc3d61b0964)" d="M 323.349665 239.161214 
L 323.349665 137.595564 
L 333.396096 137.595564 
L 333.396096 239.161214 
L 323.349665 239.161214 
" style="fill:none;stroke:#ff7f0e;stroke-linecap:square;stroke-width:1.5;"/>
   </g>
   <g id="line2d_42">
    <path clip-path="url(#pc3d61b0964)" d="M 333.396096 239.161214 
L 333.396096 121.369099 
L 343.442526 121.369099 
L 343.442526 239.161214 
L 333.396096 239.161214 
" style="fill:none;stroke:#ff7f0e;stroke-linecap:square;stroke-width:1.5;"/>
   </g>
   <g id="line2d_43">
    <path clip-path="url(#pc3d61b0964)" d="M 343.442526 239.161214 
L 343.442526 103.940674 
L 353.488957 103.940674 
L 353.488957 239.161214 
L 343.442526 239.161214 
" style="fill:none;stroke:#ff7f0e;stroke-linecap:square;stroke-width:1.5;"/>
   </g>
   <g id="line2d_44">
    <path clip-path="url(#pc3d61b0964)" d="M 353.488957 239.161214 
L 353.488957 85.310288 
L 363.535388 85.310288 
L 363.535388 239.161214 
L 353.488957 239.161214 
" style="fill:none;stroke:#ff7f0e;stroke-linecap:square;stroke-width:1.5;"/>
   </g>
   <g id="line2d_45">
    <path clip-path="url(#pc3d61b0964)" d="M 363.535388 239.161214 
L 363.535388 65.477943 
L 373.581818 65.477943 
L 373.581818 239.161214 
L 363.535388 239.161214 
" style="fill:none;stroke:#ff7f0e;stroke-linecap:square;stroke-width:1.5;"/>
   </g>
   <g id="patch_33">
    <path d="M 54 252 
L 54 34.56 
" style="fill:none;stroke:#000000;stroke-linecap:square;stroke-linejoin:miter;stroke-width:0.8;"/>
   </g>
   <g id="patch_34">
    <path d="M 388.8 252 
L 388.8 34.56 
" style="fill:none;stroke:#000000;stroke-linecap:square;stroke-linejoin:miter;stroke-width:0.8;"/>
   </g>
   <g id="patch_35">
    <path d="M 54 252 
L 388.8 252 
" style="fill:none;stroke:#000000;stroke-linecap:square;stroke-linejoin:miter;stroke-width:0.8;"/>
   </g>
   <g id="patch_36">
    <path d="M 54 34.56 
L 388.8 34.56 
" style="fill:none;stroke:#000000;stroke-linecap:square;stroke-linejoin:miter;stroke-width:0.8;"/>
   </g>
  </g>
 </g>
 <defs>
  <clipPath id="pc3d61b0964">
   <rect height="217.44" width="334.8" x="54" y="34.56"/>
  </clipPath>
 </defs>
</svg>
