<?xml version="1.0" encoding="utf-8" standalone="no"?>
<!DOCTYPE svg PUBLIC "-//W3C//DTD SVG 1.1//EN"
  "http://www.w3.org/Graphics/SVG/1.1/DTD/svg11.dtd">
<!-- Created with matplotlib (http://matplotlib.org/) -->
<svg height="288pt" version="1.1" viewBox="0 0 432 288" width="432pt" xmlns="http://www.w3.org/2000/svg" xmlns:xlink="http://www.w3.org/1999/xlink">
 <defs>
  <style type="text/css">
*{stroke-linecap:butt;stroke-linejoin:round;}
  </style>
 </defs>
 <g id="figure_1">
  <g id="patch_1">
   <path d="M 0 288 
L 432 288 
L 432 0 
L 0 0 
z
" style="fill:#ffffff;"/>
  </g>
  <g id="axes_1">
   <g id="patch_2">
    <path d="M 54 252 
L 388.8 252 
L 388.8 34.56 
L 54 34.56 
z
" style="fill:#ffffff;"/>
   </g>
   <g id="PathCollection_1">
    <defs>
     <path d="M 0 3 
C 0.795609 3 1.55874 2.683901 2.12132 2.12132 
C 2.683901 1.55874 3 0.795609 3 0 
C 3 -0.795609 2.683901 -1.55874 2.12132 -2.12132 
C 1.55874 -2.683901 0.795609 -3 0 -3 
C -0.795609 -3 -1.55874 -2.683901 -2.12132 -2.12132 
C -2.683901 -1.55874 -3 -0.795609 -3 0 
C -3 0.795609 -2.683901 1.55874 -2.12132 2.12132 
C -1.55874 2.683901 -0.795609 3 0 3 
z
" id="m0c93a0b171" style="stroke:#1f77b4;"/>
    </defs>
    <g clip-path="url(#p5a0e517d31)">
     <use style="fill:#1f77b4;stroke:#1f77b4;" x="109.8" xlink:href="#m0c93a0b171" y="208.512"/>
     <use style="fill:#1f77b4;stroke:#1f77b4;" x="112.054545" xlink:href="#m0c93a0b171" y="207.194182"/>
     <use style="fill:#1f77b4;stroke:#1f77b4;" x="114.309091" xlink:href="#m0c93a0b171" y="205.876364"/>
     <use style="fill:#1f77b4;stroke:#1f77b4;" x="116.563636" xlink:href="#m0c93a0b171" y="204.558545"/>
     <use style="fill:#1f77b4;stroke:#1f77b4;" x="118.818182" xlink:href="#m0c93a0b171" y="203.240727"/>
     <use style="fill:#1f77b4;stroke:#1f77b4;" x="121.072727" xlink:href="#m0c93a0b171" y="201.922909"/>
     <use style="fill:#1f77b4;stroke:#1f77b4;" x="123.327273" xlink:href="#m0c93a0b171" y="200.605091"/>
     <use style="fill:#1f77b4;stroke:#1f77b4;" x="125.581818" xlink:href="#m0c93a0b171" y="199.287273"/>
     <use style="fill:#1f77b4;stroke:#1f77b4;" x="127.836364" xlink:href="#m0c93a0b171" y="197.969455"/>
     <use style="fill:#1f77b4;stroke:#1f77b4;" x="130.090909" xlink:href="#m0c93a0b171" y="196.651636"/>
     <use style="fill:#1f77b4;stroke:#1f77b4;" x="132.345455" xlink:href="#m0c93a0b171" y="195.333818"/>
     <use style="fill:#1f77b4;stroke:#1f77b4;" x="134.6" xlink:href="#m0c93a0b171" y="194.016"/>
     <use style="fill:#1f77b4;stroke:#1f77b4;" x="136.854545" xlink:href="#m0c93a0b171" y="192.698182"/>
     <use style="fill:#1f77b4;stroke:#1f77b4;" x="139.109091" xlink:href="#m0c93a0b171" y="191.380364"/>
     <use style="fill:#1f77b4;stroke:#1f77b4;" x="141.363636" xlink:href="#m0c93a0b171" y="190.062545"/>
     <use style="fill:#1f77b4;stroke:#1f77b4;" x="143.618182" xlink:href="#m0c93a0b171" y="188.744727"/>
     <use style="fill:#1f77b4;stroke:#1f77b4;" x="145.872727" xlink:href="#m0c93a0b171" y="187.426909"/>
     <use style="fill:#1f77b4;stroke:#1f77b4;" x="148.127273" xlink:href="#m0c93a0b171" y="186.109091"/>
     <use style="fill:#1f77b4;stroke:#1f77b4;" x="150.381818" xlink:href="#m0c93a0b171" y="184.791273"/>
     <use style="fill:#1f77b4;stroke:#1f77b4;" x="152.636364" xlink:href="#m0c93a0b171" y="183.473455"/>
     <use style="fill:#1f77b4;stroke:#1f77b4;" x="154.890909" xlink:href="#m0c93a0b171" y="182.155636"/>
     <use style="fill:#1f77b4;stroke:#1f77b4;" x="157.145455" xlink:href="#m0c93a0b171" y="180.837818"/>
     <use style="fill:#1f77b4;stroke:#1f77b4;" x="159.4" xlink:href="#m0c93a0b171" y="179.52"/>
     <use style="fill:#1f77b4;stroke:#1f77b4;" x="161.654545" xlink:href="#m0c93a0b171" y="178.202182"/>
     <use style="fill:#1f77b4;stroke:#1f77b4;" x="163.909091" xlink:href="#m0c93a0b171" y="176.884364"/>
     <use style="fill:#1f77b4;stroke:#1f77b4;" x="166.163636" xlink:href="#m0c93a0b171" y="175.566545"/>
     <use style="fill:#1f77b4;stroke:#1f77b4;" x="168.418182" xlink:href="#m0c93a0b171" y="174.248727"/>
     <use style="fill:#1f77b4;stroke:#1f77b4;" x="170.672727" xlink:href="#m0c93a0b171" y="172.930909"/>
     <use style="fill:#1f77b4;stroke:#1f77b4;" x="172.927273" xlink:href="#m0c93a0b171" y="171.613091"/>
     <use style="fill:#1f77b4;stroke:#1f77b4;" x="175.181818" xlink:href="#m0c93a0b171" y="170.295273"/>
     <use style="fill:#1f77b4;stroke:#1f77b4;" x="177.436364" xlink:href="#m0c93a0b171" y="168.977455"/>
     <use style="fill:#1f77b4;stroke:#1f77b4;" x="179.690909" xlink:href="#m0c93a0b171" y="167.659636"/>
     <use style="fill:#1f77b4;stroke:#1f77b4;" x="181.945455" xlink:href="#m0c93a0b171" y="166.341818"/>
     <use style="fill:#1f77b4;stroke:#1f77b4;" x="184.2" xlink:href="#m0c93a0b171" y="165.024"/>
     <use style="fill:#1f77b4;stroke:#1f77b4;" x="186.454545" xlink:href="#m0c93a0b171" y="163.706182"/>
     <use style="fill:#1f77b4;stroke:#1f77b4;" x="188.709091" xlink:href="#m0c93a0b171" y="162.388364"/>
     <use style="fill:#1f77b4;stroke:#1f77b4;" x="190.963636" xlink:href="#m0c93a0b171" y="161.070545"/>
     <use style="fill:#1f77b4;stroke:#1f77b4;" x="193.218182" xlink:href="#m0c93a0b171" y="159.752727"/>
     <use style="fill:#1f77b4;stroke:#1f77b4;" x="195.472727" xlink:href="#m0c93a0b171" y="158.434909"/>
     <use style="fill:#1f77b4;stroke:#1f77b4;" x="197.727273" xlink:href="#m0c93a0b171" y="157.117091"/>
     <use style="fill:#1f77b4;stroke:#1f77b4;" x="199.981818" xlink:href="#m0c93a0b171" y="155.799273"/>
     <use style="fill:#1f77b4;stroke:#1f77b4;" x="202.236364" xlink:href="#m0c93a0b171" y="154.481455"/>
     <use style="fill:#1f77b4;stroke:#1f77b4;" x="204.490909" xlink:href="#m0c93a0b171" y="153.163636"/>
     <use style="fill:#1f77b4;stroke:#1f77b4;" x="206.745455" xlink:href="#m0c93a0b171" y="151.845818"/>
     <use style="fill:#1f77b4;stroke:#1f77b4;" x="209" xlink:href="#m0c93a0b171" y="150.528"/>
     <use style="fill:#1f77b4;stroke:#1f77b4;" x="211.254545" xlink:href="#m0c93a0b171" y="149.210182"/>
     <use style="fill:#1f77b4;stroke:#1f77b4;" x="213.509091" xlink:href="#m0c93a0b171" y="147.892364"/>
     <use style="fill:#1f77b4;stroke:#1f77b4;" x="215.763636" xlink:href="#m0c93a0b171" y="146.574545"/>
     <use style="fill:#1f77b4;stroke:#1f77b4;" x="218.018182" xlink:href="#m0c93a0b171" y="145.256727"/>
     <use style="fill:#1f77b4;stroke:#1f77b4;" x="220.272727" xlink:href="#m0c93a0b171" y="143.938909"/>
     <use style="fill:#1f77b4;stroke:#1f77b4;" x="222.527273" xlink:href="#m0c93a0b171" y="142.621091"/>
     <use style="fill:#1f77b4;stroke:#1f77b4;" x="224.781818" xlink:href="#m0c93a0b171" y="141.303273"/>
     <use style="fill:#1f77b4;stroke:#1f77b4;" x="227.036364" xlink:href="#m0c93a0b171" y="139.985455"/>
     <use style="fill:#1f77b4;stroke:#1f77b4;" x="229.290909" xlink:href="#m0c93a0b171" y="138.667636"/>
     <use style="fill:#1f77b4;stroke:#1f77b4;" x="231.545455" xlink:href="#m0c93a0b171" y="137.349818"/>
     <use style="fill:#1f77b4;stroke:#1f77b4;" x="233.8" xlink:href="#m0c93a0b171" y="136.032"/>
     <use style="fill:#1f77b4;stroke:#1f77b4;" x="236.054545" xlink:href="#m0c93a0b171" y="134.714182"/>
     <use style="fill:#1f77b4;stroke:#1f77b4;" x="238.309091" xlink:href="#m0c93a0b171" y="133.396364"/>
     <use style="fill:#1f77b4;stroke:#1f77b4;" x="240.563636" xlink:href="#m0c93a0b171" y="132.078545"/>
     <use style="fill:#1f77b4;stroke:#1f77b4;" x="242.818182" xlink:href="#m0c93a0b171" y="130.760727"/>
     <use style="fill:#1f77b4;stroke:#1f77b4;" x="245.072727" xlink:href="#m0c93a0b171" y="129.442909"/>
     <use style="fill:#1f77b4;stroke:#1f77b4;" x="247.327273" xlink:href="#m0c93a0b171" y="128.125091"/>
     <use style="fill:#1f77b4;stroke:#1f77b4;" x="249.581818" xlink:href="#m0c93a0b171" y="126.807273"/>
     <use style="fill:#1f77b4;stroke:#1f77b4;" x="251.836364" xlink:href="#m0c93a0b171" y="125.489455"/>
     <use style="fill:#1f77b4;stroke:#1f77b4;" x="254.090909" xlink:href="#m0c93a0b171" y="124.171636"/>
     <use style="fill:#1f77b4;stroke:#1f77b4;" x="256.345455" xlink:href="#m0c93a0b171" y="122.853818"/>
     <use style="fill:#1f77b4;stroke:#1f77b4;" x="258.6" xlink:href="#m0c93a0b171" y="121.536"/>
     <use style="fill:#1f77b4;stroke:#1f77b4;" x="260.854545" xlink:href="#m0c93a0b171" y="120.218182"/>
     <use style="fill:#1f77b4;stroke:#1f77b4;" x="263.109091" xlink:href="#m0c93a0b171" y="118.900364"/>
     <use style="fill:#1f77b4;stroke:#1f77b4;" x="265.363636" xlink:href="#m0c93a0b171" y="117.582545"/>
     <use style="fill:#1f77b4;stroke:#1f77b4;" x="267.618182" xlink:href="#m0c93a0b171" y="116.264727"/>
     <use style="fill:#1f77b4;stroke:#1f77b4;" x="269.872727" xlink:href="#m0c93a0b171" y="114.946909"/>
     <use style="fill:#1f77b4;stroke:#1f77b4;" x="272.127273" xlink:href="#m0c93a0b171" y="113.629091"/>
     <use style="fill:#1f77b4;stroke:#1f77b4;" x="274.381818" xlink:href="#m0c93a0b171" y="112.311273"/>
     <use style="fill:#1f77b4;stroke:#1f77b4;" x="276.636364" xlink:href="#m0c93a0b171" y="110.993455"/>
     <use style="fill:#1f77b4;stroke:#1f77b4;" x="278.890909" xlink:href="#m0c93a0b171" y="109.675636"/>
     <use style="fill:#1f77b4;stroke:#1f77b4;" x="281.145455" xlink:href="#m0c93a0b171" y="108.357818"/>
     <use style="fill:#1f77b4;stroke:#1f77b4;" x="283.4" xlink:href="#m0c93a0b171" y="107.04"/>
     <use style="fill:#1f77b4;stroke:#1f77b4;" x="285.654545" xlink:href="#m0c93a0b171" y="105.722182"/>
     <use style="fill:#1f77b4;stroke:#1f77b4;" x="287.909091" xlink:href="#m0c93a0b171" y="104.404364"/>
     <use style="fill:#1f77b4;stroke:#1f77b4;" x="290.163636" xlink:href="#m0c93a0b171" y="103.086545"/>
     <use style="fill:#1f77b4;stroke:#1f77b4;" x="292.418182" xlink:href="#m0c93a0b171" y="101.768727"/>
     <use style="fill:#1f77b4;stroke:#1f77b4;" x="294.672727" xlink:href="#m0c93a0b171" y="100.450909"/>
     <use style="fill:#1f77b4;stroke:#1f77b4;" x="296.927273" xlink:href="#m0c93a0b171" y="99.133091"/>
     <use style="fill:#1f77b4;stroke:#1f77b4;" x="299.181818" xlink:href="#m0c93a0b171" y="97.815273"/>
     <use style="fill:#1f77b4;stroke:#1f77b4;" x="301.436364" xlink:href="#m0c93a0b171" y="96.497455"/>
     <use style="fill:#1f77b4;stroke:#1f77b4;" x="303.690909" xlink:href="#m0c93a0b171" y="95.179636"/>
     <use style="fill:#1f77b4;stroke:#1f77b4;" x="305.945455" xlink:href="#m0c93a0b171" y="93.861818"/>
     <use style="fill:#1f77b4;stroke:#1f77b4;" x="308.2" xlink:href="#m0c93a0b171" y="92.544"/>
     <use style="fill:#1f77b4;stroke:#1f77b4;" x="310.454545" xlink:href="#m0c93a0b171" y="91.226182"/>
     <use style="fill:#1f77b4;stroke:#1f77b4;" x="312.709091" xlink:href="#m0c93a0b171" y="89.908364"/>
     <use style="fill:#1f77b4;stroke:#1f77b4;" x="314.963636" xlink:href="#m0c93a0b171" y="88.590545"/>
     <use style="fill:#1f77b4;stroke:#1f77b4;" x="317.218182" xlink:href="#m0c93a0b171" y="87.272727"/>
     <use style="fill:#1f77b4;stroke:#1f77b4;" x="319.472727" xlink:href="#m0c93a0b171" y="85.954909"/>
     <use style="fill:#1f77b4;stroke:#1f77b4;" x="321.727273" xlink:href="#m0c93a0b171" y="84.637091"/>
     <use style="fill:#1f77b4;stroke:#1f77b4;" x="323.981818" xlink:href="#m0c93a0b171" y="83.319273"/>
     <use style="fill:#1f77b4;stroke:#1f77b4;" x="326.236364" xlink:href="#m0c93a0b171" y="82.001455"/>
     <use style="fill:#1f77b4;stroke:#1f77b4;" x="328.490909" xlink:href="#m0c93a0b171" y="80.683636"/>
     <use style="fill:#1f77b4;stroke:#1f77b4;" x="330.745455" xlink:href="#m0c93a0b171" y="79.365818"/>
     <use style="fill:#1f77b4;stroke:#1f77b4;" x="333" xlink:href="#m0c93a0b171" y="78.048"/>
    </g>
   </g>
   <g id="matplotlib.axis_1">
    <g id="xtick_1">
     <g id="line2d_1">
      <defs>
       <path d="M 0 0 
L 0 3.5 
" id="m28b3013b83" style="stroke:#000000;stroke-width:0.8;"/>
      </defs>
      <g>
       <use style="stroke:#000000;stroke-width:0.8;" x="54" xlink:href="#m28b3013b83" y="252"/>
      </g>
     </g>
     <g id="text_1">
      <!-- −2 -->
      <defs>
       <path d="M 10.59375 35.5 
L 73.1875 35.5 
L 73.1875 27.203125 
L 10.59375 27.203125 
z
" id="DejaVuSans-2212"/>
       <path d="M 19.1875 8.296875 
L 53.609375 8.296875 
L 53.609375 0 
L 7.328125 0 
L 7.328125 8.296875 
Q 12.9375 14.109375 22.625 23.890625 
Q 32.328125 33.6875 34.8125 36.53125 
Q 39.546875 41.84375 41.421875 45.53125 
Q 43.3125 49.21875 43.3125 52.78125 
Q 43.3125 58.59375 39.234375 62.25 
Q 35.15625 65.921875 28.609375 65.921875 
Q 23.96875 65.921875 18.8125 64.3125 
Q 13.671875 62.703125 7.8125 59.421875 
L 7.8125 69.390625 
Q 13.765625 71.78125 18.9375 73 
Q 24.125 74.21875 28.421875 74.21875 
Q 39.75 74.21875 46.484375 68.546875 
Q 53.21875 62.890625 53.21875 53.421875 
Q 53.21875 48.921875 51.53125 44.890625 
Q 49.859375 40.875 45.40625 35.40625 
Q 44.1875 33.984375 37.640625 27.21875 
Q 31.109375 20.453125 19.1875 8.296875 
z
" id="DejaVuSans-32"/>
      </defs>
      <g transform="translate(46.628906 266.598437)scale(0.1 -0.1)">
       <use xlink:href="#DejaVuSans-2212"/>
       <use x="83.789062" xlink:href="#DejaVuSans-32"/>
      </g>
     </g>
    </g>
    <g id="xtick_2">
     <g id="line2d_2">
      <g>
       <use style="stroke:#000000;stroke-width:0.8;" x="109.8" xlink:href="#m28b3013b83" y="252"/>
      </g>
     </g>
     <g id="text_2">
      <!-- −1 -->
      <defs>
       <path d="M 12.40625 8.296875 
L 28.515625 8.296875 
L 28.515625 63.921875 
L 10.984375 60.40625 
L 10.984375 69.390625 
L 28.421875 72.90625 
L 38.28125 72.90625 
L 38.28125 8.296875 
L 54.390625 8.296875 
L 54.390625 0 
L 12.40625 0 
z
" id="DejaVuSans-31"/>
      </defs>
      <g transform="translate(102.428906 266.598437)scale(0.1 -0.1)">
       <use xlink:href="#DejaVuSans-2212"/>
       <use x="83.789062" xlink:href="#DejaVuSans-31"/>
      </g>
     </g>
    </g>
    <g id="xtick_3">
     <g id="line2d_3">
      <g>
       <use style="stroke:#000000;stroke-width:0.8;" x="165.6" xlink:href="#m28b3013b83" y="252"/>
      </g>
     </g>
     <g id="text_3">
      <!-- 0 -->
      <defs>
       <path d="M 31.78125 66.40625 
Q 24.171875 66.40625 20.328125 58.90625 
Q 16.5 51.421875 16.5 36.375 
Q 16.5 21.390625 20.328125 13.890625 
Q 24.171875 6.390625 31.78125 6.390625 
Q 39.453125 6.390625 43.28125 13.890625 
Q 47.125 21.390625 47.125 36.375 
Q 47.125 51.421875 43.28125 58.90625 
Q 39.453125 66.40625 31.78125 66.40625 
z
M 31.78125 74.21875 
Q 44.046875 74.21875 50.515625 64.515625 
Q 56.984375 54.828125 56.984375 36.375 
Q 56.984375 17.96875 50.515625 8.265625 
Q 44.046875 -1.421875 31.78125 -1.421875 
Q 19.53125 -1.421875 13.0625 8.265625 
Q 6.59375 17.96875 6.59375 36.375 
Q 6.59375 54.828125 13.0625 64.515625 
Q 19.53125 74.21875 31.78125 74.21875 
z
" id="DejaVuSans-30"/>
      </defs>
      <g transform="translate(162.41875 266.598437)scale(0.1 -0.1)">
       <use xlink:href="#DejaVuSans-30"/>
      </g>
     </g>
    </g>
    <g id="xtick_4">
     <g id="line2d_4">
      <g>
       <use style="stroke:#000000;stroke-width:0.8;" x="221.4" xlink:href="#m28b3013b83" y="252"/>
      </g>
     </g>
     <g id="text_4">
      <!-- 1 -->
      <g transform="translate(218.21875 266.598437)scale(0.1 -0.1)">
       <use xlink:href="#DejaVuSans-31"/>
      </g>
     </g>
    </g>
    <g id="xtick_5">
     <g id="line2d_5">
      <g>
       <use style="stroke:#000000;stroke-width:0.8;" x="277.2" xlink:href="#m28b3013b83" y="252"/>
      </g>
     </g>
     <g id="text_5">
      <!-- 2 -->
      <g transform="translate(274.01875 266.598437)scale(0.1 -0.1)">
       <use xlink:href="#DejaVuSans-32"/>
      </g>
     </g>
    </g>
    <g id="xtick_6">
     <g id="line2d_6">
      <g>
       <use style="stroke:#000000;stroke-width:0.8;" x="333" xlink:href="#m28b3013b83" y="252"/>
      </g>
     </g>
     <g id="text_6">
      <!-- 3 -->
      <defs>
       <path d="M 40.578125 39.3125 
Q 47.65625 37.796875 51.625 33 
Q 55.609375 28.21875 55.609375 21.1875 
Q 55.609375 10.40625 48.1875 4.484375 
Q 40.765625 -1.421875 27.09375 -1.421875 
Q 22.515625 -1.421875 17.65625 -0.515625 
Q 12.796875 0.390625 7.625 2.203125 
L 7.625 11.71875 
Q 11.71875 9.328125 16.59375 8.109375 
Q 21.484375 6.890625 26.8125 6.890625 
Q 36.078125 6.890625 40.9375 10.546875 
Q 45.796875 14.203125 45.796875 21.1875 
Q 45.796875 27.640625 41.28125 31.265625 
Q 36.765625 34.90625 28.71875 34.90625 
L 20.21875 34.90625 
L 20.21875 43.015625 
L 29.109375 43.015625 
Q 36.375 43.015625 40.234375 45.921875 
Q 44.09375 48.828125 44.09375 54.296875 
Q 44.09375 59.90625 40.109375 62.90625 
Q 36.140625 65.921875 28.71875 65.921875 
Q 24.65625 65.921875 20.015625 65.03125 
Q 15.375 64.15625 9.8125 62.3125 
L 9.8125 71.09375 
Q 15.4375 72.65625 20.34375 73.4375 
Q 25.25 74.21875 29.59375 74.21875 
Q 40.828125 74.21875 47.359375 69.109375 
Q 53.90625 64.015625 53.90625 55.328125 
Q 53.90625 49.265625 50.4375 45.09375 
Q 46.96875 40.921875 40.578125 39.3125 
z
" id="DejaVuSans-33"/>
      </defs>
      <g transform="translate(329.81875 266.598437)scale(0.1 -0.1)">
       <use xlink:href="#DejaVuSans-33"/>
      </g>
     </g>
    </g>
    <g id="xtick_7">
     <g id="line2d_7">
      <g>
       <use style="stroke:#000000;stroke-width:0.8;" x="388.8" xlink:href="#m28b3013b83" y="252"/>
      </g>
     </g>
     <g id="text_7">
      <!-- 4 -->
      <defs>
       <path d="M 37.796875 64.3125 
L 12.890625 25.390625 
L 37.796875 25.390625 
z
M 35.203125 72.90625 
L 47.609375 72.90625 
L 47.609375 25.390625 
L 58.015625 25.390625 
L 58.015625 17.1875 
L 47.609375 17.1875 
L 47.609375 0 
L 37.796875 0 
L 37.796875 17.1875 
L 4.890625 17.1875 
L 4.890625 26.703125 
z
" id="DejaVuSans-34"/>
      </defs>
      <g transform="translate(385.61875 266.598437)scale(0.1 -0.1)">
       <use xlink:href="#DejaVuSans-34"/>
      </g>
     </g>
    </g>
   </g>
   <g id="matplotlib.axis_2">
    <g id="ytick_1">
     <g id="line2d_8">
      <defs>
       <path d="M 0 0 
L -3.5 0 
" id="m4817149723" style="stroke:#000000;stroke-width:0.8;"/>
      </defs>
      <g>
       <use style="stroke:#000000;stroke-width:0.8;" x="54" xlink:href="#m4817149723" y="252"/>
      </g>
     </g>
     <g id="text_8">
      <!-- 0 -->
      <g transform="translate(40.6375 255.799219)scale(0.1 -0.1)">
       <use xlink:href="#DejaVuSans-30"/>
      </g>
     </g>
    </g>
    <g id="ytick_2">
     <g id="line2d_9">
      <g>
       <use style="stroke:#000000;stroke-width:0.8;" x="54" xlink:href="#m4817149723" y="208.512"/>
      </g>
     </g>
     <g id="text_9">
      <!-- 1 -->
      <g transform="translate(40.6375 212.311219)scale(0.1 -0.1)">
       <use xlink:href="#DejaVuSans-31"/>
      </g>
     </g>
    </g>
    <g id="ytick_3">
     <g id="line2d_10">
      <g>
       <use style="stroke:#000000;stroke-width:0.8;" x="54" xlink:href="#m4817149723" y="165.024"/>
      </g>
     </g>
     <g id="text_10">
      <!-- 2 -->
      <g transform="translate(40.6375 168.823219)scale(0.1 -0.1)">
       <use xlink:href="#DejaVuSans-32"/>
      </g>
     </g>
    </g>
    <g id="ytick_4">
     <g id="line2d_11">
      <g>
       <use style="stroke:#000000;stroke-width:0.8;" x="54" xlink:href="#m4817149723" y="121.536"/>
      </g>
     </g>
     <g id="text_11">
      <!-- 3 -->
      <g transform="translate(40.6375 125.335219)scale(0.1 -0.1)">
       <use xlink:href="#DejaVuSans-33"/>
      </g>
     </g>
    </g>
    <g id="ytick_5">
     <g id="line2d_12">
      <g>
       <use style="stroke:#000000;stroke-width:0.8;" x="54" xlink:href="#m4817149723" y="78.048"/>
      </g>
     </g>
     <g id="text_12">
      <!-- 4 -->
      <g transform="translate(40.6375 81.847219)scale(0.1 -0.1)">
       <use xlink:href="#DejaVuSans-34"/>
      </g>
     </g>
    </g>
    <g id="ytick_6">
     <g id="line2d_13">
      <g>
       <use style="stroke:#000000;stroke-width:0.8;" x="54" xlink:href="#m4817149723" y="34.56"/>
      </g>
     </g>
     <g id="text_13">
      <!-- 5 -->
      <defs>
       <path d="M 10.796875 72.90625 
L 49.515625 72.90625 
L 49.515625 64.59375 
L 19.828125 64.59375 
L 19.828125 46.734375 
Q 21.96875 47.46875 24.109375 47.828125 
Q 26.265625 48.1875 28.421875 48.1875 
Q 40.625 48.1875 47.75 41.5 
Q 54.890625 34.8125 54.890625 23.390625 
Q 54.890625 11.625 47.5625 5.09375 
Q 40.234375 -1.421875 26.90625 -1.421875 
Q 22.3125 -1.421875 17.546875 -0.640625 
Q 12.796875 0.140625 7.71875 1.703125 
L 7.71875 11.625 
Q 12.109375 9.234375 16.796875 8.0625 
Q 21.484375 6.890625 26.703125 6.890625 
Q 35.15625 6.890625 40.078125 11.328125 
Q 45.015625 15.765625 45.015625 23.390625 
Q 45.015625 31 40.078125 35.4375 
Q 35.15625 39.890625 26.703125 39.890625 
Q 22.75 39.890625 18.8125 39.015625 
Q 14.890625 38.140625 10.796875 36.28125 
z
" id="DejaVuSans-35"/>
      </defs>
      <g transform="translate(40.6375 38.359219)scale(0.1 -0.1)">
       <use xlink:href="#DejaVuSans-35"/>
      </g>
     </g>
    </g>
   </g>
   <g id="patch_3">
    <path d="M 54 252 
L 54 34.56 
" style="fill:none;stroke:#000000;stroke-linecap:square;stroke-linejoin:miter;stroke-width:0.8;"/>
   </g>
   <g id="patch_4">
    <path d="M 388.8 252 
L 388.8 34.56 
" style="fill:none;stroke:#000000;stroke-linecap:square;stroke-linejoin:miter;stroke-width:0.8;"/>
   </g>
   <g id="patch_5">
    <path d="M 54 252 
L 388.8 252 
" style="fill:none;stroke:#000000;stroke-linecap:square;stroke-linejoin:miter;stroke-width:0.8;"/>
   </g>
   <g id="patch_6">
    <path d="M 54 34.56 
L 388.8 34.56 
" style="fill:none;stroke:#000000;stroke-linecap:square;stroke-linejoin:miter;stroke-width:0.8;"/>
   </g>
  </g>
 </g>
 <defs>
  <clipPath id="p5a0e517d31">
   <rect height="217.44" width="334.8" x="54" y="34.56"/>
  </clipPath>
 </defs>
</svg>
