<?xml version="1.0" encoding="utf-8" standalone="no"?>
<!DOCTYPE svg PUBLIC "-//W3C//DTD SVG 1.1//EN"
  "http://www.w3.org/Graphics/SVG/1.1/DTD/svg11.dtd">
<!-- Created with matplotlib (http://matplotlib.org/) -->
<svg height="288pt" version="1.1" viewBox="0 0 432 288" width="432pt" xmlns="http://www.w3.org/2000/svg" xmlns:xlink="http://www.w3.org/1999/xlink">
 <defs>
  <style type="text/css">
*{stroke-linecap:butt;stroke-linejoin:round;}
  </style>
 </defs>
 <g id="figure_1">
  <g id="patch_1">
   <path d="M 0 288 
L 432 288 
L 432 0 
L 0 0 
z
" style="fill:#ffffff;"/>
  </g>
  <g id="axes_1">
   <g id="patch_2">
    <path d="M 54 252 
L 388.8 252 
L 388.8 34.56 
L 54 34.56 
z
" style="fill:#ffffff;"/>
   </g>
   <g id="PathCollection_1">
    <defs>
     <path d="M 0 3 
C 0.795609 3 1.55874 2.683901 2.12132 2.12132 
C 2.683901 1.55874 3 0.795609 3 0 
C 3 -0.795609 2.683901 -1.55874 2.12132 -2.12132 
C 1.55874 -2.683901 0.795609 -3 0 -3 
C -0.795609 -3 -1.55874 -2.683901 -2.12132 -2.12132 
C -2.683901 -1.55874 -3 -0.795609 -3 0 
C -3 0.795609 -2.683901 1.55874 -2.12132 2.12132 
C -1.55874 2.683901 -0.795609 3 0 3 
z
" id="m1292347cff" style="stroke:#1f77b4;"/>
    </defs>
    <g clip-path="url(#p1bda2f4543)">
     <use style="fill:#1f77b4;stroke:#1f77b4;" x="69.327195" xlink:href="#m1292347cff" y="242.007393"/>
     <use style="fill:#1f77b4;stroke:#1f77b4;" x="69.327195" xlink:href="#m1292347cff" y="234.109202"/>
     <use style="fill:#1f77b4;stroke:#1f77b4;" x="69.327195" xlink:href="#m1292347cff" y="210.414627"/>
     <use style="fill:#1f77b4;stroke:#1f77b4;" x="69.327195" xlink:href="#m1292347cff" y="170.92367"/>
     <use style="fill:#1f77b4;stroke:#1f77b4;" x="69.327195" xlink:href="#m1292347cff" y="115.63633"/>
     <use style="fill:#1f77b4;stroke:#1f77b4;" x="69.327195" xlink:href="#m1292347cff" y="44.552607"/>
     <use style="fill:#1f77b4;stroke:#1f77b4;" x="81.493019" xlink:href="#m1292347cff" y="242.007393"/>
     <use style="fill:#1f77b4;stroke:#1f77b4;" x="81.493019" xlink:href="#m1292347cff" y="234.109202"/>
     <use style="fill:#1f77b4;stroke:#1f77b4;" x="81.493019" xlink:href="#m1292347cff" y="210.414627"/>
     <use style="fill:#1f77b4;stroke:#1f77b4;" x="81.493019" xlink:href="#m1292347cff" y="170.92367"/>
     <use style="fill:#1f77b4;stroke:#1f77b4;" x="81.493019" xlink:href="#m1292347cff" y="115.63633"/>
     <use style="fill:#1f77b4;stroke:#1f77b4;" x="81.493019" xlink:href="#m1292347cff" y="44.552607"/>
     <use style="fill:#1f77b4;stroke:#1f77b4;" x="117.990492" xlink:href="#m1292347cff" y="242.007393"/>
     <use style="fill:#1f77b4;stroke:#1f77b4;" x="117.990492" xlink:href="#m1292347cff" y="234.109202"/>
     <use style="fill:#1f77b4;stroke:#1f77b4;" x="117.990492" xlink:href="#m1292347cff" y="210.414627"/>
     <use style="fill:#1f77b4;stroke:#1f77b4;" x="117.990492" xlink:href="#m1292347cff" y="170.92367"/>
     <use style="fill:#1f77b4;stroke:#1f77b4;" x="117.990492" xlink:href="#m1292347cff" y="115.63633"/>
     <use style="fill:#1f77b4;stroke:#1f77b4;" x="117.990492" xlink:href="#m1292347cff" y="44.552607"/>
     <use style="fill:#1f77b4;stroke:#1f77b4;" x="178.819614" xlink:href="#m1292347cff" y="242.007393"/>
     <use style="fill:#1f77b4;stroke:#1f77b4;" x="178.819614" xlink:href="#m1292347cff" y="234.109202"/>
     <use style="fill:#1f77b4;stroke:#1f77b4;" x="178.819614" xlink:href="#m1292347cff" y="210.414627"/>
     <use style="fill:#1f77b4;stroke:#1f77b4;" x="178.819614" xlink:href="#m1292347cff" y="170.92367"/>
     <use style="fill:#1f77b4;stroke:#1f77b4;" x="178.819614" xlink:href="#m1292347cff" y="115.63633"/>
     <use style="fill:#1f77b4;stroke:#1f77b4;" x="178.819614" xlink:href="#m1292347cff" y="44.552607"/>
     <use style="fill:#1f77b4;stroke:#1f77b4;" x="263.980386" xlink:href="#m1292347cff" y="242.007393"/>
     <use style="fill:#1f77b4;stroke:#1f77b4;" x="263.980386" xlink:href="#m1292347cff" y="234.109202"/>
     <use style="fill:#1f77b4;stroke:#1f77b4;" x="263.980386" xlink:href="#m1292347cff" y="210.414627"/>
     <use style="fill:#1f77b4;stroke:#1f77b4;" x="263.980386" xlink:href="#m1292347cff" y="170.92367"/>
     <use style="fill:#1f77b4;stroke:#1f77b4;" x="263.980386" xlink:href="#m1292347cff" y="115.63633"/>
     <use style="fill:#1f77b4;stroke:#1f77b4;" x="263.980386" xlink:href="#m1292347cff" y="44.552607"/>
     <use style="fill:#1f77b4;stroke:#1f77b4;" x="373.472805" xlink:href="#m1292347cff" y="242.007393"/>
     <use style="fill:#1f77b4;stroke:#1f77b4;" x="373.472805" xlink:href="#m1292347cff" y="234.109202"/>
     <use style="fill:#1f77b4;stroke:#1f77b4;" x="373.472805" xlink:href="#m1292347cff" y="210.414627"/>
     <use style="fill:#1f77b4;stroke:#1f77b4;" x="373.472805" xlink:href="#m1292347cff" y="170.92367"/>
     <use style="fill:#1f77b4;stroke:#1f77b4;" x="373.472805" xlink:href="#m1292347cff" y="115.63633"/>
     <use style="fill:#1f77b4;stroke:#1f77b4;" x="373.472805" xlink:href="#m1292347cff" y="44.552607"/>
    </g>
   </g>
   <g id="matplotlib.axis_1">
    <g id="xtick_1">
     <g id="line2d_1">
      <defs>
       <path d="M 0 0 
L 0 3.5 
" id="m754719ea13" style="stroke:#000000;stroke-width:0.8;"/>
      </defs>
      <g>
       <use style="stroke:#000000;stroke-width:0.8;" x="69.327195" xlink:href="#m754719ea13" y="252"/>
      </g>
     </g>
     <g id="text_1">
      <!-- 0 -->
      <defs>
       <path d="M 31.78125 66.40625 
Q 24.171875 66.40625 20.328125 58.90625 
Q 16.5 51.421875 16.5 36.375 
Q 16.5 21.390625 20.328125 13.890625 
Q 24.171875 6.390625 31.78125 6.390625 
Q 39.453125 6.390625 43.28125 13.890625 
Q 47.125 21.390625 47.125 36.375 
Q 47.125 51.421875 43.28125 58.90625 
Q 39.453125 66.40625 31.78125 66.40625 
z
M 31.78125 74.21875 
Q 44.046875 74.21875 50.515625 64.515625 
Q 56.984375 54.828125 56.984375 36.375 
Q 56.984375 17.96875 50.515625 8.265625 
Q 44.046875 -1.421875 31.78125 -1.421875 
Q 19.53125 -1.421875 13.0625 8.265625 
Q 6.59375 17.96875 6.59375 36.375 
Q 6.59375 54.828125 13.0625 64.515625 
Q 19.53125 74.21875 31.78125 74.21875 
z
" id="DejaVuSans-30"/>
      </defs>
      <g transform="translate(66.145945 266.598437)scale(0.1 -0.1)">
       <use xlink:href="#DejaVuSans-30"/>
      </g>
     </g>
    </g>
    <g id="xtick_2">
     <g id="line2d_2">
      <g>
       <use style="stroke:#000000;stroke-width:0.8;" x="130.156317" xlink:href="#m754719ea13" y="252"/>
      </g>
     </g>
     <g id="text_2">
      <!-- 5 -->
      <defs>
       <path d="M 10.796875 72.90625 
L 49.515625 72.90625 
L 49.515625 64.59375 
L 19.828125 64.59375 
L 19.828125 46.734375 
Q 21.96875 47.46875 24.109375 47.828125 
Q 26.265625 48.1875 28.421875 48.1875 
Q 40.625 48.1875 47.75 41.5 
Q 54.890625 34.8125 54.890625 23.390625 
Q 54.890625 11.625 47.5625 5.09375 
Q 40.234375 -1.421875 26.90625 -1.421875 
Q 22.3125 -1.421875 17.546875 -0.640625 
Q 12.796875 0.140625 7.71875 1.703125 
L 7.71875 11.625 
Q 12.109375 9.234375 16.796875 8.0625 
Q 21.484375 6.890625 26.703125 6.890625 
Q 35.15625 6.890625 40.078125 11.328125 
Q 45.015625 15.765625 45.015625 23.390625 
Q 45.015625 31 40.078125 35.4375 
Q 35.15625 39.890625 26.703125 39.890625 
Q 22.75 39.890625 18.8125 39.015625 
Q 14.890625 38.140625 10.796875 36.28125 
z
" id="DejaVuSans-35"/>
      </defs>
      <g transform="translate(126.975067 266.598437)scale(0.1 -0.1)">
       <use xlink:href="#DejaVuSans-35"/>
      </g>
     </g>
    </g>
    <g id="xtick_3">
     <g id="line2d_3">
      <g>
       <use style="stroke:#000000;stroke-width:0.8;" x="190.985439" xlink:href="#m754719ea13" y="252"/>
      </g>
     </g>
     <g id="text_3">
      <!-- 10 -->
      <defs>
       <path d="M 12.40625 8.296875 
L 28.515625 8.296875 
L 28.515625 63.921875 
L 10.984375 60.40625 
L 10.984375 69.390625 
L 28.421875 72.90625 
L 38.28125 72.90625 
L 38.28125 8.296875 
L 54.390625 8.296875 
L 54.390625 0 
L 12.40625 0 
z
" id="DejaVuSans-31"/>
      </defs>
      <g transform="translate(184.622939 266.598437)scale(0.1 -0.1)">
       <use xlink:href="#DejaVuSans-31"/>
       <use x="63.623047" xlink:href="#DejaVuSans-30"/>
      </g>
     </g>
    </g>
    <g id="xtick_4">
     <g id="line2d_4">
      <g>
       <use style="stroke:#000000;stroke-width:0.8;" x="251.814561" xlink:href="#m754719ea13" y="252"/>
      </g>
     </g>
     <g id="text_4">
      <!-- 15 -->
      <g transform="translate(245.452061 266.598437)scale(0.1 -0.1)">
       <use xlink:href="#DejaVuSans-31"/>
       <use x="63.623047" xlink:href="#DejaVuSans-35"/>
      </g>
     </g>
    </g>
    <g id="xtick_5">
     <g id="line2d_5">
      <g>
       <use style="stroke:#000000;stroke-width:0.8;" x="312.643683" xlink:href="#m754719ea13" y="252"/>
      </g>
     </g>
     <g id="text_5">
      <!-- 20 -->
      <defs>
       <path d="M 19.1875 8.296875 
L 53.609375 8.296875 
L 53.609375 0 
L 7.328125 0 
L 7.328125 8.296875 
Q 12.9375 14.109375 22.625 23.890625 
Q 32.328125 33.6875 34.8125 36.53125 
Q 39.546875 41.84375 41.421875 45.53125 
Q 43.3125 49.21875 43.3125 52.78125 
Q 43.3125 58.59375 39.234375 62.25 
Q 35.15625 65.921875 28.609375 65.921875 
Q 23.96875 65.921875 18.8125 64.3125 
Q 13.671875 62.703125 7.8125 59.421875 
L 7.8125 69.390625 
Q 13.765625 71.78125 18.9375 73 
Q 24.125 74.21875 28.421875 74.21875 
Q 39.75 74.21875 46.484375 68.546875 
Q 53.21875 62.890625 53.21875 53.421875 
Q 53.21875 48.921875 51.53125 44.890625 
Q 49.859375 40.875 45.40625 35.40625 
Q 44.1875 33.984375 37.640625 27.21875 
Q 31.109375 20.453125 19.1875 8.296875 
z
" id="DejaVuSans-32"/>
      </defs>
      <g transform="translate(306.281183 266.598437)scale(0.1 -0.1)">
       <use xlink:href="#DejaVuSans-32"/>
       <use x="63.623047" xlink:href="#DejaVuSans-30"/>
      </g>
     </g>
    </g>
    <g id="xtick_6">
     <g id="line2d_6">
      <g>
       <use style="stroke:#000000;stroke-width:0.8;" x="373.472805" xlink:href="#m754719ea13" y="252"/>
      </g>
     </g>
     <g id="text_6">
      <!-- 25 -->
      <g transform="translate(367.110305 266.598437)scale(0.1 -0.1)">
       <use xlink:href="#DejaVuSans-32"/>
       <use x="63.623047" xlink:href="#DejaVuSans-35"/>
      </g>
     </g>
    </g>
   </g>
   <g id="matplotlib.axis_2">
    <g id="ytick_1">
     <g id="line2d_7">
      <defs>
       <path d="M 0 0 
L -3.5 0 
" id="mbdc9869aec" style="stroke:#000000;stroke-width:0.8;"/>
      </defs>
      <g>
       <use style="stroke:#000000;stroke-width:0.8;" x="54" xlink:href="#mbdc9869aec" y="242.007393"/>
      </g>
     </g>
     <g id="text_7">
      <!-- 0 -->
      <g transform="translate(40.6375 245.806612)scale(0.1 -0.1)">
       <use xlink:href="#DejaVuSans-30"/>
      </g>
     </g>
    </g>
    <g id="ytick_2">
     <g id="line2d_8">
      <g>
       <use style="stroke:#000000;stroke-width:0.8;" x="54" xlink:href="#mbdc9869aec" y="202.516436"/>
      </g>
     </g>
     <g id="text_8">
      <!-- 5 -->
      <g transform="translate(40.6375 206.315655)scale(0.1 -0.1)">
       <use xlink:href="#DejaVuSans-35"/>
      </g>
     </g>
    </g>
    <g id="ytick_3">
     <g id="line2d_9">
      <g>
       <use style="stroke:#000000;stroke-width:0.8;" x="54" xlink:href="#mbdc9869aec" y="163.025479"/>
      </g>
     </g>
     <g id="text_9">
      <!-- 10 -->
      <g transform="translate(34.275 166.824697)scale(0.1 -0.1)">
       <use xlink:href="#DejaVuSans-31"/>
       <use x="63.623047" xlink:href="#DejaVuSans-30"/>
      </g>
     </g>
    </g>
    <g id="ytick_4">
     <g id="line2d_10">
      <g>
       <use style="stroke:#000000;stroke-width:0.8;" x="54" xlink:href="#mbdc9869aec" y="123.534521"/>
      </g>
     </g>
     <g id="text_10">
      <!-- 15 -->
      <g transform="translate(34.275 127.33374)scale(0.1 -0.1)">
       <use xlink:href="#DejaVuSans-31"/>
       <use x="63.623047" xlink:href="#DejaVuSans-35"/>
      </g>
     </g>
    </g>
    <g id="ytick_5">
     <g id="line2d_11">
      <g>
       <use style="stroke:#000000;stroke-width:0.8;" x="54" xlink:href="#mbdc9869aec" y="84.043564"/>
      </g>
     </g>
     <g id="text_11">
      <!-- 20 -->
      <g transform="translate(34.275 87.842783)scale(0.1 -0.1)">
       <use xlink:href="#DejaVuSans-32"/>
       <use x="63.623047" xlink:href="#DejaVuSans-30"/>
      </g>
     </g>
    </g>
    <g id="ytick_6">
     <g id="line2d_12">
      <g>
       <use style="stroke:#000000;stroke-width:0.8;" x="54" xlink:href="#mbdc9869aec" y="44.552607"/>
      </g>
     </g>
     <g id="text_12">
      <!-- 25 -->
      <g transform="translate(34.275 48.351826)scale(0.1 -0.1)">
       <use xlink:href="#DejaVuSans-32"/>
       <use x="63.623047" xlink:href="#DejaVuSans-35"/>
      </g>
     </g>
    </g>
   </g>
   <g id="patch_3">
    <path d="M 54 252 
L 54 34.56 
" style="fill:none;stroke:#000000;stroke-linecap:square;stroke-linejoin:miter;stroke-width:0.8;"/>
   </g>
   <g id="patch_4">
    <path d="M 388.8 252 
L 388.8 34.56 
" style="fill:none;stroke:#000000;stroke-linecap:square;stroke-linejoin:miter;stroke-width:0.8;"/>
   </g>
   <g id="patch_5">
    <path d="M 54 252 
L 388.8 252 
" style="fill:none;stroke:#000000;stroke-linecap:square;stroke-linejoin:miter;stroke-width:0.8;"/>
   </g>
   <g id="patch_6">
    <path d="M 54 34.56 
L 388.8 34.56 
" style="fill:none;stroke:#000000;stroke-linecap:square;stroke-linejoin:miter;stroke-width:0.8;"/>
   </g>
  </g>
 </g>
 <defs>
  <clipPath id="p1bda2f4543">
   <rect height="217.44" width="334.8" x="54" y="34.56"/>
  </clipPath>
 </defs>
</svg>
