<?xml version="1.0" encoding="utf-8" standalone="no"?>
<!DOCTYPE svg PUBLIC "-//W3C//DTD SVG 1.1//EN"
  "http://www.w3.org/Graphics/SVG/1.1/DTD/svg11.dtd">
<!-- Created with matplotlib (https://matplotlib.org/) -->
<svg height="288pt" version="1.1" viewBox="0 0 432 288" width="432pt" xmlns="http://www.w3.org/2000/svg" xmlns:xlink="http://www.w3.org/1999/xlink">
 <defs>
  <style type="text/css">
*{stroke-linecap:butt;stroke-linejoin:round;}
  </style>
 </defs>
 <g id="figure_1">
  <g id="patch_1">
   <path d="M 0 288 
L 432 288 
L 432 0 
L 0 0 
z
" style="fill:#ffffff;"/>
  </g>
  <g id="patch_2">
   <path d="M 54 252 
L 388.8 252 
L 388.8 34.56 
L 54 34.56 
z
" style="fill:#ffffff;"/>
  </g>
  <g id="pane3d_1">
   <g id="patch_3">
    <path d="M 98.382914 203.953423 
L 194.204425 150.642062 
L 192.609099 48.772801 
L 91.44491 96.671962 
" style="fill:#f2f2f2;opacity:0.5;stroke:#f2f2f2;stroke-linejoin:miter;"/>
   </g>
  </g>
  <g id="pane3d_2">
   <g id="patch_4">
    <path d="M 194.204425 150.642062 
L 349.426265 180.446553 
L 355.920561 75.505466 
L 192.609099 48.772801 
" style="fill:#e6e6e6;opacity:0.5;stroke:#e6e6e6;stroke-linejoin:miter;"/>
   </g>
  </g>
  <g id="pane3d_3">
   <g id="patch_5">
    <path d="M 98.382914 203.953423 
L 261.697263 238.665609 
L 349.426265 180.446553 
L 194.204425 150.642062 
" style="fill:#ececec;opacity:0.5;stroke:#ececec;stroke-linejoin:miter;"/>
   </g>
  </g>
  <g id="axis3d_1">
   <g id="line2d_1">
    <path d="M 98.382914 203.953423 
L 261.697263 238.665609 
" style="fill:none;stroke:#000000;stroke-linecap:square;stroke-width:0.8;"/>
   </g>
   <g id="text_1">
    <!-- x -->
    <defs>
     <path d="M 54.890625 54.6875 
L 35.109375 28.078125 
L 55.90625 0 
L 45.3125 0 
L 29.390625 21.484375 
L 13.484375 0 
L 2.875 0 
L 24.125 28.609375 
L 4.6875 54.6875 
L 15.28125 54.6875 
L 29.78125 35.203125 
L 44.28125 54.6875 
z
" id="DejaVuSans-120"/>
    </defs>
    <g transform="translate(158.316779 252.185263)scale(0.1 -0.1)">
     <use xlink:href="#DejaVuSans-120"/>
    </g>
   </g>
   <g id="Line3DCollection_1">
    <path d="M 108.339611 206.069702 
L 203.697598 152.464867 
L 202.576615 50.404396 
" style="fill:none;stroke:#b0b0b0;stroke-width:0.8;"/>
    <path d="M 125.540985 209.725825 
L 220.08902 155.612221 
L 219.793314 53.22262 
" style="fill:none;stroke:#b0b0b0;stroke-width:0.8;"/>
    <path d="M 142.912181 213.418043 
L 236.630508 158.788388 
L 237.175658 56.067959 
" style="fill:none;stroke:#b0b0b0;stroke-width:0.8;"/>
    <path d="M 160.455727 217.146894 
L 253.32413 161.993768 
L 254.72605 58.940805 
" style="fill:none;stroke:#b0b0b0;stroke-width:0.8;"/>
    <path d="M 178.1742 220.912925 
L 270.171995 165.228764 
L 272.446939 61.84156 
" style="fill:none;stroke:#b0b0b0;stroke-width:0.8;"/>
    <path d="M 196.070229 224.716695 
L 287.176251 168.493789 
L 290.340822 64.770633 
" style="fill:none;stroke:#b0b0b0;stroke-width:0.8;"/>
    <path d="M 214.146497 228.558775 
L 304.339087 171.789263 
L 308.410244 67.72844 
" style="fill:none;stroke:#b0b0b0;stroke-width:0.8;"/>
    <path d="M 232.405741 232.439746 
L 321.662729 175.115615 
L 326.657801 70.715406 
" style="fill:none;stroke:#b0b0b0;stroke-width:0.8;"/>
    <path d="M 250.850753 236.360202 
L 339.14945 178.473279 
L 345.086139 73.731965 
" style="fill:none;stroke:#b0b0b0;stroke-width:0.8;"/>
   </g>
   <g id="xtick_1">
    <g id="line2d_2">
     <path d="M 109.161169 205.607869 
L 106.693431 206.995091 
" style="fill:none;stroke:#000000;stroke-linecap:square;stroke-width:0.8;"/>
    </g>
    <g id="text_2">
     <!-- −2.0 -->
     <defs>
      <path d="M 10.59375 35.5 
L 73.1875 35.5 
L 73.1875 27.203125 
L 10.59375 27.203125 
z
" id="DejaVuSans-8722"/>
      <path d="M 19.1875 8.296875 
L 53.609375 8.296875 
L 53.609375 0 
L 7.328125 0 
L 7.328125 8.296875 
Q 12.9375 14.109375 22.625 23.890625 
Q 32.328125 33.6875 34.8125 36.53125 
Q 39.546875 41.84375 41.421875 45.53125 
Q 43.3125 49.21875 43.3125 52.78125 
Q 43.3125 58.59375 39.234375 62.25 
Q 35.15625 65.921875 28.609375 65.921875 
Q 23.96875 65.921875 18.8125 64.3125 
Q 13.671875 62.703125 7.8125 59.421875 
L 7.8125 69.390625 
Q 13.765625 71.78125 18.9375 73 
Q 24.125 74.21875 28.421875 74.21875 
Q 39.75 74.21875 46.484375 68.546875 
Q 53.21875 62.890625 53.21875 53.421875 
Q 53.21875 48.921875 51.53125 44.890625 
Q 49.859375 40.875 45.40625 35.40625 
Q 44.1875 33.984375 37.640625 27.21875 
Q 31.109375 20.453125 19.1875 8.296875 
z
" id="DejaVuSans-50"/>
      <path d="M 10.6875 12.40625 
L 21 12.40625 
L 21 0 
L 10.6875 0 
z
" id="DejaVuSans-46"/>
      <path d="M 31.78125 66.40625 
Q 24.171875 66.40625 20.328125 58.90625 
Q 16.5 51.421875 16.5 36.375 
Q 16.5 21.390625 20.328125 13.890625 
Q 24.171875 6.390625 31.78125 6.390625 
Q 39.453125 6.390625 43.28125 13.890625 
Q 47.125 21.390625 47.125 36.375 
Q 47.125 51.421875 43.28125 58.90625 
Q 39.453125 66.40625 31.78125 66.40625 
z
M 31.78125 74.21875 
Q 44.046875 74.21875 50.515625 64.515625 
Q 56.984375 54.828125 56.984375 36.375 
Q 56.984375 17.96875 50.515625 8.265625 
Q 44.046875 -1.421875 31.78125 -1.421875 
Q 19.53125 -1.421875 13.0625 8.265625 
Q 6.59375 17.96875 6.59375 36.375 
Q 6.59375 54.828125 13.0625 64.515625 
Q 19.53125 74.21875 31.78125 74.21875 
z
" id="DejaVuSans-48"/>
     </defs>
     <g transform="translate(88.451553 226.46444)scale(0.1 -0.1)">
      <use xlink:href="#DejaVuSans-8722"/>
      <use x="83.789062" xlink:href="#DejaVuSans-50"/>
      <use x="147.412109" xlink:href="#DejaVuSans-46"/>
      <use x="179.199219" xlink:href="#DejaVuSans-48"/>
     </g>
    </g>
   </g>
   <g id="xtick_2">
    <g id="line2d_3">
     <path d="M 126.355851 209.259445 
L 123.908199 210.660333 
" style="fill:none;stroke:#000000;stroke-linecap:square;stroke-width:0.8;"/>
    </g>
    <g id="text_3">
     <!-- −1.5 -->
     <defs>
      <path d="M 12.40625 8.296875 
L 28.515625 8.296875 
L 28.515625 63.921875 
L 10.984375 60.40625 
L 10.984375 69.390625 
L 28.421875 72.90625 
L 38.28125 72.90625 
L 38.28125 8.296875 
L 54.390625 8.296875 
L 54.390625 0 
L 12.40625 0 
z
" id="DejaVuSans-49"/>
      <path d="M 10.796875 72.90625 
L 49.515625 72.90625 
L 49.515625 64.59375 
L 19.828125 64.59375 
L 19.828125 46.734375 
Q 21.96875 47.46875 24.109375 47.828125 
Q 26.265625 48.1875 28.421875 48.1875 
Q 40.625 48.1875 47.75 41.5 
Q 54.890625 34.8125 54.890625 23.390625 
Q 54.890625 11.625 47.5625 5.09375 
Q 40.234375 -1.421875 26.90625 -1.421875 
Q 22.3125 -1.421875 17.546875 -0.640625 
Q 12.796875 0.140625 7.71875 1.703125 
L 7.71875 11.625 
Q 12.109375 9.234375 16.796875 8.0625 
Q 21.484375 6.890625 26.703125 6.890625 
Q 35.15625 6.890625 40.078125 11.328125 
Q 45.015625 15.765625 45.015625 23.390625 
Q 45.015625 31 40.078125 35.4375 
Q 35.15625 39.890625 26.703125 39.890625 
Q 22.75 39.890625 18.8125 39.015625 
Q 14.890625 38.140625 10.796875 36.28125 
z
" id="DejaVuSans-53"/>
     </defs>
     <g transform="translate(105.650628 230.191166)scale(0.1 -0.1)">
      <use xlink:href="#DejaVuSans-8722"/>
      <use x="83.789062" xlink:href="#DejaVuSans-49"/>
      <use x="147.412109" xlink:href="#DejaVuSans-46"/>
      <use x="179.199219" xlink:href="#DejaVuSans-53"/>
     </g>
    </g>
   </g>
   <g id="xtick_3">
    <g id="line2d_4">
     <path d="M 143.720182 212.947049 
L 141.293136 214.361806 
" style="fill:none;stroke:#000000;stroke-linecap:square;stroke-width:0.8;"/>
    </g>
    <g id="text_4">
     <!-- −1.0 -->
     <g transform="translate(123.019859 233.954761)scale(0.1 -0.1)">
      <use xlink:href="#DejaVuSans-8722"/>
      <use x="83.789062" xlink:href="#DejaVuSans-49"/>
      <use x="147.412109" xlink:href="#DejaVuSans-46"/>
      <use x="179.199219" xlink:href="#DejaVuSans-48"/>
     </g>
    </g>
   </g>
   <g id="xtick_4">
    <g id="line2d_5">
     <path d="M 161.256686 216.671216 
L 158.850776 218.100049 
" style="fill:none;stroke:#000000;stroke-linecap:square;stroke-width:0.8;"/>
    </g>
    <g id="text_5">
     <!-- −0.5 -->
     <g transform="translate(140.561782 237.755775)scale(0.1 -0.1)">
      <use xlink:href="#DejaVuSans-8722"/>
      <use x="83.789062" xlink:href="#DejaVuSans-48"/>
      <use x="147.412109" xlink:href="#DejaVuSans-46"/>
      <use x="179.199219" xlink:href="#DejaVuSans-53"/>
     </g>
    </g>
   </g>
   <g id="xtick_5">
    <g id="line2d_6">
     <path d="M 178.967936 220.432494 
L 176.583706 221.875614 
" style="fill:none;stroke:#000000;stroke-linecap:square;stroke-width:0.8;"/>
    </g>
    <g id="text_6">
     <!-- 0.0 -->
     <g transform="translate(162.46883 241.59477)scale(0.1 -0.1)">
      <use xlink:href="#DejaVuSans-48"/>
      <use x="63.623047" xlink:href="#DejaVuSans-46"/>
      <use x="95.410156" xlink:href="#DejaVuSans-48"/>
     </g>
    </g>
   </g>
   <g id="xtick_6">
    <g id="line2d_7">
     <path d="M 196.856558 224.231439 
L 194.494564 225.689062 
" style="fill:none;stroke:#000000;stroke-linecap:square;stroke-width:0.8;"/>
    </g>
    <g id="text_7">
     <!-- 0.5 -->
     <g transform="translate(180.363955 245.472317)scale(0.1 -0.1)">
      <use xlink:href="#DejaVuSans-48"/>
      <use x="63.623047" xlink:href="#DejaVuSans-46"/>
      <use x="95.410156" xlink:href="#DejaVuSans-53"/>
     </g>
    </g>
   </g>
   <g id="xtick_7">
    <g id="line2d_8">
     <path d="M 214.925229 228.068621 
L 212.586041 229.540966 
" style="fill:none;stroke:#000000;stroke-linecap:square;stroke-width:0.8;"/>
    </g>
    <g id="text_8">
     <!-- 1.0 -->
     <g transform="translate(198.439695 249.389)scale(0.1 -0.1)">
      <use xlink:href="#DejaVuSans-49"/>
      <use x="63.623047" xlink:href="#DejaVuSans-46"/>
      <use x="95.410156" xlink:href="#DejaVuSans-48"/>
     </g>
    </g>
   </g>
   <g id="xtick_8">
    <g id="line2d_9">
     <path d="M 233.176681 231.94462 
L 230.860884 233.431911 
" style="fill:none;stroke:#000000;stroke-linecap:square;stroke-width:0.8;"/>
    </g>
    <g id="text_9">
     <!-- 1.5 -->
     <g transform="translate(216.698798 253.345415)scale(0.1 -0.1)">
      <use xlink:href="#DejaVuSans-49"/>
      <use x="63.623047" xlink:href="#DejaVuSans-46"/>
      <use x="95.410156" xlink:href="#DejaVuSans-53"/>
     </g>
    </g>
   </g>
   <g id="xtick_9">
    <g id="line2d_10">
     <path d="M 251.613702 235.860027 
L 249.321894 237.362493 
" style="fill:none;stroke:#000000;stroke-linecap:square;stroke-width:0.8;"/>
    </g>
    <g id="text_10">
     <!-- 2.0 -->
     <g transform="translate(235.144068 257.342168)scale(0.1 -0.1)">
      <use xlink:href="#DejaVuSans-50"/>
      <use x="63.623047" xlink:href="#DejaVuSans-46"/>
      <use x="95.410156" xlink:href="#DejaVuSans-48"/>
     </g>
    </g>
   </g>
  </g>
  <g id="axis3d_2">
   <g id="line2d_11">
    <path d="M 349.426265 180.446553 
L 261.697263 238.665609 
" style="fill:none;stroke:#000000;stroke-linecap:square;stroke-width:0.8;"/>
   </g>
   <g id="text_11">
    <!-- y -->
    <defs>
     <path d="M 32.171875 -5.078125 
Q 28.375 -14.84375 24.75 -17.8125 
Q 21.140625 -20.796875 15.09375 -20.796875 
L 7.90625 -20.796875 
L 7.90625 -13.28125 
L 13.1875 -13.28125 
Q 16.890625 -13.28125 18.9375 -11.515625 
Q 21 -9.765625 23.484375 -3.21875 
L 25.09375 0.875 
L 2.984375 54.6875 
L 12.5 54.6875 
L 29.59375 11.921875 
L 46.6875 54.6875 
L 56.203125 54.6875 
z
" id="DejaVuSans-121"/>
    </defs>
    <g transform="translate(332.459129 234.741712)scale(0.1 -0.1)">
     <use xlink:href="#DejaVuSans-121"/>
    </g>
   </g>
   <g id="Line3DCollection_2">
    <path d="M 100.673078 92.302614 
L 107.092796 199.107583 
L 269.695908 233.357518 
" style="fill:none;stroke:#b0b0b0;stroke-width:0.8;"/>
    <path d="M 123.255034 81.610523 
L 128.432589 187.234953 
L 289.272496 220.366028 
" style="fill:none;stroke:#b0b0b0;stroke-width:0.8;"/>
    <path d="M 145.083926 71.274992 
L 149.09606 175.738601 
L 308.200778 207.804768 
" style="fill:none;stroke:#b0b0b0;stroke-width:0.8;"/>
    <path d="M 166.196806 61.278477 
L 169.114861 164.600919 
L 326.512436 195.652716 
" style="fill:none;stroke:#b0b0b0;stroke-width:0.8;"/>
    <path d="M 186.628335 51.604569 
L 188.518696 153.805381 
L 344.237117 183.890196 
" style="fill:none;stroke:#b0b0b0;stroke-width:0.8;"/>
   </g>
   <g id="xtick_10">
    <g id="line2d_12">
     <path d="M 268.335166 233.070898 
L 272.420428 233.931398 
" style="fill:none;stroke:#000000;stroke-linecap:square;stroke-width:0.8;"/>
    </g>
    <g id="text_12">
     <!-- −2 -->
     <g transform="translate(275.735935 252.147961)scale(0.1 -0.1)">
      <use xlink:href="#DejaVuSans-8722"/>
      <use x="83.789062" xlink:href="#DejaVuSans-50"/>
     </g>
    </g>
   </g>
   <g id="xtick_11">
    <g id="line2d_13">
     <path d="M 287.927506 220.088976 
L 291.965425 220.920739 
" style="fill:none;stroke:#000000;stroke-linecap:square;stroke-width:0.8;"/>
    </g>
    <g id="text_13">
     <!-- −1 -->
     <g transform="translate(295.075794 238.975473)scale(0.1 -0.1)">
      <use xlink:href="#DejaVuSans-8722"/>
      <use x="83.789062" xlink:href="#DejaVuSans-49"/>
     </g>
    </g>
   </g>
   <g id="xtick_12">
    <g id="line2d_14">
     <path d="M 306.871253 207.536814 
L 310.862697 208.341255 
" style="fill:none;stroke:#000000;stroke-linecap:square;stroke-width:0.8;"/>
    </g>
    <g id="text_14">
     <!-- 0 -->
     <g transform="translate(317.965388 226.238967)scale(0.1 -0.1)">
      <use xlink:href="#DejaVuSans-48"/>
     </g>
    </g>
   </g>
   <g id="xtick_13">
    <g id="line2d_15">
     <path d="M 325.198089 195.393419 
L 329.143918 196.171862 
" style="fill:none;stroke:#000000;stroke-linecap:square;stroke-width:0.8;"/>
    </g>
    <g id="text_15">
     <!-- 1 -->
     <g transform="translate(336.05629 213.917151)scale(0.1 -0.1)">
      <use xlink:href="#DejaVuSans-49"/>
     </g>
    </g>
   </g>
   <g id="xtick_14">
    <g id="line2d_16">
     <path d="M 342.937666 183.639142 
L 346.838731 184.392828 
" style="fill:none;stroke:#000000;stroke-linecap:square;stroke-width:0.8;"/>
    </g>
    <g id="text_16">
     <!-- 2 -->
     <g transform="translate(353.567603 201.990097)scale(0.1 -0.1)">
      <use xlink:href="#DejaVuSans-50"/>
     </g>
    </g>
   </g>
  </g>
  <g id="axis3d_3">
   <g id="line2d_17">
    <path d="M 349.426265 180.446553 
L 355.920561 75.505466 
" style="fill:none;stroke:#000000;stroke-linecap:square;stroke-width:0.8;"/>
   </g>
   <g id="text_17">
    <!-- z -->
    <defs>
     <path d="M 5.515625 54.6875 
L 48.1875 54.6875 
L 48.1875 46.484375 
L 14.40625 7.171875 
L 48.1875 7.171875 
L 48.1875 0 
L 4.296875 0 
L 4.296875 8.203125 
L 38.09375 47.515625 
L 5.515625 47.515625 
z
" id="DejaVuSans-122"/>
    </defs>
    <g transform="translate(393.046043 128.331155)scale(0.1 -0.1)">
     <use xlink:href="#DejaVuSans-122"/>
    </g>
   </g>
   <g id="Line3DCollection_3">
    <path d="M 349.820145 174.08187 
L 194.10747 144.451031 
L 97.962803 197.457309 
" style="fill:none;stroke:#b0b0b0;stroke-width:0.8;"/>
    <path d="M 351.156105 152.494144 
L 193.77881 123.464488 
L 96.53722 175.413699 
" style="fill:none;stroke:#b0b0b0;stroke-width:0.8;"/>
    <path d="M 352.52119 130.435785 
L 193.443289 102.039848 
L 95.079515 152.873391 
" style="fill:none;stroke:#b0b0b0;stroke-width:0.8;"/>
    <path d="M 353.916363 107.891234 
L 193.10069 80.163248 
L 93.58859 129.819408 
" style="fill:none;stroke:#b0b0b0;stroke-width:0.8;"/>
    <path d="M 355.34263 84.844236 
L 192.750786 57.820234 
L 92.063296 106.233987 
" style="fill:none;stroke:#b0b0b0;stroke-width:0.8;"/>
   </g>
   <g id="xtick_15">
    <g id="line2d_18">
     <path d="M 348.520828 173.834621 
L 352.421487 174.576884 
" style="fill:none;stroke:#000000;stroke-linecap:square;stroke-width:0.8;"/>
    </g>
    <g id="text_18">
     <!-- −2 -->
     <g transform="translate(361.899564 179.875062)scale(0.1 -0.1)">
      <use xlink:href="#DejaVuSans-8722"/>
      <use x="83.789062" xlink:href="#DejaVuSans-50"/>
     </g>
    </g>
   </g>
   <g id="xtick_16">
    <g id="line2d_19">
     <path d="M 349.842314 152.251803 
L 353.786455 152.979336 
" style="fill:none;stroke:#000000;stroke-linecap:square;stroke-width:0.8;"/>
    </g>
    <g id="text_19">
     <!-- −1 -->
     <g transform="translate(363.441298 158.323218)scale(0.1 -0.1)">
      <use xlink:href="#DejaVuSans-8722"/>
      <use x="83.789062" xlink:href="#DejaVuSans-49"/>
     </g>
    </g>
   </g>
   <g id="xtick_17">
    <g id="line2d_20">
     <path d="M 351.192599 130.198627 
L 355.181202 130.910606 
" style="fill:none;stroke:#000000;stroke-linecap:square;stroke-width:0.8;"/>
    </g>
    <g id="text_20">
     <!-- 0 -->
     <g transform="translate(369.2064 136.30274)scale(0.1 -0.1)">
      <use xlink:href="#DejaVuSans-48"/>
     </g>
    </g>
   </g>
   <g id="xtick_18">
    <g id="line2d_21">
     <path d="M 352.572635 107.659547 
L 356.606713 108.355106 
" style="fill:none;stroke:#000000;stroke-linecap:square;stroke-width:0.8;"/>
    </g>
    <g id="text_21">
     <!-- 1 -->
     <g transform="translate(370.816288 113.798175)scale(0.1 -0.1)">
      <use xlink:href="#DejaVuSans-49"/>
     </g>
    </g>
   </g>
   <g id="xtick_19">
    <g id="line2d_22">
     <path d="M 353.983417 84.618325 
L 358.064017 85.296552 
" style="fill:none;stroke:#000000;stroke-linecap:square;stroke-width:0.8;"/>
    </g>
    <g id="text_22">
     <!-- 2 -->
     <g transform="translate(372.46196 90.793383)scale(0.1 -0.1)">
      <use xlink:href="#DejaVuSans-50"/>
     </g>
    </g>
   </g>
  </g>
  <g id="axes_1">
   <g id="patch_6">
    <path clip-path="url(#p236463aaa8)" d="M 225.062556 140.185714 
Q 187.326611 125.619002 150.633688 111.454914 
" style="fill:none;stroke:#d62728;stroke-linecap:round;"/>
    <path clip-path="url(#p236463aaa8)" d="M 156.656472 118.067484 
L 150.633688 111.454914 
L 159.537414 110.604229 
L 156.656472 118.067484 
z
" style="fill:#d62728;stroke:#d62728;stroke-linecap:round;"/>
   </g>
   <g id="line2d_23">
    <path clip-path="url(#p236463aaa8)" d="M 157.137091 127.813538 
L 299.513565 154.521569 
" style="fill:none;stroke:#000000;stroke-linecap:square;stroke-width:1.5;"/>
   </g>
   <g id="line2d_24">
    <path clip-path="url(#p236463aaa8)" d="M 183.366872 165.445733 
L 265.677295 119.073215 
" style="fill:none;stroke:#000000;stroke-linecap:square;stroke-width:1.5;"/>
   </g>
   <g id="line2d_25">
    <path clip-path="url(#p236463aaa8)" d="M 226.904411 184.992916 
L 226.949957 92.461552 
" style="fill:none;stroke:#000000;stroke-linecap:square;stroke-width:1.5;"/>
   </g>
   <g id="line2d_26">
    <path clip-path="url(#p236463aaa8)" d="M 185.512381 164.236983 
L 149.496755 157.167944 
" style="fill:none;stroke:#808080;stroke-dasharray:5.55,2.4;stroke-dashoffset:0;stroke-width:1.5;"/>
   </g>
   <g id="line2d_27">
    <path clip-path="url(#p236463aaa8)" d="M 226.948796 94.820622 
L 184.565133 117.079107 
" style="fill:none;stroke:#808080;stroke-dasharray:5.55,2.4;stroke-dashoffset:0;stroke-width:1.5;"/>
   </g>
   <g id="line2d_28">
    <path clip-path="url(#p236463aaa8)" d="M 226.948796 94.820622 
L 190.924579 88.521521 
" style="fill:none;stroke:#808080;stroke-dasharray:5.55,2.4;stroke-dashoffset:0;stroke-width:1.5;"/>
   </g>
   <g id="line2d_29">
    <path clip-path="url(#p236463aaa8)" d="M 185.512381 164.236983 
L 184.565133 117.079107 
" style="fill:none;stroke:#808080;stroke-dasharray:5.55,2.4;stroke-dashoffset:0;stroke-width:1.5;"/>
   </g>
   <g id="line2d_30">
    <path clip-path="url(#p236463aaa8)" d="M 191.692011 134.295605 
L 149.496755 157.167944 
" style="fill:none;stroke:#808080;stroke-dasharray:5.55,2.4;stroke-dashoffset:0;stroke-width:1.5;"/>
   </g>
   <g id="line2d_31">
    <path clip-path="url(#p236463aaa8)" d="M 191.692011 134.295605 
L 190.924579 88.521521 
" style="fill:none;stroke:#808080;stroke-dasharray:5.55,2.4;stroke-dashoffset:0;stroke-width:1.5;"/>
   </g>
   <g id="line2d_32">
    <path clip-path="url(#p236463aaa8)" d="M 184.565133 117.079107 
L 147.723754 110.331631 
" style="fill:none;stroke:#808080;stroke-dasharray:5.55,2.4;stroke-dashoffset:0;stroke-width:1.5;"/>
   </g>
   <g id="line2d_33">
    <path clip-path="url(#p236463aaa8)" d="M 190.924579 88.521521 
L 147.723754 110.331631 
" style="fill:none;stroke:#808080;stroke-dasharray:5.55,2.4;stroke-dashoffset:0;stroke-width:1.5;"/>
   </g>
   <g id="line2d_34">
    <path clip-path="url(#p236463aaa8)" d="M 149.496755 157.167944 
L 147.723754 110.331631 
" style="fill:none;stroke:#808080;stroke-dasharray:5.55,2.4;stroke-dashoffset:0;stroke-width:1.5;"/>
   </g>
   <g id="Path3DCollection_1">
    <defs>
     <path d="M -2.236068 2.236068 
L 2.236068 -2.236068 
M -2.236068 -2.236068 
L 2.236068 2.236068 
" id="mf4edc09379" style="stroke:#000000;stroke-width:1.5;"/>
    </defs>
    <g clip-path="url(#p236463aaa8)">
     <use style="stroke:#000000;stroke-width:1.5;" x="226.926112" xlink:href="#mf4edc09379" y="140.905078"/>
    </g>
   </g>
   <g id="Path3DCollection_2">
    <defs>
     <path d="M 0 2.236068 
C 0.593012 2.236068 1.161816 2.000462 1.581139 1.581139 
C 2.000462 1.161816 2.236068 0.593012 2.236068 0 
C 2.236068 -0.593012 2.000462 -1.161816 1.581139 -1.581139 
C 1.161816 -2.000462 0.593012 -2.236068 0 -2.236068 
C -0.593012 -2.236068 -1.161816 -2.000462 -1.581139 -1.581139 
C -2.000462 -1.161816 -2.236068 -0.593012 -2.236068 0 
C -2.236068 0.593012 -2.000462 1.161816 -1.581139 1.581139 
C -1.161816 2.000462 -0.593012 2.236068 0 2.236068 
z
" id="mac1720ea77" style="stroke:#000000;"/>
    </defs>
    <g clip-path="url(#p236463aaa8)">
     <use style="stroke:#000000;" x="147.723754" xlink:href="#mac1720ea77" y="110.331631"/>
    </g>
   </g>
  </g>
 </g>
 <defs>
  <clipPath id="p236463aaa8">
   <rect height="217.44" width="334.8" x="54" y="34.56"/>
  </clipPath>
 </defs>
</svg>
