<?xml version="1.0" encoding="utf-8" standalone="no"?>
<!DOCTYPE svg PUBLIC "-//W3C//DTD SVG 1.1//EN"
  "http://www.w3.org/Graphics/SVG/1.1/DTD/svg11.dtd">
<!-- Created with matplotlib (http://matplotlib.org/) -->
<svg height="288pt" version="1.1" viewBox="0 0 432 288" width="432pt" xmlns="http://www.w3.org/2000/svg" xmlns:xlink="http://www.w3.org/1999/xlink">
 <defs>
  <style type="text/css">
*{stroke-linecap:butt;stroke-linejoin:round;}
  </style>
 </defs>
 <g id="figure_1">
  <g id="patch_1">
   <path d="M 0 288 
L 432 288 
L 432 0 
L 0 0 
z
" style="fill:#ffffff;"/>
  </g>
  <g id="patch_2">
   <path d="M 54 252 
L 388.8 252 
L 388.8 34.56 
L 54 34.56 
z
" style="fill:#ffffff;"/>
  </g>
  <g id="pane3d_1">
   <g id="patch_3">
    <path d="M 98.382914 203.953423 
L 194.204425 150.642062 
L 192.609099 48.772801 
L 91.44491 96.671962 
" style="fill:#f2f2f2;opacity:0.5;stroke:#f2f2f2;stroke-linejoin:miter;"/>
   </g>
  </g>
  <g id="pane3d_2">
   <g id="patch_4">
    <path d="M 194.204425 150.642062 
L 349.426265 180.446553 
L 355.920561 75.505466 
L 192.609099 48.772801 
" style="fill:#e6e6e6;opacity:0.5;stroke:#e6e6e6;stroke-linejoin:miter;"/>
   </g>
  </g>
  <g id="pane3d_3">
   <g id="patch_5">
    <path d="M 98.382914 203.953423 
L 261.697263 238.665609 
L 349.426265 180.446553 
L 194.204425 150.642062 
" style="fill:#ececec;opacity:0.5;stroke:#ececec;stroke-linejoin:miter;"/>
   </g>
  </g>
  <g id="axis3d_1">
   <g id="line2d_1">
    <path d="M 98.382914 203.953423 
L 261.697263 238.665609 
" style="fill:none;stroke:#000000;stroke-linecap:square;stroke-width:0.8;"/>
   </g>
   <g id="text_1">
    <!-- x -->
    <defs>
     <path d="M 54.890625 54.6875 
L 35.109375 28.078125 
L 55.90625 0 
L 45.3125 0 
L 29.390625 21.484375 
L 13.484375 0 
L 2.875 0 
L 24.125 28.609375 
L 4.6875 54.6875 
L 15.28125 54.6875 
L 29.78125 35.203125 
L 44.28125 54.6875 
z
" id="DejaVuSans-78"/>
    </defs>
    <g transform="translate(158.316779 252.185263)scale(0.1 -0.1)">
     <use xlink:href="#DejaVuSans-78"/>
    </g>
   </g>
   <g id="Line3DCollection_1">
    <path d="M 101.506055 204.617241 
L 197.18259 151.213906 
L 195.735788 49.284612 
" style="fill:none;stroke:#b0b0b0;stroke-width:0.8;"/>
    <path d="M 139.424236 212.676686 
L 233.310106 158.150831 
L 233.685823 55.496703 
" style="fill:none;stroke:#b0b0b0;stroke-width:0.8;"/>
    <path d="M 178.1742 220.912925 
L 270.171995 165.228764 
L 272.446939 61.84156 
" style="fill:none;stroke:#b0b0b0;stroke-width:0.8;"/>
    <path d="M 217.783619 229.331839 
L 307.790878 172.45205 
L 312.04542 68.323487 
" style="fill:none;stroke:#b0b0b0;stroke-width:0.8;"/>
    <path d="M 258.28141 237.939575 
L 346.190317 179.825211 
L 352.508697 74.946973 
" style="fill:none;stroke:#b0b0b0;stroke-width:0.8;"/>
   </g>
   <g id="xtick_1">
    <g id="line2d_2">
     <path d="M 102.330243 204.157208 
L 99.854611 205.53902 
" style="fill:none;stroke:#000000;stroke-linecap:square;stroke-width:0.8;"/>
    </g>
    <g id="text_2">
     <!-- −1.0 -->
     <defs>
      <path d="M 10.59375 35.5 
L 73.1875 35.5 
L 73.1875 27.203125 
L 10.59375 27.203125 
z
" id="DejaVuSans-2212"/>
      <path d="M 12.40625 8.296875 
L 28.515625 8.296875 
L 28.515625 63.921875 
L 10.984375 60.40625 
L 10.984375 69.390625 
L 28.421875 72.90625 
L 38.28125 72.90625 
L 38.28125 8.296875 
L 54.390625 8.296875 
L 54.390625 0 
L 12.40625 0 
z
" id="DejaVuSans-31"/>
      <path d="M 10.6875 12.40625 
L 21 12.40625 
L 21 0 
L 10.6875 0 
z
" id="DejaVuSans-2e"/>
      <path d="M 31.78125 66.40625 
Q 24.171875 66.40625 20.328125 58.90625 
Q 16.5 51.421875 16.5 36.375 
Q 16.5 21.390625 20.328125 13.890625 
Q 24.171875 6.390625 31.78125 6.390625 
Q 39.453125 6.390625 43.28125 13.890625 
Q 47.125 21.390625 47.125 36.375 
Q 47.125 51.421875 43.28125 58.90625 
Q 39.453125 66.40625 31.78125 66.40625 
z
M 31.78125 74.21875 
Q 44.046875 74.21875 50.515625 64.515625 
Q 56.984375 54.828125 56.984375 36.375 
Q 56.984375 17.96875 50.515625 8.265625 
Q 44.046875 -1.421875 31.78125 -1.421875 
Q 19.53125 -1.421875 13.0625 8.265625 
Q 6.59375 17.96875 6.59375 36.375 
Q 6.59375 54.828125 13.0625 64.515625 
Q 19.53125 74.21875 31.78125 74.21875 
z
" id="DejaVuSans-30"/>
     </defs>
     <g transform="translate(81.619007 224.983952)scale(0.1 -0.1)">
      <use xlink:href="#DejaVuSans-2212"/>
      <use x="83.789062" xlink:href="#DejaVuSans-31"/>
      <use x="147.412109" xlink:href="#DejaVuSans-2e"/>
      <use x="179.199219" xlink:href="#DejaVuSans-30"/>
     </g>
    </g>
   </g>
   <g id="xtick_2">
    <g id="line2d_3">
     <path d="M 140.233623 212.20662 
L 137.802414 213.618587 
" style="fill:none;stroke:#000000;stroke-linecap:square;stroke-width:0.8;"/>
    </g>
    <g id="text_3">
     <!-- −0.5 -->
     <defs>
      <path d="M 10.796875 72.90625 
L 49.515625 72.90625 
L 49.515625 64.59375 
L 19.828125 64.59375 
L 19.828125 46.734375 
Q 21.96875 47.46875 24.109375 47.828125 
Q 26.265625 48.1875 28.421875 48.1875 
Q 40.625 48.1875 47.75 41.5 
Q 54.890625 34.8125 54.890625 23.390625 
Q 54.890625 11.625 47.5625 5.09375 
Q 40.234375 -1.421875 26.90625 -1.421875 
Q 22.3125 -1.421875 17.546875 -0.640625 
Q 12.796875 0.140625 7.71875 1.703125 
L 7.71875 11.625 
Q 12.109375 9.234375 16.796875 8.0625 
Q 21.484375 6.890625 26.703125 6.890625 
Q 35.15625 6.890625 40.078125 11.328125 
Q 45.015625 15.765625 45.015625 23.390625 
Q 45.015625 31 40.078125 35.4375 
Q 35.15625 39.890625 26.703125 39.890625 
Q 22.75 39.890625 18.8125 39.015625 
Q 14.890625 38.140625 10.796875 36.28125 
z
" id="DejaVuSans-35"/>
     </defs>
     <g transform="translate(119.532279 233.199066)scale(0.1 -0.1)">
      <use xlink:href="#DejaVuSans-2212"/>
      <use x="83.789062" xlink:href="#DejaVuSans-30"/>
      <use x="147.412109" xlink:href="#DejaVuSans-2e"/>
      <use x="179.199219" xlink:href="#DejaVuSans-35"/>
     </g>
    </g>
   </g>
   <g id="xtick_3">
    <g id="line2d_4">
     <path d="M 178.967936 220.432494 
L 176.583706 221.875614 
" style="fill:none;stroke:#000000;stroke-linecap:square;stroke-width:0.8;"/>
    </g>
    <g id="text_4">
     <!-- 0.0 -->
     <g transform="translate(162.46883 241.59477)scale(0.1 -0.1)">
      <use xlink:href="#DejaVuSans-30"/>
      <use x="63.623047" xlink:href="#DejaVuSans-2e"/>
      <use x="95.410156" xlink:href="#DejaVuSans-30"/>
     </g>
    </g>
   </g>
   <g id="xtick_4">
    <g id="line2d_5">
     <path d="M 218.560809 228.840697 
L 216.226252 230.316013 
" style="fill:none;stroke:#000000;stroke-linecap:square;stroke-width:0.8;"/>
    </g>
    <g id="text_5">
     <!-- 0.5 -->
     <g transform="translate(202.076757 250.177085)scale(0.1 -0.1)">
      <use xlink:href="#DejaVuSans-30"/>
      <use x="63.623047" xlink:href="#DejaVuSans-2e"/>
      <use x="95.410156" xlink:href="#DejaVuSans-35"/>
     </g>
    </g>
   </g>
   <g id="xtick_5">
    <g id="line2d_6">
     <path d="M 259.041105 237.43736 
L 256.759063 238.94596 
" style="fill:none;stroke:#000000;stroke-linecap:square;stroke-width:0.8;"/>
    </g>
    <g id="text_6">
     <!-- 1.0 -->
     <g transform="translate(242.574942 258.952303)scale(0.1 -0.1)">
      <use xlink:href="#DejaVuSans-31"/>
      <use x="63.623047" xlink:href="#DejaVuSans-2e"/>
      <use x="95.410156" xlink:href="#DejaVuSans-30"/>
     </g>
    </g>
   </g>
  </g>
  <g id="axis3d_2">
   <g id="line2d_7">
    <path d="M 349.426265 180.446553 
L 261.697263 238.665609 
" style="fill:none;stroke:#000000;stroke-linecap:square;stroke-width:0.8;"/>
   </g>
   <g id="text_7">
    <!-- y -->
    <defs>
     <path d="M 32.171875 -5.078125 
Q 28.375 -14.84375 24.75 -17.8125 
Q 21.140625 -20.796875 15.09375 -20.796875 
L 7.90625 -20.796875 
L 7.90625 -13.28125 
L 13.1875 -13.28125 
Q 16.890625 -13.28125 18.9375 -11.515625 
Q 21 -9.765625 23.484375 -3.21875 
L 25.09375 0.875 
L 2.984375 54.6875 
L 12.5 54.6875 
L 29.59375 11.921875 
L 46.6875 54.6875 
L 56.203125 54.6875 
z
" id="DejaVuSans-79"/>
    </defs>
    <g transform="translate(332.459129 234.741712)scale(0.1 -0.1)">
     <use xlink:href="#DejaVuSans-79"/>
    </g>
   </g>
   <g id="Line3DCollection_2">
    <path d="M 93.629722 95.637499 
L 100.444461 202.806459 
L 263.590908 237.408941 
" style="fill:none;stroke:#b0b0b0;stroke-width:0.8;"/>
    <path d="M 119.302809 83.48182 
L 124.695084 189.314355 
L 285.845917 222.639987 
" style="fill:none;stroke:#b0b0b0;stroke-width:0.8;"/>
    <path d="M 144.009785 71.783576 
L 148.078453 176.304758 
L 307.269264 208.422944 
" style="fill:none;stroke:#b0b0b0;stroke-width:0.8;"/>
    <path d="M 167.804176 60.517421 
L 170.640272 163.75224 
L 327.906713 194.72744 
" style="fill:none;stroke:#b0b0b0;stroke-width:0.8;"/>
    <path d="M 190.735627 49.659851 
L 192.423091 151.633127 
L 347.800731 181.525296 
" style="fill:none;stroke:#b0b0b0;stroke-width:0.8;"/>
   </g>
   <g id="xtick_6">
    <g id="line2d_8">
     <path d="M 262.225303 237.119304 
L 266.32518 237.988866 
" style="fill:none;stroke:#000000;stroke-linecap:square;stroke-width:0.8;"/>
    </g>
    <g id="text_8">
     <!-- −1.0 -->
     <g transform="translate(264.934523 256.255776)scale(0.1 -0.1)">
      <use xlink:href="#DejaVuSans-2212"/>
      <use x="83.789062" xlink:href="#DejaVuSans-31"/>
      <use x="147.412109" xlink:href="#DejaVuSans-2e"/>
      <use x="179.199219" xlink:href="#DejaVuSans-30"/>
     </g>
    </g>
   </g>
   <g id="xtick_7">
    <g id="line2d_9">
     <path d="M 284.498152 222.361273 
L 288.544411 223.19803 
" style="fill:none;stroke:#000000;stroke-linecap:square;stroke-width:0.8;"/>
    </g>
    <g id="text_9">
     <!-- −0.5 -->
     <g transform="translate(286.920311 241.281131)scale(0.1 -0.1)">
      <use xlink:href="#DejaVuSans-2212"/>
      <use x="83.789062" xlink:href="#DejaVuSans-30"/>
      <use x="147.412109" xlink:href="#DejaVuSans-2e"/>
      <use x="179.199219" xlink:href="#DejaVuSans-35"/>
     </g>
    </g>
   </g>
   <g id="xtick_8">
    <g id="line2d_10">
     <path d="M 305.938973 208.154545 
L 309.932719 208.96032 
" style="fill:none;stroke:#000000;stroke-linecap:square;stroke-width:0.8;"/>
    </g>
    <g id="text_10">
     <!-- 0.0 -->
     <g transform="translate(312.274799 226.865772)scale(0.1 -0.1)">
      <use xlink:href="#DejaVuSans-30"/>
      <use x="63.623047" xlink:href="#DejaVuSans-2e"/>
      <use x="95.410156" xlink:href="#DejaVuSans-30"/>
     </g>
    </g>
   </g>
   <g id="xtick_9">
    <g id="line2d_11">
     <path d="M 326.593531 194.468796 
L 330.535861 195.245277 
" style="fill:none;stroke:#000000;stroke-linecap:square;stroke-width:0.8;"/>
    </g>
    <g id="text_11">
     <!-- 0.5 -->
     <g transform="translate(332.663459 212.97894)scale(0.1 -0.1)">
      <use xlink:href="#DejaVuSans-30"/>
      <use x="63.623047" xlink:href="#DejaVuSans-2e"/>
      <use x="95.410156" xlink:href="#DejaVuSans-35"/>
     </g>
    </g>
   </g>
   <g id="xtick_10">
    <g id="line2d_12">
     <path d="M 346.5043 181.275884 
L 350.396291 182.024641 
" style="fill:none;stroke:#000000;stroke-linecap:square;stroke-width:0.8;"/>
    </g>
    <g id="text_12">
     <!-- 1.0 -->
     <g transform="translate(352.318043 199.592092)scale(0.1 -0.1)">
      <use xlink:href="#DejaVuSans-31"/>
      <use x="63.623047" xlink:href="#DejaVuSans-2e"/>
      <use x="95.410156" xlink:href="#DejaVuSans-30"/>
     </g>
    </g>
   </g>
  </g>
  <g id="axis3d_3">
   <g id="line2d_13">
    <path d="M 349.426265 180.446553 
L 355.920561 75.505466 
" style="fill:none;stroke:#000000;stroke-linecap:square;stroke-width:0.8;"/>
   </g>
   <g id="text_13">
    <!-- z -->
    <defs>
     <path d="M 5.515625 54.6875 
L 48.1875 54.6875 
L 48.1875 46.484375 
L 14.40625 7.171875 
L 48.1875 7.171875 
L 48.1875 0 
L 4.296875 0 
L 4.296875 8.203125 
L 38.09375 47.515625 
L 5.515625 47.515625 
z
" id="DejaVuSans-7a"/>
    </defs>
    <g transform="translate(393.046043 128.331155)scale(0.1 -0.1)">
     <use xlink:href="#DejaVuSans-7a"/>
    </g>
   </g>
   <g id="Line3DCollection_3">
    <path d="M 349.549786 178.450589 
L 194.174017 148.700379 
L 98.251176 201.916388 
" style="fill:none;stroke:#b0b0b0;stroke-width:0.8;"/>
    <path d="M 351.051539 154.183821 
L 193.804524 125.106431 
L 96.648837 177.139621 
" style="fill:none;stroke:#b0b0b0;stroke-width:0.8;"/>
    <path d="M 352.590226 129.320237 
L 193.426329 100.95687 
L 95.005767 151.733036 
" style="fill:none;stroke:#b0b0b0;stroke-width:0.8;"/>
    <path d="M 354.167226 103.837546 
L 193.039122 76.231833 
L 93.320393 125.67231 
" style="fill:none;stroke:#b0b0b0;stroke-width:0.8;"/>
    <path d="M 355.783989 77.712332 
L 192.642576 50.910504 
L 91.591059 98.931851 
" style="fill:none;stroke:#b0b0b0;stroke-width:0.8;"/>
   </g>
   <g id="xtick_11">
    <g id="line2d_14">
     <path d="M 348.253397 178.202366 
L 352.14526 178.947551 
" style="fill:none;stroke:#000000;stroke-linecap:square;stroke-width:0.8;"/>
    </g>
    <g id="text_14">
     <!-- −1.0 -->
     <g transform="translate(356.81724 184.236663)scale(0.1 -0.1)">
      <use xlink:href="#DejaVuSans-2212"/>
      <use x="83.789062" xlink:href="#DejaVuSans-31"/>
      <use x="147.412109" xlink:href="#DejaVuSans-2e"/>
      <use x="179.199219" xlink:href="#DejaVuSans-30"/>
     </g>
    </g>
   </g>
   <g id="xtick_12">
    <g id="line2d_15">
     <path d="M 349.738881 153.94109 
L 353.679618 154.669793 
" style="fill:none;stroke:#000000;stroke-linecap:square;stroke-width:0.8;"/>
    </g>
    <g id="text_15">
     <!-- −0.5 -->
     <g transform="translate(358.550317 160.010044)scale(0.1 -0.1)">
      <use xlink:href="#DejaVuSans-2212"/>
      <use x="83.789062" xlink:href="#DejaVuSans-30"/>
      <use x="147.412109" xlink:href="#DejaVuSans-2e"/>
      <use x="179.199219" xlink:href="#DejaVuSans-35"/>
     </g>
    </g>
   </g>
   <g id="xtick_13">
    <g id="line2d_16">
     <path d="M 351.260886 129.083345 
L 355.251738 129.794525 
" style="fill:none;stroke:#000000;stroke-linecap:square;stroke-width:0.8;"/>
    </g>
    <g id="text_16">
     <!-- 0.0 -->
     <g transform="translate(364.51575 135.18914)scale(0.1 -0.1)">
      <use xlink:href="#DejaVuSans-30"/>
      <use x="63.623047" xlink:href="#DejaVuSans-2e"/>
      <use x="95.410156" xlink:href="#DejaVuSans-30"/>
     </g>
    </g>
   </g>
   <g id="xtick_14">
    <g id="line2d_17">
     <path d="M 352.820775 103.606861 
L 356.863033 104.299412 
" style="fill:none;stroke:#000000;stroke-linecap:square;stroke-width:0.8;"/>
    </g>
    <g id="text_17">
     <!-- 0.5 -->
     <g transform="translate(366.335436 109.751813)scale(0.1 -0.1)">
      <use xlink:href="#DejaVuSans-30"/>
      <use x="63.623047" xlink:href="#DejaVuSans-2e"/>
      <use x="95.410156" xlink:href="#DejaVuSans-35"/>
     </g>
    </g>
   </g>
   <g id="xtick_15">
    <g id="line2d_18">
     <path d="M 354.419981 77.488245 
L 358.514985 78.160996 
" style="fill:none;stroke:#000000;stroke-linecap:square;stroke-width:0.8;"/>
    </g>
    <g id="text_18">
     <!-- 1.0 -->
     <g transform="translate(368.200882 83.67481)scale(0.1 -0.1)">
      <use xlink:href="#DejaVuSans-31"/>
      <use x="63.623047" xlink:href="#DejaVuSans-2e"/>
      <use x="95.410156" xlink:href="#DejaVuSans-30"/>
     </g>
    </g>
   </g>
  </g>
  <g id="axes_1">
   <g id="Path3DCollection_1">
    <defs>
     <path d="M -2.236068 2.236068 
L 2.236068 -2.236068 
M -2.236068 -2.236068 
L 2.236068 2.236068 
" id="m19c0d7856a" style="stroke:#000000;stroke-width:1.5;"/>
    </defs>
    <g clip-path="url(#p0ebd0ad12e)">
     <use style="stroke:#000000;stroke-width:1.5;" x="225.924324" xlink:href="#m19c0d7856a" y="140.341622"/>
    </g>
   </g>
   <g id="Path3DCollection_2">
    <defs>
     <path d="M 0 2.236068 
C 0.593012 2.236068 1.161816 2.000462 1.581139 1.581139 
C 2.000462 1.161816 2.236068 0.593012 2.236068 0 
C 2.236068 -0.593012 2.000462 -1.161816 1.581139 -1.581139 
C 1.161816 -2.000462 0.593012 -2.236068 0 -2.236068 
C -0.593012 -2.236068 -1.161816 -2.000462 -1.581139 -1.581139 
C -2.000462 -1.161816 -2.236068 -0.593012 -2.236068 0 
C -2.236068 0.593012 -2.000462 1.161816 -1.581139 1.581139 
C -1.161816 2.000462 -0.593012 2.236068 0 2.236068 
z
" id="m0f96b2d777" style="stroke:#1f77b4;"/>
    </defs>
    <g clip-path="url(#p0ebd0ad12e)">
     <use style="fill:#1f77b4;stroke:#1f77b4;" x="306.022088" xlink:href="#m0f96b2d777" y="155.358642"/>
     <use style="fill:#1f77b4;stroke:#1f77b4;" x="269.53227" xlink:href="#m0f96b2d777" y="115.814293"/>
     <use style="fill:#1f77b4;stroke:#1f77b4;" x="225.924324" xlink:href="#m0f96b2d777" y="88.142436"/>
     <use style="fill:#1f77b4;stroke:#1f77b4;" x="149.221395" xlink:href="#m0f96b2d777" y="125.961078"/>
     <use style="fill:#1f77b4;stroke:#1f77b4;" x="178.918357" xlink:href="#m0f96b2d777" y="166.78017"/>
     <use style="fill:#1f77b4;stroke:#1f77b4;" x="225.924324" xlink:href="#m0f96b2d777" y="189.994506"/>
    </g>
   </g>
   <g id="patch_6">
    <path clip-path="url(#p0ebd0ad12e)" d="M 227.456957 89.428585 
Q 265.973483 121.750771 303.633579 153.35426 
" style="fill:none;stroke:#1f77b4;stroke-linecap:round;"/>
    <path clip-path="url(#p0ebd0ad12e)" d="M 300.076747 145.14762 
L 303.633579 153.35426 
L 294.934168 151.275741 
L 300.076747 145.14762 
z
" style="fill:#1f77b4;stroke:#1f77b4;stroke-linecap:round;"/>
   </g>
   <g id="patch_7">
    <path clip-path="url(#p0ebd0ad12e)" d="M 227.614452 89.214923 
Q 247.727789 101.978042 266.897115 114.142129 
" style="fill:none;stroke:#1f77b4;stroke-linecap:round;"/>
    <path clip-path="url(#p0ebd0ad12e)" d="M 262.285474 106.478398 
L 266.897115 114.142129 
L 257.999146 113.233203 
L 262.285474 106.478398 
z
" style="fill:#1f77b4;stroke:#1f77b4;stroke-linecap:round;"/>
   </g>
   <g id="patch_8">
    <path clip-path="url(#p0ebd0ad12e)" d="M 224.12894 89.027656 
Q 187.572422 107.051973 152.018674 124.58187 
" style="fill:none;stroke:#1f77b4;stroke-linecap:round;"/>
    <path clip-path="url(#p0ebd0ad12e)" d="M 160.962807 124.631713 
L 152.018674 124.58187 
L 157.425028 117.45647 
L 160.962807 124.631713 
z
" style="fill:#1f77b4;stroke:#1f77b4;stroke-linecap:round;"/>
   </g>
   <g id="patch_9">
    <path clip-path="url(#p0ebd0ad12e)" d="M 224.898651 89.858316 
Q 202.421376 127.461244 180.517739 164.104515 
" style="fill:none;stroke:#1f77b4;stroke-linecap:round;"/>
    <path clip-path="url(#p0ebd0ad12e)" d="M 188.055726 159.290083 
L 180.517739 164.104515 
L 181.188986 155.185466 
L 188.055726 159.290083 
z
" style="fill:#1f77b4;stroke:#1f77b4;stroke-linecap:round;"/>
   </g>
   <g id="line2d_19">
    <path clip-path="url(#p0ebd0ad12e)" d="M 149.221395 125.961078 
L 306.022088 155.358642 
" style="fill:none;stroke:#000000;stroke-linecap:square;stroke-width:1.5;"/>
   </g>
   <g id="line2d_20">
    <path clip-path="url(#p0ebd0ad12e)" d="M 178.918357 166.78017 
L 269.53227 115.814293 
" style="fill:none;stroke:#000000;stroke-linecap:square;stroke-width:1.5;"/>
   </g>
   <g id="line2d_21">
    <path clip-path="url(#p0ebd0ad12e)" d="M 225.924324 189.994506 
L 225.924324 88.142436 
" style="fill:none;stroke:#000000;stroke-linecap:square;stroke-width:1.5;"/>
   </g>
  </g>
 </g>
 <defs>
  <clipPath id="p0ebd0ad12e">
   <rect height="217.44" width="334.8" x="54" y="34.56"/>
  </clipPath>
 </defs>
</svg>
