<?xml version="1.0" encoding="utf-8" standalone="no"?>
<!DOCTYPE svg PUBLIC "-//W3C//DTD SVG 1.1//EN"
  "http://www.w3.org/Graphics/SVG/1.1/DTD/svg11.dtd">
<!-- Created with matplotlib (http://matplotlib.org/) -->
<svg height="288pt" version="1.1" viewBox="0 0 432 288" width="432pt" xmlns="http://www.w3.org/2000/svg" xmlns:xlink="http://www.w3.org/1999/xlink">
 <defs>
  <style type="text/css">
*{stroke-linecap:butt;stroke-linejoin:round;}
  </style>
 </defs>
 <g id="figure_1">
  <g id="patch_1">
   <path d="M 0 288 
L 432 288 
L 432 0 
L 0 0 
z
" style="fill:#ffffff;"/>
  </g>
  <g id="patch_2">
   <path d="M 54 252 
L 388.8 252 
L 388.8 34.56 
L 54 34.56 
z
" style="fill:#ffffff;"/>
  </g>
  <g id="pane3d_1">
   <g id="patch_3">
    <path d="M 98.382914 203.953423 
L 194.204425 150.642062 
L 192.609099 48.772801 
L 91.44491 96.671962 
" style="fill:#f2f2f2;opacity:0.5;stroke:#f2f2f2;stroke-linejoin:miter;"/>
   </g>
  </g>
  <g id="pane3d_2">
   <g id="patch_4">
    <path d="M 194.204425 150.642062 
L 349.426265 180.446553 
L 355.920561 75.505466 
L 192.609099 48.772801 
" style="fill:#e6e6e6;opacity:0.5;stroke:#e6e6e6;stroke-linejoin:miter;"/>
   </g>
  </g>
  <g id="pane3d_3">
   <g id="patch_5">
    <path d="M 98.382914 203.953423 
L 261.697263 238.665609 
L 349.426265 180.446553 
L 194.204425 150.642062 
" style="fill:#ececec;opacity:0.5;stroke:#ececec;stroke-linejoin:miter;"/>
   </g>
  </g>
  <g id="axis3d_1">
   <g id="line2d_1">
    <path d="M 98.382914 203.953423 
L 261.697263 238.665609 
" style="fill:none;stroke:#000000;stroke-linecap:square;stroke-width:0.8;"/>
   </g>
   <g id="text_1">
    <!-- x -->
    <defs>
     <path d="M 54.890625 54.6875 
L 35.109375 28.078125 
L 55.90625 0 
L 45.3125 0 
L 29.390625 21.484375 
L 13.484375 0 
L 2.875 0 
L 24.125 28.609375 
L 4.6875 54.6875 
L 15.28125 54.6875 
L 29.78125 35.203125 
L 44.28125 54.6875 
z
" id="DejaVuSans-78"/>
    </defs>
    <g transform="translate(158.316779 252.185263)scale(0.1 -0.1)">
     <use xlink:href="#DejaVuSans-78"/>
    </g>
   </g>
   <g id="Line3DCollection_1">
    <path d="M 105.674012 205.503133 
L 201.156474 151.97694 
L 199.90826 49.96761 
" style="fill:none;stroke:#b0b0b0;stroke-width:0.8;"/>
    <path d="M 123.521718 209.296633 
L 218.165434 155.242869 
L 217.772469 52.891825 
" style="fill:none;stroke:#b0b0b0;stroke-width:0.8;"/>
    <path d="M 141.552423 213.129029 
L 235.336122 158.539851 
L 235.815184 55.845261 
" style="fill:none;stroke:#b0b0b0;stroke-width:0.8;"/>
    <path d="M 159.768954 217.000921 
L 252.670855 161.868331 
L 254.039093 58.828356 
" style="fill:none;stroke:#b0b0b0;stroke-width:0.8;"/>
    <path d="M 178.1742 220.912925 
L 270.171995 165.228764 
L 272.446939 61.84156 
" style="fill:none;stroke:#b0b0b0;stroke-width:0.8;"/>
    <path d="M 196.771107 224.865666 
L 287.84195 168.621612 
L 291.041523 64.885332 
" style="fill:none;stroke:#b0b0b0;stroke-width:0.8;"/>
    <path d="M 215.562686 228.859784 
L 305.683175 172.047345 
L 309.825698 67.960138 
" style="fill:none;stroke:#b0b0b0;stroke-width:0.8;"/>
    <path d="M 234.55201 232.895932 
L 323.698171 175.506444 
L 328.802381 71.066455 
" style="fill:none;stroke:#b0b0b0;stroke-width:0.8;"/>
    <path d="M 253.742216 236.974778 
L 341.88949 178.9994 
L 347.974544 74.204772 
" style="fill:none;stroke:#b0b0b0;stroke-width:0.8;"/>
   </g>
   <g id="xtick_1">
    <g id="line2d_2">
     <path d="M 106.496597 205.042003 
L 104.025774 206.427113 
" style="fill:none;stroke:#000000;stroke-linecap:square;stroke-width:0.8;"/>
    </g>
    <g id="text_2">
     <!-- −6 -->
     <defs>
      <path d="M 10.59375 35.5 
L 73.1875 35.5 
L 73.1875 27.203125 
L 10.59375 27.203125 
z
" id="DejaVuSans-2212"/>
      <path d="M 33.015625 40.375 
Q 26.375 40.375 22.484375 35.828125 
Q 18.609375 31.296875 18.609375 23.390625 
Q 18.609375 15.53125 22.484375 10.953125 
Q 26.375 6.390625 33.015625 6.390625 
Q 39.65625 6.390625 43.53125 10.953125 
Q 47.40625 15.53125 47.40625 23.390625 
Q 47.40625 31.296875 43.53125 35.828125 
Q 39.65625 40.375 33.015625 40.375 
z
M 52.59375 71.296875 
L 52.59375 62.3125 
Q 48.875 64.0625 45.09375 64.984375 
Q 41.3125 65.921875 37.59375 65.921875 
Q 27.828125 65.921875 22.671875 59.328125 
Q 17.53125 52.734375 16.796875 39.40625 
Q 19.671875 43.65625 24.015625 45.921875 
Q 28.375 48.1875 33.59375 48.1875 
Q 44.578125 48.1875 50.953125 41.515625 
Q 57.328125 34.859375 57.328125 23.390625 
Q 57.328125 12.15625 50.6875 5.359375 
Q 44.046875 -1.421875 33.015625 -1.421875 
Q 20.359375 -1.421875 13.671875 8.265625 
Q 6.984375 17.96875 6.984375 36.375 
Q 6.984375 53.65625 15.1875 63.9375 
Q 23.390625 74.21875 37.203125 74.21875 
Q 40.921875 74.21875 44.703125 73.484375 
Q 48.484375 72.75 52.59375 71.296875 
z
" id="DejaVuSans-36"/>
     </defs>
     <g transform="translate(90.556653 225.886937)scale(0.1 -0.1)">
      <use xlink:href="#DejaVuSans-2212"/>
      <use x="83.789062" xlink:href="#DejaVuSans-36"/>
     </g>
    </g>
   </g>
   <g id="xtick_2">
    <g id="line2d_3">
     <path d="M 124.337375 208.830788 
L 121.887349 210.230068 
" style="fill:none;stroke:#000000;stroke-linecap:square;stroke-width:0.8;"/>
    </g>
    <g id="text_3">
     <!-- −4 -->
     <defs>
      <path d="M 37.796875 64.3125 
L 12.890625 25.390625 
L 37.796875 25.390625 
z
M 35.203125 72.90625 
L 47.609375 72.90625 
L 47.609375 25.390625 
L 58.015625 25.390625 
L 58.015625 17.1875 
L 47.609375 17.1875 
L 47.609375 0 
L 37.796875 0 
L 37.796875 17.1875 
L 4.890625 17.1875 
L 4.890625 26.703125 
z
" id="DejaVuSans-34"/>
     </defs>
     <g transform="translate(108.401926 229.753682)scale(0.1 -0.1)">
      <use xlink:href="#DejaVuSans-2212"/>
      <use x="83.789062" xlink:href="#DejaVuSans-34"/>
     </g>
    </g>
   </g>
   <g id="xtick_3">
    <g id="line2d_4">
     <path d="M 142.360965 212.658396 
L 139.932294 214.072065 
" style="fill:none;stroke:#000000;stroke-linecap:square;stroke-width:0.8;"/>
    </g>
    <g id="text_4">
     <!-- −2 -->
     <defs>
      <path d="M 19.1875 8.296875 
L 53.609375 8.296875 
L 53.609375 0 
L 7.328125 0 
L 7.328125 8.296875 
Q 12.9375 14.109375 22.625 23.890625 
Q 32.328125 33.6875 34.8125 36.53125 
Q 39.546875 41.84375 41.421875 45.53125 
Q 43.3125 49.21875 43.3125 52.78125 
Q 43.3125 58.59375 39.234375 62.25 
Q 35.15625 65.921875 28.609375 65.921875 
Q 23.96875 65.921875 18.8125 64.3125 
Q 13.671875 62.703125 7.8125 59.421875 
L 7.8125 69.390625 
Q 13.765625 71.78125 18.9375 73 
Q 24.125 74.21875 28.421875 74.21875 
Q 39.75 74.21875 46.484375 68.546875 
Q 53.21875 62.890625 53.21875 53.421875 
Q 53.21875 48.921875 51.53125 44.890625 
Q 49.859375 40.875 45.40625 35.40625 
Q 44.1875 33.984375 37.640625 27.21875 
Q 31.109375 20.453125 19.1875 8.296875 
z
" id="DejaVuSans-32"/>
     </defs>
     <g transform="translate(126.430554 233.660157)scale(0.1 -0.1)">
      <use xlink:href="#DejaVuSans-2212"/>
      <use x="83.789062" xlink:href="#DejaVuSans-32"/>
     </g>
    </g>
   </g>
   <g id="xtick_4">
    <g id="line2d_5">
     <path d="M 160.570191 216.525427 
L 158.163448 217.953708 
" style="fill:none;stroke:#000000;stroke-linecap:square;stroke-width:0.8;"/>
    </g>
    <g id="text_5">
     <!-- 0 -->
     <defs>
      <path d="M 31.78125 66.40625 
Q 24.171875 66.40625 20.328125 58.90625 
Q 16.5 51.421875 16.5 36.375 
Q 16.5 21.390625 20.328125 13.890625 
Q 24.171875 6.390625 31.78125 6.390625 
Q 39.453125 6.390625 43.28125 13.890625 
Q 47.125 21.390625 47.125 36.375 
Q 47.125 51.421875 43.28125 58.90625 
Q 39.453125 66.40625 31.78125 66.40625 
z
M 31.78125 74.21875 
Q 44.046875 74.21875 50.515625 64.515625 
Q 56.984375 54.828125 56.984375 36.375 
Q 56.984375 17.96875 50.515625 8.265625 
Q 44.046875 -1.421875 31.78125 -1.421875 
Q 19.53125 -1.421875 13.0625 8.265625 
Q 6.59375 17.96875 6.59375 36.375 
Q 6.59375 54.828125 13.0625 64.515625 
Q 19.53125 74.21875 31.78125 74.21875 
z
" id="DejaVuSans-30"/>
     </defs>
     <g transform="translate(148.835222 237.606977)scale(0.1 -0.1)">
      <use xlink:href="#DejaVuSans-30"/>
     </g>
    </g>
   </g>
   <g id="xtick_5">
    <g id="line2d_6">
     <path d="M 178.967936 220.432494 
L 176.583706 221.875614 
" style="fill:none;stroke:#000000;stroke-linecap:square;stroke-width:0.8;"/>
    </g>
    <g id="text_6">
     <!-- 2 -->
     <g transform="translate(167.239142 241.59477)scale(0.1 -0.1)">
      <use xlink:href="#DejaVuSans-32"/>
     </g>
    </g>
   </g>
   <g id="xtick_6">
    <g id="line2d_7">
     <path d="M 197.557144 224.38022 
L 195.196028 225.838412 
" style="fill:none;stroke:#000000;stroke-linecap:square;stroke-width:0.8;"/>
    </g>
    <g id="text_7">
     <!-- 4 -->
     <g transform="translate(185.835118 245.624179)scale(0.1 -0.1)">
      <use xlink:href="#DejaVuSans-34"/>
     </g>
    </g>
   </g>
   <g id="xtick_7">
    <g id="line2d_8">
     <path d="M 216.340818 228.369245 
L 214.003432 229.842746 
" style="fill:none;stroke:#000000;stroke-linecap:square;stroke-width:0.8;"/>
    </g>
    <g id="text_8">
     <!-- 6 -->
     <g transform="translate(204.626171 249.695857)scale(0.1 -0.1)">
      <use xlink:href="#DejaVuSans-36"/>
     </g>
    </g>
   </g>
   <g id="xtick_8">
    <g id="line2d_9">
     <path d="M 235.322026 232.40022 
L 233.009001 233.889272 
" style="fill:none;stroke:#000000;stroke-linecap:square;stroke-width:0.8;"/>
    </g>
    <g id="text_9">
     <!-- 8 -->
     <defs>
      <path d="M 31.78125 34.625 
Q 24.75 34.625 20.71875 30.859375 
Q 16.703125 27.09375 16.703125 20.515625 
Q 16.703125 13.921875 20.71875 10.15625 
Q 24.75 6.390625 31.78125 6.390625 
Q 38.8125 6.390625 42.859375 10.171875 
Q 46.921875 13.96875 46.921875 20.515625 
Q 46.921875 27.09375 42.890625 30.859375 
Q 38.875 34.625 31.78125 34.625 
z
M 21.921875 38.8125 
Q 15.578125 40.375 12.03125 44.71875 
Q 8.5 49.078125 8.5 55.328125 
Q 8.5 64.0625 14.71875 69.140625 
Q 20.953125 74.21875 31.78125 74.21875 
Q 42.671875 74.21875 48.875 69.140625 
Q 55.078125 64.0625 55.078125 55.328125 
Q 55.078125 49.078125 51.53125 44.71875 
Q 48 40.375 41.703125 38.8125 
Q 48.828125 37.15625 52.796875 32.3125 
Q 56.78125 27.484375 56.78125 20.515625 
Q 56.78125 9.90625 50.3125 4.234375 
Q 43.84375 -1.421875 31.78125 -1.421875 
Q 19.734375 -1.421875 13.25 4.234375 
Q 6.78125 9.90625 6.78125 20.515625 
Q 6.78125 27.484375 10.78125 32.3125 
Q 14.796875 37.15625 21.921875 38.8125 
z
M 18.3125 54.390625 
Q 18.3125 48.734375 21.84375 45.5625 
Q 25.390625 42.390625 31.78125 42.390625 
Q 38.140625 42.390625 41.71875 45.5625 
Q 45.3125 48.734375 45.3125 54.390625 
Q 45.3125 60.0625 41.71875 63.234375 
Q 38.140625 66.40625 31.78125 66.40625 
Q 25.390625 66.40625 21.84375 63.234375 
Q 18.3125 60.0625 18.3125 54.390625 
z
" id="DejaVuSans-38"/>
     </defs>
     <g transform="translate(223.615388 253.810474)scale(0.1 -0.1)">
      <use xlink:href="#DejaVuSans-38"/>
     </g>
    </g>
   </g>
   <g id="xtick_9">
    <g id="line2d_10">
     <path d="M 254.503901 236.473809 
L 252.215886 237.978661 
" style="fill:none;stroke:#000000;stroke-linecap:square;stroke-width:0.8;"/>
    </g>
    <g id="text_10">
     <!-- 10 -->
     <defs>
      <path d="M 12.40625 8.296875 
L 28.515625 8.296875 
L 28.515625 63.921875 
L 10.984375 60.40625 
L 10.984375 69.390625 
L 28.421875 72.90625 
L 38.28125 72.90625 
L 38.28125 8.296875 
L 54.390625 8.296875 
L 54.390625 0 
L 12.40625 0 
z
" id="DejaVuSans-31"/>
     </defs>
     <g transform="translate(239.62467 257.968712)scale(0.1 -0.1)">
      <use xlink:href="#DejaVuSans-31"/>
      <use x="63.623047" xlink:href="#DejaVuSans-30"/>
     </g>
    </g>
   </g>
  </g>
  <g id="axis3d_2">
   <g id="line2d_11">
    <path d="M 349.426265 180.446553 
L 261.697263 238.665609 
" style="fill:none;stroke:#000000;stroke-linecap:square;stroke-width:0.8;"/>
   </g>
   <g id="text_11">
    <!-- y -->
    <defs>
     <path d="M 32.171875 -5.078125 
Q 28.375 -14.84375 24.75 -17.8125 
Q 21.140625 -20.796875 15.09375 -20.796875 
L 7.90625 -20.796875 
L 7.90625 -13.28125 
L 13.1875 -13.28125 
Q 16.890625 -13.28125 18.9375 -11.515625 
Q 21 -9.765625 23.484375 -3.21875 
L 25.09375 0.875 
L 2.984375 54.6875 
L 12.5 54.6875 
L 29.59375 11.921875 
L 46.6875 54.6875 
L 56.203125 54.6875 
z
" id="DejaVuSans-79"/>
    </defs>
    <g transform="translate(332.459129 234.741712)scale(0.1 -0.1)">
     <use xlink:href="#DejaVuSans-79"/>
    </g>
   </g>
   <g id="Line3DCollection_2">
    <path d="M 102.654028 91.364676 
L 108.963295 198.06691 
L 271.413027 232.217997 
" style="fill:none;stroke:#b0b0b0;stroke-width:0.8;"/>
    <path d="M 119.510882 83.383302 
L 124.891824 189.204897 
L 286.026312 222.520273 
" style="fill:none;stroke:#b0b0b0;stroke-width:0.8;"/>
    <path d="M 135.945709 75.601749 
L 140.441492 180.553666 
L 300.276299 213.063642 
" style="fill:none;stroke:#b0b0b0;stroke-width:0.8;"/>
    <path d="M 151.974163 68.012607 
L 155.625658 172.105787 
L 314.176371 203.839223 
" style="fill:none;stroke:#b0b0b0;stroke-width:0.8;"/>
    <path d="M 167.611131 60.608824 
L 170.45706 163.854172 
L 327.739259 194.838567 
" style="fill:none;stroke:#b0b0b0;stroke-width:0.8;"/>
    <path d="M 182.870782 53.383693 
L 184.947848 155.792061 
L 340.977085 186.05363 
" style="fill:none;stroke:#b0b0b0;stroke-width:0.8;"/>
   </g>
   <g id="xtick_10">
    <g id="line2d_12">
     <path d="M 270.053657 231.932222 
L 274.134796 232.790182 
" style="fill:none;stroke:#000000;stroke-linecap:square;stroke-width:0.8;"/>
    </g>
    <g id="text_12">
     <!-- −4 -->
     <g transform="translate(277.432275 250.992574)scale(0.1 -0.1)">
      <use xlink:href="#DejaVuSans-2212"/>
      <use x="83.789062" xlink:href="#DejaVuSans-34"/>
     </g>
    </g>
   </g>
   <g id="xtick_11">
    <g id="line2d_13">
     <path d="M 284.678694 222.241646 
L 288.724513 223.07814 
" style="fill:none;stroke:#000000;stroke-linecap:square;stroke-width:0.8;"/>
    </g>
    <g id="text_13">
     <!-- −2 -->
     <g transform="translate(291.868839 241.159748)scale(0.1 -0.1)">
      <use xlink:href="#DejaVuSans-2212"/>
      <use x="83.789062" xlink:href="#DejaVuSans-32"/>
     </g>
    </g>
   </g>
   <g id="xtick_12">
    <g id="line2d_14">
     <path d="M 298.940272 212.791897 
L 302.951256 213.607721 
" style="fill:none;stroke:#000000;stroke-linecap:square;stroke-width:0.8;"/>
    </g>
    <g id="text_14">
     <!-- 0 -->
     <g transform="translate(310.136543 231.571238)scale(0.1 -0.1)">
      <use xlink:href="#DejaVuSans-30"/>
     </g>
    </g>
   </g>
   <g id="xtick_13">
    <g id="line2d_15">
     <path d="M 312.851775 203.574109 
L 316.828404 204.370019 
" style="fill:none;stroke:#000000;stroke-linecap:square;stroke-width:0.8;"/>
    </g>
    <g id="text_15">
     <!-- 2 -->
     <g transform="translate(323.868906 222.218048)scale(0.1 -0.1)">
      <use xlink:href="#DejaVuSans-32"/>
     </g>
    </g>
   </g>
   <g id="xtick_14">
    <g id="line2d_16">
     <path d="M 326.425937 194.579844 
L 330.368687 195.356561 
" style="fill:none;stroke:#000000;stroke-linecap:square;stroke-width:0.8;"/>
    </g>
    <g id="text_16">
     <!-- 4 -->
     <g transform="translate(337.268335 213.091621)scale(0.1 -0.1)">
      <use xlink:href="#DejaVuSans-34"/>
     </g>
    </g>
   </g>
   <g id="xtick_15">
    <g id="line2d_17">
     <path d="M 339.67488 185.80107 
L 343.584223 186.559279 
" style="fill:none;stroke:#000000;stroke-linecap:square;stroke-width:0.8;"/>
    </g>
    <g id="text_17">
     <!-- 6 -->
     <g transform="translate(350.346793 204.183809)scale(0.1 -0.1)">
      <use xlink:href="#DejaVuSans-36"/>
     </g>
    </g>
   </g>
  </g>
  <g id="axis3d_3">
   <g id="line2d_18">
    <path d="M 349.426265 180.446553 
L 355.920561 75.505466 
" style="fill:none;stroke:#000000;stroke-linecap:square;stroke-width:0.8;"/>
   </g>
   <g id="text_18">
    <!-- z -->
    <defs>
     <path d="M 5.515625 54.6875 
L 48.1875 54.6875 
L 48.1875 46.484375 
L 14.40625 7.171875 
L 48.1875 7.171875 
L 48.1875 0 
L 4.296875 0 
L 4.296875 8.203125 
L 38.09375 47.515625 
L 5.515625 47.515625 
z
" id="DejaVuSans-7a"/>
    </defs>
    <g transform="translate(393.046043 128.331155)scale(0.1 -0.1)">
     <use xlink:href="#DejaVuSans-7a"/>
    </g>
   </g>
   <g id="Line3DCollection_3">
    <path d="M 349.820145 174.08187 
L 194.10747 144.451031 
L 97.962803 197.457309 
" style="fill:none;stroke:#b0b0b0;stroke-width:0.8;"/>
    <path d="M 350.501244 163.076014 
L 193.939876 133.749319 
L 97.236138 186.220984 
" style="fill:none;stroke:#b0b0b0;stroke-width:0.8;"/>
    <path d="M 351.189873 151.948484 
L 193.770507 122.934268 
L 96.501173 174.856314 
" style="fill:none;stroke:#b0b0b0;stroke-width:0.8;"/>
    <path d="M 351.886157 140.69725 
L 193.599334 112.004068 
L 95.757765 163.361085 
" style="fill:none;stroke:#b0b0b0;stroke-width:0.8;"/>
    <path d="M 352.590226 129.320237 
L 193.426329 100.95687 
L 95.005767 151.733036 
" style="fill:none;stroke:#b0b0b0;stroke-width:0.8;"/>
    <path d="M 353.302209 117.815325 
L 193.251462 89.790785 
L 94.245029 139.969851 
" style="fill:none;stroke:#b0b0b0;stroke-width:0.8;"/>
    <path d="M 354.022241 106.180344 
L 193.074703 78.503884 
L 93.475399 128.069161 
" style="fill:none;stroke:#b0b0b0;stroke-width:0.8;"/>
    <path d="M 354.750461 94.413077 
L 192.896021 67.094196 
L 92.69672 116.028541 
" style="fill:none;stroke:#b0b0b0;stroke-width:0.8;"/>
    <path d="M 355.487007 82.511255 
L 192.715385 55.559705 
L 91.90883 103.845507 
" style="fill:none;stroke:#b0b0b0;stroke-width:0.8;"/>
   </g>
   <g id="xtick_16">
    <g id="line2d_19">
     <path d="M 348.520828 173.834621 
L 352.421487 174.576884 
" style="fill:none;stroke:#000000;stroke-linecap:square;stroke-width:0.8;"/>
    </g>
    <g id="text_19">
     <!-- −2.0 -->
     <defs>
      <path d="M 10.6875 12.40625 
L 21 12.40625 
L 21 0 
L 10.6875 0 
z
" id="DejaVuSans-2e"/>
     </defs>
     <g transform="translate(357.129251 179.875062)scale(0.1 -0.1)">
      <use xlink:href="#DejaVuSans-2212"/>
      <use x="83.789062" xlink:href="#DejaVuSans-32"/>
      <use x="147.412109" xlink:href="#DejaVuSans-2e"/>
      <use x="179.199219" xlink:href="#DejaVuSans-30"/>
     </g>
    </g>
   </g>
   <g id="xtick_17">
    <g id="line2d_20">
     <path d="M 349.194549 162.831248 
L 353.117373 163.566061 
" style="fill:none;stroke:#000000;stroke-linecap:square;stroke-width:0.8;"/>
    </g>
    <g id="text_20">
     <!-- −1.5 -->
     <defs>
      <path d="M 10.796875 72.90625 
L 49.515625 72.90625 
L 49.515625 64.59375 
L 19.828125 64.59375 
L 19.828125 46.734375 
Q 21.96875 47.46875 24.109375 47.828125 
Q 26.265625 48.1875 28.421875 48.1875 
Q 40.625 48.1875 47.75 41.5 
Q 54.890625 34.8125 54.890625 23.390625 
Q 54.890625 11.625 47.5625 5.09375 
Q 40.234375 -1.421875 26.90625 -1.421875 
Q 22.3125 -1.421875 17.546875 -0.640625 
Q 12.796875 0.140625 7.71875 1.703125 
L 7.71875 11.625 
Q 12.109375 9.234375 16.796875 8.0625 
Q 21.484375 6.890625 26.703125 6.890625 
Q 35.15625 6.890625 40.078125 11.328125 
Q 45.015625 15.765625 45.015625 23.390625 
Q 45.015625 31 40.078125 35.4375 
Q 35.15625 39.890625 26.703125 39.890625 
Q 22.75 39.890625 18.8125 39.015625 
Q 14.890625 38.140625 10.796875 36.28125 
z
" id="DejaVuSans-35"/>
     </defs>
     <g transform="translate(357.915269 168.887353)scale(0.1 -0.1)">
      <use xlink:href="#DejaVuSans-2212"/>
      <use x="83.789062" xlink:href="#DejaVuSans-31"/>
      <use x="147.412109" xlink:href="#DejaVuSans-2e"/>
      <use x="179.199219" xlink:href="#DejaVuSans-35"/>
     </g>
    </g>
   </g>
   <g id="xtick_18">
    <g id="line2d_21">
     <path d="M 349.875716 151.70627 
L 353.820957 152.433423 
" style="fill:none;stroke:#000000;stroke-linecap:square;stroke-width:0.8;"/>
    </g>
    <g id="text_21">
     <!-- −1.0 -->
     <g transform="translate(358.709954 157.77848)scale(0.1 -0.1)">
      <use xlink:href="#DejaVuSans-2212"/>
      <use x="83.789062" xlink:href="#DejaVuSans-31"/>
      <use x="147.412109" xlink:href="#DejaVuSans-2e"/>
      <use x="179.199219" xlink:href="#DejaVuSans-30"/>
     </g>
    </g>
   </g>
   <g id="xtick_19">
    <g id="line2d_22">
     <path d="M 350.564452 140.45766 
L 354.532368 141.176937 
" style="fill:none;stroke:#000000;stroke-linecap:square;stroke-width:0.8;"/>
    </g>
    <g id="text_22">
     <!-- −0.5 -->
     <g transform="translate(359.51345 146.546429)scale(0.1 -0.1)">
      <use xlink:href="#DejaVuSans-2212"/>
      <use x="83.789062" xlink:href="#DejaVuSans-30"/>
      <use x="147.412109" xlink:href="#DejaVuSans-2e"/>
      <use x="179.199219" xlink:href="#DejaVuSans-35"/>
     </g>
    </g>
   </g>
   <g id="xtick_20">
    <g id="line2d_23">
     <path d="M 351.260886 129.083345 
L 355.251738 129.794525 
" style="fill:none;stroke:#000000;stroke-linecap:square;stroke-width:0.8;"/>
    </g>
    <g id="text_23">
     <!-- 0.0 -->
     <g transform="translate(364.51575 135.18914)scale(0.1 -0.1)">
      <use xlink:href="#DejaVuSans-30"/>
      <use x="63.623047" xlink:href="#DejaVuSans-2e"/>
      <use x="95.410156" xlink:href="#DejaVuSans-30"/>
     </g>
    </g>
   </g>
   <g id="xtick_21">
    <g id="line2d_24">
     <path d="M 351.965145 117.581208 
L 355.979201 118.28406 
" style="fill:none;stroke:#000000;stroke-linecap:square;stroke-width:0.8;"/>
    </g>
    <g id="text_24">
     <!-- 0.5 -->
     <g transform="translate(365.337315 123.704506)scale(0.1 -0.1)">
      <use xlink:href="#DejaVuSans-30"/>
      <use x="63.623047" xlink:href="#DejaVuSans-2e"/>
      <use x="95.410156" xlink:href="#DejaVuSans-35"/>
     </g>
    </g>
   </g>
   <g id="xtick_22">
    <g id="line2d_25">
     <path d="M 352.677364 105.94908 
L 356.714895 106.643372 
" style="fill:none;stroke:#000000;stroke-linecap:square;stroke-width:0.8;"/>
    </g>
    <g id="text_25">
     <!-- 1.0 -->
     <g transform="translate(366.168145 112.090372)scale(0.1 -0.1)">
      <use xlink:href="#DejaVuSans-31"/>
      <use x="63.623047" xlink:href="#DejaVuSans-2e"/>
      <use x="95.410156" xlink:href="#DejaVuSans-30"/>
     </g>
    </g>
   </g>
   <g id="xtick_23">
    <g id="line2d_26">
     <path d="M 353.397678 94.184746 
L 357.458958 94.870236 
" style="fill:none;stroke:#000000;stroke-linecap:square;stroke-width:0.8;"/>
    </g>
    <g id="text_26">
     <!-- 1.5 -->
     <g transform="translate(367.008395 100.344537)scale(0.1 -0.1)">
      <use xlink:href="#DejaVuSans-31"/>
      <use x="63.623047" xlink:href="#DejaVuSans-2e"/>
      <use x="95.410156" xlink:href="#DejaVuSans-35"/>
     </g>
    </g>
   </g>
   <g id="xtick_24">
    <g id="line2d_27">
     <path d="M 354.126225 82.285938 
L 358.211537 82.962379 
" style="fill:none;stroke:#000000;stroke-linecap:square;stroke-width:0.8;"/>
    </g>
    <g id="text_27">
     <!-- 2.0 -->
     <g transform="translate(367.858229 88.464748)scale(0.1 -0.1)">
      <use xlink:href="#DejaVuSans-32"/>
      <use x="63.623047" xlink:href="#DejaVuSans-2e"/>
      <use x="95.410156" xlink:href="#DejaVuSans-30"/>
     </g>
    </g>
   </g>
  </g>
  <g id="axes_1">
   <g id="Path3DCollection_1">
    <defs>
     <path d="M -2.236068 2.236068 
L 2.236068 -2.236068 
M -2.236068 -2.236068 
L 2.236068 2.236068 
" id="ma80febe63f" style="stroke:#000000;stroke-width:1.5;"/>
    </defs>
    <g clip-path="url(#p531fb55446)">
     <use style="stroke:#000000;stroke-width:1.5;" x="199.914053" xlink:href="#ma80febe63f" y="141.079396"/>
    </g>
   </g>
   <g id="Path3DCollection_2">
    <defs>
     <path d="M 0 2.236068 
C 0.593012 2.236068 1.161816 2.000462 1.581139 1.581139 
C 2.000462 1.161816 2.236068 0.593012 2.236068 0 
C 2.236068 -0.593012 2.000462 -1.161816 1.581139 -1.581139 
C 1.161816 -2.000462 0.593012 -2.236068 0 -2.236068 
C -0.593012 -2.236068 -1.161816 -2.000462 -1.581139 -1.581139 
C -2.000462 -1.161816 -2.236068 -0.593012 -2.236068 0 
C -2.236068 0.593012 -2.000462 1.161816 -1.581139 1.581139 
C -1.161816 2.000462 -0.593012 2.236068 0 2.236068 
z
" id="C0_0_07a7e355b3"/>
    </defs>
    <g clip-path="url(#p531fb55446)">
     <use style="fill:#1f77b4;fill-opacity:0.583116;stroke:#1f77b4;stroke-opacity:0.583116;" x="285.54505" xlink:href="#C0_0_07a7e355b3" y="111.441308"/>
    </g>
    <g clip-path="url(#p531fb55446)">
     <use style="fill:#1f77b4;fill-opacity:0.703628;stroke:#1f77b4;stroke-opacity:0.703628;" x="235.306827" xlink:href="#C0_0_07a7e355b3" y="118.640395"/>
    </g>
    <g clip-path="url(#p531fb55446)">
     <use style="fill:#1f77b4;fill-opacity:0.578927;stroke:#1f77b4;stroke-opacity:0.578927;" x="224.146006" xlink:href="#C0_0_07a7e355b3" y="111.191121"/>
    </g>
    <g clip-path="url(#p531fb55446)">
     <use style="fill:#1f77b4;fill-opacity:0.326517;stroke:#1f77b4;stroke-opacity:0.326517;" x="228.036939" xlink:href="#C0_0_07a7e355b3" y="96.112771"/>
    </g>
    <g clip-path="url(#p531fb55446)">
     <use style="fill:#1f77b4;fill-opacity:0.3;stroke:#1f77b4;stroke-opacity:0.3;" x="218.993554" xlink:href="#C0_0_07a7e355b3" y="94.528716"/>
    </g>
    <g clip-path="url(#p531fb55446)">
     <use style="fill:#1f77b4;fill-opacity:0.337823;stroke:#1f77b4;stroke-opacity:0.337823;" x="202.566921" xlink:href="#C0_0_07a7e355b3" y="96.788193"/>
    </g>
    <g clip-path="url(#p531fb55446)">
     <use style="fill:#1f77b4;fill-opacity:0.31125;stroke:#1f77b4;stroke-opacity:0.31125;" x="193.5776" xlink:href="#C0_0_07a7e355b3" y="95.200768"/>
    </g>
    <g clip-path="url(#p531fb55446)">
     <use style="fill:#1f77b4;fill-opacity:0.349154;stroke:#1f77b4;stroke-opacity:0.349154;" x="177.042608" xlink:href="#C0_0_07a7e355b3" y="97.465055"/>
    </g>
    <g clip-path="url(#p531fb55446)">
     <use style="fill:#1f77b4;fill-opacity:0.414287;stroke:#1f77b4;stroke-opacity:0.414287;" x="169.359193" xlink:href="#C0_0_07a7e355b3" y="101.355902"/>
    </g>
    <g clip-path="url(#p531fb55446)">
     <use style="fill:#1f77b4;fill-opacity:0.495979;stroke:#1f77b4;stroke-opacity:0.495979;" x="196.543592" xlink:href="#C0_0_07a7e355b3" y="106.235991"/>
    </g>
    <g clip-path="url(#p531fb55446)">
     <use style="fill:#1f77b4;fill-opacity:0.480221;stroke:#1f77b4;stroke-opacity:0.480221;" x="161.581147" xlink:href="#C0_0_07a7e355b3" y="105.294669"/>
    </g>
    <g clip-path="url(#p531fb55446)">
     <use style="fill:#1f77b4;fill-opacity:0.574743;stroke:#1f77b4;stroke-opacity:0.574743;" x="162.794232" xlink:href="#C0_0_07a7e355b3" y="110.941127"/>
    </g>
    <g clip-path="url(#p531fb55446)">
     <use style="fill:#1f77b4;fill-opacity:0.562927;stroke:#1f77b4;stroke-opacity:0.562927;" x="188.874523" xlink:href="#C0_0_07a7e355b3" y="110.23528"/>
    </g>
    <g clip-path="url(#p531fb55446)">
     <use style="fill:#1f77b4;fill-opacity:0.658911;stroke:#1f77b4;stroke-opacity:0.658911;" x="190.338331" xlink:href="#C0_0_07a7e355b3" y="115.969155"/>
    </g>
    <g clip-path="url(#p531fb55446)">
     <use style="fill:#1f77b4;fill-opacity:0.897971;stroke:#1f77b4;stroke-opacity:0.897971;" x="175.956395" xlink:href="#C0_0_07a7e355b3" y="130.24997"/>
    </g>
    <g clip-path="url(#p531fb55446)">
     <use style="fill:#1f77b4;fill-opacity:0.940194;stroke:#1f77b4;stroke-opacity:0.940194;" x="158.436572" xlink:href="#C0_0_07a7e355b3" y="132.772258"/>
    </g>
    <g clip-path="url(#p531fb55446)">
     <use style="fill:#1f77b4;stroke:#1f77b4;" x="177.348015" xlink:href="#C0_0_07a7e355b3" y="136.344909"/>
    </g>
    <g clip-path="url(#p531fb55446)">
     <use style="fill:#1f77b4;fill-opacity:0.957327;stroke:#1f77b4;stroke-opacity:0.957327;" x="194.889302" xlink:href="#C0_0_07a7e355b3" y="133.795743"/>
    </g>
    <g clip-path="url(#p531fb55446)">
     <use style="fill:#1f77b4;fill-opacity:0.856064;stroke:#1f77b4;stroke-opacity:0.856064;" x="193.345002" xlink:href="#C0_0_07a7e355b3" y="127.746574"/>
    </g>
    <g clip-path="url(#p531fb55446)">
     <use style="fill:#1f77b4;fill-opacity:0.843629;stroke:#1f77b4;stroke-opacity:0.843629;" x="220.0656" xlink:href="#C0_0_07a7e355b3" y="127.00373"/>
    </g>
    <g clip-path="url(#p531fb55446)">
     <use style="fill:#1f77b4;fill-opacity:0.760935;stroke:#1f77b4;stroke-opacity:0.760935;" x="254.218523" xlink:href="#C0_0_07a7e355b3" y="122.063765"/>
    </g>
   </g>
   <g id="Path3DCollection_3">
    <defs>
     <path d="M 0 2.236068 
C 0.593012 2.236068 1.161816 2.000462 1.581139 1.581139 
C 2.000462 1.161816 2.236068 0.593012 2.236068 0 
C 2.236068 -0.593012 2.000462 -1.161816 1.581139 -1.581139 
C 1.161816 -2.000462 0.593012 -2.236068 0 -2.236068 
C -0.593012 -2.236068 -1.161816 -2.000462 -1.581139 -1.581139 
C -2.000462 -1.161816 -2.236068 -0.593012 -2.236068 0 
C -2.236068 0.593012 -2.000462 1.161816 -1.581139 1.581139 
C -1.161816 2.000462 -0.593012 2.236068 0 2.236068 
z
" id="C1_0_c2fad0bfe4"/>
    </defs>
    <g clip-path="url(#p531fb55446)">
     <use style="fill:#d62728;fill-opacity:0.5831;stroke:#d62728;stroke-opacity:0.5831;" x="321.024981" xlink:href="#C1_0_c2fad0bfe4" y="112.40071"/>
    </g>
    <g clip-path="url(#p531fb55446)">
     <use style="fill:#d62728;fill-opacity:0.703611;stroke:#d62728;stroke-opacity:0.703611;" x="271.105482" xlink:href="#C1_0_c2fad0bfe4" y="119.621193"/>
    </g>
    <g clip-path="url(#p531fb55446)">
     <use style="fill:#d62728;fill-opacity:0.578911;stroke:#d62728;stroke-opacity:0.578911;" x="259.521621" xlink:href="#C1_0_c2fad0bfe4" y="112.149784"/>
    </g>
    <g clip-path="url(#p531fb55446)">
     <use style="fill:#d62728;fill-opacity:0.326515;stroke:#d62728;stroke-opacity:0.326515;" x="262.595646" xlink:href="#C1_0_c2fad0bfe4" y="97.027403"/>
    </g>
    <g clip-path="url(#p531fb55446)">
     <use style="fill:#d62728;fill-opacity:0.3;stroke:#d62728;stroke-opacity:0.3;" x="253.452835" xlink:href="#C1_0_c2fad0bfe4" y="95.438784"/>
    </g>
    <g clip-path="url(#p531fb55446)">
     <use style="fill:#d62728;fill-opacity:0.33782;stroke:#d62728;stroke-opacity:0.33782;" x="237.125715" xlink:href="#C1_0_c2fad0bfe4" y="97.704776"/>
    </g>
    <g clip-path="url(#p531fb55446)">
     <use style="fill:#d62728;fill-opacity:0.311249;stroke:#d62728;stroke-opacity:0.311249;" x="228.036939" xlink:href="#C1_0_c2fad0bfe4" y="96.112771"/>
    </g>
    <g clip-path="url(#p531fb55446)">
     <use style="fill:#d62728;fill-opacity:0.34915;stroke:#d62728;stroke-opacity:0.34915;" x="211.60141" xlink:href="#C1_0_c2fad0bfe4" y="98.383594"/>
    </g>
    <g clip-path="url(#p531fb55446)">
     <use style="fill:#d62728;fill-opacity:0.414277;stroke:#d62728;stroke-opacity:0.414277;" x="204.118648" xlink:href="#C1_0_c2fad0bfe4" y="102.285727"/>
    </g>
    <g clip-path="url(#p531fb55446)">
     <use style="fill:#d62728;fill-opacity:0.495966;stroke:#d62728;stroke-opacity:0.495966;" x="231.608466" xlink:href="#C1_0_c2fad0bfe4" y="107.18007"/>
    </g>
    <g clip-path="url(#p531fb55446)">
     <use style="fill:#d62728;fill-opacity:0.480209;stroke:#d62728;stroke-opacity:0.480209;" x="196.543592" xlink:href="#C1_0_c2fad0bfe4" y="106.235991"/>
    </g>
    <g clip-path="url(#p531fb55446)">
     <use style="fill:#d62728;fill-opacity:0.574727;stroke:#d62728;stroke-opacity:0.574727;" x="198.065681" xlink:href="#C1_0_c2fad0bfe4" y="111.899052"/>
    </g>
    <g clip-path="url(#p531fb55446)">
     <use style="fill:#d62728;fill-opacity:0.562911;stroke:#d62728;stroke-opacity:0.562911;" x="224.146006" xlink:href="#C1_0_c2fad0bfe4" y="111.191121"/>
    </g>
    <g clip-path="url(#p531fb55446)">
     <use style="fill:#d62728;fill-opacity:0.658895;stroke:#d62728;stroke-opacity:0.658895;" x="225.924324" xlink:href="#C1_0_c2fad0bfe4" y="116.941986"/>
    </g>
    <g clip-path="url(#p531fb55446)">
     <use style="fill:#d62728;fill-opacity:0.897963;stroke:#d62728;stroke-opacity:0.897963;" x="212.298518" xlink:href="#C1_0_c2fad0bfe4" y="131.26577"/>
    </g>
    <g clip-path="url(#p531fb55446)">
     <use style="fill:#d62728;fill-opacity:0.940189;stroke:#d62728;stroke-opacity:0.940189;" x="194.889302" xlink:href="#C1_0_c2fad0bfe4" y="133.795743"/>
    </g>
    <g clip-path="url(#p531fb55446)">
     <use style="fill:#d62728;stroke:#d62728;" x="214.024124" xlink:href="#C1_0_c2fad0bfe4" y="137.379331"/>
    </g>
    <g clip-path="url(#p531fb55446)">
     <use style="fill:#d62728;fill-opacity:0.957323;stroke:#d62728;stroke-opacity:0.957323;" x="231.453403" xlink:href="#C1_0_c2fad0bfe4" y="134.822355"/>
    </g>
    <g clip-path="url(#p531fb55446)">
     <use style="fill:#d62728;fill-opacity:0.856054;stroke:#d62728;stroke-opacity:0.856054;" x="229.577148" xlink:href="#C1_0_c2fad0bfe4" y="128.754774"/>
    </g>
    <g clip-path="url(#p531fb55446)">
     <use style="fill:#d62728;fill-opacity:0.843618;stroke:#d62728;stroke-opacity:0.843618;" x="256.297676" xlink:href="#C1_0_c2fad0bfe4" y="128.009681"/>
    </g>
    <g clip-path="url(#p531fb55446)">
     <use style="fill:#d62728;fill-opacity:0.76092;stroke:#d62728;stroke-opacity:0.76092;" x="290.232407" xlink:href="#C1_0_c2fad0bfe4" y="123.05482"/>
    </g>
   </g>
   <g id="line2d_28">
    <path clip-path="url(#p531fb55446)" d="M 148.253783 131.313228 
L 291.379771 158.370624 
" style="fill:none;stroke:#000000;stroke-linecap:square;stroke-width:1.5;"/>
   </g>
   <g id="line2d_29">
    <path clip-path="url(#p531fb55446)" d="M 164.510619 160.59305 
L 247.697179 114.742307 
" style="fill:none;stroke:#000000;stroke-linecap:square;stroke-width:1.5;"/>
   </g>
   <g id="line2d_30">
    <path clip-path="url(#p531fb55446)" d="M 200.492674 186.350369 
L 199.308491 93.700454 
" style="fill:none;stroke:#000000;stroke-linecap:square;stroke-width:1.5;"/>
   </g>
   <g id="line2d_31">
    <path clip-path="url(#p531fb55446)" d="M 285.54505 111.441308 
L 235.306827 118.640395 
" style="fill:none;stroke:#1f77b4;stroke-linecap:square;stroke-width:1.5;"/>
   </g>
   <g id="line2d_32">
    <path clip-path="url(#p531fb55446)" d="M 235.306827 118.640395 
L 224.146006 111.191121 
" style="fill:none;stroke:#1f77b4;stroke-linecap:square;stroke-width:1.5;"/>
   </g>
   <g id="line2d_33">
    <path clip-path="url(#p531fb55446)" d="M 224.146006 111.191121 
L 228.036939 96.112771 
" style="fill:none;stroke:#1f77b4;stroke-linecap:square;stroke-width:1.5;"/>
   </g>
   <g id="line2d_34">
    <path clip-path="url(#p531fb55446)" d="M 228.036939 96.112771 
L 218.993554 94.528716 
" style="fill:none;stroke:#1f77b4;stroke-linecap:square;stroke-width:1.5;"/>
   </g>
   <g id="line2d_35">
    <path clip-path="url(#p531fb55446)" d="M 218.993554 94.528716 
L 202.566921 96.788193 
" style="fill:none;stroke:#1f77b4;stroke-linecap:square;stroke-width:1.5;"/>
   </g>
   <g id="line2d_36">
    <path clip-path="url(#p531fb55446)" d="M 202.566921 96.788193 
L 193.5776 95.200768 
" style="fill:none;stroke:#1f77b4;stroke-linecap:square;stroke-width:1.5;"/>
   </g>
   <g id="line2d_37">
    <path clip-path="url(#p531fb55446)" d="M 193.5776 95.200768 
L 177.042608 97.465055 
" style="fill:none;stroke:#1f77b4;stroke-linecap:square;stroke-width:1.5;"/>
   </g>
   <g id="line2d_38">
    <path clip-path="url(#p531fb55446)" d="M 177.042608 97.465055 
L 169.359193 101.355902 
" style="fill:none;stroke:#1f77b4;stroke-linecap:square;stroke-width:1.5;"/>
   </g>
   <g id="line2d_39">
    <path clip-path="url(#p531fb55446)" d="M 169.359193 101.355902 
L 196.543592 106.235991 
" style="fill:none;stroke:#1f77b4;stroke-linecap:square;stroke-width:1.5;"/>
   </g>
   <g id="line2d_40">
    <path clip-path="url(#p531fb55446)" d="M 196.543592 106.235991 
L 161.581147 105.294669 
" style="fill:none;stroke:#1f77b4;stroke-linecap:square;stroke-width:1.5;"/>
   </g>
   <g id="line2d_41">
    <path clip-path="url(#p531fb55446)" d="M 161.581147 105.294669 
L 162.794232 110.941127 
" style="fill:none;stroke:#1f77b4;stroke-linecap:square;stroke-width:1.5;"/>
   </g>
   <g id="line2d_42">
    <path clip-path="url(#p531fb55446)" d="M 162.794232 110.941127 
L 188.874523 110.23528 
" style="fill:none;stroke:#1f77b4;stroke-linecap:square;stroke-width:1.5;"/>
   </g>
   <g id="line2d_43">
    <path clip-path="url(#p531fb55446)" d="M 188.874523 110.23528 
L 190.338331 115.969155 
" style="fill:none;stroke:#1f77b4;stroke-linecap:square;stroke-width:1.5;"/>
   </g>
   <g id="line2d_44">
    <path clip-path="url(#p531fb55446)" d="M 190.338331 115.969155 
L 175.956395 130.24997 
" style="fill:none;stroke:#1f77b4;stroke-linecap:square;stroke-width:1.5;"/>
   </g>
   <g id="line2d_45">
    <path clip-path="url(#p531fb55446)" d="M 175.956395 130.24997 
L 158.436572 132.772258 
" style="fill:none;stroke:#1f77b4;stroke-linecap:square;stroke-width:1.5;"/>
   </g>
   <g id="line2d_46">
    <path clip-path="url(#p531fb55446)" d="M 158.436572 132.772258 
L 177.348015 136.344909 
" style="fill:none;stroke:#1f77b4;stroke-linecap:square;stroke-width:1.5;"/>
   </g>
   <g id="line2d_47">
    <path clip-path="url(#p531fb55446)" d="M 177.348015 136.344909 
L 194.889302 133.795743 
" style="fill:none;stroke:#1f77b4;stroke-linecap:square;stroke-width:1.5;"/>
   </g>
   <g id="line2d_48">
    <path clip-path="url(#p531fb55446)" d="M 194.889302 133.795743 
L 193.345002 127.746574 
" style="fill:none;stroke:#1f77b4;stroke-linecap:square;stroke-width:1.5;"/>
   </g>
   <g id="line2d_49">
    <path clip-path="url(#p531fb55446)" d="M 193.345002 127.746574 
L 220.0656 127.00373 
" style="fill:none;stroke:#1f77b4;stroke-linecap:square;stroke-width:1.5;"/>
   </g>
   <g id="line2d_50">
    <path clip-path="url(#p531fb55446)" d="M 220.0656 127.00373 
L 254.218523 122.063765 
" style="fill:none;stroke:#1f77b4;stroke-linecap:square;stroke-width:1.5;"/>
   </g>
   <g id="line2d_51">
    <path clip-path="url(#p531fb55446)" d="M 254.218523 122.063765 
L 285.54505 111.441308 
" style="fill:none;stroke:#1f77b4;stroke-linecap:square;stroke-width:1.5;"/>
   </g>
   <g id="line2d_52">
    <path clip-path="url(#p531fb55446)" d="M 321.024981 112.40071 
L 271.105482 119.621193 
" style="fill:none;stroke:#d62728;stroke-linecap:square;stroke-width:1.5;"/>
   </g>
   <g id="line2d_53">
    <path clip-path="url(#p531fb55446)" d="M 271.105482 119.621193 
L 259.521621 112.149784 
" style="fill:none;stroke:#d62728;stroke-linecap:square;stroke-width:1.5;"/>
   </g>
   <g id="line2d_54">
    <path clip-path="url(#p531fb55446)" d="M 259.521621 112.149784 
L 262.595646 97.027403 
" style="fill:none;stroke:#d62728;stroke-linecap:square;stroke-width:1.5;"/>
   </g>
   <g id="line2d_55">
    <path clip-path="url(#p531fb55446)" d="M 262.595646 97.027403 
L 253.452835 95.438784 
" style="fill:none;stroke:#d62728;stroke-linecap:square;stroke-width:1.5;"/>
   </g>
   <g id="line2d_56">
    <path clip-path="url(#p531fb55446)" d="M 253.452835 95.438784 
L 237.125715 97.704776 
" style="fill:none;stroke:#d62728;stroke-linecap:square;stroke-width:1.5;"/>
   </g>
   <g id="line2d_57">
    <path clip-path="url(#p531fb55446)" d="M 237.125715 97.704776 
L 228.036939 96.112771 
" style="fill:none;stroke:#d62728;stroke-linecap:square;stroke-width:1.5;"/>
   </g>
   <g id="line2d_58">
    <path clip-path="url(#p531fb55446)" d="M 228.036939 96.112771 
L 211.60141 98.383594 
" style="fill:none;stroke:#d62728;stroke-linecap:square;stroke-width:1.5;"/>
   </g>
   <g id="line2d_59">
    <path clip-path="url(#p531fb55446)" d="M 211.60141 98.383594 
L 204.118648 102.285727 
" style="fill:none;stroke:#d62728;stroke-linecap:square;stroke-width:1.5;"/>
   </g>
   <g id="line2d_60">
    <path clip-path="url(#p531fb55446)" d="M 204.118648 102.285727 
L 231.608466 107.18007 
" style="fill:none;stroke:#d62728;stroke-linecap:square;stroke-width:1.5;"/>
   </g>
   <g id="line2d_61">
    <path clip-path="url(#p531fb55446)" d="M 231.608466 107.18007 
L 196.543592 106.235991 
" style="fill:none;stroke:#d62728;stroke-linecap:square;stroke-width:1.5;"/>
   </g>
   <g id="line2d_62">
    <path clip-path="url(#p531fb55446)" d="M 196.543592 106.235991 
L 198.065681 111.899052 
" style="fill:none;stroke:#d62728;stroke-linecap:square;stroke-width:1.5;"/>
   </g>
   <g id="line2d_63">
    <path clip-path="url(#p531fb55446)" d="M 198.065681 111.899052 
L 224.146006 111.191121 
" style="fill:none;stroke:#d62728;stroke-linecap:square;stroke-width:1.5;"/>
   </g>
   <g id="line2d_64">
    <path clip-path="url(#p531fb55446)" d="M 224.146006 111.191121 
L 225.924324 116.941986 
" style="fill:none;stroke:#d62728;stroke-linecap:square;stroke-width:1.5;"/>
   </g>
   <g id="line2d_65">
    <path clip-path="url(#p531fb55446)" d="M 225.924324 116.941986 
L 212.298518 131.26577 
" style="fill:none;stroke:#d62728;stroke-linecap:square;stroke-width:1.5;"/>
   </g>
   <g id="line2d_66">
    <path clip-path="url(#p531fb55446)" d="M 212.298518 131.26577 
L 194.889302 133.795743 
" style="fill:none;stroke:#d62728;stroke-linecap:square;stroke-width:1.5;"/>
   </g>
   <g id="line2d_67">
    <path clip-path="url(#p531fb55446)" d="M 194.889302 133.795743 
L 214.024124 137.379331 
" style="fill:none;stroke:#d62728;stroke-linecap:square;stroke-width:1.5;"/>
   </g>
   <g id="line2d_68">
    <path clip-path="url(#p531fb55446)" d="M 214.024124 137.379331 
L 231.453403 134.822355 
" style="fill:none;stroke:#d62728;stroke-linecap:square;stroke-width:1.5;"/>
   </g>
   <g id="line2d_69">
    <path clip-path="url(#p531fb55446)" d="M 231.453403 134.822355 
L 229.577148 128.754774 
" style="fill:none;stroke:#d62728;stroke-linecap:square;stroke-width:1.5;"/>
   </g>
   <g id="line2d_70">
    <path clip-path="url(#p531fb55446)" d="M 229.577148 128.754774 
L 256.297676 128.009681 
" style="fill:none;stroke:#d62728;stroke-linecap:square;stroke-width:1.5;"/>
   </g>
   <g id="line2d_71">
    <path clip-path="url(#p531fb55446)" d="M 256.297676 128.009681 
L 290.232407 123.05482 
" style="fill:none;stroke:#d62728;stroke-linecap:square;stroke-width:1.5;"/>
   </g>
   <g id="line2d_72">
    <path clip-path="url(#p531fb55446)" d="M 290.232407 123.05482 
L 321.024981 112.40071 
" style="fill:none;stroke:#d62728;stroke-linecap:square;stroke-width:1.5;"/>
   </g>
  </g>
 </g>
 <defs>
  <clipPath id="p531fb55446">
   <rect height="217.44" width="334.8" x="54" y="34.56"/>
  </clipPath>
 </defs>
</svg>
