<?xml version="1.0" encoding="utf-8" standalone="no"?>
<!DOCTYPE svg PUBLIC "-//W3C//DTD SVG 1.1//EN"
  "http://www.w3.org/Graphics/SVG/1.1/DTD/svg11.dtd">
<!-- Created with matplotlib (http://matplotlib.org/) -->
<svg height="465.230769pt" version="1.1" viewBox="0 0 432 465.230769" width="432pt" xmlns="http://www.w3.org/2000/svg" xmlns:xlink="http://www.w3.org/1999/xlink">
 <defs>
  <style type="text/css">
*{stroke-linecap:butt;stroke-linejoin:round;}
  </style>
 </defs>
 <g id="figure_1">
  <g id="patch_1">
   <path d="M 0 465.230769 
L 432 465.230769 
L 432 0 
L 0 0 
z
" style="fill:#ffffff;"/>
  </g>
  <g id="axes_1">
   <g id="patch_2">
    <path d="M 54 407.076923 
L 388.8 407.076923 
L 388.8 55.827692 
L 54 55.827692 
z
" style="fill:#ffffff;"/>
   </g>
   <g id="matplotlib.axis_1">
    <g id="xtick_1">
     <g id="line2d_1">
      <path clip-path="url(#p761d10ecd0)" d="M 54 407.076923 
L 54 55.827692 
" style="fill:none;stroke:#b0b0b0;stroke-linecap:square;stroke-width:0.8;"/>
     </g>
     <g id="line2d_2">
      <defs>
       <path d="M 0 0 
L 0 3.5 
" id="m13f50bc905" style="stroke:#000000;stroke-width:0.8;"/>
      </defs>
      <g>
       <use style="stroke:#000000;stroke-width:0.8;" x="54" xlink:href="#m13f50bc905" y="407.076923"/>
      </g>
     </g>
     <g id="text_1">
      <!-- −6 -->
      <defs>
       <path d="M 10.59375 35.5 
L 73.1875 35.5 
L 73.1875 27.203125 
L 10.59375 27.203125 
z
" id="DejaVuSans-2212"/>
       <path d="M 33.015625 40.375 
Q 26.375 40.375 22.484375 35.828125 
Q 18.609375 31.296875 18.609375 23.390625 
Q 18.609375 15.53125 22.484375 10.953125 
Q 26.375 6.390625 33.015625 6.390625 
Q 39.65625 6.390625 43.53125 10.953125 
Q 47.40625 15.53125 47.40625 23.390625 
Q 47.40625 31.296875 43.53125 35.828125 
Q 39.65625 40.375 33.015625 40.375 
z
M 52.59375 71.296875 
L 52.59375 62.3125 
Q 48.875 64.0625 45.09375 64.984375 
Q 41.3125 65.921875 37.59375 65.921875 
Q 27.828125 65.921875 22.671875 59.328125 
Q 17.53125 52.734375 16.796875 39.40625 
Q 19.671875 43.65625 24.015625 45.921875 
Q 28.375 48.1875 33.59375 48.1875 
Q 44.578125 48.1875 50.953125 41.515625 
Q 57.328125 34.859375 57.328125 23.390625 
Q 57.328125 12.15625 50.6875 5.359375 
Q 44.046875 -1.421875 33.015625 -1.421875 
Q 20.359375 -1.421875 13.671875 8.265625 
Q 6.984375 17.96875 6.984375 36.375 
Q 6.984375 53.65625 15.1875 63.9375 
Q 23.390625 74.21875 37.203125 74.21875 
Q 40.921875 74.21875 44.703125 73.484375 
Q 48.484375 72.75 52.59375 71.296875 
z
" id="DejaVuSans-36"/>
      </defs>
      <g transform="translate(46.628906 421.675361)scale(0.1 -0.1)">
       <use xlink:href="#DejaVuSans-2212"/>
       <use x="83.789062" xlink:href="#DejaVuSans-36"/>
      </g>
     </g>
    </g>
    <g id="xtick_2">
     <g id="line2d_3">
      <path clip-path="url(#p761d10ecd0)" d="M 79.753846 407.076923 
L 79.753846 55.827692 
" style="fill:none;stroke:#b0b0b0;stroke-linecap:square;stroke-width:0.8;"/>
     </g>
     <g id="line2d_4">
      <g>
       <use style="stroke:#000000;stroke-width:0.8;" x="79.753846" xlink:href="#m13f50bc905" y="407.076923"/>
      </g>
     </g>
     <g id="text_2">
      <!-- −5 -->
      <defs>
       <path d="M 10.796875 72.90625 
L 49.515625 72.90625 
L 49.515625 64.59375 
L 19.828125 64.59375 
L 19.828125 46.734375 
Q 21.96875 47.46875 24.109375 47.828125 
Q 26.265625 48.1875 28.421875 48.1875 
Q 40.625 48.1875 47.75 41.5 
Q 54.890625 34.8125 54.890625 23.390625 
Q 54.890625 11.625 47.5625 5.09375 
Q 40.234375 -1.421875 26.90625 -1.421875 
Q 22.3125 -1.421875 17.546875 -0.640625 
Q 12.796875 0.140625 7.71875 1.703125 
L 7.71875 11.625 
Q 12.109375 9.234375 16.796875 8.0625 
Q 21.484375 6.890625 26.703125 6.890625 
Q 35.15625 6.890625 40.078125 11.328125 
Q 45.015625 15.765625 45.015625 23.390625 
Q 45.015625 31 40.078125 35.4375 
Q 35.15625 39.890625 26.703125 39.890625 
Q 22.75 39.890625 18.8125 39.015625 
Q 14.890625 38.140625 10.796875 36.28125 
z
" id="DejaVuSans-35"/>
      </defs>
      <g transform="translate(72.382752 421.675361)scale(0.1 -0.1)">
       <use xlink:href="#DejaVuSans-2212"/>
       <use x="83.789062" xlink:href="#DejaVuSans-35"/>
      </g>
     </g>
    </g>
    <g id="xtick_3">
     <g id="line2d_5">
      <path clip-path="url(#p761d10ecd0)" d="M 105.507692 407.076923 
L 105.507692 55.827692 
" style="fill:none;stroke:#b0b0b0;stroke-linecap:square;stroke-width:0.8;"/>
     </g>
     <g id="line2d_6">
      <g>
       <use style="stroke:#000000;stroke-width:0.8;" x="105.507692" xlink:href="#m13f50bc905" y="407.076923"/>
      </g>
     </g>
     <g id="text_3">
      <!-- −4 -->
      <defs>
       <path d="M 37.796875 64.3125 
L 12.890625 25.390625 
L 37.796875 25.390625 
z
M 35.203125 72.90625 
L 47.609375 72.90625 
L 47.609375 25.390625 
L 58.015625 25.390625 
L 58.015625 17.1875 
L 47.609375 17.1875 
L 47.609375 0 
L 37.796875 0 
L 37.796875 17.1875 
L 4.890625 17.1875 
L 4.890625 26.703125 
z
" id="DejaVuSans-34"/>
      </defs>
      <g transform="translate(98.136599 421.675361)scale(0.1 -0.1)">
       <use xlink:href="#DejaVuSans-2212"/>
       <use x="83.789062" xlink:href="#DejaVuSans-34"/>
      </g>
     </g>
    </g>
    <g id="xtick_4">
     <g id="line2d_7">
      <path clip-path="url(#p761d10ecd0)" d="M 131.261538 407.076923 
L 131.261538 55.827692 
" style="fill:none;stroke:#b0b0b0;stroke-linecap:square;stroke-width:0.8;"/>
     </g>
     <g id="line2d_8">
      <g>
       <use style="stroke:#000000;stroke-width:0.8;" x="131.261538" xlink:href="#m13f50bc905" y="407.076923"/>
      </g>
     </g>
     <g id="text_4">
      <!-- −3 -->
      <defs>
       <path d="M 40.578125 39.3125 
Q 47.65625 37.796875 51.625 33 
Q 55.609375 28.21875 55.609375 21.1875 
Q 55.609375 10.40625 48.1875 4.484375 
Q 40.765625 -1.421875 27.09375 -1.421875 
Q 22.515625 -1.421875 17.65625 -0.515625 
Q 12.796875 0.390625 7.625 2.203125 
L 7.625 11.71875 
Q 11.71875 9.328125 16.59375 8.109375 
Q 21.484375 6.890625 26.8125 6.890625 
Q 36.078125 6.890625 40.9375 10.546875 
Q 45.796875 14.203125 45.796875 21.1875 
Q 45.796875 27.640625 41.28125 31.265625 
Q 36.765625 34.90625 28.71875 34.90625 
L 20.21875 34.90625 
L 20.21875 43.015625 
L 29.109375 43.015625 
Q 36.375 43.015625 40.234375 45.921875 
Q 44.09375 48.828125 44.09375 54.296875 
Q 44.09375 59.90625 40.109375 62.90625 
Q 36.140625 65.921875 28.71875 65.921875 
Q 24.65625 65.921875 20.015625 65.03125 
Q 15.375 64.15625 9.8125 62.3125 
L 9.8125 71.09375 
Q 15.4375 72.65625 20.34375 73.4375 
Q 25.25 74.21875 29.59375 74.21875 
Q 40.828125 74.21875 47.359375 69.109375 
Q 53.90625 64.015625 53.90625 55.328125 
Q 53.90625 49.265625 50.4375 45.09375 
Q 46.96875 40.921875 40.578125 39.3125 
z
" id="DejaVuSans-33"/>
      </defs>
      <g transform="translate(123.890445 421.675361)scale(0.1 -0.1)">
       <use xlink:href="#DejaVuSans-2212"/>
       <use x="83.789062" xlink:href="#DejaVuSans-33"/>
      </g>
     </g>
    </g>
    <g id="xtick_5">
     <g id="line2d_9">
      <path clip-path="url(#p761d10ecd0)" d="M 157.015385 407.076923 
L 157.015385 55.827692 
" style="fill:none;stroke:#b0b0b0;stroke-linecap:square;stroke-width:0.8;"/>
     </g>
     <g id="line2d_10">
      <g>
       <use style="stroke:#000000;stroke-width:0.8;" x="157.015385" xlink:href="#m13f50bc905" y="407.076923"/>
      </g>
     </g>
     <g id="text_5">
      <!-- −2 -->
      <defs>
       <path d="M 19.1875 8.296875 
L 53.609375 8.296875 
L 53.609375 0 
L 7.328125 0 
L 7.328125 8.296875 
Q 12.9375 14.109375 22.625 23.890625 
Q 32.328125 33.6875 34.8125 36.53125 
Q 39.546875 41.84375 41.421875 45.53125 
Q 43.3125 49.21875 43.3125 52.78125 
Q 43.3125 58.59375 39.234375 62.25 
Q 35.15625 65.921875 28.609375 65.921875 
Q 23.96875 65.921875 18.8125 64.3125 
Q 13.671875 62.703125 7.8125 59.421875 
L 7.8125 69.390625 
Q 13.765625 71.78125 18.9375 73 
Q 24.125 74.21875 28.421875 74.21875 
Q 39.75 74.21875 46.484375 68.546875 
Q 53.21875 62.890625 53.21875 53.421875 
Q 53.21875 48.921875 51.53125 44.890625 
Q 49.859375 40.875 45.40625 35.40625 
Q 44.1875 33.984375 37.640625 27.21875 
Q 31.109375 20.453125 19.1875 8.296875 
z
" id="DejaVuSans-32"/>
      </defs>
      <g transform="translate(149.644291 421.675361)scale(0.1 -0.1)">
       <use xlink:href="#DejaVuSans-2212"/>
       <use x="83.789062" xlink:href="#DejaVuSans-32"/>
      </g>
     </g>
    </g>
    <g id="xtick_6">
     <g id="line2d_11">
      <path clip-path="url(#p761d10ecd0)" d="M 182.769231 407.076923 
L 182.769231 55.827692 
" style="fill:none;stroke:#b0b0b0;stroke-linecap:square;stroke-width:0.8;"/>
     </g>
     <g id="line2d_12">
      <g>
       <use style="stroke:#000000;stroke-width:0.8;" x="182.769231" xlink:href="#m13f50bc905" y="407.076923"/>
      </g>
     </g>
     <g id="text_6">
      <!-- −1 -->
      <defs>
       <path d="M 12.40625 8.296875 
L 28.515625 8.296875 
L 28.515625 63.921875 
L 10.984375 60.40625 
L 10.984375 69.390625 
L 28.421875 72.90625 
L 38.28125 72.90625 
L 38.28125 8.296875 
L 54.390625 8.296875 
L 54.390625 0 
L 12.40625 0 
z
" id="DejaVuSans-31"/>
      </defs>
      <g transform="translate(175.398137 421.675361)scale(0.1 -0.1)">
       <use xlink:href="#DejaVuSans-2212"/>
       <use x="83.789062" xlink:href="#DejaVuSans-31"/>
      </g>
     </g>
    </g>
    <g id="xtick_7">
     <g id="line2d_13">
      <path clip-path="url(#p761d10ecd0)" d="M 208.523077 407.076923 
L 208.523077 55.827692 
" style="fill:none;stroke:#b0b0b0;stroke-linecap:square;stroke-width:0.8;"/>
     </g>
     <g id="line2d_14">
      <g>
       <use style="stroke:#000000;stroke-width:0.8;" x="208.523077" xlink:href="#m13f50bc905" y="407.076923"/>
      </g>
     </g>
     <g id="text_7">
      <!-- 0 -->
      <defs>
       <path d="M 31.78125 66.40625 
Q 24.171875 66.40625 20.328125 58.90625 
Q 16.5 51.421875 16.5 36.375 
Q 16.5 21.390625 20.328125 13.890625 
Q 24.171875 6.390625 31.78125 6.390625 
Q 39.453125 6.390625 43.28125 13.890625 
Q 47.125 21.390625 47.125 36.375 
Q 47.125 51.421875 43.28125 58.90625 
Q 39.453125 66.40625 31.78125 66.40625 
z
M 31.78125 74.21875 
Q 44.046875 74.21875 50.515625 64.515625 
Q 56.984375 54.828125 56.984375 36.375 
Q 56.984375 17.96875 50.515625 8.265625 
Q 44.046875 -1.421875 31.78125 -1.421875 
Q 19.53125 -1.421875 13.0625 8.265625 
Q 6.59375 17.96875 6.59375 36.375 
Q 6.59375 54.828125 13.0625 64.515625 
Q 19.53125 74.21875 31.78125 74.21875 
z
" id="DejaVuSans-30"/>
      </defs>
      <g transform="translate(205.341827 421.675361)scale(0.1 -0.1)">
       <use xlink:href="#DejaVuSans-30"/>
      </g>
     </g>
    </g>
    <g id="xtick_8">
     <g id="line2d_15">
      <path clip-path="url(#p761d10ecd0)" d="M 234.276923 407.076923 
L 234.276923 55.827692 
" style="fill:none;stroke:#b0b0b0;stroke-linecap:square;stroke-width:0.8;"/>
     </g>
     <g id="line2d_16">
      <g>
       <use style="stroke:#000000;stroke-width:0.8;" x="234.276923" xlink:href="#m13f50bc905" y="407.076923"/>
      </g>
     </g>
     <g id="text_8">
      <!-- 1 -->
      <g transform="translate(231.095673 421.675361)scale(0.1 -0.1)">
       <use xlink:href="#DejaVuSans-31"/>
      </g>
     </g>
    </g>
    <g id="xtick_9">
     <g id="line2d_17">
      <path clip-path="url(#p761d10ecd0)" d="M 260.030769 407.076923 
L 260.030769 55.827692 
" style="fill:none;stroke:#b0b0b0;stroke-linecap:square;stroke-width:0.8;"/>
     </g>
     <g id="line2d_18">
      <g>
       <use style="stroke:#000000;stroke-width:0.8;" x="260.030769" xlink:href="#m13f50bc905" y="407.076923"/>
      </g>
     </g>
     <g id="text_9">
      <!-- 2 -->
      <g transform="translate(256.849519 421.675361)scale(0.1 -0.1)">
       <use xlink:href="#DejaVuSans-32"/>
      </g>
     </g>
    </g>
    <g id="xtick_10">
     <g id="line2d_19">
      <path clip-path="url(#p761d10ecd0)" d="M 285.784615 407.076923 
L 285.784615 55.827692 
" style="fill:none;stroke:#b0b0b0;stroke-linecap:square;stroke-width:0.8;"/>
     </g>
     <g id="line2d_20">
      <g>
       <use style="stroke:#000000;stroke-width:0.8;" x="285.784615" xlink:href="#m13f50bc905" y="407.076923"/>
      </g>
     </g>
     <g id="text_10">
      <!-- 3 -->
      <g transform="translate(282.603365 421.675361)scale(0.1 -0.1)">
       <use xlink:href="#DejaVuSans-33"/>
      </g>
     </g>
    </g>
    <g id="xtick_11">
     <g id="line2d_21">
      <path clip-path="url(#p761d10ecd0)" d="M 311.538462 407.076923 
L 311.538462 55.827692 
" style="fill:none;stroke:#b0b0b0;stroke-linecap:square;stroke-width:0.8;"/>
     </g>
     <g id="line2d_22">
      <g>
       <use style="stroke:#000000;stroke-width:0.8;" x="311.538462" xlink:href="#m13f50bc905" y="407.076923"/>
      </g>
     </g>
     <g id="text_11">
      <!-- 4 -->
      <g transform="translate(308.357212 421.675361)scale(0.1 -0.1)">
       <use xlink:href="#DejaVuSans-34"/>
      </g>
     </g>
    </g>
    <g id="xtick_12">
     <g id="line2d_23">
      <path clip-path="url(#p761d10ecd0)" d="M 337.292308 407.076923 
L 337.292308 55.827692 
" style="fill:none;stroke:#b0b0b0;stroke-linecap:square;stroke-width:0.8;"/>
     </g>
     <g id="line2d_24">
      <g>
       <use style="stroke:#000000;stroke-width:0.8;" x="337.292308" xlink:href="#m13f50bc905" y="407.076923"/>
      </g>
     </g>
     <g id="text_12">
      <!-- 5 -->
      <g transform="translate(334.111058 421.675361)scale(0.1 -0.1)">
       <use xlink:href="#DejaVuSans-35"/>
      </g>
     </g>
    </g>
    <g id="xtick_13">
     <g id="line2d_25">
      <path clip-path="url(#p761d10ecd0)" d="M 363.046154 407.076923 
L 363.046154 55.827692 
" style="fill:none;stroke:#b0b0b0;stroke-linecap:square;stroke-width:0.8;"/>
     </g>
     <g id="line2d_26">
      <g>
       <use style="stroke:#000000;stroke-width:0.8;" x="363.046154" xlink:href="#m13f50bc905" y="407.076923"/>
      </g>
     </g>
     <g id="text_13">
      <!-- 6 -->
      <g transform="translate(359.864904 421.675361)scale(0.1 -0.1)">
       <use xlink:href="#DejaVuSans-36"/>
      </g>
     </g>
    </g>
   </g>
   <g id="matplotlib.axis_2">
    <g id="ytick_1">
     <g id="line2d_27">
      <path clip-path="url(#p761d10ecd0)" d="M 54 407.076923 
L 388.8 407.076923 
" style="fill:none;stroke:#b0b0b0;stroke-linecap:square;stroke-width:0.8;"/>
     </g>
     <g id="line2d_28">
      <defs>
       <path d="M 0 0 
L -3.5 0 
" id="md921026804" style="stroke:#000000;stroke-width:0.8;"/>
      </defs>
      <g>
       <use style="stroke:#000000;stroke-width:0.8;" x="54" xlink:href="#md921026804" y="407.076923"/>
      </g>
     </g>
     <g id="text_14">
      <!-- −5 -->
      <g transform="translate(32.257812 410.876142)scale(0.1 -0.1)">
       <use xlink:href="#DejaVuSans-2212"/>
       <use x="83.789062" xlink:href="#DejaVuSans-35"/>
      </g>
     </g>
    </g>
    <g id="ytick_2">
     <g id="line2d_29">
      <path clip-path="url(#p761d10ecd0)" d="M 54 381.987692 
L 388.8 381.987692 
" style="fill:none;stroke:#b0b0b0;stroke-linecap:square;stroke-width:0.8;"/>
     </g>
     <g id="line2d_30">
      <g>
       <use style="stroke:#000000;stroke-width:0.8;" x="54" xlink:href="#md921026804" y="381.987692"/>
      </g>
     </g>
     <g id="text_15">
      <!-- −4 -->
      <g transform="translate(32.257812 385.786911)scale(0.1 -0.1)">
       <use xlink:href="#DejaVuSans-2212"/>
       <use x="83.789062" xlink:href="#DejaVuSans-34"/>
      </g>
     </g>
    </g>
    <g id="ytick_3">
     <g id="line2d_31">
      <path clip-path="url(#p761d10ecd0)" d="M 54 356.898462 
L 388.8 356.898462 
" style="fill:none;stroke:#b0b0b0;stroke-linecap:square;stroke-width:0.8;"/>
     </g>
     <g id="line2d_32">
      <g>
       <use style="stroke:#000000;stroke-width:0.8;" x="54" xlink:href="#md921026804" y="356.898462"/>
      </g>
     </g>
     <g id="text_16">
      <!-- −3 -->
      <g transform="translate(32.257812 360.69768)scale(0.1 -0.1)">
       <use xlink:href="#DejaVuSans-2212"/>
       <use x="83.789062" xlink:href="#DejaVuSans-33"/>
      </g>
     </g>
    </g>
    <g id="ytick_4">
     <g id="line2d_33">
      <path clip-path="url(#p761d10ecd0)" d="M 54 331.809231 
L 388.8 331.809231 
" style="fill:none;stroke:#b0b0b0;stroke-linecap:square;stroke-width:0.8;"/>
     </g>
     <g id="line2d_34">
      <g>
       <use style="stroke:#000000;stroke-width:0.8;" x="54" xlink:href="#md921026804" y="331.809231"/>
      </g>
     </g>
     <g id="text_17">
      <!-- −2 -->
      <g transform="translate(32.257812 335.60845)scale(0.1 -0.1)">
       <use xlink:href="#DejaVuSans-2212"/>
       <use x="83.789062" xlink:href="#DejaVuSans-32"/>
      </g>
     </g>
    </g>
    <g id="ytick_5">
     <g id="line2d_35">
      <path clip-path="url(#p761d10ecd0)" d="M 54 306.72 
L 388.8 306.72 
" style="fill:none;stroke:#b0b0b0;stroke-linecap:square;stroke-width:0.8;"/>
     </g>
     <g id="line2d_36">
      <g>
       <use style="stroke:#000000;stroke-width:0.8;" x="54" xlink:href="#md921026804" y="306.72"/>
      </g>
     </g>
     <g id="text_18">
      <!-- −1 -->
      <g transform="translate(32.257812 310.519219)scale(0.1 -0.1)">
       <use xlink:href="#DejaVuSans-2212"/>
       <use x="83.789062" xlink:href="#DejaVuSans-31"/>
      </g>
     </g>
    </g>
    <g id="ytick_6">
     <g id="line2d_37">
      <path clip-path="url(#p761d10ecd0)" d="M 54 281.630769 
L 388.8 281.630769 
" style="fill:none;stroke:#b0b0b0;stroke-linecap:square;stroke-width:0.8;"/>
     </g>
     <g id="line2d_38">
      <g>
       <use style="stroke:#000000;stroke-width:0.8;" x="54" xlink:href="#md921026804" y="281.630769"/>
      </g>
     </g>
     <g id="text_19">
      <!-- 0 -->
      <g transform="translate(40.6375 285.429988)scale(0.1 -0.1)">
       <use xlink:href="#DejaVuSans-30"/>
      </g>
     </g>
    </g>
    <g id="ytick_7">
     <g id="line2d_39">
      <path clip-path="url(#p761d10ecd0)" d="M 54 256.541538 
L 388.8 256.541538 
" style="fill:none;stroke:#b0b0b0;stroke-linecap:square;stroke-width:0.8;"/>
     </g>
     <g id="line2d_40">
      <g>
       <use style="stroke:#000000;stroke-width:0.8;" x="54" xlink:href="#md921026804" y="256.541538"/>
      </g>
     </g>
     <g id="text_20">
      <!-- 1 -->
      <g transform="translate(40.6375 260.340757)scale(0.1 -0.1)">
       <use xlink:href="#DejaVuSans-31"/>
      </g>
     </g>
    </g>
    <g id="ytick_8">
     <g id="line2d_41">
      <path clip-path="url(#p761d10ecd0)" d="M 54 231.452308 
L 388.8 231.452308 
" style="fill:none;stroke:#b0b0b0;stroke-linecap:square;stroke-width:0.8;"/>
     </g>
     <g id="line2d_42">
      <g>
       <use style="stroke:#000000;stroke-width:0.8;" x="54" xlink:href="#md921026804" y="231.452308"/>
      </g>
     </g>
     <g id="text_21">
      <!-- 2 -->
      <g transform="translate(40.6375 235.251526)scale(0.1 -0.1)">
       <use xlink:href="#DejaVuSans-32"/>
      </g>
     </g>
    </g>
    <g id="ytick_9">
     <g id="line2d_43">
      <path clip-path="url(#p761d10ecd0)" d="M 54 206.363077 
L 388.8 206.363077 
" style="fill:none;stroke:#b0b0b0;stroke-linecap:square;stroke-width:0.8;"/>
     </g>
     <g id="line2d_44">
      <g>
       <use style="stroke:#000000;stroke-width:0.8;" x="54" xlink:href="#md921026804" y="206.363077"/>
      </g>
     </g>
     <g id="text_22">
      <!-- 3 -->
      <g transform="translate(40.6375 210.162296)scale(0.1 -0.1)">
       <use xlink:href="#DejaVuSans-33"/>
      </g>
     </g>
    </g>
    <g id="ytick_10">
     <g id="line2d_45">
      <path clip-path="url(#p761d10ecd0)" d="M 54 181.273846 
L 388.8 181.273846 
" style="fill:none;stroke:#b0b0b0;stroke-linecap:square;stroke-width:0.8;"/>
     </g>
     <g id="line2d_46">
      <g>
       <use style="stroke:#000000;stroke-width:0.8;" x="54" xlink:href="#md921026804" y="181.273846"/>
      </g>
     </g>
     <g id="text_23">
      <!-- 4 -->
      <g transform="translate(40.6375 185.073065)scale(0.1 -0.1)">
       <use xlink:href="#DejaVuSans-34"/>
      </g>
     </g>
    </g>
    <g id="ytick_11">
     <g id="line2d_47">
      <path clip-path="url(#p761d10ecd0)" d="M 54 156.184615 
L 388.8 156.184615 
" style="fill:none;stroke:#b0b0b0;stroke-linecap:square;stroke-width:0.8;"/>
     </g>
     <g id="line2d_48">
      <g>
       <use style="stroke:#000000;stroke-width:0.8;" x="54" xlink:href="#md921026804" y="156.184615"/>
      </g>
     </g>
     <g id="text_24">
      <!-- 5 -->
      <g transform="translate(40.6375 159.983834)scale(0.1 -0.1)">
       <use xlink:href="#DejaVuSans-35"/>
      </g>
     </g>
    </g>
    <g id="ytick_12">
     <g id="line2d_49">
      <path clip-path="url(#p761d10ecd0)" d="M 54 131.095385 
L 388.8 131.095385 
" style="fill:none;stroke:#b0b0b0;stroke-linecap:square;stroke-width:0.8;"/>
     </g>
     <g id="line2d_50">
      <g>
       <use style="stroke:#000000;stroke-width:0.8;" x="54" xlink:href="#md921026804" y="131.095385"/>
      </g>
     </g>
     <g id="text_25">
      <!-- 6 -->
      <g transform="translate(40.6375 134.894603)scale(0.1 -0.1)">
       <use xlink:href="#DejaVuSans-36"/>
      </g>
     </g>
    </g>
    <g id="ytick_13">
     <g id="line2d_51">
      <path clip-path="url(#p761d10ecd0)" d="M 54 106.006154 
L 388.8 106.006154 
" style="fill:none;stroke:#b0b0b0;stroke-linecap:square;stroke-width:0.8;"/>
     </g>
     <g id="line2d_52">
      <g>
       <use style="stroke:#000000;stroke-width:0.8;" x="54" xlink:href="#md921026804" y="106.006154"/>
      </g>
     </g>
     <g id="text_26">
      <!-- 7 -->
      <defs>
       <path d="M 8.203125 72.90625 
L 55.078125 72.90625 
L 55.078125 68.703125 
L 28.609375 0 
L 18.3125 0 
L 43.21875 64.59375 
L 8.203125 64.59375 
z
" id="DejaVuSans-37"/>
      </defs>
      <g transform="translate(40.6375 109.805373)scale(0.1 -0.1)">
       <use xlink:href="#DejaVuSans-37"/>
      </g>
     </g>
    </g>
    <g id="ytick_14">
     <g id="line2d_53">
      <path clip-path="url(#p761d10ecd0)" d="M 54 80.916923 
L 388.8 80.916923 
" style="fill:none;stroke:#b0b0b0;stroke-linecap:square;stroke-width:0.8;"/>
     </g>
     <g id="line2d_54">
      <g>
       <use style="stroke:#000000;stroke-width:0.8;" x="54" xlink:href="#md921026804" y="80.916923"/>
      </g>
     </g>
     <g id="text_27">
      <!-- 8 -->
      <defs>
       <path d="M 31.78125 34.625 
Q 24.75 34.625 20.71875 30.859375 
Q 16.703125 27.09375 16.703125 20.515625 
Q 16.703125 13.921875 20.71875 10.15625 
Q 24.75 6.390625 31.78125 6.390625 
Q 38.8125 6.390625 42.859375 10.171875 
Q 46.921875 13.96875 46.921875 20.515625 
Q 46.921875 27.09375 42.890625 30.859375 
Q 38.875 34.625 31.78125 34.625 
z
M 21.921875 38.8125 
Q 15.578125 40.375 12.03125 44.71875 
Q 8.5 49.078125 8.5 55.328125 
Q 8.5 64.0625 14.71875 69.140625 
Q 20.953125 74.21875 31.78125 74.21875 
Q 42.671875 74.21875 48.875 69.140625 
Q 55.078125 64.0625 55.078125 55.328125 
Q 55.078125 49.078125 51.53125 44.71875 
Q 48 40.375 41.703125 38.8125 
Q 48.828125 37.15625 52.796875 32.3125 
Q 56.78125 27.484375 56.78125 20.515625 
Q 56.78125 9.90625 50.3125 4.234375 
Q 43.84375 -1.421875 31.78125 -1.421875 
Q 19.734375 -1.421875 13.25 4.234375 
Q 6.78125 9.90625 6.78125 20.515625 
Q 6.78125 27.484375 10.78125 32.3125 
Q 14.796875 37.15625 21.921875 38.8125 
z
M 18.3125 54.390625 
Q 18.3125 48.734375 21.84375 45.5625 
Q 25.390625 42.390625 31.78125 42.390625 
Q 38.140625 42.390625 41.71875 45.5625 
Q 45.3125 48.734375 45.3125 54.390625 
Q 45.3125 60.0625 41.71875 63.234375 
Q 38.140625 66.40625 31.78125 66.40625 
Q 25.390625 66.40625 21.84375 63.234375 
Q 18.3125 60.0625 18.3125 54.390625 
z
" id="DejaVuSans-38"/>
      </defs>
      <g transform="translate(40.6375 84.716142)scale(0.1 -0.1)">
       <use xlink:href="#DejaVuSans-38"/>
      </g>
     </g>
    </g>
   </g>
   <g id="PathCollection_1">
    <defs>
     <path d="M -3 3 
L 3 -3 
M -3 -3 
L 3 3 
" id="mbbef63c169" style="stroke:#000000;stroke-width:1.5;"/>
    </defs>
    <g clip-path="url(#p761d10ecd0)">
     <use style="stroke:#000000;stroke-width:1.5;" x="208.523077" xlink:href="#mbbef63c169" y="281.630769"/>
    </g>
   </g>
   <g id="PathCollection_2">
    <defs>
     <path d="M 0 3 
C 0.795609 3 1.55874 2.683901 2.12132 2.12132 
C 2.683901 1.55874 3 0.795609 3 0 
C 3 -0.795609 2.683901 -1.55874 2.12132 -2.12132 
C 1.55874 -2.683901 0.795609 -3 0 -3 
C -0.795609 -3 -1.55874 -2.683901 -2.12132 -2.12132 
C -2.683901 -1.55874 -3 -0.795609 -3 0 
C -3 0.795609 -2.683901 1.55874 -2.12132 2.12132 
C -1.55874 2.683901 -0.795609 3 0 3 
z
" id="mae3410c460" style="stroke:#1f77b4;"/>
    </defs>
    <g clip-path="url(#p761d10ecd0)">
     <use style="fill:#1f77b4;stroke:#1f77b4;" x="363.046154" xlink:href="#mae3410c460" y="181.273846"/>
     <use style="fill:#1f77b4;stroke:#1f77b4;" x="285.784615" xlink:href="#mae3410c460" y="256.541538"/>
     <use style="fill:#1f77b4;stroke:#1f77b4;" x="234.276923" xlink:href="#mae3410c460" y="231.452308"/>
     <use style="fill:#1f77b4;stroke:#1f77b4;" x="182.769231" xlink:href="#mae3410c460" y="156.184615"/>
     <use style="fill:#1f77b4;stroke:#1f77b4;" x="157.015385" xlink:href="#mae3410c460" y="156.184615"/>
     <use style="fill:#1f77b4;stroke:#1f77b4;" x="131.261538" xlink:href="#mae3410c460" y="181.273846"/>
     <use style="fill:#1f77b4;stroke:#1f77b4;" x="105.507692" xlink:href="#mae3410c460" y="181.273846"/>
     <use style="fill:#1f77b4;stroke:#1f77b4;" x="79.753846" xlink:href="#mae3410c460" y="206.363077"/>
     <use style="fill:#1f77b4;stroke:#1f77b4;" x="79.753846" xlink:href="#mae3410c460" y="231.452308"/>
     <use style="fill:#1f77b4;stroke:#1f77b4;" x="157.015385" xlink:href="#mae3410c460" y="231.452308"/>
     <use style="fill:#1f77b4;stroke:#1f77b4;" x="79.753846" xlink:href="#mae3410c460" y="256.541538"/>
     <use style="fill:#1f77b4;stroke:#1f77b4;" x="105.507692" xlink:href="#mae3410c460" y="281.630769"/>
     <use style="fill:#1f77b4;stroke:#1f77b4;" x="157.015385" xlink:href="#mae3410c460" y="256.541538"/>
     <use style="fill:#1f77b4;stroke:#1f77b4;" x="182.769231" xlink:href="#mae3410c460" y="281.630769"/>
     <use style="fill:#1f77b4;stroke:#1f77b4;" x="208.523077" xlink:href="#mae3410c460" y="356.898462"/>
     <use style="fill:#1f77b4;stroke:#1f77b4;" x="182.769231" xlink:href="#mae3410c460" y="381.987692"/>
     <use style="fill:#1f77b4;stroke:#1f77b4;" x="234.276923" xlink:href="#mae3410c460" y="381.987692"/>
     <use style="fill:#1f77b4;stroke:#1f77b4;" x="260.030769" xlink:href="#mae3410c460" y="356.898462"/>
     <use style="fill:#1f77b4;stroke:#1f77b4;" x="234.276923" xlink:href="#mae3410c460" y="331.809231"/>
     <use style="fill:#1f77b4;stroke:#1f77b4;" x="285.784615" xlink:href="#mae3410c460" y="306.72"/>
     <use style="fill:#1f77b4;stroke:#1f77b4;" x="337.292308" xlink:href="#mae3410c460" y="256.541538"/>
    </g>
   </g>
   <g id="PathCollection_3">
    <defs>
     <path d="M 0 3 
C 0.795609 3 1.55874 2.683901 2.12132 2.12132 
C 2.683901 1.55874 3 0.795609 3 0 
C 3 -0.795609 2.683901 -1.55874 2.12132 -2.12132 
C 1.55874 -2.683901 0.795609 -3 0 -3 
C -0.795609 -3 -1.55874 -2.683901 -2.12132 -2.12132 
C -2.683901 -1.55874 -3 -0.795609 -3 0 
C -3 0.795609 -2.683901 1.55874 -2.12132 2.12132 
C -1.55874 2.683901 -0.795609 3 0 3 
z
" id="m0718fc55a6" style="stroke:#d62728;"/>
    </defs>
    <g clip-path="url(#p761d10ecd0)">
     <use style="fill:#d62728;stroke:#d62728;" x="329.749181" xlink:href="#m0718fc55a6" y="92.57002"/>
     <use style="fill:#d62728;stroke:#d62728;" x="329.749181" xlink:href="#m0718fc55a6" y="145.792316"/>
     <use style="fill:#d62728;stroke:#d62728;" x="302.433102" xlink:href="#m0718fc55a6" y="154.662698"/>
     <use style="fill:#d62728;stroke:#d62728;" x="256.906304" xlink:href="#m0718fc55a6" y="145.792316"/>
     <use style="fill:#d62728;stroke:#d62728;" x="247.800944" xlink:href="#m0718fc55a6" y="154.662698"/>
     <use style="fill:#d62728;stroke:#d62728;" x="247.800944" xlink:href="#m0718fc55a6" y="172.403464"/>
     <use style="fill:#d62728;stroke:#d62728;" x="238.695585" xlink:href="#m0718fc55a6" y="181.273846"/>
     <use style="fill:#d62728;stroke:#d62728;" x="238.695585" xlink:href="#m0718fc55a6" y="199.014611"/>
     <use style="fill:#d62728;stroke:#d62728;" x="247.800944" xlink:href="#m0718fc55a6" y="207.884994"/>
     <use style="fill:#d62728;stroke:#d62728;" x="275.117023" xlink:href="#m0718fc55a6" y="181.273846"/>
     <use style="fill:#d62728;stroke:#d62728;" x="256.906304" xlink:href="#m0718fc55a6" y="216.755377"/>
     <use style="fill:#d62728;stroke:#d62728;" x="275.117023" xlink:href="#m0718fc55a6" y="216.755377"/>
     <use style="fill:#d62728;stroke:#d62728;" x="284.222383" xlink:href="#m0718fc55a6" y="190.144229"/>
     <use style="fill:#d62728;stroke:#d62728;" x="302.433102" xlink:href="#m0718fc55a6" y="190.144229"/>
     <use style="fill:#d62728;stroke:#d62728;" x="338.85454" xlink:href="#m0718fc55a6" y="207.884994"/>
     <use style="fill:#d62728;stroke:#d62728;" x="338.85454" xlink:href="#m0718fc55a6" y="225.625759"/>
     <use style="fill:#d62728;stroke:#d62728;" x="357.06526" xlink:href="#m0718fc55a6" y="207.884994"/>
     <use style="fill:#d62728;stroke:#d62728;" x="357.06526" xlink:href="#m0718fc55a6" y="190.144229"/>
     <use style="fill:#d62728;stroke:#d62728;" x="338.85454" xlink:href="#m0718fc55a6" y="190.144229"/>
     <use style="fill:#d62728;stroke:#d62728;" x="347.9599" xlink:href="#m0718fc55a6" y="163.533081"/>
     <use style="fill:#d62728;stroke:#d62728;" x="347.9599" xlink:href="#m0718fc55a6" y="128.051551"/>
    </g>
   </g>
   <g id="line2d_55">
    <path clip-path="url(#p761d10ecd0)" d="M 54 281.630769 
L 388.8 281.630769 
" style="fill:none;stroke:#000000;stroke-linecap:square;stroke-width:2;"/>
   </g>
   <g id="line2d_56">
    <path clip-path="url(#p761d10ecd0)" d="M 208.523077 407.076923 
L 208.523077 55.827692 
" style="fill:none;stroke:#000000;stroke-linecap:square;stroke-width:2;"/>
   </g>
   <g id="line2d_57">
    <path clip-path="url(#p761d10ecd0)" d="M 363.046154 181.273846 
L 285.784615 256.541538 
" style="fill:none;stroke:#1f77b4;stroke-linecap:square;stroke-width:1.5;"/>
   </g>
   <g id="line2d_58">
    <path clip-path="url(#p761d10ecd0)" d="M 285.784615 256.541538 
L 234.276923 231.452308 
" style="fill:none;stroke:#1f77b4;stroke-linecap:square;stroke-width:1.5;"/>
   </g>
   <g id="line2d_59">
    <path clip-path="url(#p761d10ecd0)" d="M 234.276923 231.452308 
L 182.769231 156.184615 
" style="fill:none;stroke:#1f77b4;stroke-linecap:square;stroke-width:1.5;"/>
   </g>
   <g id="line2d_60">
    <path clip-path="url(#p761d10ecd0)" d="M 182.769231 156.184615 
L 157.015385 156.184615 
" style="fill:none;stroke:#1f77b4;stroke-linecap:square;stroke-width:1.5;"/>
   </g>
   <g id="line2d_61">
    <path clip-path="url(#p761d10ecd0)" d="M 157.015385 156.184615 
L 131.261538 181.273846 
" style="fill:none;stroke:#1f77b4;stroke-linecap:square;stroke-width:1.5;"/>
   </g>
   <g id="line2d_62">
    <path clip-path="url(#p761d10ecd0)" d="M 131.261538 181.273846 
L 105.507692 181.273846 
" style="fill:none;stroke:#1f77b4;stroke-linecap:square;stroke-width:1.5;"/>
   </g>
   <g id="line2d_63">
    <path clip-path="url(#p761d10ecd0)" d="M 105.507692 181.273846 
L 79.753846 206.363077 
" style="fill:none;stroke:#1f77b4;stroke-linecap:square;stroke-width:1.5;"/>
   </g>
   <g id="line2d_64">
    <path clip-path="url(#p761d10ecd0)" d="M 79.753846 206.363077 
L 79.753846 231.452308 
" style="fill:none;stroke:#1f77b4;stroke-linecap:square;stroke-width:1.5;"/>
   </g>
   <g id="line2d_65">
    <path clip-path="url(#p761d10ecd0)" d="M 79.753846 231.452308 
L 157.015385 231.452308 
" style="fill:none;stroke:#1f77b4;stroke-linecap:square;stroke-width:1.5;"/>
   </g>
   <g id="line2d_66">
    <path clip-path="url(#p761d10ecd0)" d="M 157.015385 231.452308 
L 79.753846 256.541538 
" style="fill:none;stroke:#1f77b4;stroke-linecap:square;stroke-width:1.5;"/>
   </g>
   <g id="line2d_67">
    <path clip-path="url(#p761d10ecd0)" d="M 79.753846 256.541538 
L 105.507692 281.630769 
" style="fill:none;stroke:#1f77b4;stroke-linecap:square;stroke-width:1.5;"/>
   </g>
   <g id="line2d_68">
    <path clip-path="url(#p761d10ecd0)" d="M 105.507692 281.630769 
L 157.015385 256.541538 
" style="fill:none;stroke:#1f77b4;stroke-linecap:square;stroke-width:1.5;"/>
   </g>
   <g id="line2d_69">
    <path clip-path="url(#p761d10ecd0)" d="M 157.015385 256.541538 
L 182.769231 281.630769 
" style="fill:none;stroke:#1f77b4;stroke-linecap:square;stroke-width:1.5;"/>
   </g>
   <g id="line2d_70">
    <path clip-path="url(#p761d10ecd0)" d="M 182.769231 281.630769 
L 208.523077 356.898462 
" style="fill:none;stroke:#1f77b4;stroke-linecap:square;stroke-width:1.5;"/>
   </g>
   <g id="line2d_71">
    <path clip-path="url(#p761d10ecd0)" d="M 208.523077 356.898462 
L 182.769231 381.987692 
" style="fill:none;stroke:#1f77b4;stroke-linecap:square;stroke-width:1.5;"/>
   </g>
   <g id="line2d_72">
    <path clip-path="url(#p761d10ecd0)" d="M 182.769231 381.987692 
L 234.276923 381.987692 
" style="fill:none;stroke:#1f77b4;stroke-linecap:square;stroke-width:1.5;"/>
   </g>
   <g id="line2d_73">
    <path clip-path="url(#p761d10ecd0)" d="M 234.276923 381.987692 
L 260.030769 356.898462 
" style="fill:none;stroke:#1f77b4;stroke-linecap:square;stroke-width:1.5;"/>
   </g>
   <g id="line2d_74">
    <path clip-path="url(#p761d10ecd0)" d="M 260.030769 356.898462 
L 234.276923 331.809231 
" style="fill:none;stroke:#1f77b4;stroke-linecap:square;stroke-width:1.5;"/>
   </g>
   <g id="line2d_75">
    <path clip-path="url(#p761d10ecd0)" d="M 234.276923 331.809231 
L 285.784615 306.72 
" style="fill:none;stroke:#1f77b4;stroke-linecap:square;stroke-width:1.5;"/>
   </g>
   <g id="line2d_76">
    <path clip-path="url(#p761d10ecd0)" d="M 285.784615 306.72 
L 337.292308 256.541538 
" style="fill:none;stroke:#1f77b4;stroke-linecap:square;stroke-width:1.5;"/>
   </g>
   <g id="line2d_77">
    <path clip-path="url(#p761d10ecd0)" d="M 337.292308 256.541538 
L 363.046154 181.273846 
" style="fill:none;stroke:#1f77b4;stroke-linecap:square;stroke-width:1.5;"/>
   </g>
   <g id="line2d_78">
    <path clip-path="url(#p761d10ecd0)" d="M 329.749181 92.57002 
L 329.749181 145.792316 
" style="fill:none;stroke:#d62728;stroke-linecap:square;stroke-width:1.5;"/>
   </g>
   <g id="line2d_79">
    <path clip-path="url(#p761d10ecd0)" d="M 329.749181 145.792316 
L 302.433102 154.662698 
" style="fill:none;stroke:#d62728;stroke-linecap:square;stroke-width:1.5;"/>
   </g>
   <g id="line2d_80">
    <path clip-path="url(#p761d10ecd0)" d="M 302.433102 154.662698 
L 256.906304 145.792316 
" style="fill:none;stroke:#d62728;stroke-linecap:square;stroke-width:1.5;"/>
   </g>
   <g id="line2d_81">
    <path clip-path="url(#p761d10ecd0)" d="M 256.906304 145.792316 
L 247.800944 154.662698 
" style="fill:none;stroke:#d62728;stroke-linecap:square;stroke-width:1.5;"/>
   </g>
   <g id="line2d_82">
    <path clip-path="url(#p761d10ecd0)" d="M 247.800944 154.662698 
L 247.800944 172.403464 
" style="fill:none;stroke:#d62728;stroke-linecap:square;stroke-width:1.5;"/>
   </g>
   <g id="line2d_83">
    <path clip-path="url(#p761d10ecd0)" d="M 247.800944 172.403464 
L 238.695585 181.273846 
" style="fill:none;stroke:#d62728;stroke-linecap:square;stroke-width:1.5;"/>
   </g>
   <g id="line2d_84">
    <path clip-path="url(#p761d10ecd0)" d="M 238.695585 181.273846 
L 238.695585 199.014611 
" style="fill:none;stroke:#d62728;stroke-linecap:square;stroke-width:1.5;"/>
   </g>
   <g id="line2d_85">
    <path clip-path="url(#p761d10ecd0)" d="M 238.695585 199.014611 
L 247.800944 207.884994 
" style="fill:none;stroke:#d62728;stroke-linecap:square;stroke-width:1.5;"/>
   </g>
   <g id="line2d_86">
    <path clip-path="url(#p761d10ecd0)" d="M 247.800944 207.884994 
L 275.117023 181.273846 
" style="fill:none;stroke:#d62728;stroke-linecap:square;stroke-width:1.5;"/>
   </g>
   <g id="line2d_87">
    <path clip-path="url(#p761d10ecd0)" d="M 275.117023 181.273846 
L 256.906304 216.755377 
" style="fill:none;stroke:#d62728;stroke-linecap:square;stroke-width:1.5;"/>
   </g>
   <g id="line2d_88">
    <path clip-path="url(#p761d10ecd0)" d="M 256.906304 216.755377 
L 275.117023 216.755377 
" style="fill:none;stroke:#d62728;stroke-linecap:square;stroke-width:1.5;"/>
   </g>
   <g id="line2d_89">
    <path clip-path="url(#p761d10ecd0)" d="M 275.117023 216.755377 
L 284.222383 190.144229 
" style="fill:none;stroke:#d62728;stroke-linecap:square;stroke-width:1.5;"/>
   </g>
   <g id="line2d_90">
    <path clip-path="url(#p761d10ecd0)" d="M 284.222383 190.144229 
L 302.433102 190.144229 
" style="fill:none;stroke:#d62728;stroke-linecap:square;stroke-width:1.5;"/>
   </g>
   <g id="line2d_91">
    <path clip-path="url(#p761d10ecd0)" d="M 302.433102 190.144229 
L 338.85454 207.884994 
" style="fill:none;stroke:#d62728;stroke-linecap:square;stroke-width:1.5;"/>
   </g>
   <g id="line2d_92">
    <path clip-path="url(#p761d10ecd0)" d="M 338.85454 207.884994 
L 338.85454 225.625759 
" style="fill:none;stroke:#d62728;stroke-linecap:square;stroke-width:1.5;"/>
   </g>
   <g id="line2d_93">
    <path clip-path="url(#p761d10ecd0)" d="M 338.85454 225.625759 
L 357.06526 207.884994 
" style="fill:none;stroke:#d62728;stroke-linecap:square;stroke-width:1.5;"/>
   </g>
   <g id="line2d_94">
    <path clip-path="url(#p761d10ecd0)" d="M 357.06526 207.884994 
L 357.06526 190.144229 
" style="fill:none;stroke:#d62728;stroke-linecap:square;stroke-width:1.5;"/>
   </g>
   <g id="line2d_95">
    <path clip-path="url(#p761d10ecd0)" d="M 357.06526 190.144229 
L 338.85454 190.144229 
" style="fill:none;stroke:#d62728;stroke-linecap:square;stroke-width:1.5;"/>
   </g>
   <g id="line2d_96">
    <path clip-path="url(#p761d10ecd0)" d="M 338.85454 190.144229 
L 347.9599 163.533081 
" style="fill:none;stroke:#d62728;stroke-linecap:square;stroke-width:1.5;"/>
   </g>
   <g id="line2d_97">
    <path clip-path="url(#p761d10ecd0)" d="M 347.9599 163.533081 
L 347.9599 128.051551 
" style="fill:none;stroke:#d62728;stroke-linecap:square;stroke-width:1.5;"/>
   </g>
   <g id="line2d_98">
    <path clip-path="url(#p761d10ecd0)" d="M 347.9599 128.051551 
L 329.749181 92.57002 
" style="fill:none;stroke:#d62728;stroke-linecap:square;stroke-width:1.5;"/>
   </g>
   <g id="patch_3">
    <path d="M 54 407.076923 
L 54 55.827692 
" style="fill:none;stroke:#000000;stroke-linecap:square;stroke-linejoin:miter;stroke-width:0.8;"/>
   </g>
   <g id="patch_4">
    <path d="M 388.8 407.076923 
L 388.8 55.827692 
" style="fill:none;stroke:#000000;stroke-linecap:square;stroke-linejoin:miter;stroke-width:0.8;"/>
   </g>
   <g id="patch_5">
    <path d="M 54 407.076923 
L 388.8 407.076923 
" style="fill:none;stroke:#000000;stroke-linecap:square;stroke-linejoin:miter;stroke-width:0.8;"/>
   </g>
   <g id="patch_6">
    <path d="M 54 55.827692 
L 388.8 55.827692 
" style="fill:none;stroke:#000000;stroke-linecap:square;stroke-linejoin:miter;stroke-width:0.8;"/>
   </g>
  </g>
 </g>
 <defs>
  <clipPath id="p761d10ecd0">
   <rect height="351.249231" width="334.8" x="54" y="55.827692"/>
  </clipPath>
 </defs>
</svg>
