<?xml version="1.0" encoding="utf-8" standalone="no"?>
<!DOCTYPE svg PUBLIC "-//W3C//DTD SVG 1.1//EN"
  "http://www.w3.org/Graphics/SVG/1.1/DTD/svg11.dtd">
<!-- Created with matplotlib (http://matplotlib.org/) -->
<svg height="295.578947pt" version="1.1" viewBox="0 0 432 295.578947" width="432pt" xmlns="http://www.w3.org/2000/svg" xmlns:xlink="http://www.w3.org/1999/xlink">
 <defs>
  <style type="text/css">
*{stroke-linecap:butt;stroke-linejoin:round;}
  </style>
 </defs>
 <g id="figure_1">
  <g id="patch_1">
   <path d="M 0 295.578947 
L 432 295.578947 
L 432 0 
L 0 0 
z
" style="fill:#ffffff;"/>
  </g>
  <g id="axes_1">
   <g id="patch_2">
    <path d="M 54 258.631579 
L 388.8 258.631579 
L 388.8 35.469474 
L 54 35.469474 
z
" style="fill:#ffffff;"/>
   </g>
   <g id="matplotlib.axis_1">
    <g id="xtick_1">
     <g id="line2d_1">
      <path clip-path="url(#p19186eaa0c)" d="M 54 258.631579 
L 54 35.469474 
" style="fill:none;stroke:#b0b0b0;stroke-linecap:square;stroke-width:0.8;"/>
     </g>
     <g id="line2d_2">
      <defs>
       <path d="M 0 0 
L 0 3.5 
" id="mb05679d3d2" style="stroke:#000000;stroke-width:0.8;"/>
      </defs>
      <g>
       <use style="stroke:#000000;stroke-width:0.8;" x="54" xlink:href="#mb05679d3d2" y="258.631579"/>
      </g>
     </g>
     <g id="text_1">
      <!-- −6 -->
      <defs>
       <path d="M 10.59375 35.5 
L 73.1875 35.5 
L 73.1875 27.203125 
L 10.59375 27.203125 
z
" id="DejaVuSans-2212"/>
       <path d="M 33.015625 40.375 
Q 26.375 40.375 22.484375 35.828125 
Q 18.609375 31.296875 18.609375 23.390625 
Q 18.609375 15.53125 22.484375 10.953125 
Q 26.375 6.390625 33.015625 6.390625 
Q 39.65625 6.390625 43.53125 10.953125 
Q 47.40625 15.53125 47.40625 23.390625 
Q 47.40625 31.296875 43.53125 35.828125 
Q 39.65625 40.375 33.015625 40.375 
z
M 52.59375 71.296875 
L 52.59375 62.3125 
Q 48.875 64.0625 45.09375 64.984375 
Q 41.3125 65.921875 37.59375 65.921875 
Q 27.828125 65.921875 22.671875 59.328125 
Q 17.53125 52.734375 16.796875 39.40625 
Q 19.671875 43.65625 24.015625 45.921875 
Q 28.375 48.1875 33.59375 48.1875 
Q 44.578125 48.1875 50.953125 41.515625 
Q 57.328125 34.859375 57.328125 23.390625 
Q 57.328125 12.15625 50.6875 5.359375 
Q 44.046875 -1.421875 33.015625 -1.421875 
Q 20.359375 -1.421875 13.671875 8.265625 
Q 6.984375 17.96875 6.984375 36.375 
Q 6.984375 53.65625 15.1875 63.9375 
Q 23.390625 74.21875 37.203125 74.21875 
Q 40.921875 74.21875 44.703125 73.484375 
Q 48.484375 72.75 52.59375 71.296875 
z
" id="DejaVuSans-36"/>
      </defs>
      <g transform="translate(46.628906 273.230016)scale(0.1 -0.1)">
       <use xlink:href="#DejaVuSans-2212"/>
       <use x="83.789062" xlink:href="#DejaVuSans-36"/>
      </g>
     </g>
    </g>
    <g id="xtick_2">
     <g id="line2d_3">
      <path clip-path="url(#p19186eaa0c)" d="M 71.621053 258.631579 
L 71.621053 35.469474 
" style="fill:none;stroke:#b0b0b0;stroke-linecap:square;stroke-width:0.8;"/>
     </g>
     <g id="line2d_4">
      <g>
       <use style="stroke:#000000;stroke-width:0.8;" x="71.621053" xlink:href="#mb05679d3d2" y="258.631579"/>
      </g>
     </g>
     <g id="text_2">
      <!-- −5 -->
      <defs>
       <path d="M 10.796875 72.90625 
L 49.515625 72.90625 
L 49.515625 64.59375 
L 19.828125 64.59375 
L 19.828125 46.734375 
Q 21.96875 47.46875 24.109375 47.828125 
Q 26.265625 48.1875 28.421875 48.1875 
Q 40.625 48.1875 47.75 41.5 
Q 54.890625 34.8125 54.890625 23.390625 
Q 54.890625 11.625 47.5625 5.09375 
Q 40.234375 -1.421875 26.90625 -1.421875 
Q 22.3125 -1.421875 17.546875 -0.640625 
Q 12.796875 0.140625 7.71875 1.703125 
L 7.71875 11.625 
Q 12.109375 9.234375 16.796875 8.0625 
Q 21.484375 6.890625 26.703125 6.890625 
Q 35.15625 6.890625 40.078125 11.328125 
Q 45.015625 15.765625 45.015625 23.390625 
Q 45.015625 31 40.078125 35.4375 
Q 35.15625 39.890625 26.703125 39.890625 
Q 22.75 39.890625 18.8125 39.015625 
Q 14.890625 38.140625 10.796875 36.28125 
z
" id="DejaVuSans-35"/>
      </defs>
      <g transform="translate(64.249959 273.230016)scale(0.1 -0.1)">
       <use xlink:href="#DejaVuSans-2212"/>
       <use x="83.789062" xlink:href="#DejaVuSans-35"/>
      </g>
     </g>
    </g>
    <g id="xtick_3">
     <g id="line2d_5">
      <path clip-path="url(#p19186eaa0c)" d="M 89.242105 258.631579 
L 89.242105 35.469474 
" style="fill:none;stroke:#b0b0b0;stroke-linecap:square;stroke-width:0.8;"/>
     </g>
     <g id="line2d_6">
      <g>
       <use style="stroke:#000000;stroke-width:0.8;" x="89.242105" xlink:href="#mb05679d3d2" y="258.631579"/>
      </g>
     </g>
     <g id="text_3">
      <!-- −4 -->
      <defs>
       <path d="M 37.796875 64.3125 
L 12.890625 25.390625 
L 37.796875 25.390625 
z
M 35.203125 72.90625 
L 47.609375 72.90625 
L 47.609375 25.390625 
L 58.015625 25.390625 
L 58.015625 17.1875 
L 47.609375 17.1875 
L 47.609375 0 
L 37.796875 0 
L 37.796875 17.1875 
L 4.890625 17.1875 
L 4.890625 26.703125 
z
" id="DejaVuSans-34"/>
      </defs>
      <g transform="translate(81.871012 273.230016)scale(0.1 -0.1)">
       <use xlink:href="#DejaVuSans-2212"/>
       <use x="83.789062" xlink:href="#DejaVuSans-34"/>
      </g>
     </g>
    </g>
    <g id="xtick_4">
     <g id="line2d_7">
      <path clip-path="url(#p19186eaa0c)" d="M 106.863158 258.631579 
L 106.863158 35.469474 
" style="fill:none;stroke:#b0b0b0;stroke-linecap:square;stroke-width:0.8;"/>
     </g>
     <g id="line2d_8">
      <g>
       <use style="stroke:#000000;stroke-width:0.8;" x="106.863158" xlink:href="#mb05679d3d2" y="258.631579"/>
      </g>
     </g>
     <g id="text_4">
      <!-- −3 -->
      <defs>
       <path d="M 40.578125 39.3125 
Q 47.65625 37.796875 51.625 33 
Q 55.609375 28.21875 55.609375 21.1875 
Q 55.609375 10.40625 48.1875 4.484375 
Q 40.765625 -1.421875 27.09375 -1.421875 
Q 22.515625 -1.421875 17.65625 -0.515625 
Q 12.796875 0.390625 7.625 2.203125 
L 7.625 11.71875 
Q 11.71875 9.328125 16.59375 8.109375 
Q 21.484375 6.890625 26.8125 6.890625 
Q 36.078125 6.890625 40.9375 10.546875 
Q 45.796875 14.203125 45.796875 21.1875 
Q 45.796875 27.640625 41.28125 31.265625 
Q 36.765625 34.90625 28.71875 34.90625 
L 20.21875 34.90625 
L 20.21875 43.015625 
L 29.109375 43.015625 
Q 36.375 43.015625 40.234375 45.921875 
Q 44.09375 48.828125 44.09375 54.296875 
Q 44.09375 59.90625 40.109375 62.90625 
Q 36.140625 65.921875 28.71875 65.921875 
Q 24.65625 65.921875 20.015625 65.03125 
Q 15.375 64.15625 9.8125 62.3125 
L 9.8125 71.09375 
Q 15.4375 72.65625 20.34375 73.4375 
Q 25.25 74.21875 29.59375 74.21875 
Q 40.828125 74.21875 47.359375 69.109375 
Q 53.90625 64.015625 53.90625 55.328125 
Q 53.90625 49.265625 50.4375 45.09375 
Q 46.96875 40.921875 40.578125 39.3125 
z
" id="DejaVuSans-33"/>
      </defs>
      <g transform="translate(99.492064 273.230016)scale(0.1 -0.1)">
       <use xlink:href="#DejaVuSans-2212"/>
       <use x="83.789062" xlink:href="#DejaVuSans-33"/>
      </g>
     </g>
    </g>
    <g id="xtick_5">
     <g id="line2d_9">
      <path clip-path="url(#p19186eaa0c)" d="M 124.484211 258.631579 
L 124.484211 35.469474 
" style="fill:none;stroke:#b0b0b0;stroke-linecap:square;stroke-width:0.8;"/>
     </g>
     <g id="line2d_10">
      <g>
       <use style="stroke:#000000;stroke-width:0.8;" x="124.484211" xlink:href="#mb05679d3d2" y="258.631579"/>
      </g>
     </g>
     <g id="text_5">
      <!-- −2 -->
      <defs>
       <path d="M 19.1875 8.296875 
L 53.609375 8.296875 
L 53.609375 0 
L 7.328125 0 
L 7.328125 8.296875 
Q 12.9375 14.109375 22.625 23.890625 
Q 32.328125 33.6875 34.8125 36.53125 
Q 39.546875 41.84375 41.421875 45.53125 
Q 43.3125 49.21875 43.3125 52.78125 
Q 43.3125 58.59375 39.234375 62.25 
Q 35.15625 65.921875 28.609375 65.921875 
Q 23.96875 65.921875 18.8125 64.3125 
Q 13.671875 62.703125 7.8125 59.421875 
L 7.8125 69.390625 
Q 13.765625 71.78125 18.9375 73 
Q 24.125 74.21875 28.421875 74.21875 
Q 39.75 74.21875 46.484375 68.546875 
Q 53.21875 62.890625 53.21875 53.421875 
Q 53.21875 48.921875 51.53125 44.890625 
Q 49.859375 40.875 45.40625 35.40625 
Q 44.1875 33.984375 37.640625 27.21875 
Q 31.109375 20.453125 19.1875 8.296875 
z
" id="DejaVuSans-32"/>
      </defs>
      <g transform="translate(117.113117 273.230016)scale(0.1 -0.1)">
       <use xlink:href="#DejaVuSans-2212"/>
       <use x="83.789062" xlink:href="#DejaVuSans-32"/>
      </g>
     </g>
    </g>
    <g id="xtick_6">
     <g id="line2d_11">
      <path clip-path="url(#p19186eaa0c)" d="M 142.105263 258.631579 
L 142.105263 35.469474 
" style="fill:none;stroke:#b0b0b0;stroke-linecap:square;stroke-width:0.8;"/>
     </g>
     <g id="line2d_12">
      <g>
       <use style="stroke:#000000;stroke-width:0.8;" x="142.105263" xlink:href="#mb05679d3d2" y="258.631579"/>
      </g>
     </g>
     <g id="text_6">
      <!-- −1 -->
      <defs>
       <path d="M 12.40625 8.296875 
L 28.515625 8.296875 
L 28.515625 63.921875 
L 10.984375 60.40625 
L 10.984375 69.390625 
L 28.421875 72.90625 
L 38.28125 72.90625 
L 38.28125 8.296875 
L 54.390625 8.296875 
L 54.390625 0 
L 12.40625 0 
z
" id="DejaVuSans-31"/>
      </defs>
      <g transform="translate(134.734169 273.230016)scale(0.1 -0.1)">
       <use xlink:href="#DejaVuSans-2212"/>
       <use x="83.789062" xlink:href="#DejaVuSans-31"/>
      </g>
     </g>
    </g>
    <g id="xtick_7">
     <g id="line2d_13">
      <path clip-path="url(#p19186eaa0c)" d="M 159.726316 258.631579 
L 159.726316 35.469474 
" style="fill:none;stroke:#b0b0b0;stroke-linecap:square;stroke-width:0.8;"/>
     </g>
     <g id="line2d_14">
      <g>
       <use style="stroke:#000000;stroke-width:0.8;" x="159.726316" xlink:href="#mb05679d3d2" y="258.631579"/>
      </g>
     </g>
     <g id="text_7">
      <!-- 0 -->
      <defs>
       <path d="M 31.78125 66.40625 
Q 24.171875 66.40625 20.328125 58.90625 
Q 16.5 51.421875 16.5 36.375 
Q 16.5 21.390625 20.328125 13.890625 
Q 24.171875 6.390625 31.78125 6.390625 
Q 39.453125 6.390625 43.28125 13.890625 
Q 47.125 21.390625 47.125 36.375 
Q 47.125 51.421875 43.28125 58.90625 
Q 39.453125 66.40625 31.78125 66.40625 
z
M 31.78125 74.21875 
Q 44.046875 74.21875 50.515625 64.515625 
Q 56.984375 54.828125 56.984375 36.375 
Q 56.984375 17.96875 50.515625 8.265625 
Q 44.046875 -1.421875 31.78125 -1.421875 
Q 19.53125 -1.421875 13.0625 8.265625 
Q 6.59375 17.96875 6.59375 36.375 
Q 6.59375 54.828125 13.0625 64.515625 
Q 19.53125 74.21875 31.78125 74.21875 
z
" id="DejaVuSans-30"/>
      </defs>
      <g transform="translate(156.545066 273.230016)scale(0.1 -0.1)">
       <use xlink:href="#DejaVuSans-30"/>
      </g>
     </g>
    </g>
    <g id="xtick_8">
     <g id="line2d_15">
      <path clip-path="url(#p19186eaa0c)" d="M 177.347368 258.631579 
L 177.347368 35.469474 
" style="fill:none;stroke:#b0b0b0;stroke-linecap:square;stroke-width:0.8;"/>
     </g>
     <g id="line2d_16">
      <g>
       <use style="stroke:#000000;stroke-width:0.8;" x="177.347368" xlink:href="#mb05679d3d2" y="258.631579"/>
      </g>
     </g>
     <g id="text_8">
      <!-- 1 -->
      <g transform="translate(174.166118 273.230016)scale(0.1 -0.1)">
       <use xlink:href="#DejaVuSans-31"/>
      </g>
     </g>
    </g>
    <g id="xtick_9">
     <g id="line2d_17">
      <path clip-path="url(#p19186eaa0c)" d="M 194.968421 258.631579 
L 194.968421 35.469474 
" style="fill:none;stroke:#b0b0b0;stroke-linecap:square;stroke-width:0.8;"/>
     </g>
     <g id="line2d_18">
      <g>
       <use style="stroke:#000000;stroke-width:0.8;" x="194.968421" xlink:href="#mb05679d3d2" y="258.631579"/>
      </g>
     </g>
     <g id="text_9">
      <!-- 2 -->
      <g transform="translate(191.787171 273.230016)scale(0.1 -0.1)">
       <use xlink:href="#DejaVuSans-32"/>
      </g>
     </g>
    </g>
    <g id="xtick_10">
     <g id="line2d_19">
      <path clip-path="url(#p19186eaa0c)" d="M 212.589474 258.631579 
L 212.589474 35.469474 
" style="fill:none;stroke:#b0b0b0;stroke-linecap:square;stroke-width:0.8;"/>
     </g>
     <g id="line2d_20">
      <g>
       <use style="stroke:#000000;stroke-width:0.8;" x="212.589474" xlink:href="#mb05679d3d2" y="258.631579"/>
      </g>
     </g>
     <g id="text_10">
      <!-- 3 -->
      <g transform="translate(209.408224 273.230016)scale(0.1 -0.1)">
       <use xlink:href="#DejaVuSans-33"/>
      </g>
     </g>
    </g>
    <g id="xtick_11">
     <g id="line2d_21">
      <path clip-path="url(#p19186eaa0c)" d="M 230.210526 258.631579 
L 230.210526 35.469474 
" style="fill:none;stroke:#b0b0b0;stroke-linecap:square;stroke-width:0.8;"/>
     </g>
     <g id="line2d_22">
      <g>
       <use style="stroke:#000000;stroke-width:0.8;" x="230.210526" xlink:href="#mb05679d3d2" y="258.631579"/>
      </g>
     </g>
     <g id="text_11">
      <!-- 4 -->
      <g transform="translate(227.029276 273.230016)scale(0.1 -0.1)">
       <use xlink:href="#DejaVuSans-34"/>
      </g>
     </g>
    </g>
    <g id="xtick_12">
     <g id="line2d_23">
      <path clip-path="url(#p19186eaa0c)" d="M 247.831579 258.631579 
L 247.831579 35.469474 
" style="fill:none;stroke:#b0b0b0;stroke-linecap:square;stroke-width:0.8;"/>
     </g>
     <g id="line2d_24">
      <g>
       <use style="stroke:#000000;stroke-width:0.8;" x="247.831579" xlink:href="#mb05679d3d2" y="258.631579"/>
      </g>
     </g>
     <g id="text_12">
      <!-- 5 -->
      <g transform="translate(244.650329 273.230016)scale(0.1 -0.1)">
       <use xlink:href="#DejaVuSans-35"/>
      </g>
     </g>
    </g>
    <g id="xtick_13">
     <g id="line2d_25">
      <path clip-path="url(#p19186eaa0c)" d="M 265.452632 258.631579 
L 265.452632 35.469474 
" style="fill:none;stroke:#b0b0b0;stroke-linecap:square;stroke-width:0.8;"/>
     </g>
     <g id="line2d_26">
      <g>
       <use style="stroke:#000000;stroke-width:0.8;" x="265.452632" xlink:href="#mb05679d3d2" y="258.631579"/>
      </g>
     </g>
     <g id="text_13">
      <!-- 6 -->
      <g transform="translate(262.271382 273.230016)scale(0.1 -0.1)">
       <use xlink:href="#DejaVuSans-36"/>
      </g>
     </g>
    </g>
    <g id="xtick_14">
     <g id="line2d_27">
      <path clip-path="url(#p19186eaa0c)" d="M 283.073684 258.631579 
L 283.073684 35.469474 
" style="fill:none;stroke:#b0b0b0;stroke-linecap:square;stroke-width:0.8;"/>
     </g>
     <g id="line2d_28">
      <g>
       <use style="stroke:#000000;stroke-width:0.8;" x="283.073684" xlink:href="#mb05679d3d2" y="258.631579"/>
      </g>
     </g>
     <g id="text_14">
      <!-- 7 -->
      <defs>
       <path d="M 8.203125 72.90625 
L 55.078125 72.90625 
L 55.078125 68.703125 
L 28.609375 0 
L 18.3125 0 
L 43.21875 64.59375 
L 8.203125 64.59375 
z
" id="DejaVuSans-37"/>
      </defs>
      <g transform="translate(279.892434 273.230016)scale(0.1 -0.1)">
       <use xlink:href="#DejaVuSans-37"/>
      </g>
     </g>
    </g>
    <g id="xtick_15">
     <g id="line2d_29">
      <path clip-path="url(#p19186eaa0c)" d="M 300.694737 258.631579 
L 300.694737 35.469474 
" style="fill:none;stroke:#b0b0b0;stroke-linecap:square;stroke-width:0.8;"/>
     </g>
     <g id="line2d_30">
      <g>
       <use style="stroke:#000000;stroke-width:0.8;" x="300.694737" xlink:href="#mb05679d3d2" y="258.631579"/>
      </g>
     </g>
     <g id="text_15">
      <!-- 8 -->
      <defs>
       <path d="M 31.78125 34.625 
Q 24.75 34.625 20.71875 30.859375 
Q 16.703125 27.09375 16.703125 20.515625 
Q 16.703125 13.921875 20.71875 10.15625 
Q 24.75 6.390625 31.78125 6.390625 
Q 38.8125 6.390625 42.859375 10.171875 
Q 46.921875 13.96875 46.921875 20.515625 
Q 46.921875 27.09375 42.890625 30.859375 
Q 38.875 34.625 31.78125 34.625 
z
M 21.921875 38.8125 
Q 15.578125 40.375 12.03125 44.71875 
Q 8.5 49.078125 8.5 55.328125 
Q 8.5 64.0625 14.71875 69.140625 
Q 20.953125 74.21875 31.78125 74.21875 
Q 42.671875 74.21875 48.875 69.140625 
Q 55.078125 64.0625 55.078125 55.328125 
Q 55.078125 49.078125 51.53125 44.71875 
Q 48 40.375 41.703125 38.8125 
Q 48.828125 37.15625 52.796875 32.3125 
Q 56.78125 27.484375 56.78125 20.515625 
Q 56.78125 9.90625 50.3125 4.234375 
Q 43.84375 -1.421875 31.78125 -1.421875 
Q 19.734375 -1.421875 13.25 4.234375 
Q 6.78125 9.90625 6.78125 20.515625 
Q 6.78125 27.484375 10.78125 32.3125 
Q 14.796875 37.15625 21.921875 38.8125 
z
M 18.3125 54.390625 
Q 18.3125 48.734375 21.84375 45.5625 
Q 25.390625 42.390625 31.78125 42.390625 
Q 38.140625 42.390625 41.71875 45.5625 
Q 45.3125 48.734375 45.3125 54.390625 
Q 45.3125 60.0625 41.71875 63.234375 
Q 38.140625 66.40625 31.78125 66.40625 
Q 25.390625 66.40625 21.84375 63.234375 
Q 18.3125 60.0625 18.3125 54.390625 
z
" id="DejaVuSans-38"/>
      </defs>
      <g transform="translate(297.513487 273.230016)scale(0.1 -0.1)">
       <use xlink:href="#DejaVuSans-38"/>
      </g>
     </g>
    </g>
    <g id="xtick_16">
     <g id="line2d_31">
      <path clip-path="url(#p19186eaa0c)" d="M 318.315789 258.631579 
L 318.315789 35.469474 
" style="fill:none;stroke:#b0b0b0;stroke-linecap:square;stroke-width:0.8;"/>
     </g>
     <g id="line2d_32">
      <g>
       <use style="stroke:#000000;stroke-width:0.8;" x="318.315789" xlink:href="#mb05679d3d2" y="258.631579"/>
      </g>
     </g>
     <g id="text_16">
      <!-- 9 -->
      <defs>
       <path d="M 10.984375 1.515625 
L 10.984375 10.5 
Q 14.703125 8.734375 18.5 7.8125 
Q 22.3125 6.890625 25.984375 6.890625 
Q 35.75 6.890625 40.890625 13.453125 
Q 46.046875 20.015625 46.78125 33.40625 
Q 43.953125 29.203125 39.59375 26.953125 
Q 35.25 24.703125 29.984375 24.703125 
Q 19.046875 24.703125 12.671875 31.3125 
Q 6.296875 37.9375 6.296875 49.421875 
Q 6.296875 60.640625 12.9375 67.421875 
Q 19.578125 74.21875 30.609375 74.21875 
Q 43.265625 74.21875 49.921875 64.515625 
Q 56.59375 54.828125 56.59375 36.375 
Q 56.59375 19.140625 48.40625 8.859375 
Q 40.234375 -1.421875 26.421875 -1.421875 
Q 22.703125 -1.421875 18.890625 -0.6875 
Q 15.09375 0.046875 10.984375 1.515625 
z
M 30.609375 32.421875 
Q 37.25 32.421875 41.125 36.953125 
Q 45.015625 41.5 45.015625 49.421875 
Q 45.015625 57.28125 41.125 61.84375 
Q 37.25 66.40625 30.609375 66.40625 
Q 23.96875 66.40625 20.09375 61.84375 
Q 16.21875 57.28125 16.21875 49.421875 
Q 16.21875 41.5 20.09375 36.953125 
Q 23.96875 32.421875 30.609375 32.421875 
z
" id="DejaVuSans-39"/>
      </defs>
      <g transform="translate(315.134539 273.230016)scale(0.1 -0.1)">
       <use xlink:href="#DejaVuSans-39"/>
      </g>
     </g>
    </g>
    <g id="xtick_17">
     <g id="line2d_33">
      <path clip-path="url(#p19186eaa0c)" d="M 335.936842 258.631579 
L 335.936842 35.469474 
" style="fill:none;stroke:#b0b0b0;stroke-linecap:square;stroke-width:0.8;"/>
     </g>
     <g id="line2d_34">
      <g>
       <use style="stroke:#000000;stroke-width:0.8;" x="335.936842" xlink:href="#mb05679d3d2" y="258.631579"/>
      </g>
     </g>
     <g id="text_17">
      <!-- 10 -->
      <g transform="translate(329.574342 273.230016)scale(0.1 -0.1)">
       <use xlink:href="#DejaVuSans-31"/>
       <use x="63.623047" xlink:href="#DejaVuSans-30"/>
      </g>
     </g>
    </g>
    <g id="xtick_18">
     <g id="line2d_35">
      <path clip-path="url(#p19186eaa0c)" d="M 353.557895 258.631579 
L 353.557895 35.469474 
" style="fill:none;stroke:#b0b0b0;stroke-linecap:square;stroke-width:0.8;"/>
     </g>
     <g id="line2d_36">
      <g>
       <use style="stroke:#000000;stroke-width:0.8;" x="353.557895" xlink:href="#mb05679d3d2" y="258.631579"/>
      </g>
     </g>
     <g id="text_18">
      <!-- 11 -->
      <g transform="translate(347.195395 273.230016)scale(0.1 -0.1)">
       <use xlink:href="#DejaVuSans-31"/>
       <use x="63.623047" xlink:href="#DejaVuSans-31"/>
      </g>
     </g>
    </g>
    <g id="xtick_19">
     <g id="line2d_37">
      <path clip-path="url(#p19186eaa0c)" d="M 371.178947 258.631579 
L 371.178947 35.469474 
" style="fill:none;stroke:#b0b0b0;stroke-linecap:square;stroke-width:0.8;"/>
     </g>
     <g id="line2d_38">
      <g>
       <use style="stroke:#000000;stroke-width:0.8;" x="371.178947" xlink:href="#mb05679d3d2" y="258.631579"/>
      </g>
     </g>
     <g id="text_19">
      <!-- 12 -->
      <g transform="translate(364.816447 273.230016)scale(0.1 -0.1)">
       <use xlink:href="#DejaVuSans-31"/>
       <use x="63.623047" xlink:href="#DejaVuSans-32"/>
      </g>
     </g>
    </g>
   </g>
   <g id="matplotlib.axis_2">
    <g id="ytick_1">
     <g id="line2d_39">
      <path clip-path="url(#p19186eaa0c)" d="M 54 258.631579 
L 388.8 258.631579 
" style="fill:none;stroke:#b0b0b0;stroke-linecap:square;stroke-width:0.8;"/>
     </g>
     <g id="line2d_40">
      <defs>
       <path d="M 0 0 
L -3.5 0 
" id="m81ae8e5941" style="stroke:#000000;stroke-width:0.8;"/>
      </defs>
      <g>
       <use style="stroke:#000000;stroke-width:0.8;" x="54" xlink:href="#m81ae8e5941" y="258.631579"/>
      </g>
     </g>
     <g id="text_20">
      <!-- −5 -->
      <g transform="translate(32.257812 262.430798)scale(0.1 -0.1)">
       <use xlink:href="#DejaVuSans-2212"/>
       <use x="83.789062" xlink:href="#DejaVuSans-35"/>
      </g>
     </g>
    </g>
    <g id="ytick_2">
     <g id="line2d_41">
      <path clip-path="url(#p19186eaa0c)" d="M 54 241.465263 
L 388.8 241.465263 
" style="fill:none;stroke:#b0b0b0;stroke-linecap:square;stroke-width:0.8;"/>
     </g>
     <g id="line2d_42">
      <g>
       <use style="stroke:#000000;stroke-width:0.8;" x="54" xlink:href="#m81ae8e5941" y="241.465263"/>
      </g>
     </g>
     <g id="text_21">
      <!-- −4 -->
      <g transform="translate(32.257812 245.264482)scale(0.1 -0.1)">
       <use xlink:href="#DejaVuSans-2212"/>
       <use x="83.789062" xlink:href="#DejaVuSans-34"/>
      </g>
     </g>
    </g>
    <g id="ytick_3">
     <g id="line2d_43">
      <path clip-path="url(#p19186eaa0c)" d="M 54 224.298947 
L 388.8 224.298947 
" style="fill:none;stroke:#b0b0b0;stroke-linecap:square;stroke-width:0.8;"/>
     </g>
     <g id="line2d_44">
      <g>
       <use style="stroke:#000000;stroke-width:0.8;" x="54" xlink:href="#m81ae8e5941" y="224.298947"/>
      </g>
     </g>
     <g id="text_22">
      <!-- −3 -->
      <g transform="translate(32.257812 228.098166)scale(0.1 -0.1)">
       <use xlink:href="#DejaVuSans-2212"/>
       <use x="83.789062" xlink:href="#DejaVuSans-33"/>
      </g>
     </g>
    </g>
    <g id="ytick_4">
     <g id="line2d_45">
      <path clip-path="url(#p19186eaa0c)" d="M 54 207.132632 
L 388.8 207.132632 
" style="fill:none;stroke:#b0b0b0;stroke-linecap:square;stroke-width:0.8;"/>
     </g>
     <g id="line2d_46">
      <g>
       <use style="stroke:#000000;stroke-width:0.8;" x="54" xlink:href="#m81ae8e5941" y="207.132632"/>
      </g>
     </g>
     <g id="text_23">
      <!-- −2 -->
      <g transform="translate(32.257812 210.93185)scale(0.1 -0.1)">
       <use xlink:href="#DejaVuSans-2212"/>
       <use x="83.789062" xlink:href="#DejaVuSans-32"/>
      </g>
     </g>
    </g>
    <g id="ytick_5">
     <g id="line2d_47">
      <path clip-path="url(#p19186eaa0c)" d="M 54 189.966316 
L 388.8 189.966316 
" style="fill:none;stroke:#b0b0b0;stroke-linecap:square;stroke-width:0.8;"/>
     </g>
     <g id="line2d_48">
      <g>
       <use style="stroke:#000000;stroke-width:0.8;" x="54" xlink:href="#m81ae8e5941" y="189.966316"/>
      </g>
     </g>
     <g id="text_24">
      <!-- −1 -->
      <g transform="translate(32.257812 193.765535)scale(0.1 -0.1)">
       <use xlink:href="#DejaVuSans-2212"/>
       <use x="83.789062" xlink:href="#DejaVuSans-31"/>
      </g>
     </g>
    </g>
    <g id="ytick_6">
     <g id="line2d_49">
      <path clip-path="url(#p19186eaa0c)" d="M 54 172.8 
L 388.8 172.8 
" style="fill:none;stroke:#b0b0b0;stroke-linecap:square;stroke-width:0.8;"/>
     </g>
     <g id="line2d_50">
      <g>
       <use style="stroke:#000000;stroke-width:0.8;" x="54" xlink:href="#m81ae8e5941" y="172.8"/>
      </g>
     </g>
     <g id="text_25">
      <!-- 0 -->
      <g transform="translate(40.6375 176.599219)scale(0.1 -0.1)">
       <use xlink:href="#DejaVuSans-30"/>
      </g>
     </g>
    </g>
    <g id="ytick_7">
     <g id="line2d_51">
      <path clip-path="url(#p19186eaa0c)" d="M 54 155.633684 
L 388.8 155.633684 
" style="fill:none;stroke:#b0b0b0;stroke-linecap:square;stroke-width:0.8;"/>
     </g>
     <g id="line2d_52">
      <g>
       <use style="stroke:#000000;stroke-width:0.8;" x="54" xlink:href="#m81ae8e5941" y="155.633684"/>
      </g>
     </g>
     <g id="text_26">
      <!-- 1 -->
      <g transform="translate(40.6375 159.432903)scale(0.1 -0.1)">
       <use xlink:href="#DejaVuSans-31"/>
      </g>
     </g>
    </g>
    <g id="ytick_8">
     <g id="line2d_53">
      <path clip-path="url(#p19186eaa0c)" d="M 54 138.467368 
L 388.8 138.467368 
" style="fill:none;stroke:#b0b0b0;stroke-linecap:square;stroke-width:0.8;"/>
     </g>
     <g id="line2d_54">
      <g>
       <use style="stroke:#000000;stroke-width:0.8;" x="54" xlink:href="#m81ae8e5941" y="138.467368"/>
      </g>
     </g>
     <g id="text_27">
      <!-- 2 -->
      <g transform="translate(40.6375 142.266587)scale(0.1 -0.1)">
       <use xlink:href="#DejaVuSans-32"/>
      </g>
     </g>
    </g>
    <g id="ytick_9">
     <g id="line2d_55">
      <path clip-path="url(#p19186eaa0c)" d="M 54 121.301053 
L 388.8 121.301053 
" style="fill:none;stroke:#b0b0b0;stroke-linecap:square;stroke-width:0.8;"/>
     </g>
     <g id="line2d_56">
      <g>
       <use style="stroke:#000000;stroke-width:0.8;" x="54" xlink:href="#m81ae8e5941" y="121.301053"/>
      </g>
     </g>
     <g id="text_28">
      <!-- 3 -->
      <g transform="translate(40.6375 125.100271)scale(0.1 -0.1)">
       <use xlink:href="#DejaVuSans-33"/>
      </g>
     </g>
    </g>
    <g id="ytick_10">
     <g id="line2d_57">
      <path clip-path="url(#p19186eaa0c)" d="M 54 104.134737 
L 388.8 104.134737 
" style="fill:none;stroke:#b0b0b0;stroke-linecap:square;stroke-width:0.8;"/>
     </g>
     <g id="line2d_58">
      <g>
       <use style="stroke:#000000;stroke-width:0.8;" x="54" xlink:href="#m81ae8e5941" y="104.134737"/>
      </g>
     </g>
     <g id="text_29">
      <!-- 4 -->
      <g transform="translate(40.6375 107.933956)scale(0.1 -0.1)">
       <use xlink:href="#DejaVuSans-34"/>
      </g>
     </g>
    </g>
    <g id="ytick_11">
     <g id="line2d_59">
      <path clip-path="url(#p19186eaa0c)" d="M 54 86.968421 
L 388.8 86.968421 
" style="fill:none;stroke:#b0b0b0;stroke-linecap:square;stroke-width:0.8;"/>
     </g>
     <g id="line2d_60">
      <g>
       <use style="stroke:#000000;stroke-width:0.8;" x="54" xlink:href="#m81ae8e5941" y="86.968421"/>
      </g>
     </g>
     <g id="text_30">
      <!-- 5 -->
      <g transform="translate(40.6375 90.76764)scale(0.1 -0.1)">
       <use xlink:href="#DejaVuSans-35"/>
      </g>
     </g>
    </g>
    <g id="ytick_12">
     <g id="line2d_61">
      <path clip-path="url(#p19186eaa0c)" d="M 54 69.802105 
L 388.8 69.802105 
" style="fill:none;stroke:#b0b0b0;stroke-linecap:square;stroke-width:0.8;"/>
     </g>
     <g id="line2d_62">
      <g>
       <use style="stroke:#000000;stroke-width:0.8;" x="54" xlink:href="#m81ae8e5941" y="69.802105"/>
      </g>
     </g>
     <g id="text_31">
      <!-- 6 -->
      <g transform="translate(40.6375 73.601324)scale(0.1 -0.1)">
       <use xlink:href="#DejaVuSans-36"/>
      </g>
     </g>
    </g>
    <g id="ytick_13">
     <g id="line2d_63">
      <path clip-path="url(#p19186eaa0c)" d="M 54 52.635789 
L 388.8 52.635789 
" style="fill:none;stroke:#b0b0b0;stroke-linecap:square;stroke-width:0.8;"/>
     </g>
     <g id="line2d_64">
      <g>
       <use style="stroke:#000000;stroke-width:0.8;" x="54" xlink:href="#m81ae8e5941" y="52.635789"/>
      </g>
     </g>
     <g id="text_32">
      <!-- 7 -->
      <g transform="translate(40.6375 56.435008)scale(0.1 -0.1)">
       <use xlink:href="#DejaVuSans-37"/>
      </g>
     </g>
    </g>
   </g>
   <g id="PathCollection_1">
    <defs>
     <path d="M -3 3 
L 3 -3 
M -3 -3 
L 3 3 
" id="m4d086a4fc0" style="stroke:#000000;stroke-width:1.5;"/>
    </defs>
    <g clip-path="url(#p19186eaa0c)">
     <use style="stroke:#000000;stroke-width:1.5;" x="159.726316" xlink:href="#m4d086a4fc0" y="172.8"/>
    </g>
   </g>
   <g id="PathCollection_2">
    <defs>
     <path d="M 0 3 
C 0.795609 3 1.55874 2.683901 2.12132 2.12132 
C 2.683901 1.55874 3 0.795609 3 0 
C 3 -0.795609 2.683901 -1.55874 2.12132 -2.12132 
C 1.55874 -2.683901 0.795609 -3 0 -3 
C -0.795609 -3 -1.55874 -2.683901 -2.12132 -2.12132 
C -2.683901 -1.55874 -3 -0.795609 -3 0 
C -3 0.795609 -2.683901 1.55874 -2.12132 2.12132 
C -1.55874 2.683901 -0.795609 3 0 3 
z
" id="mb7308d3c94" style="stroke:#1f77b4;"/>
    </defs>
    <g clip-path="url(#p19186eaa0c)">
     <use style="fill:#1f77b4;stroke:#1f77b4;" x="265.452632" xlink:href="#mb7308d3c94" y="104.134737"/>
     <use style="fill:#1f77b4;stroke:#1f77b4;" x="212.589474" xlink:href="#mb7308d3c94" y="155.633684"/>
     <use style="fill:#1f77b4;stroke:#1f77b4;" x="177.347368" xlink:href="#mb7308d3c94" y="138.467368"/>
     <use style="fill:#1f77b4;stroke:#1f77b4;" x="142.105263" xlink:href="#mb7308d3c94" y="86.968421"/>
     <use style="fill:#1f77b4;stroke:#1f77b4;" x="124.484211" xlink:href="#mb7308d3c94" y="86.968421"/>
     <use style="fill:#1f77b4;stroke:#1f77b4;" x="106.863158" xlink:href="#mb7308d3c94" y="104.134737"/>
     <use style="fill:#1f77b4;stroke:#1f77b4;" x="89.242105" xlink:href="#mb7308d3c94" y="104.134737"/>
     <use style="fill:#1f77b4;stroke:#1f77b4;" x="71.621053" xlink:href="#mb7308d3c94" y="121.301053"/>
     <use style="fill:#1f77b4;stroke:#1f77b4;" x="71.621053" xlink:href="#mb7308d3c94" y="138.467368"/>
     <use style="fill:#1f77b4;stroke:#1f77b4;" x="124.484211" xlink:href="#mb7308d3c94" y="138.467368"/>
     <use style="fill:#1f77b4;stroke:#1f77b4;" x="71.621053" xlink:href="#mb7308d3c94" y="155.633684"/>
     <use style="fill:#1f77b4;stroke:#1f77b4;" x="89.242105" xlink:href="#mb7308d3c94" y="172.8"/>
     <use style="fill:#1f77b4;stroke:#1f77b4;" x="124.484211" xlink:href="#mb7308d3c94" y="155.633684"/>
     <use style="fill:#1f77b4;stroke:#1f77b4;" x="142.105263" xlink:href="#mb7308d3c94" y="172.8"/>
     <use style="fill:#1f77b4;stroke:#1f77b4;" x="159.726316" xlink:href="#mb7308d3c94" y="224.298947"/>
     <use style="fill:#1f77b4;stroke:#1f77b4;" x="142.105263" xlink:href="#mb7308d3c94" y="241.465263"/>
     <use style="fill:#1f77b4;stroke:#1f77b4;" x="177.347368" xlink:href="#mb7308d3c94" y="241.465263"/>
     <use style="fill:#1f77b4;stroke:#1f77b4;" x="194.968421" xlink:href="#mb7308d3c94" y="224.298947"/>
     <use style="fill:#1f77b4;stroke:#1f77b4;" x="177.347368" xlink:href="#mb7308d3c94" y="207.132632"/>
     <use style="fill:#1f77b4;stroke:#1f77b4;" x="212.589474" xlink:href="#mb7308d3c94" y="189.966316"/>
     <use style="fill:#1f77b4;stroke:#1f77b4;" x="247.831579" xlink:href="#mb7308d3c94" y="155.633684"/>
    </g>
   </g>
   <g id="PathCollection_3">
    <defs>
     <path d="M 0 3 
C 0.795609 3 1.55874 2.683901 2.12132 2.12132 
C 2.683901 1.55874 3 0.795609 3 0 
C 3 -0.795609 2.683901 -1.55874 2.12132 -2.12132 
C 1.55874 -2.683901 0.795609 -3 0 -3 
C -0.795609 -3 -1.55874 -2.683901 -2.12132 -2.12132 
C -2.683901 -1.55874 -3 -0.795609 -3 0 
C -3 0.795609 -2.683901 1.55874 -2.12132 2.12132 
C -1.55874 2.683901 -0.795609 3 0 3 
z
" id="me5273de5b0" style="stroke:#d62728;"/>
    </defs>
    <g clip-path="url(#p19186eaa0c)">
     <use style="fill:#d62728;stroke:#d62728;" x="371.178947" xlink:href="#me5273de5b0" y="69.802105"/>
     <use style="fill:#d62728;stroke:#d62728;" x="318.315789" xlink:href="#me5273de5b0" y="121.301053"/>
     <use style="fill:#d62728;stroke:#d62728;" x="283.073684" xlink:href="#me5273de5b0" y="104.134737"/>
     <use style="fill:#d62728;stroke:#d62728;" x="247.831579" xlink:href="#me5273de5b0" y="52.635789"/>
     <use style="fill:#d62728;stroke:#d62728;" x="230.210526" xlink:href="#me5273de5b0" y="52.635789"/>
     <use style="fill:#d62728;stroke:#d62728;" x="212.589474" xlink:href="#me5273de5b0" y="69.802105"/>
     <use style="fill:#d62728;stroke:#d62728;" x="194.968421" xlink:href="#me5273de5b0" y="69.802105"/>
     <use style="fill:#d62728;stroke:#d62728;" x="177.347368" xlink:href="#me5273de5b0" y="86.968421"/>
     <use style="fill:#d62728;stroke:#d62728;" x="177.347368" xlink:href="#me5273de5b0" y="104.134737"/>
     <use style="fill:#d62728;stroke:#d62728;" x="230.210526" xlink:href="#me5273de5b0" y="104.134737"/>
     <use style="fill:#d62728;stroke:#d62728;" x="177.347368" xlink:href="#me5273de5b0" y="121.301053"/>
     <use style="fill:#d62728;stroke:#d62728;" x="194.968421" xlink:href="#me5273de5b0" y="138.467368"/>
     <use style="fill:#d62728;stroke:#d62728;" x="230.210526" xlink:href="#me5273de5b0" y="121.301053"/>
     <use style="fill:#d62728;stroke:#d62728;" x="247.831579" xlink:href="#me5273de5b0" y="138.467368"/>
     <use style="fill:#d62728;stroke:#d62728;" x="265.452632" xlink:href="#me5273de5b0" y="189.966316"/>
     <use style="fill:#d62728;stroke:#d62728;" x="247.831579" xlink:href="#me5273de5b0" y="207.132632"/>
     <use style="fill:#d62728;stroke:#d62728;" x="283.073684" xlink:href="#me5273de5b0" y="207.132632"/>
     <use style="fill:#d62728;stroke:#d62728;" x="300.694737" xlink:href="#me5273de5b0" y="189.966316"/>
     <use style="fill:#d62728;stroke:#d62728;" x="283.073684" xlink:href="#me5273de5b0" y="172.8"/>
     <use style="fill:#d62728;stroke:#d62728;" x="318.315789" xlink:href="#me5273de5b0" y="155.633684"/>
     <use style="fill:#d62728;stroke:#d62728;" x="353.557895" xlink:href="#me5273de5b0" y="121.301053"/>
    </g>
   </g>
   <g id="line2d_65">
    <path clip-path="url(#p19186eaa0c)" d="M 54 172.8 
L 388.8 172.8 
" style="fill:none;stroke:#000000;stroke-linecap:square;stroke-width:2;"/>
   </g>
   <g id="line2d_66">
    <path clip-path="url(#p19186eaa0c)" d="M 159.726316 258.631579 
L 159.726316 35.469474 
" style="fill:none;stroke:#000000;stroke-linecap:square;stroke-width:2;"/>
   </g>
   <g id="line2d_67">
    <path clip-path="url(#p19186eaa0c)" d="M 265.452632 104.134737 
L 212.589474 155.633684 
" style="fill:none;stroke:#1f77b4;stroke-linecap:square;stroke-width:1.5;"/>
   </g>
   <g id="line2d_68">
    <path clip-path="url(#p19186eaa0c)" d="M 212.589474 155.633684 
L 177.347368 138.467368 
" style="fill:none;stroke:#1f77b4;stroke-linecap:square;stroke-width:1.5;"/>
   </g>
   <g id="line2d_69">
    <path clip-path="url(#p19186eaa0c)" d="M 177.347368 138.467368 
L 142.105263 86.968421 
" style="fill:none;stroke:#1f77b4;stroke-linecap:square;stroke-width:1.5;"/>
   </g>
   <g id="line2d_70">
    <path clip-path="url(#p19186eaa0c)" d="M 142.105263 86.968421 
L 124.484211 86.968421 
" style="fill:none;stroke:#1f77b4;stroke-linecap:square;stroke-width:1.5;"/>
   </g>
   <g id="line2d_71">
    <path clip-path="url(#p19186eaa0c)" d="M 124.484211 86.968421 
L 106.863158 104.134737 
" style="fill:none;stroke:#1f77b4;stroke-linecap:square;stroke-width:1.5;"/>
   </g>
   <g id="line2d_72">
    <path clip-path="url(#p19186eaa0c)" d="M 106.863158 104.134737 
L 89.242105 104.134737 
" style="fill:none;stroke:#1f77b4;stroke-linecap:square;stroke-width:1.5;"/>
   </g>
   <g id="line2d_73">
    <path clip-path="url(#p19186eaa0c)" d="M 89.242105 104.134737 
L 71.621053 121.301053 
" style="fill:none;stroke:#1f77b4;stroke-linecap:square;stroke-width:1.5;"/>
   </g>
   <g id="line2d_74">
    <path clip-path="url(#p19186eaa0c)" d="M 71.621053 121.301053 
L 71.621053 138.467368 
" style="fill:none;stroke:#1f77b4;stroke-linecap:square;stroke-width:1.5;"/>
   </g>
   <g id="line2d_75">
    <path clip-path="url(#p19186eaa0c)" d="M 71.621053 138.467368 
L 124.484211 138.467368 
" style="fill:none;stroke:#1f77b4;stroke-linecap:square;stroke-width:1.5;"/>
   </g>
   <g id="line2d_76">
    <path clip-path="url(#p19186eaa0c)" d="M 124.484211 138.467368 
L 71.621053 155.633684 
" style="fill:none;stroke:#1f77b4;stroke-linecap:square;stroke-width:1.5;"/>
   </g>
   <g id="line2d_77">
    <path clip-path="url(#p19186eaa0c)" d="M 71.621053 155.633684 
L 89.242105 172.8 
" style="fill:none;stroke:#1f77b4;stroke-linecap:square;stroke-width:1.5;"/>
   </g>
   <g id="line2d_78">
    <path clip-path="url(#p19186eaa0c)" d="M 89.242105 172.8 
L 124.484211 155.633684 
" style="fill:none;stroke:#1f77b4;stroke-linecap:square;stroke-width:1.5;"/>
   </g>
   <g id="line2d_79">
    <path clip-path="url(#p19186eaa0c)" d="M 124.484211 155.633684 
L 142.105263 172.8 
" style="fill:none;stroke:#1f77b4;stroke-linecap:square;stroke-width:1.5;"/>
   </g>
   <g id="line2d_80">
    <path clip-path="url(#p19186eaa0c)" d="M 142.105263 172.8 
L 159.726316 224.298947 
" style="fill:none;stroke:#1f77b4;stroke-linecap:square;stroke-width:1.5;"/>
   </g>
   <g id="line2d_81">
    <path clip-path="url(#p19186eaa0c)" d="M 159.726316 224.298947 
L 142.105263 241.465263 
" style="fill:none;stroke:#1f77b4;stroke-linecap:square;stroke-width:1.5;"/>
   </g>
   <g id="line2d_82">
    <path clip-path="url(#p19186eaa0c)" d="M 142.105263 241.465263 
L 177.347368 241.465263 
" style="fill:none;stroke:#1f77b4;stroke-linecap:square;stroke-width:1.5;"/>
   </g>
   <g id="line2d_83">
    <path clip-path="url(#p19186eaa0c)" d="M 177.347368 241.465263 
L 194.968421 224.298947 
" style="fill:none;stroke:#1f77b4;stroke-linecap:square;stroke-width:1.5;"/>
   </g>
   <g id="line2d_84">
    <path clip-path="url(#p19186eaa0c)" d="M 194.968421 224.298947 
L 177.347368 207.132632 
" style="fill:none;stroke:#1f77b4;stroke-linecap:square;stroke-width:1.5;"/>
   </g>
   <g id="line2d_85">
    <path clip-path="url(#p19186eaa0c)" d="M 177.347368 207.132632 
L 212.589474 189.966316 
" style="fill:none;stroke:#1f77b4;stroke-linecap:square;stroke-width:1.5;"/>
   </g>
   <g id="line2d_86">
    <path clip-path="url(#p19186eaa0c)" d="M 212.589474 189.966316 
L 247.831579 155.633684 
" style="fill:none;stroke:#1f77b4;stroke-linecap:square;stroke-width:1.5;"/>
   </g>
   <g id="line2d_87">
    <path clip-path="url(#p19186eaa0c)" d="M 247.831579 155.633684 
L 265.452632 104.134737 
" style="fill:none;stroke:#1f77b4;stroke-linecap:square;stroke-width:1.5;"/>
   </g>
   <g id="line2d_88">
    <path clip-path="url(#p19186eaa0c)" d="M 371.178947 69.802105 
L 318.315789 121.301053 
" style="fill:none;stroke:#d62728;stroke-linecap:square;stroke-width:1.5;"/>
   </g>
   <g id="line2d_89">
    <path clip-path="url(#p19186eaa0c)" d="M 318.315789 121.301053 
L 283.073684 104.134737 
" style="fill:none;stroke:#d62728;stroke-linecap:square;stroke-width:1.5;"/>
   </g>
   <g id="line2d_90">
    <path clip-path="url(#p19186eaa0c)" d="M 283.073684 104.134737 
L 247.831579 52.635789 
" style="fill:none;stroke:#d62728;stroke-linecap:square;stroke-width:1.5;"/>
   </g>
   <g id="line2d_91">
    <path clip-path="url(#p19186eaa0c)" d="M 247.831579 52.635789 
L 230.210526 52.635789 
" style="fill:none;stroke:#d62728;stroke-linecap:square;stroke-width:1.5;"/>
   </g>
   <g id="line2d_92">
    <path clip-path="url(#p19186eaa0c)" d="M 230.210526 52.635789 
L 212.589474 69.802105 
" style="fill:none;stroke:#d62728;stroke-linecap:square;stroke-width:1.5;"/>
   </g>
   <g id="line2d_93">
    <path clip-path="url(#p19186eaa0c)" d="M 212.589474 69.802105 
L 194.968421 69.802105 
" style="fill:none;stroke:#d62728;stroke-linecap:square;stroke-width:1.5;"/>
   </g>
   <g id="line2d_94">
    <path clip-path="url(#p19186eaa0c)" d="M 194.968421 69.802105 
L 177.347368 86.968421 
" style="fill:none;stroke:#d62728;stroke-linecap:square;stroke-width:1.5;"/>
   </g>
   <g id="line2d_95">
    <path clip-path="url(#p19186eaa0c)" d="M 177.347368 86.968421 
L 177.347368 104.134737 
" style="fill:none;stroke:#d62728;stroke-linecap:square;stroke-width:1.5;"/>
   </g>
   <g id="line2d_96">
    <path clip-path="url(#p19186eaa0c)" d="M 177.347368 104.134737 
L 230.210526 104.134737 
" style="fill:none;stroke:#d62728;stroke-linecap:square;stroke-width:1.5;"/>
   </g>
   <g id="line2d_97">
    <path clip-path="url(#p19186eaa0c)" d="M 230.210526 104.134737 
L 177.347368 121.301053 
" style="fill:none;stroke:#d62728;stroke-linecap:square;stroke-width:1.5;"/>
   </g>
   <g id="line2d_98">
    <path clip-path="url(#p19186eaa0c)" d="M 177.347368 121.301053 
L 194.968421 138.467368 
" style="fill:none;stroke:#d62728;stroke-linecap:square;stroke-width:1.5;"/>
   </g>
   <g id="line2d_99">
    <path clip-path="url(#p19186eaa0c)" d="M 194.968421 138.467368 
L 230.210526 121.301053 
" style="fill:none;stroke:#d62728;stroke-linecap:square;stroke-width:1.5;"/>
   </g>
   <g id="line2d_100">
    <path clip-path="url(#p19186eaa0c)" d="M 230.210526 121.301053 
L 247.831579 138.467368 
" style="fill:none;stroke:#d62728;stroke-linecap:square;stroke-width:1.5;"/>
   </g>
   <g id="line2d_101">
    <path clip-path="url(#p19186eaa0c)" d="M 247.831579 138.467368 
L 265.452632 189.966316 
" style="fill:none;stroke:#d62728;stroke-linecap:square;stroke-width:1.5;"/>
   </g>
   <g id="line2d_102">
    <path clip-path="url(#p19186eaa0c)" d="M 265.452632 189.966316 
L 247.831579 207.132632 
" style="fill:none;stroke:#d62728;stroke-linecap:square;stroke-width:1.5;"/>
   </g>
   <g id="line2d_103">
    <path clip-path="url(#p19186eaa0c)" d="M 247.831579 207.132632 
L 283.073684 207.132632 
" style="fill:none;stroke:#d62728;stroke-linecap:square;stroke-width:1.5;"/>
   </g>
   <g id="line2d_104">
    <path clip-path="url(#p19186eaa0c)" d="M 283.073684 207.132632 
L 300.694737 189.966316 
" style="fill:none;stroke:#d62728;stroke-linecap:square;stroke-width:1.5;"/>
   </g>
   <g id="line2d_105">
    <path clip-path="url(#p19186eaa0c)" d="M 300.694737 189.966316 
L 283.073684 172.8 
" style="fill:none;stroke:#d62728;stroke-linecap:square;stroke-width:1.5;"/>
   </g>
   <g id="line2d_106">
    <path clip-path="url(#p19186eaa0c)" d="M 283.073684 172.8 
L 318.315789 155.633684 
" style="fill:none;stroke:#d62728;stroke-linecap:square;stroke-width:1.5;"/>
   </g>
   <g id="line2d_107">
    <path clip-path="url(#p19186eaa0c)" d="M 318.315789 155.633684 
L 353.557895 121.301053 
" style="fill:none;stroke:#d62728;stroke-linecap:square;stroke-width:1.5;"/>
   </g>
   <g id="line2d_108">
    <path clip-path="url(#p19186eaa0c)" d="M 353.557895 121.301053 
L 371.178947 69.802105 
" style="fill:none;stroke:#d62728;stroke-linecap:square;stroke-width:1.5;"/>
   </g>
   <g id="patch_3">
    <path d="M 54 258.631579 
L 54 35.469474 
" style="fill:none;stroke:#000000;stroke-linecap:square;stroke-linejoin:miter;stroke-width:0.8;"/>
   </g>
   <g id="patch_4">
    <path d="M 388.8 258.631579 
L 388.8 35.469474 
" style="fill:none;stroke:#000000;stroke-linecap:square;stroke-linejoin:miter;stroke-width:0.8;"/>
   </g>
   <g id="patch_5">
    <path d="M 54 258.631579 
L 388.8 258.631579 
" style="fill:none;stroke:#000000;stroke-linecap:square;stroke-linejoin:miter;stroke-width:0.8;"/>
   </g>
   <g id="patch_6">
    <path d="M 54 35.469474 
L 388.8 35.469474 
" style="fill:none;stroke:#000000;stroke-linecap:square;stroke-linejoin:miter;stroke-width:0.8;"/>
   </g>
  </g>
 </g>
 <defs>
  <clipPath id="p19186eaa0c">
   <rect height="223.162105" width="334.8" x="54" y="35.469474"/>
  </clipPath>
 </defs>
</svg>
