<?xml version="1.0" encoding="utf-8" standalone="no"?>
<!DOCTYPE svg PUBLIC "-//W3C//DTD SVG 1.1//EN"
  "http://www.w3.org/Graphics/SVG/1.1/DTD/svg11.dtd">
<!-- Created with matplotlib (https://matplotlib.org/) -->
<svg height="288pt" version="1.1" viewBox="0 0 432 288" width="432pt" xmlns="http://www.w3.org/2000/svg" xmlns:xlink="http://www.w3.org/1999/xlink">
 <defs>
  <style type="text/css">
*{stroke-linecap:butt;stroke-linejoin:round;}
  </style>
 </defs>
 <g id="figure_1">
  <g id="patch_1">
   <path d="M 0 288 
L 432 288 
L 432 0 
L 0 0 
z
" style="fill:#ffffff;"/>
  </g>
  <g id="axes_1">
   <g id="patch_2">
    <path d="M 54 252 
L 388.8 252 
L 388.8 34.56 
L 54 34.56 
z
" style="fill:#ffffff;"/>
   </g>
   <g id="matplotlib.axis_1">
    <g id="xtick_1">
     <g id="line2d_1">
      <defs>
       <path d="M 0 0 
L 0 3.5 
" id="ma379fb9192" style="stroke:#000000;stroke-width:0.8;"/>
      </defs>
      <g>
       <use style="stroke:#000000;stroke-width:0.8;" x="69.218182" xlink:href="#ma379fb9192" y="252"/>
      </g>
     </g>
     <g id="text_1">
      <!-- 0 -->
      <defs>
       <path d="M 31.78125 66.40625 
Q 24.171875 66.40625 20.328125 58.90625 
Q 16.5 51.421875 16.5 36.375 
Q 16.5 21.390625 20.328125 13.890625 
Q 24.171875 6.390625 31.78125 6.390625 
Q 39.453125 6.390625 43.28125 13.890625 
Q 47.125 21.390625 47.125 36.375 
Q 47.125 51.421875 43.28125 58.90625 
Q 39.453125 66.40625 31.78125 66.40625 
z
M 31.78125 74.21875 
Q 44.046875 74.21875 50.515625 64.515625 
Q 56.984375 54.828125 56.984375 36.375 
Q 56.984375 17.96875 50.515625 8.265625 
Q 44.046875 -1.421875 31.78125 -1.421875 
Q 19.53125 -1.421875 13.0625 8.265625 
Q 6.59375 17.96875 6.59375 36.375 
Q 6.59375 54.828125 13.0625 64.515625 
Q 19.53125 74.21875 31.78125 74.21875 
z
" id="DejaVuSans-48"/>
      </defs>
      <g transform="translate(66.036932 266.598437)scale(0.1 -0.1)">
       <use xlink:href="#DejaVuSans-48"/>
      </g>
     </g>
    </g>
    <g id="xtick_2">
     <g id="line2d_2">
      <g>
       <use style="stroke:#000000;stroke-width:0.8;" x="130.090909" xlink:href="#ma379fb9192" y="252"/>
      </g>
     </g>
     <g id="text_2">
      <!-- 100 -->
      <defs>
       <path d="M 12.40625 8.296875 
L 28.515625 8.296875 
L 28.515625 63.921875 
L 10.984375 60.40625 
L 10.984375 69.390625 
L 28.421875 72.90625 
L 38.28125 72.90625 
L 38.28125 8.296875 
L 54.390625 8.296875 
L 54.390625 0 
L 12.40625 0 
z
" id="DejaVuSans-49"/>
      </defs>
      <g transform="translate(120.547159 266.598437)scale(0.1 -0.1)">
       <use xlink:href="#DejaVuSans-49"/>
       <use x="63.623047" xlink:href="#DejaVuSans-48"/>
       <use x="127.246094" xlink:href="#DejaVuSans-48"/>
      </g>
     </g>
    </g>
    <g id="xtick_3">
     <g id="line2d_3">
      <g>
       <use style="stroke:#000000;stroke-width:0.8;" x="190.963636" xlink:href="#ma379fb9192" y="252"/>
      </g>
     </g>
     <g id="text_3">
      <!-- 200 -->
      <defs>
       <path d="M 19.1875 8.296875 
L 53.609375 8.296875 
L 53.609375 0 
L 7.328125 0 
L 7.328125 8.296875 
Q 12.9375 14.109375 22.625 23.890625 
Q 32.328125 33.6875 34.8125 36.53125 
Q 39.546875 41.84375 41.421875 45.53125 
Q 43.3125 49.21875 43.3125 52.78125 
Q 43.3125 58.59375 39.234375 62.25 
Q 35.15625 65.921875 28.609375 65.921875 
Q 23.96875 65.921875 18.8125 64.3125 
Q 13.671875 62.703125 7.8125 59.421875 
L 7.8125 69.390625 
Q 13.765625 71.78125 18.9375 73 
Q 24.125 74.21875 28.421875 74.21875 
Q 39.75 74.21875 46.484375 68.546875 
Q 53.21875 62.890625 53.21875 53.421875 
Q 53.21875 48.921875 51.53125 44.890625 
Q 49.859375 40.875 45.40625 35.40625 
Q 44.1875 33.984375 37.640625 27.21875 
Q 31.109375 20.453125 19.1875 8.296875 
z
" id="DejaVuSans-50"/>
      </defs>
      <g transform="translate(181.419886 266.598437)scale(0.1 -0.1)">
       <use xlink:href="#DejaVuSans-50"/>
       <use x="63.623047" xlink:href="#DejaVuSans-48"/>
       <use x="127.246094" xlink:href="#DejaVuSans-48"/>
      </g>
     </g>
    </g>
    <g id="xtick_4">
     <g id="line2d_4">
      <g>
       <use style="stroke:#000000;stroke-width:0.8;" x="251.836364" xlink:href="#ma379fb9192" y="252"/>
      </g>
     </g>
     <g id="text_4">
      <!-- 300 -->
      <defs>
       <path d="M 40.578125 39.3125 
Q 47.65625 37.796875 51.625 33 
Q 55.609375 28.21875 55.609375 21.1875 
Q 55.609375 10.40625 48.1875 4.484375 
Q 40.765625 -1.421875 27.09375 -1.421875 
Q 22.515625 -1.421875 17.65625 -0.515625 
Q 12.796875 0.390625 7.625 2.203125 
L 7.625 11.71875 
Q 11.71875 9.328125 16.59375 8.109375 
Q 21.484375 6.890625 26.8125 6.890625 
Q 36.078125 6.890625 40.9375 10.546875 
Q 45.796875 14.203125 45.796875 21.1875 
Q 45.796875 27.640625 41.28125 31.265625 
Q 36.765625 34.90625 28.71875 34.90625 
L 20.21875 34.90625 
L 20.21875 43.015625 
L 29.109375 43.015625 
Q 36.375 43.015625 40.234375 45.921875 
Q 44.09375 48.828125 44.09375 54.296875 
Q 44.09375 59.90625 40.109375 62.90625 
Q 36.140625 65.921875 28.71875 65.921875 
Q 24.65625 65.921875 20.015625 65.03125 
Q 15.375 64.15625 9.8125 62.3125 
L 9.8125 71.09375 
Q 15.4375 72.65625 20.34375 73.4375 
Q 25.25 74.21875 29.59375 74.21875 
Q 40.828125 74.21875 47.359375 69.109375 
Q 53.90625 64.015625 53.90625 55.328125 
Q 53.90625 49.265625 50.4375 45.09375 
Q 46.96875 40.921875 40.578125 39.3125 
z
" id="DejaVuSans-51"/>
      </defs>
      <g transform="translate(242.292614 266.598437)scale(0.1 -0.1)">
       <use xlink:href="#DejaVuSans-51"/>
       <use x="63.623047" xlink:href="#DejaVuSans-48"/>
       <use x="127.246094" xlink:href="#DejaVuSans-48"/>
      </g>
     </g>
    </g>
    <g id="xtick_5">
     <g id="line2d_5">
      <g>
       <use style="stroke:#000000;stroke-width:0.8;" x="312.709091" xlink:href="#ma379fb9192" y="252"/>
      </g>
     </g>
     <g id="text_5">
      <!-- 400 -->
      <defs>
       <path d="M 37.796875 64.3125 
L 12.890625 25.390625 
L 37.796875 25.390625 
z
M 35.203125 72.90625 
L 47.609375 72.90625 
L 47.609375 25.390625 
L 58.015625 25.390625 
L 58.015625 17.1875 
L 47.609375 17.1875 
L 47.609375 0 
L 37.796875 0 
L 37.796875 17.1875 
L 4.890625 17.1875 
L 4.890625 26.703125 
z
" id="DejaVuSans-52"/>
      </defs>
      <g transform="translate(303.165341 266.598437)scale(0.1 -0.1)">
       <use xlink:href="#DejaVuSans-52"/>
       <use x="63.623047" xlink:href="#DejaVuSans-48"/>
       <use x="127.246094" xlink:href="#DejaVuSans-48"/>
      </g>
     </g>
    </g>
    <g id="xtick_6">
     <g id="line2d_6">
      <g>
       <use style="stroke:#000000;stroke-width:0.8;" x="373.581818" xlink:href="#ma379fb9192" y="252"/>
      </g>
     </g>
     <g id="text_6">
      <!-- 500 -->
      <defs>
       <path d="M 10.796875 72.90625 
L 49.515625 72.90625 
L 49.515625 64.59375 
L 19.828125 64.59375 
L 19.828125 46.734375 
Q 21.96875 47.46875 24.109375 47.828125 
Q 26.265625 48.1875 28.421875 48.1875 
Q 40.625 48.1875 47.75 41.5 
Q 54.890625 34.8125 54.890625 23.390625 
Q 54.890625 11.625 47.5625 5.09375 
Q 40.234375 -1.421875 26.90625 -1.421875 
Q 22.3125 -1.421875 17.546875 -0.640625 
Q 12.796875 0.140625 7.71875 1.703125 
L 7.71875 11.625 
Q 12.109375 9.234375 16.796875 8.0625 
Q 21.484375 6.890625 26.703125 6.890625 
Q 35.15625 6.890625 40.078125 11.328125 
Q 45.015625 15.765625 45.015625 23.390625 
Q 45.015625 31 40.078125 35.4375 
Q 35.15625 39.890625 26.703125 39.890625 
Q 22.75 39.890625 18.8125 39.015625 
Q 14.890625 38.140625 10.796875 36.28125 
z
" id="DejaVuSans-53"/>
      </defs>
      <g transform="translate(364.038068 266.598437)scale(0.1 -0.1)">
       <use xlink:href="#DejaVuSans-53"/>
       <use x="63.623047" xlink:href="#DejaVuSans-48"/>
       <use x="127.246094" xlink:href="#DejaVuSans-48"/>
      </g>
     </g>
    </g>
    <g id="text_7">
     <!-- Elapsed Time (min) -->
     <defs>
      <path d="M 9.8125 72.90625 
L 55.90625 72.90625 
L 55.90625 64.59375 
L 19.671875 64.59375 
L 19.671875 43.015625 
L 54.390625 43.015625 
L 54.390625 34.71875 
L 19.671875 34.71875 
L 19.671875 8.296875 
L 56.78125 8.296875 
L 56.78125 0 
L 9.8125 0 
z
" id="DejaVuSans-69"/>
      <path d="M 9.421875 75.984375 
L 18.40625 75.984375 
L 18.40625 0 
L 9.421875 0 
z
" id="DejaVuSans-108"/>
      <path d="M 34.28125 27.484375 
Q 23.390625 27.484375 19.1875 25 
Q 14.984375 22.515625 14.984375 16.5 
Q 14.984375 11.71875 18.140625 8.90625 
Q 21.296875 6.109375 26.703125 6.109375 
Q 34.1875 6.109375 38.703125 11.40625 
Q 43.21875 16.703125 43.21875 25.484375 
L 43.21875 27.484375 
z
M 52.203125 31.203125 
L 52.203125 0 
L 43.21875 0 
L 43.21875 8.296875 
Q 40.140625 3.328125 35.546875 0.953125 
Q 30.953125 -1.421875 24.3125 -1.421875 
Q 15.921875 -1.421875 10.953125 3.296875 
Q 6 8.015625 6 15.921875 
Q 6 25.140625 12.171875 29.828125 
Q 18.359375 34.515625 30.609375 34.515625 
L 43.21875 34.515625 
L 43.21875 35.40625 
Q 43.21875 41.609375 39.140625 45 
Q 35.0625 48.390625 27.6875 48.390625 
Q 23 48.390625 18.546875 47.265625 
Q 14.109375 46.140625 10.015625 43.890625 
L 10.015625 52.203125 
Q 14.9375 54.109375 19.578125 55.046875 
Q 24.21875 56 28.609375 56 
Q 40.484375 56 46.34375 49.84375 
Q 52.203125 43.703125 52.203125 31.203125 
z
" id="DejaVuSans-97"/>
      <path d="M 18.109375 8.203125 
L 18.109375 -20.796875 
L 9.078125 -20.796875 
L 9.078125 54.6875 
L 18.109375 54.6875 
L 18.109375 46.390625 
Q 20.953125 51.265625 25.265625 53.625 
Q 29.59375 56 35.59375 56 
Q 45.5625 56 51.78125 48.09375 
Q 58.015625 40.1875 58.015625 27.296875 
Q 58.015625 14.40625 51.78125 6.484375 
Q 45.5625 -1.421875 35.59375 -1.421875 
Q 29.59375 -1.421875 25.265625 0.953125 
Q 20.953125 3.328125 18.109375 8.203125 
z
M 48.6875 27.296875 
Q 48.6875 37.203125 44.609375 42.84375 
Q 40.53125 48.484375 33.40625 48.484375 
Q 26.265625 48.484375 22.1875 42.84375 
Q 18.109375 37.203125 18.109375 27.296875 
Q 18.109375 17.390625 22.1875 11.75 
Q 26.265625 6.109375 33.40625 6.109375 
Q 40.53125 6.109375 44.609375 11.75 
Q 48.6875 17.390625 48.6875 27.296875 
z
" id="DejaVuSans-112"/>
      <path d="M 44.28125 53.078125 
L 44.28125 44.578125 
Q 40.484375 46.53125 36.375 47.5 
Q 32.28125 48.484375 27.875 48.484375 
Q 21.1875 48.484375 17.84375 46.4375 
Q 14.5 44.390625 14.5 40.28125 
Q 14.5 37.15625 16.890625 35.375 
Q 19.28125 33.59375 26.515625 31.984375 
L 29.59375 31.296875 
Q 39.15625 29.25 43.1875 25.515625 
Q 47.21875 21.78125 47.21875 15.09375 
Q 47.21875 7.46875 41.1875 3.015625 
Q 35.15625 -1.421875 24.609375 -1.421875 
Q 20.21875 -1.421875 15.453125 -0.5625 
Q 10.6875 0.296875 5.421875 2 
L 5.421875 11.28125 
Q 10.40625 8.6875 15.234375 7.390625 
Q 20.0625 6.109375 24.8125 6.109375 
Q 31.15625 6.109375 34.5625 8.28125 
Q 37.984375 10.453125 37.984375 14.40625 
Q 37.984375 18.0625 35.515625 20.015625 
Q 33.0625 21.96875 24.703125 23.78125 
L 21.578125 24.515625 
Q 13.234375 26.265625 9.515625 29.90625 
Q 5.8125 33.546875 5.8125 39.890625 
Q 5.8125 47.609375 11.28125 51.796875 
Q 16.75 56 26.8125 56 
Q 31.78125 56 36.171875 55.265625 
Q 40.578125 54.546875 44.28125 53.078125 
z
" id="DejaVuSans-115"/>
      <path d="M 56.203125 29.59375 
L 56.203125 25.203125 
L 14.890625 25.203125 
Q 15.484375 15.921875 20.484375 11.0625 
Q 25.484375 6.203125 34.421875 6.203125 
Q 39.59375 6.203125 44.453125 7.46875 
Q 49.3125 8.734375 54.109375 11.28125 
L 54.109375 2.78125 
Q 49.265625 0.734375 44.1875 -0.34375 
Q 39.109375 -1.421875 33.890625 -1.421875 
Q 20.796875 -1.421875 13.15625 6.1875 
Q 5.515625 13.8125 5.515625 26.8125 
Q 5.515625 40.234375 12.765625 48.109375 
Q 20.015625 56 32.328125 56 
Q 43.359375 56 49.78125 48.890625 
Q 56.203125 41.796875 56.203125 29.59375 
z
M 47.21875 32.234375 
Q 47.125 39.59375 43.09375 43.984375 
Q 39.0625 48.390625 32.421875 48.390625 
Q 24.90625 48.390625 20.390625 44.140625 
Q 15.875 39.890625 15.1875 32.171875 
z
" id="DejaVuSans-101"/>
      <path d="M 45.40625 46.390625 
L 45.40625 75.984375 
L 54.390625 75.984375 
L 54.390625 0 
L 45.40625 0 
L 45.40625 8.203125 
Q 42.578125 3.328125 38.25 0.953125 
Q 33.9375 -1.421875 27.875 -1.421875 
Q 17.96875 -1.421875 11.734375 6.484375 
Q 5.515625 14.40625 5.515625 27.296875 
Q 5.515625 40.1875 11.734375 48.09375 
Q 17.96875 56 27.875 56 
Q 33.9375 56 38.25 53.625 
Q 42.578125 51.265625 45.40625 46.390625 
z
M 14.796875 27.296875 
Q 14.796875 17.390625 18.875 11.75 
Q 22.953125 6.109375 30.078125 6.109375 
Q 37.203125 6.109375 41.296875 11.75 
Q 45.40625 17.390625 45.40625 27.296875 
Q 45.40625 37.203125 41.296875 42.84375 
Q 37.203125 48.484375 30.078125 48.484375 
Q 22.953125 48.484375 18.875 42.84375 
Q 14.796875 37.203125 14.796875 27.296875 
z
" id="DejaVuSans-100"/>
      <path id="DejaVuSans-32"/>
      <path d="M -0.296875 72.90625 
L 61.375 72.90625 
L 61.375 64.59375 
L 35.5 64.59375 
L 35.5 0 
L 25.59375 0 
L 25.59375 64.59375 
L -0.296875 64.59375 
z
" id="DejaVuSans-84"/>
      <path d="M 9.421875 54.6875 
L 18.40625 54.6875 
L 18.40625 0 
L 9.421875 0 
z
M 9.421875 75.984375 
L 18.40625 75.984375 
L 18.40625 64.59375 
L 9.421875 64.59375 
z
" id="DejaVuSans-105"/>
      <path d="M 52 44.1875 
Q 55.375 50.25 60.0625 53.125 
Q 64.75 56 71.09375 56 
Q 79.640625 56 84.28125 50.015625 
Q 88.921875 44.046875 88.921875 33.015625 
L 88.921875 0 
L 79.890625 0 
L 79.890625 32.71875 
Q 79.890625 40.578125 77.09375 44.375 
Q 74.3125 48.1875 68.609375 48.1875 
Q 61.625 48.1875 57.5625 43.546875 
Q 53.515625 38.921875 53.515625 30.90625 
L 53.515625 0 
L 44.484375 0 
L 44.484375 32.71875 
Q 44.484375 40.625 41.703125 44.40625 
Q 38.921875 48.1875 33.109375 48.1875 
Q 26.21875 48.1875 22.15625 43.53125 
Q 18.109375 38.875 18.109375 30.90625 
L 18.109375 0 
L 9.078125 0 
L 9.078125 54.6875 
L 18.109375 54.6875 
L 18.109375 46.1875 
Q 21.1875 51.21875 25.484375 53.609375 
Q 29.78125 56 35.6875 56 
Q 41.65625 56 45.828125 52.96875 
Q 50 49.953125 52 44.1875 
z
" id="DejaVuSans-109"/>
      <path d="M 31 75.875 
Q 24.46875 64.65625 21.28125 53.65625 
Q 18.109375 42.671875 18.109375 31.390625 
Q 18.109375 20.125 21.3125 9.0625 
Q 24.515625 -2 31 -13.1875 
L 23.1875 -13.1875 
Q 15.875 -1.703125 12.234375 9.375 
Q 8.59375 20.453125 8.59375 31.390625 
Q 8.59375 42.28125 12.203125 53.3125 
Q 15.828125 64.359375 23.1875 75.875 
z
" id="DejaVuSans-40"/>
      <path d="M 54.890625 33.015625 
L 54.890625 0 
L 45.90625 0 
L 45.90625 32.71875 
Q 45.90625 40.484375 42.875 44.328125 
Q 39.84375 48.1875 33.796875 48.1875 
Q 26.515625 48.1875 22.3125 43.546875 
Q 18.109375 38.921875 18.109375 30.90625 
L 18.109375 0 
L 9.078125 0 
L 9.078125 54.6875 
L 18.109375 54.6875 
L 18.109375 46.1875 
Q 21.34375 51.125 25.703125 53.5625 
Q 30.078125 56 35.796875 56 
Q 45.21875 56 50.046875 50.171875 
Q 54.890625 44.34375 54.890625 33.015625 
z
" id="DejaVuSans-110"/>
      <path d="M 8.015625 75.875 
L 15.828125 75.875 
Q 23.140625 64.359375 26.78125 53.3125 
Q 30.421875 42.28125 30.421875 31.390625 
Q 30.421875 20.453125 26.78125 9.375 
Q 23.140625 -1.703125 15.828125 -13.1875 
L 8.015625 -13.1875 
Q 14.5 -2 17.703125 9.0625 
Q 20.90625 20.125 20.90625 31.390625 
Q 20.90625 42.671875 17.703125 53.65625 
Q 14.5 64.65625 8.015625 75.875 
z
" id="DejaVuSans-41"/>
     </defs>
     <g transform="translate(172.8625 280.276563)scale(0.1 -0.1)">
      <use xlink:href="#DejaVuSans-69"/>
      <use x="63.183594" xlink:href="#DejaVuSans-108"/>
      <use x="90.966797" xlink:href="#DejaVuSans-97"/>
      <use x="152.246094" xlink:href="#DejaVuSans-112"/>
      <use x="215.722656" xlink:href="#DejaVuSans-115"/>
      <use x="267.822266" xlink:href="#DejaVuSans-101"/>
      <use x="329.345703" xlink:href="#DejaVuSans-100"/>
      <use x="392.822266" xlink:href="#DejaVuSans-32"/>
      <use x="424.609375" xlink:href="#DejaVuSans-84"/>
      <use x="485.646484" xlink:href="#DejaVuSans-105"/>
      <use x="513.429688" xlink:href="#DejaVuSans-109"/>
      <use x="610.841797" xlink:href="#DejaVuSans-101"/>
      <use x="672.365234" xlink:href="#DejaVuSans-32"/>
      <use x="704.152344" xlink:href="#DejaVuSans-40"/>
      <use x="743.166016" xlink:href="#DejaVuSans-109"/>
      <use x="840.578125" xlink:href="#DejaVuSans-105"/>
      <use x="868.361328" xlink:href="#DejaVuSans-110"/>
      <use x="931.740234" xlink:href="#DejaVuSans-41"/>
     </g>
    </g>
   </g>
   <g id="matplotlib.axis_2">
    <g id="ytick_1">
     <g id="line2d_7">
      <defs>
       <path d="M 0 0 
L -3.5 0 
" id="m51db1fc97e" style="stroke:#000000;stroke-width:0.8;"/>
      </defs>
      <g>
       <use style="stroke:#000000;stroke-width:0.8;" x="54" xlink:href="#m51db1fc97e" y="247.194146"/>
      </g>
     </g>
     <g id="text_8">
      <!-- 22 -->
      <g transform="translate(34.275 250.993364)scale(0.1 -0.1)">
       <use xlink:href="#DejaVuSans-50"/>
       <use x="63.623047" xlink:href="#DejaVuSans-50"/>
      </g>
     </g>
    </g>
    <g id="ytick_2">
     <g id="line2d_8">
      <g>
       <use style="stroke:#000000;stroke-width:0.8;" x="54" xlink:href="#m51db1fc97e" y="221.558442"/>
      </g>
     </g>
     <g id="text_9">
      <!-- 24 -->
      <g transform="translate(34.275 225.357661)scale(0.1 -0.1)">
       <use xlink:href="#DejaVuSans-50"/>
       <use x="63.623047" xlink:href="#DejaVuSans-52"/>
      </g>
     </g>
    </g>
    <g id="ytick_3">
     <g id="line2d_9">
      <g>
       <use style="stroke:#000000;stroke-width:0.8;" x="54" xlink:href="#m51db1fc97e" y="195.922738"/>
      </g>
     </g>
     <g id="text_10">
      <!-- 26 -->
      <defs>
       <path d="M 33.015625 40.375 
Q 26.375 40.375 22.484375 35.828125 
Q 18.609375 31.296875 18.609375 23.390625 
Q 18.609375 15.53125 22.484375 10.953125 
Q 26.375 6.390625 33.015625 6.390625 
Q 39.65625 6.390625 43.53125 10.953125 
Q 47.40625 15.53125 47.40625 23.390625 
Q 47.40625 31.296875 43.53125 35.828125 
Q 39.65625 40.375 33.015625 40.375 
z
M 52.59375 71.296875 
L 52.59375 62.3125 
Q 48.875 64.0625 45.09375 64.984375 
Q 41.3125 65.921875 37.59375 65.921875 
Q 27.828125 65.921875 22.671875 59.328125 
Q 17.53125 52.734375 16.796875 39.40625 
Q 19.671875 43.65625 24.015625 45.921875 
Q 28.375 48.1875 33.59375 48.1875 
Q 44.578125 48.1875 50.953125 41.515625 
Q 57.328125 34.859375 57.328125 23.390625 
Q 57.328125 12.15625 50.6875 5.359375 
Q 44.046875 -1.421875 33.015625 -1.421875 
Q 20.359375 -1.421875 13.671875 8.265625 
Q 6.984375 17.96875 6.984375 36.375 
Q 6.984375 53.65625 15.1875 63.9375 
Q 23.390625 74.21875 37.203125 74.21875 
Q 40.921875 74.21875 44.703125 73.484375 
Q 48.484375 72.75 52.59375 71.296875 
z
" id="DejaVuSans-54"/>
      </defs>
      <g transform="translate(34.275 199.721957)scale(0.1 -0.1)">
       <use xlink:href="#DejaVuSans-50"/>
       <use x="63.623047" xlink:href="#DejaVuSans-54"/>
      </g>
     </g>
    </g>
    <g id="ytick_4">
     <g id="line2d_10">
      <g>
       <use style="stroke:#000000;stroke-width:0.8;" x="54" xlink:href="#m51db1fc97e" y="170.287035"/>
      </g>
     </g>
     <g id="text_11">
      <!-- 28 -->
      <defs>
       <path d="M 31.78125 34.625 
Q 24.75 34.625 20.71875 30.859375 
Q 16.703125 27.09375 16.703125 20.515625 
Q 16.703125 13.921875 20.71875 10.15625 
Q 24.75 6.390625 31.78125 6.390625 
Q 38.8125 6.390625 42.859375 10.171875 
Q 46.921875 13.96875 46.921875 20.515625 
Q 46.921875 27.09375 42.890625 30.859375 
Q 38.875 34.625 31.78125 34.625 
z
M 21.921875 38.8125 
Q 15.578125 40.375 12.03125 44.71875 
Q 8.5 49.078125 8.5 55.328125 
Q 8.5 64.0625 14.71875 69.140625 
Q 20.953125 74.21875 31.78125 74.21875 
Q 42.671875 74.21875 48.875 69.140625 
Q 55.078125 64.0625 55.078125 55.328125 
Q 55.078125 49.078125 51.53125 44.71875 
Q 48 40.375 41.703125 38.8125 
Q 48.828125 37.15625 52.796875 32.3125 
Q 56.78125 27.484375 56.78125 20.515625 
Q 56.78125 9.90625 50.3125 4.234375 
Q 43.84375 -1.421875 31.78125 -1.421875 
Q 19.734375 -1.421875 13.25 4.234375 
Q 6.78125 9.90625 6.78125 20.515625 
Q 6.78125 27.484375 10.78125 32.3125 
Q 14.796875 37.15625 21.921875 38.8125 
z
M 18.3125 54.390625 
Q 18.3125 48.734375 21.84375 45.5625 
Q 25.390625 42.390625 31.78125 42.390625 
Q 38.140625 42.390625 41.71875 45.5625 
Q 45.3125 48.734375 45.3125 54.390625 
Q 45.3125 60.0625 41.71875 63.234375 
Q 38.140625 66.40625 31.78125 66.40625 
Q 25.390625 66.40625 21.84375 63.234375 
Q 18.3125 60.0625 18.3125 54.390625 
z
" id="DejaVuSans-56"/>
      </defs>
      <g transform="translate(34.275 174.086254)scale(0.1 -0.1)">
       <use xlink:href="#DejaVuSans-50"/>
       <use x="63.623047" xlink:href="#DejaVuSans-56"/>
      </g>
     </g>
    </g>
    <g id="ytick_5">
     <g id="line2d_11">
      <g>
       <use style="stroke:#000000;stroke-width:0.8;" x="54" xlink:href="#m51db1fc97e" y="144.651331"/>
      </g>
     </g>
     <g id="text_12">
      <!-- 30 -->
      <g transform="translate(34.275 148.45055)scale(0.1 -0.1)">
       <use xlink:href="#DejaVuSans-51"/>
       <use x="63.623047" xlink:href="#DejaVuSans-48"/>
      </g>
     </g>
    </g>
    <g id="ytick_6">
     <g id="line2d_12">
      <g>
       <use style="stroke:#000000;stroke-width:0.8;" x="54" xlink:href="#m51db1fc97e" y="119.015628"/>
      </g>
     </g>
     <g id="text_13">
      <!-- 32 -->
      <g transform="translate(34.275 122.814846)scale(0.1 -0.1)">
       <use xlink:href="#DejaVuSans-51"/>
       <use x="63.623047" xlink:href="#DejaVuSans-50"/>
      </g>
     </g>
    </g>
    <g id="ytick_7">
     <g id="line2d_13">
      <g>
       <use style="stroke:#000000;stroke-width:0.8;" x="54" xlink:href="#m51db1fc97e" y="93.379924"/>
      </g>
     </g>
     <g id="text_14">
      <!-- 34 -->
      <g transform="translate(34.275 97.179143)scale(0.1 -0.1)">
       <use xlink:href="#DejaVuSans-51"/>
       <use x="63.623047" xlink:href="#DejaVuSans-52"/>
      </g>
     </g>
    </g>
    <g id="ytick_8">
     <g id="line2d_14">
      <g>
       <use style="stroke:#000000;stroke-width:0.8;" x="54" xlink:href="#m51db1fc97e" y="67.74422"/>
      </g>
     </g>
     <g id="text_15">
      <!-- 36 -->
      <g transform="translate(34.275 71.543439)scale(0.1 -0.1)">
       <use xlink:href="#DejaVuSans-51"/>
       <use x="63.623047" xlink:href="#DejaVuSans-54"/>
      </g>
     </g>
    </g>
    <g id="ytick_9">
     <g id="line2d_15">
      <g>
       <use style="stroke:#000000;stroke-width:0.8;" x="54" xlink:href="#m51db1fc97e" y="42.108517"/>
      </g>
     </g>
     <g id="text_16">
      <!-- 38 -->
      <g transform="translate(34.275 45.907736)scale(0.1 -0.1)">
       <use xlink:href="#DejaVuSans-51"/>
       <use x="63.623047" xlink:href="#DejaVuSans-56"/>
      </g>
     </g>
    </g>
    <g id="text_17">
     <!-- Stock Price ($) -->
     <defs>
      <path d="M 53.515625 70.515625 
L 53.515625 60.890625 
Q 47.90625 63.578125 42.921875 64.890625 
Q 37.9375 66.21875 33.296875 66.21875 
Q 25.25 66.21875 20.875 63.09375 
Q 16.5 59.96875 16.5 54.203125 
Q 16.5 49.359375 19.40625 46.890625 
Q 22.3125 44.4375 30.421875 42.921875 
L 36.375 41.703125 
Q 47.40625 39.59375 52.65625 34.296875 
Q 57.90625 29 57.90625 20.125 
Q 57.90625 9.515625 50.796875 4.046875 
Q 43.703125 -1.421875 29.984375 -1.421875 
Q 24.8125 -1.421875 18.96875 -0.25 
Q 13.140625 0.921875 6.890625 3.21875 
L 6.890625 13.375 
Q 12.890625 10.015625 18.65625 8.296875 
Q 24.421875 6.59375 29.984375 6.59375 
Q 38.421875 6.59375 43.015625 9.90625 
Q 47.609375 13.234375 47.609375 19.390625 
Q 47.609375 24.75 44.3125 27.78125 
Q 41.015625 30.8125 33.5 32.328125 
L 27.484375 33.5 
Q 16.453125 35.6875 11.515625 40.375 
Q 6.59375 45.0625 6.59375 53.421875 
Q 6.59375 63.09375 13.40625 68.65625 
Q 20.21875 74.21875 32.171875 74.21875 
Q 37.3125 74.21875 42.625 73.28125 
Q 47.953125 72.359375 53.515625 70.515625 
z
" id="DejaVuSans-83"/>
      <path d="M 18.3125 70.21875 
L 18.3125 54.6875 
L 36.8125 54.6875 
L 36.8125 47.703125 
L 18.3125 47.703125 
L 18.3125 18.015625 
Q 18.3125 11.328125 20.140625 9.421875 
Q 21.96875 7.515625 27.59375 7.515625 
L 36.8125 7.515625 
L 36.8125 0 
L 27.59375 0 
Q 17.1875 0 13.234375 3.875 
Q 9.28125 7.765625 9.28125 18.015625 
L 9.28125 47.703125 
L 2.6875 47.703125 
L 2.6875 54.6875 
L 9.28125 54.6875 
L 9.28125 70.21875 
z
" id="DejaVuSans-116"/>
      <path d="M 30.609375 48.390625 
Q 23.390625 48.390625 19.1875 42.75 
Q 14.984375 37.109375 14.984375 27.296875 
Q 14.984375 17.484375 19.15625 11.84375 
Q 23.34375 6.203125 30.609375 6.203125 
Q 37.796875 6.203125 41.984375 11.859375 
Q 46.1875 17.53125 46.1875 27.296875 
Q 46.1875 37.015625 41.984375 42.703125 
Q 37.796875 48.390625 30.609375 48.390625 
z
M 30.609375 56 
Q 42.328125 56 49.015625 48.375 
Q 55.71875 40.765625 55.71875 27.296875 
Q 55.71875 13.875 49.015625 6.21875 
Q 42.328125 -1.421875 30.609375 -1.421875 
Q 18.84375 -1.421875 12.171875 6.21875 
Q 5.515625 13.875 5.515625 27.296875 
Q 5.515625 40.765625 12.171875 48.375 
Q 18.84375 56 30.609375 56 
z
" id="DejaVuSans-111"/>
      <path d="M 48.78125 52.59375 
L 48.78125 44.1875 
Q 44.96875 46.296875 41.140625 47.34375 
Q 37.3125 48.390625 33.40625 48.390625 
Q 24.65625 48.390625 19.8125 42.84375 
Q 14.984375 37.3125 14.984375 27.296875 
Q 14.984375 17.28125 19.8125 11.734375 
Q 24.65625 6.203125 33.40625 6.203125 
Q 37.3125 6.203125 41.140625 7.25 
Q 44.96875 8.296875 48.78125 10.40625 
L 48.78125 2.09375 
Q 45.015625 0.34375 40.984375 -0.53125 
Q 36.96875 -1.421875 32.421875 -1.421875 
Q 20.0625 -1.421875 12.78125 6.34375 
Q 5.515625 14.109375 5.515625 27.296875 
Q 5.515625 40.671875 12.859375 48.328125 
Q 20.21875 56 33.015625 56 
Q 37.15625 56 41.109375 55.140625 
Q 45.0625 54.296875 48.78125 52.59375 
z
" id="DejaVuSans-99"/>
      <path d="M 9.078125 75.984375 
L 18.109375 75.984375 
L 18.109375 31.109375 
L 44.921875 54.6875 
L 56.390625 54.6875 
L 27.390625 29.109375 
L 57.625 0 
L 45.90625 0 
L 18.109375 26.703125 
L 18.109375 0 
L 9.078125 0 
z
" id="DejaVuSans-107"/>
      <path d="M 19.671875 64.796875 
L 19.671875 37.40625 
L 32.078125 37.40625 
Q 38.96875 37.40625 42.71875 40.96875 
Q 46.484375 44.53125 46.484375 51.125 
Q 46.484375 57.671875 42.71875 61.234375 
Q 38.96875 64.796875 32.078125 64.796875 
z
M 9.8125 72.90625 
L 32.078125 72.90625 
Q 44.34375 72.90625 50.609375 67.359375 
Q 56.890625 61.8125 56.890625 51.125 
Q 56.890625 40.328125 50.609375 34.8125 
Q 44.34375 29.296875 32.078125 29.296875 
L 19.671875 29.296875 
L 19.671875 0 
L 9.8125 0 
z
" id="DejaVuSans-80"/>
      <path d="M 41.109375 46.296875 
Q 39.59375 47.171875 37.8125 47.578125 
Q 36.03125 48 33.890625 48 
Q 26.265625 48 22.1875 43.046875 
Q 18.109375 38.09375 18.109375 28.8125 
L 18.109375 0 
L 9.078125 0 
L 9.078125 54.6875 
L 18.109375 54.6875 
L 18.109375 46.1875 
Q 20.953125 51.171875 25.484375 53.578125 
Q 30.03125 56 36.53125 56 
Q 37.453125 56 38.578125 55.875 
Q 39.703125 55.765625 41.0625 55.515625 
z
" id="DejaVuSans-114"/>
      <path d="M 33.796875 -14.703125 
L 28.90625 -14.703125 
L 28.859375 0 
Q 23.734375 0.09375 18.609375 1.1875 
Q 13.484375 2.296875 8.296875 4.5 
L 8.296875 13.28125 
Q 13.28125 10.15625 18.375 8.5625 
Q 23.484375 6.984375 28.90625 6.9375 
L 28.90625 29.203125 
Q 18.109375 30.953125 13.203125 35.15625 
Q 8.296875 39.359375 8.296875 46.6875 
Q 8.296875 54.640625 13.625 59.21875 
Q 18.953125 63.8125 28.90625 64.5 
L 28.90625 75.984375 
L 33.796875 75.984375 
L 33.796875 64.65625 
Q 38.328125 64.453125 42.578125 63.6875 
Q 46.828125 62.9375 50.875 61.625 
L 50.875 53.078125 
Q 46.828125 55.125 42.546875 56.25 
Q 38.28125 57.375 33.796875 57.5625 
L 33.796875 36.71875 
Q 44.875 35.015625 50.09375 30.609375 
Q 55.328125 26.21875 55.328125 18.609375 
Q 55.328125 10.359375 49.78125 5.59375 
Q 44.234375 0.828125 33.796875 0.09375 
z
M 28.90625 37.59375 
L 28.90625 57.625 
Q 23.25 56.984375 20.265625 54.390625 
Q 17.28125 51.8125 17.28125 47.515625 
Q 17.28125 43.3125 20.03125 40.96875 
Q 22.796875 38.625 28.90625 37.59375 
z
M 33.796875 28.21875 
L 33.796875 7.078125 
Q 39.984375 7.90625 43.140625 10.59375 
Q 46.296875 13.28125 46.296875 17.671875 
Q 46.296875 21.96875 43.28125 24.5 
Q 40.28125 27.046875 33.796875 28.21875 
z
" id="DejaVuSans-36"/>
     </defs>
     <g transform="translate(28.195312 179.663594)rotate(-90)scale(0.1 -0.1)">
      <use xlink:href="#DejaVuSans-83"/>
      <use x="63.476562" xlink:href="#DejaVuSans-116"/>
      <use x="102.685547" xlink:href="#DejaVuSans-111"/>
      <use x="163.867188" xlink:href="#DejaVuSans-99"/>
      <use x="218.847656" xlink:href="#DejaVuSans-107"/>
      <use x="276.757812" xlink:href="#DejaVuSans-32"/>
      <use x="308.544922" xlink:href="#DejaVuSans-80"/>
      <use x="368.832031" xlink:href="#DejaVuSans-114"/>
      <use x="409.945312" xlink:href="#DejaVuSans-105"/>
      <use x="437.728516" xlink:href="#DejaVuSans-99"/>
      <use x="492.708984" xlink:href="#DejaVuSans-101"/>
      <use x="554.232422" xlink:href="#DejaVuSans-32"/>
      <use x="586.019531" xlink:href="#DejaVuSans-40"/>
      <use x="625.033203" xlink:href="#DejaVuSans-36"/>
      <use x="688.65625" xlink:href="#DejaVuSans-41"/>
     </g>
    </g>
   </g>
   <g id="line2d_16">
    <path clip-path="url(#p20d74fa7cc)" d="M 69.218182 144.651331 
L 69.826909 141.467927 
L 70.435636 142.354053 
L 71.044364 138.203065 
L 71.653091 128.442079 
L 72.870545 131.443317 
L 73.479273 121.322259 
L 74.088 116.403827 
L 74.696727 119.412654 
L 75.305455 115.935427 
L 76.522909 121.890264 
L 77.131636 120.339545 
L 78.349091 143.656487 
L 78.957818 147.260146 
L 79.566545 153.751306 
L 80.175273 151.737318 
L 80.784 157.556777 
L 81.392727 166.608127 
L 82.001455 157.214893 
L 82.610182 158.661876 
L 83.218909 158.229093 
L 83.827636 167.360198 
L 84.436364 170.849107 
L 85.045091 170.138212 
L 85.653818 177.514845 
L 86.262545 175.107024 
L 86.871273 178.956473 
L 87.48 180.825917 
L 88.088727 184.68221 
L 88.697455 172.811096 
L 89.306182 172.897599 
L 89.914909 179.67639 
L 90.523636 174.40476 
L 91.132364 182.229057 
L 91.741091 180.890466 
L 92.349818 193.449846 
L 92.958545 201.962092 
L 93.567273 200.700423 
L 94.176 195.967645 
L 94.784727 194.869359 
L 95.393455 195.61054 
L 96.002182 197.540291 
L 96.610909 207.016029 
L 97.219636 211.629457 
L 97.828364 214.581657 
L 98.437091 207.806639 
L 99.045818 205.604415 
L 99.654545 216.903609 
L 100.263273 214.826579 
L 100.872 217.294542 
L 101.480727 221.632885 
L 102.089455 217.712697 
L 103.306909 205.136593 
L 103.915636 210.515075 
L 104.524364 212.496795 
L 105.133091 210.373752 
L 105.741818 204.121555 
L 106.350545 207.192548 
L 106.959273 208.382422 
L 108.176727 223.139241 
L 108.785455 217.931823 
L 109.394182 209.239781 
L 110.002909 209.701289 
L 110.611636 203.269721 
L 111.220364 200.952022 
L 111.829091 205.086547 
L 112.437818 202.770389 
L 113.046545 192.913227 
L 113.655273 193.142833 
L 114.264 183.115148 
L 114.872727 199.9049 
L 115.481455 194.637388 
L 116.090182 194.07951 
L 116.698909 195.995826 
L 117.307636 195.407738 
L 117.916364 208.14592 
L 118.525091 209.55378 
L 119.133818 207.265072 
L 119.742545 197.793359 
L 120.351273 201.114914 
L 120.96 206.29649 
L 121.568727 209.512214 
L 122.177455 203.645469 
L 122.786182 201.538528 
L 123.394909 204.933722 
L 124.003636 201.644229 
L 124.612364 201.022066 
L 125.221091 194.814092 
L 125.829818 199.313498 
L 126.438545 201.413461 
L 127.047273 203.926453 
L 127.656 213.306012 
L 128.873455 209.735115 
L 129.482182 209.702343 
L 130.090909 211.205795 
L 130.699636 220.276801 
L 131.917091 225.169118 
L 132.525818 230.310853 
L 133.134545 231.344521 
L 133.743273 228.754989 
L 134.352 216.666564 
L 134.960727 215.547707 
L 135.569455 213.897086 
L 136.178182 214.374204 
L 136.786909 226.671467 
L 137.395636 226.841392 
L 138.004364 226.455381 
L 138.613091 210.668645 
L 139.221818 211.901472 
L 139.830545 209.968878 
L 140.439273 210.191343 
L 141.048 217.681314 
L 141.656727 210.357047 
L 142.874182 200.468299 
L 143.482909 206.296496 
L 144.091636 197.306091 
L 144.700364 206.290451 
L 145.309091 202.529327 
L 145.917818 188.490859 
L 146.526545 194.839133 
L 147.135273 198.468493 
L 147.744 197.829835 
L 148.352727 201.056573 
L 148.961455 210.99466 
L 149.570182 210.555245 
L 150.178909 217.363471 
L 150.787636 214.328252 
L 151.396364 220.220774 
L 152.005091 210.287359 
L 152.613818 215.307172 
L 153.222545 217.37124 
L 153.831273 212.157468 
L 154.44 220.045987 
L 155.048727 218.588213 
L 155.657455 210.210832 
L 156.266182 220.513073 
L 156.874909 219.329768 
L 157.483636 217.664198 
L 158.092364 212.653553 
L 159.309818 229.043787 
L 159.918545 225.698703 
L 161.744727 219.969599 
L 162.353455 224.327827 
L 162.962182 222.83933 
L 163.570909 220.96105 
L 164.179636 225.539276 
L 164.788364 213.581665 
L 165.397091 210.544905 
L 166.005818 218.179881 
L 166.614545 213.972077 
L 167.223273 220.21874 
L 167.832 215.174373 
L 168.440727 207.74902 
L 169.049455 213.008712 
L 169.658182 206.834506 
L 170.266909 204.189024 
L 170.875636 198.920501 
L 171.484364 186.764095 
L 172.093091 188.336769 
L 173.310545 198.868241 
L 173.919273 204.096708 
L 174.528 204.590848 
L 175.745455 200.631139 
L 176.354182 195.329783 
L 176.962909 195.246455 
L 177.571636 185.930862 
L 178.180364 187.627029 
L 178.789091 170.193666 
L 179.397818 166.18381 
L 180.006545 171.677269 
L 180.615273 178.54054 
L 181.224 175.44841 
L 181.832727 176.880567 
L 182.441455 172.30459 
L 183.050182 169.271645 
L 183.658909 169.738401 
L 184.267636 175.165439 
L 184.876364 184.873982 
L 185.485091 187.735664 
L 186.093818 182.247067 
L 186.702545 180.874956 
L 187.311273 188.858804 
L 187.92 187.7489 
L 188.528727 185.27943 
L 189.137455 190.944006 
L 189.746182 189.958794 
L 190.354909 189.585738 
L 190.963636 196.91095 
L 191.572364 194.617917 
L 192.181091 191.023891 
L 193.398545 177.328957 
L 194.007273 186.158337 
L 194.616 192.168789 
L 196.442182 182.274247 
L 197.050909 157.582377 
L 197.659636 153.923582 
L 198.877091 140.531699 
L 199.485818 136.356981 
L 200.094545 138.377518 
L 200.703273 133.51334 
L 201.312 138.46632 
L 201.920727 139.984073 
L 202.529455 143.094732 
L 203.138182 142.570007 
L 203.746909 127.735531 
L 204.355636 139.702696 
L 204.964364 135.304505 
L 205.573091 145.640281 
L 206.181818 148.664858 
L 206.790545 141.685854 
L 207.399273 141.273888 
L 208.008 148.181075 
L 208.616727 152.765403 
L 209.225455 148.409911 
L 209.834182 153.090777 
L 210.442909 151.70351 
L 211.051636 151.411443 
L 211.660364 155.587502 
L 212.269091 141.847123 
L 212.877818 137.784383 
L 213.486545 150.763372 
L 214.095273 149.5684 
L 214.704 153.80974 
L 215.312727 148.346558 
L 215.921455 153.425765 
L 216.530182 154.161102 
L 217.138909 150.924676 
L 217.747636 145.376115 
L 218.356364 153.068726 
L 218.965091 155.21252 
L 219.573818 158.256409 
L 220.182545 162.443548 
L 220.791273 151.128882 
L 221.4 148.533384 
L 222.008727 156.614296 
L 222.617455 150.731787 
L 223.226182 137.131045 
L 223.834909 130.514052 
L 224.443636 140.251581 
L 225.052364 143.355002 
L 225.661091 135.235462 
L 226.269818 139.770863 
L 226.878545 136.926457 
L 227.487273 131.961885 
L 228.096 137.902514 
L 228.704727 138.284007 
L 229.313455 159.05705 
L 229.922182 165.622274 
L 230.530909 167.240965 
L 231.139636 175.237915 
L 231.748364 164.775912 
L 232.357091 173.941582 
L 232.965818 176.761794 
L 233.574545 175.923888 
L 234.183273 166.686874 
L 234.792 175.889208 
L 235.400727 168.434578 
L 236.009455 168.368995 
L 236.618182 174.659411 
L 237.226909 171.697824 
L 237.835636 170.422065 
L 238.444364 174.268811 
L 239.053091 173.821454 
L 239.661818 176.290901 
L 240.270545 175.563376 
L 240.879273 171.31983 
L 241.488 161.155166 
L 242.096727 169.088233 
L 242.705455 155.417781 
L 243.314182 167.928567 
L 243.922909 168.901346 
L 244.531636 165.130865 
L 245.140364 163.330009 
L 245.749091 167.320844 
L 246.357818 168.654684 
L 246.966545 171.81429 
L 247.575273 175.591485 
L 248.184 170.146448 
L 248.792727 167.858363 
L 249.401455 172.299169 
L 250.010182 166.5337 
L 250.618909 164.56424 
L 251.227636 159.354667 
L 251.836364 155.319422 
L 252.445091 160.63239 
L 253.053818 164.222549 
L 254.271273 155.521382 
L 254.88 155.655338 
L 255.488727 154.903396 
L 256.097455 146.714936 
L 256.706182 150.506273 
L 257.314909 146.999967 
L 258.532364 149.690907 
L 259.141091 142.648928 
L 260.358545 132.145173 
L 260.967273 123.778456 
L 261.576 123.643844 
L 262.184727 119.273258 
L 262.793455 121.261734 
L 263.402182 119.184176 
L 264.010909 120.018253 
L 264.619636 119.396613 
L 265.228364 115.582296 
L 265.837091 120.826212 
L 266.445818 107.416257 
L 267.054545 113.863748 
L 267.663273 121.645393 
L 268.272 114.223146 
L 268.880727 109.149438 
L 270.098182 101.122481 
L 270.706909 101.200969 
L 271.315636 106.951406 
L 271.924364 106.46558 
L 272.533091 110.80546 
L 273.141818 104.555989 
L 273.750545 105.498469 
L 274.359273 110.78902 
L 274.968 112.848758 
L 275.576727 110.202311 
L 276.185455 113.81518 
L 276.794182 119.084729 
L 278.011636 115.952983 
L 279.229091 122.220794 
L 279.837818 120.733603 
L 281.055273 139.0346 
L 281.664 143.639055 
L 282.272727 145.007022 
L 282.881455 143.014439 
L 283.490182 133.55899 
L 284.098909 128.062313 
L 284.707636 129.087347 
L 285.316364 129.209221 
L 285.925091 135.634357 
L 286.533818 135.753006 
L 287.142545 137.602998 
L 287.751273 135.534719 
L 288.36 140.836381 
L 288.968727 137.507927 
L 289.577455 127.684717 
L 290.186182 128.381753 
L 290.794909 125.807212 
L 291.403636 121.384131 
L 292.012364 123.955523 
L 292.621091 122.519331 
L 293.229818 122.438627 
L 293.838545 121.812628 
L 294.447273 126.766791 
L 295.056 126.609707 
L 295.664727 123.418073 
L 296.273455 114.117801 
L 296.882182 107.969905 
L 297.490909 94.170318 
L 298.099636 99.088192 
L 298.708364 93.497554 
L 299.317091 92.322528 
L 299.925818 78.288244 
L 301.143273 88.850282 
L 301.752 92.691746 
L 302.360727 106.303636 
L 302.969455 109.673161 
L 303.578182 114.538386 
L 304.186909 113.574523 
L 304.795636 111.384234 
L 305.404364 99.359995 
L 306.013091 93.268799 
L 306.621818 96.966131 
L 307.230545 102.724004 
L 307.839273 99.571331 
L 308.448 108.032608 
L 309.056727 96.294924 
L 309.665455 88.73598 
L 310.274182 91.742892 
L 310.882909 102.722244 
L 311.491636 94.045376 
L 312.100364 94.779454 
L 312.709091 86.846381 
L 313.317818 97.064949 
L 313.926545 100.9063 
L 314.535273 100.872693 
L 315.144 100.571598 
L 315.752727 103.456034 
L 316.361455 99.464235 
L 316.970182 106.306535 
L 317.578909 107.219035 
L 318.187636 106.448069 
L 318.796364 103.151069 
L 319.405091 98.590382 
L 320.013818 105.79813 
L 320.622545 115.630154 
L 321.231273 107.441618 
L 321.84 105.311842 
L 322.448727 110.108836 
L 323.057455 100.167618 
L 323.666182 99.426268 
L 324.274909 91.86824 
L 324.883636 91.435519 
L 326.101091 66.978489 
L 326.709818 68.574082 
L 327.318545 62.347355 
L 327.927273 58.211189 
L 328.536 49.43973 
L 329.144727 55.623853 
L 329.753455 51.227 
L 330.362182 44.443636 
L 330.970909 55.715267 
L 331.579636 63.298684 
L 332.188364 76.367971 
L 332.797091 78.09458 
L 333.405818 73.495905 
L 334.014545 63.86741 
L 334.623273 63.392542 
L 335.232 52.954865 
L 335.840727 61.799833 
L 336.449455 72.716685 
L 337.058182 73.072686 
L 337.666909 70.611239 
L 338.275636 70.820778 
L 338.884364 84.070861 
L 339.493091 84.642024 
L 340.101818 93.002273 
L 340.710545 88.710391 
L 341.319273 86.36089 
L 341.928 92.38451 
L 342.536727 95.677845 
L 343.145455 102.466266 
L 343.754182 102.867972 
L 344.362909 96.746535 
L 344.971636 103.063981 
L 345.580364 99.833584 
L 346.189091 103.231966 
L 346.797818 108.313429 
L 347.406545 108.999378 
L 348.015273 115.63417 
L 348.624 119.182467 
L 349.232727 126.859578 
L 349.841455 114.2678 
L 350.450182 114.041798 
L 351.058909 118.526287 
L 351.667636 117.154906 
L 352.276364 117.874808 
L 352.885091 119.290986 
L 353.493818 115.354837 
L 354.102545 110.500026 
L 355.32 117.590345 
L 355.928727 119.353131 
L 356.537455 134.105973 
L 357.146182 143.816721 
L 357.754909 135.056525 
L 358.363636 124.514049 
L 358.972364 126.110102 
L 359.581091 122.414991 
L 360.189818 120.420212 
L 360.798545 100.687893 
L 361.407273 93.51262 
L 362.016 94.332435 
L 362.624727 100.456423 
L 363.233455 110.752018 
L 363.842182 109.448035 
L 364.450909 114.295431 
L 365.059636 123.410549 
L 365.668364 127.554387 
L 366.277091 134.485948 
L 366.885818 123.673182 
L 367.494545 118.022818 
L 368.103273 118.073914 
L 368.712 108.589062 
L 369.320727 108.093214 
L 369.929455 113.613121 
L 370.538182 103.851532 
L 371.146909 100.397697 
L 371.755636 107.045331 
L 372.364364 108.265197 
L 372.973091 113.87697 
L 373.581818 122.739231 
L 373.581818 122.739231 
" style="fill:none;stroke:#1f77b4;stroke-linecap:square;stroke-width:1.5;"/>
   </g>
   <g id="line2d_17">
    <path clip-path="url(#p20d74fa7cc)" d="M 69.218182 214.159127 
L 373.581818 92.698334 
L 373.581818 92.698334 
" style="fill:none;stroke:#ff7f0e;stroke-linecap:square;stroke-width:1.5;"/>
   </g>
   <g id="line2d_18">
    <path clip-path="url(#p20d74fa7cc)" d="M 69.218182 186.201891 
L 373.581818 64.741097 
L 373.581818 64.741097 
" style="fill:none;stroke:#2ca02c;stroke-linecap:square;stroke-width:1.5;"/>
   </g>
   <g id="line2d_19">
    <path clip-path="url(#p20d74fa7cc)" d="M 69.218182 242.116364 
L 373.581818 120.65557 
L 373.581818 120.65557 
" style="fill:none;stroke:#d62728;stroke-linecap:square;stroke-width:1.5;"/>
   </g>
   <g id="patch_3">
    <path d="M 54 252 
L 54 34.56 
" style="fill:none;stroke:#000000;stroke-linecap:square;stroke-linejoin:miter;stroke-width:0.8;"/>
   </g>
   <g id="patch_4">
    <path d="M 388.8 252 
L 388.8 34.56 
" style="fill:none;stroke:#000000;stroke-linecap:square;stroke-linejoin:miter;stroke-width:0.8;"/>
   </g>
   <g id="patch_5">
    <path d="M 54 252 
L 388.8 252 
" style="fill:none;stroke:#000000;stroke-linecap:square;stroke-linejoin:miter;stroke-width:0.8;"/>
   </g>
   <g id="patch_6">
    <path d="M 54 34.56 
L 388.8 34.56 
" style="fill:none;stroke:#000000;stroke-linecap:square;stroke-linejoin:miter;stroke-width:0.8;"/>
   </g>
  </g>
 </g>
 <defs>
  <clipPath id="p20d74fa7cc">
   <rect height="217.44" width="334.8" x="54" y="34.56"/>
  </clipPath>
 </defs>
</svg>
