<?xml version="1.0" encoding="utf-8" standalone="no"?>
<!DOCTYPE svg PUBLIC "-//W3C//DTD SVG 1.1//EN"
  "http://www.w3.org/Graphics/SVG/1.1/DTD/svg11.dtd">
<!-- Created with matplotlib (http://matplotlib.org/) -->
<svg height="288pt" version="1.1" viewBox="0 0 432 288" width="432pt" xmlns="http://www.w3.org/2000/svg" xmlns:xlink="http://www.w3.org/1999/xlink">
 <defs>
  <style type="text/css">
*{stroke-linecap:butt;stroke-linejoin:round;}
  </style>
 </defs>
 <g id="figure_1">
  <g id="patch_1">
   <path d="M 0 288 
L 432 288 
L 432 0 
L 0 0 
z
" style="fill:#ffffff;"/>
  </g>
  <g id="axes_1">
   <g id="patch_2">
    <path d="M 54 252 
L 388.8 252 
L 388.8 34.56 
L 54 34.56 
z
" style="fill:#ffffff;"/>
   </g>
   <g id="PathCollection_1">
    <defs>
     <path d="M 0 3 
C 0.795609 3 1.55874 2.683901 2.12132 2.12132 
C 2.683901 1.55874 3 0.795609 3 0 
C 3 -0.795609 2.683901 -1.55874 2.12132 -2.12132 
C 1.55874 -2.683901 0.795609 -3 0 -3 
C -0.795609 -3 -1.55874 -2.683901 -2.12132 -2.12132 
C -2.683901 -1.55874 -3 -0.795609 -3 0 
C -3 0.795609 -2.683901 1.55874 -2.12132 2.12132 
C -1.55874 2.683901 -0.795609 3 0 3 
z
" id="m9172442407" style="stroke:#1f77b4;"/>
    </defs>
    <g clip-path="url(#p233c77a89f)">
     <use style="fill:#1f77b4;stroke:#1f77b4;" x="70.136159" xlink:href="#m9172442407" y="209.625104"/>
     <use style="fill:#1f77b4;stroke:#1f77b4;" x="80.38078" xlink:href="#m9172442407" y="201.693024"/>
     <use style="fill:#1f77b4;stroke:#1f77b4;" x="90.625401" xlink:href="#m9172442407" y="194.378815"/>
     <use style="fill:#1f77b4;stroke:#1f77b4;" x="100.870022" xlink:href="#m9172442407" y="196.229383"/>
     <use style="fill:#1f77b4;stroke:#1f77b4;" x="111.114643" xlink:href="#m9172442407" y="168.088421"/>
     <use style="fill:#1f77b4;stroke:#1f77b4;" x="121.359265" xlink:href="#m9172442407" y="190.013188"/>
     <use style="fill:#1f77b4;stroke:#1f77b4;" x="131.603886" xlink:href="#m9172442407" y="163.230383"/>
     <use style="fill:#1f77b4;stroke:#1f77b4;" x="141.848507" xlink:href="#m9172442407" y="176.447029"/>
     <use style="fill:#1f77b4;stroke:#1f77b4;" x="152.093128" xlink:href="#m9172442407" y="157.717886"/>
     <use style="fill:#1f77b4;stroke:#1f77b4;" x="162.337749" xlink:href="#m9172442407" y="149.085632"/>
     <use style="fill:#1f77b4;stroke:#1f77b4;" x="172.582371" xlink:href="#m9172442407" y="147.305306"/>
     <use style="fill:#1f77b4;stroke:#1f77b4;" x="182.826992" xlink:href="#m9172442407" y="140.832623"/>
     <use style="fill:#1f77b4;stroke:#1f77b4;" x="193.071613" xlink:href="#m9172442407" y="129.216258"/>
     <use style="fill:#1f77b4;stroke:#1f77b4;" x="203.316234" xlink:href="#m9172442407" y="119.379189"/>
     <use style="fill:#1f77b4;stroke:#1f77b4;" x="213.560855" xlink:href="#m9172442407" y="141.699047"/>
     <use style="fill:#1f77b4;stroke:#1f77b4;" x="223.805477" xlink:href="#m9172442407" y="105.135411"/>
     <use style="fill:#1f77b4;stroke:#1f77b4;" x="234.050098" xlink:href="#m9172442407" y="91.607983"/>
     <use style="fill:#1f77b4;stroke:#1f77b4;" x="244.294719" xlink:href="#m9172442407" y="105.137563"/>
     <use style="fill:#1f77b4;stroke:#1f77b4;" x="254.53934" xlink:href="#m9172442407" y="71.642079"/>
     <use style="fill:#1f77b4;stroke:#1f77b4;" x="264.783961" xlink:href="#m9172442407" y="89.315339"/>
     <use style="fill:#1f77b4;stroke:#1f77b4;" x="275.028583" xlink:href="#m9172442407" y="59.633097"/>
    </g>
   </g>
   <g id="patch_3">
    <path clip-path="url(#p233c77a89f)" d="M 70.136159 242.116364 
L 70.136159 209.625104 
L 171.17002 209.625104 
L 171.17002 242.116364 
z
" style="fill:#ff0000;opacity:0.5;stroke:#ff0000;stroke-linejoin:miter;"/>
   </g>
   <g id="patch_4">
    <path clip-path="url(#p233c77a89f)" d="M 80.38078 232.232727 
L 80.38078 201.693024 
L 175.346139 201.693024 
L 175.346139 232.232727 
z
" style="fill:#ff0000;opacity:0.5;stroke:#ff0000;stroke-linejoin:miter;"/>
   </g>
   <g id="patch_5">
    <path clip-path="url(#p233c77a89f)" d="M 90.625401 222.349091 
L 90.625401 194.378815 
L 177.600945 194.378815 
L 177.600945 222.349091 
z
" style="fill:#ff0000;opacity:0.5;stroke:#ff0000;stroke-linejoin:miter;"/>
   </g>
   <g id="patch_6">
    <path clip-path="url(#p233c77a89f)" d="M 100.870022 212.465455 
L 100.870022 196.229383 
L 151.357232 196.229383 
L 151.357232 212.465455 
z
" style="fill:#ff0000;opacity:0.5;stroke:#ff0000;stroke-linejoin:miter;"/>
   </g>
   <g id="patch_7">
    <path clip-path="url(#p233c77a89f)" d="M 111.114643 202.581818 
L 111.114643 168.088421 
L 218.374293 168.088421 
L 218.374293 202.581818 
z
" style="fill:#ff0000;opacity:0.5;stroke:#ff0000;stroke-linejoin:miter;"/>
   </g>
   <g id="patch_8">
    <path clip-path="url(#p233c77a89f)" d="M 121.359265 192.698182 
L 121.359265 190.013188 
L 129.708443 190.013188 
L 129.708443 192.698182 
z
" style="fill:#ff0000;opacity:0.5;stroke:#ff0000;stroke-linejoin:miter;"/>
   </g>
   <g id="patch_9">
    <path clip-path="url(#p233c77a89f)" d="M 131.603886 182.814545 
L 131.603886 163.230383 
L 192.502219 163.230383 
L 192.502219 182.814545 
z
" style="fill:#ff0000;opacity:0.5;stroke:#ff0000;stroke-linejoin:miter;"/>
   </g>
   <g id="patch_10">
    <path clip-path="url(#p233c77a89f)" d="M 141.848507 172.930909 
L 141.848507 176.447029 
L 152.782129 176.447029 
L 152.782129 172.930909 
z
" style="fill:#ff0000;opacity:0.5;stroke:#ff0000;stroke-linejoin:miter;"/>
   </g>
   <g id="patch_11">
    <path clip-path="url(#p233c77a89f)" d="M 152.093128 163.047273 
L 152.093128 157.717886 
L 168.665232 157.717886 
L 168.665232 163.047273 
z
" style="fill:#ff0000;opacity:0.5;stroke:#ff0000;stroke-linejoin:miter;"/>
   </g>
   <g id="patch_12">
    <path clip-path="url(#p233c77a89f)" d="M 162.337749 153.163636 
L 162.337749 149.085632 
L 175.01859 149.085632 
L 175.01859 153.163636 
z
" style="fill:#ff0000;opacity:0.5;stroke:#ff0000;stroke-linejoin:miter;"/>
   </g>
   <g id="patch_13">
    <path clip-path="url(#p233c77a89f)" d="M 172.582371 143.28 
L 172.582371 147.305306 
L 185.099342 147.305306 
L 185.099342 143.28 
z
" style="fill:#ff0000;opacity:0.5;stroke:#ff0000;stroke-linejoin:miter;"/>
   </g>
   <g id="patch_14">
    <path clip-path="url(#p233c77a89f)" d="M 182.826992 133.396364 
L 182.826992 140.832623 
L 205.950563 140.832623 
L 205.950563 133.396364 
z
" style="fill:#ff0000;opacity:0.5;stroke:#ff0000;stroke-linejoin:miter;"/>
   </g>
   <g id="patch_15">
    <path clip-path="url(#p233c77a89f)" d="M 193.071613 123.512727 
L 193.071613 129.216258 
L 210.807142 129.216258 
L 210.807142 123.512727 
z
" style="fill:#ff0000;opacity:0.5;stroke:#ff0000;stroke-linejoin:miter;"/>
   </g>
   <g id="patch_16">
    <path clip-path="url(#p233c77a89f)" d="M 203.316234 113.629091 
L 203.316234 119.379189 
L 221.196569 119.379189 
L 221.196569 113.629091 
z
" style="fill:#ff0000;opacity:0.5;stroke:#ff0000;stroke-linejoin:miter;"/>
   </g>
   <g id="patch_17">
    <path clip-path="url(#p233c77a89f)" d="M 213.560855 103.745455 
L 213.560855 141.699047 
L 331.580225 141.699047 
L 331.580225 103.745455 
z
" style="fill:#ff0000;opacity:0.5;stroke:#ff0000;stroke-linejoin:miter;"/>
   </g>
   <g id="patch_18">
    <path clip-path="url(#p233c77a89f)" d="M 223.805477 93.861818 
L 223.805477 105.135411 
L 258.861508 105.135411 
L 258.861508 93.861818 
z
" style="fill:#ff0000;opacity:0.5;stroke:#ff0000;stroke-linejoin:miter;"/>
   </g>
   <g id="patch_19">
    <path clip-path="url(#p233c77a89f)" d="M 234.050098 83.978182 
L 234.050098 91.607983 
L 257.775503 91.607983 
L 257.775503 83.978182 
z
" style="fill:#ff0000;opacity:0.5;stroke:#ff0000;stroke-linejoin:miter;"/>
   </g>
   <g id="patch_20">
    <path clip-path="url(#p233c77a89f)" d="M 244.294719 74.094545 
L 244.294719 105.137563 
L 340.825169 105.137563 
L 340.825169 74.094545 
z
" style="fill:#ff0000;opacity:0.5;stroke:#ff0000;stroke-linejoin:miter;"/>
   </g>
   <g id="patch_21">
    <path clip-path="url(#p233c77a89f)" d="M 254.53934 64.210909 
L 254.53934 71.642079 
L 277.647087 71.642079 
L 277.647087 64.210909 
z
" style="fill:#ff0000;opacity:0.5;stroke:#ff0000;stroke-linejoin:miter;"/>
   </g>
   <g id="patch_22">
    <path clip-path="url(#p233c77a89f)" d="M 264.783961 54.327273 
L 264.783961 89.315339 
L 373.581818 89.315339 
L 373.581818 54.327273 
z
" style="fill:#ff0000;opacity:0.5;stroke:#ff0000;stroke-linejoin:miter;"/>
   </g>
   <g id="patch_23">
    <path clip-path="url(#p233c77a89f)" d="M 275.028583 44.443636 
L 275.028583 59.633097 
L 322.261279 59.633097 
L 322.261279 44.443636 
z
" style="fill:#ff0000;opacity:0.5;stroke:#ff0000;stroke-linejoin:miter;"/>
   </g>
   <g id="matplotlib.axis_1">
    <g id="xtick_1">
     <g id="line2d_1">
      <defs>
       <path d="M 0 0 
L 0 3.5 
" id="mbfca278d8c" style="stroke:#000000;stroke-width:0.8;"/>
      </defs>
      <g>
       <use style="stroke:#000000;stroke-width:0.8;" x="70.136159" xlink:href="#mbfca278d8c" y="252"/>
      </g>
     </g>
     <g id="text_1">
      <!-- −1.0 -->
      <defs>
       <path d="M 10.59375 35.5 
L 73.1875 35.5 
L 73.1875 27.203125 
L 10.59375 27.203125 
z
" id="DejaVuSans-2212"/>
       <path d="M 12.40625 8.296875 
L 28.515625 8.296875 
L 28.515625 63.921875 
L 10.984375 60.40625 
L 10.984375 69.390625 
L 28.421875 72.90625 
L 38.28125 72.90625 
L 38.28125 8.296875 
L 54.390625 8.296875 
L 54.390625 0 
L 12.40625 0 
z
" id="DejaVuSans-31"/>
       <path d="M 10.6875 12.40625 
L 21 12.40625 
L 21 0 
L 10.6875 0 
z
" id="DejaVuSans-2e"/>
       <path d="M 31.78125 66.40625 
Q 24.171875 66.40625 20.328125 58.90625 
Q 16.5 51.421875 16.5 36.375 
Q 16.5 21.390625 20.328125 13.890625 
Q 24.171875 6.390625 31.78125 6.390625 
Q 39.453125 6.390625 43.28125 13.890625 
Q 47.125 21.390625 47.125 36.375 
Q 47.125 51.421875 43.28125 58.90625 
Q 39.453125 66.40625 31.78125 66.40625 
z
M 31.78125 74.21875 
Q 44.046875 74.21875 50.515625 64.515625 
Q 56.984375 54.828125 56.984375 36.375 
Q 56.984375 17.96875 50.515625 8.265625 
Q 44.046875 -1.421875 31.78125 -1.421875 
Q 19.53125 -1.421875 13.0625 8.265625 
Q 6.59375 17.96875 6.59375 36.375 
Q 6.59375 54.828125 13.0625 64.515625 
Q 19.53125 74.21875 31.78125 74.21875 
z
" id="DejaVuSans-30"/>
      </defs>
      <g transform="translate(57.994752 266.598437)scale(0.1 -0.1)">
       <use xlink:href="#DejaVuSans-2212"/>
       <use x="83.789062" xlink:href="#DejaVuSans-31"/>
       <use x="147.412109" xlink:href="#DejaVuSans-2e"/>
       <use x="179.199219" xlink:href="#DejaVuSans-30"/>
      </g>
     </g>
    </g>
    <g id="xtick_2">
     <g id="line2d_2">
      <g>
       <use style="stroke:#000000;stroke-width:0.8;" x="121.359265" xlink:href="#mbfca278d8c" y="252"/>
      </g>
     </g>
     <g id="text_2">
      <!-- −0.5 -->
      <defs>
       <path d="M 10.796875 72.90625 
L 49.515625 72.90625 
L 49.515625 64.59375 
L 19.828125 64.59375 
L 19.828125 46.734375 
Q 21.96875 47.46875 24.109375 47.828125 
Q 26.265625 48.1875 28.421875 48.1875 
Q 40.625 48.1875 47.75 41.5 
Q 54.890625 34.8125 54.890625 23.390625 
Q 54.890625 11.625 47.5625 5.09375 
Q 40.234375 -1.421875 26.90625 -1.421875 
Q 22.3125 -1.421875 17.546875 -0.640625 
Q 12.796875 0.140625 7.71875 1.703125 
L 7.71875 11.625 
Q 12.109375 9.234375 16.796875 8.0625 
Q 21.484375 6.890625 26.703125 6.890625 
Q 35.15625 6.890625 40.078125 11.328125 
Q 45.015625 15.765625 45.015625 23.390625 
Q 45.015625 31 40.078125 35.4375 
Q 35.15625 39.890625 26.703125 39.890625 
Q 22.75 39.890625 18.8125 39.015625 
Q 14.890625 38.140625 10.796875 36.28125 
z
" id="DejaVuSans-35"/>
      </defs>
      <g transform="translate(109.217858 266.598437)scale(0.1 -0.1)">
       <use xlink:href="#DejaVuSans-2212"/>
       <use x="83.789062" xlink:href="#DejaVuSans-30"/>
       <use x="147.412109" xlink:href="#DejaVuSans-2e"/>
       <use x="179.199219" xlink:href="#DejaVuSans-35"/>
      </g>
     </g>
    </g>
    <g id="xtick_3">
     <g id="line2d_3">
      <g>
       <use style="stroke:#000000;stroke-width:0.8;" x="172.582371" xlink:href="#mbfca278d8c" y="252"/>
      </g>
     </g>
     <g id="text_3">
      <!-- 0.0 -->
      <g transform="translate(164.630808 266.598437)scale(0.1 -0.1)">
       <use xlink:href="#DejaVuSans-30"/>
       <use x="63.623047" xlink:href="#DejaVuSans-2e"/>
       <use x="95.410156" xlink:href="#DejaVuSans-30"/>
      </g>
     </g>
    </g>
    <g id="xtick_4">
     <g id="line2d_4">
      <g>
       <use style="stroke:#000000;stroke-width:0.8;" x="223.805477" xlink:href="#mbfca278d8c" y="252"/>
      </g>
     </g>
     <g id="text_4">
      <!-- 0.5 -->
      <g transform="translate(215.853914 266.598437)scale(0.1 -0.1)">
       <use xlink:href="#DejaVuSans-30"/>
       <use x="63.623047" xlink:href="#DejaVuSans-2e"/>
       <use x="95.410156" xlink:href="#DejaVuSans-35"/>
      </g>
     </g>
    </g>
    <g id="xtick_5">
     <g id="line2d_5">
      <g>
       <use style="stroke:#000000;stroke-width:0.8;" x="275.028583" xlink:href="#mbfca278d8c" y="252"/>
      </g>
     </g>
     <g id="text_5">
      <!-- 1.0 -->
      <g transform="translate(267.07702 266.598437)scale(0.1 -0.1)">
       <use xlink:href="#DejaVuSans-31"/>
       <use x="63.623047" xlink:href="#DejaVuSans-2e"/>
       <use x="95.410156" xlink:href="#DejaVuSans-30"/>
      </g>
     </g>
    </g>
    <g id="xtick_6">
     <g id="line2d_6">
      <g>
       <use style="stroke:#000000;stroke-width:0.8;" x="326.251688" xlink:href="#mbfca278d8c" y="252"/>
      </g>
     </g>
     <g id="text_6">
      <!-- 1.5 -->
      <g transform="translate(318.300126 266.598437)scale(0.1 -0.1)">
       <use xlink:href="#DejaVuSans-31"/>
       <use x="63.623047" xlink:href="#DejaVuSans-2e"/>
       <use x="95.410156" xlink:href="#DejaVuSans-35"/>
      </g>
     </g>
    </g>
    <g id="xtick_7">
     <g id="line2d_7">
      <g>
       <use style="stroke:#000000;stroke-width:0.8;" x="377.474794" xlink:href="#mbfca278d8c" y="252"/>
      </g>
     </g>
     <g id="text_7">
      <!-- 2.0 -->
      <defs>
       <path d="M 19.1875 8.296875 
L 53.609375 8.296875 
L 53.609375 0 
L 7.328125 0 
L 7.328125 8.296875 
Q 12.9375 14.109375 22.625 23.890625 
Q 32.328125 33.6875 34.8125 36.53125 
Q 39.546875 41.84375 41.421875 45.53125 
Q 43.3125 49.21875 43.3125 52.78125 
Q 43.3125 58.59375 39.234375 62.25 
Q 35.15625 65.921875 28.609375 65.921875 
Q 23.96875 65.921875 18.8125 64.3125 
Q 13.671875 62.703125 7.8125 59.421875 
L 7.8125 69.390625 
Q 13.765625 71.78125 18.9375 73 
Q 24.125 74.21875 28.421875 74.21875 
Q 39.75 74.21875 46.484375 68.546875 
Q 53.21875 62.890625 53.21875 53.421875 
Q 53.21875 48.921875 51.53125 44.890625 
Q 49.859375 40.875 45.40625 35.40625 
Q 44.1875 33.984375 37.640625 27.21875 
Q 31.109375 20.453125 19.1875 8.296875 
z
" id="DejaVuSans-32"/>
      </defs>
      <g transform="translate(369.523232 266.598437)scale(0.1 -0.1)">
       <use xlink:href="#DejaVuSans-32"/>
       <use x="63.623047" xlink:href="#DejaVuSans-2e"/>
       <use x="95.410156" xlink:href="#DejaVuSans-30"/>
      </g>
     </g>
    </g>
   </g>
   <g id="matplotlib.axis_2">
    <g id="ytick_1">
     <g id="line2d_8">
      <defs>
       <path d="M 0 0 
L -3.5 0 
" id="mfd1225557b" style="stroke:#000000;stroke-width:0.8;"/>
      </defs>
      <g>
       <use style="stroke:#000000;stroke-width:0.8;" x="54" xlink:href="#mfd1225557b" y="242.116364"/>
      </g>
     </g>
     <g id="text_8">
      <!-- −3 -->
      <defs>
       <path d="M 40.578125 39.3125 
Q 47.65625 37.796875 51.625 33 
Q 55.609375 28.21875 55.609375 21.1875 
Q 55.609375 10.40625 48.1875 4.484375 
Q 40.765625 -1.421875 27.09375 -1.421875 
Q 22.515625 -1.421875 17.65625 -0.515625 
Q 12.796875 0.390625 7.625 2.203125 
L 7.625 11.71875 
Q 11.71875 9.328125 16.59375 8.109375 
Q 21.484375 6.890625 26.8125 6.890625 
Q 36.078125 6.890625 40.9375 10.546875 
Q 45.796875 14.203125 45.796875 21.1875 
Q 45.796875 27.640625 41.28125 31.265625 
Q 36.765625 34.90625 28.71875 34.90625 
L 20.21875 34.90625 
L 20.21875 43.015625 
L 29.109375 43.015625 
Q 36.375 43.015625 40.234375 45.921875 
Q 44.09375 48.828125 44.09375 54.296875 
Q 44.09375 59.90625 40.109375 62.90625 
Q 36.140625 65.921875 28.71875 65.921875 
Q 24.65625 65.921875 20.015625 65.03125 
Q 15.375 64.15625 9.8125 62.3125 
L 9.8125 71.09375 
Q 15.4375 72.65625 20.34375 73.4375 
Q 25.25 74.21875 29.59375 74.21875 
Q 40.828125 74.21875 47.359375 69.109375 
Q 53.90625 64.015625 53.90625 55.328125 
Q 53.90625 49.265625 50.4375 45.09375 
Q 46.96875 40.921875 40.578125 39.3125 
z
" id="DejaVuSans-33"/>
      </defs>
      <g transform="translate(32.257812 245.915582)scale(0.1 -0.1)">
       <use xlink:href="#DejaVuSans-2212"/>
       <use x="83.789062" xlink:href="#DejaVuSans-33"/>
      </g>
     </g>
    </g>
    <g id="ytick_2">
     <g id="line2d_9">
      <g>
       <use style="stroke:#000000;stroke-width:0.8;" x="54" xlink:href="#mfd1225557b" y="209.170909"/>
      </g>
     </g>
     <g id="text_9">
      <!-- −2 -->
      <g transform="translate(32.257812 212.970128)scale(0.1 -0.1)">
       <use xlink:href="#DejaVuSans-2212"/>
       <use x="83.789062" xlink:href="#DejaVuSans-32"/>
      </g>
     </g>
    </g>
    <g id="ytick_3">
     <g id="line2d_10">
      <g>
       <use style="stroke:#000000;stroke-width:0.8;" x="54" xlink:href="#mfd1225557b" y="176.225455"/>
      </g>
     </g>
     <g id="text_10">
      <!-- −1 -->
      <g transform="translate(32.257812 180.024673)scale(0.1 -0.1)">
       <use xlink:href="#DejaVuSans-2212"/>
       <use x="83.789062" xlink:href="#DejaVuSans-31"/>
      </g>
     </g>
    </g>
    <g id="ytick_4">
     <g id="line2d_11">
      <g>
       <use style="stroke:#000000;stroke-width:0.8;" x="54" xlink:href="#mfd1225557b" y="143.28"/>
      </g>
     </g>
     <g id="text_11">
      <!-- 0 -->
      <g transform="translate(40.6375 147.079219)scale(0.1 -0.1)">
       <use xlink:href="#DejaVuSans-30"/>
      </g>
     </g>
    </g>
    <g id="ytick_5">
     <g id="line2d_12">
      <g>
       <use style="stroke:#000000;stroke-width:0.8;" x="54" xlink:href="#mfd1225557b" y="110.334545"/>
      </g>
     </g>
     <g id="text_12">
      <!-- 1 -->
      <g transform="translate(40.6375 114.133764)scale(0.1 -0.1)">
       <use xlink:href="#DejaVuSans-31"/>
      </g>
     </g>
    </g>
    <g id="ytick_6">
     <g id="line2d_13">
      <g>
       <use style="stroke:#000000;stroke-width:0.8;" x="54" xlink:href="#mfd1225557b" y="77.389091"/>
      </g>
     </g>
     <g id="text_13">
      <!-- 2 -->
      <g transform="translate(40.6375 81.18831)scale(0.1 -0.1)">
       <use xlink:href="#DejaVuSans-32"/>
      </g>
     </g>
    </g>
    <g id="ytick_7">
     <g id="line2d_14">
      <g>
       <use style="stroke:#000000;stroke-width:0.8;" x="54" xlink:href="#mfd1225557b" y="44.443636"/>
      </g>
     </g>
     <g id="text_14">
      <!-- 3 -->
      <g transform="translate(40.6375 48.242855)scale(0.1 -0.1)">
       <use xlink:href="#DejaVuSans-33"/>
      </g>
     </g>
    </g>
   </g>
   <g id="line2d_15">
    <path clip-path="url(#p233c77a89f)" d="M 70.136159 242.116364 
L 275.028583 44.443636 
L 275.028583 44.443636 
" style="fill:none;stroke:#000000;stroke-linecap:square;stroke-width:1.5;"/>
   </g>
   <g id="line2d_16">
    <path clip-path="url(#p233c77a89f)" d="M 70.136159 209.625104 
L 70.136159 242.116364 
" style="fill:none;stroke:#ff0000;stroke-linecap:square;stroke-width:1.5;"/>
   </g>
   <g id="line2d_17">
    <path clip-path="url(#p233c77a89f)" d="M 80.38078 201.693024 
L 80.38078 232.232727 
" style="fill:none;stroke:#ff0000;stroke-linecap:square;stroke-width:1.5;"/>
   </g>
   <g id="line2d_18">
    <path clip-path="url(#p233c77a89f)" d="M 90.625401 194.378815 
L 90.625401 222.349091 
" style="fill:none;stroke:#ff0000;stroke-linecap:square;stroke-width:1.5;"/>
   </g>
   <g id="line2d_19">
    <path clip-path="url(#p233c77a89f)" d="M 100.870022 196.229383 
L 100.870022 212.465455 
" style="fill:none;stroke:#ff0000;stroke-linecap:square;stroke-width:1.5;"/>
   </g>
   <g id="line2d_20">
    <path clip-path="url(#p233c77a89f)" d="M 111.114643 168.088421 
L 111.114643 202.581818 
" style="fill:none;stroke:#ff0000;stroke-linecap:square;stroke-width:1.5;"/>
   </g>
   <g id="line2d_21">
    <path clip-path="url(#p233c77a89f)" d="M 121.359265 190.013188 
L 121.359265 192.698182 
" style="fill:none;stroke:#ff0000;stroke-linecap:square;stroke-width:1.5;"/>
   </g>
   <g id="line2d_22">
    <path clip-path="url(#p233c77a89f)" d="M 131.603886 163.230383 
L 131.603886 182.814545 
" style="fill:none;stroke:#ff0000;stroke-linecap:square;stroke-width:1.5;"/>
   </g>
   <g id="line2d_23">
    <path clip-path="url(#p233c77a89f)" d="M 141.848507 176.447029 
L 141.848507 172.930909 
" style="fill:none;stroke:#ff0000;stroke-linecap:square;stroke-width:1.5;"/>
   </g>
   <g id="line2d_24">
    <path clip-path="url(#p233c77a89f)" d="M 152.093128 157.717886 
L 152.093128 163.047273 
" style="fill:none;stroke:#ff0000;stroke-linecap:square;stroke-width:1.5;"/>
   </g>
   <g id="line2d_25">
    <path clip-path="url(#p233c77a89f)" d="M 162.337749 149.085632 
L 162.337749 153.163636 
" style="fill:none;stroke:#ff0000;stroke-linecap:square;stroke-width:1.5;"/>
   </g>
   <g id="line2d_26">
    <path clip-path="url(#p233c77a89f)" d="M 172.582371 147.305306 
L 172.582371 143.28 
" style="fill:none;stroke:#ff0000;stroke-linecap:square;stroke-width:1.5;"/>
   </g>
   <g id="line2d_27">
    <path clip-path="url(#p233c77a89f)" d="M 182.826992 140.832623 
L 182.826992 133.396364 
" style="fill:none;stroke:#ff0000;stroke-linecap:square;stroke-width:1.5;"/>
   </g>
   <g id="line2d_28">
    <path clip-path="url(#p233c77a89f)" d="M 193.071613 129.216258 
L 193.071613 123.512727 
" style="fill:none;stroke:#ff0000;stroke-linecap:square;stroke-width:1.5;"/>
   </g>
   <g id="line2d_29">
    <path clip-path="url(#p233c77a89f)" d="M 203.316234 119.379189 
L 203.316234 113.629091 
" style="fill:none;stroke:#ff0000;stroke-linecap:square;stroke-width:1.5;"/>
   </g>
   <g id="line2d_30">
    <path clip-path="url(#p233c77a89f)" d="M 213.560855 141.699047 
L 213.560855 103.745455 
" style="fill:none;stroke:#ff0000;stroke-linecap:square;stroke-width:1.5;"/>
   </g>
   <g id="line2d_31">
    <path clip-path="url(#p233c77a89f)" d="M 223.805477 105.135411 
L 223.805477 93.861818 
" style="fill:none;stroke:#ff0000;stroke-linecap:square;stroke-width:1.5;"/>
   </g>
   <g id="line2d_32">
    <path clip-path="url(#p233c77a89f)" d="M 234.050098 91.607983 
L 234.050098 83.978182 
" style="fill:none;stroke:#ff0000;stroke-linecap:square;stroke-width:1.5;"/>
   </g>
   <g id="line2d_33">
    <path clip-path="url(#p233c77a89f)" d="M 244.294719 105.137563 
L 244.294719 74.094545 
" style="fill:none;stroke:#ff0000;stroke-linecap:square;stroke-width:1.5;"/>
   </g>
   <g id="line2d_34">
    <path clip-path="url(#p233c77a89f)" d="M 254.53934 71.642079 
L 254.53934 64.210909 
" style="fill:none;stroke:#ff0000;stroke-linecap:square;stroke-width:1.5;"/>
   </g>
   <g id="line2d_35">
    <path clip-path="url(#p233c77a89f)" d="M 264.783961 89.315339 
L 264.783961 54.327273 
" style="fill:none;stroke:#ff0000;stroke-linecap:square;stroke-width:1.5;"/>
   </g>
   <g id="line2d_36">
    <path clip-path="url(#p233c77a89f)" d="M 275.028583 59.633097 
L 275.028583 44.443636 
" style="fill:none;stroke:#ff0000;stroke-linecap:square;stroke-width:1.5;"/>
   </g>
   <g id="patch_24">
    <path d="M 54 252 
L 54 34.56 
" style="fill:none;stroke:#000000;stroke-linecap:square;stroke-linejoin:miter;stroke-width:0.8;"/>
   </g>
   <g id="patch_25">
    <path d="M 388.8 252 
L 388.8 34.56 
" style="fill:none;stroke:#000000;stroke-linecap:square;stroke-linejoin:miter;stroke-width:0.8;"/>
   </g>
   <g id="patch_26">
    <path d="M 54 252 
L 388.8 252 
" style="fill:none;stroke:#000000;stroke-linecap:square;stroke-linejoin:miter;stroke-width:0.8;"/>
   </g>
   <g id="patch_27">
    <path d="M 54 34.56 
L 388.8 34.56 
" style="fill:none;stroke:#000000;stroke-linecap:square;stroke-linejoin:miter;stroke-width:0.8;"/>
   </g>
  </g>
 </g>
 <defs>
  <clipPath id="p233c77a89f">
   <rect height="217.44" width="334.8" x="54" y="34.56"/>
  </clipPath>
 </defs>
</svg>
